<svg width="32" height="32" viewBox="0 0 32 32" fill="none" xmlns="http://www.w3.org/2000/svg">
<path fill-rule="evenodd" clip-rule="evenodd" d="M12 10C12 9.44772 12.4477 9 13 9H26C27.3261 9 28.5979 9.52678 29.5355 10.4645C30.4732 11.4021 31 12.6739 31 14V21C31 21.5523 30.5523 22 30 22C29.4477 22 29 21.5523 29 21V14C29 13.2044 28.6839 12.4413 28.1213 11.8787C27.5587 11.3161 26.7957 11 26 11H14V21C14 21.5523 13.5523 22 13 22C12.4477 22 12 21.5523 12 21V10Z" fill="#FF0049"/>
<path fill-rule="evenodd" clip-rule="evenodd" d="M2 5C2.55228 5 3 5.44772 3 6V26C3 26.5523 2.55228 27 2 27C1.44772 27 1 26.5523 1 26V6C1 5.44772 1.44772 5 2 5Z" fill="#FF0049"/>
<path fill-rule="evenodd" clip-rule="evenodd" d="M1 21C1 20.4477 1.44772 20 2 20H30C30.5523 20 31 20.4477 31 21V26C31 26.5523 30.5523 27 30 27C29.4477 27 29 26.5523 29 26V22H2C1.44772 22 1 21.5523 1 21Z" fill="#FF0049"/>
<path fill-rule="evenodd" clip-rule="evenodd" d="M1 10C1 9.44772 1.44772 9 2 9H13C13.5523 9 14 9.44772 14 10C14 10.5523 13.5523 11 13 11H2C1.44772 11 1 10.5523 1 10Z" fill="#FF0049"/>
</svg>
