<svg width="32" height="32" viewBox="0 0 32 32" fill="none" xmlns="http://www.w3.org/2000/svg">
<path fill-rule="evenodd" clip-rule="evenodd" d="M5.00006 5.00384C5.55234 5.00384 6.00006 5.45156 6.00006 6.00384V27.0038C6.00006 27.5561 5.55234 28.0038 5.00006 28.0038C4.44777 28.0038 4.00006 27.5561 4.00006 27.0038V6.00384C4.00006 5.45156 4.44777 5.00384 5.00006 5.00384Z" fill="#FF0049"/>
<path fill-rule="evenodd" clip-rule="evenodd" d="M21.4155 6.69823C22.9832 6.86041 24.606 6.55096 26.4001 5.20542C26.7031 4.97816 27.1085 4.9416 27.4473 5.111C27.7861 5.28039 28.0001 5.62665 28.0001 6.00542V21.0054C28.0001 21.3202 27.8519 21.6166 27.6001 21.8054C25.3941 23.4599 23.2669 23.9004 21.2097 23.6876C19.2452 23.4844 17.3766 22.6834 15.6742 21.9537L15.6061 21.9246C13.8268 21.162 12.219 20.4817 10.5847 20.3126C9.01695 20.1504 7.39411 20.4599 5.60006 21.8054C5.15823 22.1368 4.53143 22.0473 4.20006 21.6054C3.86869 21.1636 3.95823 20.5368 4.40006 20.2054C6.606 18.551 8.73317 18.1104 10.7905 18.3232C12.755 18.5265 14.6235 19.3274 16.326 20.0571L16.394 20.0863C18.1734 20.8489 19.7811 21.5292 21.4155 21.6982C22.8658 21.8483 24.3634 21.5946 26.0001 20.4904V7.80741C24.3607 8.6359 22.7652 8.84854 21.2097 8.68761C19.2452 8.48439 17.3766 7.68344 15.6742 6.95372L15.6061 6.92457C13.8268 6.16198 12.219 5.48168 10.5847 5.31261C9.01695 5.15044 7.39411 5.45988 5.60006 6.80542C5.15823 7.13679 4.53143 7.04725 4.20006 6.60542C3.86869 6.16359 3.95823 5.53679 4.40006 5.20542C6.606 3.55096 8.73317 3.11041 10.7905 3.32323C12.755 3.52645 14.6235 4.3274 16.326 5.05713L16.394 5.08628C18.1734 5.84887 19.7811 6.52916 21.4155 6.69823Z" fill="#FF0049"/>
</svg>
