<svg width="32" height="32" viewBox="0 0 32 32" fill="none" xmlns="http://www.w3.org/2000/svg">
<path fill-rule="evenodd" clip-rule="evenodd" d="M11.7164 2.65773C11.991 2.56907 12.2906 2.6034 12.5381 2.75189L15.4612 4.50575C15.8195 4.48974 16.1783 4.48975 16.5366 4.50578L19.4476 2.76379C19.693 2.61691 19.9896 2.58217 20.2623 2.66833C22.1726 3.27186 23.9289 4.28334 25.4096 5.63276C25.6219 5.8262 25.7408 6.10157 25.7359 6.38871L25.6787 9.7865C25.8761 10.0896 26.0572 10.403 26.2213 10.7254L29.1845 12.3729C29.434 12.5116 29.6123 12.7504 29.6745 13.029C30.1105 14.9816 30.1151 17.0058 29.688 18.9603C29.6266 19.2414 29.4472 19.4823 29.1956 19.6217L26.2209 21.2692C26.0569 21.5912 25.876 21.9044 25.6787 22.2073L25.7359 25.605C25.7408 25.8922 25.6219 26.1676 25.4096 26.361C23.932 27.7075 22.1832 28.7219 20.2808 29.336C20.0061 29.4247 19.7066 29.3904 19.4591 29.2419L16.536 27.488C16.1777 27.504 15.8188 27.504 15.4605 27.488L12.5496 29.23C12.3041 29.3768 12.0076 29.4116 11.7348 29.3254C9.82452 28.7219 8.06822 27.7104 6.5875 26.361C6.37522 26.1675 6.25636 25.8922 6.26121 25.605L6.31848 22.2149C6.12225 21.9086 5.94131 21.5928 5.77634 21.2686L2.81264 19.6209C2.56313 19.4822 2.38481 19.2434 2.3226 18.9648C1.88664 17.0122 1.88204 14.988 2.30912 13.0334C2.37052 12.7524 2.54995 12.5114 2.80157 12.3721L5.77622 10.7246C5.9402 10.4025 6.12119 10.0894 6.31842 9.7865L6.26121 6.38871C6.25638 6.10155 6.37524 5.82618 6.58752 5.63273C8.06513 4.28626 9.81396 3.27185 11.7164 2.65773ZM8.26872 6.81771L8.32343 10.0675C8.32697 10.2781 8.26397 10.4844 8.14339 10.657C7.87517 11.041 7.64034 11.4473 7.44149 11.8714C7.35209 12.0621 7.20478 12.2196 7.02057 12.3217L4.17625 13.897C3.92745 15.286 3.93091 16.7085 4.18645 18.0964L7.022 19.6729C7.20482 19.7745 7.35116 19.9309 7.44043 20.1201C7.64365 20.5507 7.88067 20.9646 8.14928 21.3578C8.26608 21.5287 8.32693 21.7317 8.32343 21.9388L8.26875 25.1759C9.34962 26.089 10.5857 26.8007 11.918 27.2772L14.6976 25.6138C14.8736 25.5084 15.0778 25.4598 15.2824 25.4744C15.7592 25.5085 16.2379 25.5085 16.7147 25.4744C16.9197 25.4598 17.1243 25.5086 17.3006 25.6144L20.0891 27.2875C21.4171 26.8035 22.6492 26.0887 23.7284 25.176L23.6737 21.9262C23.6702 21.7157 23.7332 21.5094 23.8538 21.3368C24.122 20.9527 24.3568 20.5465 24.5557 20.1224C24.6451 19.9317 24.7924 19.7741 24.9766 19.6721L27.8209 18.0968C28.0697 16.7078 28.0662 15.2852 27.8107 13.8974L24.9751 12.3209C24.7916 12.2188 24.6448 12.0616 24.5557 11.8714C24.3568 11.4473 24.122 11.041 23.8538 10.657C23.7332 10.4844 23.6702 10.2781 23.6737 10.0675L23.7284 6.81785C22.6475 5.90475 21.4115 5.19303 20.0792 4.71659L17.2996 6.37997C17.1235 6.48531 16.9194 6.53397 16.7147 6.51933C16.2379 6.48522 15.7592 6.48522 15.2824 6.51933C15.0774 6.53399 14.8728 6.48512 14.6966 6.37937L11.908 4.70624C10.5801 5.19023 9.34799 5.90506 8.26872 6.81771ZM16 10.9961C13.2386 10.9961 11 13.2347 11 15.9961C11 18.7575 13.2386 20.9961 16 20.9961C18.7614 20.9961 21 18.7575 21 15.9961C21 13.2347 18.7614 10.9961 16 10.9961ZM9 15.9961C9 12.1301 12.134 8.9961 16 8.9961C19.866 8.9961 23 12.1301 23 15.9961C23 19.8621 19.866 22.9961 16 22.9961C12.134 22.9961 9 19.8621 9 15.9961Z" fill="#FF0049"/>
</svg>
