<svg width="32" height="32" viewBox="0 0 32 32" fill="none" xmlns="http://www.w3.org/2000/svg">
<path fill-rule="evenodd" clip-rule="evenodd" d="M11 12C11.3344 12 11.6466 12.1671 11.8321 12.4453L15 17.1972L16.168 15.4453C16.3534 15.1671 16.6657 15 17 15H20C20.5523 15 21 15.4477 21 16C21 16.5523 20.5523 17 20 17H17.5352L15.8321 19.5547C15.6466 19.8329 15.3344 20 15 20C14.6657 20 14.3534 19.8329 14.168 19.5547L11 14.8028L9.83205 16.5547C9.64659 16.8329 9.33436 17 9 17H4C3.44772 17 3 16.5523 3 16C3 15.4477 3.44772 15 4 15H8.46482L10.168 12.4453C10.3534 12.1671 10.6657 12 11 12Z" fill="#FF0049"/>
<path fill-rule="evenodd" clip-rule="evenodd" d="M12.5851 6.64538C11.4628 6.04778 10.1681 5.85746 8.92136 6.10682C7.67459 6.35617 6.55272 7.02979 5.74662 8.01307C4.94053 8.99635 4.5 10.2285 4.5 11.5C4.5 11.6703 4.50053 11.8059 4.50956 11.9233C4.55192 12.474 4.13986 12.9547 3.5892 12.9971C3.03854 13.0394 2.55781 12.6274 2.51545 12.0767C2.49996 11.8754 2.49999 11.6678 2.5 11.5143L2.5 11.5C2.5 9.76619 3.10071 8.08593 4.19994 6.7451C5.29916 5.40426 6.82898 4.48569 8.52913 4.14566C10.2293 3.80563 11.9947 4.06515 13.5251 4.88006C14.5021 5.40033 15.3448 6.12646 16 7C16.6552 6.12646 17.4979 5.40033 18.4749 4.88006C20.0053 4.06515 21.7707 3.80563 23.4709 4.14566C25.171 4.48569 26.7009 5.40426 27.8001 6.7451C28.8993 8.08593 29.5 9.76619 29.5 11.5C29.5 16.2103 26.072 20.3431 22.919 23.1808C21.3122 24.6269 19.71 25.796 18.5117 26.6029C17.9115 27.007 17.4102 27.3219 17.057 27.5369C16.8803 27.6444 16.7406 27.727 16.6438 27.7834C16.5955 27.8115 16.5578 27.8332 16.5317 27.8481L16.5012 27.8654L16.4927 27.8702L16.4901 27.8717C16.4897 27.8719 16.4886 27.8725 16 27C15.5105 27.872 15.5103 27.8719 15.5101 27.8718L15.5084 27.8709L15.5046 27.8687L15.4915 27.8613L15.4444 27.8343C15.4038 27.811 15.3452 27.777 15.2701 27.7326C15.1198 27.6439 14.9034 27.5137 14.6333 27.3449C14.0933 27.0074 13.3369 26.5143 12.4637 25.8873C10.7231 24.6377 8.49127 22.8372 6.58493 20.6585C6.22124 20.2429 6.26336 19.6111 6.679 19.2474C7.09464 18.8838 7.7264 18.9259 8.09008 19.3415C9.85874 21.3628 11.9581 23.0623 13.6301 24.2627C14.4631 24.8608 15.1833 25.3301 15.6933 25.6489C15.8065 25.7197 15.9093 25.7829 16.0006 25.8385C16.0061 25.8352 16.0116 25.8318 16.0172 25.8284C16.3476 25.6273 16.8229 25.3289 17.3946 24.944C18.54 24.1728 20.0628 23.0606 21.581 21.6942C24.678 18.9069 27.5 15.2897 27.5 11.5C27.5 10.2285 27.0595 8.99635 26.2534 8.01307C25.4473 7.02979 24.3254 6.35617 23.0786 6.10682C21.8319 5.85746 20.5372 6.04778 19.4149 6.64538C18.2927 7.24299 17.4121 8.21097 16.9231 9.38463L16 9.00001L15.0769 9.38463C14.5879 8.21097 13.7073 7.24299 12.5851 6.64538ZM16 27L15.5101 27.8718C15.8138 28.0423 16.1847 28.0427 16.4886 27.8725L16 27Z" fill="#FF0049"/>
</svg>
