<svg width="32" height="32" viewBox="0 0 32 32" fill="none" xmlns="http://www.w3.org/2000/svg">
<path fill-rule="evenodd" clip-rule="evenodd" d="M1 3C1 2.44772 1.44772 2 2 2H4.27208C4.73851 2.00447 5.18872 2.17188 5.54481 2.47318C5.90031 2.77399 6.13968 3.18941 6.22167 3.64778L6.22208 3.65005L9.55953 22H23C23.5523 22 24 22.4477 24 23C24 23.5523 23.5523 24 23 24H8.725C8.24174 24 7.82762 23.6544 7.74114 23.1789L4.25292 4H2C1.44772 4 1 3.55228 1 3Z" fill="#FF0049"/>
<path fill-rule="evenodd" clip-rule="evenodd" d="M10 24C9.17157 24 8.5 24.6716 8.5 25.5C8.5 26.3284 9.17157 27 10 27C10.8284 27 11.5 26.3284 11.5 25.5C11.5 24.6716 10.8284 24 10 24ZM6.5 25.5C6.5 23.567 8.067 22 10 22C11.933 22 13.5 23.567 13.5 25.5C13.5 27.433 11.933 29 10 29C8.067 29 6.5 27.433 6.5 25.5Z" fill="#FF0049"/>
<path fill-rule="evenodd" clip-rule="evenodd" d="M23 24C22.1716 24 21.5 24.6716 21.5 25.5C21.5 26.3284 22.1716 27 23 27C23.8284 27 24.5 26.3284 24.5 25.5C24.5 24.6716 23.8284 24 23 24ZM19.5 25.5C19.5 23.567 21.067 22 23 22C24.933 22 26.5 23.567 26.5 25.5C26.5 27.433 24.933 29 23 29C21.067 29 19.5 27.433 19.5 25.5Z" fill="#FF0049"/>
<path fill-rule="evenodd" clip-rule="evenodd" d="M5 8C5 7.44772 5.44772 7 6 7H27C27.2966 7 27.5779 7.13168 27.7679 7.35945C27.9579 7.58723 28.037 7.8876 27.9838 8.1794L26.4594 16.5386L26.459 16.5406C26.335 17.2315 25.9716 17.8566 25.4325 18.3064C24.8935 18.7562 24.2132 19.0017 23.5112 19L23.5095 19L23.5125 19H23.5112H7.8125C7.26022 19 6.8125 18.5523 6.8125 18C6.8125 17.4477 7.26022 17 7.8125 17H23.5125L23.5155 17C23.7478 17.0007 23.9729 16.9195 24.1512 16.7707C24.3295 16.6219 24.4497 16.415 24.4906 16.1864L24.4912 16.1831L25.8011 9H6C5.44772 9 5 8.55228 5 8Z" fill="#FF0049"/>
</svg>
