<svg width="32" height="32" viewBox="0 0 32 32" fill="none" xmlns="http://www.w3.org/2000/svg">
<path d="M7.9987 10.6693C8.98574 10.6693 9.84754 10.133 10.3086 9.33594H18.6654C20.1382 9.33594 21.332 10.5298 21.332 12.0026C21.332 13.4754 20.1382 14.6693 18.6654 14.6693H13.332C10.3865 14.6693 7.9987 17.0571 7.9987 20.0026C7.9987 22.9481 10.3865 25.3359 13.332 25.3359H21.6888C22.1499 26.133 23.0116 26.6693 23.9987 26.6693C25.4715 26.6693 26.6654 25.4754 26.6654 24.0026C26.6654 22.5298 25.4715 21.3359 23.9987 21.3359C23.0116 21.3359 22.1499 21.8722 21.6888 22.6693H13.332C11.8593 22.6693 10.6654 21.4754 10.6654 20.0026C10.6654 18.5298 11.8593 17.3359 13.332 17.3359H18.6654C21.6108 17.3359 23.9987 14.9481 23.9987 12.0026C23.9987 9.05708 21.6108 6.66927 18.6654 6.66927H10.3086C9.84754 5.8722 8.98574 5.33594 7.9987 5.33594C6.52594 5.33594 5.33203 6.52984 5.33203 8.0026C5.33203 9.47536 6.52594 10.6693 7.9987 10.6693Z" fill="#FF0049"/>
</svg>
