<svg width="718" height="364" viewBox="0 0 718 364" fill="none" xmlns="http://www.w3.org/2000/svg">
<g filter="url(#filter0_d_7392_3310351)">
<rect width="710" height="356" transform="translate(5 3)" fill="white"/>
<rect x="21" y="19" width="157.5" height="324" rx="1" fill="#EBEAE8"/>
<rect x="29" y="27" width="52" height="8" fill="#93949E"/>
<rect x="91" y="27" width="8" height="8" fill="#93949E"/>
<path d="M29 44C29 43.4477 29.4477 43 30 43H169.5C170.052 43 170.5 43.4477 170.5 44V86C170.5 86.5523 170.052 87 169.5 87H30C29.4477 87 29 86.5523 29 86V44Z" fill="white"/>
<rect x="37" y="51" width="8" height="8" fill="#00D0F6"/>
<rect x="49" y="51" width="99.5" height="8" fill="#0B0E29"/>
<circle cx="153.5" cy="58" r="1" fill="#0B0E29"/>
<circle cx="157.5" cy="58" r="1" fill="#0B0E29"/>
<circle cx="161.5" cy="58" r="1" fill="#0B0E29"/>
<rect x="49" y="63" width="113.5" height="4" fill="#93949E"/>
<rect x="49" y="71" width="8" height="8" rx="4" fill="#EBEAE8"/>
<rect x="61" y="73" width="43" height="4" fill="#EBEAE8"/>
<path d="M29 96C29 95.4477 29.4477 95 30 95H169.5C170.052 95 170.5 95.4477 170.5 96V138C170.5 138.552 170.052 139 169.5 139H30C29.4477 139 29 138.552 29 138V96Z" fill="white"/>
<rect x="37" y="103" width="8" height="8" fill="#00D0F6"/>
<rect x="49" y="103" width="99.5" height="8" fill="#0B0E29"/>
<circle cx="153.5" cy="110" r="1" fill="#0B0E29"/>
<circle cx="157.5" cy="110" r="1" fill="#0B0E29"/>
<circle cx="161.5" cy="110" r="1" fill="#0B0E29"/>
<rect x="49" y="115" width="113.5" height="4" fill="#93949E"/>
<rect x="49" y="123" width="8" height="8" rx="4" fill="#EBEAE8"/>
<rect x="61" y="125" width="43" height="4" fill="#EBEAE8"/>
<path d="M29 148C29 147.448 29.4477 147 30 147H169.5C170.052 147 170.5 147.448 170.5 148V190C170.5 190.552 170.052 191 169.5 191H30C29.4477 191 29 190.552 29 190V148Z" fill="white"/>
<rect x="37" y="155" width="8" height="8" fill="#00D0F6"/>
<rect x="49" y="155" width="99.5" height="8" fill="#0B0E29"/>
<circle cx="153.5" cy="162" r="1" fill="#0B0E29"/>
<circle cx="157.5" cy="162" r="1" fill="#0B0E29"/>
<circle cx="161.5" cy="162" r="1" fill="#0B0E29"/>
<rect x="49" y="167" width="113.5" height="4" fill="#93949E"/>
<rect x="49" y="175" width="8" height="8" rx="4" fill="#EBEAE8"/>
<rect x="61" y="177" width="43" height="4" fill="#EBEAE8"/>
<rect x="194.5" y="19" width="157.5" height="324" rx="1" fill="#EBEAE8"/>
<rect x="202.5" y="27" width="52" height="8" fill="#93949E"/>
<rect x="264.5" y="27" width="8" height="8" fill="#93949E"/>
<path d="M202.5 44C202.5 43.4477 202.948 43 203.5 43H343C343.552 43 344 43.4477 344 44V86C344 86.5523 343.552 87 343 87H203.5C202.948 87 202.5 86.5523 202.5 86V44Z" fill="white"/>
<path d="M214.273 51.1495C214.374 50.9502 214.626 50.9502 214.727 51.1495L218.465 58.5514C218.565 58.7508 218.439 59 218.238 59H210.762C210.561 59 210.435 58.7508 210.535 58.5514L214.273 51.1495Z" fill="#FF0049"/>
<rect x="222.5" y="51" width="99.5" height="8" fill="#0B0E29"/>
<circle cx="327" cy="58" r="1" fill="#0B0E29"/>
<circle cx="331" cy="58" r="1" fill="#0B0E29"/>
<circle cx="335" cy="58" r="1" fill="#0B0E29"/>
<rect x="222.5" y="63" width="113.5" height="4" fill="#93949E"/>
<rect x="222.5" y="71" width="8" height="8" rx="4" fill="#EBEAE8"/>
<rect x="234.5" y="73" width="43" height="4" fill="#EBEAE8"/>
<path d="M202.5 96C202.5 95.4477 202.948 95 203.5 95H343C343.552 95 344 95.4477 344 96V138C344 138.552 343.552 139 343 139H203.5C202.948 139 202.5 138.552 202.5 138V96Z" fill="white"/>
<circle cx="214.5" cy="107" r="4" fill="#1324A0"/>
<rect x="222.5" y="103" width="99.5" height="8" fill="#0B0E29"/>
<circle cx="327" cy="110" r="1" fill="#0B0E29"/>
<circle cx="331" cy="110" r="1" fill="#0B0E29"/>
<circle cx="335" cy="110" r="1" fill="#0B0E29"/>
<rect x="222.5" y="115" width="113.5" height="4" fill="#93949E"/>
<rect x="222.5" y="123" width="8" height="8" rx="4" fill="#EBEAE8"/>
<rect x="234.5" y="125" width="43" height="4" fill="#EBEAE8"/>
<path d="M202.5 148C202.5 147.448 202.948 147 203.5 147H343C343.552 147 344 147.448 344 148V190C344 190.552 343.552 191 343 191H203.5C202.948 191 202.5 190.552 202.5 190V148Z" fill="white"/>
<path d="M214.273 155.15C214.374 154.95 214.626 154.95 214.727 155.15L218.465 162.551C218.565 162.751 218.439 163 218.238 163H210.762C210.561 163 210.435 162.751 210.535 162.551L214.273 155.15Z" fill="#FF0049"/>
<rect x="222.5" y="155" width="99.5" height="8" fill="#0B0E29"/>
<circle cx="327" cy="162" r="1" fill="#0B0E29"/>
<circle cx="331" cy="162" r="1" fill="#0B0E29"/>
<circle cx="335" cy="162" r="1" fill="#0B0E29"/>
<rect x="222.5" y="167" width="113.5" height="4" fill="#93949E"/>
<rect x="222.5" y="175" width="8" height="8" rx="4" fill="#EBEAE8"/>
<rect x="234.5" y="177" width="43" height="4" fill="#EBEAE8"/>
<path d="M202.5 200C202.5 199.448 202.948 199 203.5 199H343C343.552 199 344 199.448 344 200V242C344 242.552 343.552 243 343 243H203.5C202.948 243 202.5 242.552 202.5 242V200Z" fill="white"/>
<rect x="210.5" y="207" width="8" height="8" fill="#00D0F6"/>
<rect x="222.5" y="207" width="99.5" height="8" fill="#0B0E29"/>
<circle cx="327" cy="214" r="1" fill="#0B0E29"/>
<circle cx="331" cy="214" r="1" fill="#0B0E29"/>
<circle cx="335" cy="214" r="1" fill="#0B0E29"/>
<rect x="222.5" y="219" width="113.5" height="4" fill="#93949E"/>
<rect x="222.5" y="227" width="8" height="8" rx="4" fill="#EBEAE8"/>
<rect x="234.5" y="229" width="43" height="4" fill="#EBEAE8"/>
<path d="M202.5 252C202.5 251.448 202.948 251 203.5 251H343C343.552 251 344 251.448 344 252V294C344 294.552 343.552 295 343 295H203.5C202.948 295 202.5 294.552 202.5 294V252Z" fill="white"/>
<rect x="210.5" y="259" width="8" height="8" fill="#00D0F6"/>
<rect x="222.5" y="259" width="99.5" height="8" fill="#0B0E29"/>
<circle cx="327" cy="266" r="1" fill="#0B0E29"/>
<circle cx="331" cy="266" r="1" fill="#0B0E29"/>
<circle cx="335" cy="266" r="1" fill="#0B0E29"/>
<rect x="222.5" y="271" width="113.5" height="4" fill="#93949E"/>
<rect x="222.5" y="279" width="8" height="8" rx="4" fill="#EBEAE8"/>
<rect x="234.5" y="281" width="43" height="4" fill="#EBEAE8"/>
<rect x="368" y="19" width="157.5" height="324" rx="1" fill="#EBEAE8"/>
<rect x="376" y="27" width="52" height="8" fill="#93949E"/>
<rect x="438" y="27" width="8" height="8" fill="#93949E"/>
<path d="M376 44C376 43.4477 376.448 43 377 43H516.5C517.052 43 517.5 43.4477 517.5 44V86C517.5 86.5523 517.052 87 516.5 87H377C376.448 87 376 86.5523 376 86V44Z" fill="white"/>
<rect x="384" y="51" width="8" height="8" fill="#00D0F6"/>
<rect x="396" y="51" width="99.5" height="8" fill="#0B0E29"/>
<circle cx="500.5" cy="58" r="1" fill="#0B0E29"/>
<circle cx="504.5" cy="58" r="1" fill="#0B0E29"/>
<circle cx="508.5" cy="58" r="1" fill="#0B0E29"/>
<rect x="396" y="63" width="113.5" height="4" fill="#93949E"/>
<rect x="396" y="71" width="8" height="8" rx="4" fill="#EBEAE8"/>
<rect x="408" y="73" width="43" height="4" fill="#EBEAE8"/>
<path d="M376 96C376 95.4477 376.448 95 377 95H516.5C517.052 95 517.5 95.4477 517.5 96V138C517.5 138.552 517.052 139 516.5 139H377C376.448 139 376 138.552 376 138V96Z" fill="white"/>
<circle cx="388" cy="107" r="4" fill="#1324A0"/>
<rect x="396" y="103" width="99.5" height="8" fill="#0B0E29"/>
<circle cx="500.5" cy="110" r="1" fill="#0B0E29"/>
<circle cx="504.5" cy="110" r="1" fill="#0B0E29"/>
<circle cx="508.5" cy="110" r="1" fill="#0B0E29"/>
<rect x="396" y="115" width="113.5" height="4" fill="#93949E"/>
<rect x="396" y="123" width="8" height="8" rx="4" fill="#EBEAE8"/>
<rect x="408" y="125" width="43" height="4" fill="#EBEAE8"/>
<rect x="541.5" y="19" width="157.5" height="324" rx="1" fill="#EBEAE8"/>
<rect x="549.5" y="27" width="52" height="8" fill="#93949E"/>
<rect x="611.5" y="27" width="8" height="8" fill="#93949E"/>
<path d="M549.5 44C549.5 43.4477 549.948 43 550.5 43H690C690.552 43 691 43.4477 691 44V86C691 86.5523 690.552 87 690 87H550.5C549.948 87 549.5 86.5523 549.5 86V44Z" fill="white"/>
<rect x="557.5" y="51" width="8" height="8" fill="#00D0F6"/>
<rect x="569.5" y="51" width="99.5" height="8" fill="#0B0E29"/>
<circle cx="674" cy="58" r="1" fill="#0B0E29"/>
<circle cx="678" cy="58" r="1" fill="#0B0E29"/>
<circle cx="682" cy="58" r="1" fill="#0B0E29"/>
<rect x="569.5" y="63" width="113.5" height="4" fill="#93949E"/>
<rect x="569.5" y="71" width="8" height="8" rx="4" fill="#EBEAE8"/>
<rect x="581.5" y="73" width="43" height="4" fill="#EBEAE8"/>
<path d="M549.5 96C549.5 95.4477 549.948 95 550.5 95H690C690.552 95 691 95.4477 691 96V138C691 138.552 690.552 139 690 139H550.5C549.948 139 549.5 138.552 549.5 138V96Z" fill="white"/>
<path d="M561.273 103.15C561.374 102.95 561.626 102.95 561.727 103.15L565.465 110.551C565.565 110.751 565.439 111 565.238 111H557.762C557.561 111 557.435 110.751 557.535 110.551L561.273 103.15Z" fill="#FF0049"/>
<rect x="569.5" y="103" width="99.5" height="8" fill="#0B0E29"/>
<circle cx="674" cy="110" r="1" fill="#0B0E29"/>
<circle cx="678" cy="110" r="1" fill="#0B0E29"/>
<circle cx="682" cy="110" r="1" fill="#0B0E29"/>
<rect x="569.5" y="115" width="113.5" height="4" fill="#93949E"/>
<rect x="569.5" y="123" width="8" height="8" rx="4" fill="#EBEAE8"/>
<rect x="581.5" y="125" width="43" height="4" fill="#EBEAE8"/>
<path d="M549.5 148C549.5 147.448 549.948 147 550.5 147H690C690.552 147 691 147.448 691 148V190C691 190.552 690.552 191 690 191H550.5C549.948 191 549.5 190.552 549.5 190V148Z" fill="white"/>
<circle cx="561.5" cy="159" r="4" fill="#1324A0"/>
<rect x="569.5" y="155" width="99.5" height="8" fill="#0B0E29"/>
<circle cx="674" cy="162" r="1" fill="#0B0E29"/>
<circle cx="678" cy="162" r="1" fill="#0B0E29"/>
<circle cx="682" cy="162" r="1" fill="#0B0E29"/>
<rect x="569.5" y="167" width="113.5" height="4" fill="#93949E"/>
<rect x="569.5" y="175" width="8" height="8" rx="4" fill="#EBEAE8"/>
<rect x="581.5" y="177" width="43" height="4" fill="#EBEAE8"/>
</g>
<defs>
<filter id="filter0_d_7392_3310351" x="0" y="0" width="718" height="364" filterUnits="userSpaceOnUse" color-interpolation-filters="sRGB">
<feFlood flood-opacity="0" result="BackgroundImageFix"/>
<feColorMatrix in="SourceAlpha" type="matrix" values="0 0 0 0 0 0 0 0 0 0 0 0 0 0 0 0 0 0 127 0" result="hardAlpha"/>
<feOffset dx="-1" dy="1"/>
<feGaussianBlur stdDeviation="2"/>
<feComposite in2="hardAlpha" operator="out"/>
<feColorMatrix type="matrix" values="0 0 0 0 0 0 0 0 0 0 0 0 0 0 0 0 0 0 0.25 0"/>
<feBlend mode="normal" in2="BackgroundImageFix" result="effect1_dropShadow_7392_3310351"/>
<feBlend mode="normal" in="SourceGraphic" in2="effect1_dropShadow_7392_3310351" result="shape"/>
</filter>
</defs>
</svg>
