<svg width="351" height="289" viewBox="0 0 351 289" fill="none" xmlns="http://www.w3.org/2000/svg">
<g clip-path="url(#clip0_7401_402436)">
<g filter="url(#filter0_d_7401_402436)">
<rect width="303" height="271" transform="translate(5.75 5)" fill="white"/>
<rect x="21.75" y="21" width="127.5" height="239" rx="1" fill="#EBEAE8"/>
<rect x="29.75" y="29" width="52" height="8" fill="#93949E"/>
<rect x="91.75" y="29" width="8" height="8" fill="#93949E"/>
<path d="M29.75 46C29.75 45.4477 30.1977 45 30.75 45H140.25C140.802 45 141.25 45.4477 141.25 46V88C141.25 88.5523 140.802 89 140.25 89H30.75C30.1977 89 29.75 88.5523 29.75 88V46Z" fill="white"/>
<path d="M41.5235 53.1495C41.6241 52.9502 41.8759 52.9502 41.9765 53.1495L45.7146 60.5514C45.8153 60.7508 45.6894 61 45.488 61H38.012C37.8106 61 37.6847 60.7508 37.7854 60.5514L41.5235 53.1495Z" fill="#FF0049"/>
<rect x="49.75" y="53" width="69.5" height="8" fill="#0B0E29"/>
<circle cx="124.25" cy="60" r="1" fill="#0B0E29"/>
<circle cx="128.25" cy="60" r="1" fill="#0B0E29"/>
<circle cx="132.25" cy="60" r="1" fill="#0B0E29"/>
<rect x="49.75" y="65" width="83.5" height="4" fill="#93949E"/>
<rect x="49.75" y="73" width="8" height="8" rx="4" fill="#EBEAE8"/>
<rect x="61.75" y="75" width="43" height="4" fill="#EBEAE8"/>
<path d="M29.75 98C29.75 97.4477 30.1977 97 30.75 97H140.25C140.802 97 141.25 97.4477 141.25 98V140C141.25 140.552 140.802 141 140.25 141H30.75C30.1977 141 29.75 140.552 29.75 140V98Z" fill="white"/>
<circle cx="41.75" cy="109" r="4" fill="#1324A0"/>
<rect x="49.75" y="105" width="69.5" height="8" fill="#0B0E29"/>
<circle cx="124.25" cy="112" r="1" fill="#0B0E29"/>
<circle cx="128.25" cy="112" r="1" fill="#0B0E29"/>
<circle cx="132.25" cy="112" r="1" fill="#0B0E29"/>
<rect x="49.75" y="117" width="83.5" height="4" fill="#93949E"/>
<rect x="49.75" y="125" width="8" height="8" rx="4" fill="#EBEAE8"/>
<rect x="61.75" y="127" width="43" height="4" fill="#EBEAE8"/>
<path d="M29.75 150C29.75 149.448 30.1977 149 30.75 149H140.25C140.802 149 141.25 149.448 141.25 150V192C141.25 192.552 140.802 193 140.25 193H30.75C30.1977 193 29.75 192.552 29.75 192V150Z" fill="white"/>
<path d="M41.5235 157.15C41.6241 156.95 41.8759 156.95 41.9765 157.15L45.7146 164.551C45.8153 164.751 45.6894 165 45.488 165H38.012C37.8106 165 37.6847 164.751 37.7854 164.551L41.5235 157.15Z" fill="#FF0049"/>
<rect x="49.75" y="157" width="69.5" height="8" fill="#0B0E29"/>
<circle cx="124.25" cy="164" r="1" fill="#0B0E29"/>
<circle cx="128.25" cy="164" r="1" fill="#0B0E29"/>
<circle cx="132.25" cy="164" r="1" fill="#0B0E29"/>
<rect x="49.75" y="169" width="83.5" height="4" fill="#93949E"/>
<rect x="49.75" y="177" width="8" height="8" rx="4" fill="#EBEAE8"/>
<rect x="61.75" y="179" width="43" height="4" fill="#EBEAE8"/>
<rect x="165.25" y="21" width="127.5" height="239" rx="1" fill="#EBEAE8"/>
<rect x="173.25" y="29" width="52" height="8" fill="#93949E"/>
<rect x="235.25" y="29" width="8" height="8" fill="#93949E"/>
<path d="M173.25 46C173.25 45.4477 173.698 45 174.25 45H283.75C284.302 45 284.75 45.4477 284.75 46V88C284.75 88.5523 284.302 89 283.75 89H174.25C173.698 89 173.25 88.5523 173.25 88V46Z" fill="white"/>
<rect x="181.25" y="53" width="8" height="8" fill="#00D0F6"/>
<rect x="193.25" y="53" width="69.5" height="8" fill="#0B0E29"/>
<circle cx="267.75" cy="60" r="1" fill="#0B0E29"/>
<circle cx="271.75" cy="60" r="1" fill="#0B0E29"/>
<circle cx="275.75" cy="60" r="1" fill="#0B0E29"/>
<rect x="193.25" y="65" width="83.5" height="4" fill="#93949E"/>
<rect x="193.25" y="73" width="8" height="8" rx="4" fill="#EBEAE8"/>
<rect x="205.25" y="75" width="43" height="4" fill="#EBEAE8"/>
<path d="M173.25 98C173.25 97.4477 173.698 97 174.25 97H283.75C284.302 97 284.75 97.4477 284.75 98V140C284.75 140.552 284.302 141 283.75 141H174.25C173.698 141 173.25 140.552 173.25 140V98Z" fill="white"/>
<circle cx="185.25" cy="109" r="4" fill="#1324A0"/>
<rect x="193.25" y="105" width="69.5" height="8" fill="#0B0E29"/>
<circle cx="267.75" cy="112" r="1" fill="#0B0E29"/>
<circle cx="271.75" cy="112" r="1" fill="#0B0E29"/>
<circle cx="275.75" cy="112" r="1" fill="#0B0E29"/>
<rect x="193.25" y="117" width="83.5" height="4" fill="#93949E"/>
<rect x="193.25" y="125" width="8" height="8" rx="4" fill="#EBEAE8"/>
<rect x="205.25" y="127" width="43" height="4" fill="#EBEAE8"/>
</g>
<mask id="mask0_7401_402436" style="mask-type:alpha" maskUnits="userSpaceOnUse" x="197" y="70" width="140" height="141">
<ellipse cx="267.206" cy="140.538" rx="69.6368" ry="69.5516" transform="rotate(-74.5779 267.206 140.538)" fill="#D9D9D9"/>
</mask>
<g mask="url(#mask0_7401_402436)">
<g filter="url(#filter1_d_7401_402436)">
<rect width="674" height="421" transform="translate(-355.25 22)" fill="white"/>
<rect x="95.4375" y="22.7383" width="204.224" height="419.935" rx="1" fill="#EBEAE8"/>
<path d="M105.805 54.8437C105.805 54.2915 106.252 53.8438 106.805 53.8438H288.282C288.834 53.8438 289.282 54.2915 289.282 54.8437V109.872C289.282 110.424 288.834 110.872 288.282 110.872H106.805C106.252 110.872 105.805 110.424 105.805 109.872V54.8437Z" fill="white"/>
<path d="M116.172 64.2109H126.545V74.6975H116.172V64.2109Z" fill="#00D0F6"/>
<path d="M131.732 64.2109H260.569V74.6975H131.732V64.2109Z" fill="#0B0E29"/>
<path d="M268.426 73.3867C268.426 74.1107 267.84 74.6975 267.117 74.6975C266.393 74.6975 265.807 74.1107 265.807 73.3867C265.807 72.6628 266.393 72.0759 267.117 72.0759C267.84 72.0759 268.426 72.6628 268.426 73.3867Z" fill="#0B0E29"/>
<path d="M273.664 73.3867C273.664 74.1107 273.078 74.6975 272.355 74.6975C271.632 74.6975 271.045 74.1107 271.045 73.3867C271.045 72.6628 271.632 72.0759 272.355 72.0759C273.078 72.0759 273.664 72.6628 273.664 73.3867Z" fill="#0B0E29"/>
<path d="M278.903 73.3867C278.903 74.1107 278.316 74.6975 277.593 74.6975C276.87 74.6975 276.284 74.1107 276.284 73.3867C276.284 72.6628 276.87 72.0759 277.593 72.0759C278.316 72.0759 278.903 72.6628 278.903 73.3867Z" fill="#0B0E29"/>
<path d="M131.732 79.9408H278.903V85.1841H131.732V79.9408Z" fill="#93949E"/>
<path d="M147.447 93.0491H203.758V98.2924H147.447V93.0491Z" fill="#EBEAE8"/>
<path d="M105.805 122.242C105.805 121.69 106.252 121.242 106.805 121.242H288.282C288.834 121.242 289.282 121.69 289.282 122.242V177.27C289.282 177.823 288.834 178.27 288.282 178.27H106.805C106.252 178.27 105.805 177.823 105.805 177.27V122.242Z" fill="white"/>
<path d="M126.545 136.853C126.545 139.748 124.223 142.096 121.359 142.096C118.494 142.096 116.172 139.748 116.172 136.853C116.172 133.957 118.494 131.609 121.359 131.609C124.223 131.609 126.545 133.957 126.545 136.853Z" fill="#1324A0"/>
<path d="M131.732 131.609H260.569V142.096H131.732V131.609Z" fill="#0B0E29"/>
<path d="M268.426 140.785C268.426 141.509 267.84 142.096 267.117 142.096C266.393 142.096 265.807 141.509 265.807 140.785C265.807 140.061 266.393 139.474 267.117 139.474C267.84 139.474 268.426 140.061 268.426 140.785Z" fill="#0B0E29"/>
<path d="M273.664 140.785C273.664 141.509 273.078 142.096 272.355 142.096C271.632 142.096 271.045 141.509 271.045 140.785C271.045 140.061 271.632 139.474 272.355 139.474C273.078 139.474 273.664 140.061 273.664 140.785Z" fill="#0B0E29"/>
<path d="M278.903 140.785C278.903 141.509 278.316 142.096 277.593 142.096C276.87 142.096 276.284 141.509 276.284 140.785C276.284 140.061 276.87 139.474 277.593 139.474C278.316 139.474 278.903 140.061 278.903 140.785Z" fill="#0B0E29"/>
<path d="M131.732 147.339H278.903V152.583H131.732V147.339Z" fill="#93949E"/>
<path d="M147.447 160.448H203.758V165.691H147.447V160.448Z" fill="#EBEAE8"/>
</g>
<g filter="url(#filter2_bf_7401_402436)">
<path d="M293.917 43.6861C347.341 58.4236 378.687 113.732 363.932 167.222C349.176 220.711 293.906 252.125 240.482 237.388C187.058 222.65 155.712 167.342 170.467 113.852C185.223 60.363 240.493 28.9486 293.917 43.6861ZM255.25 183.853C279.144 190.444 303.863 176.394 310.462 152.471C317.062 128.549 303.042 103.812 279.149 97.2212C255.255 90.63 230.536 104.68 223.937 128.602C217.338 152.525 231.357 177.261 255.25 183.853Z" fill="#EBEAE8"/>
</g>
</g>
<g filter="url(#filter3_d_7401_402436)">
<path d="M343.404 267.56C346.529 273.074 345.547 279.542 341.211 282.007C336.874 284.472 330.826 282 327.7 276.486C324.575 270.971 320.637 255.821 324.973 253.357C329.309 250.892 340.279 262.046 343.404 267.56Z" fill="#1324A0"/>
<path d="M291.559 206.346L301.8 200.525C301.8 200.525 312.257 218.974 321.237 234.819C330.217 250.663 343.896 268.428 343.896 268.428L328.193 277.354C328.193 277.354 319.729 256.05 310.995 240.64C302.261 225.229 291.559 206.346 291.559 206.346Z" fill="#1324A0"/>
<path d="M291.066 205.476C290.586 205.749 290.417 206.36 290.69 206.84L291.559 206.346C290.69 206.84 290.69 206.84 290.69 206.841L290.69 206.841L290.691 206.842L290.692 206.844L290.693 206.846L290.694 206.848L290.696 206.851L290.698 206.854L290.7 206.858L290.702 206.862L290.704 206.866L290.707 206.871L290.71 206.876L290.714 206.882L290.717 206.888L290.721 206.895L290.725 206.902L290.729 206.909L290.733 206.917L290.738 206.925L290.743 206.934L290.748 206.943L290.753 206.953L290.759 206.962L290.765 206.973L290.771 206.983L290.777 206.995L290.784 207.006L290.79 207.018L290.797 207.03L290.805 207.043L290.812 207.056L290.82 207.07L290.828 207.084L290.836 207.098L290.844 207.113L290.853 207.128L290.861 207.143L290.87 207.159L290.88 207.175L290.889 207.192L290.899 207.209L290.909 207.227L290.919 207.245L290.929 207.263L290.94 207.281L290.951 207.3L290.962 207.32L290.973 207.34L290.984 207.36L290.996 207.38L291.008 207.401L291.02 207.423L291.032 207.444L291.045 207.466L291.057 207.489L291.07 207.512L291.083 207.535L291.097 207.558L291.11 207.582L291.124 207.607L291.138 207.631L291.152 207.656L291.167 207.682L291.181 207.708L291.196 207.734L291.211 207.76L291.226 207.787L291.242 207.814L291.258 207.842L291.273 207.87L291.289 207.898L291.306 207.927L291.322 207.956L291.339 207.986L291.356 208.015L291.373 208.046L291.39 208.076L291.408 208.107L291.425 208.138L291.443 208.17L291.461 208.202L291.48 208.234L291.498 208.266L291.517 208.299L291.536 208.333L291.555 208.366L291.574 208.4L291.593 208.435L291.613 208.469L291.633 208.504L291.653 208.54L291.673 208.575L291.694 208.611L291.714 208.648L291.735 208.685L291.756 208.722L291.777 208.759L291.799 208.797L291.82 208.835L291.842 208.873L291.864 208.912L291.886 208.951L291.908 208.99L291.931 209.03L291.953 209.07L291.976 209.11L291.999 209.151L292.023 209.192L292.046 209.233L292.07 209.275L292.093 209.317L292.117 209.359L292.142 209.402L292.166 209.445L292.19 209.488L292.215 209.532L292.24 209.576L292.265 209.62L292.29 209.664L292.316 209.709L292.341 209.754L292.367 209.8L292.393 209.846L292.419 209.892L292.445 209.938L292.472 209.985L292.498 210.032L292.525 210.079L292.552 210.126L292.579 210.174L292.607 210.223L292.634 210.271L292.662 210.32L292.69 210.369L292.718 210.418L292.746 210.468L292.774 210.518L292.803 210.568L292.831 210.619L292.86 210.67L292.889 210.721L292.918 210.772L292.948 210.824L292.977 210.876L293.007 210.928L293.036 210.981L293.066 211.034L293.097 211.087L293.127 211.14L293.157 211.194L293.188 211.248L293.219 211.302L293.25 211.357L293.281 211.412L293.312 211.467L293.343 211.522L293.375 211.578L293.407 211.634L293.438 211.69L293.471 211.747L293.503 211.804L293.535 211.861L293.567 211.918L293.6 211.975L293.633 212.033L293.666 212.091L293.699 212.15L293.732 212.208L293.766 212.267L293.799 212.326L293.833 212.386L293.867 212.446L293.901 212.506L293.935 212.566L293.969 212.626L294.003 212.687L294.038 212.748L294.073 212.809L294.107 212.871L294.142 212.932L294.178 212.994L294.213 213.057L294.248 213.119L294.284 213.182L294.32 213.245L294.355 213.308L294.391 213.371L294.427 213.435L294.464 213.499L294.5 213.563L294.537 213.628L294.573 213.692L294.61 213.757L294.647 213.822L294.684 213.888L294.721 213.954L294.759 214.019L294.796 214.085L294.834 214.152L294.871 214.218L294.909 214.285L294.947 214.352L294.985 214.419L295.024 214.487L295.062 214.555L295.1 214.623L295.139 214.691L295.178 214.759L295.217 214.828L295.256 214.897L295.295 214.966L295.334 215.035L295.374 215.104L295.413 215.174L295.453 215.244L295.492 215.314L295.532 215.385L295.572 215.455L295.612 215.526L295.653 215.597L295.693 215.668L295.734 215.74L295.774 215.811L295.815 215.883L295.856 215.955L295.897 216.027L295.938 216.1L295.979 216.173L296.02 216.245L296.062 216.319L296.103 216.392L296.145 216.465L296.187 216.539L296.228 216.613L296.27 216.687L296.312 216.761L296.355 216.836L296.397 216.91L296.439 216.985L296.482 217.06L296.525 217.135L296.567 217.211L296.61 217.286L296.653 217.362L296.696 217.438L296.739 217.514L296.783 217.591L296.826 217.667L296.87 217.744L296.913 217.821L296.957 217.898L297.001 217.975L297.045 218.053L297.089 218.13L297.133 218.208L297.177 218.286L297.221 218.364L297.265 218.443L297.31 218.521L297.355 218.6L297.399 218.679L297.444 218.758L297.489 218.837L297.534 218.916L297.579 218.996L297.624 219.075L297.669 219.155L297.715 219.235L297.76 219.316L297.806 219.396L297.851 219.476L297.897 219.557L297.943 219.638L297.989 219.719L298.035 219.8L298.081 219.881L298.127 219.963L298.173 220.044L298.22 220.126L298.266 220.208L298.313 220.29L298.359 220.372L298.406 220.455L298.453 220.537L298.499 220.62L298.546 220.703L298.593 220.786L298.641 220.869L298.688 220.952L298.735 221.035L298.782 221.119L298.83 221.203L298.877 221.286L298.925 221.37L298.972 221.454L299.02 221.539L299.068 221.623L299.116 221.708L299.164 221.792L299.212 221.877L299.26 221.962L299.308 222.047L299.356 222.132L299.405 222.217L299.453 222.303L299.502 222.388L299.55 222.474L299.599 222.56L299.647 222.645L299.696 222.731L299.745 222.818L299.794 222.904L299.843 222.99L299.892 223.077L299.941 223.163L299.99 223.25L300.039 223.337L300.089 223.424L300.138 223.511L300.187 223.598L300.237 223.686L300.286 223.773L300.336 223.86L300.386 223.948L300.435 224.036L300.485 224.124L300.535 224.212L300.585 224.3L300.635 224.388L300.685 224.476L300.735 224.564L300.785 224.653L300.835 224.741L300.886 224.83L300.936 224.919L300.986 225.008L301.037 225.097L301.087 225.186L301.138 225.275L301.188 225.364L301.239 225.453L301.29 225.543L301.34 225.632L301.391 225.722L301.442 225.812L301.493 225.901L301.544 225.991L301.595 226.081L301.646 226.171L301.697 226.261L301.748 226.351L301.799 226.442L301.85 226.532L301.901 226.622L301.953 226.713L302.004 226.804L302.055 226.894L302.107 226.985L302.158 227.076L302.21 227.167L302.261 227.258L302.313 227.349L302.365 227.44L302.416 227.531L302.468 227.622L302.52 227.713L302.571 227.805L302.623 227.896L302.675 227.987L302.727 228.079L302.779 228.171L302.831 228.262L302.883 228.354L302.935 228.446L302.987 228.538L303.039 228.63L303.091 228.721L303.143 228.813L303.195 228.906L303.248 228.998L303.3 229.09L303.352 229.182L303.404 229.274L303.457 229.367L303.509 229.459L303.561 229.551L303.614 229.644L303.666 229.736L303.719 229.829L303.771 229.921L303.824 230.014L303.876 230.107L303.929 230.199L303.981 230.292L304.034 230.385L304.086 230.478L304.139 230.57L304.192 230.663L304.244 230.756L304.297 230.849L304.35 230.942L304.402 231.035L304.455 231.128L304.508 231.221L304.561 231.314L304.613 231.408L304.666 231.501L304.719 231.594L304.772 231.687L304.825 231.78L304.878 231.873L304.93 231.967L304.983 232.06L305.036 232.153L305.089 232.247L305.142 232.34L305.195 232.433L305.248 232.527L305.301 232.62L305.354 232.713L305.406 232.807L305.459 232.9L305.512 232.994L305.565 233.087L305.618 233.18L305.671 233.274L305.724 233.367L305.777 233.461L305.83 233.554L305.883 233.648L305.936 233.741L305.989 233.835L306.042 233.928L306.095 234.022L306.148 234.115L306.201 234.208L306.254 234.302L306.307 234.395L306.36 234.489L306.413 234.582L306.466 234.676L306.519 234.769L306.572 234.862L306.624 234.956L306.677 235.049L306.73 235.143L306.783 235.236L306.836 235.329L306.889 235.422L306.942 235.516L306.995 235.609L307.048 235.702L307.1 235.796L307.153 235.889L307.206 235.982L307.259 236.075L307.312 236.168L307.364 236.261L307.417 236.354L307.47 236.448L307.523 236.541L307.575 236.634L307.628 236.727L307.681 236.819L307.733 236.912L307.786 237.005L307.839 237.098L307.891 237.191L307.944 237.284L307.996 237.376L308.049 237.469L308.101 237.562L308.154 237.654L308.206 237.747L308.259 237.84L308.311 237.932L308.364 238.024L308.416 238.117L308.468 238.209L308.521 238.301L308.573 238.394L308.625 238.486L308.677 238.578L308.73 238.67L308.782 238.762L308.834 238.854L308.886 238.946L308.938 239.038L308.99 239.13L309.042 239.222L309.094 239.313L309.146 239.405L309.198 239.497L309.25 239.588L309.302 239.68L309.354 239.771L309.405 239.862L309.457 239.954L309.509 240.045L309.56 240.136L309.612 240.227L309.664 240.318L309.715 240.409L309.767 240.5L309.818 240.591L309.87 240.681L309.921 240.772L309.972 240.863L310.023 240.953L310.075 241.044L310.126 241.134C314.469 248.796 318.752 257.94 321.955 265.181C322.668 266.794 323.327 268.311 323.921 269.694C324.785 272.588 325.838 275.227 326.831 276.98C326.961 277.208 327.096 277.433 327.235 277.652L327.24 277.664L327.258 277.709L327.262 277.72L327.263 277.723L327.264 277.724C327.264 277.724 327.264 277.724 327.277 277.718C327.277 277.718 327.277 277.718 327.277 277.718L327.264 277.724C327.324 277.874 327.418 278.006 327.538 278.11C330.993 283.14 337.042 285.527 341.704 282.877C346.366 280.227 347.421 273.803 344.88 268.253C344.852 268.096 344.787 267.946 344.688 267.817L344.676 267.826C344.676 267.826 344.676 267.826 344.676 267.826C344.688 267.817 344.688 267.817 344.688 267.817L344.687 267.816L344.685 267.814L344.678 267.805L344.649 267.767L344.643 267.759C344.526 267.526 344.403 267.295 344.273 267.066C343.265 265.288 341.506 262.988 339.429 260.73C338.599 259.584 337.699 258.329 336.75 256.987C332.215 250.576 326.572 242.204 322.106 234.325L309.02 211.236L304.444 203.161L304.34 202.978L304.289 202.889L304.264 202.844L304.239 202.8L304.046 202.459L303.954 202.296L303.908 202.217L303.864 202.138L303.82 202.061L303.778 201.986L303.735 201.911L303.694 201.838L303.674 201.802L303.653 201.766L303.613 201.696L303.536 201.559L303.461 201.428L303.39 201.302L303.373 201.271L303.356 201.241L303.339 201.211L303.322 201.182L303.305 201.153L303.289 201.124L303.273 201.095L303.257 201.067L303.226 201.012L303.21 200.985L303.195 200.958L303.18 200.932L303.166 200.906L303.151 200.88L303.137 200.855L303.029 200.666L302.981 200.58L302.936 200.5L302.894 200.426L302.874 200.392L302.856 200.359L302.838 200.327L302.821 200.297L302.805 200.269L302.797 200.255L302.789 200.242L302.7 200.085L302.687 200.061L302.682 200.052L302.677 200.045L302.672 200.034L302.671 200.033L302.67 200.032L302.67 200.031C302.67 200.031 302.67 200.031 301.8 200.525L302.67 200.031C302.398 199.551 301.788 199.382 301.307 199.655L291.066 205.476Z" stroke="#1324A0" stroke-width="2" stroke-linejoin="round"/>
</g>
<g filter="url(#filter4_d_7401_402436)">
<path fill-rule="evenodd" clip-rule="evenodd" d="M331.19 158.187C340.949 122.81 320.217 86.2304 284.884 76.4834C249.551 66.7363 212.997 87.5131 203.238 122.89C193.479 158.266 214.211 194.846 249.544 204.593C284.877 214.34 321.431 193.563 331.19 158.187ZM334.261 159.034C344.489 121.959 322.762 83.6236 285.732 73.4087C248.703 63.1938 210.394 84.9679 200.167 122.042C189.939 159.117 211.666 197.453 248.696 207.668C285.725 217.882 324.034 196.108 334.261 159.034Z" fill="#1324A0"/>
<path d="M284.352 78.4113C318.619 87.864 338.728 123.341 329.262 157.655C319.796 191.969 284.342 212.118 250.076 202.665C215.81 193.212 195.7 157.735 205.166 123.421C214.632 89.1075 250.086 68.9587 284.352 78.4113ZM336.189 159.566C346.71 121.429 324.36 81.99 286.264 71.4808C248.168 60.9715 208.759 83.3735 198.239 121.511C187.718 159.648 210.068 199.086 248.164 209.596C286.26 220.105 325.669 197.703 336.189 159.566Z" stroke="#1324A0" stroke-width="4"/>
</g>
</g>
<defs>
<filter id="filter0_d_7401_402436" x="0.75" y="2" width="311" height="279" filterUnits="userSpaceOnUse" color-interpolation-filters="sRGB">
<feFlood flood-opacity="0" result="BackgroundImageFix"/>
<feColorMatrix in="SourceAlpha" type="matrix" values="0 0 0 0 0 0 0 0 0 0 0 0 0 0 0 0 0 0 127 0" result="hardAlpha"/>
<feOffset dx="-1" dy="1"/>
<feGaussianBlur stdDeviation="2"/>
<feComposite in2="hardAlpha" operator="out"/>
<feColorMatrix type="matrix" values="0 0 0 0 0 0 0 0 0 0 0 0 0 0 0 0 0 0 0.25 0"/>
<feBlend mode="normal" in2="BackgroundImageFix" result="effect1_dropShadow_7401_402436"/>
<feBlend mode="normal" in="SourceGraphic" in2="effect1_dropShadow_7401_402436" result="shape"/>
</filter>
<filter id="filter1_d_7401_402436" x="-360.25" y="19" width="682" height="429" filterUnits="userSpaceOnUse" color-interpolation-filters="sRGB">
<feFlood flood-opacity="0" result="BackgroundImageFix"/>
<feColorMatrix in="SourceAlpha" type="matrix" values="0 0 0 0 0 0 0 0 0 0 0 0 0 0 0 0 0 0 127 0" result="hardAlpha"/>
<feOffset dx="-1" dy="1"/>
<feGaussianBlur stdDeviation="2"/>
<feComposite in2="hardAlpha" operator="out"/>
<feColorMatrix type="matrix" values="0 0 0 0 0 0 0 0 0 0 0 0 0 0 0 0 0 0 0.25 0"/>
<feBlend mode="normal" in2="BackgroundImageFix" result="effect1_dropShadow_7401_402436"/>
<feBlend mode="normal" in="SourceGraphic" in2="effect1_dropShadow_7401_402436" result="shape"/>
</filter>
<filter id="filter2_bf_7401_402436" x="148.82" y="22.0508" width="236.758" height="236.973" filterUnits="userSpaceOnUse" color-interpolation-filters="sRGB">
<feFlood flood-opacity="0" result="BackgroundImageFix"/>
<feGaussianBlur in="BackgroundImageFix" stdDeviation="1"/>
<feComposite in2="SourceAlpha" operator="in" result="effect1_backgroundBlur_7401_402436"/>
<feBlend mode="normal" in="SourceGraphic" in2="effect1_backgroundBlur_7401_402436" result="shape"/>
<feGaussianBlur stdDeviation="9" result="effect2_foregroundBlur_7401_402436"/>
</filter>
<filter id="filter3_d_7401_402436" x="284.559" y="195.523" width="65.6641" height="94.457" filterUnits="userSpaceOnUse" color-interpolation-filters="sRGB">
<feFlood flood-opacity="0" result="BackgroundImageFix"/>
<feColorMatrix in="SourceAlpha" type="matrix" values="0 0 0 0 0 0 0 0 0 0 0 0 0 0 0 0 0 0 127 0" result="hardAlpha"/>
<feOffset dx="-1" dy="1"/>
<feGaussianBlur stdDeviation="2"/>
<feComposite in2="hardAlpha" operator="out"/>
<feColorMatrix type="matrix" values="0 0 0 0 0 0 0 0 0 0 0 0 0 0 0 0 0 0 0.25 0"/>
<feBlend mode="normal" in2="BackgroundImageFix" result="effect1_dropShadow_7401_402436"/>
<feBlend mode="normal" in="SourceGraphic" in2="effect1_dropShadow_7401_402436" result="shape"/>
</filter>
<filter id="filter4_d_7401_402436" x="188.637" y="63.8867" width="155.152" height="155.301" filterUnits="userSpaceOnUse" color-interpolation-filters="sRGB">
<feFlood flood-opacity="0" result="BackgroundImageFix"/>
<feColorMatrix in="SourceAlpha" type="matrix" values="0 0 0 0 0 0 0 0 0 0 0 0 0 0 0 0 0 0 127 0" result="hardAlpha"/>
<feOffset dx="-1" dy="1"/>
<feGaussianBlur stdDeviation="2"/>
<feComposite in2="hardAlpha" operator="out"/>
<feColorMatrix type="matrix" values="0 0 0 0 0 0 0 0 0 0 0 0 0 0 0 0 0 0 0.25 0"/>
<feBlend mode="normal" in2="BackgroundImageFix" result="effect1_dropShadow_7401_402436"/>
<feBlend mode="normal" in="SourceGraphic" in2="effect1_dropShadow_7401_402436" result="shape"/>
</filter>
<clipPath id="clip0_7401_402436">
<rect width="350" height="289" fill="white" transform="translate(0.75)"/>
</clipPath>
</defs>
</svg>
