<svg width="341" height="275" viewBox="0 0 341 275" fill="none" xmlns="http://www.w3.org/2000/svg">
<g clip-path="url(#clip0_7401_402422)">
<mask id="path-2-inside-1_7401_402422" fill="white">
<path fill-rule="evenodd" clip-rule="evenodd" d="M272.75 1C272.75 0.447715 272.302 0 271.75 0H1.75C1.19772 0 0.75 0.447714 0.75 0.999999V239C0.75 239.552 1.19771 240 1.75 240H49.75C50.3023 240 50.75 240.448 50.75 241V273.261C50.75 274.032 51.5863 274.513 52.253 274.125L110.265 240.364V240.364C110.544 240.202 110.828 240 111.151 240H271.75C272.302 240 272.75 239.552 272.75 239V1Z"/>
</mask>
<path fill-rule="evenodd" clip-rule="evenodd" d="M272.75 1C272.75 0.447715 272.302 0 271.75 0H1.75C1.19772 0 0.75 0.447714 0.75 0.999999V239C0.75 239.552 1.19771 240 1.75 240H49.75C50.3023 240 50.75 240.448 50.75 241V273.261C50.75 274.032 51.5863 274.513 52.253 274.125L110.265 240.364V240.364C110.544 240.202 110.828 240 111.151 240H271.75C272.302 240 272.75 239.552 272.75 239V1Z" fill="#0B0E29"/>
<path d="M52.253 274.125L53.259 275.854L53.259 275.854L52.253 274.125ZM110.265 240.364L109.259 238.636L109.259 238.636L110.265 240.364ZM1.75 2H271.75V-2H1.75V2ZM2.75 239V0.999999H-1.25V239H2.75ZM49.75 238H1.75V242H49.75V238ZM52.75 273.261V241H48.75V273.261H52.75ZM51.247 272.397C51.9136 272.009 52.75 272.49 52.75 273.261H48.75C48.75 275.575 51.259 277.018 53.259 275.854L51.247 272.397ZM109.259 238.636L51.247 272.397L53.259 275.854L111.271 242.093L109.259 238.636ZM271.75 238H111.151V242H271.75V238ZM270.75 1V239H274.75V1H270.75ZM271.75 242C273.407 242 274.75 240.657 274.75 239H270.75C270.75 238.448 271.198 238 271.75 238V242ZM49.75 242C49.1977 242 48.75 241.552 48.75 241H52.75C52.75 239.343 51.4068 238 49.75 238V242ZM111.271 242.093C111.318 242.065 111.363 242.038 111.398 242.017C111.437 241.994 111.463 241.978 111.49 241.963C111.515 241.948 111.533 241.938 111.546 241.931C111.558 241.924 111.563 241.921 111.562 241.922C111.562 241.922 111.524 241.941 111.457 241.96C111.387 241.979 111.282 242 111.151 242V238C110.569 238 110.106 238.183 109.821 238.321C109.583 238.436 109.287 238.62 109.259 238.636L111.271 242.093ZM-1.25 239C-1.25 240.657 0.0931416 242 1.75 242V238C2.30229 238 2.75 238.448 2.75 239H-1.25ZM271.75 2C271.198 2 270.75 1.55229 270.75 1H274.75C274.75 -0.656857 273.407 -2 271.75 -2V2ZM1.75 -2C0.0931483 -2 -1.25 -0.656858 -1.25 0.999999H2.75C2.75 1.55229 2.30228 2 1.75 2V-2Z" fill="white" mask="url(#path-2-inside-1_7401_402422)"/>
<path fill-rule="evenodd" clip-rule="evenodd" d="M97.4702 45.3841C103.319 45.3411 109.118 46.3962 114.536 48.4887C119.962 50.5844 124.896 53.6791 129.056 57.5943C133.215 61.5096 136.516 66.1678 138.769 71.3003C138.769 71.302 138.77 71.3037 138.771 71.3054C136.834 72.9364 135.08 74.771 133.543 76.7753C133.225 75.7124 132.867 74.7012 132.468 73.792C130.562 69.4491 127.768 65.5075 124.249 62.1947C120.73 58.8818 116.554 56.2631 111.963 54.4899C107.372 52.7167 102.457 51.8239 97.5004 51.8631L97.4471 51.8631C92.494 51.8288 87.5828 52.7252 82.9963 54.5007C78.4099 56.2761 74.2389 58.8955 70.7238 62.2079C67.2087 65.5203 64.4189 69.4603 62.5151 73.8007C61.05 77.141 60.132 80.6676 59.7868 84.2583H64.3982C66.2229 84.2583 67.9975 84.7207 69.5479 85.5771C73.9928 75.5156 84.5328 68.4413 96.8276 68.4413C113.138 68.4413 126.361 80.8918 126.361 96.2502C126.361 111.609 113.138 124.059 96.8276 124.059L96.7602 124.059C96.7073 124.059 96.6545 124.059 96.6017 124.058C97.1714 124.686 97.5204 125.53 97.5204 126.459C97.5204 127.199 97.2992 127.885 96.9216 128.45C110.511 128.477 122.785 134.321 130.9 143.599C120.419 151.037 112.806 162.21 110.158 175.286H54.1587C52.8766 175.286 51.8815 174.233 52.0304 173.034L53.0072 165.168C55.132 148.058 68.1029 134.389 84.9919 129.966H69.776C65.2823 129.966 60.9728 128.118 57.7953 124.83C54.6179 121.542 52.8328 117.083 52.8328 112.433V105.802C52.8147 105.567 52.8056 105.331 52.8056 105.094V87.4979C52.8055 81.9415 53.9637 76.44 56.2136 71.3105C58.4635 66.1809 61.7606 61.5246 65.9148 57.61C70.0691 53.6953 74.9984 50.5997 80.4187 48.5014C85.8308 46.4063 91.6256 45.347 97.4702 45.3841ZM59.7719 114.303C60.1377 116.398 61.1126 118.345 62.5876 119.871C64.4941 121.844 67.0798 122.953 69.776 122.953H88.5518C81.7277 121.08 75.9246 116.952 72.1145 111.482C71.962 111.648 71.8031 111.81 71.638 111.966C69.7179 113.789 67.1137 114.813 64.3982 114.813H63.0443C61.921 114.813 60.8167 114.638 59.7719 114.303Z" fill="white"/>
<path d="M205.078 99.4441C205.078 118.497 188.925 133.943 169 133.943C149.075 133.943 132.922 118.497 132.922 99.4441C132.922 80.391 149.075 64.9453 169 64.9453C188.925 64.9453 205.078 80.391 205.078 99.4441Z" fill="#00D0F6"/>
<path d="M115.469 184.942C118.645 158.971 141.656 139.39 169 139.39C196.344 139.39 219.355 158.971 222.531 184.942L223.725 194.7C223.906 196.187 222.691 197.493 221.125 197.493H116.876C115.31 197.493 114.094 196.187 114.276 194.7L115.469 184.942Z" fill="#00D0F6"/>
<path fill-rule="evenodd" clip-rule="evenodd" d="M337.695 72.7197C337.773 71.8138 337.775 70.9029 337.701 69.997L340.968 64.4884C340.017 61.4245 338.422 58.6092 336.293 56.2373L329.997 56.3375C329.257 55.8277 328.483 55.3724 327.679 54.975L324.624 49.352C321.537 48.6783 318.342 48.6849 315.254 49.3713L312.171 54.988C311.36 55.3732 310.583 55.8283 309.847 56.3483L303.526 56.2338C301.393 58.6068 299.794 61.4229 298.841 64.4855L302.065 69.9832C301.988 70.8954 301.983 71.812 302.048 72.7247L298.792 78.2145C299.743 81.2784 301.338 84.0938 303.467 86.4657L309.763 86.3654C310.503 86.8752 311.277 87.3305 312.081 87.7279L315.136 93.3509C318.223 94.0246 321.418 94.0181 324.506 93.3316L327.589 87.7149C328.4 87.3297 329.177 86.8746 329.913 86.3547L336.234 86.4691C338.367 84.0961 339.966 81.28 340.919 78.2174L337.695 72.7197ZM328.711 76.542C325.878 81.5071 319.628 83.2082 314.752 80.3416C309.876 77.475 308.22 71.1262 311.054 66.1611C313.888 61.196 320.138 59.4949 325.014 62.3615C329.89 65.228 331.545 71.5769 328.711 76.542Z" fill="white"/>
<g filter="url(#filter0_d_7401_402422)">
<rect x="202.75" y="135" width="138" height="140" rx="1" fill="white"/>
<path fill-rule="evenodd" clip-rule="evenodd" d="M271.198 158.997V145.664H273.406V158.997H271.198Z" fill="#0B0E29"/>
<path fill-rule="evenodd" clip-rule="evenodd" d="M271.198 261.333V248H273.406V261.333H271.198Z" fill="#0B0E29"/>
<path fill-rule="evenodd" clip-rule="evenodd" d="M325.963 204.998H312.82V202.758H325.963V204.998Z" fill="#0B0E29"/>
<g filter="url(#filter1_d_7401_402422)">
<path fill-rule="evenodd" clip-rule="evenodd" d="M285.829 231.942L272.059 207.446L273.977 206.336L287.747 230.833L285.829 231.942Z" fill="#0B0E29"/>
</g>
<path fill-rule="evenodd" clip-rule="evenodd" d="M228.049 204.998H214.906V202.758H228.049V204.998Z" fill="#0B0E29"/>
<g filter="url(#filter2_d_7401_402422)">
<path fill-rule="evenodd" clip-rule="evenodd" d="M273.286 164.068V203.602H271.078V164.068H273.286Z" fill="#0B0E29"/>
</g>
<g filter="url(#filter3_d_7401_402422)">
<path fill-rule="evenodd" clip-rule="evenodd" d="M242.49 238.775L279.355 194.922L280.195 195.648L243.33 239.501L242.49 238.775Z" fill="#FF0049"/>
<path d="M275.037 205.003C275.037 206.844 273.566 208.336 271.752 208.336C269.937 208.336 268.466 206.844 268.466 205.003C268.466 203.162 269.937 201.67 271.752 201.67C273.566 201.67 275.037 203.162 275.037 205.003Z" fill="#FF0049"/>
<path fill-rule="evenodd" clip-rule="evenodd" d="M277.245 205.003C277.245 208.081 274.786 210.576 271.752 210.576C268.717 210.576 266.258 208.081 266.258 205.003C266.258 201.925 268.717 199.43 271.752 199.43C274.786 199.43 277.245 201.925 277.245 205.003ZM271.752 208.336C273.566 208.336 275.037 206.844 275.037 205.003C275.037 203.162 273.566 201.67 271.752 201.67C269.937 201.67 268.466 203.162 268.466 205.003C268.466 206.844 269.937 208.336 271.752 208.336Z" fill="#FF0049"/>
</g>
</g>
<path d="M281.75 15H313.75C317.064 15 319.75 17.6863 319.75 21V37" stroke="white" stroke-width="4" stroke-linecap="round" stroke-dasharray="1 9"/>
<path d="M319.75 105V126.5" stroke="white" stroke-width="4" stroke-linecap="round" stroke-dasharray="1 9"/>
</g>
<defs>
<filter id="filter0_d_7401_402422" x="197.75" y="132" width="146" height="148" filterUnits="userSpaceOnUse" color-interpolation-filters="sRGB">
<feFlood flood-opacity="0" result="BackgroundImageFix"/>
<feColorMatrix in="SourceAlpha" type="matrix" values="0 0 0 0 0 0 0 0 0 0 0 0 0 0 0 0 0 0 127 0" result="hardAlpha"/>
<feOffset dx="-1" dy="1"/>
<feGaussianBlur stdDeviation="2"/>
<feComposite in2="hardAlpha" operator="out"/>
<feColorMatrix type="matrix" values="0 0 0 0 0 0 0 0 0 0 0 0 0 0 0 0 0 0 0.05 0"/>
<feBlend mode="normal" in2="BackgroundImageFix" result="effect1_dropShadow_7401_402422"/>
<feBlend mode="normal" in="SourceGraphic" in2="effect1_dropShadow_7401_402422" result="shape"/>
</filter>
<filter id="filter1_d_7401_402422" x="267.059" y="203.336" width="23.6875" height="33.6055" filterUnits="userSpaceOnUse" color-interpolation-filters="sRGB">
<feFlood flood-opacity="0" result="BackgroundImageFix"/>
<feColorMatrix in="SourceAlpha" type="matrix" values="0 0 0 0 0 0 0 0 0 0 0 0 0 0 0 0 0 0 127 0" result="hardAlpha"/>
<feOffset dx="-1" dy="1"/>
<feGaussianBlur stdDeviation="2"/>
<feComposite in2="hardAlpha" operator="out"/>
<feColorMatrix type="matrix" values="0 0 0 0 0 0 0 0 0 0 0 0 0 0 0 0 0 0 0.05 0"/>
<feBlend mode="normal" in2="BackgroundImageFix" result="effect1_dropShadow_7401_402422"/>
<feBlend mode="normal" in="SourceGraphic" in2="effect1_dropShadow_7401_402422" result="shape"/>
</filter>
<filter id="filter2_d_7401_402422" x="266.078" y="161.066" width="10.207" height="47.5352" filterUnits="userSpaceOnUse" color-interpolation-filters="sRGB">
<feFlood flood-opacity="0" result="BackgroundImageFix"/>
<feColorMatrix in="SourceAlpha" type="matrix" values="0 0 0 0 0 0 0 0 0 0 0 0 0 0 0 0 0 0 127 0" result="hardAlpha"/>
<feOffset dx="-1" dy="1"/>
<feGaussianBlur stdDeviation="2"/>
<feComposite in2="hardAlpha" operator="out"/>
<feColorMatrix type="matrix" values="0 0 0 0 0 0 0 0 0 0 0 0 0 0 0 0 0 0 0.05 0"/>
<feBlend mode="normal" in2="BackgroundImageFix" result="effect1_dropShadow_7401_402422"/>
<feBlend mode="normal" in="SourceGraphic" in2="effect1_dropShadow_7401_402422" result="shape"/>
</filter>
<filter id="filter3_d_7401_402422" x="237.492" y="191.922" width="46.0898" height="52.8008" filterUnits="userSpaceOnUse" color-interpolation-filters="sRGB">
<feFlood flood-opacity="0" result="BackgroundImageFix"/>
<feColorMatrix in="SourceAlpha" type="matrix" values="0 0 0 0 0 0 0 0 0 0 0 0 0 0 0 0 0 0 127 0" result="hardAlpha"/>
<feOffset dx="-1" dy="1"/>
<feGaussianBlur stdDeviation="2"/>
<feComposite in2="hardAlpha" operator="out"/>
<feColorMatrix type="matrix" values="0 0 0 0 0 0 0 0 0 0 0 0 0 0 0 0 0 0 0.05 0"/>
<feBlend mode="normal" in2="BackgroundImageFix" result="effect1_dropShadow_7401_402422"/>
<feBlend mode="normal" in="SourceGraphic" in2="effect1_dropShadow_7401_402422" result="shape"/>
</filter>
<clipPath id="clip0_7401_402422">
<rect width="340" height="275" fill="white" transform="translate(0.75)"/>
</clipPath>
</defs>
</svg>
