<svg width="298" height="258" viewBox="0 0 298 258" fill="none" xmlns="http://www.w3.org/2000/svg">
<path d="M288.518 154.959C288.052 168.724 283.804 182.095 276.24 193.606C268.676 205.117 258.089 214.322 245.639 220.213L232.808 193.096C240.278 189.561 246.63 184.038 251.169 177.131C255.707 170.225 258.256 162.202 258.535 153.943L288.518 154.959Z" fill="#1324A0"/>
<path d="M204.099 214.328C203.455 214.063 203.273 213.236 203.747 212.724L234.98 178.997C235.529 178.405 236.517 178.673 236.691 179.462L247.957 230.704C248.131 231.493 247.346 232.151 246.6 231.843L204.099 214.328Z" fill="#1324A0"/>
<path d="M87.9054 58.3184C93.0517 45.5426 101.617 34.4306 112.661 26.201C123.706 17.9714 136.803 12.9421 150.517 11.6647L153.3 41.5353C145.071 42.3018 137.213 45.3194 130.586 50.2571C123.959 55.1949 118.82 61.8621 115.733 69.5276L87.9054 58.3184Z" fill="#1324A0"/>
<path d="M187.539 31.4023C188.054 31.8723 187.942 32.7116 187.322 33.0302L146.436 54.0407C145.718 54.4098 144.881 53.8194 144.988 53.019L151.927 1.01368C152.033 0.2133 152.996 -0.137017 153.592 0.40744L187.539 31.4023Z" fill="#1324A0"/>
<g filter="url(#filter0_d_7401_402422)">
<path fill-rule="evenodd" clip-rule="evenodd" d="M289.797 86.6713C289.901 85.4255 289.9 84.1728 289.795 82.927L294.248 75.3516C292.934 71.1381 290.739 67.2664 287.814 64.0045L279.191 64.1424C278.176 63.4414 277.114 62.8152 276.012 62.2687L271.806 54.5359C267.576 53.6094 263.2 53.6184 258.973 54.5624L254.773 62.2865C253.663 62.8163 252.6 63.4421 251.595 64.1572L242.937 63.9998C240.026 67.2632 237.847 71.1359 236.553 75.3476L240.99 82.9081C240.888 84.1624 240.884 85.4231 240.977 86.6781L236.539 94.2278C237.853 98.4413 240.048 102.313 242.973 105.575L251.596 105.437C252.611 106.138 253.673 106.764 254.775 107.311L258.981 115.043C263.211 115.97 267.587 115.961 271.814 115.017L276.014 107.293C277.124 106.763 278.187 106.137 279.192 105.422L287.85 105.58C290.761 102.316 292.94 98.4435 294.234 94.2318L289.797 86.6713ZM277.509 91.9277C273.647 98.7557 265.094 101.095 258.405 97.153C251.716 93.2108 249.424 84.4799 253.286 77.6519C257.148 70.8238 265.701 68.4844 272.39 72.4265C279.079 76.3687 281.371 85.0997 277.509 91.9277Z" fill="#1324A0"/>
<path fill-rule="evenodd" clip-rule="evenodd" d="M232.96 77.4493C232.967 76.6241 232.905 75.7997 232.774 74.9852L235.329 69.7763C234.257 67.0692 232.622 64.6313 230.537 62.6313L224.872 63.1544C224.17 62.744 223.441 62.3851 222.689 62.0808L219.541 57.2025C216.713 56.8049 213.836 57.0303 211.102 57.8635L208.721 63.1576C208.018 63.5619 207.349 64.027 206.724 64.548L201.021 64.8786C199.268 67.1723 198.026 69.8303 197.383 72.667L200.675 77.4202C200.67 78.2508 200.729 79.0807 200.852 79.902L198.306 85.0931C199.378 87.8003 201.013 90.2382 203.098 92.2382L208.763 91.715C209.465 92.1255 210.194 92.4843 210.946 92.7887L214.094 97.667C216.922 98.0646 219.8 97.8392 222.533 97.0059L224.914 91.7119C225.618 91.3076 226.286 90.8424 226.911 90.3215L232.614 89.9909C234.367 87.6971 235.609 85.0392 236.252 82.2025L232.96 77.4493ZM225.138 81.5248C222.935 86.2122 217.426 88.1807 212.832 85.9218C208.238 83.6628 206.299 78.0317 208.502 73.3444C210.705 68.6571 216.214 66.6885 220.808 68.9475C225.402 71.2064 227.341 76.8375 225.138 81.5248Z" fill="#1324A0"/>
<path d="M227.39 77.3216C227.39 83.0529 222.752 87.699 217.03 87.699C211.309 87.699 206.671 83.0529 206.671 77.3216C206.671 71.5904 211.309 66.9443 217.03 66.9443C222.752 66.9443 227.39 71.5904 227.39 77.3216ZM209.779 77.3216C209.779 81.3335 213.026 84.5858 217.03 84.5858C221.035 84.5858 224.282 81.3335 224.282 77.3216C224.282 73.3097 221.035 70.0575 217.03 70.0575C213.026 70.0575 209.779 73.3097 209.779 77.3216Z" fill="#1324A0"/>
<path fill-rule="evenodd" clip-rule="evenodd" d="M263.421 37.8465C263.414 37.0213 263.337 36.1982 263.192 35.386L265.655 30.1327C264.536 27.445 262.859 25.0365 260.74 23.0737L255.085 23.6973C254.376 23.2993 253.64 22.9535 252.883 22.6625L249.651 17.8408C246.816 17.4934 243.943 17.7698 241.225 18.6514L238.936 23.9868C238.24 24.4035 237.58 24.8805 236.963 25.4125L231.268 25.8441C229.554 28.1686 228.359 30.8482 227.766 33.6959L231.14 38.3899C231.149 39.2205 231.223 40.0492 231.361 40.8682L228.906 46.1037C230.025 48.7914 231.702 51.2 233.822 53.1627L239.476 52.5391C240.185 52.9371 240.921 53.2829 241.678 53.5739L244.911 58.3956C247.745 58.743 250.618 58.4666 253.337 57.585L255.625 52.2496C256.321 51.8329 256.981 51.3559 257.598 50.8239L263.293 50.3923C265.007 48.0678 266.202 45.3882 266.796 42.5406L263.421 37.8465ZM255.671 42.0601C253.551 46.7858 248.076 48.8518 243.443 46.6746C238.811 44.4974 236.774 38.9016 238.895 34.1759C241.015 29.4503 246.49 27.3843 251.123 29.5615C255.755 31.7386 257.792 37.3345 255.671 42.0601Z" fill="#1324A0"/>
<path d="M257.526 37.6991C257.526 43.4303 252.888 48.0764 247.166 48.0764C241.445 48.0764 236.807 43.4303 236.807 37.6991C236.807 31.9678 241.445 27.3217 247.166 27.3217C252.888 27.3217 257.526 31.9678 257.526 37.6991ZM239.915 37.6991C239.915 41.711 243.162 44.9632 247.166 44.9632C251.171 44.9632 254.418 41.711 254.418 37.6991C254.418 33.6872 251.171 30.4349 247.166 30.4349C243.162 30.4349 239.915 33.6872 239.915 37.6991Z" fill="#1324A0"/>
</g>
<g filter="url(#filter1_d_7401_402422)">
<ellipse cx="94.75" cy="163" rx="89.5" ry="90" fill="white"/>
</g>
<path fill-rule="evenodd" clip-rule="evenodd" d="M94.0305 103.858V86.7148H96.8945V103.858H94.0305Z" fill="#93949E"/>
<path fill-rule="evenodd" clip-rule="evenodd" d="M94.0305 235.428V218.285H96.8945V235.428H94.0305Z" fill="#93949E"/>
<path fill-rule="evenodd" clip-rule="evenodd" d="M165.075 163.001H148.027V160.121H165.075V163.001Z" fill="#93949E"/>
<g filter="url(#filter2_d_7401_402422)">
<path fill-rule="evenodd" clip-rule="evenodd" d="M113.01 197.641L95.1488 166.145L97.6367 164.719L115.498 196.214L113.01 197.641Z" fill="#0B0E29"/>
</g>
<path fill-rule="evenodd" clip-rule="evenodd" d="M38.0671 163.001H21.0195V160.121H38.0671V163.001Z" fill="#93949E"/>
<g filter="url(#filter3_d_7401_402422)">
<path fill-rule="evenodd" clip-rule="evenodd" d="M96.7468 110.371V161.199H93.8828V110.371H96.7468Z" fill="#0B0E29"/>
</g>
<g filter="url(#filter4_d_7401_402422)">
<path fill-rule="evenodd" clip-rule="evenodd" d="M56.8 206.421L104.617 150.038L105.707 150.973L57.8896 207.355L56.8 206.421Z" fill="#FF0049"/>
<path d="M99.0089 162.998C99.0089 165.365 97.1008 167.283 94.747 167.283C92.3932 167.283 90.4851 165.365 90.4851 162.998C90.4851 160.631 92.3932 158.712 94.747 158.712C97.1008 158.712 99.0089 160.631 99.0089 162.998Z" fill="#FF0049"/>
<path fill-rule="evenodd" clip-rule="evenodd" d="M101.873 162.998C101.873 166.955 98.6825 170.163 94.747 170.163C90.8115 170.163 87.6211 166.955 87.6211 162.998C87.6211 159.04 90.8115 155.832 94.747 155.832C98.6825 155.832 101.873 159.04 101.873 162.998ZM94.747 167.283C97.1008 167.283 99.0089 165.365 99.0089 162.998C99.0089 160.631 97.1008 158.712 94.747 158.712C92.3932 158.712 90.4851 160.631 90.4851 162.998C90.4851 165.365 92.3932 167.283 94.747 167.283Z" fill="#FF0049"/>
</g>
<g filter="url(#filter5_d_7401_402422)">
<path fill-rule="evenodd" clip-rule="evenodd" d="M166.133 172.397C162.194 170.782 157.977 169.968 153.725 170.001C149.476 169.972 145.262 170.79 141.327 172.407C137.386 174.026 133.802 176.415 130.782 179.436C127.761 182.457 125.364 186.05 123.728 190.009C122.092 193.967 121.25 198.213 121.25 202.501V202.501V220.001C121.25 221.99 122.034 223.898 123.43 225.304C124.827 226.711 126.72 227.501 128.694 227.501H133.657C135.632 227.501 137.525 226.711 138.921 225.304C140.318 223.898 141.102 221.99 141.102 220.001V207.501C141.102 205.512 140.318 203.604 138.921 202.198C137.525 200.791 135.632 200.001 133.657 200.001H126.326C126.577 197.23 127.244 194.508 128.31 191.931C129.694 188.581 131.722 185.541 134.278 182.984C136.834 180.428 139.867 178.407 143.201 177.036C146.536 175.666 150.107 174.975 153.708 175.001L153.747 175.001C157.351 174.971 160.925 175.66 164.263 177.028C167.601 178.397 170.637 180.417 173.196 182.974C175.755 185.531 177.786 188.572 179.171 191.924C180.238 194.504 180.907 197.228 181.158 200.001H173.826C171.852 200.001 169.958 200.791 168.562 202.198C167.166 203.604 166.382 205.512 166.382 207.501V220.001C166.382 221.99 167.166 223.898 168.562 225.304C169.958 226.711 171.852 227.501 173.826 227.501H178.789C180.764 227.501 182.657 226.711 184.053 225.304C185.449 223.898 186.234 221.99 186.234 220.001V202.501V202.501C186.234 198.21 185.391 193.962 183.753 190.001C182.115 186.04 179.715 182.445 176.69 179.424C173.666 176.402 170.078 174.014 166.133 172.397Z" fill="#EBEAE8"/>
<path d="M186.07 249.089C181.439 241.053 174.028 235.022 165.256 232.152C169.461 229.633 172.728 225.793 174.556 221.222C176.385 216.651 176.673 211.601 175.376 206.849C174.08 202.097 171.27 197.906 167.38 194.918C163.49 191.931 158.733 190.312 153.841 190.312C148.95 190.312 144.193 191.931 140.303 194.918C136.412 197.906 133.603 202.097 132.307 206.849C131.01 211.601 131.298 216.651 133.127 221.222C134.955 225.793 138.222 229.633 142.427 232.152C133.655 235.022 126.243 241.053 121.613 249.089C121.386 249.466 121.266 249.898 121.266 250.339C121.266 250.78 121.386 251.212 121.613 251.589C121.825 251.972 122.136 252.291 122.513 252.511C122.889 252.731 123.318 252.844 123.753 252.839H183.929C184.365 252.844 184.793 252.731 185.17 252.511C185.547 252.291 185.858 251.972 186.07 251.589C186.297 251.212 186.417 250.78 186.417 250.339C186.417 249.898 186.297 249.466 186.07 249.089Z" fill="#93949E"/>
<path fill-rule="evenodd" clip-rule="evenodd" d="M183.755 215C185.125 215 186.236 216.119 186.236 217.5V225C186.236 228.315 184.929 231.495 182.602 233.839C180.275 236.183 177.119 237.5 173.829 237.5H155.993C154.623 237.5 153.512 236.381 153.512 235C153.512 233.619 154.623 232.5 155.993 232.5H173.829C175.803 232.5 177.697 231.71 179.093 230.303C180.489 228.897 181.273 226.989 181.273 225V217.5C181.273 216.119 182.384 215 183.755 215Z" fill="#EBEAE8"/>
</g>
<defs>
<filter id="filter0_d_7401_402422" x="192.25" y="13" width="105" height="108" filterUnits="userSpaceOnUse" color-interpolation-filters="sRGB">
<feFlood flood-opacity="0" result="BackgroundImageFix"/>
<feColorMatrix in="SourceAlpha" type="matrix" values="0 0 0 0 0 0 0 0 0 0 0 0 0 0 0 0 0 0 127 0" result="hardAlpha"/>
<feOffset dx="-1" dy="1"/>
<feGaussianBlur stdDeviation="2"/>
<feComposite in2="hardAlpha" operator="out"/>
<feColorMatrix type="matrix" values="0 0 0 0 0 0 0 0 0 0 0 0 0 0 0 0 0 0 0.25 0"/>
<feBlend mode="normal" in2="BackgroundImageFix" result="effect1_dropShadow_7401_402422"/>
<feBlend mode="normal" in="SourceGraphic" in2="effect1_dropShadow_7401_402422" result="shape"/>
</filter>
<filter id="filter1_d_7401_402422" x="0.25" y="70" width="187" height="188" filterUnits="userSpaceOnUse" color-interpolation-filters="sRGB">
<feFlood flood-opacity="0" result="BackgroundImageFix"/>
<feColorMatrix in="SourceAlpha" type="matrix" values="0 0 0 0 0 0 0 0 0 0 0 0 0 0 0 0 0 0 127 0" result="hardAlpha"/>
<feOffset dx="-1" dy="1"/>
<feGaussianBlur stdDeviation="2"/>
<feComposite in2="hardAlpha" operator="out"/>
<feColorMatrix type="matrix" values="0 0 0 0 0 0 0 0 0 0 0 0 0 0 0 0 0 0 0.25 0"/>
<feBlend mode="normal" in2="BackgroundImageFix" result="effect1_dropShadow_7401_402422"/>
<feBlend mode="normal" in="SourceGraphic" in2="effect1_dropShadow_7401_402422" result="shape"/>
</filter>
<filter id="filter2_d_7401_402422" x="90.1484" y="161.719" width="28.3516" height="40.9219" filterUnits="userSpaceOnUse" color-interpolation-filters="sRGB">
<feFlood flood-opacity="0" result="BackgroundImageFix"/>
<feColorMatrix in="SourceAlpha" type="matrix" values="0 0 0 0 0 0 0 0 0 0 0 0 0 0 0 0 0 0 127 0" result="hardAlpha"/>
<feOffset dx="-1" dy="1"/>
<feGaussianBlur stdDeviation="2"/>
<feComposite in2="hardAlpha" operator="out"/>
<feColorMatrix type="matrix" values="0 0 0 0 0 0 0 0 0 0 0 0 0 0 0 0 0 0 0.25 0"/>
<feBlend mode="normal" in2="BackgroundImageFix" result="effect1_dropShadow_7401_402422"/>
<feBlend mode="normal" in="SourceGraphic" in2="effect1_dropShadow_7401_402422" result="shape"/>
</filter>
<filter id="filter3_d_7401_402422" x="88.8828" y="107.371" width="10.8633" height="58.8281" filterUnits="userSpaceOnUse" color-interpolation-filters="sRGB">
<feFlood flood-opacity="0" result="BackgroundImageFix"/>
<feColorMatrix in="SourceAlpha" type="matrix" values="0 0 0 0 0 0 0 0 0 0 0 0 0 0 0 0 0 0 127 0" result="hardAlpha"/>
<feOffset dx="-1" dy="1"/>
<feGaussianBlur stdDeviation="2"/>
<feComposite in2="hardAlpha" operator="out"/>
<feColorMatrix type="matrix" values="0 0 0 0 0 0 0 0 0 0 0 0 0 0 0 0 0 0 0.25 0"/>
<feBlend mode="normal" in2="BackgroundImageFix" result="effect1_dropShadow_7401_402422"/>
<feBlend mode="normal" in="SourceGraphic" in2="effect1_dropShadow_7401_402422" result="shape"/>
</filter>
<filter id="filter4_d_7401_402422" x="51.8008" y="147.039" width="57.4062" height="65.6016" filterUnits="userSpaceOnUse" color-interpolation-filters="sRGB">
<feFlood flood-opacity="0" result="BackgroundImageFix"/>
<feColorMatrix in="SourceAlpha" type="matrix" values="0 0 0 0 0 0 0 0 0 0 0 0 0 0 0 0 0 0 127 0" result="hardAlpha"/>
<feOffset dx="-1" dy="1"/>
<feGaussianBlur stdDeviation="2"/>
<feComposite in2="hardAlpha" operator="out"/>
<feColorMatrix type="matrix" values="0 0 0 0 0 0 0 0 0 0 0 0 0 0 0 0 0 0 0.25 0"/>
<feBlend mode="normal" in2="BackgroundImageFix" result="effect1_dropShadow_7401_402422"/>
<feBlend mode="normal" in="SourceGraphic" in2="effect1_dropShadow_7401_402422" result="shape"/>
</filter>
<filter id="filter5_d_7401_402422" x="116.25" y="167" width="75" height="93" filterUnits="userSpaceOnUse" color-interpolation-filters="sRGB">
<feFlood flood-opacity="0" result="BackgroundImageFix"/>
<feColorMatrix in="SourceAlpha" type="matrix" values="0 0 0 0 0 0 0 0 0 0 0 0 0 0 0 0 0 0 127 0" result="hardAlpha"/>
<feOffset dx="-1" dy="1"/>
<feGaussianBlur stdDeviation="2"/>
<feComposite in2="hardAlpha" operator="out"/>
<feColorMatrix type="matrix" values="0 0 0 0 0 0 0 0 0 0 0 0 0 0 0 0 0 0 0.25 0"/>
<feBlend mode="normal" in2="BackgroundImageFix" result="effect1_dropShadow_7401_402422"/>
<feBlend mode="normal" in="SourceGraphic" in2="effect1_dropShadow_7401_402422" result="shape"/>
</filter>
</defs>
</svg>
