<svg width="100" height="50" viewBox="0 0 100 50" fill="none" xmlns="http://www.w3.org/2000/svg">
<g clip-path="url(#clip0_3702_45605)">
<path fill-rule="evenodd" clip-rule="evenodd" d="M89.5832 25.4268L89.4183 25.0805L85.8232 18.3283C85.761 18.2457 85.7326 18.1428 85.7436 18.0403C85.7547 17.9379 85.8045 17.8433 85.8829 17.7756L91.569 11.1556C91.6465 11.0722 91.699 10.9691 91.7209 10.8578L90.0607 11.2879L83.1679 13.1157C82.9542 13.1727 82.8565 13.1103 82.7502 12.9351L78.8209 6.45269C78.753 6.32627 78.6551 6.21814 78.5355 6.13765L78.21 7.86335L77.1173 13.9597L77.0044 14.6188C76.986 14.8285 76.8775 14.9059 76.6865 14.9661L68.5676 17.509C68.4591 17.5466 68.3332 17.595 68.2052 17.709L74.8787 20.3368L74.6834 20.4894L70.5327 23.1516C70.3678 23.2592 70.2365 23.2731 70.0509 23.1903L65.0832 20.9969C64.3399 20.6679 63.6726 20.2314 63.1517 19.5992C61.9744 18.1724 62.2077 16.5499 63.7757 15.5586C64.3006 15.2384 64.8638 14.9845 65.4522 14.8027L73.4279 12.2921C73.6503 12.2233 73.7534 12.1244 73.7968 11.8835L74.8884 5.78714C75.0859 4.71194 75.1923 3.58728 75.724 2.59164C75.941 2.20887 76.1743 1.8347 76.4662 1.51322C77.522 0.352 78.9967 0.306841 80.1122 1.41322C80.4888 1.78632 80.8132 2.22715 81.0932 2.67981L84.7392 8.6719C84.7581 8.72226 84.7873 8.76818 84.825 8.80674C84.8627 8.8453 84.9082 8.87566 84.9584 8.89589C85.0086 8.91611 85.0625 8.92576 85.1167 8.92422C85.1709 8.92268 85.2241 8.90999 85.2731 8.88694L94.1711 6.54516C94.7842 6.38388 95.4038 6.32581 96.0321 6.44301C97.4015 6.69676 97.9994 7.73003 97.5361 9.03962C97.3256 9.63636 96.961 10.1406 96.553 10.6169L90.3558 17.8713C90.1854 18.0681 90.1822 18.2111 90.2994 18.4304L94.004 25.3902C94.2992 25.9461 94.5249 26.5224 94.5314 27.16C94.5466 28.6115 93.4756 29.7974 92.0204 30.0093C91.2066 30.1168 90.447 29.9555 89.6852 29.7222L84.0968 28.0363C84.0229 28.0256 83.9553 27.9892 83.906 27.9337C83.8567 27.8781 83.829 27.807 83.8277 27.7331L83.1527 23.8365C83.1462 23.8011 83.1571 23.7613 83.1636 23.6828L89.5821 25.4375" fill="#E25A1C"/>
<path fill-rule="evenodd" clip-rule="evenodd" d="M85.9556 44.3643L80.9207 44.36C80.8261 44.3681 80.7312 44.3487 80.6475 44.3042C80.5639 44.2597 80.4951 44.192 80.4497 44.1094L74.2298 34.7767L72.9602 44.3395H68.5654L68.7173 43.0966L71.2457 24.0655C71.2606 23.9632 71.315 23.8707 71.3976 23.8075L75.9551 20.9045C75.9768 20.8905 76.0094 20.8883 76.0853 20.8668L74.7148 31.2167L74.7691 31.2533L81.9613 23.3538L82.6688 27.4008C82.7057 27.5987 82.6525 27.7234 82.5191 27.8599L77.9116 32.6575L77.6946 32.8725L77.8357 33.094L85.7788 44.1363C85.8265 44.203 85.896 44.2438 85.9556 44.3148V44.3729M33.8696 34.8057C33.8023 34.466 33.7546 33.9671 33.6027 33.5026C32.867 31.2533 30.5372 30.0189 28.126 30.5748C25.4805 31.1844 23.5902 33.2456 23.3168 35.9186C23.1139 37.8969 24.1892 39.8033 26.1891 40.5183C27.7994 41.0946 29.3501 40.8537 30.79 39.9979C32.6999 38.8635 33.734 37.1787 33.8718 34.8046L33.8696 34.8057ZM22.2533 43.1568L21.8768 45.9502L21.4015 49.5908C21.3831 49.7327 21.3397 49.8058 21.1867 49.8058L17.5656 49.8005C17.5385 49.8005 17.5113 49.7854 17.4571 49.7682L17.6774 48.0479L18.4804 42.0106L19.4298 35.1122C20.1308 31.064 23.5967 27.5857 27.6638 26.7073C30.0218 26.202 32.2777 26.4364 34.3373 27.7503C36.3904 29.062 37.5677 30.9759 37.8357 33.3574C38.2155 36.7411 36.959 39.5506 34.5326 41.873C32.9407 43.3998 31.0342 44.3675 28.8357 44.6954C26.5711 45.0341 24.441 44.6599 22.542 43.3364C22.4715 43.288 22.3966 43.246 22.2761 43.1708" fill="#3C3A3E"/>
<path fill-rule="evenodd" clip-rule="evenodd" d="M20.2849 23.9204L16.3155 26.8482L15.6937 25.8826C15.1251 25.0956 14.4187 24.5064 13.3933 24.4354C12.9907 24.3975 12.5848 24.4541 12.2084 24.6008C11.8321 24.7474 11.496 24.9799 11.2274 25.2795C10.7065 25.8386 10.6392 26.631 11.1254 27.261C11.6603 27.9546 12.2463 28.6136 12.8442 29.2555L15.8565 32.4145C16.7528 33.3886 17.4668 34.481 17.6871 35.8121C17.9497 37.3948 17.6307 38.9022 16.8754 40.2936C15.4648 42.8676 13.275 44.3621 10.3679 44.8288C9.08423 45.0352 7.80379 44.9943 6.55047 44.6288C4.88805 44.1449 3.72914 43.0643 2.98691 41.5397C2.72431 41.0021 2.52248 40.4323 2.28375 39.8538L6.58845 37.5711L6.71866 37.8808C6.96281 38.3646 7.15271 38.8807 7.47825 39.328C8.37673 40.6505 9.82863 41.0548 11.3011 40.4C11.6843 40.2279 12.0392 39.9995 12.3537 39.7226C13.3021 38.8883 13.4801 37.726 12.7878 36.6755C12.3841 36.0734 11.8795 35.5315 11.3771 34.9907L7.83417 31.1199C7.04203 30.2135 6.50598 29.1555 6.3367 27.9416C6.15223 26.6159 6.41808 25.3644 7.11473 24.2483C8.84551 21.4743 11.3619 20.0303 14.6889 20.1497C16.5857 20.2174 18.0962 21.0958 19.2681 22.5581L20.2958 23.9075M52.4285 38.8162L51.7828 43.6632C51.772 43.7439 51.7069 43.8525 51.6385 43.8847C48.3636 45.3879 44.0502 45.1782 41.3602 42.1515C39.9148 40.5258 39.2985 38.5958 39.3994 36.4486C39.6088 31.478 43.7681 27.1395 48.7315 26.5331C51.6374 26.1783 54.1853 26.9568 56.1537 29.1932C57.4949 30.7167 58.1146 32.5263 58.0234 34.5445C57.9626 35.8713 57.7521 37.1916 57.5861 38.5227L56.8428 44.1288C56.8341 44.1955 56.8211 44.261 56.8048 44.3438H52.8984L53.0535 43.0751L53.8978 36.6002C54.0529 35.2541 53.9553 33.9176 53.3335 32.6704C52.6824 31.3447 51.5647 30.6436 50.1063 30.4909C47.0897 30.1748 44.2184 32.2521 43.5739 35.1939C43.1485 37.1357 43.8191 38.9979 45.3795 40.0269C46.9009 41.0301 48.5307 41.0333 50.1888 40.3817C51.0298 40.0527 51.746 39.5302 52.4274 38.8259M68.9278 26.9127L68.3929 30.9382C67.5649 30.9382 66.7522 30.9339 65.9405 30.9404C65.2829 30.9458 64.6817 31.3662 64.4842 31.9758C64.4083 32.2145 64.3779 32.4704 64.3454 32.7284L63.1148 42.002L62.8077 44.3524H58.7277L58.9512 42.6085L59.7498 36.6002L60.4617 31.4038C60.8285 29.0889 63.1528 27.0342 65.5097 26.931L68.9257 26.9224" fill="#3C3A3E"/>
<path d="M25.7475 21.0518H26.7588L26.5201 19.5465L25.7475 21.0518ZM26.9172 22.0324H25.2353L24.7003 23.0699H23.5089L26.1381 18.1939H27.2862L28.1814 23.0592H27.0767L26.9183 22.0216" fill="#3C3A3E"/>
<path d="M32.9375 19.1831H32.3385L32.1367 20.3067H32.7357C33.097 20.3067 33.3868 20.0702 33.3868 19.6272C33.3868 19.3336 33.2056 19.1831 32.9386 19.1831H32.9375ZM31.4867 18.2154H33.0601C33.8848 18.2154 34.4708 18.7014 34.4708 19.5379C34.4708 20.5895 33.7199 21.298 32.6511 21.298H31.9729L31.6549 23.0796H30.6306L31.4965 18.2144" fill="#3C3A3E"/>
<path d="M37.9443 21.0518H38.9556L38.7169 19.5465L37.9443 21.0518ZM39.1141 22.0324H37.4321L36.8972 23.0699H35.7057L38.3349 18.1939H39.483L40.3782 23.0592H39.2736L39.1152 22.0216" fill="#3C3A3E"/>
<path d="M45.7647 22.8969C45.4163 23.0582 45.0371 23.1436 44.6525 23.1474C43.3536 23.1474 42.5365 22.1797 42.5365 20.9723C42.5365 19.4272 43.8387 18.1251 45.4121 18.1251C45.8027 18.1251 46.1554 18.2176 46.4429 18.3756L46.2986 19.5422C46.0816 19.3057 45.7344 19.1412 45.3025 19.1412C44.4073 19.1412 43.6129 19.9433 43.6129 20.8615C43.6129 21.5711 44.06 22.1195 44.7686 22.1195C45.1801 22.118 45.5791 21.9794 45.9015 21.726L45.7637 22.885M52.0313 21.1077H49.8937L49.5464 23.0678H48.5221L49.388 18.2025H50.4134L50.0662 20.1379H52.2039L52.5511 18.2025H53.5766L52.7106 23.0678H51.6852L52.0324 21.1077M55.7913 23.0689L56.6572 18.2036H59.3701L59.1964 19.1713H57.5091L57.3354 20.1153H58.8948L58.7211 21.0959H57.151L56.9774 22.0765H58.6745L58.5009 23.0571H55.7794" fill="#3C3A3E"/>
</g>
<defs>
<clipPath id="clip0_3702_45605">
<rect width="96" height="50" fill="white" transform="translate(2)"/>
</clipPath>
</defs>
</svg>
