<svg width="100" height="50" viewBox="0 0 100 50" fill="none" xmlns="http://www.w3.org/2000/svg">
<g clip-path="url(#clip0_3702_45622)">
<path d="M16.6608 6.63741C16.0705 6.98068 15.088 7.95255 13.9204 9.36209L14.9943 11.3616C15.7502 10.2996 16.517 9.34063 17.2904 8.52323C17.3514 8.45887 17.3797 8.42883 17.3797 8.42883C17.3514 8.45887 17.3187 8.49319 17.2904 8.52323C17.0398 8.79355 16.2796 9.66888 15.1338 11.4024C16.2382 11.3487 17.933 11.1256 19.3162 10.8939C19.7301 8.62192 18.9132 7.58354 18.9132 7.58354C18.9132 7.58354 17.8763 5.93157 16.6608 6.63741Z" fill="url(#paint0_linear_3702_45622)"/>
<path d="M13.0474 23.4347C12.9103 23.4582 12.7708 23.4839 12.6248 23.5076C12.6248 23.5076 12.6227 23.5076 12.6227 23.5096L12.8405 23.4776C12.908 23.4624 12.9777 23.4497 13.0474 23.4347Z" fill="#BD202E"/>
<path opacity="0.35" d="M13.0474 23.4347C12.9103 23.4582 12.7708 23.4839 12.6248 23.5076C12.6248 23.5076 12.6227 23.5076 12.6227 23.5096L12.8405 23.4776C12.908 23.4624 12.9777 23.4497 13.0474 23.4347Z" fill="#BD202E"/>
<path d="M13.4069 21.6861C13.4069 21.6861 13.4069 21.6881 13.4069 21.6861C13.4048 21.6861 13.4048 21.6861 13.4048 21.6881C13.4275 21.6857 13.45 21.6821 13.4723 21.6774C13.5638 21.6646 13.6531 21.6496 13.7403 21.6282C13.6313 21.6474 13.5223 21.6667 13.4069 21.6861Z" fill="#BD202E"/>
<path opacity="0.35" d="M13.4069 21.6861C13.4069 21.6861 13.4069 21.6881 13.4069 21.6861C13.4048 21.6861 13.4048 21.6861 13.4048 21.6881C13.4275 21.6857 13.45 21.6821 13.4723 21.6774C13.5638 21.6646 13.6531 21.6496 13.7403 21.6282C13.6313 21.6474 13.5223 21.6667 13.4069 21.6861Z" fill="#BD202E"/>
<path d="M11.8226 16.5299C12.1494 15.927 12.4805 15.3392 12.8138 14.7685C13.1602 14.1721 13.5131 13.5971 13.8681 13.0393C13.8877 13.0071 13.9117 12.9728 13.9313 12.9406C14.282 12.3935 14.6371 11.8657 14.9922 11.3637L13.9182 9.3642C13.8376 9.46074 13.757 9.55943 13.6743 9.66241C13.3628 10.0443 13.0425 10.4519 12.7114 10.8874C12.3389 11.3766 11.9577 11.9001 11.5678 12.4493C11.2105 12.9556 10.8446 13.4855 10.4786 14.0369C10.1671 14.5046 9.85775 14.9852 9.54842 15.4786C9.53753 15.4958 9.52664 15.5151 9.51575 15.5344L10.9164 18.2591C11.2127 17.6691 11.5177 17.092 11.8226 16.5299Z" fill="url(#paint1_linear_3702_45622)"/>
<path d="M5.44436 31.8739C5.2592 32.3738 5.07186 32.8865 4.88669 33.4079C4.88452 33.4143 4.88234 33.4229 4.87798 33.4293C4.85184 33.5023 4.82352 33.5774 4.79956 33.6503C4.67321 34.0021 4.56429 34.3197 4.31378 35.0384C4.72549 35.2229 5.05661 35.712 5.37029 36.2656C5.33762 35.6927 5.098 35.1542 4.63836 34.738C6.67078 34.8281 8.4222 34.3218 9.3284 32.8586C9.409 32.7278 9.48307 32.5926 9.5506 32.4446C9.13888 32.9595 8.62697 33.1762 7.6663 33.1247C7.66412 33.1247 7.66195 33.1268 7.65977 33.1268C7.66195 33.1268 7.66412 33.1247 7.6663 33.1247C9.08225 32.5004 9.79022 31.9018 10.4198 30.9106C10.5679 30.6746 10.7139 30.4193 10.862 30.134C9.62466 31.3847 8.19347 31.7409 6.68385 31.4706L5.5511 31.5929C5.51407 31.6873 5.48139 31.7795 5.44436 31.8739Z" fill="url(#paint2_linear_3702_45622)"/>
<path d="M5.97375 29.3788C6.21772 28.7566 6.47042 28.1259 6.72746 27.4908C6.9758 26.8815 7.22849 26.2679 7.4899 25.6543C7.7513 25.0408 8.01706 24.4207 8.28718 23.8029C8.56166 23.1743 8.84485 22.5478 9.13457 21.9235C9.41994 21.3056 9.70748 20.692 10.0016 20.087C10.1061 19.8682 10.215 19.6493 10.3218 19.4327C10.5069 19.0572 10.6943 18.6839 10.8838 18.3149C10.8947 18.2956 10.9034 18.2741 10.9143 18.2548L9.51361 15.5302C9.49182 15.5666 9.46786 15.6052 9.4439 15.6396C9.11714 16.1652 8.79256 16.7015 8.47452 17.2486C8.15212 17.8021 7.83626 18.3664 7.52693 18.9392C7.2677 19.4219 7.01283 19.9068 6.76232 20.4002C6.71222 20.4989 6.66429 20.5998 6.61419 20.6984C6.30922 21.3185 6.03474 21.9127 5.78423 22.4899C5.50104 23.1399 5.2527 23.7621 5.03704 24.3521C4.89327 24.7404 4.76475 25.1137 4.64494 25.4741C4.54691 25.7809 4.45542 26.0899 4.36393 26.3967C4.1548 27.1175 3.974 27.8384 3.82587 28.5549L5.2331 31.2903C5.41826 30.8012 5.60996 30.3035 5.80601 29.8014C5.86483 29.6577 5.91711 29.5161 5.97375 29.3788Z" fill="url(#paint3_linear_3702_45622)"/>
<path d="M3.81059 28.6472C3.63414 29.5225 3.50779 30.3936 3.44462 31.2603L3.43809 31.3504C2.99805 30.6574 1.82391 29.9816 1.82609 29.9881C2.66912 31.1895 3.30738 32.3823 3.40105 33.5537C2.95013 33.6438 2.33365 33.513 1.62132 33.2555C2.36415 33.9292 2.92181 34.1137 3.14183 34.1652C2.45782 34.2081 1.74767 34.6694 1.03098 35.2014C2.07878 34.7809 2.92617 34.6136 3.53176 34.7487C2.56891 37.4305 1.60607 40.3912 0.641052 43.5363C0.937311 43.4505 1.11376 43.2531 1.21179 42.9893C1.38388 42.4207 2.52317 38.6834 4.31162 33.7769C4.3639 33.6374 4.414 33.4958 4.46628 33.3564C4.47935 33.3156 4.4946 33.277 4.50985 33.2405C4.69719 32.7256 4.89542 32.2 5.09583 31.6636C5.14158 31.5413 5.18732 31.4191 5.23525 31.2968C5.23525 31.2946 5.23742 31.2925 5.23742 31.2903L3.82802 28.5549C3.82366 28.5828 3.81712 28.615 3.81059 28.6472Z" fill="url(#paint4_linear_3702_45622)"/>
<path d="M11.1321 18.4822C11.0907 18.5637 11.0515 18.6452 11.0101 18.7268C10.8881 18.9735 10.7661 19.2245 10.6398 19.4819C10.5047 19.7609 10.3697 20.044 10.2324 20.3358C10.1627 20.4817 10.093 20.6297 10.0233 20.7799C9.81417 21.2283 9.60287 21.6917 9.38721 22.1701C9.12362 22.7558 8.85133 23.3673 8.57903 24.0023C8.3198 24.6073 8.05186 25.2317 7.7861 25.8796C7.53123 26.4932 7.27418 27.1282 7.01278 27.7804C6.77969 28.3618 6.54443 28.9625 6.30916 29.5783C6.29827 29.6061 6.28738 29.6383 6.27649 29.6662C6.04122 30.2777 5.80378 30.9063 5.56633 31.5499C5.56198 31.5649 5.55544 31.5778 5.55109 31.5949L6.68384 31.4727C6.66206 31.4684 6.6381 31.4662 6.61631 31.4619C7.96908 31.2967 9.7706 30.2991 10.9317 29.0698C11.4676 28.5034 11.9533 27.834 12.4021 27.051C12.7354 26.4696 13.0512 25.8216 13.3519 25.1072C13.6133 24.4829 13.8638 23.805 14.1056 23.0734C13.7941 23.2343 13.439 23.3544 13.0469 23.4359C12.9772 23.451 12.9075 23.4638 12.8356 23.4767C12.7637 23.4896 12.6918 23.5003 12.6177 23.5089C12.6177 23.5089 12.6199 23.5089 12.6199 23.5067C13.8834 23.0283 14.6785 22.1058 15.2558 20.9752C14.9246 21.1983 14.3844 21.4901 13.7374 21.6295C13.6503 21.6488 13.561 21.6638 13.4695 21.6789C13.4477 21.681 13.4237 21.6853 13.402 21.6896H13.4063C13.8463 21.5094 14.2145 21.3055 14.5347 21.0674C14.6044 21.0159 14.6719 20.9644 14.7329 20.9086C14.831 20.825 14.9225 20.737 15.014 20.6469C15.0706 20.5868 15.125 20.5268 15.1795 20.4645C15.3059 20.3165 15.4235 20.1578 15.5324 19.9861C15.5651 19.9325 15.5999 19.881 15.6304 19.8252C15.674 19.7458 15.7132 19.6665 15.7524 19.5914C15.9289 19.2438 16.0705 18.9306 16.1816 18.6581C16.2382 18.5208 16.2861 18.3964 16.3297 18.2762C16.3471 18.229 16.3624 18.184 16.3776 18.1389C16.4234 18.0081 16.4582 17.8922 16.4865 17.7892C16.5301 17.6348 16.5562 17.5125 16.5693 17.4245C16.5257 17.4567 16.4778 17.491 16.4212 17.5232C16.04 17.7485 15.3865 17.9501 14.8593 18.0467L15.8984 17.9351L14.8593 18.0467C14.8528 18.0488 14.844 18.0488 14.8353 18.051C14.7809 18.0595 14.7308 18.0681 14.6763 18.0746L14.7024 18.0617L11.1452 18.4457C11.1452 18.4543 11.1386 18.4693 11.1321 18.4822Z" fill="url(#paint5_linear_3702_45622)"/>
<path d="M15.136 11.4023C14.8201 11.8808 14.4759 12.4235 14.1012 13.0393C14.0816 13.0693 14.0598 13.1058 14.0424 13.1358C13.7222 13.6679 13.3824 14.2514 13.0208 14.8929C12.7114 15.4464 12.389 16.0386 12.0536 16.6758C11.7617 17.2314 11.461 17.8214 11.1495 18.4457L14.7068 18.0617C15.7437 17.5918 16.2055 17.1692 16.6543 16.5535C16.7719 16.384 16.8939 16.2081 17.0115 16.0235C17.3775 15.4615 17.7348 14.8436 18.055 14.2278C18.3643 13.6336 18.6366 13.0457 18.8457 12.5137C18.9786 12.1768 19.0854 11.8636 19.1594 11.5868C19.2248 11.3444 19.2749 11.1127 19.3141 10.8917C17.9352 11.1256 16.2382 11.3487 15.136 11.4023Z" fill="url(#paint6_linear_3702_45622)"/>
<path d="M12.8362 23.4732C12.7642 23.4862 12.6922 23.4969 12.6182 23.5056C12.6922 23.4989 12.7662 23.4862 12.8362 23.4732Z" fill="#BD202E"/>
<path opacity="0.35" d="M12.8362 23.4732C12.7642 23.4862 12.6922 23.4969 12.6182 23.5056C12.6922 23.4989 12.7662 23.4862 12.8362 23.4732Z" fill="#BD202E"/>
<path d="M12.8356 23.4724C12.7637 23.4853 12.6919 23.496 12.6178 23.5046C12.6919 23.4982 12.7659 23.4853 12.8356 23.4724Z" fill="url(#paint7_linear_3702_45622)"/>
<path d="M13.4047 21.6881C13.4265 21.6861 13.4505 21.6818 13.4723 21.6774C13.4505 21.6796 13.4287 21.6861 13.4047 21.6881Z" fill="#BD202E"/>
<path opacity="0.35" d="M13.4047 21.6881C13.4265 21.6861 13.4505 21.6818 13.4723 21.6774C13.4505 21.6796 13.4287 21.6861 13.4047 21.6881Z" fill="#BD202E"/>
<path d="M13.4042 21.6875C13.426 21.6853 13.4499 21.681 13.4717 21.6768C13.4499 21.6789 13.4281 21.6853 13.4042 21.6875Z" fill="url(#paint8_linear_3702_45622)"/>
<path d="M13.4047 21.6888C13.4083 21.6888 13.4083 21.6852 13.4047 21.6888C13.4083 21.6852 13.4083 21.6888 13.4047 21.6888Z" fill="#BD202E"/>
<path opacity="0.35" d="M13.4047 21.6888C13.4083 21.6888 13.4083 21.6852 13.4047 21.6888C13.4083 21.6852 13.4083 21.6888 13.4047 21.6888Z" fill="#BD202E"/>
<path d="M13.4042 21.6882C13.408 21.6882 13.408 21.6844 13.4042 21.6882C13.408 21.6844 13.408 21.6882 13.4042 21.6882Z" fill="url(#paint9_linear_3702_45622)"/>
<path d="M64.3684 31.4871C64.15 31.4486 63.3257 31.2404 63.1969 31.1914C62.8946 31.0765 61.8564 30.5527 61.7347 30.4537C61.5716 30.3214 61.5508 30.3054 61.2538 30.0877C60.9597 29.8717 60.3289 29.2505 60.1099 28.9609C60.0356 28.8619 59.9598 28.7641 59.8825 28.6674C59.8433 28.6205 59.8042 28.5736 59.7652 28.5266C59.6961 28.4432 59.1112 27.4693 59.1112 27.4377C59.1112 27.4261 59.0501 27.2827 58.9757 27.1195C58.8906 26.9294 58.8124 26.7364 58.7412 26.5408C58.695 26.4083 58.6455 26.2769 58.5928 26.1468C58.5323 26.0083 58.3671 25.2429 58.3077 24.8242C58.2446 24.3818 58.2464 23.1673 58.311 22.7701C58.4805 21.7236 58.6143 21.2763 59.0024 20.459C59.0621 20.333 59.111 20.2002 59.111 20.1633C59.111 20.1268 59.1367 20.0969 59.1682 20.0969C59.1997 20.0969 59.2254 20.0641 59.2254 20.024C59.2254 19.9841 59.3841 19.7145 59.5781 19.4248C59.8929 18.9549 60.6099 18.1751 61.0825 17.7882C61.5716 17.3876 62.539 16.8658 63.1167 16.6906C63.2866 16.6391 63.4898 16.5751 63.5683 16.5484C63.8587 16.4496 64.4167 16.3776 65.1398 16.3458C66.0719 16.3049 67.0498 16.4248 67.7398 16.6645C68.256 16.8437 68.7274 17.0582 68.7591 17.1281C68.7693 17.1512 68.8031 17.1702 68.8335 17.1702C68.954 17.1702 69.6027 17.6543 69.9922 18.0349C70.443 18.4751 70.7379 18.8609 70.9718 19.315C71.1182 19.5998 71.1199 19.6136 71.0176 19.6831C70.9592 19.7228 70.8844 19.7752 70.8515 19.7993C70.8186 19.8236 70.7246 19.8816 70.6427 19.9279C70.5607 19.9745 70.3754 20.0847 70.2304 20.173C69.9352 20.3529 69.8227 20.3395 69.7362 20.1149C69.4937 19.4872 68.3823 18.4572 67.6256 18.1591C66.7923 17.8309 66.2868 17.7329 65.4292 17.7335C64.5208 17.7343 63.9363 17.8441 63.2101 18.151C62.9618 18.2559 62.4327 18.5672 62.3214 18.6738C62.2799 18.7135 62.2282 18.7461 62.2069 18.7461C62.1462 18.7461 61.5107 19.3638 61.231 19.6946C60.9283 20.0527 60.4026 20.9735 60.2784 21.363C60.229 21.518 60.1661 21.6952 60.1385 21.757C59.8958 22.3018 59.7527 23.6212 59.8411 24.5007C59.9016 25.1027 60.0287 25.733 60.1389 25.9781C60.1669 26.0399 60.2068 26.1539 60.2276 26.2313C60.3197 26.5726 60.8577 27.56 61.1397 27.9052C61.4214 28.2499 61.9352 28.7822 62.1682 28.9706C62.4355 29.1863 63.3026 29.7202 63.3874 29.721C63.4083 29.721 63.4918 29.7555 63.5731 29.7972C63.6541 29.8389 63.9498 29.9337 64.2302 30.0079C64.6586 30.1213 64.8626 30.1415 65.5114 30.1357C66.5965 30.1261 67.2851 29.9416 68.197 29.4164C68.7946 29.0721 69.6198 28.2775 69.9114 27.7656C70.0214 27.5724 70.1372 27.414 70.1685 27.4136C70.2898 27.412 71.3971 28.0054 71.3971 28.0719C71.3971 28.1509 71.0643 28.7766 70.9991 28.8203C70.9759 28.8357 70.9276 28.9038 70.8914 28.9714C70.7548 29.2266 70.1294 29.8292 69.54 30.273C69.2273 30.5084 68.3993 30.9226 67.8256 31.1304C67.0634 31.4067 66.6008 31.4808 65.5398 31.4968C64.9742 31.5053 64.4469 31.5009 64.3684 31.4871ZM18.7668 31.4083C18.7668 31.3769 18.7915 31.3072 18.822 31.2535C18.8524 31.1999 18.931 31.0291 18.9966 30.8744C19.0624 30.7196 19.1385 30.5424 19.1662 30.4804C19.194 30.4186 19.3738 30.0008 19.5658 29.5519C19.6978 29.2416 19.8315 28.9321 19.9669 28.6232C20.036 28.4647 20.1027 28.3052 20.167 28.1448C20.2482 27.9437 20.3381 27.7284 20.3665 27.6664C20.3947 27.6046 20.4726 27.4274 20.5392 27.2726C20.6063 27.1177 20.6976 26.9113 20.7424 26.8138C20.7873 26.7162 20.8241 26.6198 20.8241 26.5995C20.8241 26.5677 20.9337 26.3083 21.1104 25.9218C21.1387 25.8598 21.2284 25.6445 21.3099 25.4434C21.3911 25.2423 21.4812 25.0269 21.5098 24.965C21.5386 24.9032 21.6284 24.6879 21.7099 24.4867C21.774 24.3263 21.8405 24.1668 21.9094 24.0083C21.9375 23.9463 22.0149 23.7691 22.0813 23.6144C22.1475 23.4596 22.2244 23.2822 22.252 23.2204C22.2798 23.1584 22.4213 22.8293 22.5663 22.4888C22.6698 22.2443 22.7749 22.0003 22.8813 21.757C22.9097 21.6952 23.0382 21.3912 23.1672 21.0817C23.2605 20.8558 23.3556 20.6307 23.4525 20.4064C23.4804 20.3444 23.5933 20.0784 23.7034 19.8153C24.3191 18.3414 24.4602 18.0082 24.597 17.7048C24.6249 17.643 24.7148 17.4277 24.7967 17.2265C24.8796 17.0233 24.9663 16.8216 25.0566 16.6215L25.1677 16.3825H26.4103L26.5378 16.6778C26.6696 16.9834 26.8032 17.2883 26.9386 17.5923C27.1332 18.0226 27.2243 18.2381 27.2243 18.2676C27.2243 18.2992 27.3339 18.554 27.5427 19.0078C27.5875 19.1054 27.6243 19.2018 27.6243 19.2221C27.6243 19.2539 27.7127 19.4635 27.9102 19.8998C28.1045 20.33 28.1958 20.5455 28.1958 20.5751C28.1958 20.5941 28.2491 20.7284 28.3141 20.8737C28.3793 21.0191 28.471 21.2267 28.5181 21.3351C28.565 21.4432 28.6263 21.5826 28.6543 21.6446C28.682 21.7063 28.7715 21.9216 28.8529 22.123C28.9344 22.3241 29.0238 22.5394 29.0518 22.6012C29.1867 22.9102 29.3204 23.2198 29.4529 23.5299C29.5853 23.84 29.719 24.1495 29.8539 24.4586C29.8821 24.5204 29.9469 24.6725 29.9979 24.7962C30.5235 26.0672 30.7321 26.5669 30.7971 26.7097C30.8392 26.8025 30.9797 27.1318 31.1091 27.4413C31.2386 27.7508 31.3674 28.0549 31.3955 28.1166C31.4237 28.1786 31.501 28.3559 31.5673 28.5106C31.6335 28.6654 31.711 28.8428 31.7392 28.9046C31.7676 28.9665 31.8573 29.1819 31.9387 29.383C32.0201 29.5841 32.11 29.7994 32.1382 29.8614C32.415 30.4652 32.7675 31.3175 32.7675 31.3832C32.7675 31.4514 32.6275 31.4654 31.9426 31.4654C31.137 31.4654 31.1169 31.4624 31.0786 31.3388C31.0437 31.2254 30.9106 30.9078 30.7666 30.593C30.6977 30.4344 30.631 30.2749 30.5663 30.1146C30.4479 29.8215 30.3239 29.5307 30.1945 29.2422C30.1667 29.1804 30.0772 28.9651 29.9958 28.764C29.9316 28.6036 29.865 28.4441 29.7963 28.2856C29.6231 27.9064 29.51 27.64 29.51 27.6103C29.51 27.5912 29.4623 27.4697 29.4039 27.3399C29.3455 27.2098 29.262 27.0215 29.2186 26.9206L29.1392 26.7379H22.3812L22.2658 27.0052C22.1727 27.2246 22.0822 27.445 21.9943 27.6664C21.9105 27.878 21.8227 28.0881 21.7311 28.2965C21.6722 28.4263 21.6241 28.5481 21.6241 28.5669C21.6241 28.5967 21.511 28.8632 21.3378 29.2422C21.2691 29.4008 21.2026 29.5603 21.1383 29.7206C21.0742 29.8813 21.0071 30.0408 20.9372 30.1991C20.908 30.261 20.7912 30.5395 20.6774 30.8181C20.5992 31.0105 20.5205 31.2028 20.4413 31.3949C20.4039 31.4844 18.7668 31.4974 18.7668 31.4083ZM28.7672 25.4967C28.7672 25.443 28.6829 25.2404 28.4488 24.7314C28.404 24.6338 28.3672 24.5364 28.3672 24.5147C28.3672 24.4932 28.3297 24.3958 28.2841 24.2982C28.2384 24.2007 28.0579 23.7663 27.883 23.333C27.7082 22.8996 27.541 22.4945 27.512 22.4325C27.4828 22.3705 27.3409 22.016 27.1963 21.6446C27.052 21.2731 26.9109 20.9184 26.8829 20.8566C26.8369 20.7537 26.7915 20.6505 26.7465 20.5471C26.6794 20.393 26.6114 20.2392 26.5427 20.0857C26.4775 19.9405 26.4241 19.8011 26.4239 19.7762C26.4239 19.7513 26.3903 19.6677 26.3498 19.5903C26.3093 19.5129 26.2141 19.2851 26.1386 19.0839C26.0629 18.8826 25.9679 18.6545 25.9272 18.5773C25.8867 18.5 25.8534 18.405 25.8531 18.3663C25.8521 18.2478 25.7487 18.2881 25.7075 18.4224C25.6862 18.4921 25.6347 18.6249 25.5932 18.7181C25.5516 18.8109 25.4118 19.14 25.2822 19.4495C25.1527 19.7592 24.9721 20.1896 24.8808 20.4064L23.8021 22.967C23.4685 23.76 23.1341 24.5526 22.7989 25.3449L22.7084 25.556H25.7378C27.8244 25.556 28.7672 25.5376 28.7672 25.4967ZM34.3674 23.9239V16.3823L37.5531 16.3833C40.8807 16.3841 41.4833 16.4143 42.0166 16.6102C42.3931 16.7485 42.977 17.0335 43.0835 17.1309C43.1245 17.1684 43.2435 17.2618 43.3484 17.3385C44.0857 17.8785 44.7901 18.9565 45.0587 19.9567C45.3189 20.9249 45.2126 22.2431 44.8 23.1619C44.2077 24.4805 43.2113 25.3932 41.953 25.7689C41.7007 25.8442 41.1991 25.8617 38.7817 25.8797L35.9102 25.9007V31.4658H34.3674V23.9245V23.9239ZM41.1491 24.4821C42.2033 24.3383 43.0576 23.5473 43.4844 22.3199C43.6312 21.8975 43.6647 20.7319 43.5434 20.2634C43.3787 19.627 43.0765 19.0985 42.628 18.6616C42.4055 18.4449 42.1465 18.2298 42.0526 18.1834C41.9588 18.137 41.8691 18.0853 41.8533 18.0687C41.8376 18.0521 41.7091 17.9893 41.5676 17.9294C41.3274 17.8275 41.1316 17.819 38.6102 17.8022L35.9102 17.7842V24.5428H38.3062C39.7111 24.5428 40.8871 24.5177 41.1491 24.4821ZM44.3494 31.4231C44.3356 31.4 44.423 31.1531 44.5433 30.8744C44.7833 30.3127 45.0207 29.7499 45.2555 29.1861C45.5268 28.5359 45.7833 27.9283 45.8258 27.8353C45.8682 27.7425 46.0093 27.4132 46.1393 27.1037C46.3667 26.5617 46.4903 26.2732 46.5973 26.0342C46.625 25.9724 46.7536 25.6686 46.8832 25.3589C46.9849 25.1143 47.0885 24.8705 47.1937 24.6273C47.2355 24.5345 47.4018 24.142 47.5639 23.7549C47.7258 23.3681 47.9327 22.8742 48.0238 22.6575C48.2177 22.1957 48.8664 20.6822 48.9404 20.519C49.0088 20.3604 49.0751 20.2009 49.1393 20.0406C49.2207 19.8392 49.3104 19.6241 49.3388 19.5621C49.3669 19.5002 49.4449 19.3231 49.5117 19.1682C49.5786 19.0134 49.6701 18.807 49.7149 18.7094C49.7598 18.612 49.7964 18.5156 49.7964 18.4953C49.7964 18.4635 49.8848 18.2539 50.0822 17.8176C50.1958 17.5664 50.3586 17.1797 50.4855 16.8607C50.5596 16.675 50.6435 16.4913 50.6723 16.4528C50.7087 16.404 50.9137 16.3823 51.3394 16.3823H51.9542L52.0286 16.5652C52.1786 16.9328 52.8348 18.4674 52.9975 18.8305C53.0253 18.8925 53.1534 19.1963 53.2823 19.5058C53.3755 19.7319 53.4711 19.957 53.569 20.1811C53.598 20.2431 53.8164 20.7625 54.0544 21.3351C54.2137 21.7205 54.3751 22.1051 54.5387 22.4888C54.5669 22.5506 54.7238 22.9178 54.8871 23.3049C55.2736 24.2194 55.6748 25.1604 55.7394 25.3026C55.7674 25.3646 55.8447 25.5418 55.9109 25.6966C55.9771 25.8515 56.0547 26.0288 56.0828 26.0905C56.1112 26.1525 56.2015 26.3678 56.2834 26.569C56.4232 26.9119 56.5361 27.177 56.6552 27.4413C56.683 27.5033 56.7728 27.7186 56.8547 27.9198C56.937 28.1209 57.0408 28.3654 57.0859 28.4628C57.1311 28.5604 57.1681 28.6577 57.1681 28.6789C57.1681 28.7002 57.2452 28.8817 57.3396 29.0824C57.4338 29.2829 57.511 29.4606 57.511 29.477C57.511 29.4932 57.548 29.5863 57.5932 29.684C57.6385 29.7816 57.7423 30.0261 57.8242 30.2272C57.9062 30.4283 57.9963 30.6437 58.0247 30.7056C58.2226 31.1385 58.311 31.3546 58.311 31.4061C58.311 31.4964 56.7418 31.4861 56.6677 31.3949C56.6361 31.3564 56.3856 30.7802 56.1108 30.1148C55.8363 29.4492 55.5775 28.8286 55.5362 28.7358C55.4949 28.6429 55.3939 28.4022 55.312 28.2011C55.2473 28.0408 55.1805 27.8813 55.1115 27.7227C55.034 27.5533 54.8526 27.1272 54.7701 26.9204L54.6967 26.7371L51.2971 26.7515L47.8975 26.766L47.5592 27.5821C47.4285 27.8977 47.2973 28.2132 47.1657 28.5284C47.1355 28.6001 47.1106 28.671 47.1106 28.6864C47.1106 28.7103 46.9866 29.0002 46.8243 29.3548C46.7554 29.5134 46.6885 29.6729 46.6238 29.8333C46.542 30.0344 46.4412 30.275 46.3998 30.368C46.3587 30.4608 46.2394 30.7457 46.1352 31.001L45.9453 31.4654H45.1597C44.7278 31.4654 44.3632 31.4464 44.3494 31.4231ZM54.3109 25.5262C54.3109 25.4983 54.114 25.016 53.9442 24.6273C53.8709 24.4506 53.8016 24.2723 53.7362 24.0926C53.6622 23.8914 53.5688 23.6636 53.5281 23.5862C53.4876 23.5088 53.4541 23.4252 53.4541 23.4003C53.453 23.361 53.3531 23.1197 53.1674 22.7138C53.0985 22.5552 53.0317 22.3957 52.9671 22.2354C52.885 22.0343 52.7842 21.7938 52.7429 21.7007C52.7018 21.6079 52.6209 21.4053 52.5631 21.2506C52.5056 21.0958 52.4251 20.9059 52.3848 20.8285C52.3445 20.7511 52.3114 20.6664 52.3112 20.6401C52.3112 20.6138 52.2736 20.5125 52.2281 20.4149C52.1829 20.3172 52.051 19.9968 51.9355 19.7029C51.836 19.4482 51.7329 19.1949 51.6261 18.9431C51.5716 18.8192 51.4914 18.6357 51.4478 18.535C51.3489 18.3067 51.2841 18.325 51.1866 18.6085C51.1483 18.7219 51.1049 18.8335 51.0567 18.9431C51.027 19.0049 50.9485 19.1822 50.8823 19.3371C50.8158 19.4919 50.7383 19.6691 50.7101 19.7311C50.6636 19.8323 50.0417 21.296 49.2756 23.1078C49.1185 23.4793 48.9671 23.8337 48.939 23.8957C48.9108 23.9577 48.7827 24.2615 48.6545 24.571C48.5515 24.8213 48.4458 25.0705 48.3374 25.3186C48.2913 25.4203 48.2535 25.5153 48.2535 25.5297C48.2535 25.5443 49.6164 25.556 51.2823 25.556C52.9481 25.556 54.3109 25.5426 54.3109 25.5262ZM73.4815 31.3967C73.466 31.357 73.4601 27.969 73.4683 23.8675L73.4829 16.4105H74.9686L74.9834 19.745L74.9982 23.0796H83.969V16.3823H85.5119V31.4654H83.969V24.4302H74.998L74.9834 27.9335L74.9686 31.437L74.2389 31.4528C73.6867 31.4648 73.5024 31.451 73.4815 31.3965V31.3967ZM88.8835 23.9239V16.3823H98.9408V17.7894H90.4264V23.0798H97.8551V24.4304H90.4264V30.0583H99.1121V31.4654H88.8833L88.8835 23.9239Z" fill="#AA0000"/>
<path d="M18.3284 37.9223V33.2537H19.1285V35.2776H21.4819V33.2537H22.2819V37.9225H21.4819V36.0122H19.1287V37.9223H18.3284ZM25.3905 33.9752V37.9223H24.59V33.9752H23.1524V33.2537H26.828V33.9752H25.3905ZM29.4831 33.9752V37.9223H28.6829V33.9752H27.2453V33.2537H30.9207V33.9752H29.4831ZM33.4131 33.2537C34.132 33.2537 34.6564 33.3895 34.9865 33.6612C35.3165 33.9328 35.4815 34.3513 35.4815 34.9168C35.4815 35.4824 35.312 35.8964 34.9729 36.1591C34.6383 36.4219 34.123 36.5532 33.4267 36.5532H32.5858V37.9225H31.7857V33.2537H33.4131ZM33.515 35.8385C33.9579 35.8385 34.2586 35.7561 34.4168 35.5913C34.5795 35.4221 34.6609 35.1773 34.6609 34.8567C34.6609 34.5317 34.5592 34.3024 34.3557 34.1688C34.1524 34.0351 33.8337 33.9683 33.3996 33.9683H32.5858V35.8385H33.515ZM39.7066 33.8682C39.476 33.8682 39.2861 33.915 39.1369 34.0084C38.9878 34.102 38.9132 34.2444 38.9132 34.4358C38.9132 34.6229 38.9878 34.7677 39.1369 34.8701C39.2861 34.9681 39.6026 35.075 40.0865 35.1907C40.5746 35.3064 40.9408 35.4689 41.1851 35.6782C41.4337 35.8875 41.558 36.197 41.558 36.6065C41.558 37.0118 41.402 37.3412 41.0901 37.595C40.7782 37.8488 40.3691 37.9758 39.8627 37.9758C39.1212 37.9758 38.4634 37.7242 37.8892 37.2211L38.391 36.6266C38.8702 37.0363 39.3675 37.2411 39.8829 37.2411C40.1406 37.2411 40.3441 37.1877 40.4933 37.0809C40.647 36.9695 40.7238 36.8247 40.7238 36.6466C40.7238 36.4641 40.6515 36.3238 40.5069 36.2259C40.3667 36.1234 40.1226 36.0322 39.7745 35.9521C39.4262 35.8674 39.1618 35.7917 38.981 35.725C38.8001 35.6537 38.6396 35.5624 38.4996 35.4512C38.2192 35.2419 38.079 34.9213 38.079 34.4895C38.079 34.0575 38.2373 33.7257 38.5539 33.4941C38.8747 33.2582 39.2703 33.1403 39.7406 33.1403C40.0436 33.1403 40.3442 33.1892 40.6426 33.2871C40.9409 33.3852 41.1986 33.5232 41.4157 33.7013L40.9883 34.2956C40.8482 34.171 40.6583 34.0686 40.4186 33.9884C40.1791 33.9083 39.9418 33.8682 39.7066 33.8682ZM45.8837 33.2537V33.995H43.354V35.2306H45.626V35.932H43.3543V37.181H45.9651V37.9223H42.554V33.2537H45.8837ZM50.7754 34.7698C50.7754 35.5402 50.434 36.0255 49.7512 36.2259L50.9921 37.9223H49.9749L48.8426 36.3527H47.7914V37.9225H46.9912V33.2537H48.7543C49.4777 33.2537 49.9954 33.3739 50.3073 33.6142C50.6192 33.8549 50.7752 34.2401 50.7752 34.7698H50.7754ZM48.7883 35.6381C49.2403 35.6381 49.5477 35.5691 49.7105 35.4311C49.8732 35.2931 49.9546 35.0727 49.9546 34.7698C49.9546 34.4626 49.8709 34.2533 49.7037 34.1419C49.5364 34.0263 49.238 33.9685 48.8086 33.9685H47.7914V35.6381H48.7883ZM54.0287 37.9223H53.1335L51.2278 33.2537H52.1231L53.5812 36.7402L55.0392 33.2537H55.9342L54.0287 37.9223ZM59.937 33.2537V33.995H57.4074V35.2306H59.6791V35.932H57.4074V37.181H60.0183V37.9223H56.6071V33.2537H59.937ZM64.8283 34.7698C64.8283 35.5402 64.487 36.0255 63.8045 36.2259L65.0455 37.9223H64.0283L62.8957 36.3527H61.8447V37.9225H61.0441V33.2537H62.8072C63.5306 33.2537 64.0483 33.3739 64.3604 33.6142C64.6723 33.8549 64.8283 34.2401 64.8283 34.7698ZM62.8416 35.6381C63.2936 35.6381 63.601 35.5691 63.7638 35.4311C63.9265 35.2931 64.0079 35.0727 64.0079 34.7698C64.0079 34.4626 63.9243 34.2533 63.757 34.1419C63.5897 34.0263 63.2913 33.9685 62.8617 33.9685H61.8445V35.6381H62.8416ZM69.4668 33.2537C70.1856 33.2537 70.7101 33.3895 71.0401 33.6612C71.3701 33.9328 71.5351 34.3513 71.5351 34.9168C71.5351 35.4824 71.3656 35.8964 71.0265 36.1591C70.692 36.4219 70.1766 36.5532 69.4804 36.5532H68.6392V37.9225H67.8392V33.2537H69.4668ZM69.5684 35.8385C70.0115 35.8385 70.3122 35.7561 70.4704 35.5913C70.6332 35.4221 70.7146 35.1773 70.7146 34.8567C70.7146 34.5317 70.6128 34.3024 70.4093 34.1688C70.2059 34.0351 69.8871 33.9683 69.453 33.9683H68.6394V35.8385H69.5684ZM76.259 34.7698C76.259 35.5402 75.9177 36.0255 75.235 36.2259L76.4762 37.9223H75.4588L74.3264 36.3527H73.2752V37.9225H72.475V33.2537H74.2382C74.9615 33.2537 75.4792 33.3739 75.7911 33.6142C76.103 33.8549 76.259 34.2401 76.259 34.7698ZM74.2721 35.6381C74.7241 35.6381 75.0315 35.5691 75.1943 35.4311C75.3572 35.2931 75.4386 35.0727 75.4386 34.7698C75.4386 34.4626 75.355 34.2533 75.1877 34.1419C75.0204 34.0263 74.722 33.9685 74.2925 33.9685H73.2752V35.6381H74.2721ZM80.7926 34.3558C80.4718 34.0263 80.0762 33.8616 79.606 33.8616C79.1357 33.8616 78.7378 34.0263 78.4123 34.3558C78.0915 34.6853 77.931 35.086 77.931 35.5579C77.931 36.0255 78.0915 36.4241 78.4123 36.7536C78.7378 37.0831 79.1357 37.2478 79.606 37.2478C80.0762 37.2478 80.4718 37.0831 80.7926 36.7536C81.1181 36.4241 81.2809 36.0255 81.2809 35.5579C81.2809 35.086 81.1181 34.6853 80.7926 34.3558ZM81.3827 37.2812C80.9035 37.7398 80.3112 37.9691 79.6057 37.9691C78.9006 37.9691 78.3084 37.7398 77.829 37.2812C77.3498 36.8181 77.1102 36.2436 77.1102 35.5579C77.1102 34.8679 77.3498 34.2935 77.829 33.8348C78.3084 33.3717 78.9007 33.1401 79.606 33.1401C80.3112 33.1401 80.9035 33.3717 81.3827 33.8348C81.8619 34.2934 82.1015 34.8678 82.1015 35.5579C82.1015 36.2436 81.8619 36.8181 81.3827 37.2812ZM83.1211 33.9618V33.2537H85.427V36.3327C85.427 36.8759 85.2868 37.2834 85.0064 37.5551C84.7262 37.8266 84.3668 37.9624 83.9282 37.9624C83.3766 37.9624 82.9064 37.7709 82.5177 37.388L82.972 36.7669C83.2794 37.0563 83.58 37.201 83.8738 37.201C84.0818 37.201 84.2582 37.132 84.4028 36.994C84.5521 36.856 84.6268 36.6489 84.6268 36.3728V33.9618H83.1211ZM90.0302 33.2537V33.995H87.5005V35.2306H89.7725V35.932H87.5005V37.181H90.1116V37.9223H86.7003V33.2537H90.0302ZM93.3008 37.2077C93.5767 37.2077 93.8141 37.1631 94.013 37.074C94.2118 36.9806 94.4197 36.8336 94.6368 36.6333L95.1522 37.1542C94.6504 37.7019 94.04 37.9758 93.3212 37.9758C92.6068 37.9758 92.0123 37.7487 91.5377 37.2946C91.0674 36.8403 90.8322 36.2659 90.8322 35.5713C90.8322 34.8767 91.0719 34.2979 91.5512 33.8348C92.035 33.3717 92.643 33.1401 93.3755 33.1401C94.1124 33.1401 94.7273 33.4073 95.22 33.9418L94.7114 34.4895C94.4854 34.2757 94.2706 34.1265 94.0671 34.0418C93.8683 33.9573 93.6332 33.915 93.3619 33.915C92.8827 33.915 92.4803 34.0686 92.1546 34.3758C91.8292 34.6786 91.6664 35.0682 91.6664 35.5445C91.6664 36.0166 91.827 36.4129 92.1481 36.7335C92.4736 37.0496 92.8578 37.2077 93.3008 37.2077ZM97.9214 33.9752V37.9223H97.1212V33.9752H95.6834V33.2537H99.359V33.9752H97.9214Z" fill="black"/>
<path d="M16.6608 6.63741C16.0705 6.98068 15.088 7.95255 13.9204 9.36209L14.9943 11.3616C15.7502 10.2996 16.517 9.34063 17.2904 8.52323C17.3514 8.45887 17.3797 8.42883 17.3797 8.42883C17.3514 8.45887 17.3187 8.49319 17.2904 8.52323C17.0398 8.79355 16.2796 9.66888 15.1338 11.4024C16.2382 11.3487 17.933 11.1256 19.3162 10.8939C19.7301 8.62192 18.9132 7.58354 18.9132 7.58354C18.9132 7.58354 17.8763 5.93157 16.6608 6.63741Z" fill="url(#paint10_linear_3702_45622)"/>
<path d="M13.0474 23.4347C12.9103 23.4582 12.7708 23.4839 12.6248 23.5076C12.6248 23.5076 12.6227 23.5076 12.6227 23.5096L12.8405 23.4776C12.908 23.4624 12.9777 23.4497 13.0474 23.4347Z" fill="#BD202E"/>
<path opacity="0.35" d="M13.0474 23.4347C12.9103 23.4582 12.7708 23.4839 12.6248 23.5076C12.6248 23.5076 12.6227 23.5076 12.6227 23.5096L12.8405 23.4776C12.908 23.4624 12.9777 23.4497 13.0474 23.4347Z" fill="#BD202E"/>
<path d="M13.4069 21.6861C13.4069 21.6861 13.4069 21.6881 13.4069 21.6861C13.4048 21.6861 13.4048 21.6861 13.4048 21.6881C13.4275 21.6857 13.45 21.6821 13.4723 21.6774C13.5638 21.6646 13.6531 21.6496 13.7403 21.6282C13.6313 21.6474 13.5223 21.6667 13.4069 21.6861Z" fill="#BD202E"/>
<path opacity="0.35" d="M13.4069 21.6861C13.4069 21.6861 13.4069 21.6881 13.4069 21.6861C13.4048 21.6861 13.4048 21.6861 13.4048 21.6881C13.4275 21.6857 13.45 21.6821 13.4723 21.6774C13.5638 21.6646 13.6531 21.6496 13.7403 21.6282C13.6313 21.6474 13.5223 21.6667 13.4069 21.6861Z" fill="#BD202E"/>
<path d="M11.8226 16.5299C12.1494 15.927 12.4805 15.3392 12.8138 14.7685C13.1602 14.1721 13.5131 13.5971 13.8681 13.0393C13.8877 13.0071 13.9117 12.9728 13.9313 12.9406C14.282 12.3935 14.6371 11.8657 14.9922 11.3637L13.9182 9.3642C13.8376 9.46074 13.757 9.55943 13.6743 9.66241C13.3628 10.0443 13.0425 10.4519 12.7114 10.8874C12.3389 11.3766 11.9577 11.9001 11.5678 12.4493C11.2105 12.9556 10.8446 13.4855 10.4786 14.0369C10.1671 14.5046 9.85775 14.9852 9.54842 15.4786C9.53753 15.4958 9.52664 15.5151 9.51575 15.5344L10.9164 18.2591C11.2127 17.6691 11.5177 17.092 11.8226 16.5299Z" fill="url(#paint11_linear_3702_45622)"/>
<path d="M5.44436 31.8739C5.2592 32.3738 5.07186 32.8865 4.88669 33.4079C4.88452 33.4143 4.88234 33.4229 4.87798 33.4293C4.85184 33.5023 4.82352 33.5774 4.79956 33.6503C4.67321 34.0021 4.56429 34.3197 4.31378 35.0384C4.72549 35.2229 5.05661 35.712 5.37029 36.2656C5.33762 35.6927 5.098 35.1542 4.63836 34.738C6.67078 34.8281 8.4222 34.3218 9.3284 32.8586C9.409 32.7278 9.48307 32.5926 9.5506 32.4446C9.13888 32.9595 8.62697 33.1762 7.6663 33.1247C7.66412 33.1247 7.66195 33.1268 7.65977 33.1268C7.66195 33.1268 7.66412 33.1247 7.6663 33.1247C9.08225 32.5004 9.79022 31.9018 10.4198 30.9106C10.5679 30.6746 10.7139 30.4193 10.862 30.134C9.62466 31.3847 8.19347 31.7409 6.68385 31.4706L5.5511 31.5929C5.51407 31.6873 5.48139 31.7795 5.44436 31.8739Z" fill="url(#paint12_linear_3702_45622)"/>
<path d="M5.97375 29.3788C6.21772 28.7566 6.47042 28.1259 6.72746 27.4908C6.9758 26.8815 7.22849 26.2679 7.4899 25.6543C7.7513 25.0408 8.01706 24.4207 8.28718 23.8029C8.56166 23.1743 8.84485 22.5478 9.13457 21.9235C9.41994 21.3056 9.70748 20.692 10.0016 20.087C10.1061 19.8682 10.215 19.6493 10.3218 19.4327C10.5069 19.0572 10.6943 18.6839 10.8838 18.3149C10.8947 18.2956 10.9034 18.2741 10.9143 18.2548L9.51361 15.5302C9.49182 15.5666 9.46786 15.6052 9.4439 15.6396C9.11714 16.1652 8.79256 16.7015 8.47452 17.2486C8.15212 17.8021 7.83626 18.3664 7.52693 18.9392C7.2677 19.4219 7.01283 19.9068 6.76232 20.4002C6.71222 20.4989 6.66429 20.5998 6.61419 20.6984C6.30922 21.3185 6.03474 21.9127 5.78423 22.4899C5.50104 23.1399 5.2527 23.7621 5.03704 24.3521C4.89327 24.7404 4.76475 25.1137 4.64494 25.4741C4.54691 25.7809 4.45542 26.0899 4.36393 26.3967C4.1548 27.1175 3.974 27.8384 3.82587 28.5549L5.2331 31.2903C5.41826 30.8012 5.60996 30.3035 5.80601 29.8014C5.86483 29.6577 5.91711 29.5161 5.97375 29.3788Z" fill="url(#paint13_linear_3702_45622)"/>
<path d="M3.81059 28.6472C3.63414 29.5225 3.50779 30.3936 3.44462 31.2603L3.43809 31.3504C2.99805 30.6574 1.82391 29.9816 1.82609 29.9881C2.66912 31.1895 3.30738 32.3823 3.40105 33.5537C2.95013 33.6438 2.33365 33.513 1.62132 33.2555C2.36415 33.9292 2.92181 34.1137 3.14183 34.1652C2.45782 34.2081 1.74767 34.6694 1.03098 35.2014C2.07878 34.7809 2.92617 34.6136 3.53176 34.7487C2.56891 37.4305 1.60607 40.3912 0.641052 43.5363C0.937311 43.4505 1.11376 43.2531 1.21179 42.9893C1.38388 42.4207 2.52317 38.6834 4.31162 33.7769C4.3639 33.6374 4.414 33.4958 4.46628 33.3564C4.47935 33.3156 4.4946 33.277 4.50985 33.2405C4.69719 32.7256 4.89542 32.2 5.09583 31.6636C5.14158 31.5413 5.18732 31.4191 5.23525 31.2968C5.23525 31.2946 5.23742 31.2925 5.23742 31.2903L3.82802 28.5549C3.82366 28.5828 3.81712 28.615 3.81059 28.6472Z" fill="url(#paint14_linear_3702_45622)"/>
<path d="M11.1321 18.4822C11.0907 18.5637 11.0515 18.6452 11.0101 18.7268C10.8881 18.9735 10.7661 19.2245 10.6398 19.4819C10.5047 19.7609 10.3697 20.044 10.2324 20.3358C10.1627 20.4817 10.093 20.6297 10.0233 20.7799C9.81417 21.2283 9.60287 21.6917 9.38721 22.1701C9.12362 22.7558 8.85133 23.3673 8.57903 24.0023C8.3198 24.6073 8.05186 25.2317 7.7861 25.8796C7.53123 26.4932 7.27418 27.1282 7.01278 27.7804C6.77969 28.3618 6.54443 28.9625 6.30916 29.5783C6.29827 29.6061 6.28738 29.6383 6.27649 29.6662C6.04122 30.2777 5.80378 30.9063 5.56633 31.5499C5.56198 31.5649 5.55544 31.5778 5.55109 31.5949L6.68384 31.4727C6.66206 31.4684 6.6381 31.4662 6.61631 31.4619C7.96908 31.2967 9.7706 30.2991 10.9317 29.0698C11.4676 28.5034 11.9533 27.834 12.4021 27.051C12.7354 26.4696 13.0512 25.8216 13.3519 25.1072C13.6133 24.4829 13.8638 23.805 14.1056 23.0734C13.7941 23.2343 13.439 23.3544 13.0469 23.4359C12.9772 23.451 12.9075 23.4638 12.8356 23.4767C12.7637 23.4896 12.6918 23.5003 12.6177 23.5089C12.6177 23.5089 12.6199 23.5089 12.6199 23.5067C13.8834 23.0283 14.6785 22.1058 15.2558 20.9752C14.9246 21.1983 14.3844 21.4901 13.7374 21.6295C13.6503 21.6488 13.561 21.6638 13.4695 21.6789C13.4477 21.681 13.4237 21.6853 13.402 21.6896H13.4063C13.8463 21.5094 14.2145 21.3055 14.5347 21.0674C14.6044 21.0159 14.6719 20.9644 14.7329 20.9086C14.831 20.825 14.9225 20.737 15.014 20.6469C15.0706 20.5868 15.125 20.5268 15.1795 20.4645C15.3059 20.3165 15.4235 20.1578 15.5324 19.9861C15.5651 19.9325 15.5999 19.881 15.6304 19.8252C15.674 19.7458 15.7132 19.6665 15.7524 19.5914C15.9289 19.2438 16.0705 18.9306 16.1816 18.6581C16.2382 18.5208 16.2861 18.3964 16.3297 18.2762C16.3471 18.229 16.3624 18.184 16.3776 18.1389C16.4234 18.0081 16.4582 17.8922 16.4865 17.7892C16.5301 17.6348 16.5562 17.5125 16.5693 17.4245C16.5257 17.4567 16.4778 17.491 16.4212 17.5232C16.04 17.7485 15.3865 17.9501 14.8593 18.0467L15.8984 17.9351L14.8593 18.0467C14.8528 18.0488 14.844 18.0488 14.8353 18.051C14.7809 18.0595 14.7308 18.0681 14.6763 18.0746L14.7024 18.0617L11.1452 18.4457C11.1452 18.4543 11.1386 18.4693 11.1321 18.4822Z" fill="url(#paint15_linear_3702_45622)"/>
<path d="M15.136 11.4023C14.8201 11.8808 14.4759 12.4235 14.1012 13.0393C14.0816 13.0693 14.0598 13.1058 14.0424 13.1358C13.7222 13.6679 13.3824 14.2514 13.0208 14.8929C12.7114 15.4464 12.389 16.0386 12.0536 16.6758C11.7617 17.2314 11.461 17.8214 11.1495 18.4457L14.7068 18.0617C15.7437 17.5918 16.2055 17.1692 16.6543 16.5535C16.7719 16.384 16.8939 16.2081 17.0115 16.0235C17.3775 15.4615 17.7348 14.8436 18.055 14.2278C18.3643 13.6336 18.6366 13.0457 18.8457 12.5137C18.9786 12.1768 19.0854 11.8636 19.1594 11.5868C19.2248 11.3444 19.2749 11.1127 19.3141 10.8917C17.9352 11.1256 16.2382 11.3487 15.136 11.4023Z" fill="url(#paint16_linear_3702_45622)"/>
<path d="M12.8362 23.4732C12.7642 23.4862 12.6922 23.4969 12.6182 23.5056C12.6922 23.4989 12.7662 23.4862 12.8362 23.4732Z" fill="#BD202E"/>
<path opacity="0.35" d="M12.8362 23.4732C12.7642 23.4862 12.6922 23.4969 12.6182 23.5056C12.6922 23.4989 12.7662 23.4862 12.8362 23.4732Z" fill="#BD202E"/>
<path d="M12.8356 23.4724C12.7637 23.4853 12.6919 23.496 12.6178 23.5046C12.6919 23.4982 12.7659 23.4853 12.8356 23.4724Z" fill="url(#paint17_linear_3702_45622)"/>
<path d="M13.4047 21.6881C13.4265 21.6861 13.4505 21.6818 13.4723 21.6774C13.4505 21.6796 13.4287 21.6861 13.4047 21.6881Z" fill="#BD202E"/>
<path opacity="0.35" d="M13.4047 21.6881C13.4265 21.6861 13.4505 21.6818 13.4723 21.6774C13.4505 21.6796 13.4287 21.6861 13.4047 21.6881Z" fill="#BD202E"/>
<path d="M13.4042 21.6875C13.426 21.6853 13.4499 21.681 13.4717 21.6768C13.4499 21.6789 13.4281 21.6853 13.4042 21.6875Z" fill="url(#paint18_linear_3702_45622)"/>
<path d="M13.4047 21.6888C13.4083 21.6888 13.4083 21.6852 13.4047 21.6888C13.4083 21.6852 13.4083 21.6888 13.4047 21.6888Z" fill="#BD202E"/>
<path opacity="0.35" d="M13.4047 21.6888C13.4083 21.6888 13.4083 21.6852 13.4047 21.6888C13.4083 21.6852 13.4083 21.6888 13.4047 21.6888Z" fill="#BD202E"/>
<path d="M13.4042 21.6882C13.408 21.6882 13.408 21.6844 13.4042 21.6882C13.408 21.6844 13.408 21.6882 13.4042 21.6882Z" fill="url(#paint19_linear_3702_45622)"/>
<path d="M64.3684 31.4871C64.15 31.4486 63.3257 31.2404 63.1969 31.1914C62.8946 31.0765 61.8564 30.5527 61.7347 30.4537C61.5716 30.3214 61.5508 30.3054 61.2538 30.0877C60.9597 29.8717 60.3289 29.2505 60.1099 28.9609C60.0356 28.8619 59.9598 28.7641 59.8825 28.6674C59.8433 28.6205 59.8042 28.5736 59.7652 28.5266C59.6961 28.4432 59.1112 27.4693 59.1112 27.4377C59.1112 27.4261 59.0501 27.2827 58.9757 27.1195C58.8906 26.9294 58.8124 26.7364 58.7412 26.5408C58.695 26.4083 58.6455 26.2769 58.5928 26.1468C58.5323 26.0083 58.3671 25.2429 58.3077 24.8242C58.2446 24.3818 58.2464 23.1673 58.311 22.7701C58.4805 21.7236 58.6143 21.2763 59.0024 20.459C59.0621 20.333 59.111 20.2002 59.111 20.1633C59.111 20.1268 59.1367 20.0969 59.1682 20.0969C59.1997 20.0969 59.2254 20.0641 59.2254 20.024C59.2254 19.9841 59.3841 19.7145 59.5781 19.4248C59.8929 18.9549 60.6099 18.1751 61.0825 17.7882C61.5716 17.3876 62.539 16.8658 63.1167 16.6906C63.2866 16.6391 63.4898 16.5751 63.5683 16.5484C63.8587 16.4496 64.4167 16.3776 65.1398 16.3458C66.0719 16.3049 67.0498 16.4248 67.7398 16.6645C68.256 16.8437 68.7274 17.0582 68.7591 17.1281C68.7693 17.1512 68.8031 17.1702 68.8335 17.1702C68.954 17.1702 69.6027 17.6543 69.9922 18.0349C70.443 18.4751 70.7379 18.8609 70.9718 19.315C71.1182 19.5998 71.1199 19.6136 71.0176 19.6831C70.9592 19.7228 70.8844 19.7752 70.8515 19.7993C70.8186 19.8236 70.7246 19.8816 70.6427 19.9279C70.5607 19.9745 70.3754 20.0847 70.2304 20.173C69.9352 20.3529 69.8227 20.3395 69.7362 20.1149C69.4937 19.4872 68.3823 18.4572 67.6256 18.1591C66.7923 17.8309 66.2868 17.7329 65.4292 17.7335C64.5208 17.7343 63.9363 17.8441 63.2101 18.151C62.9618 18.2559 62.4327 18.5672 62.3214 18.6738C62.2799 18.7135 62.2282 18.7461 62.2069 18.7461C62.1462 18.7461 61.5107 19.3638 61.231 19.6946C60.9283 20.0527 60.4026 20.9735 60.2784 21.363C60.229 21.518 60.1661 21.6952 60.1385 21.757C59.8958 22.3018 59.7527 23.6212 59.8411 24.5007C59.9016 25.1027 60.0287 25.733 60.1389 25.9781C60.1669 26.0399 60.2068 26.1539 60.2276 26.2313C60.3197 26.5726 60.8577 27.56 61.1397 27.9052C61.4214 28.2499 61.9352 28.7822 62.1682 28.9706C62.4355 29.1863 63.3026 29.7202 63.3874 29.721C63.4083 29.721 63.4918 29.7555 63.5731 29.7972C63.6541 29.8389 63.9498 29.9337 64.2302 30.0079C64.6586 30.1213 64.8626 30.1415 65.5114 30.1357C66.5965 30.1261 67.2851 29.9416 68.197 29.4164C68.7946 29.0721 69.6198 28.2775 69.9114 27.7656C70.0214 27.5724 70.1372 27.414 70.1685 27.4136C70.2898 27.412 71.3971 28.0054 71.3971 28.0719C71.3971 28.1509 71.0643 28.7766 70.9991 28.8203C70.9759 28.8357 70.9276 28.9038 70.8914 28.9714C70.7548 29.2266 70.1294 29.8292 69.54 30.273C69.2273 30.5084 68.3993 30.9226 67.8256 31.1304C67.0634 31.4067 66.6008 31.4808 65.5398 31.4968C64.9742 31.5053 64.4469 31.5009 64.3684 31.4871ZM18.7668 31.4083C18.7668 31.3769 18.7915 31.3072 18.822 31.2535C18.8524 31.1999 18.931 31.0291 18.9966 30.8744C19.0624 30.7196 19.1385 30.5424 19.1662 30.4804C19.194 30.4186 19.3738 30.0008 19.5658 29.5519C19.6978 29.2416 19.8315 28.9321 19.9669 28.6232C20.036 28.4647 20.1027 28.3052 20.167 28.1448C20.2482 27.9437 20.3381 27.7284 20.3665 27.6664C20.3947 27.6046 20.4726 27.4274 20.5392 27.2726C20.6063 27.1177 20.6976 26.9113 20.7424 26.8138C20.7873 26.7162 20.8241 26.6198 20.8241 26.5995C20.8241 26.5677 20.9337 26.3083 21.1104 25.9218C21.1387 25.8598 21.2284 25.6445 21.3099 25.4434C21.3911 25.2423 21.4812 25.0269 21.5098 24.965C21.5386 24.9032 21.6284 24.6879 21.7099 24.4867C21.774 24.3263 21.8405 24.1668 21.9094 24.0083C21.9375 23.9463 22.0149 23.7691 22.0813 23.6144C22.1475 23.4596 22.2244 23.2822 22.252 23.2204C22.2798 23.1584 22.4213 22.8293 22.5663 22.4888C22.6698 22.2443 22.7749 22.0003 22.8813 21.757C22.9097 21.6952 23.0382 21.3912 23.1672 21.0817C23.2605 20.8558 23.3556 20.6307 23.4525 20.4064C23.4804 20.3444 23.5933 20.0784 23.7034 19.8153C24.3191 18.3414 24.4602 18.0082 24.597 17.7048C24.6249 17.643 24.7148 17.4277 24.7967 17.2265C24.8796 17.0233 24.9663 16.8216 25.0566 16.6215L25.1677 16.3825H26.4103L26.5378 16.6778C26.6696 16.9834 26.8032 17.2883 26.9386 17.5923C27.1332 18.0226 27.2243 18.2381 27.2243 18.2676C27.2243 18.2992 27.3339 18.554 27.5427 19.0078C27.5875 19.1054 27.6243 19.2018 27.6243 19.2221C27.6243 19.2539 27.7127 19.4635 27.9102 19.8998C28.1045 20.33 28.1958 20.5455 28.1958 20.5751C28.1958 20.5941 28.2491 20.7284 28.3141 20.8737C28.3793 21.0191 28.471 21.2267 28.5181 21.3351C28.565 21.4432 28.6263 21.5826 28.6543 21.6446C28.682 21.7063 28.7715 21.9216 28.8529 22.123C28.9344 22.3241 29.0238 22.5394 29.0518 22.6012C29.1867 22.9102 29.3204 23.2198 29.4529 23.5299C29.5853 23.84 29.719 24.1495 29.8539 24.4586C29.8821 24.5204 29.9469 24.6725 29.9979 24.7962C30.5235 26.0672 30.7321 26.5669 30.7971 26.7097C30.8392 26.8025 30.9797 27.1318 31.1091 27.4413C31.2386 27.7508 31.3674 28.0549 31.3955 28.1166C31.4237 28.1786 31.501 28.3559 31.5673 28.5106C31.6335 28.6654 31.711 28.8428 31.7392 28.9046C31.7676 28.9665 31.8573 29.1819 31.9387 29.383C32.0201 29.5841 32.11 29.7994 32.1382 29.8614C32.415 30.4652 32.7675 31.3175 32.7675 31.3832C32.7675 31.4514 32.6275 31.4654 31.9426 31.4654C31.137 31.4654 31.1169 31.4624 31.0786 31.3388C31.0437 31.2254 30.9106 30.9078 30.7666 30.593C30.6977 30.4344 30.631 30.2749 30.5663 30.1146C30.4479 29.8215 30.3239 29.5307 30.1945 29.2422C30.1667 29.1804 30.0772 28.9651 29.9958 28.764C29.9316 28.6036 29.865 28.4441 29.7963 28.2856C29.6231 27.9064 29.51 27.64 29.51 27.6103C29.51 27.5912 29.4623 27.4697 29.4039 27.3399C29.3455 27.2098 29.262 27.0215 29.2186 26.9206L29.1392 26.7379H22.3812L22.2658 27.0052C22.1727 27.2246 22.0822 27.445 21.9943 27.6664C21.9105 27.878 21.8227 28.0881 21.7311 28.2965C21.6722 28.4263 21.6241 28.5481 21.6241 28.5669C21.6241 28.5967 21.511 28.8632 21.3378 29.2422C21.2691 29.4008 21.2026 29.5603 21.1383 29.7206C21.0742 29.8813 21.0071 30.0408 20.9372 30.1991C20.908 30.261 20.7912 30.5395 20.6774 30.8181C20.5992 31.0105 20.5205 31.2028 20.4413 31.3949C20.4039 31.4844 18.7668 31.4974 18.7668 31.4083ZM28.7672 25.4967C28.7672 25.443 28.6829 25.2404 28.4488 24.7314C28.404 24.6338 28.3672 24.5364 28.3672 24.5147C28.3672 24.4932 28.3297 24.3958 28.2841 24.2982C28.2384 24.2007 28.0579 23.7663 27.883 23.333C27.7082 22.8996 27.541 22.4945 27.512 22.4325C27.4828 22.3705 27.3409 22.016 27.1963 21.6446C27.052 21.2731 26.9109 20.9184 26.8829 20.8566C26.8369 20.7537 26.7915 20.6505 26.7465 20.5471C26.6794 20.393 26.6114 20.2392 26.5427 20.0857C26.4775 19.9405 26.4241 19.8011 26.4239 19.7762C26.4239 19.7513 26.3903 19.6677 26.3498 19.5903C26.3093 19.5129 26.2141 19.2851 26.1386 19.0839C26.0629 18.8826 25.9679 18.6545 25.9272 18.5773C25.8867 18.5 25.8534 18.405 25.8531 18.3663C25.8521 18.2478 25.7487 18.2881 25.7075 18.4224C25.6862 18.4921 25.6347 18.6249 25.5932 18.7181C25.5516 18.8109 25.4118 19.14 25.2822 19.4495C25.1527 19.7592 24.9721 20.1896 24.8808 20.4064L23.8021 22.967C23.4685 23.76 23.1341 24.5526 22.7989 25.3449L22.7084 25.556H25.7378C27.8244 25.556 28.7672 25.5376 28.7672 25.4967ZM34.3674 23.9239V16.3823L37.5531 16.3833C40.8807 16.3841 41.4833 16.4143 42.0166 16.6102C42.3931 16.7485 42.977 17.0335 43.0835 17.1309C43.1245 17.1684 43.2435 17.2618 43.3484 17.3385C44.0857 17.8785 44.7901 18.9565 45.0587 19.9567C45.3189 20.9249 45.2126 22.2431 44.8 23.1619C44.2077 24.4805 43.2113 25.3932 41.953 25.7689C41.7007 25.8442 41.1991 25.8617 38.7817 25.8797L35.9102 25.9007V31.4658H34.3674V23.9245V23.9239ZM41.1491 24.4821C42.2033 24.3383 43.0576 23.5473 43.4844 22.3199C43.6312 21.8975 43.6647 20.7319 43.5434 20.2634C43.3787 19.627 43.0765 19.0985 42.628 18.6616C42.4055 18.4449 42.1465 18.2298 42.0526 18.1834C41.9588 18.137 41.8691 18.0853 41.8533 18.0687C41.8376 18.0521 41.7091 17.9893 41.5676 17.9294C41.3274 17.8275 41.1316 17.819 38.6102 17.8022L35.9102 17.7842V24.5428H38.3062C39.7111 24.5428 40.8871 24.5177 41.1491 24.4821ZM44.3494 31.4231C44.3356 31.4 44.423 31.1531 44.5433 30.8744C44.7833 30.3127 45.0207 29.7499 45.2555 29.1861C45.5268 28.5359 45.7833 27.9283 45.8258 27.8353C45.8682 27.7425 46.0093 27.4132 46.1393 27.1037C46.3667 26.5617 46.4903 26.2732 46.5973 26.0342C46.625 25.9724 46.7536 25.6686 46.8832 25.3589C46.9849 25.1143 47.0885 24.8705 47.1937 24.6273C47.2355 24.5345 47.4018 24.142 47.5639 23.7549C47.7258 23.3681 47.9327 22.8742 48.0238 22.6575C48.2177 22.1957 48.8664 20.6822 48.9404 20.519C49.0088 20.3604 49.0751 20.2009 49.1393 20.0406C49.2207 19.8392 49.3104 19.6241 49.3388 19.5621C49.3669 19.5002 49.4449 19.3231 49.5117 19.1682C49.5786 19.0134 49.6701 18.807 49.7149 18.7094C49.7598 18.612 49.7964 18.5156 49.7964 18.4953C49.7964 18.4635 49.8848 18.2539 50.0822 17.8176C50.1958 17.5664 50.3586 17.1797 50.4855 16.8607C50.5596 16.675 50.6435 16.4913 50.6723 16.4528C50.7087 16.404 50.9137 16.3823 51.3394 16.3823H51.9542L52.0286 16.5652C52.1786 16.9328 52.8348 18.4674 52.9975 18.8305C53.0253 18.8925 53.1534 19.1963 53.2823 19.5058C53.3755 19.7319 53.4711 19.957 53.569 20.1811C53.598 20.2431 53.8164 20.7625 54.0544 21.3351C54.2137 21.7205 54.3751 22.1051 54.5387 22.4888C54.5669 22.5506 54.7238 22.9178 54.8871 23.3049C55.2736 24.2194 55.6748 25.1604 55.7394 25.3026C55.7674 25.3646 55.8447 25.5418 55.9109 25.6966C55.9771 25.8515 56.0547 26.0288 56.0828 26.0905C56.1112 26.1525 56.2015 26.3678 56.2834 26.569C56.4232 26.9119 56.5361 27.177 56.6552 27.4413C56.683 27.5033 56.7728 27.7186 56.8547 27.9198C56.937 28.1209 57.0408 28.3654 57.0859 28.4628C57.1311 28.5604 57.1681 28.6577 57.1681 28.6789C57.1681 28.7002 57.2452 28.8817 57.3396 29.0824C57.4338 29.2829 57.511 29.4606 57.511 29.477C57.511 29.4932 57.548 29.5863 57.5932 29.684C57.6385 29.7816 57.7423 30.0261 57.8242 30.2272C57.9062 30.4283 57.9963 30.6437 58.0247 30.7056C58.2226 31.1385 58.311 31.3546 58.311 31.4061C58.311 31.4964 56.7418 31.4861 56.6677 31.3949C56.6361 31.3564 56.3856 30.7802 56.1108 30.1148C55.8363 29.4492 55.5775 28.8286 55.5362 28.7358C55.4949 28.6429 55.3939 28.4022 55.312 28.2011C55.2473 28.0408 55.1805 27.8813 55.1115 27.7227C55.034 27.5533 54.8526 27.1272 54.7701 26.9204L54.6967 26.7371L51.2971 26.7515L47.8975 26.766L47.5592 27.5821C47.4285 27.8977 47.2973 28.2132 47.1657 28.5284C47.1355 28.6001 47.1106 28.671 47.1106 28.6864C47.1106 28.7103 46.9866 29.0002 46.8243 29.3548C46.7554 29.5134 46.6885 29.6729 46.6238 29.8333C46.542 30.0344 46.4412 30.275 46.3998 30.368C46.3587 30.4608 46.2394 30.7457 46.1352 31.001L45.9453 31.4654H45.1597C44.7278 31.4654 44.3632 31.4464 44.3494 31.4231ZM54.3109 25.5262C54.3109 25.4983 54.114 25.016 53.9442 24.6273C53.8709 24.4506 53.8016 24.2723 53.7362 24.0926C53.6622 23.8914 53.5688 23.6636 53.5281 23.5862C53.4876 23.5088 53.4541 23.4252 53.4541 23.4003C53.453 23.361 53.3531 23.1197 53.1674 22.7138C53.0985 22.5552 53.0317 22.3957 52.9671 22.2354C52.885 22.0343 52.7842 21.7938 52.7429 21.7007C52.7018 21.6079 52.6209 21.4053 52.5631 21.2506C52.5056 21.0958 52.4251 20.9059 52.3848 20.8285C52.3445 20.7511 52.3114 20.6664 52.3112 20.6401C52.3112 20.6138 52.2736 20.5125 52.2281 20.4149C52.1829 20.3172 52.051 19.9968 51.9355 19.7029C51.836 19.4482 51.7329 19.1949 51.6261 18.9431C51.5716 18.8192 51.4914 18.6357 51.4478 18.535C51.3489 18.3067 51.2841 18.325 51.1866 18.6085C51.1483 18.7219 51.1049 18.8335 51.0567 18.9431C51.027 19.0049 50.9485 19.1822 50.8823 19.3371C50.8158 19.4919 50.7383 19.6691 50.7101 19.7311C50.6636 19.8323 50.0417 21.296 49.2756 23.1078C49.1185 23.4793 48.9671 23.8337 48.939 23.8957C48.9108 23.9577 48.7827 24.2615 48.6545 24.571C48.5515 24.8213 48.4458 25.0705 48.3374 25.3186C48.2913 25.4203 48.2535 25.5153 48.2535 25.5297C48.2535 25.5443 49.6164 25.556 51.2823 25.556C52.9481 25.556 54.3109 25.5426 54.3109 25.5262ZM73.4815 31.3967C73.466 31.357 73.4601 27.969 73.4683 23.8675L73.4829 16.4105H74.9686L74.9834 19.745L74.9982 23.0796H83.969V16.3823H85.5119V31.4654H83.969V24.4302H74.998L74.9834 27.9335L74.9686 31.437L74.2389 31.4528C73.6867 31.4648 73.5024 31.451 73.4815 31.3965V31.3967ZM88.8835 23.9239V16.3823H98.9408V17.7894H90.4264V23.0798H97.8551V24.4304H90.4264V30.0583H99.1121V31.4654H88.8833L88.8835 23.9239Z" fill="#AA0000"/>
<path d="M18.3284 37.9223V33.2537H19.1285V35.2776H21.4819V33.2537H22.2819V37.9225H21.4819V36.0122H19.1287V37.9223H18.3284ZM25.3905 33.9752V37.9223H24.59V33.9752H23.1524V33.2537H26.828V33.9752H25.3905ZM29.4831 33.9752V37.9223H28.6829V33.9752H27.2453V33.2537H30.9207V33.9752H29.4831ZM33.4131 33.2537C34.132 33.2537 34.6564 33.3895 34.9865 33.6612C35.3165 33.9328 35.4815 34.3513 35.4815 34.9168C35.4815 35.4824 35.312 35.8964 34.9729 36.1591C34.6383 36.4219 34.123 36.5532 33.4267 36.5532H32.5858V37.9225H31.7857V33.2537H33.4131ZM33.515 35.8385C33.9579 35.8385 34.2586 35.7561 34.4168 35.5913C34.5795 35.4221 34.6609 35.1773 34.6609 34.8567C34.6609 34.5317 34.5592 34.3024 34.3557 34.1688C34.1524 34.0351 33.8337 33.9683 33.3996 33.9683H32.5858V35.8385H33.515ZM39.7066 33.8682C39.476 33.8682 39.2861 33.915 39.1369 34.0084C38.9878 34.102 38.9132 34.2444 38.9132 34.4358C38.9132 34.6229 38.9878 34.7677 39.1369 34.8701C39.2861 34.9681 39.6026 35.075 40.0865 35.1907C40.5746 35.3064 40.9408 35.4689 41.1851 35.6782C41.4337 35.8875 41.558 36.197 41.558 36.6065C41.558 37.0118 41.402 37.3412 41.0901 37.595C40.7782 37.8488 40.3691 37.9758 39.8627 37.9758C39.1212 37.9758 38.4634 37.7242 37.8892 37.2211L38.391 36.6266C38.8702 37.0363 39.3675 37.2411 39.8829 37.2411C40.1406 37.2411 40.3441 37.1877 40.4933 37.0809C40.647 36.9695 40.7238 36.8247 40.7238 36.6466C40.7238 36.4641 40.6515 36.3238 40.5069 36.2259C40.3667 36.1234 40.1226 36.0322 39.7745 35.9521C39.4262 35.8674 39.1618 35.7917 38.981 35.725C38.8001 35.6537 38.6396 35.5624 38.4996 35.4512C38.2192 35.2419 38.079 34.9213 38.079 34.4895C38.079 34.0575 38.2373 33.7257 38.5539 33.4941C38.8747 33.2582 39.2703 33.1403 39.7406 33.1403C40.0436 33.1403 40.3442 33.1892 40.6426 33.2871C40.9409 33.3852 41.1986 33.5232 41.4157 33.7013L40.9883 34.2956C40.8482 34.171 40.6583 34.0686 40.4186 33.9884C40.1791 33.9083 39.9418 33.8682 39.7066 33.8682ZM45.8837 33.2537V33.995H43.354V35.2306H45.626V35.932H43.3543V37.181H45.9651V37.9223H42.554V33.2537H45.8837ZM50.7754 34.7698C50.7754 35.5402 50.434 36.0255 49.7512 36.2259L50.9921 37.9223H49.9749L48.8426 36.3527H47.7914V37.9225H46.9912V33.2537H48.7543C49.4777 33.2537 49.9954 33.3739 50.3073 33.6142C50.6192 33.8549 50.7752 34.2401 50.7752 34.7698H50.7754ZM48.7883 35.6381C49.2403 35.6381 49.5477 35.5691 49.7105 35.4311C49.8732 35.2931 49.9546 35.0727 49.9546 34.7698C49.9546 34.4626 49.8709 34.2533 49.7037 34.1419C49.5364 34.0263 49.238 33.9685 48.8086 33.9685H47.7914V35.6381H48.7883ZM54.0287 37.9223H53.1335L51.2278 33.2537H52.1231L53.5812 36.7402L55.0392 33.2537H55.9342L54.0287 37.9223ZM59.937 33.2537V33.995H57.4074V35.2306H59.6791V35.932H57.4074V37.181H60.0183V37.9223H56.6071V33.2537H59.937ZM64.8283 34.7698C64.8283 35.5402 64.487 36.0255 63.8045 36.2259L65.0455 37.9223H64.0283L62.8957 36.3527H61.8447V37.9225H61.0441V33.2537H62.8072C63.5306 33.2537 64.0483 33.3739 64.3604 33.6142C64.6723 33.8549 64.8283 34.2401 64.8283 34.7698ZM62.8416 35.6381C63.2936 35.6381 63.601 35.5691 63.7638 35.4311C63.9265 35.2931 64.0079 35.0727 64.0079 34.7698C64.0079 34.4626 63.9243 34.2533 63.757 34.1419C63.5897 34.0263 63.2913 33.9685 62.8617 33.9685H61.8445V35.6381H62.8416ZM69.4668 33.2537C70.1856 33.2537 70.7101 33.3895 71.0401 33.6612C71.3701 33.9328 71.5351 34.3513 71.5351 34.9168C71.5351 35.4824 71.3656 35.8964 71.0265 36.1591C70.692 36.4219 70.1766 36.5532 69.4804 36.5532H68.6392V37.9225H67.8392V33.2537H69.4668ZM69.5684 35.8385C70.0115 35.8385 70.3122 35.7561 70.4704 35.5913C70.6332 35.4221 70.7146 35.1773 70.7146 34.8567C70.7146 34.5317 70.6128 34.3024 70.4093 34.1688C70.2059 34.0351 69.8871 33.9683 69.453 33.9683H68.6394V35.8385H69.5684ZM76.259 34.7698C76.259 35.5402 75.9177 36.0255 75.235 36.2259L76.4762 37.9223H75.4588L74.3264 36.3527H73.2752V37.9225H72.475V33.2537H74.2382C74.9615 33.2537 75.4792 33.3739 75.7911 33.6142C76.103 33.8549 76.259 34.2401 76.259 34.7698ZM74.2721 35.6381C74.7241 35.6381 75.0315 35.5691 75.1943 35.4311C75.3572 35.2931 75.4386 35.0727 75.4386 34.7698C75.4386 34.4626 75.355 34.2533 75.1877 34.1419C75.0204 34.0263 74.722 33.9685 74.2925 33.9685H73.2752V35.6381H74.2721ZM80.7926 34.3558C80.4718 34.0263 80.0762 33.8616 79.606 33.8616C79.1357 33.8616 78.7378 34.0263 78.4123 34.3558C78.0915 34.6853 77.931 35.086 77.931 35.5579C77.931 36.0255 78.0915 36.4241 78.4123 36.7536C78.7378 37.0831 79.1357 37.2478 79.606 37.2478C80.0762 37.2478 80.4718 37.0831 80.7926 36.7536C81.1181 36.4241 81.2809 36.0255 81.2809 35.5579C81.2809 35.086 81.1181 34.6853 80.7926 34.3558ZM81.3827 37.2812C80.9035 37.7398 80.3112 37.9691 79.6057 37.9691C78.9006 37.9691 78.3084 37.7398 77.829 37.2812C77.3498 36.8181 77.1102 36.2436 77.1102 35.5579C77.1102 34.8679 77.3498 34.2935 77.829 33.8348C78.3084 33.3717 78.9007 33.1401 79.606 33.1401C80.3112 33.1401 80.9035 33.3717 81.3827 33.8348C81.8619 34.2934 82.1015 34.8678 82.1015 35.5579C82.1015 36.2436 81.8619 36.8181 81.3827 37.2812ZM83.1211 33.9618V33.2537H85.427V36.3327C85.427 36.8759 85.2868 37.2834 85.0064 37.5551C84.7262 37.8266 84.3668 37.9624 83.9282 37.9624C83.3766 37.9624 82.9064 37.7709 82.5177 37.388L82.972 36.7669C83.2794 37.0563 83.58 37.201 83.8738 37.201C84.0818 37.201 84.2582 37.132 84.4028 36.994C84.5521 36.856 84.6268 36.6489 84.6268 36.3728V33.9618H83.1211ZM90.0302 33.2537V33.995H87.5005V35.2306H89.7725V35.932H87.5005V37.181H90.1116V37.9223H86.7003V33.2537H90.0302ZM93.3008 37.2077C93.5767 37.2077 93.8141 37.1631 94.013 37.074C94.2118 36.9806 94.4197 36.8336 94.6368 36.6333L95.1522 37.1542C94.6504 37.7019 94.04 37.9758 93.3212 37.9758C92.6068 37.9758 92.0123 37.7487 91.5377 37.2946C91.0674 36.8403 90.8322 36.2659 90.8322 35.5713C90.8322 34.8767 91.0719 34.2979 91.5512 33.8348C92.035 33.3717 92.643 33.1401 93.3755 33.1401C94.1124 33.1401 94.7273 33.4073 95.22 33.9418L94.7114 34.4895C94.4854 34.2757 94.2706 34.1265 94.0671 34.0418C93.8683 33.9573 93.6332 33.915 93.3619 33.915C92.8827 33.915 92.4803 34.0686 92.1546 34.3758C91.8292 34.6786 91.6664 35.0682 91.6664 35.5445C91.6664 36.0166 91.827 36.4129 92.1481 36.7335C92.4736 37.0496 92.8578 37.2077 93.3008 37.2077ZM97.9214 33.9752V37.9223H97.1212V33.9752H95.6834V33.2537H99.359V33.9752H97.9214Z" fill="black"/>
</g>
<defs>
<linearGradient id="paint0_linear_3702_45622" x1="14.8233" y1="9.61089" x2="22.688" y2="7.39078" gradientUnits="userSpaceOnUse">
<stop stop-color="#F59723"/>
<stop offset="0.312" stop-color="#F69822"/>
<stop offset="0.838" stop-color="#E87726"/>
</linearGradient>
<linearGradient id="paint1_linear_3702_45622" x1="-2.43002" y1="44.4506" x2="13.2044" y2="10.4074" gradientUnits="userSpaceOnUse">
<stop offset="0.323" stop-color="#9C2063"/>
<stop offset="0.63" stop-color="#C82037"/>
<stop offset="0.751" stop-color="#CC2135"/>
<stop offset="1" stop-color="#E87726"/>
</linearGradient>
<linearGradient id="paint2_linear_3702_45622" x1="2.94939" y1="41.945" x2="12.266" y2="21.6585" gradientUnits="userSpaceOnUse">
<stop stop-color="#282661"/>
<stop offset="0.095" stop-color="#662E8C"/>
<stop offset="0.788" stop-color="#9E2064"/>
<stop offset="0.949" stop-color="#CC2032"/>
</linearGradient>
<linearGradient id="paint3_linear_3702_45622" x1="-1.85226" y1="42.4007" x2="13.7821" y2="8.35742" gradientUnits="userSpaceOnUse">
<stop offset="0.323" stop-color="#9C2063"/>
<stop offset="0.63" stop-color="#C82037"/>
<stop offset="0.751" stop-color="#CC2135"/>
<stop offset="1" stop-color="#E87726"/>
</linearGradient>
<linearGradient id="paint4_linear_3702_45622" x1="-0.216587" y1="40.1454" x2="7.99978" y2="22.2546" gradientUnits="userSpaceOnUse">
<stop stop-color="#282661"/>
<stop offset="0.095" stop-color="#662E8C"/>
<stop offset="0.788" stop-color="#9E2064"/>
<stop offset="0.949" stop-color="#CC2032"/>
</linearGradient>
<linearGradient id="paint5_linear_3702_45622" x1="1.70737" y1="44.0354" x2="17.3418" y2="9.99216" gradientUnits="userSpaceOnUse">
<stop offset="0.323" stop-color="#9C2063"/>
<stop offset="0.63" stop-color="#C82037"/>
<stop offset="0.751" stop-color="#CC2135"/>
<stop offset="1" stop-color="#E87726"/>
</linearGradient>
<linearGradient id="paint6_linear_3702_45622" x1="0.534759" y1="46.0541" x2="16.1692" y2="12.0109" gradientUnits="userSpaceOnUse">
<stop offset="0.323" stop-color="#9C2063"/>
<stop offset="0.63" stop-color="#C82037"/>
<stop offset="0.751" stop-color="#CC2135"/>
<stop offset="1" stop-color="#E87726"/>
</linearGradient>
<linearGradient id="paint7_linear_3702_45622" x1="2.76382" y1="44.5206" x2="18.3982" y2="10.4773" gradientUnits="userSpaceOnUse">
<stop offset="0.323" stop-color="#9C2063"/>
<stop offset="0.63" stop-color="#C82037"/>
<stop offset="0.751" stop-color="#CC2135"/>
<stop offset="1" stop-color="#E87726"/>
</linearGradient>
<linearGradient id="paint8_linear_3702_45622" x1="2.64436" y1="44.4659" x2="18.2787" y2="10.4224" gradientUnits="userSpaceOnUse">
<stop offset="0.323" stop-color="#9C2063"/>
<stop offset="0.63" stop-color="#C82037"/>
<stop offset="0.751" stop-color="#CC2135"/>
<stop offset="1" stop-color="#E87726"/>
</linearGradient>
<linearGradient id="paint9_linear_3702_45622" x1="10.273" y1="28.3541" x2="16.4681" y2="15.0096" gradientUnits="userSpaceOnUse">
<stop offset="0.323" stop-color="#9C2063"/>
<stop offset="0.63" stop-color="#C82037"/>
<stop offset="0.751" stop-color="#CC2135"/>
<stop offset="1" stop-color="#E87726"/>
</linearGradient>
<linearGradient id="paint10_linear_3702_45622" x1="14.8233" y1="9.61089" x2="22.688" y2="7.39078" gradientUnits="userSpaceOnUse">
<stop stop-color="#F59723"/>
<stop offset="0.312" stop-color="#F69822"/>
<stop offset="0.838" stop-color="#E87726"/>
</linearGradient>
<linearGradient id="paint11_linear_3702_45622" x1="-2.43002" y1="44.4506" x2="13.2044" y2="10.4074" gradientUnits="userSpaceOnUse">
<stop offset="0.323" stop-color="#9C2063"/>
<stop offset="0.63" stop-color="#C82037"/>
<stop offset="0.751" stop-color="#CC2135"/>
<stop offset="1" stop-color="#E87726"/>
</linearGradient>
<linearGradient id="paint12_linear_3702_45622" x1="2.94939" y1="41.945" x2="12.266" y2="21.6585" gradientUnits="userSpaceOnUse">
<stop stop-color="#282661"/>
<stop offset="0.095" stop-color="#662E8C"/>
<stop offset="0.788" stop-color="#9E2064"/>
<stop offset="0.949" stop-color="#CC2032"/>
</linearGradient>
<linearGradient id="paint13_linear_3702_45622" x1="-1.85226" y1="42.4007" x2="13.7821" y2="8.35742" gradientUnits="userSpaceOnUse">
<stop offset="0.323" stop-color="#9C2063"/>
<stop offset="0.63" stop-color="#C82037"/>
<stop offset="0.751" stop-color="#CC2135"/>
<stop offset="1" stop-color="#E87726"/>
</linearGradient>
<linearGradient id="paint14_linear_3702_45622" x1="-0.216587" y1="40.1454" x2="7.99978" y2="22.2546" gradientUnits="userSpaceOnUse">
<stop stop-color="#282661"/>
<stop offset="0.095" stop-color="#662E8C"/>
<stop offset="0.788" stop-color="#9E2064"/>
<stop offset="0.949" stop-color="#CC2032"/>
</linearGradient>
<linearGradient id="paint15_linear_3702_45622" x1="1.70737" y1="44.0354" x2="17.3418" y2="9.99216" gradientUnits="userSpaceOnUse">
<stop offset="0.323" stop-color="#9C2063"/>
<stop offset="0.63" stop-color="#C82037"/>
<stop offset="0.751" stop-color="#CC2135"/>
<stop offset="1" stop-color="#E87726"/>
</linearGradient>
<linearGradient id="paint16_linear_3702_45622" x1="0.534759" y1="46.0541" x2="16.1692" y2="12.0109" gradientUnits="userSpaceOnUse">
<stop offset="0.323" stop-color="#9C2063"/>
<stop offset="0.63" stop-color="#C82037"/>
<stop offset="0.751" stop-color="#CC2135"/>
<stop offset="1" stop-color="#E87726"/>
</linearGradient>
<linearGradient id="paint17_linear_3702_45622" x1="2.76382" y1="44.5206" x2="18.3982" y2="10.4773" gradientUnits="userSpaceOnUse">
<stop offset="0.323" stop-color="#9C2063"/>
<stop offset="0.63" stop-color="#C82037"/>
<stop offset="0.751" stop-color="#CC2135"/>
<stop offset="1" stop-color="#E87726"/>
</linearGradient>
<linearGradient id="paint18_linear_3702_45622" x1="2.64436" y1="44.4659" x2="18.2787" y2="10.4224" gradientUnits="userSpaceOnUse">
<stop offset="0.323" stop-color="#9C2063"/>
<stop offset="0.63" stop-color="#C82037"/>
<stop offset="0.751" stop-color="#CC2135"/>
<stop offset="1" stop-color="#E87726"/>
</linearGradient>
<linearGradient id="paint19_linear_3702_45622" x1="10.273" y1="28.3541" x2="16.4681" y2="15.0096" gradientUnits="userSpaceOnUse">
<stop offset="0.323" stop-color="#9C2063"/>
<stop offset="0.63" stop-color="#C82037"/>
<stop offset="0.751" stop-color="#CC2135"/>
<stop offset="1" stop-color="#E87726"/>
</linearGradient>
<clipPath id="clip0_3702_45622">
<rect width="100" height="38" fill="white" transform="translate(0 6)"/>
</clipPath>
</defs>
</svg>
