<svg width="50" height="50" viewBox="0 0 50 50" fill="none" xmlns="http://www.w3.org/2000/svg">
<path d="M14.0905 20.849C14.0905 21.4733 14.157 21.9795 14.2734 22.3508C14.4065 22.722 14.5727 23.127 14.8056 23.5657C14.8887 23.7007 14.922 23.8357 14.922 23.9538C14.922 24.1225 14.8222 24.2913 14.606 24.46L13.5583 25.1687C13.4087 25.27 13.259 25.3206 13.126 25.3206C12.9597 25.3206 12.7934 25.2362 12.6271 25.0843C12.3943 24.8312 12.1947 24.5613 12.0284 24.2913C11.8621 24.0044 11.6958 23.6838 11.5129 23.2957C10.2158 24.8481 8.58614 25.6243 6.62386 25.6243C5.22698 25.6243 4.11281 25.2193 3.29796 24.4094C2.48312 23.5994 2.06738 22.5195 2.06738 21.1696C2.06738 19.7353 2.56627 18.571 3.58066 17.6935C4.59506 16.8161 5.94205 16.3774 7.65489 16.3774C8.22029 16.3774 8.80232 16.428 9.41761 16.5123C10.0329 16.5967 10.6648 16.7317 11.33 16.8836V15.6518C11.33 14.3693 11.0639 13.475 10.5484 12.9519C10.0163 12.4288 9.11828 12.1757 7.83781 12.1757C7.25578 12.1757 6.65712 12.2432 6.04183 12.3951C5.42654 12.5469 4.82788 12.7326 4.24584 12.9688C3.97977 13.0869 3.78022 13.1544 3.66381 13.1882C3.54741 13.2219 3.46426 13.2388 3.39774 13.2388C3.16493 13.2388 3.04852 13.07 3.04852 12.7157V11.8889C3.04852 11.6189 3.08178 11.4164 3.16493 11.2983C3.24808 11.1802 3.39774 11.062 3.63055 10.9439C4.21258 10.6402 4.91102 10.3871 5.72587 10.1846C6.54071 9.96522 7.40544 9.86398 8.32006 9.86398C10.299 9.86398 11.7457 10.3196 12.677 11.2308C13.5916 12.142 14.0572 13.5256 14.0572 15.3818V20.849H14.0905ZM7.33893 23.4138C7.8877 23.4138 8.4531 23.3126 9.05176 23.1101C9.65042 22.9076 10.1826 22.5364 10.6316 22.0302C10.8976 21.7095 11.0972 21.3552 11.197 20.9502C11.2967 20.5452 11.3633 20.0559 11.3633 19.4822V18.7735C10.881 18.6553 10.3655 18.5541 9.83335 18.4866C9.3012 18.4191 8.78569 18.3854 8.27018 18.3854C7.156 18.3854 6.34116 18.6047 5.79238 19.0603C5.24361 19.5159 4.97754 20.1571 4.97754 21.0008C4.97754 21.7939 5.17709 22.3845 5.59283 22.7895C5.99194 23.2113 6.57397 23.4138 7.33893 23.4138ZM20.6924 25.2362C20.3931 25.2362 20.1935 25.1856 20.0605 25.0675C19.9274 24.9662 19.811 24.73 19.7113 24.4094L15.8033 11.3658C15.7036 11.0283 15.6537 10.8089 15.6537 10.6908C15.6537 10.4208 15.7867 10.269 16.0528 10.269H17.6825C17.9984 10.269 18.2146 10.3196 18.331 10.4377C18.464 10.5389 18.5638 10.7752 18.6636 11.0958L21.4573 22.2664L24.0515 11.0958C24.1347 10.7583 24.2345 10.5389 24.3675 10.4377C24.5005 10.3365 24.7334 10.269 25.0327 10.269H26.363C26.679 10.269 26.8952 10.3196 27.0282 10.4377C27.1613 10.5389 27.2777 10.7752 27.3442 11.0958L29.9716 22.4014L32.8485 11.0958C32.9483 10.7583 33.0647 10.5389 33.1811 10.4377C33.3142 10.3365 33.5303 10.269 33.8297 10.269H35.3762C35.6423 10.269 35.792 10.4039 35.792 10.6908C35.792 10.7752 35.7753 10.8595 35.7587 10.9608C35.7421 11.062 35.7088 11.197 35.6423 11.3826L31.6346 24.4263C31.5348 24.7637 31.4184 24.9831 31.2854 25.0843C31.1523 25.1856 30.9361 25.2531 30.6534 25.2531H29.2233C28.9073 25.2531 28.6912 25.2025 28.5581 25.0843C28.4251 24.9662 28.3087 24.7469 28.2422 24.4094L25.6646 13.5256L23.1037 24.3925C23.0205 24.73 22.9207 24.9494 22.7877 25.0675C22.6547 25.1856 22.4219 25.2362 22.1225 25.2362H20.6924ZM42.0613 25.6918C41.1965 25.6918 40.3318 25.5906 39.5003 25.3881C38.6688 25.1856 38.0203 24.9662 37.5879 24.7131C37.3219 24.5613 37.1389 24.3925 37.0724 24.2406C37.0059 24.0888 36.9726 23.92 36.9726 23.7682V22.9076C36.9726 22.5532 37.1057 22.3845 37.3551 22.3845C37.4549 22.3845 37.5547 22.4014 37.6545 22.4351C37.7542 22.4689 37.9039 22.5364 38.0702 22.6039C38.6356 22.857 39.2509 23.0595 39.8994 23.1945C40.5646 23.3295 41.2132 23.3969 41.8783 23.3969C42.926 23.3969 43.7408 23.2113 44.3062 22.8401C44.8716 22.4689 45.171 21.9289 45.171 21.2371C45.171 20.7646 45.0213 20.3765 44.722 20.0559C44.4226 19.7353 43.8572 19.4484 43.0424 19.1784L40.6311 18.4191C39.4172 18.031 38.5192 17.4573 37.9704 16.698C37.4216 15.9555 37.1389 15.1287 37.1389 14.2512C37.1389 13.5425 37.2886 12.9182 37.5879 12.3782C37.8873 11.8382 38.2864 11.3658 38.7853 10.9945C39.2841 10.6064 39.8495 10.3196 40.5147 10.1171C41.1799 9.9146 41.8783 9.83023 42.61 9.83023C42.9759 9.83023 43.3584 9.8471 43.7242 9.89773C44.1067 9.94835 44.4559 10.0158 44.8051 10.0833C45.1377 10.1677 45.4537 10.2521 45.753 10.3533C46.0523 10.4546 46.2851 10.5558 46.4514 10.6571C46.6843 10.7921 46.8506 10.927 46.9503 11.0789C47.0501 11.2139 47.1 11.3995 47.1 11.6358V12.4288C47.1 12.7832 46.967 12.9688 46.7175 12.9688C46.5845 12.9688 46.3683 12.9013 46.0856 12.7663C45.1377 12.3276 44.0734 12.1082 42.8927 12.1082C41.9449 12.1082 41.1965 12.2601 40.681 12.5807C40.1655 12.9013 39.8994 13.3906 39.8994 14.0825C39.8994 14.555 40.0657 14.9599 40.3983 15.2805C40.7309 15.6011 41.3462 15.9218 42.2276 16.2086L44.5889 16.9679C45.7863 17.356 46.651 17.896 47.1665 18.5878C47.682 19.2797 47.9315 20.0728 47.9315 20.9502C47.9315 21.6758 47.7818 22.3339 47.4991 22.9076C47.1998 23.4813 46.8007 23.9875 46.2851 24.3925C45.7696 24.8144 45.1543 25.1181 44.4393 25.3375C43.6909 25.5737 42.9094 25.6918 42.0613 25.6918Z" fill="#252F3E"/>
<path fill-rule="evenodd" clip-rule="evenodd" d="M45.2042 33.8926C39.7331 37.993 31.7842 40.1697 24.9495 40.1697C15.371 40.1697 6.74026 36.5755 0.221507 30.6021C-0.294006 30.1297 0.171619 29.4885 0.786909 29.8597C7.83781 34.0107 16.535 36.5249 25.5316 36.5249C31.6013 36.5249 38.2697 35.2425 44.406 32.6101C45.3206 32.1883 46.1022 33.2176 45.2042 33.8926Z" fill="#FF9900"/>
<path fill-rule="evenodd" clip-rule="evenodd" d="M47.4825 31.2602C46.784 30.349 42.8595 30.8215 41.0801 31.0409C40.548 31.1084 40.4648 30.6359 40.9471 30.2815C44.0734 28.0542 49.2119 28.6954 49.8106 29.4378C50.4093 30.1972 49.6443 35.4112 46.7175 37.9086C46.2685 38.2967 45.8362 38.0942 46.0357 37.588C46.7009 35.9175 48.1809 32.1546 47.4825 31.2602Z" fill="#FF9900"/>
</svg>
