<svg width="50" height="50" viewBox="0 0 50 50" fill="none" xmlns="http://www.w3.org/2000/svg">
<g clip-path="url(#clip0_3708_35077)">
<path d="M11.3125 45.4656L0.435938 26.6265C-0.145312 25.6203 -0.145312 24.3797 0.435938 23.3734L11.3125 4.53513C11.893 3.52966 12.9648 2.91013 14.125 2.90857H35.8883C37.0445 2.91404 38.1109 3.53357 38.6891 4.53513L49.5641 23.3734C50.1453 24.3797 50.1453 25.6203 49.5641 26.6265L38.6875 45.4656C38.107 46.4711 37.0352 47.0906 35.875 47.0922H14.1172C12.9586 47.0883 11.8906 46.4687 11.3102 45.4656H11.3125Z" fill="#4386FA"/>
<path opacity="0.1" d="M31.7945 18.9336C31.7945 18.9336 34.8179 26.1859 30.6961 30.2969C26.5742 34.4078 19.0687 31.7766 19.0687 31.7766L34.3359 47.0859H35.8859C37.0468 47.0844 38.1187 46.4641 38.6984 45.4594L45.8984 32.9922L31.7945 18.9336Z" fill="black"/>
<path d="M35.3648 33.7734L32.0312 30.432C31.995 30.3948 31.9534 30.3632 31.9078 30.3383C33.3258 28.5118 33.994 26.2134 33.7765 23.9114C33.5589 21.6094 32.4718 19.477 30.7367 17.9485C29.0016 16.4201 26.7491 15.6107 24.438 15.6852C22.127 15.7597 19.9312 16.7126 18.2982 18.3496C16.6652 19.9866 15.7178 22.1847 15.6489 24.4959C15.5801 26.8072 16.395 29.0577 17.9277 30.789C19.4604 32.5204 21.5955 33.6022 23.8981 33.8141C26.2006 34.026 28.4973 33.3521 30.3203 31.9297C30.3441 31.9727 30.3738 32.0121 30.4086 32.0469L33.75 35.3883C33.8481 35.4863 33.9812 35.5414 34.1199 35.5414C34.2586 35.5414 34.3917 35.4863 34.4898 35.3883L35.3648 34.5133C35.4629 34.4151 35.5179 34.2821 35.5179 34.1433C35.5179 34.0046 35.4629 33.8716 35.3648 33.7734ZM24.7187 31.6125C23.3667 31.6126 22.0449 31.2118 20.9206 30.4607C19.7963 29.7097 18.92 28.642 18.4025 27.3929C17.885 26.1438 17.7496 24.7692 18.0133 23.4431C18.2771 22.117 18.9282 20.8989 19.8842 19.9428C20.8403 18.9867 22.0584 18.3357 23.3845 18.0719C24.7106 17.8082 26.0852 17.9436 27.3343 18.4611C28.5835 18.9786 29.6511 19.8549 30.4022 20.9792C31.1532 22.1035 31.5541 23.4252 31.5539 24.7773C31.5537 26.5901 30.8335 28.3285 29.5517 29.6103C28.2699 30.8921 26.5315 31.6123 24.7187 31.6125ZM20.3492 24.4125V27.2375C20.7844 28.0055 21.4141 28.6461 22.1758 29.093V24.3953L20.3492 24.4125ZM23.7672 22.0703V29.7047C24.371 29.8159 24.99 29.8159 25.5937 29.7047V22.0703H23.7672ZM29.0516 27.2312V25.5578H27.2266V29.0734C27.9872 28.6277 28.6171 27.9897 29.0531 27.2234L29.0516 27.2312Z" fill="white"/>
</g>
<defs>
<clipPath id="clip0_3708_35077">
<rect width="50" height="50" fill="white"/>
</clipPath>
</defs>
</svg>
