<svg width="30" height="30" viewBox="0 0 30 30" fill="none" xmlns="http://www.w3.org/2000/svg">
<path fill-rule="evenodd" clip-rule="evenodd" d="M3.14687 11.1475H28.6215L22.1763 4.30424V8.07979H3.76111V4.93327C3.76111 3.67487 4.06805 3.36018 5.29583 3.36018H24.1715C25.3993 3.36018 26.7805 3.67487 26.7805 4.93327V6.03467L29.0819 8.0013V4.85477C29.0819 2.33762 26.6267 0.921875 24.2479 0.921875H5.29548C2.84028 0.921875 1.45903 2.33762 1.45903 4.85477V11.1475H2.91701H3.14687ZM26.3194 12.7209H0.921875L7.59756 18.1484V15.0807H26.7798V17.519C26.7798 18.7778 25.3985 20.5867 24.1708 20.5867H5.29548C4.0677 20.5867 3.76075 18.7774 3.76075 17.519V16.418L1.45867 14.4513V17.5979C1.45867 20.115 2.83992 22.239 5.29512 22.239H9.43851L18.8 29.0819L18.1093 22.2386H24.2479C26.7031 22.2386 29.0819 20.115 29.0819 17.5979V12.7994H26.7031H26.3194V12.7209Z" fill="#0078D7"/>
</svg>
