<svg width="50" height="50" viewBox="0 0 50 50" fill="none" xmlns="http://www.w3.org/2000/svg">
<g clip-path="url(#clip0_3701_45463)">
<path d="M34.1392 35.6935L34.3945 34.832C34.6976 33.8079 34.5854 32.8628 34.0747 32.1661C33.5974 31.5252 32.8194 31.149 31.8672 31.1049L13.8418 30.882C13.7852 30.8812 13.7297 30.8671 13.68 30.8409C13.6302 30.8148 13.5877 30.7773 13.556 30.7316C13.5244 30.686 13.5046 30.6336 13.4982 30.579C13.4919 30.5243 13.4992 30.4689 13.5196 30.4176C13.5502 30.3316 13.6062 30.2563 13.6804 30.2009C13.7547 30.1456 13.844 30.1127 13.9373 30.1064L32.1369 29.8742C34.2847 29.779 36.6331 28.0745 37.4516 25.9939L38.4874 23.3559C38.5168 23.2819 38.5314 23.2031 38.5304 23.1237C38.5291 23.0816 38.5243 23.0397 38.516 22.9983C37.951 20.5446 36.5773 18.3379 34.6042 16.714C32.6311 15.0901 30.1667 14.1382 27.5862 14.003C25.0057 13.8679 22.4505 14.5569 20.3097 15.9653C18.1688 17.3737 16.5597 19.4243 15.7271 21.8047C14.8434 21.1656 13.778 20.8082 12.6772 20.7817C11.5764 20.7552 10.4941 21.0608 9.57894 21.6567C8.66378 22.2526 7.96057 23.1094 7.56584 24.1096C7.17111 25.1099 7.10421 26.2045 7.37432 27.2432C6.30192 27.2702 5.24765 27.5185 4.28133 27.9719C3.31502 28.4252 2.45873 29.0731 1.76917 29.8727C1.07961 30.6723 0.572533 31.6054 0.281517 32.6101C-0.00949923 33.6148 -0.0778083 34.6681 0.0811142 35.7004C0.092612 35.7819 0.13395 35.8566 0.197527 35.9108C0.261103 35.965 0.342645 35.995 0.42716 35.9954H33.7167C33.8112 35.9963 33.9035 35.9674 33.9797 35.9129C34.0558 35.8585 34.1118 35.7815 34.1392 35.6935Z" fill="#F4801F"/>
<path d="M40.1461 23.5556C39.987 23.5556 39.8199 23.5602 39.6449 23.5695C39.6186 23.5703 39.5927 23.5758 39.5685 23.5858C39.5249 23.5998 39.4856 23.6242 39.4539 23.6566C39.4223 23.689 39.3994 23.7285 39.3872 23.7716L38.6712 26.1541C38.3657 27.1781 38.4779 28.1233 38.991 28.8199C39.2503 29.1495 39.584 29.4167 39.9664 29.6007C40.3488 29.7848 40.7696 29.8807 41.1962 29.8811L45.0408 30.1133C45.0946 30.1149 45.1472 30.1288 45.1945 30.1538C45.2417 30.1788 45.2823 30.2143 45.3129 30.2573C45.3453 30.3033 45.366 30.3562 45.373 30.4116C45.3801 30.4669 45.3734 30.5231 45.3535 30.5754C45.3228 30.6614 45.2669 30.7367 45.1927 30.7921C45.1184 30.8474 45.0291 30.8803 44.9358 30.8866L40.9432 31.1188C38.7738 31.2164 36.4374 32.9185 35.6189 34.9968L35.3301 35.7306C35.318 35.7613 35.3136 35.7944 35.3171 35.8271C35.3206 35.8598 35.332 35.8912 35.3504 35.9188C35.3688 35.9464 35.3936 35.9694 35.4228 35.986C35.4521 36.0025 35.4849 36.0121 35.5186 36.0139H49.2721C49.356 36.0159 49.438 35.99 49.5048 35.9407C49.5716 35.8913 49.6191 35.8213 49.6397 35.7422C50.0497 34.3165 50.1152 32.8179 49.8312 31.3635C49.5472 29.9091 48.9214 28.5383 48.0026 27.3582C47.0838 26.1782 45.897 25.221 44.5349 24.5613C43.1728 23.9016 41.6723 23.5574 40.1509 23.5556H40.1461Z" fill="#F9AB41"/>
</g>
<defs>
<clipPath id="clip0_3701_45463">
<rect width="50" height="22" fill="white" transform="translate(0 14)"/>
</clipPath>
</defs>
</svg>
