<svg width="100" height="50" viewBox="0 0 100 50" fill="none" xmlns="http://www.w3.org/2000/svg">
<g clip-path="url(#clip0_3712_38947)">
<path d="M26.252 34.6463C25.5437 35.1276 24.4213 35.3429 23.2479 35.3429C19.5197 35.3429 17.4122 33.0196 17.4122 29.3193C17.4122 25.7449 19.5177 23.2449 23.2125 23.2449C24.3192 23.2449 25.424 23.448 26.2344 24.0572V25.619C25.424 25.0828 24.5253 24.7965 23.2125 24.7965C20.5537 24.7965 18.9663 26.6243 18.9663 29.3173C18.9663 32.0102 20.6067 33.8035 23.3008 33.8035C24.3232 33.8131 25.3327 33.5679 26.2442 33.0886L26.252 34.6463Z" fill="#20385B"/>
<path d="M27.345 30.678C27.345 27.9972 28.8638 26.0496 31.4539 26.0496C34.044 26.0496 35.5294 27.9972 35.5294 30.678C35.5294 33.3588 34.0264 35.349 31.4539 35.349C28.8814 35.349 27.345 33.3588 27.345 30.678ZM28.7951 30.678C28.7951 32.3758 29.6055 33.9132 31.4539 33.9132C33.3023 33.9132 34.0794 32.3758 34.0794 30.678C34.0794 28.9801 33.2847 27.4793 31.4539 27.4793C29.6232 27.4793 28.7912 28.9801 28.7912 30.678H28.7951Z" fill="#20385B"/>
<path d="M44.5909 35.1642H43.1055V29.7661C43.1055 28.1577 42.4835 27.4428 41.0687 27.4428C39.6952 27.4428 38.7376 28.3912 38.7376 30.1967V35.1642H37.2522V26.2283H38.7376V27.6946C39.0015 27.1868 39.396 26.7645 39.8773 26.4742C40.3586 26.1839 40.9081 26.0369 41.4651 26.0496C43.4508 26.0496 44.5909 27.4611 44.5909 29.9286V35.1642Z" fill="#20385B"/>
<path d="M48.7175 26.2283H50.9446V27.6499H48.7175V35.1642H47.2674V27.6499H45.8683V26.2283H47.2674V25.2454C47.2674 23.5841 48.1641 22.4569 50.0145 22.4569C50.353 22.4556 50.69 22.5041 51.0152 22.6011V24.0228C50.708 23.9626 50.3959 23.9327 50.0832 23.9334C49.1688 23.9334 48.7194 24.4878 48.7194 25.2921L48.7175 26.2283Z" fill="#20385B"/>
<path d="M54.8651 35.2171C53.4484 35.2171 52.5497 34.5205 52.5497 32.8775V22.4935H54.0312V32.6988C54.0312 33.5111 54.5492 33.7873 55.1889 33.7873C55.3329 33.7897 55.477 33.7843 55.6206 33.7711V35.146C55.3724 35.2012 55.1188 35.2251 54.8651 35.2171Z" fill="#20385B"/>
<path d="M56.8842 26.2284H58.3696V31.6265C58.3696 33.235 58.9916 33.9499 60.4064 33.9499C61.7799 33.9499 62.7375 33.0014 62.7375 31.196V26.2284H64.2229V35.1643H62.7375V33.698C62.4736 34.2058 62.0791 34.6282 61.5978 34.9185C61.1165 35.2088 60.567 35.3557 60.01 35.3431C58.0243 35.3431 56.8842 33.9316 56.8842 31.464V26.2284Z" fill="#20385B"/>
<path d="M70.5942 35.3429C67.3664 35.3429 65.9496 33.4136 65.9496 30.6719C65.9496 27.9728 67.3997 26.0435 70.0252 26.0435C72.684 26.0435 73.7534 27.9566 73.7534 30.6719V31.3685H67.4527C67.6587 32.8876 68.6085 33.8705 70.6472 33.8705C71.5422 33.8704 72.4302 33.7075 73.2707 33.3892V34.8108C72.5643 35.2008 71.4753 35.3429 70.5942 35.3429ZM67.435 30.0626H72.2523C72.166 28.4013 71.4419 27.4529 69.9565 27.4529C68.3848 27.4468 67.5901 28.4988 67.435 30.0524V30.0626Z" fill="#20385B"/>
<path d="M82.8542 35.1642H81.3688V29.7661C81.3688 28.1576 80.7487 27.4427 79.332 27.4427C77.9585 27.4427 77.0009 28.3912 77.0009 30.1966V35.1642H75.5155V26.2282H77.0009V27.6946C77.2652 27.1871 77.6597 26.765 78.1409 26.4747C78.6222 26.1845 79.1715 26.0373 79.7284 26.0495C81.7141 26.0495 82.8542 27.461 82.8542 29.9285V35.1642Z" fill="#20385B"/>
<path d="M91.0229 34.9328C90.5048 35.2171 89.7101 35.3389 88.9154 35.3389C85.8426 35.3389 84.4023 33.4096 84.4023 30.6679C84.4023 27.9688 85.8367 26.0395 88.9154 26.0395C89.6231 26.0157 90.3264 26.1624 90.9699 26.468V27.8896C90.3606 27.5923 89.6929 27.4456 89.0194 27.4611C86.7747 27.4611 85.8603 28.9274 85.8603 30.6598C85.8603 32.3921 86.7923 33.8584 89.0528 33.8584C89.7203 33.8766 90.3854 33.7679 91.015 33.5375L91.0229 34.9328Z" fill="#20385B"/>
<path d="M96.8409 35.3429C93.613 35.3429 92.1963 33.4136 92.1963 30.6719C92.1963 27.9728 93.6464 26.0435 96.2718 26.0435C98.9306 26.0435 100 27.9566 100 30.6719V31.3685H93.6993C93.8956 32.8876 94.8551 33.8705 96.8938 33.8705C97.7888 33.8704 98.6768 33.7075 99.5173 33.3892V34.8108C98.809 35.2008 97.7219 35.3429 96.8409 35.3429ZM93.6817 30.0626H98.4989C98.4126 28.4013 97.6866 27.4529 96.2031 27.4529C94.6314 27.4468 93.8367 28.4988 93.6817 30.0524V30.0626Z" fill="#20385B"/>
<path d="M0.303671 32.5242C0.176127 32.7394 0.0328854 32.9893 -0.078961 33.1883C-0.131307 33.2798 -0.14686 33.389 -0.122276 33.4923C-0.0976924 33.5956 -0.034935 33.6848 0.0525072 33.7407L2.60339 35.3654C2.64772 35.3937 2.69705 35.4126 2.74851 35.421C2.79997 35.4294 2.85253 35.4271 2.90312 35.4143C2.95372 35.4014 3.00133 35.3782 3.04319 35.3461C3.08505 35.314 3.12031 35.2736 3.14692 35.2273C3.247 35.0506 3.37847 34.8211 3.52171 34.5754C4.53225 32.8491 5.55064 33.0603 7.38139 33.9661L9.91069 35.211C9.9581 35.2344 10.0096 35.2477 10.062 35.2501C10.1145 35.2525 10.1669 35.244 10.2161 35.225C10.2653 35.2061 10.3104 35.1771 10.3486 35.1398C10.3868 35.1025 10.4174 35.0577 10.4385 35.008L11.6531 32.1647C11.6944 32.0671 11.6969 31.9566 11.6602 31.8571C11.6235 31.7576 11.5505 31.677 11.4569 31.6326C10.9232 31.3727 9.86163 30.8527 8.90603 30.3775C5.46038 28.6431 2.53864 28.7569 0.303671 32.5242Z" fill="url(#paint0_linear_3712_38947)"/>
<path d="M11.7415 26.0658C11.869 25.8505 12.0123 25.5987 12.1339 25.4017C12.1861 25.3099 12.2013 25.2006 12.1764 25.0972C12.1514 24.9939 12.0883 24.9049 12.0005 24.8493L9.44961 23.2246C9.40536 23.1966 9.35618 23.1779 9.30493 23.1697C9.25367 23.1615 9.20135 23.1639 9.15099 23.1767C9.10063 23.1896 9.05323 23.2126 9.01153 23.2445C8.96982 23.2764 8.93465 23.3166 8.90804 23.3627C8.806 23.5394 8.67453 23.7688 8.53129 24.0146C7.52075 25.7408 6.50432 25.5296 4.67161 24.6239L2.13446 23.385C2.08714 23.362 2.03586 23.349 1.98361 23.3467C1.93137 23.3445 1.87922 23.3531 1.83023 23.372C1.78124 23.3909 1.73639 23.4198 1.69833 23.4569C1.66027 23.494 1.62976 23.5386 1.60858 23.5881L0.393972 26.4314C0.352725 26.529 0.350179 26.6394 0.386882 26.739C0.423586 26.8385 0.496602 26.9191 0.590194 26.9634C1.12392 27.2234 2.18744 27.7413 3.14108 28.2185C6.58477 29.9387 9.50651 29.825 11.7415 26.0658Z" fill="url(#paint1_linear_3712_38947)"/>
<path d="M37.7173 17.6457C37.7173 16.8333 37.2169 16.4779 36.2692 16.2241C35.6805 16.0697 35.5373 15.9377 35.5373 15.7326C35.5373 15.4889 35.7452 15.365 36.1357 15.365C36.6148 15.3835 37.0839 15.5118 37.5093 15.7407V14.7253C37.0918 14.523 36.6359 14.4196 36.175 14.4227C35.1428 14.4227 34.5699 14.9365 34.5699 15.7631C34.5699 16.5551 35.0761 16.9593 35.9434 17.1583C36.5419 17.2964 36.7283 17.4 36.7283 17.666C36.7283 17.8691 36.5851 18.0356 36.1397 18.0356C35.5824 18.0238 35.0375 17.8629 34.5581 17.5685V18.6408C35.045 18.8939 35.5831 19.0234 36.1279 19.0186C37.2012 19.0186 37.7173 18.4723 37.7173 17.6457Z" fill="#0052CC"/>
<path d="M49.573 14.4876V18.9556H50.4992V15.5518L50.8916 16.4535L52.1867 18.9536H53.3405V14.4856H52.4241V17.3695L52.0689 16.5368L51.025 14.4876H49.573Z" fill="#0052CC"/>
<path d="M43.7511 14.4877H42.7465V18.9556H43.7511V14.4877Z" fill="#0052CC"/>
<path d="M26.7877 14.4877V18.9556H28.8402L29.164 17.9889H27.7904V14.4877H26.7877Z" fill="#0052CC"/>
<path d="M22.72 14.4877V15.4645H23.8326V18.9536H24.8353V15.4645H26.0283V14.4877H22.72Z" fill="#0052CC"/>
<path d="M21.2621 14.4877H19.9396L18.4365 18.9556H19.5844L19.7983 18.2001C20.0602 18.2804 20.3317 18.3221 20.6048 18.324C20.8781 18.3249 21.15 18.2831 21.4112 18.2001L21.6251 18.9556H22.773L21.2621 14.4877ZM20.5969 17.402C20.4098 17.4002 20.2238 17.3729 20.0436 17.3208L20.5969 15.365L21.1503 17.3208C20.9689 17.3738 20.7815 17.4012 20.593 17.402H20.5969Z" fill="#0052CC"/>
<path d="M32.3957 14.4877H31.0732L29.5682 18.9556H30.7161L30.93 18.2001C31.1925 18.2805 31.4646 18.3222 31.7384 18.324C32.0117 18.3249 32.2836 18.2831 32.5449 18.2001L32.7587 18.9556H33.9066L32.3957 14.4877ZM31.7305 17.402C31.5435 17.3999 31.3575 17.3726 31.1772 17.3208L31.7305 15.365L32.2858 17.3208C32.1049 17.3727 31.9183 17.4 31.7305 17.402Z" fill="#0052CC"/>
<path d="M47.3596 14.4877H46.0371L44.534 18.9556H45.6819L45.8938 18.2001C46.1564 18.2802 46.4285 18.3218 46.7022 18.324C46.9756 18.3249 47.2474 18.2831 47.5087 18.2001L47.7226 18.9556H48.8705L47.3596 14.4877ZM46.7022 17.402C46.5151 17.4002 46.3291 17.3729 46.1489 17.3208L46.7022 15.365L47.2556 17.3208C47.0733 17.3727 46.8854 17.4 46.6964 17.402H46.7022Z" fill="#0052CC"/>
<path d="M41.7143 17.6457C41.7143 16.8334 41.2139 16.478 40.2662 16.2241C39.6775 16.0697 39.5343 15.9377 39.5343 15.7326C39.5343 15.4889 39.7423 15.365 40.1229 15.365C40.602 15.3835 41.0711 15.5119 41.4965 15.7407V14.7253C41.0742 14.5206 40.6127 14.4172 40.1465 14.4227C39.1143 14.4227 38.5414 14.9365 38.5414 15.7631C38.5414 16.5551 39.0476 16.9593 39.9149 17.1583C40.5134 17.2964 40.6998 17.4 40.6998 17.666C40.6998 17.8691 40.5546 18.0357 40.1111 18.0357C39.5539 18.0238 39.009 17.8629 38.5296 17.5685V18.6409C39.0165 18.894 39.5546 19.0234 40.0994 19.0186C41.1982 19.0186 41.7143 18.4723 41.7143 17.6457Z" fill="#0052CC"/>
</g>
<defs>
<linearGradient id="paint0_linear_3712_38947" x1="11.5766" y1="36.1981" x2="3.72961" y2="31.8395" gradientUnits="userSpaceOnUse">
<stop stop-color="#0050D3"/>
<stop offset="0.94" stop-color="#007FFC"/>
<stop offset="1" stop-color="#0082FF"/>
</linearGradient>
<linearGradient id="paint1_linear_3712_38947" x1="0.468536" y1="22.3858" x2="8.31545" y2="26.7424" gradientUnits="userSpaceOnUse">
<stop stop-color="#0050D3"/>
<stop offset="0.94" stop-color="#007FFC"/>
<stop offset="1" stop-color="#0082FF"/>
</linearGradient>
<clipPath id="clip0_3712_38947">
<rect width="100" height="50" fill="white"/>
</clipPath>
</defs>
</svg>
