<svg width="100" height="50" viewBox="0 0 100 50" fill="none" xmlns="http://www.w3.org/2000/svg">
<g clip-path="url(#clip0_3702_45649)">
<path fill-rule="evenodd" clip-rule="evenodd" d="M12.6667 29.0134L11.3501 27.6801C10.85 28.1467 10.3445 28.5163 9.83315 28.7886C9.32226 29.0607 8.71108 29.1967 8.00006 29.1967C7.44442 29.1967 6.9306 29.0885 6.45838 28.8718C5.98618 28.655 5.57782 28.358 5.23333 27.98C4.88883 27.6023 4.62237 27.1608 4.43325 26.6553C4.24438 26.1498 4.15016 25.6079 4.15016 25.0305C4.15016 24.4526 4.24438 23.9136 4.43325 23.4136C4.62237 22.9137 4.88883 22.4777 5.23333 22.1054C5.57782 21.7333 5.98618 21.4389 6.45838 21.2222C6.9306 21.0056 7.44442 20.8973 8.00006 20.8973C8.66655 20.8973 9.2611 21.0306 9.78323 21.2973C10.3056 21.5637 10.8001 21.9138 11.2664 22.3471L12.5833 20.8307C12.3056 20.564 12.0112 20.3196 11.6999 20.0973C11.389 19.8751 11.0501 19.6833 10.6834 19.5223C10.3166 19.3611 9.91388 19.2363 9.47494 19.1475C9.036 19.0584 8.54985 19.0139 8.0167 19.0139C7.12781 19.0139 6.31672 19.1724 5.58343 19.489C4.84993 19.8056 4.21671 20.2389 3.68334 20.7889C3.14996 21.3389 2.73621 21.9804 2.44163 22.7138C2.14706 23.4471 2 24.2305 2 25.0638C2 25.9081 2.14998 26.6969 2.44995 27.4303C2.74992 28.1633 3.1639 28.7994 3.69165 29.3384C4.21941 29.8772 4.84431 30.3021 5.56658 30.6133C6.28884 30.9244 7.07788 31.0799 7.93327 31.0799C8.47789 31.0799 8.97507 31.0326 9.42502 30.9382C9.87497 30.8437 10.289 30.7051 10.6667 30.5218C11.0445 30.3383 11.3973 30.1216 11.7252 29.8717C12.0528 29.6217 12.3667 29.3355 12.6667 29.0134Z" fill="black"/>
<path fill-rule="evenodd" clip-rule="evenodd" d="M39.1127 22.3173C39.1127 21.9292 39.2785 21.5994 39.6102 21.328C39.9416 21.0561 40.4058 20.9204 41.0025 20.9204C41.533 20.9204 42.0579 21.0231 42.5772 21.2281C43.0967 21.4332 43.6215 21.7298 44.1518 22.1176L45.2458 20.5713C44.6494 20.0946 44.0112 19.7316 43.3315 19.4824C42.6516 19.2329 41.8866 19.1082 41.0356 19.1082C40.461 19.1082 39.9306 19.1885 39.4471 19.3493C38.9608 19.51 38.5468 19.7399 38.2012 20.0392C37.8559 20.3386 37.5851 20.696 37.3862 21.1117C37.1901 21.5274 37.0906 21.9902 37.0906 22.5001C37.0906 23.0432 37.1762 23.5034 37.3475 23.8802C37.5189 24.2571 37.7702 24.5786 38.0963 24.8447C38.4222 25.1107 38.8283 25.3324 39.3088 25.5098C39.7924 25.6873 40.3423 25.8477 40.9638 25.9919C41.5055 26.1249 41.9444 26.2524 42.2844 26.3742C42.6214 26.4963 42.8867 26.6266 43.0828 26.7649C43.2761 26.9036 43.4089 27.0559 43.4806 27.2222C43.5524 27.3887 43.5883 27.5768 43.5883 27.7875C43.5883 28.2423 43.4033 28.6025 43.0332 28.8683C42.6628 29.1347 42.1628 29.2674 41.533 29.2674C40.8037 29.2674 40.1516 29.1371 39.5771 28.8767C39.0023 28.6162 38.4333 28.2423 37.8695 27.7543L36.6431 29.2176C37.3393 29.8493 38.0963 30.3178 38.914 30.6227C39.7318 30.9275 40.5881 31.0799 41.4831 31.0799C42.091 31.0799 42.6492 31.0023 43.1575 30.8472C43.663 30.6918 44.0995 30.4645 44.4586 30.1652C44.8205 29.866 45.1023 29.5003 45.3067 29.068C45.5084 28.6357 45.6106 28.1424 45.6106 27.5881C45.6106 27.1004 45.5306 26.6763 45.3703 26.3161C45.2098 25.9558 44.9724 25.6401 44.6631 25.3683C44.3535 25.0968 43.9613 24.8666 43.4916 24.6782C43.0222 24.49 42.4805 24.3181 41.8727 24.1629C41.3174 24.0299 40.8616 23.9022 40.4998 23.7804C40.1406 23.6586 39.8588 23.5256 39.6515 23.3813C39.4471 23.2373 39.3064 23.0821 39.2288 22.9158C39.1516 22.7494 39.1127 22.5499 39.1127 22.3173Z" fill="black"/>
<path fill-rule="evenodd" clip-rule="evenodd" d="M61.8036 22.482V30.797H63.8289V19.2024H61.6539L58.1179 24.6851L54.5818 19.2024H52.4071V30.797H54.4324V22.5151L58.0679 27.9482H58.1345L61.8036 22.482Z" fill="black"/>
<path fill-rule="evenodd" clip-rule="evenodd" d="M80.8453 25.0638C80.8453 25.6304 80.7482 26.1664 80.5542 26.6721C80.3602 27.1775 80.0913 27.6163 79.7473 27.9884C79.4037 28.3605 78.9904 28.655 78.5081 28.8718C78.0256 29.0886 77.4961 29.1967 76.9195 29.1967C76.3426 29.1967 75.8103 29.0856 75.3224 28.8635C74.8344 28.6412 74.4156 28.3412 74.0664 27.9636C73.7171 27.5857 73.4453 27.1441 73.2511 26.6386C73.0573 26.1332 72.9601 25.5969 72.9601 25.0305C72.9601 24.4636 73.0573 23.9276 73.2511 23.4221C73.4453 22.9164 73.7142 22.4778 74.0581 22.1054C74.4019 21.7333 74.8151 21.4389 75.2974 21.2222C75.7798 21.0057 76.3095 20.8973 76.886 20.8973C77.4629 20.8973 77.9953 21.0084 78.4831 21.2307C78.9709 21.4529 79.3897 21.7528 79.7389 22.1306C80.0884 22.5081 80.3602 22.9499 80.5542 23.4554C80.7482 23.9609 80.8453 24.4971 80.8453 25.0638ZM82.9912 25.0305C82.9912 24.2082 82.8415 23.4304 82.5421 22.697C82.2429 21.964 81.8267 21.3249 81.2946 20.7806C80.7622 20.236 80.1245 19.8056 79.3812 19.489C78.6383 19.1724 77.8177 19.0139 76.9195 19.0139C76.0211 19.0139 75.2005 19.1751 74.4573 19.4973C73.7142 19.8196 73.071 20.2555 72.5276 20.8055C71.9839 21.3555 71.5629 21.9972 71.2633 22.7305C70.9638 23.4637 70.8142 24.2415 70.8142 25.0638C70.8142 25.8858 70.9638 26.6633 71.2633 27.3968C71.5629 28.1302 71.9786 28.769 72.511 29.3134C73.0431 29.8578 73.681 30.2883 74.4241 30.6049C75.167 30.9215 75.9876 31.0799 76.886 31.0799C77.7842 31.0799 78.6051 30.9186 79.348 30.5967C80.0913 30.2745 80.7344 29.8384 81.278 29.2882C81.8214 28.7385 82.2429 28.0968 82.5421 27.3635C82.8415 26.6303 82.9912 25.8526 82.9912 25.0305Z" fill="black"/>
<path fill-rule="evenodd" clip-rule="evenodd" d="M91.5021 22.3173C91.5021 21.9292 91.6679 21.5994 91.9993 21.328C92.331 21.0561 92.795 20.9204 93.3919 20.9204C93.9222 20.9204 94.4473 21.0231 94.9666 21.2281C95.4858 21.4332 96.0107 21.7298 96.5413 22.1176L97.6353 20.5713C97.0382 20.0946 96.4007 19.7316 95.7207 19.4824C95.0413 19.2329 94.276 19.1082 93.425 19.1082C92.8504 19.1082 92.32 19.1885 91.8365 19.3493C91.3503 19.51 90.9362 19.7399 90.5906 20.0392C90.2453 20.3386 89.9747 20.696 89.7754 21.1117C89.5795 21.5274 89.48 21.9902 89.48 22.5001C89.48 23.0432 89.5656 23.5034 89.737 23.8802C89.9083 24.2571 90.1596 24.5786 90.4855 24.8447C90.8116 25.1107 91.2177 25.3324 91.6985 25.5098C92.1818 25.6873 92.7318 25.8477 93.3532 25.9919C93.8946 26.1249 94.3339 26.2524 94.6738 26.3742C95.0106 26.4963 95.2761 26.6266 95.4722 26.7649C95.6655 26.9036 95.7978 27.0559 95.87 27.2222C95.9422 27.3887 95.9778 27.5768 95.9778 27.7875C95.9778 28.2423 95.7922 28.6025 95.4226 28.8683C95.0523 29.1347 94.5522 29.2674 93.9222 29.2674C93.1929 29.2674 92.5408 29.1371 91.9665 28.8767C91.3919 28.6162 90.8227 28.2423 90.2589 27.7543L89.0325 29.2176C89.7285 29.8493 90.4855 30.3178 91.3034 30.6227C92.121 30.9275 92.9773 31.0799 93.8725 31.0799C94.4804 31.0799 95.0384 31.0023 95.5469 30.8472C96.0519 30.6918 96.4888 30.4645 96.8478 30.1652C97.2097 29.866 97.4919 29.5003 97.6963 29.068C97.8978 28.6357 98 28.1424 98 27.5881C98 27.1004 97.9194 26.6763 97.76 26.3161C97.5997 25.9558 97.3616 25.6401 97.0522 25.3683C96.7428 25.0968 96.351 24.8666 95.8813 24.6782C95.4114 24.49 94.8697 24.3181 94.2621 24.1629C93.7068 24.0299 93.251 23.9022 92.8892 23.7804C92.53 23.6586 92.2482 23.5256 92.0409 23.3813C91.8365 23.2373 91.6956 23.0821 91.6182 22.9158C91.541 22.7494 91.5021 22.5499 91.5021 22.3173Z" fill="black"/>
<path fill-rule="evenodd" clip-rule="evenodd" d="M26.5599 21.5236L21.0105 27.0656C20.939 26.9269 20.8744 26.7825 20.8165 26.6326C20.6228 26.129 20.5258 25.5948 20.5258 25.0305C20.5258 24.4658 20.6228 23.9318 20.8165 23.4282C21.0105 22.9245 21.2793 22.4874 21.6229 22.1165C21.9666 21.7458 22.3795 21.4526 22.8615 21.2366C23.3438 21.0209 23.873 20.9129 24.4493 20.9129C25.0257 20.9129 25.5578 21.0236 26.0452 21.2451C26.2265 21.3273 26.398 21.4201 26.5599 21.5236ZM26.0703 28.8573C25.588 29.0733 25.0589 29.1811 24.4826 29.1811C23.9062 29.1811 23.3741 29.0703 22.8864 28.8491C22.7054 28.7666 22.5338 28.6739 22.3721 28.5702L27.9213 23.0286C27.9929 23.167 28.0575 23.3113 28.1153 23.4614C28.3091 23.9649 28.4061 24.4992 28.4061 25.0637C28.4061 25.6281 28.3091 26.1621 28.1153 26.6659C27.9213 27.1695 27.6526 27.6065 27.3089 27.9772C26.9653 28.348 26.5525 28.6414 26.0703 28.8573ZM26.9099 30.5757C27.6526 30.2547 28.2954 29.8203 28.8385 29.2722C29.3815 28.7245 29.8026 28.0852 30.1018 27.3547C30.4013 26.6243 30.5509 25.8495 30.5509 25.0305C30.5509 24.2113 30.4013 23.4365 30.1018 22.7058C29.9244 22.2726 29.7059 21.8726 29.4466 21.5054L33.056 17.901L31.6218 16.4688L28.0014 20.0841C27.6764 19.8628 27.3235 19.6715 26.9431 19.51C26.2004 19.1946 25.3803 19.0367 24.4826 19.0367C23.5847 19.0367 22.7647 19.1973 22.022 19.5183C21.2793 19.8393 20.6363 20.2736 20.0933 20.8215C19.5503 21.3694 19.129 22.0087 18.8298 22.7392C18.5305 23.4697 18.3809 24.2445 18.3809 25.0637C18.3809 25.8827 18.5305 26.6572 18.8298 27.3879C19.0074 27.8213 19.2259 28.2214 19.4852 28.5887L15.8761 32.1928L17.3103 33.625L20.9304 30.0098C21.2555 30.2312 21.6083 30.4225 21.9888 30.5839C22.7315 30.8993 23.5515 31.0571 24.4493 31.0571C25.3471 31.0571 26.1672 30.8964 26.9099 30.5757Z" fill="black"/>
</g>
<defs>
<clipPath id="clip0_3702_45649">
<rect width="96" height="18" fill="white" transform="translate(2 16)"/>
</clipPath>
</defs>
</svg>
