<svg width="50" height="50" viewBox="0 0 50 50" fill="none" xmlns="http://www.w3.org/2000/svg">
<g clip-path="url(#clip0_3702_45554)">
<path d="M8.26562 43.2859L5 3.0755L44 3.15631L40.5469 43.2859L24.6472 47.9245L8.26562 43.2859Z" fill="#1B73BA"/>
<path d="M24.6472 44.0411V6.90509L40.7077 6.95896L37.8437 40.1846L24.6472 44.0411Z" fill="#1C88C7"/>
<path d="M36.7192 11.6517H12.0131L12.6824 16.5058H24.4063L12.8698 21.4952L13.5388 26.1877H30.5362L29.9204 32.7409L24.1653 33.8738L18.9459 32.5254L18.5443 28.8036H13.753L14.3952 36.5438L24.6739 39.4294L34.5246 36.2742L35.7826 21.1444H25.3696L36.7189 16.3981L36.7192 11.6517Z" fill="white"/>
</g>
<defs>
<clipPath id="clip0_3702_45554">
<rect width="39" height="45" fill="white" transform="translate(5 3)"/>
</clipPath>
</defs>
</svg>
