<svg width="44" height="44" viewBox="0 0 44 44" fill="none" xmlns="http://www.w3.org/2000/svg">
<path fill-rule="evenodd" clip-rule="evenodd" d="M34.87 26.8401L12.474 39.7761L10.318 36.0801L32.736 23.1221L34.87 26.8401Z" fill="#AECBFA"/>
<path fill-rule="evenodd" clip-rule="evenodd" d="M12.386 35.5521V9.68005H16.5V32.4501L12.386 35.5521Z" fill="#AECBFA"/>
<path fill-rule="evenodd" clip-rule="evenodd" d="M16.6321 16.9181L16.0601 11.7261L38.4781 24.6401L36.3441 28.3361L16.6321 16.9181Z" fill="#AECBFA"/>
<path fill-rule="evenodd" clip-rule="evenodd" d="M27.2581 18.1721L16.0601 11.7261L16.6321 16.9181L19.9541 18.8101C21.1458 19.2351 22.4152 19.3981 23.6757 19.288C24.9362 19.1779 26.1581 18.7973 27.2581 18.1721Z" fill="#4285F4"/>
<path fill-rule="evenodd" clip-rule="evenodd" d="M13.486 13.838C12.5705 12.2524 12.2039 10.4089 12.4431 8.5936C12.6823 6.77832 13.5139 5.09273 14.8089 3.79834C16.1039 2.50395 17.7899 1.67313 19.6053 1.43479C21.4207 1.19644 23.264 1.56389 24.8493 2.48013C26.4345 3.39637 27.673 4.81017 28.3727 6.50219C29.0724 8.1942 29.1941 10.0698 28.719 11.8381C28.2438 13.6063 27.1984 15.1683 25.7449 16.2818C24.2913 17.3952 22.511 17.9978 20.68 17.9961C19.2224 17.9903 17.7917 17.6035 16.5298 16.8741C15.2679 16.1447 14.2186 15.0981 13.486 13.838ZM24.2 7.67803C23.8454 7.06378 23.3356 6.5535 22.7216 6.19828C22.1077 5.84306 21.4113 5.65538 20.702 5.65403C20.1714 5.65113 19.6455 5.75313 19.1545 5.95415C18.6635 6.15518 18.2171 6.45128 17.8409 6.82541C17.4648 7.19955 17.1662 7.64436 16.9625 8.13425C16.7588 8.62415 16.654 9.14948 16.654 9.68004C16.613 10.2352 16.6869 10.7929 16.8712 11.3183C17.0555 11.8436 17.3462 12.3253 17.725 12.7332C18.1039 13.1411 18.5629 13.4664 19.0732 13.6889C19.5835 13.9114 20.1343 14.0263 20.691 14.0263C21.2477 14.0263 21.7984 13.9114 22.3088 13.6889C22.8191 13.4664 23.278 13.1411 23.6569 12.7332C24.0358 12.3253 24.3265 11.8436 24.5108 11.3183C24.6951 10.7929 24.769 10.2352 24.728 9.68004C24.7326 8.97769 24.5504 8.28674 24.2 7.67803Z" fill="#AECBFA"/>
<path fill-rule="evenodd" clip-rule="evenodd" d="M12.386 24.0681V35.5521L16.5 32.4501V28.8641C16.2215 27.8057 15.7066 26.8242 14.994 25.9935C14.2814 25.1628 13.3897 24.5045 12.386 24.0681Z" fill="#4285F4"/>
<path fill-rule="evenodd" clip-rule="evenodd" d="M24.9261 32.5822L34.8701 26.8401L30.0081 24.6401L27.2581 26.4001C25.7253 28.1345 24.8939 30.3778 24.9261 32.6922V32.5822Z" fill="#4285F4"/>
<path fill-rule="evenodd" clip-rule="evenodd" d="M1.12199 36.7401C0.573941 35.7959 0.217695 34.7527 0.07369 33.6705C-0.0703154 32.5883 0.000752567 31.4883 0.282817 30.4336C0.564882 29.379 1.05239 28.3904 1.71739 27.5245C2.38238 26.6587 3.21178 25.9326 4.158 25.388C5.09826 24.8367 6.13918 24.4788 7.21966 24.3352C8.30013 24.1917 9.39841 24.2654 10.45 24.552C11.7743 24.9011 12.992 25.5719 13.9947 26.5047C14.9974 27.4376 15.7543 28.6036 16.198 29.8993C16.6416 31.1951 16.7584 32.5803 16.538 33.932C16.3175 35.2837 15.7666 36.56 14.9343 37.6476C14.1019 38.7352 13.0138 39.6004 11.7666 40.1663C10.5194 40.7322 9.15179 40.9813 7.78517 40.8915C6.41855 40.8017 5.09527 40.3758 3.93286 39.6516C2.77045 38.9273 1.80491 37.9272 1.12199 36.7401ZM11.792 30.5581C11.5404 30.0821 11.1939 29.6628 10.7739 29.326C10.3539 28.9892 9.86927 28.7422 9.35001 28.6C8.57846 28.3901 7.76187 28.4146 7.00432 28.6705C6.24678 28.9264 5.58259 29.4021 5.09643 30.037C4.61028 30.6718 4.32417 31.437 4.27458 32.2351C4.22499 33.0332 4.41417 33.8279 4.818 34.5181C5.08379 34.976 5.43718 35.3771 5.85798 35.6984C6.27879 36.0198 6.75876 36.2551 7.27051 36.3909C7.78225 36.5268 8.31574 36.5605 8.84052 36.4902C9.3653 36.4199 9.87109 36.2469 10.329 35.9811C10.7869 35.7153 11.188 35.3619 11.5094 34.9411C11.8307 34.5203 12.066 34.0403 12.2019 33.5286C12.3377 33.0168 12.3715 32.4833 12.3011 31.9585C12.2308 31.4338 12.0578 30.928 11.792 30.4701V30.5581Z" fill="#AECBFA"/>
<path fill-rule="evenodd" clip-rule="evenodd" d="M27.126 35.992C26.4024 34.7297 26.0216 33.3 26.0216 31.845C26.0216 30.39 26.4024 28.9603 27.126 27.698C28.2305 25.7921 30.0444 24.4008 32.1714 23.8278C34.2984 23.2548 36.5656 23.5468 38.4781 24.64C40.3846 25.7441 41.7752 27.5596 42.3444 29.688C42.9136 31.8164 42.615 34.0836 41.5141 35.992C40.7831 37.2525 39.7338 38.2989 38.4713 39.0262C37.2087 39.7536 35.7771 40.1364 34.32 40.1364C32.8629 40.1364 31.4314 39.7536 30.1688 39.0262C28.9063 38.2989 27.857 37.2525 27.126 35.992ZM37.8181 29.81C37.4519 29.2077 36.9464 28.7022 36.344 28.336C35.4119 27.8087 34.3095 27.6701 33.2758 27.9501C32.2422 28.2301 31.3605 28.9063 30.822 29.832C30.475 30.4462 30.2927 31.1396 30.2927 31.845C30.2927 32.5504 30.475 33.2439 30.822 33.858C31.2673 34.6296 31.9558 35.2318 32.7799 35.5702C33.604 35.9086 34.517 35.9641 35.376 35.728C35.8863 35.5927 36.3647 35.3578 36.7838 35.0369C37.2029 34.7159 37.5544 34.3153 37.8181 33.858C38.1649 33.2398 38.3471 32.5429 38.3471 31.834C38.3471 31.1252 38.1649 30.4282 37.8181 29.81Z" fill="#AECBFA"/>
<path fill-rule="evenodd" clip-rule="evenodd" d="M16.478 31.1301C16.478 31.1301 11.33 35.5301 10.318 36.0801L16.61 32.4501C16.5987 32.0075 16.5546 31.5663 16.478 31.1301Z" fill="#669DF6"/>
<path fill-rule="evenodd" clip-rule="evenodd" d="M17.93 17.6001C17.93 17.6001 16.632 10.3841 16.632 9.68005V16.9181C17.0452 17.1562 17.4797 17.355 17.93 17.5121V17.6001Z" fill="#669DF6"/>
<path fill-rule="evenodd" clip-rule="evenodd" d="M29.2601 25.234C29.2601 25.234 35.3321 27.764 36.3441 28.336L30.0521 24.728C29.7677 24.8625 29.5016 25.0325 29.2601 25.234Z" fill="#669DF6"/>
</svg>
