<svg width="50" height="50" viewBox="0 0 50 50" fill="none" xmlns="http://www.w3.org/2000/svg">
<path d="M4.20477 14.938H34.6614C38.0178 14.938 41.0149 13.3951 43.0259 10.9864C38.831 5.52364 32.2472 2 24.839 2C15.7679 2 7.92835 7.27877 4.20477 14.938Z" fill="#F0BF1A"/>
<path d="M32.0802 18.5319H2.8222C2.22307 20.5848 1.89581 22.754 1.89581 25.0008C1.89581 27.2478 2.22307 29.4172 2.8222 31.4699H32.0802C35.5934 31.4699 38.5331 28.5948 38.5331 25.0008C38.5331 21.407 35.6652 18.5319 32.0802 18.5319Z" fill="#07A5DE"/>
<path d="M43.1042 38.9155C41.1059 36.5609 38.1329 35.0638 34.8047 35.0638H4.20483C7.92841 42.7232 15.768 48.0018 24.8389 48.0018C32.2928 48.0018 38.9135 44.4359 43.1042 38.9155Z" fill="#3EBEB0"/>
<path d="M2.82226 18.5319C2.22297 20.5848 1.89587 22.754 1.89587 25.0008C1.89587 27.2478 2.22297 29.4172 2.82226 31.4699H21.971C22.4729 29.5292 22.7596 27.3729 22.7596 25.0008C22.7596 22.6289 22.4729 20.4726 21.971 18.5319H2.82226Z" fill="#231F20"/>
<path d="M13.2957 5.09076C9.42386 7.39085 6.19753 10.8409 4.19006 14.9381H21.1107C19.3899 10.9847 16.6655 7.67842 13.2957 5.09076Z" fill="#D7A229"/>
<path d="M14.0127 45.2704C17.3107 42.6109 19.9635 39.0889 21.6126 35.0637H4.19012C6.34101 39.3765 9.78257 42.9703 14.0127 45.2704Z" fill="#019B8F"/>
</svg>
