<svg width="50" height="50" viewBox="0 0 50 50" fill="none" xmlns="http://www.w3.org/2000/svg">
<rect width="44" height="44" transform="translate(3 3)" fill="#1E1E1E"/>
<g clip-path="url(#clip0_3702_45565)">
<path d="M25 25.2445C25 24.0128 25.4893 22.8314 26.3603 21.9604C27.2313 21.0894 28.4127 20.6001 29.6444 20.6001C30.8762 20.6001 32.0576 21.0894 32.9286 21.9604C33.7996 22.8314 34.2889 24.0128 34.2889 25.2445C34.2889 26.4763 33.7996 27.6577 32.9286 28.5287C32.0576 29.3997 30.8762 29.889 29.6444 29.889C28.4127 29.889 27.2313 29.3997 26.3603 28.5287C25.4893 27.6577 25 26.4763 25 25.2445Z" fill="#1ABCFE"/>
<path d="M15.7111 34.5334C15.7111 33.3016 16.2004 32.1202 17.0714 31.2492C17.9424 30.3782 19.1238 29.8889 20.3556 29.8889H25V34.5334C25 35.7651 24.5107 36.9465 23.6397 37.8175C22.7687 38.6885 21.5873 39.1778 20.3556 39.1778C19.1238 39.1778 17.9424 38.6885 17.0714 37.8175C16.2004 36.9465 15.7111 35.7651 15.7111 34.5334V34.5334Z" fill="#0ACF83"/>
<path d="M25 11.3112V20.6H29.6444C30.8762 20.6 32.0576 20.1107 32.9286 19.2397C33.7996 18.3687 34.2889 17.1874 34.2889 15.9556C34.2889 14.7238 33.7996 13.5425 32.9286 12.6715C32.0576 11.8005 30.8762 11.3112 29.6444 11.3112H25Z" fill="#FF7262"/>
<path d="M15.7111 15.9556C15.7111 17.1874 16.2004 18.3687 17.0714 19.2397C17.9424 20.1107 19.1238 20.6 20.3556 20.6H25V11.3112H20.3556C19.1238 11.3112 17.9424 11.8005 17.0714 12.6715C16.2004 13.5425 15.7111 14.7238 15.7111 15.9556V15.9556Z" fill="#F24E1E"/>
<path d="M15.7111 25.2445C15.7111 26.4763 16.2004 27.6577 17.0714 28.5287C17.9424 29.3997 19.1238 29.889 20.3556 29.889H25V20.6001H20.3556C19.1238 20.6001 17.9424 21.0894 17.0714 21.9604C16.2004 22.8314 15.7111 24.0128 15.7111 25.2445V25.2445Z" fill="#A259FF"/>
</g>
<defs>
<clipPath id="clip0_3702_45565">
<rect width="18.5778" height="27.8667" fill="white" transform="translate(15.7111 11.3112)"/>
</clipPath>
</defs>
</svg>
