<svg width="50" height="50" viewBox="0 0 50 50" fill="none" xmlns="http://www.w3.org/2000/svg">
<g clip-path="url(#clip0_3701_45448)">
<path d="M31.8188 16.0063L33.4203 16.0336L37.7719 11.682L37.9828 9.83828C34.5313 6.76328 29.9742 4.89062 24.9945 4.89062C15.9789 4.89062 8.36953 11.025 6.11719 19.3344C6.59219 19.0031 7.60781 19.2516 7.60781 19.2516L16.3031 17.8219C16.3031 17.8219 16.75 17.082 16.9766 17.1188C17.9933 16.0017 19.2322 15.1094 20.6139 14.499C21.9956 13.8886 23.4895 13.5736 25 13.5742C27.5781 13.5797 29.9531 14.4906 31.8188 15.9977V16.0063Z" fill="#EA4335"/>
<path d="M43.8828 19.3515C42.8727 15.625 40.7906 12.3344 37.9805 9.83826L31.8188 16C34.2875 17.9922 35.8711 21.0406 35.8711 24.4531V25.5406C38.8688 25.5406 41.3039 27.9812 41.3039 30.9734C41.3039 33.9711 38.8633 36.4062 35.8711 36.4062H25.0055L23.918 37.5V44.0203L25.0055 45.1023H35.8711C39.6166 45.0971 43.2072 43.607 45.8558 40.9586C48.5043 38.3102 49.9946 34.7197 50 30.9742C49.9945 26.1656 47.5781 21.9117 43.8828 19.3523V19.3515Z" fill="#4285F4"/>
<path d="M14.1289 45.1094H24.9883V36.4062H14.1289C13.3574 36.4064 12.5948 36.2406 11.8929 35.9203L10.325 36.4008L5.97341 40.7523L5.59216 42.2211C8.04442 44.0919 11.0437 45.1045 14.1281 45.1031L14.1289 45.1094Z" fill="#34A853"/>
<path d="M14.1289 16.8516C10.3834 16.8567 6.79279 18.3469 4.14424 20.9953C1.4957 23.6436 0.00537374 27.2342 0 30.9797C0 35.568 2.19766 39.6477 5.59844 42.232L11.8984 35.932C10.9449 35.502 10.1355 34.8061 9.56754 33.9277C8.99954 33.0493 8.69696 32.0257 8.69609 30.9797C8.69609 27.982 11.1367 25.5469 14.1289 25.5469C16.332 25.5469 18.2258 26.875 19.082 28.75L25.382 22.45C22.7984 19.0492 18.718 16.8516 14.1297 16.8516H14.1289Z" fill="#FBBC05"/>
</g>
<defs>
<clipPath id="clip0_3701_45448">
<rect width="50" height="42" fill="white" transform="translate(0 4)"/>
</clipPath>
</defs>
</svg>
