<svg width="100" height="50" viewBox="0 0 100 50" fill="none" xmlns="http://www.w3.org/2000/svg">
<g clip-path="url(#clip0_3704_41048)">
<path d="M58.5875 19.1115C56.6647 19.1115 55.2318 20.0063 55.2318 22.158C55.2318 23.7791 56.1749 24.9055 58.4838 24.9055C60.4411 24.9055 61.7707 23.8148 61.7707 22.0911C61.7707 20.1383 60.5809 19.1115 58.5875 19.1115ZM54.742 34.3099C54.2867 34.8387 53.833 35.4017 53.833 36.0644C53.833 37.3884 55.6147 37.7855 58.0631 37.7855C60.0927 37.7855 62.8553 37.6516 62.8553 35.867C62.8553 34.8044 61.526 34.739 59.8464 34.6393L54.742 34.3099ZM65.0934 19.2112C65.7215 19.9736 66.3873 21.0331 66.3873 22.5563C66.3873 26.2298 63.3451 28.3831 58.9391 28.3831C57.8184 28.3831 56.8045 28.2507 56.1749 28.0844L55.0216 29.8394L58.4476 30.0372C64.4987 30.4024 68.0649 30.5691 68.0649 34.9707C68.0649 38.7781 64.5333 40.9302 58.4476 40.9302C52.1188 40.9302 49.7051 39.4069 49.7051 36.7911C49.7051 35.3009 50.4051 34.5085 51.6294 33.4136C50.4742 32.9529 50.0912 32.125 50.0912 31.2303C50.0912 30.5021 50.4742 29.8394 51.105 29.2094C51.7343 28.5809 52.4331 27.9521 53.2729 27.2239C51.5603 26.4288 50.2652 24.7066 50.2652 22.2562C50.2652 18.4488 52.9225 15.8344 58.2736 15.8344C59.7773 15.8344 60.6862 15.9653 61.4915 16.1662H68.3113V18.9791L65.0938 19.2112" fill="#362701"/>
<path d="M74.4628 13.1939C72.4693 13.1939 71.3157 12.102 71.3157 10.2128C71.3157 8.32696 72.4693 7.30017 74.4628 7.30017C76.492 7.30017 77.6461 8.32734 77.6461 10.2128C77.6461 12.1016 76.4924 13.1939 74.4628 13.1939ZM69.9515 33.0925V30.4766L71.7348 30.2461C72.2246 30.1795 72.2949 30.0798 72.2949 29.5819V19.8484C72.2949 19.4859 72.1901 19.2527 71.8401 19.1545L69.9515 18.5245L70.336 15.8436H77.5753V29.5826C77.5753 30.1148 77.6099 30.1799 78.1359 30.2469L79.9188 30.4774V33.0929H69.9515" fill="#362701"/>
<path d="M93.7473 31.8081C92.2436 32.5024 90.0412 33.1324 88.0466 33.1324C83.8852 33.1324 82.3125 31.5441 82.3125 27.8006V19.1279C82.3125 18.9285 82.3125 18.7965 82.0312 18.7965H79.5829V15.8497C82.6625 15.5183 83.8852 14.0605 84.2698 10.4521H87.5929V15.1542C87.5929 15.3859 87.5929 15.4852 87.8722 15.4852H92.8026V18.7965H87.5929V26.7084C87.5929 28.6623 88.0823 29.4232 89.9709 29.4232C90.9502 29.4232 91.964 29.1915 92.8026 28.8944L93.7473 31.8085" fill="#362701"/>
<path d="M41.9321 23.1194L25.9422 7.98227C25.7233 7.7749 25.4633 7.61039 25.1772 7.49816C24.8911 7.38592 24.5844 7.32816 24.2747 7.32816C23.9649 7.32816 23.6583 7.38592 23.3721 7.49816C23.086 7.61039 22.826 7.7749 22.6071 7.98227L19.2868 11.1254L23.4979 15.1139C23.993 14.9541 24.5255 14.9289 25.0349 15.041C25.5444 15.1532 26.0104 15.3983 26.3802 15.7485C26.7518 16.1009 27.0113 16.5451 27.1289 17.0305C27.2466 17.5158 27.2177 18.0227 27.0457 18.4933L31.1049 22.3376C31.6018 22.174 32.1374 22.1464 32.6501 22.2579C33.1628 22.3694 33.632 22.6155 34.0037 22.968C34.2645 23.2145 34.4715 23.5073 34.6127 23.8296C34.7539 24.1519 34.8266 24.4974 34.8266 24.8464C34.8266 25.1953 34.7539 25.5408 34.6127 25.8632C34.4715 26.1855 34.2645 26.4783 34.0037 26.7248C33.7432 26.9718 33.4338 27.1678 33.0932 27.3015C32.7526 27.4352 32.3876 27.504 32.0189 27.504C31.6502 27.504 31.2851 27.4352 30.9445 27.3015C30.6039 27.1678 30.2945 26.9718 30.034 26.7248C29.6427 26.3539 29.376 25.8817 29.2674 25.3677C29.1588 24.8536 29.2132 24.3206 29.4237 23.8358L25.6377 20.2513V29.6834C25.9125 29.8113 26.1633 29.9809 26.3802 30.1856C26.9065 30.6841 27.2022 31.3601 27.2022 32.0649C27.2022 32.7698 26.9065 33.4458 26.3802 33.9443C25.2832 34.9813 23.506 34.9813 22.4122 33.9443C22.1512 33.6976 21.9442 33.4047 21.8029 33.0822C21.6616 32.7597 21.5889 32.4141 21.5889 32.0649C21.5889 31.7158 21.6616 31.3701 21.8029 31.0477C21.9442 30.7252 22.1512 30.4322 22.4122 30.1856C22.6741 29.9361 22.9864 29.7391 23.3304 29.6062V20.0862C22.9864 19.9533 22.6741 19.7563 22.4122 19.5068C22.0182 19.134 21.7502 18.6587 21.6423 18.1414C21.5344 17.624 21.5915 17.088 21.8062 16.6014L17.6546 12.6692L6.69073 23.0494C6.47164 23.2567 6.29783 23.5029 6.17925 23.7738C6.06067 24.0447 5.99963 24.3351 5.99963 24.6284C5.99963 24.9217 6.06067 25.2121 6.17925 25.483C6.29783 25.7539 6.47164 26.0001 6.69073 26.2074L22.6806 41.346C22.8996 41.5534 23.1595 41.7179 23.4457 41.8301C23.7318 41.9424 24.0385 42.0001 24.3482 42.0001C24.6579 42.0001 24.9646 41.9424 25.2507 41.8301C25.5368 41.7179 25.7968 41.5534 26.0158 41.346L41.9321 26.2789C42.3746 25.8599 42.6232 25.2917 42.6232 24.6991C42.6232 24.1066 42.3746 23.5384 41.9321 23.1194Z" fill="#F03C2E"/>
</g>
<defs>
<clipPath id="clip0_3704_41048">
<rect width="88" height="35" fill="white" transform="translate(6 7)"/>
</clipPath>
</defs>
</svg>
