<svg width="50" height="50" viewBox="0 0 50 50" fill="none" xmlns="http://www.w3.org/2000/svg">
<path fill-rule="evenodd" clip-rule="evenodd" d="M25 2C12.2986 2 2 12.2986 2 25.0015C2 35.1632 8.58949 43.785 17.7291 46.8261C18.8777 47.0389 19.3002 46.3277 19.3002 45.7192C19.3002 45.1717 19.2794 43.3595 19.269 41.4373C12.8699 42.8284 11.5205 38.7235 11.5205 38.7235C10.4731 36.0648 8.96591 35.3581 8.96591 35.3581C6.87852 33.9313 9.12362 33.9596 9.12362 33.9596C11.4327 34.1217 12.6497 36.3311 12.6497 36.3311C14.6999 39.8468 18.0296 38.8306 19.3419 38.243C19.5487 36.7552 20.1453 35.7405 20.8029 35.1662C15.6938 34.5844 10.3228 32.6131 10.3228 23.7993C10.3228 21.2879 11.2214 19.2362 12.6929 17.6264C12.4548 17.0462 11.6678 14.7074 12.916 11.5398C12.916 11.5398 14.8472 10.9209 19.2422 13.8965C21.0781 13.3877 23.045 13.1318 25 13.1228C26.955 13.1318 28.9233 13.3877 30.7623 13.8965C35.1513 10.9209 37.081 11.5398 37.081 11.5398C38.3322 14.7074 37.5452 17.0462 37.3056 17.6264C38.7801 19.2362 39.6727 21.2879 39.6727 23.7993C39.6727 32.6339 34.2928 34.5785 29.1703 35.1483C29.9961 35.8625 30.731 37.2625 30.731 39.4079C30.731 42.4847 30.7042 44.9619 30.7042 45.7192C30.7042 46.3322 31.1179 47.0493 32.2843 46.8231C41.4179 43.7776 48 35.1602 48 25.0015C48 12.2986 37.7029 2 25 2Z" fill="#1B1817"/>
<path d="M10.7111 35.0248C10.6605 35.1394 10.4805 35.1721 10.3169 35.0947C10.1502 35.0189 10.0565 34.8641 10.1101 34.7481C10.1592 34.632 10.3392 34.5993 10.5058 34.6767C10.6739 34.7525 10.7692 34.9102 10.7111 35.0248Z" fill="#1B1817"/>
<path d="M11.6425 36.0633C11.5324 36.1645 11.3182 36.1184 11.1724 35.9577C11.0221 35.797 10.9938 35.5828 11.1054 35.4786C11.2185 35.3775 11.4268 35.4251 11.5771 35.5858C11.7273 35.7479 11.7571 35.9607 11.6425 36.0633Z" fill="#1B1817"/>
<path d="M12.55 37.3875C12.4087 37.4857 12.1781 37.3935 12.0353 37.1896C11.8939 36.9843 11.8939 36.7403 12.0382 36.6421C12.1811 36.5439 12.4087 36.6317 12.553 36.834C12.6929 37.0423 12.6929 37.2878 12.55 37.3875Z" fill="#1B1817"/>
<path d="M13.7924 38.667C13.6659 38.8069 13.3966 38.7697 13.2002 38.5792C12.9994 38.3948 12.9428 38.1314 13.0693 37.9916C13.1973 37.8532 13.468 37.8919 13.6659 38.0793C13.8653 38.2653 13.9263 38.5301 13.7924 38.667Z" fill="#1B1817"/>
<path d="M15.5063 39.4109C15.4498 39.5909 15.1909 39.6727 14.9305 39.5969C14.6701 39.518 14.5005 39.3067 14.5526 39.1237C14.6077 38.9437 14.8665 38.8574 15.1299 38.9392C15.3888 39.0181 15.5599 39.2279 15.5063 39.4109Z" fill="#1B1817"/>
<path d="M17.3884 39.5493C17.3943 39.7383 17.1741 39.896 16.9004 39.8989C16.6251 39.9049 16.402 39.7516 16.399 39.5657C16.399 39.3737 16.6162 39.2175 16.89 39.2131C17.1637 39.2071 17.3884 39.3604 17.3884 39.5493Z" fill="#1B1817"/>
<path d="M19.1395 39.2502C19.1722 39.4362 18.9818 39.6251 18.711 39.6757C18.4432 39.7248 18.1962 39.6103 18.162 39.4273C18.1293 39.2368 18.3227 39.0479 18.589 38.9988C18.8613 38.9512 19.1053 39.0627 19.1395 39.2502Z" fill="#1B1817"/>
</svg>
