<svg width="50" height="50" viewBox="0 0 50 50" fill="none" xmlns="http://www.w3.org/2000/svg">
<path fill-rule="evenodd" clip-rule="evenodd" d="M25.4507 47.7961L34.4953 19.9587H16.4062L25.4507 47.7961Z" fill="#E24329"/>
<path fill-rule="evenodd" clip-rule="evenodd" d="M25.4507 47.7949L16.4062 19.9475H3.72919L25.4507 47.7949Z" fill="#FC6D26"/>
<path fill-rule="evenodd" clip-rule="evenodd" d="M3.72916 19.9475L0.993294 28.4076C0.742091 29.1786 1.01816 30.0242 1.67353 30.5017L25.4632 47.7875L3.72916 19.9475Z" fill="#FCA326"/>
<path fill-rule="evenodd" clip-rule="evenodd" d="M3.72919 19.9475H16.4062L10.9593 3.18158C10.6795 2.31854 9.45834 2.31854 9.17854 3.18158L3.72919 19.9475Z" fill="#E24329"/>
<path fill-rule="evenodd" clip-rule="evenodd" d="M25.4507 47.7949L34.4952 19.9574H47.1722L25.4507 47.7949Z" fill="#FC6D26"/>
<path fill-rule="evenodd" clip-rule="evenodd" d="M47.1722 19.9475L49.9081 28.4076C50.1593 29.1786 49.8832 30.0242 49.2279 30.5017L25.4382 47.7875L47.1722 19.9475Z" fill="#FCA326"/>
<path fill-rule="evenodd" clip-rule="evenodd" d="M47.1723 19.9475H34.4952L39.9421 3.18158C40.2219 2.31854 41.4431 2.31854 41.7229 3.18158L47.1723 19.9475Z" fill="#E24329"/>
</svg>
