<svg width="54" height="50" viewBox="0 0 54 50" fill="none" xmlns="http://www.w3.org/2000/svg">
<g clip-path="url(#clip0_3702_45627)">
<path d="M49.2416 9.34119C47.7881 7.87567 45.8268 7.03664 43.7715 7.00111C41.7161 6.96559 39.7274 7.73633 38.225 9.15076C38.1497 9.22296 38.0897 9.30984 38.0487 9.40613C38.0078 9.50241 37.9866 9.60609 37.9866 9.71086C37.9866 9.81563 38.0078 9.9193 38.0487 10.0156C38.0897 10.1119 38.1497 10.1988 38.225 10.271L39.1805 11.2567C39.3096 11.3862 39.4808 11.4643 39.6625 11.4766C39.8442 11.489 40.0242 11.4348 40.1694 11.3239C41.0858 10.586 42.2496 10.2338 43.4176 10.341C44.5855 10.4482 45.6672 11.0064 46.4363 11.899C47.2055 12.7916 47.6025 13.9495 47.5445 15.1304C47.4865 16.3113 46.9778 17.4239 46.125 18.2355C39.8305 24.5758 31.4305 6.79835 12.3638 15.9615C12.042 16.1174 11.7558 16.3388 11.5231 16.6117C11.2904 16.8847 11.1164 17.2034 11.012 17.5475C10.9076 17.8917 10.8751 18.254 10.9165 18.6115C10.9579 18.969 11.0724 19.3139 11.2527 19.6246L14.525 25.3208C14.8638 25.9149 15.4216 26.3501 16.0771 26.5315C16.7326 26.713 17.4327 26.6261 18.025 26.2897L18.1027 26.2449L18.0416 26.2897L19.475 25.4832C21.0911 24.4715 22.6189 23.3229 24.0416 22.0498C24.1824 21.9204 24.3645 21.8459 24.5549 21.8397C24.7454 21.8336 24.9318 21.8961 25.0805 22.0162C25.1609 22.0842 25.2262 22.1686 25.272 22.2638C25.3178 22.359 25.3431 22.463 25.3463 22.5688C25.3494 22.6745 25.3303 22.7798 25.2903 22.8776C25.2502 22.9755 25.1901 23.0636 25.1138 23.1364C23.6164 24.4963 22.0027 25.7202 20.2916 26.7938H20.2416L18.7916 27.6116C18.1792 27.9582 17.4884 28.1396 16.7861 28.138C16.0587 28.1407 15.3434 27.95 14.7124 27.5852C14.0813 27.2204 13.5568 26.6943 13.1916 26.0601L10.0972 20.6776C4.18052 24.9231 0.547182 33.0781 2.51385 43.4063C2.54613 43.5803 2.63756 43.7376 2.77241 43.8511C2.90725 43.9646 3.0771 44.0271 3.25274 44.028H6.74163C6.93383 44.033 7.12071 43.964 7.26419 43.8349C7.40766 43.7059 7.49695 43.5266 7.51385 43.3335C7.67777 42.0824 8.2871 40.9339 9.22839 40.1021C10.1697 39.2702 11.3788 38.8116 12.6305 38.8116C13.8823 38.8116 15.0913 39.2702 16.0326 40.1021C16.9739 40.9339 17.5833 42.0824 17.7472 43.3335C17.7689 43.5171 17.8567 43.6864 17.9939 43.8092C18.1311 43.9321 18.3082 43.9999 18.4916 44H21.9027C22.0859 43.9987 22.2623 43.9304 22.3993 43.8078C22.5362 43.6852 22.6243 43.5167 22.6472 43.3335C22.8111 42.0824 23.4204 40.9339 24.3617 40.1021C25.303 39.2702 26.5121 38.8116 27.7638 38.8116C29.0156 38.8116 30.2247 39.2702 31.166 40.1021C32.1073 40.9339 32.7166 42.0824 32.8805 43.3335C32.9034 43.5167 32.9915 43.6852 33.1284 43.8078C33.2654 43.9304 33.4418 43.9987 33.625 44H37.0138C37.2123 44 37.4028 43.9213 37.5442 43.7809C37.6856 43.6404 37.7665 43.4495 37.7694 43.2495C37.8472 38.4326 39.1361 32.8989 42.8083 30.1264C55.5305 20.5319 52.1861 12.3097 49.2416 9.34119ZM36.2694 23.8309L33.8416 22.6043C33.8414 22.3422 33.9077 22.0845 34.0343 21.8556C34.1609 21.6267 34.3435 21.4343 34.5648 21.2967C34.786 21.1591 35.0385 21.081 35.2982 21.0697C35.5579 21.0584 35.8162 21.1143 36.0483 21.2322C36.2805 21.35 36.4789 21.5258 36.6246 21.7429C36.7702 21.9599 36.8584 22.211 36.8805 22.4721C36.9027 22.7332 36.8582 22.9957 36.7512 23.2345C36.6442 23.4734 36.4783 23.6806 36.2694 23.8365V23.8309Z" fill="url(#paint0_linear_3702_45627)"/>
</g>
<defs>
<linearGradient id="paint0_linear_3702_45627" x1="2.79163" y1="23.2932" x2="51.0224" y2="28.3197" gradientUnits="userSpaceOnUse">
<stop stop-color="#06A0CE"/>
<stop offset="1" stop-color="#51CBBF"/>
</linearGradient>
<clipPath id="clip0_3702_45627">
<rect width="52.0833" height="37" fill="white" transform="translate(0.958313 7)"/>
</clipPath>
</defs>
</svg>
