<svg width="50" height="50" viewBox="0 0 50 50" fill="none" xmlns="http://www.w3.org/2000/svg">
<path d="M6.80086 38.1066L4.96753 37.0466L25.4142 1.6333L27.2475 2.6933L6.80086 38.1066Z" fill="#E10098"/>
<path d="M4.54584 34.2167H45.4425V36.3367H4.54584V34.2167Z" fill="#E10098"/>
<path d="M25.8108 47.2201L5.35583 35.41L6.41583 33.5767L26.8708 45.3867L25.8108 47.2201ZM43.5808 16.4367L23.1242 4.62838L24.1842 2.79504L44.6392 14.605L43.5808 16.4367Z" fill="#E10098"/>
<path d="M6.42084 16.43L5.36084 14.5967L25.8342 2.78333L26.8942 4.61666L6.42084 16.43Z" fill="#E10098"/>
<path d="M43.2041 38.1067L22.7541 2.69L24.5875 1.63L45.0375 37.0467L43.2041 38.1067ZM6.16748 13.19H8.28748V36.81H6.16748V13.19ZM41.7141 13.19H43.8341V36.81H41.7141V13.19Z" fill="#E10098"/>
<path d="M25.4508 46.3217L24.5258 44.7183L42.3175 34.4467L43.2425 36.05L25.4508 46.3217Z" fill="#E10098"/>
<path d="M46.6425 37.5C46.0503 38.5228 45.0768 39.2692 43.9353 39.5757C42.7938 39.8821 41.5774 39.7237 40.5525 39.135C39.5297 38.5428 38.7833 37.5693 38.4769 36.4278C38.1704 35.2863 38.3289 34.0699 38.9175 33.045C39.5098 32.0222 40.4833 31.2758 41.6247 30.9694C42.7662 30.6629 43.9826 30.8214 45.0075 31.41C47.1525 32.6484 47.8808 35.3684 46.6408 37.5M11.0708 16.9567C10.4786 17.9795 9.50509 18.7259 8.36361 19.0323C7.22213 19.3388 6.00572 19.1803 4.98083 18.5917C3.95758 17.9994 3.21088 17.0256 2.9044 15.8838C2.59792 14.7419 2.75667 13.5251 3.34583 12.5C3.93809 11.4772 4.91158 10.7308 6.05306 10.4244C7.19454 10.1179 8.41095 10.2764 9.43583 10.865C10.4586 11.4573 11.205 12.4308 11.5115 13.5722C11.8179 14.7137 11.6595 15.9301 11.0708 16.955M3.35917 37.5C2.77053 36.4751 2.61208 35.2587 2.91854 34.1172C3.22499 32.9758 3.97137 32.0023 4.99417 31.41C6.01905 30.8214 7.23546 30.6629 8.37694 30.9694C9.51842 31.2758 10.4919 32.0222 11.0842 33.045C11.6728 34.0699 11.8313 35.2863 11.5248 36.4278C11.2183 37.5693 10.472 38.5428 9.44917 39.135C7.30417 40.36 4.5825 39.635 3.35917 37.5017M38.9308 16.9584C38.3422 15.9335 38.1838 14.7171 38.4902 13.5756C38.7967 12.4341 39.543 11.4606 40.5658 10.8684C41.5907 10.2797 42.8071 10.1213 43.9486 10.4277C45.0901 10.7342 46.0636 11.4806 46.6558 12.5034C47.2445 13.5282 47.4029 14.7446 47.0965 15.8861C46.79 17.0276 46.0436 18.0011 45.0208 18.5934C43.996 19.182 42.7795 19.3404 41.6381 19.034C40.4966 18.7275 39.5231 17.9812 38.9308 16.9584ZM25.0008 50C24.1193 50 23.2576 49.7386 22.5247 49.2488C21.7917 48.759 21.2205 48.0629 20.8833 47.2485C20.546 46.434 20.4578 45.5378 20.6299 44.6733C20.802 43.8087 21.2266 43.0146 21.8501 42.3914C22.4735 41.7682 23.2678 41.3439 24.1324 41.1721C24.997 41.0003 25.8932 41.0888 26.7075 41.4264C27.5218 41.764 28.2177 42.3355 28.7072 43.0686C29.1967 43.8017 29.4578 44.6635 29.4575 45.545C29.4544 46.7259 28.9838 47.8575 28.1487 48.6924C27.3135 49.5272 26.1817 49.9974 25.0008 50ZM25.0008 8.91335C24.4153 8.91423 23.8354 8.79956 23.2943 8.5759C22.7532 8.35224 22.2616 8.024 21.8475 7.60998C21.4335 7.19597 21.1053 6.70432 20.8816 6.16322C20.658 5.62211 20.5433 5.04219 20.5442 4.45669C20.5442 3.27493 21.0136 2.14157 21.8493 1.30594C22.6849 0.470307 23.8182 0.000854492 25 0.000854492C26.1818 0.000854492 27.3151 0.470307 28.1508 1.30594C28.9864 2.14157 29.4558 3.27493 29.4558 4.45669C29.4565 5.04191 29.3417 5.62152 29.1181 6.16232C28.8944 6.70312 28.5663 7.1945 28.1525 7.60831C27.7386 8.02213 27.2473 8.35026 26.7065 8.57391C26.1657 8.79756 25.5861 8.91234 25.0008 8.91169" fill="#E10098"/>
</svg>
