<svg width="50" height="50" viewBox="0 0 50 50" fill="none" xmlns="http://www.w3.org/2000/svg">
<path d="M44.3947 20.8624C46.7026 20.7515 48.7455 22.5418 48.9447 24.8517C49.8079 36.0263 39.5812 48.5443 25.1696 48.9446C13.0249 49.2443 1.01337 39.5213 1.01337 24.8198C1.01337 22.5028 2.92793 20.6246 5.23843 20.6246C7.54894 20.6246 9.42198 22.5028 9.42198 24.8198C9.42198 34.4901 17.1975 40.7485 24.9639 40.5569C34.5245 40.2913 40.7399 32.0129 40.4166 25.2537C40.3057 22.9395 42.087 20.9735 44.3947 20.8624Z" fill="url(#paint0_linear_3703_33318)"/>
<path d="M33.9437 25.145C33.9437 22.773 35.8786 20.85 38.2652 20.85H44.5632C46.9501 20.85 48.9447 22.773 48.9447 25.145C48.9447 27.5171 46.9501 29.4401 44.5632 29.4401H38.2652C35.8786 29.4401 33.9437 27.5171 33.9437 25.145Z" fill="#00A672"/>
<path d="M20.7289 25.1512C20.7289 22.7757 22.6515 20.85 25.0203 20.85C27.3894 20.85 29.3119 22.7757 29.3119 25.1512C29.3119 27.5267 27.3894 29.4526 25.0203 29.4526C22.6515 29.4526 20.7289 27.5267 20.7289 25.1512Z" fill="#00A672"/>
<path fill-rule="evenodd" clip-rule="evenodd" d="M29.193 5.05472C29.289 7.36965 27.4952 9.32421 25.1867 9.42035C15.2212 9.83537 9.13738 17.6679 9.43351 25.105C9.52569 27.42 7.76636 29.3717 5.45768 29.4642C3.14901 29.5566 1.11879 27.6882 1.02661 25.3732C0.54403 13.2536 10.6353 1.27255 24.8395 1.03725C27.148 0.941113 29.0972 2.7398 29.193 5.05472Z" fill="#00A672"/>
<defs>
<linearGradient id="paint0_linear_3703_33318" x1="25.0045" y1="20.6246" x2="25.0045" y2="48.9514" gradientUnits="userSpaceOnUse">
<stop stop-color="#00583E"/>
<stop offset="1" stop-color="#00835C"/>
</linearGradient>
</defs>
</svg>
