<svg width="50" height="50" viewBox="0 0 50 50" fill="none" xmlns="http://www.w3.org/2000/svg">
<g clip-path="url(#clip0_3702_45607)">
<path d="M18.5389 14.3494L15.2274 14.8945L12.206 16.2368L9.63968 17.8726L7.19746 20.8925L5.81789 22.3732L4.48365 22.8716L4.13093 21.9977L4.74785 21.0953L4.88637 19.8227L5.2996 19.8397L5.75116 20.2571L5.62937 18.9606L5.12879 18.6203L5.14416 18.1263L3.95855 18.8061L2.88501 20.0897L2.66089 21.2369L3.12023 22.1556L3.54844 23.7162L4.41925 24.1339L5.3354 24.0884L6.20408 23.577L5.62451 26.5551L6.20408 29.8685L5.56614 31.3986L3.47684 33.6796L3.84824 35.0425L4.83813 36.6216L6.70427 37.9523L7.69416 38.0898L8.79474 38.1276L8.10797 40.9839L10.6331 42.0323L13.7788 42.4518L14.8549 41.7389L14.9377 39.8093L16.1383 37.796L16.221 36.2021L19.1185 36.4118L21.8089 36.1603L19.1185 37.796L19.5739 39.7675L21.2708 42.4518L22.9266 43.1649L24.2512 42.6196L24.7891 41.5292L27.5624 39.3899L28.1006 39.8513L32.4469 40.019L33.3159 39.3061L33.3986 38.0476L33.1091 37.5027L32.9019 34.105L31.4533 31.1689L31.7017 29.8685L32.5708 30.3301L35.013 32.6369L36.2134 32.7209L37.5379 32.1756L38.8626 31.1689L39.5247 28.9877L43.4158 29.2394L45.7751 28.3168L47.6792 26.5131L49.0451 23.9125L49.3761 20.8507L49.0864 17.2853L48.3414 14.0978L47.5963 13.0912L46.5617 12.7554L44.7403 14.7687L43.0846 15.356L41.6358 12.9232L40.1872 11.581L39.4006 11.0777L36.2547 8.43516L33.73 7.051L31.2049 6.84143L28.2661 7.34475L25.6998 8.30919L23.9198 9.77734L22.5126 11.497L21.064 11.9166L18.5389 14.3494Z" fill="#FFFF00"/>
<path d="M8.93497 21.9194C6.09858 25.2719 6.72874 29.3377 7.51473 33.3214C7.09528 32.2472 6.67563 31.1729 6.25617 30.0992C6.1015 29.1145 5.94683 28.1298 5.79236 27.145C5.83652 26.138 5.88049 25.1312 5.92485 24.1243C6.32232 23.1623 6.71979 22.2 7.11726 21.2377C7.71337 20.3427 8.30967 19.4476 8.90598 18.5524C9.83341 17.7693 10.761 16.986 11.6885 16.203C12.704 15.7777 13.72 15.3527 14.7357 14.9274C15.9282 14.7709 17.1206 14.6144 18.3132 14.4576C17.2089 15.733 16.1048 17.0085 15.0007 18.2839C12.341 19.158 10.7727 19.7469 8.93497 21.9194Z" fill="#FFFFCC"/>
<path d="M22.2878 11.7051C20.316 13.6547 19.2388 15.125 17.9839 17.4075C17.0865 19.0405 16.0795 20.6131 15.1357 22.2232C14.6585 23.0382 14.6133 23.7216 14.4705 24.6614C14.0069 24.102 13.5433 23.5425 13.0795 22.9832C13.3005 22.3118 13.5211 21.6405 13.7419 20.9692C14.4927 19.6042 15.2437 18.2391 15.9944 16.8743C17.5843 15.2855 19.1744 13.6969 20.7643 12.108C21.2721 11.9736 21.7801 11.8395 22.2878 11.7051Z" fill="#FFFFCC"/>
<path d="M32.0264 6.87183C30.4469 7.47174 27.8241 7.66948 27.6422 9.5063C27.5126 10.8108 27.7393 11.4663 28.5152 12.8466C26.5986 10.8366 26.1247 11.1477 22.4204 11.7723C22.9506 11.0115 23.4805 10.2507 24.0103 9.48993C24.9377 8.90796 25.8654 8.32618 26.7928 7.7444C27.9852 7.47588 29.1778 7.20737 30.3702 6.93886C30.9222 6.91658 31.4743 6.8943 32.0264 6.87183Z" fill="#FFFFCC"/>
<path d="M36.3843 31.7184C36.91 32.0472 36.8987 32.2856 36.8108 32.5109C37.2256 32.3427 37.6404 32.1746 38.055 32.0068C38.3238 31.6411 38.5923 31.2756 38.8612 30.9099C39.0606 30.3888 39.26 29.8682 39.4594 29.3471C39.2046 29.1529 38.9499 28.9587 38.6948 28.7645C37.581 28.9084 36.4672 29.0526 35.3532 29.1969C35.2705 29.4248 35.1874 29.6531 35.1044 29.8814C35.1281 30.2055 35.152 30.5298 35.1756 30.8539C35.2822 31.0461 35.389 31.2381 35.4956 31.4303C35.6616 31.5143 35.8273 31.5985 35.9933 31.6825C36.1238 31.6943 36.254 31.7065 36.3843 31.7184Z" fill="#CCCC00"/>
<path d="M36.0732 25.9274C34.3981 26.4173 34.4112 26.5523 33.9166 28.2363C34.5695 27.1747 35.053 26.6389 36.0732 25.9274Z" fill="#CCCC00"/>
<path d="M47.2109 13.3259C46.9132 13.4653 46.6231 13.5323 46.4371 13.8083C46.0363 14.4025 45.693 14.9023 45.0303 15.3193C44.6965 15.5294 44.3513 15.6655 43.9974 15.7774C43.7039 15.8699 43.5274 15.7871 43.2776 15.9693C43.4258 15.9953 43.5741 16.0217 43.7223 16.0479H44.7029C45.1058 15.7958 45.5087 15.5436 45.9116 15.2917C46.1488 15.0393 46.3858 14.7872 46.6227 14.535C46.8186 14.1321 47.0147 13.7287 47.2109 13.3259Z" fill="#CCCC00"/>
<path d="M20.5289 17.0927C19.87 18.92 19.2941 20.4863 18.296 22.1406C19.575 20.744 20.3505 19.557 21.0832 17.978C21.3678 17.3647 21.4215 16.6449 22.2143 16.9125C22.2499 17.5252 22.3777 18.1373 22.4131 18.7497C22.8415 15.6387 24.0493 14.3375 26.8569 13.13C26.0629 13.2262 25.269 13.3222 24.4752 13.4182C23.7285 13.5864 22.982 13.7546 22.2353 13.9225C21.868 14.4629 21.5005 15.0035 21.1334 15.5437C20.9318 16.06 20.7305 16.5763 20.5289 17.0927Z" fill="#CCCC00"/>
<path d="M25.968 17.0208C26.5736 19.9084 27.4454 22.6798 27.824 25.6134C28.07 27.5196 28.0968 28.4353 27.1505 30.0799C26.1161 30.0121 25.4738 30.1302 24.4733 30.4626C20.4904 31.7856 18.2059 33.7311 15.5221 29.8112C16.3789 30.2203 17.2357 30.6294 18.0925 31.0387C18.7032 30.917 19.3139 30.7956 19.9246 30.6735C21.003 30.0374 22.0814 29.4008 23.1598 28.7646C24.0011 28.5964 24.8425 28.4282 25.6838 28.2601C25.9563 27.1076 26.2289 25.9546 26.5015 24.8019C26.2999 23.2768 26.0984 21.7519 25.897 20.2267C25.8735 19.5064 25.8497 18.786 25.826 18.0654C25.8735 17.7171 25.9209 17.3689 25.968 17.0208Z" fill="#CCCC00"/>
<path d="M32.8294 34.8885C32.4947 37.2345 33.5998 38.4957 33.1422 39.1437C33.0126 39.3271 32.8371 39.6472 32.6412 39.7352C31.941 40.0484 30.9784 39.6764 30.9097 39.8598H28.599C28.2908 39.7277 27.9829 39.5956 27.6747 39.4635C28.1486 38.8991 28.6225 38.3346 29.0967 37.7704C29.5587 36.75 30.021 35.7291 30.483 34.7083C30.7794 33.6757 31.0757 32.643 31.3718 31.6104H31.834C32.1657 32.7031 32.4976 33.7957 32.8294 34.8885Z" fill="#CCCC00"/>
<path d="M28.9455 28.0682C29.1333 29.1334 29.4593 29.3866 29.9537 30.4176C29.6245 32.0999 29.0959 34.1003 28.4595 35.5846C28.1912 36.2106 27.9747 36.5558 27.5014 37.0396C26.7027 37.857 25.8953 38.5687 24.9895 39.2772C24.3373 39.7864 23.8823 39.5311 23.0778 39.4156C22.7356 40.0441 22.6412 40.3932 22.0115 40.7124C21.043 41.2029 20.1764 40.1458 19.4161 39.5236C19.965 40.3923 20.5138 41.2607 21.0622 42.1293C21.4416 42.4897 21.8208 42.8495 22.2 43.2099C22.5198 43.2578 22.8399 43.3061 23.1599 43.3542C23.5864 43.09 24.013 42.8256 24.4395 42.5615C24.6648 42.1293 24.8899 41.697 25.115 41.2648C25.5891 40.9044 26.0632 40.5443 26.537 40.1839C27.1177 39.6798 27.6984 39.1753 28.279 38.671C28.6465 38.1426 29.0136 37.6145 29.3811 37.0859C29.7128 36.4616 30.0445 35.8372 30.3763 35.2128C30.8031 33.916 31.2296 32.619 31.6564 31.3223C31.6918 30.8299 31.7272 30.3376 31.7628 29.8451C31.2296 29.6052 30.6965 29.3647 30.163 29.1245C29.772 28.7525 29.3366 28.4404 28.9455 28.0682Z" fill="#CCCC00"/>
<path d="M16.192 35.573C17.9861 35.573 19.8811 35.472 21.5245 34.7083C21.9894 34.0015 22.4486 33.4241 23.0175 32.7993C22.4998 33.7904 22.3373 34.3507 22.2 35.4649C22.0221 35.7291 21.8445 35.9931 21.6667 36.2575C20.3157 36.2933 18.9649 36.3294 17.614 36.3655C17.1754 36.3172 16.7371 36.2693 16.2986 36.2214C16.2511 36.1731 16.2038 36.1252 16.1564 36.0773C16.1684 35.9091 16.1803 35.7409 16.192 35.573Z" fill="#CCCC00"/>
<path d="M15.9431 34.3122C15.8968 33.886 15.8503 33.4596 15.8038 33.033C15.4974 34.9027 15.5709 36.156 14.7217 37.8309C14.0874 38.5755 13.3063 39.2531 12.4118 39.6159C12.4874 40.075 12.51 40.3623 12.466 40.6988C12.3085 41.9099 9.91779 41.3748 8.93433 41.3265C10.5123 41.7384 12.09 42.1498 13.6678 42.5614C14.0234 42.4173 14.3787 42.2734 14.7343 42.1293C14.853 41.433 14.9715 40.7363 15.09 40.0399C15.4217 39.4156 15.7536 38.7908 16.0853 38.1669C16.1444 37.7822 16.2038 37.3984 16.2631 37.0139C16.1563 36.1134 16.0499 35.2128 15.9431 34.3122Z" fill="#CCCC00"/>
<path d="M13.2768 23.7572C13.2274 24.6664 13.1694 25.0454 13.5649 25.8483C14.0679 26.8688 14.6856 27.8279 15.2321 28.8365C15.2914 28.1638 15.3505 27.4916 15.4099 26.8191C14.699 25.7983 13.9879 24.7778 13.2768 23.7572Z" fill="#CCCC00"/>
<path d="M5.97936 30.625C5.82528 30.9568 5.67158 31.2888 5.51749 31.6208C5.94104 33.0665 6.31769 33.9822 7.12411 35.2451C6.98364 35.7567 6.87858 35.9807 6.55543 36.3976C5.8457 36.2872 5.21535 36.2551 4.49609 36.2575C5.29006 36.8816 6.08403 37.5064 6.878 38.1308C7.26886 38.0584 7.6601 37.9865 8.05115 37.9145C8.44201 37.5182 8.83325 37.122 9.2243 36.7257C8.6673 35.849 8.1103 34.9727 7.55349 34.096C7.02858 32.9391 6.50388 31.7819 5.97936 30.625Z" fill="#CCCC00"/>
<path d="M47.2159 12.8477C47.6996 15.052 48.3233 17.0863 48.2654 19.344C48.1943 22.1139 47.6617 25.6129 45.129 27.2831C42.2926 29.1538 38.963 28.2691 35.851 27.4675C37.119 27.996 38.3871 28.5242 39.6548 29.0525C40.8399 29.1126 42.0249 29.1728 43.2099 29.2325C44.0157 28.9926 44.8216 28.7525 45.6272 28.5123C46.2552 27.9838 46.8834 27.4556 47.5115 26.9271C47.9854 25.9185 48.4593 24.9099 48.9334 23.9013C49.1113 22.7363 49.2889 21.5716 49.4665 20.4068C49.3245 19.266 49.1821 18.1253 49.0401 16.9846C48.7794 15.8559 48.5185 14.7271 48.258 13.5984C47.9107 13.348 47.5634 13.0978 47.2159 12.8477Z" fill="#CCCC00"/>
<path d="M4.88823 19.4179C3.60068 20.2672 3.09484 20.64 3.23609 22.214C3.3643 22.6854 3.4927 23.1568 3.62091 23.6281C3.80282 23.7529 3.98453 23.8775 4.16624 24.0021C4.39095 24.078 4.61546 24.1537 4.84017 24.2296C5.24659 24.1322 5.65301 24.0347 6.05924 23.9371C6.26799 23.2814 6.47655 22.6258 6.68492 21.9701C6.10749 22.2574 5.52986 22.5446 4.95243 22.8319H4.55146C4.40184 22.5988 4.25204 22.3658 4.10223 22.1328C4.28414 21.8617 4.46585 21.591 4.64776 21.3199C4.74406 20.8052 4.84017 20.2904 4.93647 19.7757C5.05943 19.8135 5.18239 19.8516 5.30535 19.8893C5.45515 20.0087 5.60476 20.128 5.75457 20.2469C5.73317 19.9762 5.71177 19.7051 5.69037 19.4342C5.58881 19.2609 5.48706 19.0875 5.3855 18.9142C5.28395 18.8272 5.18239 18.7407 5.08083 18.6539C5.01663 18.9086 4.95243 19.1634 4.88823 19.4179Z" fill="#CCCC00"/>
<path d="M33.777 7.01538C34.9198 8.09082 36.3223 9.02549 37.2365 10.3397C37.5902 10.8483 37.9832 11.1085 37.2305 11.8271C38.0258 11.5969 38.3213 11.6219 38.9581 11.7C40.1163 11.8421 41.2019 13.5106 41.2709 14.7061C41.2573 14.8179 40.9494 15.0718 40.0538 15.3223C40.0361 15.3572 39.5484 15.2547 39.5604 15.2882C39.6536 15.5461 39.7779 15.5857 39.9678 15.7064C40.0091 15.9934 40.0355 16.436 40.2285 16.7499C40.792 16.7396 41.3427 16.8019 41.8945 16.9125C42.0801 17.2248 42.0523 17.5369 42.0367 17.8492C42.2499 17.8133 42.4632 17.7772 42.6766 17.7413C42.6174 17.2489 42.5581 16.7566 42.499 16.2643C42.6885 15.94 42.878 15.6157 43.0676 15.2918C42.7951 14.667 42.5225 14.0429 42.2499 13.4183C41.7287 12.914 41.2073 12.4097 40.6857 11.9054C40.6357 11.9028 40.5851 11.9003 40.5353 11.8977C39.9488 11.533 39.3626 11.1685 38.7762 10.8037C37.8198 10.0108 36.8636 9.2181 35.9071 8.42518C35.197 7.95518 34.4871 7.48538 33.777 7.01538Z" fill="#CCCC00"/>
<path d="M35.7021 15.8912C35.6417 15.9981 35.5507 16.1688 35.4342 16.2871C35.91 16.7433 36.1449 17.0489 36.3147 17.6941C35.7766 17.9648 35.2384 18.2357 34.7005 18.5062C34.2451 18.9486 33.7896 19.391 33.3345 19.8332C32.7351 19.5063 32.5859 19.2553 32.2958 18.632C31.9581 18.7227 31.6382 18.8098 31.3593 18.7061C31.5363 18.7075 31.6449 18.6627 31.8217 18.5519C32.1114 18.2469 32.4013 17.942 32.691 17.637C33.2026 17.2443 33.7145 16.8513 34.2262 16.4586C34.5612 16.348 34.896 16.2374 35.231 16.1268C35.3589 16.0736 35.574 15.9447 35.7021 15.8912Z" fill="#CCCC00"/>
<path d="M37.1873 17.5186C35.4754 18.4526 33.8357 19.392 32.9604 21.166C32.9604 18.9144 35.1916 17.9231 37.1873 17.5186Z" fill="#CCCC00"/>
<path d="M32.6206 13.089C31.3494 13.9673 30.4506 15.7398 30.5634 17.4672C30.1494 15.9715 30.2961 14.5581 31.5675 13.5251C31.7821 13.4194 31.9965 13.3135 32.2111 13.2081C32.3477 13.1684 32.484 13.1288 32.6206 13.089Z" fill="#CCCC00"/>
<path d="M49.7275 17.1672C49.4968 15.6941 49.1147 14.2642 48.5843 13.2361C48.5197 13.1103 48.4217 12.983 48.3003 12.8613C48.0369 12.5981 47.6468 12.3489 47.2439 12.2086C46.8168 12.0597 46.3666 12.0294 46.0092 12.2186C45.9164 12.2679 45.8302 12.3314 45.7534 12.4105C45.5219 12.6482 45.3267 12.9368 45.1312 13.2263C44.9137 13.5484 44.695 13.8721 44.4334 14.0984C44.1301 14.3612 43.7505 14.5207 43.3925 14.6664C43.2355 14.2818 43.055 13.9299 42.8509 13.5994C42.6061 13.204 42.3275 12.8337 42.0209 12.4633C41.7703 12.1611 41.5266 11.934 41.2627 11.7305C40.9983 11.5261 40.7277 11.354 40.4123 11.154C39.5672 10.6176 38.8476 9.97806 38.1135 9.32531C37.7801 9.0288 37.4431 8.72954 37.1135 8.45412C35.3657 6.99366 33.7351 6.28531 31.9913 6.17412C30.2594 6.06372 28.4306 6.54594 26.2715 7.46701C25.2295 7.91138 24.4555 8.43658 23.7814 9.06804C23.1374 9.6719 22.5908 10.3668 21.9898 11.1785C21.64 11.2037 21.3304 11.2562 21.0141 11.3845C20.6657 11.5257 20.3149 11.7544 19.8946 12.1303C19.5964 12.3967 19.311 12.665 19.0351 12.9353C18.7767 13.1884 18.526 13.4461 18.2787 13.7065C16.3129 14.0265 14.7114 14.3798 13.2771 14.9428C11.8104 15.5185 10.5174 16.3106 9.18939 17.5039C8.64679 17.9913 8.17713 18.5064 7.76605 19.0521C7.36215 19.5882 7.01643 20.1518 6.71313 20.7462C6.44737 21.0441 6.18142 21.3447 5.89328 21.6077C5.61235 21.864 5.31293 22.0799 4.97752 22.2108L4.97772 22.211C4.78258 22.2871 4.70184 22.3317 4.69309 22.3287C4.68336 22.3232 4.67791 22.2936 4.6641 22.239C5.14601 21.7729 5.22169 21.0885 5.26624 20.4087C5.32402 20.4789 5.37966 20.5652 5.43725 20.6553C5.50087 20.7549 5.56605 20.8576 5.64426 20.9576L5.9713 21.3757L6.08628 20.854C6.18278 20.417 6.25496 19.8348 6.1425 19.3301C6.06974 19.0026 5.91974 18.7107 5.65846 18.5039C5.68356 18.4376 5.7071 18.3767 5.73044 18.3166C5.81254 18.1039 5.89698 17.8856 5.96877 17.6794L6.1104 17.2705L5.68861 17.3446C5.12733 17.4434 3.92091 18.1153 3.07149 19.0086C2.75593 19.3404 2.48472 19.7071 2.30671 20.0919C2.12149 20.4923 2.03861 20.9112 2.1104 21.3306C2.17305 21.697 2.35398 22.0566 2.68278 22.3961C2.7427 22.6408 2.79795 22.8531 2.8571 23.0447C2.9248 23.2628 2.99776 23.4578 3.089 23.6496C3.33628 24.1706 3.73044 24.4888 4.18647 24.6373C4.55321 24.7566 4.95865 24.7625 5.35632 24.6744C5.27869 25.1298 5.22966 25.6059 5.2106 26.1259C5.1855 26.8059 5.21001 27.557 5.28394 28.4286C5.30009 28.6199 5.32441 28.8304 5.35593 29.0591C5.38317 29.2543 5.41566 29.4459 5.45068 29.6361C5.37636 29.8416 5.30165 30.0474 5.22714 30.2528C5.11138 30.5718 4.99562 30.8912 4.88005 31.2102C4.62538 31.4659 4.37072 31.7216 4.11624 31.9771C3.87869 32.215 3.64095 32.4538 3.4034 32.6923C3.38375 32.7122 3.30359 32.7901 3.23103 32.8611C2.74951 33.3305 2.65418 33.4237 2.79095 34.25C2.87441 34.7562 3.03881 35.2692 3.29542 35.7639C3.5318 36.22 3.84893 36.6642 4.25593 37.0778C4.76391 37.5938 5.5962 38.2345 6.4676 38.57C6.96566 38.7619 7.47908 38.8555 7.96079 38.7772C7.93628 38.8523 7.91235 38.9273 7.88531 39.003C7.80943 39.2153 7.7248 39.4278 7.63122 39.6358C7.04017 40.949 7.64698 41.6347 8.59153 42.0712C9.06313 42.289 9.62383 42.4369 10.1448 42.5747C10.2515 42.6025 10.3581 42.6309 10.4923 42.6675C11.1098 42.8367 12.1764 43.1472 13.1505 43.2095C14.2137 43.2777 15.1727 43.0553 15.4297 42.0881C15.5314 41.7049 15.5906 41.4111 15.6145 41.1237C15.6367 40.8569 15.6281 40.5872 15.5974 40.2537C15.9005 39.5729 16.0291 39.3815 16.2507 39.053C16.2941 38.9882 16.3466 38.9105 16.3623 38.8861C16.6001 38.5292 16.7114 38.2759 16.7518 37.9906C16.7908 37.7154 16.7579 37.4412 16.7087 37.0218C16.704 36.982 16.6968 36.9239 16.6867 36.847C17.309 36.9278 17.9227 36.9712 18.5328 36.9751C18.8425 36.9771 19.152 36.9678 19.4616 36.9513C19.3826 36.9925 19.305 37.0331 19.2201 37.0772C19.1826 37.0968 19.1439 37.1171 19.105 37.1374C18.2839 37.5652 18.2497 38.3756 18.5067 39.2094C18.7384 39.9613 19.2153 40.729 19.5145 41.196C20.1435 42.1782 20.7437 43.0096 21.4713 43.4614C22.2341 43.9352 23.1055 43.991 24.2304 43.3741C24.8026 43.06 24.9832 42.7401 25.2262 42.3087C25.3005 42.177 25.3826 42.0335 25.4738 41.892C25.7104 41.7332 26.2987 41.2416 26.8764 40.7576C27.0729 40.593 27.2694 40.4289 27.4911 40.246C27.6439 40.3597 27.8283 40.4388 28.0511 40.4926C28.3406 40.5628 28.6853 40.5945 29.0983 40.6245C29.4075 40.6476 30.4157 40.6468 31.067 40.6466C31.2682 40.6466 31.4353 40.6466 31.5355 40.6472C32.2079 40.6513 32.7507 40.6154 33.1608 40.38C33.598 40.1289 33.8571 39.6841 33.9137 38.8865C33.9384 38.5322 33.9429 38.3137 33.8945 38.0906C33.8491 37.8816 33.7606 37.6923 33.6087 37.4151C33.5995 37.0705 33.5904 36.7257 33.5814 36.3811C33.5719 36.0154 33.562 35.6495 33.5524 35.284C33.541 34.8528 33.4941 34.5027 33.4077 34.1581C33.3221 33.8158 33.1999 33.4866 33.0363 33.0917C32.9254 32.8246 32.8355 32.5791 32.7476 32.3384L32.5116 32.426L32.548 32.4124L32.7476 32.3384V32.3374C32.6069 31.953 32.4682 31.5788 32.274 31.1784C32.2867 31.1011 32.2993 31.0181 32.3116 30.9294C32.4365 31.0517 32.5616 31.1737 32.6865 31.2955L33.2392 31.8353C33.6608 32.2468 34.0462 32.6209 34.4989 32.8914C34.967 33.1714 35.4935 33.3338 36.1752 33.3011C36.8888 33.267 37.6524 32.9624 38.2812 32.4924C38.8894 32.0374 39.3775 31.4239 39.5812 30.7449C39.6402 30.5485 39.6991 30.352 39.7577 30.1558C39.8046 29.9993 39.8517 29.8424 39.8987 29.6856C40.8995 29.8575 41.9736 29.9129 43.0112 29.8029C44.0123 29.6963 44.9797 29.438 45.8137 28.9871C47.04 28.3241 47.9592 27.3475 48.6199 26.1878L48.6203 26.188C49.3587 24.892 49.7721 23.3649 49.9293 21.7935C50.0552 20.5331 49.9865 18.8197 49.7275 17.1672ZM36.7612 27.7593C36.1845 27.5627 35.7836 27.2757 35.2767 26.9522C35.4147 27.5821 35.4775 28.2482 35.2939 28.8771C35.0024 29.8749 34.5318 31.5073 35.8686 31.8085C36.3775 31.923 36.6083 31.9065 37.3266 31.5309C36.7452 31.6644 36.452 31.6317 36.0524 31.5565C35.6904 31.4891 35.4983 31.2561 35.3972 30.9813C35.5236 31.0737 35.7301 31.124 36.0826 31.2102C37.0736 31.4523 38.018 30.9687 38.2028 30.2723C38.3104 29.8654 38.2921 29.6517 38.5203 29.0971C38.7254 29.1614 38.9374 29.2198 39.155 29.2732C39.0322 29.6787 38.9094 30.0846 38.7867 30.4902C38.4682 31.5431 37.2271 32.3921 36.1314 32.3727C35.1184 32.3546 34.4762 31.7117 33.7767 31.0812C33.295 30.6465 32.8314 30.2311 32.3719 29.8195C31.1112 29.4163 30.1007 28.9453 28.9306 28.0676C29.7633 29.0591 30.3281 29.6081 31.4894 30.1016C31.3205 31.8473 30.7219 33.1201 30.2114 34.7907C29.9802 35.546 28.1565 38.5732 27.6511 38.8683C27.2908 39.0787 25.0334 41.0052 24.6088 41.2595C24.2925 41.6852 24.0149 42.2732 23.5394 42.5278C22.0906 43.3041 21.1594 41.8176 20.3799 40.5622C20.0248 39.9901 19.039 38.3427 19.8983 37.8812C20.711 37.4453 21.166 37.1336 21.995 36.582C22.1168 36.807 22.3258 37.0242 22.462 37.249C22.432 37.0031 22.4018 36.7575 22.3715 36.5114C22.317 36.0661 22.3192 35.7045 22.3542 35.2564C22.388 34.8227 22.4215 34.3888 22.4552 33.9548C22.3304 34.3958 22.0812 34.8369 21.9567 35.2777C21.9069 35.4541 21.8657 35.5967 21.8419 35.7288C19.9818 36.114 18.1351 36.138 16.2744 35.8017C16.1557 35.1036 16.0112 34.3763 15.89 33.8549C15.8532 34.4388 15.8769 36.0533 15.8738 36.9574C15.8715 37.6576 15.8425 37.8974 15.4861 38.4933C15.1524 39.0509 15.0112 39.1776 14.5439 40.12C14.5828 40.7148 14.5836 41.1077 14.4277 41.6721C14.1684 42.6106 11.5526 41.8835 10.8627 41.692C10.0129 41.4563 8.25632 41.1061 8.69815 39.9583C9.08686 38.948 9.33336 37.8828 9.52324 36.4692C7.96644 34.1967 6.51877 31.0824 6.24095 28.3229C6.02519 26.1806 6.15457 24.8618 6.61215 23.5512C7.33706 21.4747 8.35145 19.6773 9.97889 18.2298C12.174 16.2779 14.2262 15.494 17.4392 14.9984C16.6664 15.8749 15.902 16.8017 15.0688 17.7955C14.2254 18.8016 13.7242 19.8176 13.1886 20.9181C12.4487 22.4379 12.4647 23.0164 13.4454 24.3506C14.2906 25.5006 14.7468 26.0181 15.1159 27.1434C14.8112 27.7798 14.7003 28.3178 14.598 29.187C15.6328 30.3334 16.4018 31.1189 17.4067 31.3608C18.3923 31.5981 19.2153 31.5522 20.0972 31.0956C22.0555 30.0809 23.8676 28.7707 26.0769 28.7166C27.0989 26.1705 26.9956 24.0429 26.505 21.5794C26.1697 19.8969 26.0353 18.304 25.9312 16.5888C25.5168 18.3552 25.439 19.9085 25.7464 21.6681C26.117 23.7884 26.4052 26.1313 25.3742 27.9947C23.3766 28.1497 21.6645 29.3812 19.8641 30.3262C19.1404 30.7061 18.3869 30.7431 17.5859 30.5203C16.8423 30.3133 16.3406 29.8148 15.5396 28.8787C15.5269 27.9387 15.7363 27.505 16.1622 26.6537C16.8466 25.2867 17.6018 24.0143 18.4308 22.6694C17.4159 23.9108 16.4542 24.948 15.6553 26.1961C15.3499 25.3147 14.9133 24.867 14.19 23.8743C13.4836 22.9048 13.4096 22.4803 13.9378 21.3582C14.469 20.2307 14.9194 19.2396 15.8234 18.2505C17.3855 16.5411 18.8164 14.6388 20.5246 12.9552C21.4522 12.0412 21.8289 12.0727 23.059 11.8839C24.1711 11.713 25.2567 11.4975 26.3908 11.2305C25.2941 11.334 24.2339 11.3721 23.166 11.3989C23.155 11.3993 23.1441 11.3997 23.133 11.3999C24.1836 10.0404 24.7933 9.28273 26.4993 8.5314C30.7001 6.68276 33.3692 6.48285 36.669 9.29357C37.5242 10.0222 38.2711 10.7294 39.1382 11.3579C38.8238 11.3851 38.5528 11.4423 38.1945 11.5848C38.6306 11.5006 39.1343 11.584 39.5871 11.668C39.7141 11.7516 39.8446 11.833 39.9783 11.9129C40.5906 12.2784 40.938 12.4802 41.352 13.0648C41.7896 13.6824 42.1544 14.2997 42.4758 14.9801C42.2651 14.9038 42.0884 14.8393 41.931 14.792C41.8151 14.738 41.689 14.7027 41.5553 14.6895C41.2906 14.6636 41.0373 14.7297 40.8262 14.8614C40.8176 14.8653 40.8092 14.8693 40.8007 14.8734C40.462 15.0404 39.9374 15.2308 39.5865 15.2886C39.7655 15.3513 40.1616 15.3748 40.3483 15.2998C40.3732 15.2898 40.3987 15.2821 40.4248 15.2758C40.3406 15.4211 40.2857 15.5859 40.2686 15.7643C40.2462 16.0007 40.2937 16.2274 40.3939 16.4244C40.3943 16.425 40.3945 16.4255 40.3948 16.4265C40.4266 16.502 40.4705 16.5716 40.519 16.6219C40.3587 16.6818 40.1948 16.7502 40.026 16.8246C40.8088 16.7037 41.5147 16.683 42.2787 16.7849C42.3291 17.029 42.3799 17.2877 42.4269 17.5507C42.3322 17.5582 42.2378 17.5654 42.1431 17.5731C42.1357 17.5737 42.1277 17.5745 42.1201 17.5753C41.7587 17.2825 41.3559 17.3316 40.8057 17.459C39.1324 17.8456 39.5256 18.797 38.7559 20.2307C39.5552 19.2406 39.4958 18.2048 40.7983 17.8921C41.1018 17.8194 41.3085 17.7281 41.5139 17.7594C41.1443 17.9479 40.8244 18.2604 40.6976 18.6231C40.34 19.6461 40.562 20.5081 40.1692 21.4636C40.6557 20.6094 40.6851 19.7759 41.1201 18.8771C41.2764 18.5543 41.8561 18.0376 42.2122 18.0297C42.31 18.0274 42.4073 18.0254 42.5051 18.0232C42.591 18.5918 42.6431 19.1564 42.6098 19.6246C42.5491 20.4793 42.3301 21.7477 42.1989 22.2331C42.6396 21.659 42.8404 20.4432 43.0339 19.5872C43.2355 18.6961 43.1845 17.6266 43.0081 16.6692C42.766 15.3556 44.1011 15.5693 44.8762 14.9503C45.4458 14.4951 45.8382 13.7684 46.3606 13.2535C46.8787 12.743 47.6943 13.4932 47.8981 13.9922C48.7818 16.1586 49.1843 19.5671 48.9511 21.7511C48.689 24.2016 47.5209 26.8769 45.388 28.0834C42.6688 29.6214 39.4627 28.6818 36.7612 27.7593ZM32.8976 38.6436C32.8088 39.6547 32.4764 39.7216 31.6001 39.706C31.202 39.6989 29.6168 39.6916 29.2145 39.6565C28.6462 39.6068 28.3271 39.5554 28.1534 39.4241C29.0464 38.7599 30.5637 36.0174 30.8594 35.0732C31.1723 34.0759 31.5147 33.2053 31.7694 32.2834C31.8865 32.6686 31.9791 33.0505 32.1495 33.4598C32.4341 34.1437 32.5732 34.5664 32.5937 35.3C32.6151 36.074 32.6367 36.8482 32.6583 37.6222C32.9028 38.0561 32.941 38.1487 32.8976 38.6436ZM6.02383 30.9838C6.59095 32.9715 7.5569 34.9248 8.62791 36.5668C8.62791 36.5763 8.62772 36.5858 8.62772 36.5956C8.5604 36.8779 8.48297 37.1527 8.32013 37.3736C7.55476 38.4113 5.60768 36.888 5.04406 36.3052C4.42811 35.6676 4.01566 34.913 3.91741 34.2048C3.84601 33.6885 3.91546 33.6759 4.27091 33.3106C4.75009 32.8189 5.22986 32.327 5.70885 31.8355C5.81371 31.5516 5.91877 31.2675 6.02383 30.9838ZM4.94095 18.4834C4.79562 18.7996 4.6925 19.0391 4.62227 19.2857C4.31702 20.3541 4.7604 21.3077 3.80321 22.0821C4.25301 23.0018 4.23239 23.3685 5.27869 22.9436C5.68219 22.7796 6.01507 22.5497 6.31215 22.2778C6.17052 22.6489 6.0392 23.0317 5.91546 23.427C5.89484 23.4925 5.87519 23.5583 5.85612 23.6236C5.10787 23.9453 4.12383 24.1497 3.74717 23.3529C3.56429 22.9661 3.46099 22.5864 3.32772 22.0976C2.09542 20.804 3.93745 19.0959 4.94095 18.4834ZM5.54659 19.8537C5.39445 19.6996 5.27266 19.5951 5.07616 19.6177C5.0927 19.487 5.11468 19.3611 5.14581 19.2426C5.16157 19.1817 5.1783 19.1219 5.1962 19.062C5.45126 19.2126 5.51858 19.4855 5.54659 19.8537ZM42.4954 15.0219C42.5419 15.1212 42.5876 15.2224 42.6326 15.3247C42.5954 15.3523 42.56 15.3815 42.5269 15.4122C42.4662 15.2683 42.3781 15.1378 42.269 15.0286C42.3425 15.0258 42.4178 15.0234 42.4954 15.0219ZM6.92033 20.8939L6.92013 20.8937L6.92033 20.8939ZM2.90943 22.2672H2.90963H2.90943ZM16.3929 36.5507H16.3933H16.3929ZM27.4989 39.9104H27.4987H27.4989ZM32.0127 31.2167H32.0129L32.0127 31.2169V31.2167ZM5.06799 22.449V22.4488L5.0678 22.449L5.05963 22.4269L5.06799 22.449ZM48.3989 26.0585L48.4048 26.0621L48.3989 26.0585Z" fill="black"/>
<path d="M0.720159 22.1379C0.916267 19.888 1.34798 18.9167 2.92541 17.2234C0.946812 18.6363 0.453038 19.2784 0.720159 22.1379Z" fill="black"/>
<path d="M0.209874 20.3C0.427772 19.2875 0.630885 18.9054 1.24684 18.0742C0.247422 18.7818 0.117072 19.0724 0.209874 20.3Z" fill="black"/>
<path d="M23.4227 6.18494C22.2375 6.47435 22.0115 6.69653 21.656 7.87389C22.2231 7.01177 22.5498 6.73123 23.4227 6.18494Z" fill="black"/>
<path d="M25.292 6.01343C22.941 6.59738 22.2502 7.01257 21.4692 9.7736C22.4618 7.75147 23.2136 7.00685 25.292 6.01343Z" fill="black"/>
<path d="M30.3551 16.0787C30.6057 14.9538 31.0511 13.8697 32.7752 13.031C30.4898 13.611 30.0614 14.5835 30.3551 16.0787Z" fill="black"/>
<path d="M44.8959 16.1564C46.2492 15.6675 46.9015 14.565 47.2256 13.2678C46.6959 14.3551 45.8786 15.2643 44.768 15.8213C44.1721 16.1199 43.7916 16.0158 43.1262 15.952C43.8029 16.1487 44.2315 16.3963 44.8959 16.1564Z" fill="black"/>
<path d="M35.6768 17.2589C35.4964 16.8759 35.1805 16.6014 34.8147 16.4656C35.1466 16.286 35.4727 16.0973 35.7272 15.8629C34.982 16.2125 34.1145 16.1271 33.4752 16.5648C32.912 16.9502 32.1348 18.1717 31.5624 18.6896C31.977 18.5266 32.3764 18.2446 32.7439 17.9473C32.7455 18.1683 32.7933 18.3921 32.8931 18.6042C33.0421 18.9205 33.2832 19.1624 33.5686 19.3136C33.3626 19.5886 33.1916 19.8965 33.0692 20.238C34.1589 18.9293 35.7388 17.941 37.2242 17.5184C36.8091 17.5124 36.3174 17.5911 35.8167 17.7579C35.7984 17.5891 35.7528 17.4206 35.6768 17.2589Z" fill="black"/>
<path d="M34.1089 27.1471C34.056 27.486 33.9835 27.9071 33.9305 28.2462C34.072 27.8625 34.2424 27.4168 34.407 27.0511C34.5817 26.6641 34.68 26.6276 35.0504 26.4234C35.313 26.2785 35.7901 26.0794 36.0527 25.9344C35.7825 25.9806 35.298 26.0813 35.0278 26.1275C34.3058 26.2511 34.2208 26.4267 34.1089 27.1471Z" fill="black"/>
<path d="M21.7772 14.0643C20.9392 14.9035 20.1256 17.7832 19.8655 18.9354C20.2752 17.9782 21.3001 15.301 22.0865 14.6198C22.3036 14.4315 22.4554 14.316 22.6184 14.232C22.0556 15.1884 22.0968 15.4263 22.2945 16.7078C22.4622 15.4051 22.9067 14.9017 23.6363 13.9298C24.4359 13.7264 25.1843 13.4829 26.0046 13.1586C25.0795 13.2646 24.1557 13.3616 23.2303 13.4503C22.4532 13.5251 22.3281 13.5123 21.7772 14.0643Z" fill="black"/>
<path d="M33.1912 18.9663C33.0385 18.6426 33.1751 18.2526 33.4953 18.0983C33.8155 17.9437 34.2012 18.0817 34.3539 18.4056C34.3685 18.4364 34.3799 18.4679 34.3895 18.4995C34.0836 18.7295 33.8033 19.0004 33.5681 19.3143C33.4099 19.2498 33.2696 19.1325 33.1912 18.9663Z" fill="#FFFFCC"/>
<path d="M40.3463 16.1616C40.372 15.8933 40.5976 15.6955 40.8622 15.7215C41.1266 15.7476 41.3221 15.9871 41.2967 16.2552C41.291 16.3124 41.2758 16.3658 41.2531 16.4151C41.0109 16.4571 40.7686 16.5289 40.519 16.6219C40.4148 16.5137 40.3317 16.3161 40.3463 16.1616Z" fill="#FFFFCC"/>
</g>
<defs>
<clipPath id="clip0_3702_45607">
<rect width="50" height="38" fill="white" transform="translate(0 6)"/>
</clipPath>
</defs>
</svg>
