<svg width="50" height="50" viewBox="0 0 50 50" fill="none" xmlns="http://www.w3.org/2000/svg">
<g clip-path="url(#clip0_3702_45555)">
<path d="M3 3H47V47H3V3Z" fill="#F0DB4F"/>
<path d="M43.3989 36.5061C43.0769 34.4985 41.7677 32.813 37.8906 31.2403C36.5438 30.6213 35.0423 30.178 34.5947 29.1574C34.4358 28.5635 34.4149 28.2289 34.5153 27.8692C34.8039 26.7023 36.1966 26.3384 37.3008 26.673C38.0118 26.9114 38.6852 27.4594 39.0909 28.3335C40.9898 27.1039 40.9856 27.1122 42.3115 26.2674C41.8263 25.5145 41.567 25.1673 41.2491 24.8453C40.1073 23.5697 38.5514 22.913 36.0628 22.9632C35.632 23.0176 35.1971 23.0761 34.7662 23.1305C33.5241 23.4442 32.3404 24.0966 31.6461 24.9708C29.5632 27.3339 30.1571 31.4704 32.6917 33.1727C35.1887 35.0465 38.8567 35.4731 39.3252 37.2255C39.781 39.3712 37.7484 40.0654 35.7282 39.8187C34.2392 39.5092 33.4111 38.7522 32.516 37.3761C30.8682 38.3297 30.8682 38.3297 29.1742 39.3043C29.5758 40.1826 29.9982 40.5799 30.6716 41.3411C33.8587 44.5742 41.8347 44.4153 43.2651 39.5217C43.3236 39.3544 43.7085 38.2335 43.3989 36.5061ZM26.9198 23.2225H22.8042C22.8042 26.7776 22.7876 30.3076 22.7876 33.8628C22.7876 36.1255 22.9047 38.2 22.5366 38.8358C21.9343 40.0863 20.3742 39.9316 19.6632 39.689C18.9396 39.3334 18.5716 38.8274 18.145 38.1122C18.0279 37.9073 17.94 37.7483 17.9107 37.7358C16.794 38.4175 15.6814 39.1034 14.5647 39.7852C15.121 40.927 15.9407 41.9183 16.9906 42.5623C18.559 43.5034 20.667 43.792 22.8712 43.2859C24.3058 42.8677 25.5438 42.0019 26.1921 40.6844C27.129 38.9571 26.9282 36.8658 26.9198 34.5529C26.9407 30.7803 26.9198 27.0076 26.9198 23.2225Z" fill="#323330"/>
</g>
<defs>
<clipPath id="clip0_3702_45555">
<rect width="44" height="44" fill="white" transform="translate(3 3)"/>
</clipPath>
</defs>
</svg>
