<svg width="50" height="50" viewBox="0 0 50 50" fill="none" xmlns="http://www.w3.org/2000/svg">
<g clip-path="url(#clip0_3702_45512)">
<path d="M18.1594 38.6562C18.1594 38.6562 16.2375 39.825 19.4953 40.1594C23.4172 40.6594 25.5062 40.5766 29.8469 39.7422C30.7192 40.2764 31.6419 40.7239 32.6016 41.0781C22.8359 45.2531 10.4766 40.8281 18.1578 38.6562H18.1594ZM16.9094 33.2297C16.9094 33.2297 14.8219 34.8156 18.0781 35.1516C22.3359 35.5687 25.675 35.6516 31.4375 34.4844C31.9979 35.0527 32.6841 35.4815 33.4406 35.7359C21.6687 39.2422 8.47812 36.0703 16.9094 33.2312V33.2297ZM39.9516 42.7453C39.9516 42.7453 41.3703 43.9141 38.3656 44.8328C32.7719 46.5047 14.9062 47.0047 9.89687 44.8328C8.14375 44.0828 11.4828 42.9969 12.5531 42.8297C13.6391 42.5797 14.225 42.5797 14.225 42.5797C12.3031 41.2437 1.45156 45.3344 8.71562 46.5016C28.6687 49.7578 45.1156 45.0828 39.9391 42.7453H39.9516ZM19.0625 27.5516C19.0625 27.5516 9.9625 29.7234 15.8062 30.4734C18.3109 30.8078 23.2359 30.7234 27.8281 30.3906C31.5844 30.0562 35.3437 29.3906 35.3437 29.3906C35.3437 29.3906 34.0078 29.975 33.0891 30.5594C23.8234 32.9812 6.03906 31.8953 11.1328 29.3906C15.4734 27.3031 19.0641 27.5547 19.0641 27.5547L19.0625 27.5516ZM35.3437 36.6516C44.6937 31.8078 40.3531 27.1359 37.3469 27.7187C36.5969 27.8859 36.2609 28.0531 36.2609 28.0531C36.2609 28.0531 36.5109 27.5531 37.0953 27.3859C43.0234 25.2984 47.6984 33.6469 35.1734 36.9016C35.1734 36.9016 35.2562 36.8187 35.3406 36.6516H35.3437ZM19.9844 49.8422C29 50.4266 42.7766 49.5078 43.1094 45.2484C43.1094 45.2484 42.4422 46.9203 35.6797 48.1703C27.9984 49.5891 18.4812 49.4203 12.8875 48.5047C12.8875 48.5047 14.0562 49.5047 19.9844 49.8406V49.8422Z" fill="#4E7896"/>
<path d="M29.6813 0.00158691C29.6813 0.00158691 34.8579 5.26096 24.7563 13.1922C16.6579 19.6203 22.9204 23.2938 24.7563 27.4688C19.9969 23.211 16.5751 19.4531 18.9126 15.9485C22.3344 10.7703 31.7688 8.28127 29.6813 0.00158691ZM27.0251 23.9625C29.4469 26.7172 26.3579 29.2219 26.3579 29.2219C26.3579 29.2219 32.536 26.05 29.6969 22.125C27.1094 18.3688 25.1032 16.5313 35.9579 10.2703C35.9579 10.2703 18.8438 14.5281 27.0251 23.9625Z" fill="#F58219"/>
</g>
<defs>
<clipPath id="clip0_3702_45512">
<rect width="50" height="50" fill="white"/>
</clipPath>
</defs>
</svg>
