<svg width="50" height="50" viewBox="0 0 50 50" fill="none" xmlns="http://www.w3.org/2000/svg">
<path d="M19.6743 23.3065H21.0286V30.5189C21.0286 32.4206 20.2229 33.7303 18.3543 33.7303C17.8057 33.7483 17.2571 33.6406 16.7257 33.4612V32.0798C17.1714 32.2592 17.6514 32.3489 18.1314 32.3489C19.28 32.3489 19.6743 31.6312 19.6743 30.5906V23.3065Z" fill="#20385B"/>
<path d="M23.5143 22.7502C24.0114 22.7502 24.4229 23.1808 24.4229 23.7011C24.4229 24.2214 24.0114 24.652 23.5143 24.652C23.0171 24.652 22.6057 24.2214 22.6057 23.7011C22.5714 23.2167 22.9314 22.7861 23.3943 22.7502C23.4286 22.7502 23.48 22.7502 23.5143 22.7502ZM22.8457 25.7823H24.1486V33.6764H22.8457V25.7823Z" fill="#20385B"/>
<path d="M27.3714 33.6765H26.1028V25.7824H27.3714V27.1818C27.8171 26.2489 28.5543 25.585 30.0457 25.6747V27.0024C28.3828 26.823 27.3714 27.3433 27.3714 29.0297V33.6765Z" fill="#20385B"/>
<path d="M36.1143 32.2591C35.6343 33.2997 34.7257 33.8379 33.56 33.8379C31.5543 33.8379 30.5428 32.0617 30.5428 29.7294C30.5428 27.5047 31.6057 25.6208 33.7143 25.6208C34.8114 25.6208 35.6686 26.1411 36.1143 27.1638V25.7823H37.4171V33.6764H36.1143V32.2591ZM33.92 32.5641C35.0857 32.5641 36.1314 31.7926 36.1314 30.0344V29.4064C36.1314 27.6482 35.1714 26.8767 34.0743 26.8767C32.6171 26.8767 31.8628 27.8814 31.8628 29.7114C31.8457 31.6311 32.5828 32.5641 33.92 32.5641Z" fill="#20385B"/>
<path d="M12.8686 21.6918H6.93713C6.93713 23.2347 8.13713 24.4906 9.61142 24.4906H10.7086V25.585C10.7086 27.1279 11.9086 28.3838 13.3828 28.3838V22.23C13.3828 21.925 13.1428 21.6918 12.8686 21.6918Z" fill="#0082FF"/>
<path d="M9.93717 24.7777H4.00574C4.00574 26.3207 5.20574 27.5765 6.68002 27.5765H7.77716V28.6889C7.77716 30.2318 8.97717 31.4877 10.4515 31.4877V25.3339C10.4515 25.0289 10.2115 24.7777 9.93717 24.7777Z" fill="url(#paint0_linear_3712_39055)"/>
<path d="M7.00571 27.8635H1.07428C1.07428 29.4065 2.27428 30.6623 3.74857 30.6623H4.82857V31.7568C4.82857 33.2997 6.02857 34.5556 7.50285 34.5556V28.3838C7.51999 28.1147 7.27999 27.8635 7.00571 27.8635Z" fill="url(#paint1_linear_3712_39055)"/>
<path d="M34.9828 18.1932C34.9828 17.4756 34.5371 17.1526 33.7143 16.9373C33.2 16.7938 33.08 16.6862 33.08 16.5068C33.08 16.2915 33.2686 16.1838 33.6114 16.1838C34.0228 16.2018 34.4343 16.3094 34.8114 16.5068V15.6097C34.4514 15.4303 34.04 15.3406 33.6457 15.3406C32.7371 15.3406 32.24 15.7891 32.24 16.5247C32.24 17.2244 32.6857 17.5832 33.44 17.7626C33.9714 17.8882 34.1257 17.9779 34.1257 18.2112C34.1257 18.3906 34.0057 18.5341 33.6114 18.5341C33.1314 18.5162 32.6514 18.3726 32.2228 18.1215V19.0723C32.6514 19.2876 33.1143 19.4132 33.5943 19.4132C34.52 19.4132 34.9828 18.9288 34.9828 18.1932Z" fill="#0052CC"/>
<path d="M45.3371 15.4124V19.3594H46.1428V16.3453L46.4857 17.1347L47.6171 19.3415H48.6285V15.3944H47.8228V17.9421L47.5142 17.2065L46.6057 15.3944H45.3371V15.4124Z" fill="#0052CC"/>
<path d="M40.2457 15.4124H39.3714V19.3594H40.2457V15.4124Z" fill="#0052CC"/>
<path d="M25.4343 15.4124V19.3594H27.2343L27.5086 18.4982H26.3086V15.4124H25.4343Z" fill="#0052CC"/>
<path d="M21.8685 15.4124V16.2735H22.8457V19.3594H23.72V16.2735H24.7657V15.4124H21.8685Z" fill="#0052CC"/>
<path d="M20.6 15.4124H19.4514L18.1314 19.3594H19.1428L19.3314 18.6956C19.5543 18.7674 19.7943 18.8032 20.0343 18.8032C20.2743 18.8032 20.5143 18.7674 20.7371 18.6956L20.9257 19.3594H21.9371L20.6 15.4124ZM20.0171 17.9779C19.8457 17.9779 19.6914 17.96 19.5371 17.9062L20.0171 16.1838L20.4971 17.9062C20.3428 17.96 20.1886 17.9779 20.0171 17.9779Z" fill="#0052CC"/>
<path d="M30.32 15.4124H29.1714L27.8514 19.3594H28.8629L29.0514 18.6956C29.2743 18.7674 29.5143 18.8032 29.7543 18.8032C29.9943 18.8032 30.2343 18.7674 30.4572 18.6956L30.6457 19.3594H31.6572L30.32 15.4124ZM29.7543 17.9779C29.5829 17.9779 29.4286 17.96 29.2743 17.9062L29.7543 16.1838L30.2343 17.9062C30.08 17.96 29.9086 17.9779 29.7543 17.9779Z" fill="#0052CC"/>
<path d="M43.4 15.4124H42.2514L40.9314 19.3594H41.9428L42.1314 18.6956C42.3543 18.7674 42.5943 18.8032 42.8343 18.8032C43.0743 18.8032 43.3143 18.7674 43.5371 18.6956L43.7257 19.3594H44.7371L43.4 15.4124ZM42.8171 17.9779C42.6457 17.9779 42.4914 17.96 42.3371 17.9062L42.8171 16.1838L43.2971 17.9062C43.1428 17.96 42.9885 17.9779 42.8171 17.9779Z" fill="#0052CC"/>
<path d="M38.4629 18.1932C38.4629 17.4756 38.0172 17.1526 37.1943 16.9373C36.68 16.7938 36.56 16.6862 36.56 16.5068C36.56 16.2915 36.7486 16.1838 37.0743 16.1838C37.4857 16.2018 37.8972 16.3094 38.2743 16.5068V15.6097C37.8972 15.4303 37.5029 15.3406 37.0914 15.3406C36.1829 15.3406 35.6857 15.7891 35.6857 16.5247C35.6857 17.2244 36.1314 17.5832 36.8857 17.7626C37.4172 17.8882 37.5714 17.9779 37.5714 18.2112C37.5714 18.3906 37.4514 18.5341 37.0572 18.5341C36.5772 18.5162 36.0972 18.3726 35.6686 18.1215V19.0723C36.0972 19.2876 36.56 19.4132 37.04 19.4132C38.0172 19.4132 38.4629 18.9288 38.4629 18.1932Z" fill="#0052CC"/>
<defs>
<linearGradient id="paint0_linear_3712_39055" x1="10.3199" y1="24.7908" x2="7.67979" y2="27.3923" gradientUnits="userSpaceOnUse">
<stop offset="0.18" stop-color="#0050D3"/>
<stop offset="1" stop-color="#0082FF"/>
</linearGradient>
<linearGradient id="paint1_linear_3712_39055" x1="7.55383" y1="27.8989" x2="4.50899" y2="30.7296" gradientUnits="userSpaceOnUse">
<stop offset="0.18" stop-color="#0050D3"/>
<stop offset="1" stop-color="#0082FF"/>
</linearGradient>
</defs>
</svg>
