<svg width="100" height="50" viewBox="0 0 100 50" fill="none" xmlns="http://www.w3.org/2000/svg">
<path d="M43.3129 22.8751L42.7013 25.0414L43.3129 22.8742V22.8751ZM46.4588 27.5806L45.785 27.5765L46.4588 27.5806ZM46.293 30.8176L42.2554 30.8326L46.293 30.8176ZM47.1383 27.5856L46.4637 27.5814L47.1383 27.5856ZM46.6477 30.5442L47.3521 27.8616L46.6477 30.5442ZM61.5152 18.196L60.2058 24.356L61.5152 18.196ZM58.1472 18.1877L57.1527 22.7897L58.1472 18.1877Z" fill="#131B28"/>
<path d="M61.2815 17.9118H58.4804C58.3246 17.9118 58.1704 18.0361 58.1373 18.1886L56.1483 27.3934C56.1152 27.545 55.961 27.6693 55.8061 27.6693H53.8229C51.8605 27.6693 52.0875 26.3127 52.4969 24.4538L52.5094 24.3975L52.7472 23.1295L52.85 22.6074L53.7549 18.1886C53.7864 18.0361 53.6845 17.911 53.5287 17.911H50.653C50.5737 17.9137 50.4975 17.9422 50.4359 17.9922C50.3743 18.0421 50.3306 18.1108 50.3116 18.1878L48.9997 24.332C48.287 27.584 48.4759 30.6851 52.3478 30.7821H58.5359C58.6917 30.7821 58.845 30.6577 58.8782 30.5053L61.4986 18.1853C61.5318 18.0328 61.4298 17.9085 61.2749 17.9085L61.2815 17.9118ZM72.4528 27.7017C72.6086 27.7017 72.7014 27.826 72.6791 27.9784L72.4072 29.3086M72.142 30.6387L72.4139 29.3077L72.142 30.6387ZM71.8106 30.9188L66.6476 30.9437L71.8106 30.9188Z" fill="#131B28"/>
<path d="M64.9668 25.9887C64.9643 25.8428 65.1301 25.5925 65.2859 25.5925L64.9362 25.5867C64.7704 27.1729 64.9668 25.9887 64.9668 25.9887ZM66.8936 30.942H66.8398H66.8936ZM72.4528 27.7099C72.6086 27.7099 72.7014 27.8343 72.679 27.9867L72.3699 29.5249M68.2196 30.9395H68.208H68.2196ZM67.5318 30.942H67.492H67.5318ZM67.3229 30.942H67.2566H67.3229ZM67.1091 30.942H67.0511H67.1091ZM67.492 30.942H67.3221H67.492Z" fill="#131B28"/>
<path d="M68.2097 30.9395L67.5334 30.942L68.2097 30.9395ZM71.8039 30.9171L68.2196 30.9386L71.8039 30.9171ZM72.1354 30.6395L72.3633 29.5257L72.1354 30.6403V30.6395ZM67.2491 30.942H67.1016H67.2491ZM66.8306 30.9436H66.6317H66.8306ZM67.0411 30.942H66.8754H67.0411ZM26.0536 26.0218L26.4887 24.0925L25.9915 26.2969L25.9335 26.5737L26.0545 26.0201L26.0536 26.0218ZM31.2647 17.8795H28.1876C28.1081 17.8826 28.0317 17.911 27.9695 17.9607C27.9073 18.0103 27.8627 18.0786 27.842 18.1554L27.2586 20.7245C27.2488 20.7578 27.2472 20.7929 27.2538 20.8269C27.2605 20.8609 27.2753 20.8928 27.2969 20.9199C27.3186 20.947 27.3464 20.9685 27.3781 20.9825C27.4098 20.9965 27.4445 21.0027 27.4791 21.0005H30.5802C30.736 21.0005 30.8901 20.8762 30.9233 20.7245L31.4868 18.1496C31.52 17.998 31.4205 17.8737 31.2631 17.8737L31.2647 17.8795ZM30.6017 22.164L29.6901 26.3392L30.6017 22.164ZM21.663 35.9972L24.2006 36.0171C23.4514 36.0171 22.2141 36.003 21.6622 35.9964L21.663 35.9972Z" fill="#131B28"/>
<path d="M26.933 22.1632L26.497 24.0925L26.933 22.1632ZM30.3805 21.8864H27.2868C27.2073 21.8895 27.1309 21.918 27.0687 21.9676C27.0065 22.0173 26.9619 22.0855 26.9412 22.1624L26.0711 26.0209L25.9501 26.5745L25.1213 30.5135C25.0803 30.6973 25.0305 30.879 24.9722 31.058C24.9722 31.058 24.3921 32.7817 23.4191 32.7627L22.4537 32.7444C22.3745 32.7467 22.298 32.7741 22.2355 32.8226C22.1729 32.8712 22.1274 32.9385 22.1056 33.0146L21.4625 35.7179C21.4523 35.751 21.4503 35.786 21.4565 35.82C21.4628 35.854 21.4771 35.886 21.4983 35.9134C21.5195 35.9407 21.547 35.9625 21.5784 35.9769C21.6098 35.9914 21.6443 35.9981 21.6788 35.9964L24.2172 36.0171C26.6504 36.0171 27.9324 34.6688 28.7553 30.7903L30.62 22.1715C30.6531 22.0198 30.552 21.8955 30.3962 21.8955L30.3805 21.8864ZM74.436 30.7845C74.2802 30.7845 74.1874 30.6602 74.2122 30.5077L76.5468 19.58M77.6788 30.5077L78.6236 25.8436L77.6788 30.5077Z" fill="#131B28"/>
<path d="M74.247 30.6469C74.228 30.5707 74.2387 30.3842 74.2719 30.2326L75.3791 25.0447L74.2122 30.5085C74.1791 30.661 74.2802 30.7853 74.436 30.7853H74.7194C74.5636 30.7853 74.2653 30.7232 74.247 30.6469ZM77.4957 30.7232C77.4111 30.7563 77.2139 30.7853 77.0581 30.7853H77.3415C77.4206 30.7822 77.4966 30.7534 77.5578 30.7033C77.6191 30.6533 77.6625 30.5846 77.6813 30.5077L77.7377 30.2309C77.707 30.3834 77.5719 30.6892 77.489 30.7232H77.4957ZM78.152 28.1756L78.5689 26.1171L78.152 28.1756ZM87.3576 20.3126L87.4861 20.843C87.5217 20.9947 87.4231 21.1182 87.2681 21.119" fill="#131B28"/>
<path d="M77.736 30.231L78.1503 28.1757L77.736 30.231ZM87.2291 19.7682L87.3559 20.3118L87.2291 19.7682ZM78.5688 26.1188L78.6832 25.5685L79.1282 23.4842L78.6244 25.8445L78.5688 26.1179V26.1188ZM76.584 19.4011L76.4871 19.8569L75.3799 25.0447L76.5467 19.5809L76.584 19.4019V19.4011Z" fill="#131B28"/>
<path d="M87.486 20.843L87.3576 20.3126L87.167 19.4839C86.915 18.506 86.1758 17.94 84.5697 17.94L77.1774 17.935C77.0981 17.9377 77.0219 17.9662 76.9603 18.0162C76.8987 18.0661 76.855 18.1348 76.836 18.2118L76.7216 18.753L76.5559 19.5709L74.2818 30.2226C74.2487 30.3751 74.2379 30.5541 74.257 30.637C74.276 30.7199 74.5744 30.7754 74.7293 30.7754H77.0664C77.2222 30.7754 77.4186 30.7472 77.5039 30.7132C77.5893 30.6793 77.7144 30.3817 77.7526 30.221L78.6393 25.8337L79.5882 21.3883C79.6214 21.2367 79.7747 21.1132 79.9296 21.1124L87.283 21.109C87.438 21.109 87.5366 20.9847 87.501 20.8331L87.486 20.843ZM96.9518 16.0413L96.3858 16.0438H94.0322C93.946 16.049 93.862 16.0725 93.7856 16.1128C93.7093 16.1531 93.6425 16.2093 93.5897 16.2775L88.3852 23.9019C88.2974 24.0303 88.1971 24.0113 88.1615 23.8604L87.7786 22.1806C87.758 22.1037 87.7133 22.0355 87.6511 21.9859C87.5889 21.9362 87.5125 21.9077 87.433 21.9046H84.0874C83.9316 21.9046 83.8388 22.0265 83.8819 22.1765L85.3736 27.429C85.4167 27.5781 85.4192 27.8243 85.3819 27.9759L84.7189 30.5177C84.7076 30.5502 84.7046 30.5851 84.7102 30.6192C84.7158 30.6532 84.7299 30.6853 84.751 30.7126C84.7722 30.7398 84.7998 30.7613 84.8314 30.7752C84.863 30.7891 84.8975 30.7948 84.9319 30.792H88.2468C88.4026 30.792 88.5617 30.6677 88.5999 30.5185L89.2628 27.9768C89.3148 27.7978 89.396 27.6287 89.5032 27.4762L97.9529 16.2618C98.0466 16.1375 97.996 16.0364 97.8402 16.038L96.9535 16.0438L96.9518 16.0413ZM70.3694 22.6198C70.3495 22.7856 70.1937 22.9099 70.0379 22.9099H65.7948C65.6481 22.9099 65.5735 22.8104 65.5959 22.6861L65.5992 22.6637L65.6182 22.5916C66.0326 21.5143 66.8489 20.8074 68.3995 20.8074C70.1456 20.8074 70.4862 21.661 70.3677 22.6198H70.3694ZM69.1263 17.7237C63.6815 17.7237 62.3912 21.0287 61.6677 24.3643C60.9434 27.7646 61.0063 30.9445 66.6401 30.9445H67.5334L68.2213 30.942L71.8064 30.9204C71.8851 30.9168 71.9604 30.8878 72.0212 30.8377C72.082 30.7877 72.125 30.7193 72.1437 30.6428L72.6882 27.9809C72.7197 27.8284 72.6177 27.7041 72.4619 27.7041H67.3975C65.3837 27.7041 64.7845 27.1687 65.005 25.595H73.1017C73.2343 25.5925 73.3545 25.5121 73.4017 25.3861C73.41 25.3638 73.4183 25.3397 73.4216 25.3157C74.6233 20.7825 74.2785 17.727 69.1288 17.727L69.1263 17.7237ZM43.3891 22.6024L43.3129 22.8734C43.3129 22.8742 42.7013 25.0414 42.7013 25.0414L42.0897 27.2077C42.0643 27.2841 42.0163 27.3509 41.9521 27.3995C41.8878 27.448 41.8104 27.4759 41.73 27.4795H38.4938C36.0391 27.4795 35.4416 25.5593 36.0391 22.7276C36.6358 19.8311 37.8084 18.0303 40.2242 17.848C43.5259 17.5994 44.1855 19.9215 43.39 22.6016L43.3891 22.6024ZM45.6085 27.3138C45.6085 27.3138 47.1333 23.6093 47.4814 21.4687C47.9538 18.6038 46.5201 14.4493 40.98 14.4493C35.4714 14.4493 33.0797 18.4157 32.1672 22.7367C31.2556 27.0792 32.4507 30.8881 37.9269 30.8583L46.2856 30.8276C46.3657 30.8238 46.4427 30.7953 46.506 30.746C46.5694 30.6968 46.616 30.6292 46.6394 30.5525L47.3438 27.869C47.3552 27.8365 47.3584 27.8017 47.3529 27.7677C47.3475 27.7337 47.3336 27.7016 47.3126 27.6743C47.2917 27.6469 47.2642 27.6253 47.2328 27.6113C47.2013 27.5972 47.1669 27.5913 47.1325 27.5939H45.7842C45.6516 27.5931 45.577 27.5077 45.5919 27.395C45.5944 27.3743 45.6002 27.3535 45.6085 27.332V27.3138Z" fill="#131B28"/>
<path d="M72.8755 24.8343C72.8755 24.937 72.7926 25.0199 72.6898 25.0199C72.5871 25.0199 72.5042 24.937 72.5042 24.8343C72.5042 24.7315 72.5871 24.6486 72.6898 24.6486C72.7926 24.6486 72.8755 24.7315 72.8755 24.8343Z" fill="#131B28"/>
<path d="M3.07883 19.7626C1.57498 21.875 1.76183 24.6231 2.91083 26.8667L2.99524 27.0269L3.04933 27.1278L3.08211 27.1862L3.14194 27.2903L3.25175 27.4745L3.31404 27.5754L3.44107 27.77L3.49516 27.8516L3.67955 28.1119L3.71561 28.1599L3.88362 28.3785L3.94672 28.457L4.11063 28.6436L4.16964 28.7132L4.386 28.9551L4.39911 28.9687L4.61874 29.1953L4.68922 29.2649L4.86461 29.4251L4.93673 29.4915L5.17685 29.7053L5.22274 29.743L5.44156 29.9231L5.52351 29.9936L5.70545 30.1329L5.8038 30.213L6.00868 30.3571L6.10375 30.4228L6.30208 30.5509L6.38813 30.607L6.69955 30.7927L6.7856 30.8408L7.01917 30.9689L7.14866 31.033L7.31584 31.1178L7.35436 31.1363L7.42238 31.1683L7.6871 31.2884L7.74282 31.3124L8.05179 31.4373L8.12719 31.4662L8.41812 31.5718L8.455 31.5847L8.77954 31.6888L8.85822 31.7112L9.18603 31.8041C16.4594 33.1012 18.5722 27.533 18.5722 27.533C16.7979 29.791 13.655 30.3876 10.6637 29.7246C10.5506 29.7005 10.4407 29.6653 10.3309 29.6333L10.249 29.6093C10.1419 29.577 10.0353 29.5431 9.92935 29.5076L9.8851 29.4915C9.79003 29.4595 9.6966 29.4243 9.60236 29.3891L9.52286 29.3586C9.4202 29.3191 9.31829 29.2777 9.21717 29.2345L9.15653 29.2081L8.89919 29.0912L8.81724 29.0559C8.75004 29.0239 8.68447 28.9903 8.61809 28.9567L8.48533 28.8886C8.40505 28.8465 8.32554 28.803 8.24684 28.7581L8.16653 28.714C8.06177 28.6536 7.95795 28.5917 7.8551 28.5283C7.82642 28.5106 7.79937 28.4914 7.77151 28.4738L7.55023 28.3297C7.52565 28.3137 7.5027 28.2977 7.47893 28.2816L7.26995 28.1335L7.17734 28.0654L6.98885 27.9213L6.90444 27.8556L6.66923 27.6619C6.66103 27.6539 6.65284 27.6483 6.64464 27.6411C6.56105 27.561 6.4791 27.4953 6.39714 27.4217L6.32748 27.356L6.14964 27.1862L6.07998 27.1182C6.00602 27.0444 5.93334 26.9694 5.86198 26.8932C5.78321 26.809 5.70589 26.7236 5.63005 26.6369L5.57269 26.5697L5.4137 26.3775L5.35633 26.2974L5.17275 26.0588C3.52384 23.8552 2.92804 20.8092 4.26143 18.3077M7.75512 17.9834C6.66759 19.5048 6.7266 21.5603 7.57482 23.177C7.71687 23.4488 7.8776 23.711 8.05589 23.9617C8.2198 24.1899 8.40009 24.4613 8.61563 24.6447L8.85985 24.8849L8.92378 24.9466L9.17292 25.1732L9.18521 25.1836L9.47615 25.419L9.54171 25.4695L9.84658 25.6857L10.0597 25.8242L10.285 25.9603L10.3178 25.9787L10.5178 26.0876L10.5891 26.1237L10.7284 26.1941L10.7497 26.2037L11.0406 26.3367L11.1046 26.3623L11.3504 26.4568L11.4529 26.4936L11.6717 26.5681L11.77 26.6001C11.8749 26.6321 11.9782 26.6802 12.0872 26.6898C17.7035 27.5986 19 23.3747 19 23.3747C17.8313 25.0195 15.5678 25.8042 13.1526 25.1924L12.8346 25.1027L12.7387 25.0723L12.5175 24.997L12.4167 24.9602L12.1773 24.8657L12.1118 24.8393L11.8192 24.7064L11.6717 24.6263L11.5873 24.5839L11.3578 24.4557L11.1324 24.3212L10.9194 24.1827L10.6161 23.9665L10.5481 23.9136C9.4827 23.0985 8.65251 21.9919 8.2534 20.7203C7.84363 19.4095 7.92558 17.9386 8.64923 16.7447M11.6733 16.6542C11.0324 17.575 10.9685 18.7201 11.4144 19.7394C11.8831 20.8204 12.8453 21.6612 13.9672 22.0615L14.1065 22.1096L14.168 22.1288L14.368 22.1849C17.4691 22.7694 18.3018 20.6298 18.5337 20.3151C17.7961 21.3513 16.5668 21.6003 15.0392 21.24C14.9148 21.2079 14.7918 21.171 14.6704 21.1295C14.5217 21.078 14.3759 21.019 14.2336 20.9525C13.9635 20.8256 13.7071 20.6727 13.4681 20.4961C12.1077 19.4872 11.2554 17.5654 12.1511 16" fill="#0868AC"/>
</svg>
