<svg width="50" height="50" viewBox="0 0 50 50" fill="none" xmlns="http://www.w3.org/2000/svg">
<path d="M34.437 27.6938C33.5053 27.6942 32.5844 27.8924 31.736 28.2751C30.8876 28.6577 30.1312 29.216 29.5175 29.9125L26.435 27.7438C26.7621 26.8484 26.9508 25.8875 26.9508 24.8813C26.9486 23.9212 26.78 22.9688 26.4523 22.0656L29.5285 19.9203C30.142 20.6139 30.8973 21.1697 31.7439 21.5507C32.5905 21.9317 33.5092 22.129 34.4386 22.1297C36.1778 22.1264 37.8447 21.4385 39.0745 20.2167C40.3043 18.995 40.9967 17.3388 41 15.6109C40.9967 13.8831 40.3043 12.2269 39.0745 11.0051C37.8447 9.78335 36.1778 9.09549 34.4386 9.09219C32.6994 9.09549 31.0324 9.78335 29.8026 11.0051C28.5729 12.2269 27.8805 13.8831 27.8772 15.6109C27.8772 16.2547 27.9747 16.8609 28.1508 17.4625L25.073 19.6094C23.7865 18.025 21.9354 16.9172 19.8264 16.5781V12.8906C21.2985 12.5805 22.6189 11.7781 23.5672 10.6173C24.5155 9.45644 25.0343 8.00753 25.0368 6.5125C25.0318 4.78545 24.3385 3.13066 23.1086 1.91018C21.8787 0.6897 20.2122 0.00288509 18.4738 0C16.7347 0.00330377 15.0677 0.691159 13.8379 1.91295C12.6081 3.13473 11.9158 4.79088 11.9124 6.51875C11.9124 9.6125 14.0938 12.2016 17.0081 12.8672V16.6172C13.0322 17.2922 10 20.7391 10 24.8828C10 29.0469 13.0621 32.5078 17.0663 33.1766V37.1188C14.1253 37.7438 11.914 40.3687 11.914 43.4812C11.9173 45.2088 12.6095 46.8648 13.8389 48.0865C15.0684 49.3082 16.7349 49.9963 18.4738 50C20.213 49.9967 21.88 49.3088 23.1098 48.0871C24.3396 46.8653 25.0319 45.2091 25.0353 43.4812C25.0353 40.3672 22.8256 37.7625 19.883 37.1188V33.1766C21.9511 32.8328 23.7676 31.7453 25.0416 30.1969L28.1445 32.3797C27.9671 32.9747 27.8765 33.5919 27.8756 34.2125C27.8789 35.9404 28.5713 37.5965 29.8011 38.8183C31.0309 40.0401 32.6978 40.7279 34.437 40.7313C36.1762 40.7279 37.8432 40.0401 39.073 38.8183C40.3027 37.5965 40.9951 35.9404 40.9984 34.2125C40.9951 32.4846 40.3027 30.8285 39.073 29.6067C37.8432 28.3849 36.1762 27.6971 34.437 27.6938ZM34.437 12.4531C36.1906 12.4531 37.6171 13.8719 37.6171 15.6141C37.6171 17.3563 36.1906 18.7734 34.437 18.7734C32.6834 18.7734 31.257 17.3563 31.257 15.6141C31.257 13.8719 32.6834 12.4531 34.437 12.4531ZM15.2938 6.51875C15.2938 4.77656 16.7203 3.35938 18.4754 3.35938C20.2306 3.35938 21.6555 4.77656 21.6555 6.51875C21.6555 8.26094 20.229 9.67812 18.4754 9.67812C16.7218 9.67812 15.2938 8.26094 15.2938 6.51875ZM21.6539 43.4844C21.6539 45.2266 20.2274 46.6437 18.4738 46.6437C16.7203 46.6437 15.2922 45.2266 15.2922 43.4844C15.2922 41.7422 16.7187 40.325 18.4738 40.325C20.229 40.325 21.6539 41.7422 21.6539 43.4844ZM18.4723 29.2937C16.0251 29.2937 14.0372 27.3172 14.0372 24.8875C14.0372 22.4578 16.0267 20.4812 18.4723 20.4812C20.9179 20.4812 22.9074 22.4578 22.9074 24.8875C22.9074 27.3172 20.9179 29.2937 18.4723 29.2937ZM34.4354 37.375C32.6819 37.375 31.2554 35.9562 31.2554 34.2141C31.2554 32.4719 32.6819 31.0547 34.4354 31.0547C36.189 31.0547 37.6155 32.4719 37.6155 34.2141C37.6155 35.9562 36.189 37.375 34.4354 37.375Z" fill="black"/>
</svg>
