<svg width="50" height="50" viewBox="0 0 50 50" fill="none" xmlns="http://www.w3.org/2000/svg">
<g clip-path="url(#clip0_3702_45474)">
<path d="M24.8504 1.71398C24.4211 1.7392 24.0013 1.8504 23.6159 2.04098L6.89839 10.015C6.02539 10.4305 5.39089 11.221 5.17339 12.163L1.08139 30.0595C0.886387 30.8995 1.04389 31.78 1.53139 32.5C1.58839 32.587 1.64839 32.671 1.71139 32.752L13.2614 47.113C13.8719 47.863 14.7884 48.2935 15.7544 48.289H34.2794C35.2484 48.2905 36.1664 47.839 36.7754 47.0995L48.3194 32.7355C48.9254 31.9855 49.1519 30.9955 48.9194 30.0565L44.8004 12.145C44.5829 11.203 43.9454 10.4125 43.0754 9.99698L26.3849 2.04248C25.9039 1.80527 25.3712 1.69233 24.8354 1.71398H24.8504Z" fill="#326CE5"/>
<path d="M25.0034 7.81299C24.4274 7.85349 23.9909 8.34699 24.0209 8.92299V9.20499C24.0479 9.52449 24.0959 9.84099 24.1589 10.1545C24.2509 10.7548 24.2841 11.3627 24.2579 11.9695C24.2009 12.169 24.0869 12.349 23.9309 12.487L23.9084 12.91C23.3009 12.961 22.6979 13.054 22.1039 13.189C19.6049 13.753 17.3294 15.049 15.5729 16.9165L15.2129 16.6615C15.0149 16.7215 14.8019 16.699 14.6204 16.6015C14.1335 16.2411 13.6829 15.8342 13.2749 15.3865C13.07 15.1416 12.8511 14.9087 12.6194 14.689L12.3974 14.512C12.1994 14.353 11.9564 14.2615 11.7029 14.2495C11.5516 14.2415 11.4006 14.2694 11.2622 14.3309C11.1237 14.3924 11.0018 14.4858 10.9064 14.6035C10.5674 15.079 10.6784 15.7375 11.1524 16.078L11.3594 16.243C11.6259 16.4203 11.9023 16.582 12.1874 16.7275C12.7184 17.023 13.2194 17.3695 13.6844 17.7775C13.8034 17.9471 13.8725 18.1466 13.8839 18.3535L14.2109 18.6535C12.4454 21.3025 11.7209 24.511 12.1739 27.6625L11.7539 27.7825C11.6444 27.9565 11.4989 28.105 11.3249 28.2145C10.7389 28.371 10.1391 28.4699 9.53391 28.51C9.21273 28.5165 8.8922 28.5416 8.57391 28.585L8.30841 28.645H8.27841C8.09416 28.6706 7.92062 28.7468 7.77712 28.8651C7.63361 28.9835 7.52577 29.1393 7.4656 29.3153C7.40542 29.4914 7.39528 29.6806 7.4363 29.862C7.47731 30.0435 7.56788 30.21 7.69791 30.343C7.82916 30.4753 7.99462 30.5686 8.1758 30.6123C8.35699 30.656 8.54676 30.6484 8.72391 30.5905H8.74341L9.01341 30.5605C9.31791 30.4705 9.61791 30.3595 9.91041 30.2335C10.4729 30.0085 11.0564 29.836 11.6534 29.7235C11.8604 29.7355 12.0584 29.806 12.2264 29.926L12.6764 29.851C13.6514 32.8765 15.7004 35.44 18.4364 37.0555L18.2534 37.438C18.3374 37.6135 18.3689 37.8085 18.3434 38.002C18.0959 38.575 17.7929 39.124 17.4389 39.64C17.2447 39.896 17.0654 40.1629 16.9019 40.4395L16.7744 40.7095C16.6819 40.87 16.6355 41.0529 16.6404 41.238C16.6454 41.4232 16.7013 41.6034 16.8022 41.7587C16.9031 41.9141 17.0449 42.0385 17.2121 42.1184C17.3792 42.1982 17.5652 42.2302 17.7494 42.211C17.9341 42.1902 18.1093 42.1187 18.2558 42.0043C18.4022 41.8899 18.5141 41.7371 18.5789 41.563L18.7034 41.308C18.8174 41.008 18.9134 40.702 18.9914 40.393C19.2569 39.7375 19.4009 39.034 19.7639 38.599C19.8825 38.4875 20.0321 38.4143 20.1929 38.389L20.4179 37.9795C23.3838 39.1195 26.6655 39.1275 29.6369 38.002L29.8364 38.3845C30.0404 38.4145 30.2234 38.527 30.3464 38.692C30.6284 39.229 30.8564 39.7915 31.0304 40.372C31.1097 40.6828 31.2069 40.9888 31.3214 41.2885L31.4459 41.5435C31.5114 41.717 31.6236 41.8689 31.7701 41.9826C31.9165 42.0963 32.0916 42.1672 32.2759 42.1875C32.4602 42.2079 32.6466 42.1768 32.8143 42.0979C32.9821 42.0189 33.1247 41.895 33.2264 41.74C33.3271 41.584 33.3827 41.4032 33.3869 41.2176C33.3912 41.032 33.3439 40.8489 33.2504 40.6885L33.1199 40.4185C32.9564 40.1429 32.7771 39.8769 32.5829 39.622C32.2379 39.124 31.9409 38.593 31.6829 38.0365C31.6588 37.9347 31.6555 37.8292 31.673 37.7261C31.6905 37.6231 31.7286 37.5246 31.7849 37.4365C31.7209 37.3057 31.6653 37.1709 31.6184 37.033C34.3484 35.4055 36.3884 32.833 37.3529 29.803L37.7789 29.878C37.9319 29.7385 38.1329 29.665 38.3384 29.671C38.9339 29.785 39.5174 29.971 40.0814 30.181C40.3739 30.316 40.6739 30.43 40.9784 30.526C41.0504 30.5455 41.1554 30.562 41.2364 30.5815H41.2559C41.433 30.6387 41.6224 30.6456 41.8031 30.6014C41.9839 30.5573 42.1488 30.4639 42.2796 30.3316C42.4104 30.1992 42.5018 30.0332 42.5438 29.8519C42.5858 29.6707 42.5767 29.4813 42.5174 29.305C42.4568 29.1288 42.3484 28.9729 42.2043 28.8548C42.0602 28.7366 41.8861 28.6609 41.7014 28.636L41.4104 28.567C41.0921 28.5236 40.7716 28.4985 40.4504 28.492C39.8444 28.453 39.2444 28.354 38.6594 28.1965C38.4794 28.096 38.3294 27.946 38.2274 27.7645L37.8224 27.6445C38.2542 24.4945 37.5144 21.2956 35.7434 18.655L36.0974 18.328C36.0824 18.1225 36.1499 17.9185 36.2834 17.761C36.7439 17.365 37.2434 17.0155 37.7684 16.717C38.0535 16.5715 38.3299 16.4097 38.5964 16.2325L38.8154 16.0555C38.9767 15.9554 39.1063 15.8117 39.1892 15.641C39.2722 15.4704 39.3052 15.2797 39.2843 15.0911C39.2635 14.9024 39.1896 14.7236 39.0713 14.5752C38.953 14.4268 38.7951 14.3149 38.6159 14.2525C38.4368 14.1902 38.2438 14.1798 38.059 14.2225C37.8743 14.2652 37.7054 14.3593 37.5719 14.494L37.3499 14.671C37.1183 14.8908 36.8994 15.1237 36.6944 15.3685C36.2984 15.8215 35.8604 16.234 35.3849 16.603C35.193 16.6811 34.9831 16.704 34.7789 16.669L34.3994 16.939C32.2094 14.644 29.2589 13.219 26.0969 12.934C26.0969 12.784 26.0774 12.559 26.0744 12.4885C25.9049 12.3715 25.7864 12.193 25.7474 11.9905C25.7266 11.3847 25.7648 10.7784 25.8614 10.18C25.9259 9.86499 25.9709 9.54999 25.9994 9.23049V8.93049C26.0294 8.35449 25.5944 7.86099 25.0169 7.82049L25.0034 7.81299ZM23.7524 15.562L23.4524 20.8015H23.4299C23.4149 21.1255 23.2244 21.4015 22.9319 21.5575C22.6394 21.7135 22.2929 21.667 22.0319 21.4765L17.7344 18.4315C19.1023 17.088 20.8183 16.1533 22.6889 15.733C23.0399 15.658 23.3939 15.601 23.7494 15.562H23.7524ZM26.2544 15.562C28.5119 15.8425 30.6134 16.8565 32.2394 18.448L27.9824 21.4735C27.7199 21.6835 27.3599 21.7255 27.0554 21.5815C26.7509 21.4375 26.5559 21.1315 26.5514 20.7955L26.2544 15.562ZM16.1744 20.4025L20.1044 23.9095V23.932C20.3489 24.145 20.4554 24.4765 20.3834 24.793C20.3114 25.1095 20.0684 25.36 19.7579 25.4455V25.4605L14.7149 26.911C14.4654 24.639 14.9794 22.3485 16.1759 20.401L16.1744 20.4025ZM33.8039 20.4025C34.9979 22.345 35.5259 24.6235 35.3069 26.893L30.2564 25.438V25.4185C29.9414 25.333 29.7014 25.0825 29.6309 24.766C29.5604 24.4495 29.6654 24.121 29.9099 23.905L33.8099 20.4145L33.8039 20.4025ZM24.1979 24.1825H25.8059L26.7884 25.4305L26.4314 26.9905L24.9869 27.685L23.5394 26.9905L23.1989 25.4305L24.1979 24.1825ZM29.3489 28.4395C29.4164 28.432 29.4989 28.432 29.5514 28.4395L34.7519 29.317C34.0019 31.477 32.5214 33.322 30.5894 34.5565L28.5794 29.6905C28.5241 29.5599 28.5011 29.418 28.5121 29.2767C28.5231 29.1354 28.5679 28.9987 28.6427 28.8783C28.7176 28.7579 28.8202 28.6573 28.9421 28.5848C29.0639 28.5124 29.2014 28.4702 29.3429 28.462L29.3489 28.4395ZM20.6144 28.462C20.9084 28.4665 21.1799 28.618 21.3404 28.864C21.5009 29.11 21.5264 29.419 21.4109 29.689V29.7085L19.4129 34.5355C17.5004 33.31 16.0484 31.4875 15.2759 29.35L20.4314 28.4755C20.4884 28.4695 20.5469 28.4695 20.6054 28.4755L20.6144 28.462ZM24.9704 30.562C25.1343 30.5568 25.2964 30.5973 25.4386 30.6789C25.5809 30.7604 25.6976 30.8799 25.7759 31.024H25.7954L28.3364 35.6095L27.3209 35.9095C25.4519 36.337 23.5004 36.2365 21.6839 35.6185L24.2339 31.033C24.3884 30.763 24.6734 30.598 24.9839 30.5905L24.9704 30.562Z" fill="white" stroke="white" stroke-width="0.11"/>
</g>
<defs>
<clipPath id="clip0_3702_45474">
<rect width="48" height="48" fill="white" transform="translate(1 1)"/>
</clipPath>
</defs>
</svg>
