<svg width="32" height="32" viewBox="0 0 32 32" fill="none" xmlns="http://www.w3.org/2000/svg">
<path d="M18.4836 1.78612C17.4652 1.46485 16.3741 1.28906 15.2466 1.28906C11.9551 1.28906 9.00912 2.77418 7.03906 5.114L12.1006 9.36932L18.4836 1.78612Z" fill="#1A73E8"/>
<path d="M7.03299 5.10938C5.41023 7.03677 4.52132 9.47592 4.52344 11.9955C4.52344 14.008 4.92351 15.6446 5.58424 17.1055L12.0945 9.36469L7.03299 5.10938Z" fill="#EA4335"/>
<path d="M15.2415 7.90533C16.0229 7.90605 16.7878 8.13003 17.4462 8.5509C18.1045 8.97177 18.6289 9.57201 18.9576 10.2809C19.2862 10.9898 19.4055 11.7779 19.3013 12.5523C19.1971 13.3267 18.8737 14.0552 18.3694 14.652L24.7463 7.06881C23.4374 4.54698 21.1808 2.64796 18.4724 1.78906L12.1016 9.37226C12.4854 8.91255 12.9657 8.54285 13.5083 8.28935C14.0509 8.03585 14.6426 7.90475 15.2415 7.90533Z" fill="#4285F4"/>
<path d="M15.2422 16.1035C12.9812 16.1035 11.1445 14.2668 11.1445 12.0058C11.1419 11.0431 11.4813 10.1107 12.1023 9.375L5.58594 17.1158C6.70129 19.5829 8.55011 21.5651 10.4535 24.0625L18.3701 14.6547C17.9855 15.1092 17.5063 15.4743 16.9661 15.7245C16.4259 15.9747 15.8376 16.104 15.2422 16.1035Z" fill="#FBBC04"/>
<path d="M18.2139 26.6219C21.7903 21.033 25.9547 18.4931 25.9547 11.995C25.9547 10.2128 25.5182 8.53374 24.7484 7.05469L10.4609 24.0578C11.0671 24.8519 11.6793 25.6944 12.2734 26.6279C14.4435 29.9861 13.8434 31.9986 15.2436 31.9986C16.6439 31.9986 16.0438 29.9801 18.2139 26.6219Z" fill="#34A853"/>
</svg>
