<svg width="50" height="50" viewBox="0 0 50 50" fill="none" xmlns="http://www.w3.org/2000/svg">
<g clip-path="url(#clip0_3712_38827)">
<path d="M9.06157 38.8276L10.8784 45.893H9.50691L8.29676 40.8037L6.01523 45.893H4.85672L2.5881 40.8329L1.34246 45.893H0L1.8007 38.8276H2.98825L5.44082 44.2982L7.8837 38.8276H9.06157Z" fill="#003545"/>
<path d="M16.0595 41.5581V40.7355H17.3842V45.893H16.0595V45.0623C15.7094 45.6594 14.9897 46.0017 14.1136 46.0017C12.2822 46.0017 11.2609 44.7038 11.2609 43.2112C11.2609 41.7722 12.229 40.6155 13.9183 40.6155C14.8816 40.6268 15.6803 40.9513 16.0595 41.5581ZM12.6711 43.281C12.6711 44.2301 13.2649 45.0429 14.4137 45.0429C15.5222 45.0429 16.1256 44.2495 16.1256 43.3102C16.1256 42.3709 15.5028 41.5678 14.3508 41.5678C13.2471 41.5678 12.6727 42.3692 12.6727 43.281H12.6711Z" fill="#003545"/>
<path d="M20.3708 45.893H19.0477V40.7355H20.3708V41.8906C20.5221 41.5211 20.778 41.2043 21.1067 40.9797C21.4354 40.755 21.8225 40.6323 22.2199 40.6268C22.5017 40.6229 22.7819 40.6691 23.0477 40.7631L22.7653 41.7365C22.5367 41.6755 22.3015 41.6428 22.065 41.6392C21.1098 41.6392 20.3708 42.3627 20.3708 43.4237V45.893Z" fill="#003545"/>
<path d="M23.7092 39.3744C23.7066 39.2808 23.7233 39.1877 23.7584 39.101C23.7934 39.0143 23.8459 38.9358 23.9126 38.8705C23.9794 38.8053 24.0588 38.7546 24.146 38.7218C24.2332 38.689 24.3262 38.6748 24.4192 38.68C24.5139 38.6769 24.6083 38.6932 24.6965 38.7279C24.7848 38.7627 24.8651 38.8151 24.9325 38.882C25 38.949 25.0532 39.029 25.089 39.1173C25.1247 39.2055 25.1422 39.3002 25.1404 39.3955C25.1423 39.4894 25.1246 39.5826 25.0884 39.6692C25.0523 39.7559 24.9985 39.8339 24.9306 39.8984C24.8627 39.9629 24.7821 40.0124 24.694 40.0436C24.6059 40.0749 24.5123 40.0873 24.4192 40.0801C24.3255 40.0842 24.2321 40.0687 24.1447 40.0348C24.0572 40.0009 23.9777 39.9492 23.9111 39.883C23.8444 39.8167 23.7921 39.7374 23.7574 39.6498C23.7226 39.5623 23.7062 39.4685 23.7092 39.3744ZM23.7673 40.7355H25.092V44.5042C25.092 44.7378 25.1404 44.905 25.334 44.905C25.4192 44.9028 25.5039 44.8931 25.5874 44.8758L25.7923 45.8492C25.5134 45.9597 25.2159 46.0148 24.9161 46.0114C24.3611 46.0114 23.7673 45.8492 23.7673 44.5821V40.7355Z" fill="#003545"/>
<path d="M31.0088 41.5581V40.7355H32.3383V45.893H31.0136V45.0623C30.6635 45.6594 29.9438 46.0017 29.0677 46.0017C27.2379 46.0017 26.215 44.7038 26.215 43.2112C26.215 41.7722 27.1831 40.6155 28.8724 40.6155C29.8309 40.6268 30.6296 40.9513 31.0088 41.5581ZM27.6203 43.281C27.6203 44.2301 28.2141 45.0429 29.363 45.0429C30.4731 45.0429 31.0765 44.2495 31.0765 43.3102C31.0765 42.3709 30.4521 41.5678 29.3016 41.5678C28.1964 41.5678 27.622 42.3692 27.622 43.281H27.6203Z" fill="#003545"/>
<path d="M34.3666 38.8276H37.5404C40.2075 38.8276 41.5403 40.3056 41.521 42.3595C41.5403 44.4945 40.0688 45.893 37.7743 45.893H34.3666V38.8276ZM35.2427 39.4539V45.2765H37.663C39.7848 45.2765 40.5932 43.8374 40.5932 42.34C40.5932 40.6479 39.5815 39.4539 37.663 39.4539H35.2427Z" fill="#003545"/>
<path d="M46.9327 45.893H42.8989V38.8276H46.5374C47.9283 38.8276 49.253 39.0905 49.2336 40.6576C49.2336 41.7625 48.5511 42.0675 47.8315 42.1843C48.8528 42.2719 49.4676 42.9273 49.4676 43.9851C49.4741 45.5701 48.0913 45.893 46.9327 45.893ZM46.631 41.9101C48.0235 41.9101 48.3349 41.3715 48.3349 40.6868C48.3349 39.6583 47.7121 39.4247 46.631 39.4247H43.7396V41.9101H46.631ZM46.6697 42.5071H43.7396V45.2959H46.7956C47.6524 45.2959 48.5576 45.012 48.5576 43.9267C48.5576 42.6742 47.5168 42.5071 46.6697 42.5071Z" fill="#003545"/>
<path d="M49.7773 5.15416C49.6488 5.04764 49.4855 4.99274 49.3191 5.00003C48.8624 5.00003 48.2719 5.31152 47.954 5.47863L47.8282 5.54352C47.295 5.80305 46.7145 5.94992 46.1227 5.97506C45.516 5.99453 44.9932 6.03022 44.3123 6.10161C40.2785 6.51855 38.4794 9.62697 36.7465 12.6332C35.8026 14.2685 34.828 15.9671 33.492 17.265C33.2156 17.5345 32.9218 17.7854 32.6126 18.0161C31.2298 19.0496 29.4937 19.7877 28.1431 20.3101C26.8426 20.8098 25.4227 21.2592 24.0512 21.694C22.7943 22.0915 21.6084 22.4679 20.5176 22.8751C20.0255 23.0584 19.6076 23.1995 19.2381 23.3228C18.2442 23.6473 17.5277 23.8955 16.4806 24.6207C16.0723 24.9014 15.6625 25.2048 15.385 25.4319C14.5537 26.0988 13.818 26.8778 13.1987 27.747C12.666 28.5487 12.0505 29.2916 11.3625 29.9631C11.1414 30.1805 10.7493 30.2876 10.162 30.2876C9.47463 30.2876 8.64044 30.1448 7.75784 29.9939C6.84781 29.8317 5.90712 29.6776 5.10036 29.6776C4.44526 29.6776 3.94346 29.7847 3.56912 30.0021C3.56912 30.0021 2.93823 30.372 2.672 30.8505L2.93339 30.969C3.33874 31.1899 3.71402 31.4626 4.04995 31.7801C4.40044 32.1056 4.79084 32.3848 5.21169 32.6108C5.34603 32.6603 5.4682 32.7383 5.56989 32.8395C5.46017 33.0018 5.29882 33.2111 5.1294 33.4349C4.19839 34.6598 3.65464 35.4337 3.96605 35.8555C4.1153 35.9334 4.28201 35.9714 4.4501 35.9658C6.47992 35.9658 7.57067 35.4353 8.95023 34.7636C9.35039 34.569 9.757 34.3694 10.2411 34.1634C11.0478 33.8113 11.9159 33.25 12.8372 32.6562C14.0425 31.8661 15.3027 31.055 16.5257 30.664C17.5309 30.3558 18.5779 30.208 19.6286 30.2259C20.9194 30.2259 22.278 30.3995 23.5882 30.5683C24.5643 30.6948 25.576 30.8246 26.5683 30.8846C26.954 30.9073 27.3106 30.9187 27.6575 30.9187C28.1215 30.92 28.5853 30.8957 29.0467 30.8457L29.1581 30.8067C29.8535 30.3768 30.1794 29.4537 30.4957 28.5614C30.699 27.9871 30.87 27.4712 31.1411 27.1435C31.1571 27.1275 31.1743 27.1128 31.1927 27.0997C31.2054 27.0926 31.2201 27.09 31.2345 27.0923C31.2488 27.0947 31.262 27.1018 31.2718 27.1126C31.2718 27.1126 31.2718 27.1208 31.2718 27.1386C31.1104 30.6283 29.7131 32.8444 28.2997 34.8139L27.3557 35.8312C27.3557 35.8312 28.6772 35.8312 29.4291 35.5391C32.1721 34.715 34.2423 32.8979 35.7493 30.0004C36.121 29.2566 36.4533 28.4936 36.7449 27.7145C36.7707 27.6496 37.0079 27.5296 36.9853 27.8654C36.9772 27.9644 36.9708 28.0747 36.9627 28.1899C36.9627 28.258 36.9627 28.3278 36.9498 28.3975C36.9111 28.8843 36.7965 29.9128 36.7965 29.9128L37.6436 29.4569C39.6863 28.1591 41.2611 25.5406 42.4551 21.4669C42.9521 19.7699 43.3168 18.0843 43.6379 16.5998C44.0219 14.8152 44.3526 13.2854 44.7318 12.6916C45.3272 11.7604 46.2356 11.1309 47.115 10.5193C47.2344 10.4365 47.3554 10.357 47.4732 10.2694C48.5785 9.48907 49.6773 8.58867 49.9193 6.90954V6.87222C50.0952 5.61977 49.9467 5.30017 49.7773 5.15416Z" fill="#003545"/>
</g>
<defs>
<clipPath id="clip0_3712_38827">
<rect width="50" height="41" fill="white" transform="translate(0 5)"/>
</clipPath>
</defs>
</svg>
