<svg width="50" height="50" viewBox="0 0 50 50" fill="none" xmlns="http://www.w3.org/2000/svg">
<path d="M8.79236 0.952231C8.70973 1.14708 8.6315 1.39914 8.55876 1.70304L8.50526 1.94061C8.48779 2.02298 8.47067 2.10852 8.45393 2.19712L8.40487 2.47207L8.35819 2.76497L8.31398 3.0753L8.27236 3.40257L8.23343 3.74628L8.1973 4.10593C8.19151 4.16717 8.18585 4.22905 8.18031 4.29157L8.14856 4.67418L8.11986 5.07147L8.09432 5.48295C8.09033 5.55268 8.08648 5.62298 8.08276 5.69384L10.6338 6.92739C10.5952 5.43941 10.6431 4.03236 10.7773 2.7396L10.8036 2.50919L10.7854 2.7203L10.7627 3.0693L10.7544 3.23582L10.7405 3.61571L10.7352 3.82937L10.7295 4.30474L10.7303 4.70386L10.7363 5.13999L10.7436 5.45152L10.7601 5.95033L10.7751 6.30407L10.7937 6.67492C10.7971 6.73816 10.8006 6.80212 10.8043 6.8668C11.2795 6.4797 11.8486 5.97151 12.4404 5.41601L12.8375 5.03947C12.904 4.97581 12.9706 4.91178 13.0371 4.84746L13.4355 4.45899L13.829 4.06865L14.2127 3.68128L14.5821 3.30174C14.174 2.4686 13.7338 1.85648 13.3244 1.40936L13.1891 1.26636C13.0998 1.175 13.0124 1.09148 12.9275 1.01518L12.8022 0.906081L12.6812 0.80736C12.6416 0.776132 12.6029 0.746557 12.5651 0.718558L12.4543 0.639213L12.3495 0.568865L12.2044 0.479202L12.0754 0.407189L11.9316 0.335936L11.8238 0.289607L11.6271 0.21855L11.4838 0.172627L11.3438 0.133141L11.2373 0.106374L11.1216 0.0804691C11.1016 0.0762817 11.0812 0.0721737 11.0606 0.0681669L10.9332 0.0455151L10.7994 0.0263372C10.0942 -0.0619765 9.18305 0.0306201 8.79236 0.952231Z" fill="url(#paint0_linear_3702_45634)"/>
<path d="M11.3013 14.4509C11.1835 13.6027 11.076 12.7686 10.9788 11.9484C10.8999 11.2672 10.8352 10.5963 10.7823 9.93181L10.737 9.33617C10.7362 9.32044 10.7357 9.30524 10.7359 9.29081C10.6801 8.48315 10.6397 7.69643 10.6217 6.92554L8.07582 5.69897L8.06888 5.85484L8.05178 6.17847C8.0264 6.78785 8.00756 7.4354 8.00224 8.11599C7.99602 8.88317 8.00333 9.6834 8.01717 10.5218C8.03519 11.2927 8.06673 12.0966 8.10852 12.9145C8.13948 13.4396 8.17333 13.9687 8.21222 14.5045L8.25897 15.1243L11.6647 16.8482L11.5446 16.0451L11.3013 14.4509Z" fill="url(#paint1_linear_3702_45634)"/>
<path d="M16.2275 34.2112L16.2803 34.3927L16.6185 35.5411C16.6671 35.7041 16.7163 35.8681 16.7664 36.0328L16.9278 36.5548L16.983 36.7427C16.9928 36.7733 17.0033 36.8039 17.0151 36.8346L17.5637 38.5912C18.0496 38.4908 18.6419 38.672 19.2676 38.9448L19.5195 39.0583C19.0589 38.5045 18.4213 38.1342 17.6595 38.0484C19.7454 36.6585 21.1178 34.868 20.925 32.7322C20.9044 32.5433 20.8787 32.3473 20.8409 32.1494C20.8094 32.9368 20.4948 33.5147 19.5832 34.1323L19.4709 34.2067C20.4138 32.5486 20.6733 31.4238 20.5619 29.9695C20.5342 29.6246 20.4912 29.2587 20.4277 28.8649C20.1262 31.0302 18.9623 32.4314 17.2601 33.2607L16.2275 34.2112Z" fill="url(#paint2_linear_3702_45634)"/>
<path d="M15.0059 31.67L14.7892 30.8585L14.3535 29.216C14.1468 28.4224 13.947 27.6236 13.7491 26.8127C13.5513 26.0019 13.3604 25.1859 13.1695 24.3699C12.9753 23.5349 12.7933 22.7016 12.6182 21.8633L12.4454 21.0345L12.1135 19.3762C12.0542 19.076 12.0001 18.7827 11.9478 18.4774C11.8525 17.9672 11.7642 17.4519 11.676 16.9366L11.6578 16.8533L8.27112 15.1262L8.28221 15.2334C8.28349 15.2519 8.28407 15.2706 8.2833 15.2891C8.35163 16.0553 8.4181 16.8336 8.50881 17.6157C8.59765 18.4098 8.69861 19.2058 8.81682 20.0107C8.91726 20.6889 9.0247 21.362 9.13726 22.0421L9.21104 22.4498C9.367 23.2914 9.53366 24.1037 9.71475 24.8624C9.91731 25.7236 10.1343 26.5311 10.3536 27.2833C10.501 27.7767 10.6452 28.251 10.7931 28.7011L10.9243 29.0803L11.1956 29.8345C11.5193 30.7142 11.878 31.5683 12.2646 32.4019L15.6876 34.1346C15.5051 33.5058 15.3367 32.8667 15.151 32.2187L15.0561 31.8555L15.0059 31.67Z" fill="url(#paint3_linear_3702_45634)"/>
<path d="M12.3153 32.515C12.7279 33.3967 13.1778 34.251 13.6746 35.0709L13.9501 35.516C13.6257 35.3856 13.2155 35.3207 12.817 35.2917L12.6191 35.2801C12.5865 35.2786 12.554 35.2773 12.5218 35.2763L12.3319 35.2721L12.0642 35.273L11.8253 35.2801L11.6243 35.2905L11.3429 35.3135C11.3405 35.3139 11.3395 35.3141 11.3398 35.3141C13.0706 35.9139 14.5884 36.6484 15.5459 37.7615C15.1654 38.1802 14.4531 38.4984 13.5577 38.7576C14.2243 38.8298 14.7322 38.8004 15.0984 38.7407L15.2467 38.7135C15.27 38.7087 15.2926 38.7038 15.3145 38.6989L15.4373 38.6684L15.5436 38.6374L15.6726 38.5925L15.7386 38.5654C15.1887 39.0235 14.8446 39.804 14.5586 40.6789L14.4598 40.9912C14.4436 41.0438 14.4276 41.0966 14.4118 41.1496C15.14 39.9604 15.8624 39.1729 16.5658 38.8719C17.3514 41.4745 18.26 44.2446 19.2571 47.1351L19.7235 48.4776C19.881 48.9279 20.0404 49.3808 20.2017 49.8362C20.4336 49.5373 20.4596 49.2067 20.3625 48.8697L20.0437 47.9699L19.6804 46.9182L19.1177 45.2503L18.6567 43.8517L18.1471 42.2736L17.6607 40.734L17.2141 39.2913L16.8856 38.2109L16.6183 37.3189C16.5825 37.2019 16.5499 37.0826 16.5147 36.962L16.4139 36.6309L16.1253 35.6342L15.8317 34.6089L15.6996 34.1365L15.6945 34.1295L12.2715 32.3968C12.2793 32.4269 12.2879 32.4516 12.2983 32.4766L12.3153 32.515Z" fill="url(#paint4_linear_3702_45634)"/>
<path d="M12.0627 16.9216L12.1234 17.253C12.1673 17.4786 12.2081 17.7065 12.2514 17.9357L12.6217 19.8338L12.7578 20.4949L12.9559 21.4291C12.9897 21.5869 13.0238 21.7458 13.0581 21.906C13.1603 22.3788 13.2681 22.8592 13.381 23.3497L13.6135 24.3451L13.845 25.316C13.8845 25.48 13.9246 25.6451 13.9652 25.811L14.2137 26.8158L14.4622 27.7924C14.5884 28.2859 14.7182 28.7875 14.8554 29.2991C14.9555 29.6768 15.0594 30.0598 15.1657 30.4478L15.5217 31.7428L15.7907 32.6946L16.0685 33.6668C16.1155 33.8303 16.163 33.9944 16.2108 34.1591C16.2141 34.1782 16.2174 34.1972 16.2276 34.2112L17.2602 33.2607L17.2352 33.2711L17.1801 33.2979C18.4055 32.1416 19.4558 29.8247 19.6958 27.7368C19.8063 26.7749 19.7961 25.7513 19.6638 24.6345C19.5685 23.8022 19.399 22.9276 19.1661 21.9813C18.9631 21.1634 18.7121 20.2949 18.406 19.3807C18.2166 19.7667 17.9474 20.1467 17.6177 20.5174L17.4388 20.7129L17.3776 20.7765L17.2479 20.9067C18.1517 19.5028 18.2592 17.9954 17.9911 16.4304C17.8268 16.8946 17.5042 17.5823 16.9691 18.2003C16.9006 18.2827 16.8201 18.3632 16.7395 18.4438C16.7255 18.4541 16.7138 18.4674 16.6993 18.4812L16.6747 18.502C16.9746 18.0029 17.1962 17.5289 17.3381 17.0489C17.3608 16.9821 17.378 16.9146 17.3935 16.8467L17.4158 16.7449C17.4521 16.5894 17.4763 16.432 17.5004 16.2746L17.5348 15.9702C17.5483 15.7911 17.5522 15.607 17.5434 15.4201L17.5198 15.0761C17.5175 15.0507 17.5145 15.0255 17.5102 15L17.4742 14.7798C17.4681 14.7444 17.4617 14.7097 17.4546 14.6756C17.3845 14.2666 17.3076 13.9021 17.2283 13.5789L17.154 13.2887L17.0869 13.0436L16.9995 12.7536L16.886 12.4139C16.874 12.3798 16.862 12.347 16.8498 12.3156L16.7813 12.1443C16.7593 12.0916 16.7382 12.0434 16.7182 12L16.6618 11.8842C16.651 11.9279 16.637 11.974 16.6184 12.0202L16.5869 12.0895C16.3737 12.5896 15.8778 13.2755 15.4255 13.7575C15.4185 13.7626 15.4116 13.7677 15.4097 13.7798L15.3164 13.8729C15.3005 13.8897 15.2847 13.9073 15.2695 13.9256L15.2872 13.8911L12.0338 16.8676C12.0613 16.8904 12.0646 16.9095 12.0627 16.9216Z" fill="url(#paint5_linear_3702_45634)"/>
<path d="M10.8043 6.86678C10.8175 7.10419 10.8332 7.35163 10.8513 7.60885L10.8908 8.13624C10.8978 8.22629 10.9052 8.3174 10.9128 8.40957L10.9612 8.9752C10.9697 9.07157 10.9785 9.16896 10.9875 9.26739L10.9951 9.36125C10.9969 9.37622 10.9995 9.39106 11.0034 9.40611C11.0309 9.69606 11.0615 9.99433 11.0954 10.3019L11.1676 10.9298C11.1931 11.1434 11.2202 11.3615 11.2487 11.5843L11.3841 12.6056C11.4474 13.0693 11.5159 13.5496 11.5926 14.0506L11.6516 14.4302C11.71 14.817 11.7748 15.2126 11.8434 15.6188L12.058 16.8713L15.3113 13.8948C15.9897 12.667 16.138 11.903 16.1288 10.9538C16.1256 10.7628 16.1166 10.564 16.104 10.3602L16.0903 10.155C16.0382 9.32311 15.9382 8.44052 15.7962 7.58867C15.6626 6.76289 15.4992 5.96971 15.3121 5.29059C15.1936 4.85118 15.0676 4.4602 14.9394 4.12461C14.8228 3.83417 14.7024 3.56794 14.5803 3.31381L14.2114 3.69007C14.1486 3.75362 14.0852 3.81753 14.0212 3.88169L13.6324 4.26883L13.2362 4.65706L12.8372 5.04145C12.7708 5.10492 12.7044 5.16803 12.6382 5.23067L12.2439 5.60007C11.7233 6.08292 11.2267 6.52268 10.8043 6.86678Z" fill="url(#paint6_linear_3702_45634)"/>
<path d="M42.1263 1.59079C42.0221 1.63374 41.9086 1.68766 41.7863 1.75219L41.5964 1.8569C41.4656 1.93196 41.3262 2.01745 41.1789 2.11302L40.952 2.26388L40.7136 2.42959L40.4641 2.60989L40.2038 2.8045C40.1596 2.83811 40.1149 2.87231 40.0698 2.90709L39.7943 3.12266L39.509 3.35189L39.2144 3.59449L38.911 3.8502L38.599 4.11876L38.2789 4.39989L37.9511 4.69333C37.8958 4.74324 37.8403 4.79366 37.7844 4.84458L38.8571 7.86263C40.0174 6.62555 41.183 5.52421 42.3267 4.58574L42.7292 4.25959L42.7582 4.23735L42.4815 4.4623L42.2101 4.69669L41.916 4.96249L41.6369 5.22374L41.4024 5.44921L41.2341 5.61399L40.8694 5.97927L40.5713 6.28537L40.1416 6.73776L39.9131 6.98342L39.6755 7.24236L39.3024 7.65613L39.0425 7.94921C39.3093 7.97455 39.6018 7.99647 39.9133 8.01513L40.3939 8.0407L40.8979 8.06151L41.4204 8.07767L41.9562 8.08932L42.5005 8.09657C42.5916 8.09742 42.6829 8.09809 42.7742 8.09859L43.3216 8.09948C43.4126 8.09929 43.5035 8.09892 43.5941 8.09839L44.1333 8.0932C44.2224 8.092 44.311 8.09065 44.3989 8.08913L44.9188 8.07813C45.3455 6.80716 45.4432 5.78517 45.4102 5.02205L45.3987 4.82885L45.3821 4.64743C45.3789 4.61818 45.3756 4.58942 45.3721 4.56116L45.3492 4.39749L45.3232 4.2457C45.3186 4.2214 45.314 4.19759 45.3092 4.17428L45.2798 4.04038L45.2492 3.91847L45.2181 3.80857L45.1874 3.71072L45.13 3.55136L45.0833 3.44068L44.9726 3.21237L44.9079 3.09051L44.8539 2.99476L44.7913 2.88959L44.7202 2.77688L44.6407 2.65848L44.5531 2.53628C44.0637 1.87773 43.2279 1.13668 42.1263 1.59079Z" fill="url(#paint7_linear_3702_45634)"/>
<path d="M33.4115 14.449C33.9912 13.6728 34.568 12.9159 35.142 12.1785C35.7396 11.4148 36.3427 10.6815 36.9526 9.96914C36.9888 9.92495 37.025 9.88077 37.0598 9.84627C37.6572 9.15182 38.2503 8.48645 38.8488 7.85157L37.7748 4.8432L37.6452 4.96316L37.3741 5.21012C36.8691 5.68053 36.3389 6.18686 35.7934 6.73052C35.4859 7.03685 35.1745 7.35251 34.858 7.67733L34.218 8.33913C34.1101 8.45145 34.0015 8.56477 33.8923 8.67909C33.2937 9.31397 32.6798 9.98619 32.063 10.6778C31.6704 11.1251 31.2769 11.5778 30.8821 12.0401L30.4269 12.5761L31.7977 16.6674L32.3396 15.9256L33.4115 14.449Z" fill="url(#paint8_linear_3702_45634)"/>
<path d="M21.6632 34.2669L21.4594 34.6429L20.9204 35.6478C20.8298 35.8177 20.7391 35.9887 20.6484 36.1611L20.3632 36.7095C20.3088 36.8104 20.2558 36.9016 20.211 37.0039L19.9112 37.582L19.2557 38.8536C19.7896 39.1991 20.1458 39.9443 20.4587 40.7821C20.5283 39.9707 20.3096 39.1665 19.7645 38.4926C22.549 39.0295 25.0777 38.6776 26.6208 36.8052C26.7546 36.6367 26.8897 36.4586 27.0166 36.2693C26.3632 36.8799 25.6482 37.0948 24.4168 36.8652L24.2778 36.8379C26.3554 36.2516 27.4588 35.5521 28.5255 34.2929C28.7776 33.9933 29.0339 33.6646 29.2959 33.2972C27.3313 34.8009 25.2802 35.005 23.2504 34.3214L21.6632 34.2669Z" fill="url(#paint9_linear_3702_45634)"/>
<path d="M22.5935 31.4406L23.1715 30.4261L24.1269 28.758C24.5916 27.955 25.066 27.1534 25.5515 26.3436C26.037 25.5338 26.5323 24.7254 27.0275 23.917C27.5353 23.0906 28.0513 22.2753 28.577 21.4615C29.0917 20.6559 29.6257 19.8532 30.1486 19.0587C30.3396 18.77 30.5292 18.4909 30.7299 18.2036C31.0589 17.7172 31.3977 17.2324 31.7364 16.7475L31.788 16.6659L30.4352 12.5872L30.3588 12.6823C30.3451 12.6983 30.3307 12.7138 30.3154 12.728C29.7611 13.3991 29.1956 14.0784 28.6468 14.78C28.0868 15.4898 27.535 16.2108 26.9902 16.9525C26.5317 17.5782 26.0829 18.2053 25.6327 18.8422L25.3678 19.229C24.8241 20.0303 24.3123 20.8165 23.8547 21.571C23.333 22.425 22.8654 23.2474 22.4438 24.027C22.1701 24.5412 21.909 25.0375 21.6701 25.5172C21.4717 25.9237 21.2816 26.3413 21.0929 26.7492C20.6539 27.7143 20.2634 28.6866 19.9117 29.6645L21.2894 33.7766L21.5576 33.2884L22.1058 32.3065C22.1977 32.1415 22.2896 31.9756 22.381 31.8083L22.5935 31.4406Z" fill="url(#paint10_linear_3702_45634)"/>
<path d="M19.8627 29.7959C19.4937 30.8331 19.1766 31.878 18.9245 32.9324L18.7922 33.5094C18.6682 33.2237 18.4688 32.9284 18.2441 32.6498L18.1066 32.4848C18.0833 32.4577 18.0598 32.4308 18.0363 32.4042L17.8942 32.2476L17.7519 32.0982L17.612 31.9571L17.4116 31.7641L17.23 31.5972L17.0307 31.4224L16.8515 31.2748C17.7678 33.1316 18.4056 34.9277 18.2912 36.5839C17.6519 36.6188 16.8255 36.3096 15.8985 35.8075C16.2975 36.2964 16.6639 36.6413 16.9729 36.8831L17.1114 36.9876C17.1337 37.0038 17.1557 37.0195 17.1774 37.0346L17.3026 37.1187L17.4183 37.1905L17.524 37.2508L17.6191 37.3004L17.7031 37.3404L17.7755 37.3715C17.7865 37.376 17.7971 37.3802 17.8071 37.384C17.0303 37.3187 16.1695 37.6454 15.2803 38.0955L14.9829 38.2498L14.6839 38.411C16.2159 38.0318 17.4236 37.9712 18.2293 38.2873C17.8336 39.0358 17.4353 39.8019 17.0346 40.5843L16.4319 41.7699C15.5251 43.566 14.6068 45.4409 13.6792 47.3793L13.0594 48.6808C12.8524 49.1176 12.6449 49.5574 12.437 50C12.8614 49.9434 13.1452 49.698 13.3351 49.3496L14.0369 47.8629L14.6828 46.5262L15.5081 44.8474L16.2372 43.3881L16.9595 41.9621L17.6457 40.6247L18.598 38.7956L19.2741 37.5153L19.5065 37.0788L19.7068 36.7093L19.8891 36.3628L20.1668 35.8504L20.7364 34.8054C20.8329 34.629 20.9302 34.4515 21.0283 34.2728L21.2977 33.7876L21.2991 33.778L19.9214 29.6659C19.9038 29.6963 19.891 29.723 19.8795 29.7514L19.8627 29.7959Z" fill="url(#paint11_linear_3702_45634)"/>
<path d="M32.0596 17.0423L31.8449 17.3573C31.7009 17.5737 31.5525 17.7896 31.4051 18.0085L30.6983 19.0733L30.1937 19.8305L30.0658 20.0266C29.8741 20.3202 29.6816 20.6186 29.4873 20.9218L28.8972 21.845C28.5056 22.4607 28.1112 23.095 27.7084 23.7522L27.4047 24.2494C26.922 25.0398 26.4239 25.8676 25.923 26.7148L25.3464 27.6983C25.0556 28.1956 24.7612 28.7025 24.4647 29.2232C24.2889 29.5301 24.1124 29.8416 23.9346 30.157L23.0578 31.7194L22.7891 32.2062L22.2436 33.198C22.0604 33.5324 21.876 33.8704 21.6911 34.2116C21.6786 34.2296 21.6661 34.2475 21.6632 34.2669L23.2504 34.3214C23.2227 34.3074 23.1936 34.3032 23.1562 34.2878C25.0623 34.3296 27.7502 33.2982 29.6038 31.8079C30.4576 31.1214 31.2635 30.2892 32.0451 29.2852C32.6301 28.5395 33.1893 27.7008 33.7543 26.7542C34.2413 25.9346 34.7299 25.0362 35.2105 24.0573C34.751 24.2177 34.2322 24.3099 33.672 24.3465L33.3724 24.362C33.3059 24.3655 33.24 24.3646 33.171 24.3648L33.0647 24.3664C34.9087 23.9537 36.1939 22.8256 37.2227 21.3529C36.7213 21.5962 35.9147 21.8937 34.9925 21.9664C34.8718 21.9784 34.7429 21.9793 34.6139 21.9802C34.5946 21.9773 34.5745 21.9788 34.5518 21.9784L34.5155 21.9757C35.1539 21.8119 35.7092 21.6062 36.2052 21.3325C36.2765 21.2967 36.3441 21.256 36.4105 21.2137L36.5095 21.1494C36.6623 21.053 36.8069 20.9455 36.9515 20.838L37.2213 20.6202C37.4258 20.4423 37.6234 20.2436 37.8044 20.0227L37.9203 19.8886C37.9386 19.8663 37.9562 19.8436 37.9729 19.8197L38.1191 19.6138C38.1424 19.5805 38.1648 19.5475 38.1862 19.5144C38.4606 19.1215 38.6925 18.7603 38.8883 18.4317L38.97 18.2929C39.076 18.1105 39.1695 17.946 39.2519 17.7898L39.3483 17.606L39.4944 17.3102C39.5244 17.2489 39.552 17.1904 39.5761 17.1345L39.6187 17.0352L39.6913 16.8557C39.7127 16.8002 39.7311 16.7493 39.7467 16.7033L39.7679 16.638C39.7243 16.6646 39.6765 16.6906 39.6247 16.713L39.5443 16.7438C38.975 16.9771 38.0303 17.1356 37.2829 17.1646C37.2732 17.1632 37.2635 17.1617 37.2524 17.17L37.1033 17.1709C37.0771 17.1718 37.0504 17.1734 37.0236 17.1761L37.0653 17.1624L32.0793 16.9759C32.0833 17.0161 32.0708 17.034 32.0596 17.0423Z" fill="url(#paint12_linear_3702_45634)"/>
<path d="M39.0425 7.94922C38.8643 8.15077 38.6802 8.36245 38.4902 8.58392L38.1025 9.03977L37.6994 9.52105L37.2124 10.1087C37.202 10.1223 37.1922 10.1362 37.1834 10.1514C36.9055 10.4918 36.6203 10.8484 36.3262 11.2235L35.8781 11.8004C35.8023 11.8989 35.7258 11.9987 35.6487 12.0997L35.005 12.9501L34.5842 13.5134C34.3711 13.8005 34.154 14.0961 33.9327 14.4016L33.7099 14.7105C33.4865 15.0171 33.2618 15.3327 33.0336 15.6568L32.5715 16.3163L32.0958 16.9981L37.0818 17.1846C38.6043 16.7347 39.3313 16.2374 40.0787 15.466C40.228 15.3097 40.3788 15.1425 40.5307 14.9685L40.6829 14.7923C41.3025 14.0813 41.9238 13.2914 42.487 12.493C43.0361 11.7221 43.5353 10.9539 43.9248 10.2587C44.1788 9.81087 44.3883 9.39613 44.5519 9.02416C44.689 8.69779 44.8039 8.38796 44.9076 8.0864L44.3904 8.09543L43.8585 8.10095L43.3171 8.10283L42.7711 8.10089C42.68 8.10024 42.5889 8.09943 42.4979 8.09844L41.9546 8.0905L41.4194 8.07836C41.3312 8.07598 41.2435 8.07341 41.1564 8.07066L40.6429 8.05193C40.5589 8.04843 40.4758 8.04474 40.3936 8.04085L39.9132 8.01518C39.6018 7.99648 39.3093 7.97456 39.0425 7.94922Z" fill="url(#paint13_linear_3702_45634)"/>
<defs>
<linearGradient id="paint0_linear_3702_45634" x1="9.42699" y1="4.40292" x2="17.6941" y2="1.70466" gradientUnits="userSpaceOnUse">
<stop stop-color="#F69923"/>
<stop offset="0.3123" stop-color="#F79A23"/>
<stop offset="0.8383" stop-color="#E97826"/>
</linearGradient>
<linearGradient id="paint1_linear_3702_45634" x1="8.77543" y1="49.735" x2="18.9036" y2="9.48947" gradientUnits="userSpaceOnUse">
<stop offset="0.3233" stop-color="#9E2064"/>
<stop offset="0.6302" stop-color="#C92037"/>
<stop offset="0.7514" stop-color="#CD2335"/>
<stop offset="1" stop-color="#E97826"/>
</linearGradient>
<linearGradient id="paint2_linear_3702_45634" x1="17.8739" y1="48.468" x2="24.5271" y2="16.0362" gradientUnits="userSpaceOnUse">
<stop stop-color="#282662"/>
<stop offset="0.0954839" stop-color="#662E8D"/>
<stop offset="0.7882" stop-color="#9F2064"/>
<stop offset="0.9487" stop-color="#CD2032"/>
</linearGradient>
<linearGradient id="paint3_linear_3702_45634" x1="10.5137" y1="47.5351" x2="25.2423" y2="11.6876" gradientUnits="userSpaceOnUse">
<stop offset="0.3233" stop-color="#9E2064"/>
<stop offset="0.6302" stop-color="#C92037"/>
<stop offset="0.7514" stop-color="#CD2335"/>
<stop offset="1" stop-color="#E97826"/>
</linearGradient>
<linearGradient id="paint4_linear_3702_45634" x1="14.2013" y1="45.8783" x2="26.0666" y2="31.0817" gradientUnits="userSpaceOnUse">
<stop stop-color="#282662"/>
<stop offset="0.0954839" stop-color="#662E8D"/>
<stop offset="0.7882" stop-color="#9F2064"/>
<stop offset="0.9487" stop-color="#CD2032"/>
</linearGradient>
<linearGradient id="paint5_linear_3702_45634" x1="15.1165" y1="53.7875" x2="25.9434" y2="2.49111" gradientUnits="userSpaceOnUse">
<stop offset="0.3233" stop-color="#9E2064"/>
<stop offset="0.6302" stop-color="#C92037"/>
<stop offset="0.7514" stop-color="#CD2335"/>
<stop offset="1" stop-color="#E97826"/>
</linearGradient>
<linearGradient id="paint6_linear_3702_45634" x1="11.9919" y1="66.4647" x2="22.1809" y2="7.10113" gradientUnits="userSpaceOnUse">
<stop offset="0.3233" stop-color="#9E2064"/>
<stop offset="0.6302" stop-color="#C92037"/>
<stop offset="0.7514" stop-color="#CD2335"/>
<stop offset="1" stop-color="#E97826"/>
</linearGradient>
<linearGradient id="paint7_linear_3702_45634" x1="39.0539" y1="5.46057" x2="49.7843" y2="2.598" gradientUnits="userSpaceOnUse">
<stop stop-color="#F69923"/>
<stop offset="0.3123" stop-color="#F79A23"/>
<stop offset="0.8383" stop-color="#E97826"/>
</linearGradient>
<linearGradient id="paint8_linear_3702_45634" x1="23.2325" y1="51.5453" x2="45.038" y2="11.559" gradientUnits="userSpaceOnUse">
<stop offset="0.3233" stop-color="#9E2064"/>
<stop offset="0.6302" stop-color="#C92037"/>
<stop offset="0.7514" stop-color="#CD2335"/>
<stop offset="1" stop-color="#E97826"/>
</linearGradient>
<linearGradient id="paint9_linear_3702_45634" x1="17.1856" y1="42.97" x2="27.0329" y2="26.4159" gradientUnits="userSpaceOnUse">
<stop stop-color="#282662"/>
<stop offset="0.0954839" stop-color="#662E8D"/>
<stop offset="0.7882" stop-color="#9F2064"/>
<stop offset="0.9487" stop-color="#CD2032"/>
</linearGradient>
<linearGradient id="paint10_linear_3702_45634" x1="21.0065" y1="48.7145" x2="43.1205" y2="11.2475" gradientUnits="userSpaceOnUse">
<stop offset="0.3233" stop-color="#9E2064"/>
<stop offset="0.6302" stop-color="#C92037"/>
<stop offset="0.7514" stop-color="#CD2335"/>
<stop offset="1" stop-color="#E97826"/>
</linearGradient>
<linearGradient id="paint11_linear_3702_45634" x1="15.7201" y1="45.3852" x2="27.8506" y2="27.3214" gradientUnits="userSpaceOnUse">
<stop stop-color="#282662"/>
<stop offset="0.0954839" stop-color="#662E8D"/>
<stop offset="0.7882" stop-color="#9F2064"/>
<stop offset="0.9487" stop-color="#CD2032"/>
</linearGradient>
<linearGradient id="paint12_linear_3702_45634" x1="15.3727" y1="48.748" x2="40.8667" y2="7.86115" gradientUnits="userSpaceOnUse">
<stop offset="0.3233" stop-color="#9E2064"/>
<stop offset="0.6302" stop-color="#C92037"/>
<stop offset="0.7514" stop-color="#CD2335"/>
<stop offset="1" stop-color="#E97826"/>
</linearGradient>
<linearGradient id="paint13_linear_3702_45634" x1="15.4579" y1="32.5568" x2="31.7847" y2="5.62456" gradientUnits="userSpaceOnUse">
<stop offset="0.3233" stop-color="#9E2064"/>
<stop offset="0.6302" stop-color="#C92037"/>
<stop offset="0.7514" stop-color="#CD2335"/>
<stop offset="1" stop-color="#E97826"/>
</linearGradient>
</defs>
</svg>
