<svg width="96" height="50" viewBox="0 0 96 50" fill="none" xmlns="http://www.w3.org/2000/svg">
<path d="M47.2397 19.9595C47.2049 20.0383 47.1719 20.1404 47.1412 20.2634L47.1187 20.3595C47.1113 20.3929 47.1041 20.4275 47.097 20.4634L47.0764 20.5746L47.0567 20.6932L47.038 20.8188L47.0205 20.9513L47.0041 21.0904L46.9888 21.236C46.9864 21.2608 46.984 21.2858 46.9817 21.3111L46.9683 21.466L46.9562 21.6268L46.9454 21.7934C46.9437 21.8216 46.9421 21.85 46.9406 21.8787L48.016 22.378C47.9998 21.7757 48.02 21.2062 48.0766 20.6829L48.0876 20.5897L48.08 20.6751L48.0704 20.8164L48.0669 20.8838L48.061 21.0376L48.0588 21.124L48.0564 21.3165L48.0567 21.478L48.0593 21.6545L48.0624 21.7806L48.0693 21.9825L48.0756 22.1257L48.0834 22.2758C48.0849 22.3014 48.0864 22.3273 48.0879 22.3535C48.2883 22.1968 48.5282 21.9911 48.7777 21.7663L48.9451 21.6138C48.9731 21.5881 49.0012 21.5622 49.0293 21.5361L49.1972 21.3789L49.3631 21.2209L49.5249 21.0641L49.6806 20.9105C49.5086 20.5732 49.323 20.3255 49.1504 20.1445L49.0933 20.0866C49.0557 20.0496 49.0188 20.0158 48.9831 19.9849L48.9302 19.9408L48.8792 19.9008C48.8625 19.8882 48.8462 19.8762 48.8303 19.8649L48.7836 19.8328L48.7394 19.8043L48.6782 19.768L48.6238 19.7389L48.5632 19.71L48.5178 19.6913L48.4348 19.6625L48.3744 19.6439L48.3154 19.6279L48.2705 19.6171L48.2217 19.6066C48.2133 19.6049 48.2047 19.6032 48.196 19.6016L48.1423 19.5925L48.0859 19.5847C47.7885 19.5489 47.4044 19.5864 47.2397 19.9595Z" fill="url(#paint0_linear_3712_39327)"/>
<path d="M48.2974 25.4233C48.2478 25.08 48.2025 24.7423 48.1615 24.4103C48.1282 24.1347 48.101 23.8631 48.0787 23.5941L48.0595 23.353C48.0592 23.3466 48.059 23.3405 48.0591 23.3347C48.0356 23.0077 48.0185 22.6893 48.0109 22.3773L46.9376 21.8808L46.9347 21.9439L46.9275 22.0749C46.9168 22.3215 46.9088 22.5836 46.9066 22.8591C46.904 23.1697 46.907 23.4936 46.9129 23.8329C46.9205 24.145 46.9338 24.4704 46.9514 24.8014C46.9644 25.014 46.9787 25.2281 46.9951 25.445L47.0148 25.6959L48.4507 26.3936L48.4 26.0686L48.2974 25.4233Z" fill="url(#paint1_linear_3712_39327)"/>
<path d="M50.3743 33.4216L50.3965 33.4951L50.5391 33.9599C50.5596 34.0259 50.5803 34.0923 50.6015 34.1589L50.6695 34.3702L50.6928 34.4463C50.6969 34.4587 50.7013 34.471 50.7063 34.4835L50.9376 35.1945C51.1425 35.1539 51.3922 35.2272 51.6559 35.3376L51.7621 35.3836C51.5679 35.1594 51.2992 35.0095 50.978 34.9748C51.8574 34.4122 52.436 33.6874 52.3547 32.823C52.346 32.7465 52.3352 32.6672 52.3192 32.5871C52.3059 32.9058 52.1733 33.1397 51.789 33.3897L51.7417 33.4198C52.1392 32.7486 52.2486 32.2933 52.2016 31.7047C52.1899 31.5651 52.1718 31.417 52.145 31.2576C52.0179 32.134 51.5272 32.7012 50.8096 33.0369L50.3743 33.4216Z" fill="url(#paint2_linear_3712_39327)"/>
<path d="M49.8592 32.393L49.7679 32.0645L49.5842 31.3997C49.497 31.0785 49.4128 30.7551 49.3294 30.4269C49.246 30.0987 49.1655 29.7684 49.085 29.4382C49.0032 29.1002 48.9264 28.7629 48.8526 28.4236L48.7797 28.0881L48.6398 27.4169C48.6148 27.2954 48.592 27.1767 48.5699 27.0531C48.5298 26.8466 48.4926 26.638 48.4554 26.4294L48.4477 26.3957L47.0199 25.6966L47.0246 25.74C47.0251 25.7475 47.0254 25.7551 47.025 25.7625C47.0538 26.0727 47.0819 26.3877 47.1201 26.7043C47.1576 27.0257 47.2001 27.3479 47.25 27.6737C47.2923 27.9482 47.3376 28.2206 47.3851 28.4959L47.4162 28.661C47.4819 29.0016 47.5522 29.3304 47.6285 29.6375C47.7139 29.9861 47.8054 30.313 47.8978 30.6174C47.96 30.8171 48.0208 31.0091 48.0831 31.1913L48.1385 31.3448L48.2528 31.6501C48.3893 32.0061 48.5405 32.3518 48.7035 32.6892L50.1466 33.3906C50.0697 33.1361 49.9987 32.8774 49.9204 32.6151L49.8804 32.4681L49.8592 32.393Z" fill="url(#paint3_linear_3712_39327)"/>
<path d="M48.725 32.735C48.8989 33.0919 49.0887 33.4377 49.2981 33.7696L49.4142 33.9498C49.2775 33.897 49.1046 33.8707 48.9365 33.859L48.8531 33.8543C48.8393 33.8537 48.8256 33.8531 48.8121 33.8527L48.732 33.851L48.6192 33.8514L48.5185 33.8542L48.4337 33.8585L48.315 33.8678C48.3141 33.8679 48.3136 33.868 48.3137 33.868C49.0434 34.1108 49.6833 34.4081 50.087 34.8587C49.9266 35.0281 49.6263 35.1569 49.2488 35.2618C49.5298 35.2911 49.744 35.2792 49.8983 35.255L49.9609 35.244C49.9707 35.2421 49.9802 35.2401 49.9894 35.2381L50.0412 35.2258L50.086 35.2132L50.1404 35.195L50.1683 35.1841C49.9364 35.3695 49.7914 35.6854 49.6708 36.0395L49.6291 36.1659C49.6223 36.1872 49.6156 36.2086 49.6089 36.23C49.9159 35.7487 50.2204 35.4299 50.517 35.3081C50.8482 36.3616 51.2313 37.4828 51.6516 38.6528L51.8483 39.1962C51.9146 39.3784 51.9819 39.5618 52.0499 39.7461C52.1476 39.6251 52.1586 39.4913 52.1177 39.3549L51.9832 38.9907L51.8301 38.565L51.5929 37.8899L51.3985 37.3238L51.1837 36.685L50.9786 36.0618L50.7903 35.4779L50.6518 35.0405L50.5391 34.6795C50.5241 34.6321 50.5103 34.5839 50.4954 34.5351L50.453 34.401L50.3313 33.9976L50.2075 33.5826L50.1518 33.3914L50.1497 33.3885L48.7065 32.6872C48.7098 32.6994 48.7134 32.7094 48.7178 32.7195L48.725 32.735Z" fill="url(#paint4_linear_3712_39327)"/>
<path d="M48.6184 26.4233L48.644 26.5575C48.6625 26.6488 48.6797 26.741 48.6979 26.8338L48.8541 27.6021L48.9114 27.8697L48.9949 28.2478C49.0092 28.3117 49.0236 28.376 49.038 28.4409C49.0811 28.6322 49.1266 28.8267 49.1742 29.0252L49.2722 29.4281L49.3698 29.8211C49.3865 29.8875 49.4034 29.9543 49.4204 30.0215L49.5252 30.4282L49.63 30.8235C49.6832 31.0232 49.7379 31.2263 49.7957 31.4334C49.8379 31.5863 49.8818 31.7413 49.9266 31.8983L50.0767 32.4225L50.1901 32.8078L50.3072 33.2013C50.327 33.2674 50.347 33.3339 50.3672 33.4005C50.3686 33.4082 50.37 33.416 50.3743 33.4216L50.8096 33.0369L50.7991 33.0411L50.7758 33.052C51.2925 32.5839 51.7352 31.6461 51.8364 30.801C51.883 30.4117 51.8787 29.9973 51.823 29.5453C51.7828 29.2084 51.7113 28.8544 51.6131 28.4713C51.5275 28.1403 51.4217 27.7887 51.2927 27.4187C51.2128 27.575 51.0993 27.7288 50.9603 27.8788L50.8849 27.958L50.8591 27.9837L50.8044 28.0364C51.1855 27.4681 51.2308 26.858 51.1178 26.2245C51.0485 26.4124 50.9125 26.6908 50.6869 26.9409C50.658 26.9743 50.624 27.0069 50.5901 27.0395C50.5842 27.0436 50.5793 27.049 50.5731 27.0546L50.5628 27.0631C50.6892 26.861 50.7826 26.6692 50.8425 26.4749C50.852 26.4479 50.8593 26.4205 50.8658 26.393L50.8752 26.3518C50.8905 26.2889 50.9007 26.2252 50.9109 26.1615L50.9254 26.0382C50.9311 25.9657 50.9327 25.8912 50.929 25.8156L50.9191 25.6763C50.9181 25.6661 50.9168 25.6559 50.915 25.6456L50.8998 25.5564C50.8973 25.5421 50.8946 25.5281 50.8916 25.5142C50.862 25.3487 50.8296 25.2012 50.7962 25.0703L50.7648 24.9529L50.7365 24.8536L50.6997 24.7363L50.6519 24.5988C50.6468 24.585 50.6417 24.5717 50.6366 24.559L50.6077 24.4897C50.5984 24.4683 50.5895 24.4488 50.5811 24.4312L50.5573 24.3844C50.5528 24.4021 50.5469 24.4207 50.539 24.4394L50.5258 24.4675C50.4359 24.6699 50.2268 24.9475 50.0361 25.1426C50.0332 25.1447 50.0302 25.1468 50.0294 25.1517L49.9901 25.1893C49.9834 25.1961 49.9768 25.2032 49.9703 25.2107L49.9778 25.1967L48.6062 26.4015C48.6178 26.4107 48.6192 26.4184 48.6184 26.4233Z" fill="url(#paint5_linear_3712_39327)"/>
<path d="M48.0879 22.3535C48.0934 22.4496 48.1001 22.5498 48.1077 22.6539L48.1243 22.8673C48.1273 22.9038 48.1304 22.9407 48.1336 22.978L48.154 23.2069C48.1576 23.2459 48.1613 23.2853 48.1651 23.3252L48.1683 23.3632C48.1691 23.3692 48.1702 23.3752 48.1718 23.3813C48.1834 23.4987 48.1963 23.6194 48.2106 23.7439L48.241 23.9981C48.2518 24.0845 48.2632 24.1728 48.2753 24.263L48.3323 24.6764C48.359 24.8641 48.3879 25.0585 48.4202 25.2613L48.4451 25.4149C48.4697 25.5715 48.497 25.7316 48.526 25.896L48.6164 26.403L49.988 25.1982C50.274 24.7012 50.3366 24.392 50.3327 24.0078C50.3313 23.9305 50.3275 23.85 50.3222 23.7675L50.3164 23.6845C50.2945 23.3477 50.2523 22.9905 50.1924 22.6457C50.1361 22.3114 50.0672 21.9904 49.9883 21.7155C49.9384 21.5377 49.8853 21.3794 49.8312 21.2436C49.782 21.126 49.7313 21.0182 49.6798 20.9154L49.5243 21.0677C49.4978 21.0934 49.4711 21.1193 49.4441 21.1452L49.2802 21.3019L49.1131 21.4591L48.9449 21.6147C48.9169 21.6404 48.8889 21.6659 48.861 21.6913L48.6948 21.8408C48.4753 22.0362 48.266 22.2142 48.0879 22.3535Z" fill="url(#paint6_linear_3712_39327)"/>
<path d="M39.7725 20.5372C40.534 20.6162 41.2028 20.7642 41.779 20.9814C42.3758 21.1985 42.8595 21.4946 43.2299 21.8697C43.6209 22.225 43.8781 22.6889 44.0016 23.2614C44.0634 23.597 44.0634 23.982 44.0016 24.4162C43.9399 24.8505 43.8576 25.2947 43.7547 25.7487L42.3656 32.352C42.3038 32.727 42.2318 33.112 42.1495 33.5068C42.0671 33.8818 42.0363 34.2273 42.0569 34.5432C42.0569 34.6024 42.0466 34.6715 42.026 34.7504V34.9281C42.026 35.1452 42.0054 35.3624 41.9642 35.5795C41.9231 35.7967 41.7893 35.9447 41.5629 36.0237C41.4189 36.0829 41.2645 36.1125 41.0999 36.1125H38.3834C38.2188 36.0928 38.0953 36.0434 38.013 35.9645C37.8895 35.8855 37.8072 35.7769 37.766 35.6388C37.7249 35.4808 37.6528 35.3525 37.5499 35.2538C37.5088 35.2143 37.4573 35.1847 37.3956 35.165C37.3544 35.1255 37.2824 35.1156 37.1795 35.1354C37.056 35.1749 36.9428 35.2242 36.8399 35.2834C36.737 35.3426 36.6342 35.392 36.5312 35.4315C36.4078 35.5104 36.274 35.5795 36.13 35.6388C36.0065 35.698 35.8727 35.7572 35.7286 35.8164C35.4405 35.9349 35.1421 36.0336 34.8334 36.1125C34.5247 36.1718 34.2161 36.2408 33.9074 36.3198C33.7427 36.3593 33.5884 36.379 33.4443 36.379C33.3208 36.3988 33.1871 36.4185 33.043 36.4383H32.8578C32.7961 36.458 32.7343 36.4679 32.6726 36.4679H32.333C32.1066 36.5073 31.9009 36.5073 31.7156 36.4679H31.4378C31.2938 36.4284 31.1497 36.4086 31.0056 36.4086C30.8822 36.4284 30.7587 36.4185 30.6352 36.379C30.45 36.3395 30.2648 36.3001 30.0796 36.2606C29.8944 36.2408 29.7297 36.1915 29.5857 36.1125C29.03 35.8954 28.5773 35.619 28.2274 35.2834C27.8776 34.9281 27.6409 34.4642 27.5174 33.8917C27.4763 33.7535 27.4454 33.6055 27.4248 33.4476C27.4248 33.2896 27.4145 33.1218 27.3939 32.9442C27.3734 32.8455 27.3734 32.7468 27.3939 32.6481C27.4351 32.5494 27.4557 32.4507 27.4557 32.352C27.4557 32.2927 27.466 32.1743 27.4865 31.9966C27.5277 31.7992 27.5689 31.661 27.61 31.5821C27.6923 31.3847 27.7438 31.2169 27.7644 31.0787L28.0731 30.4272C28.1965 30.1904 28.3303 29.9831 28.4744 29.8054C28.9271 29.2329 29.4107 28.7987 29.9252 28.5025C30.4397 28.2064 31.0777 27.9498 31.8391 27.7327C32.1272 27.634 32.4153 27.5649 32.7035 27.5254C32.9916 27.4859 33.29 27.4366 33.5987 27.3773C33.7633 27.3379 33.9382 27.3181 34.1234 27.3181C34.3292 27.2984 34.5247 27.2688 34.71 27.2293C34.854 27.1898 34.9981 27.1799 35.1421 27.1997C35.2862 27.1997 35.4508 27.1799 35.636 27.1404C35.7801 27.101 35.9242 27.0812 36.0682 27.0812C36.2123 27.0812 36.3666 27.0615 36.5312 27.022C36.984 26.9233 37.3956 26.8443 37.766 26.7851C38.157 26.7062 38.5275 26.5285 38.8773 26.2521C39.0831 26.0745 39.2477 25.8771 39.3712 25.6599C39.3918 25.6007 39.4021 25.5513 39.4021 25.5119C39.4021 25.4724 39.4124 25.4329 39.433 25.3934C39.4741 25.3539 39.4947 25.2947 39.4947 25.2157C39.5153 25.1368 39.5359 25.0776 39.5564 25.0381V24.5939C39.4741 24.0017 39.1243 23.597 38.5069 23.3799C38.3423 23.3206 38.1262 23.2812 37.8586 23.2614C37.6117 23.2219 37.3544 23.2121 37.0869 23.2318C36.8194 23.2318 36.5518 23.2516 36.2843 23.291C36.0373 23.3305 35.8213 23.3799 35.636 23.4391C35.492 23.4786 35.3582 23.5378 35.2347 23.6168C35.1113 23.676 34.9878 23.7451 34.8643 23.824C34.7408 23.903 34.6071 24.0116 34.463 24.1498C34.319 24.2879 34.2161 24.4162 34.1543 24.5347C34.0103 24.7321 33.8868 24.9196 33.7839 25.0973C33.681 25.275 33.5061 25.3934 33.2591 25.4526C33.0945 25.4921 32.9195 25.5119 32.7343 25.5119H31.0056C30.9027 25.5119 30.7896 25.5217 30.6661 25.5415C30.5632 25.5415 30.4809 25.5316 30.4191 25.5119H30.1413C30.1001 25.4921 30.0487 25.4822 29.987 25.4822C29.9252 25.4822 29.8738 25.4625 29.8326 25.423C29.6886 25.3835 29.6062 25.2552 29.5857 25.0381C29.5857 24.9394 29.6062 24.8407 29.6474 24.742C29.6886 24.6433 29.7297 24.5544 29.7709 24.4755C29.8738 24.2583 29.9767 24.0609 30.0796 23.8833C30.203 23.6858 30.3265 23.5082 30.45 23.3503L30.697 23.0541C30.7793 22.9554 30.8616 22.8567 30.9439 22.758C31.1497 22.5409 31.3967 22.3336 31.6848 22.1362C31.7465 22.1165 31.8185 22.0671 31.9009 21.9882C32.0243 21.9092 32.1272 21.8401 32.2095 21.7809C32.3124 21.7217 32.4256 21.6624 32.5491 21.6032C32.9401 21.3861 33.3414 21.2183 33.753 21.0998C34.1852 20.9617 34.6174 20.8333 35.0495 20.7149C35.3171 20.6557 35.5846 20.6162 35.8521 20.5964C36.1197 20.5767 36.3975 20.5372 36.6856 20.478C36.7679 20.4583 36.8914 20.4583 37.056 20.478C37.2207 20.4977 37.3339 20.4879 37.3956 20.4484C38.2394 20.4287 39.0317 20.4583 39.7725 20.5372ZM74.0915 20.7741C74.7912 21.011 75.3983 21.3269 75.9128 21.7217C76.0774 21.8401 76.2317 21.9783 76.3758 22.1362C76.5404 22.2744 76.6742 22.4225 76.7771 22.5804C76.8183 22.6791 76.8903 22.758 76.9932 22.8173C77.1167 23.0344 77.2196 23.2614 77.3019 23.4983C77.4048 23.7155 77.518 23.9425 77.6414 24.1794C77.7032 24.357 77.7443 24.5446 77.7649 24.742C77.8061 24.9196 77.8472 25.117 77.8884 25.3342C77.9296 25.5908 77.9501 25.8573 77.9501 26.1337C77.9707 26.41 77.9913 26.6864 78.0119 26.9628C78.0119 27.1207 77.981 27.2984 77.9193 27.4958C77.8781 27.6734 77.8678 27.8412 77.8884 27.9992L77.8267 28.3249C77.8267 28.4828 77.7855 28.6605 77.7032 28.8579C77.6209 29.0553 77.518 29.1836 77.3945 29.2428C77.2916 29.3218 77.1373 29.381 76.9315 29.4205C76.7257 29.4402 76.4993 29.46 76.2523 29.4797H75.5423C75.316 29.46 75.1102 29.4501 74.9249 29.4501H66.9607C66.8372 29.4501 66.724 29.4698 66.6211 29.5093C66.4359 29.5883 66.3124 29.6672 66.2507 29.7462C66.2095 29.7857 66.1478 29.8646 66.0655 29.9831C66.0037 30.0818 65.9728 30.1805 65.9728 30.2792C65.9934 30.3976 65.9934 30.5161 65.9728 30.6345C65.9728 30.7332 65.9831 30.8418 66.0037 30.9602C66.0655 31.434 66.1786 31.8288 66.3433 32.1447C66.5285 32.4408 66.796 32.7073 67.1459 32.9442C67.2899 33.0429 67.4443 33.112 67.6089 33.1514C67.7941 33.1712 67.9691 33.2107 68.1337 33.2699C68.2983 33.3094 68.5144 33.339 68.782 33.3587C69.0701 33.3785 69.3273 33.3686 69.5537 33.3291H69.8315C70.0373 33.2896 70.2328 33.2502 70.418 33.2107L70.9737 33.033C71.2001 32.9343 71.4573 32.806 71.7454 32.6481C72.0335 32.4901 72.2599 32.3322 72.4245 32.1743C72.548 32.0361 72.6818 31.9078 72.8258 31.7893C72.9699 31.6512 73.1242 31.5525 73.2889 31.4932C73.5153 31.3945 73.7828 31.3551 74.0915 31.3748H75.3571C75.5012 31.3551 75.6247 31.3649 75.7276 31.4044H76.0362C76.2215 31.4439 76.3552 31.4932 76.4375 31.5525C76.4993 31.5919 76.5199 31.6808 76.4993 31.819C76.4993 31.9571 76.4684 32.0756 76.4067 32.1743C76.242 32.4507 76.0671 32.6974 75.8819 32.9146C75.7173 33.1317 75.532 33.3489 75.3262 33.566C74.75 34.2174 74.1326 34.7406 73.4741 35.1354C72.8155 35.5302 72.0232 35.8658 71.0972 36.1421C70.8502 36.2211 70.6135 36.2705 70.3872 36.2902C70.1608 36.3099 69.9138 36.3494 69.6463 36.4086C69.564 36.4284 69.4714 36.4284 69.3685 36.4086C69.2862 36.4086 69.2038 36.4185 69.1215 36.4383H68.782C68.6585 36.4777 68.535 36.4876 68.4115 36.4679C68.288 36.4679 68.1749 36.458 68.072 36.4383C67.9073 36.4185 67.7633 36.4185 67.6398 36.4383C67.5163 36.458 67.3825 36.4481 67.2385 36.4086C67.1356 36.3692 67.0224 36.3494 66.8989 36.3494C66.7755 36.3494 66.6726 36.3297 66.5902 36.2902C66.3639 36.2507 66.1375 36.2014 65.9111 36.1421C65.7053 36.1027 65.5201 36.0336 65.3555 35.9349C65.1497 35.8559 64.9542 35.7868 64.769 35.7276C64.5837 35.6486 64.4191 35.5598 64.275 35.4611C63.6988 35.0663 63.2049 34.6122 62.7933 34.099C62.4023 33.566 62.1142 32.954 61.929 32.2631C61.8672 32.046 61.8261 31.8288 61.8055 31.6117C61.8055 31.3748 61.7746 31.1379 61.7129 30.901V30.6937C61.7335 30.6148 61.7438 30.5358 61.7438 30.4569C61.7232 30.22 61.7232 29.9633 61.7438 29.687L61.8672 28.8579C61.8878 28.7592 61.8981 28.6506 61.8981 28.5322C61.9187 28.4137 61.9496 28.3051 61.9907 28.2064L62.0833 27.8511L62.3303 27.1404C62.4743 26.8049 62.6081 26.4791 62.7316 26.1633C62.855 25.8474 63.0094 25.5513 63.1946 25.275C64.5117 23.2219 66.3227 21.771 68.6276 20.9222C68.9363 20.8037 69.245 20.7248 69.5537 20.6853C69.8624 20.6261 70.1917 20.557 70.5415 20.478C70.7061 20.4583 70.8605 20.4484 71.0045 20.4484C71.1486 20.4484 71.3029 20.4385 71.4676 20.4188C72.5171 20.399 73.3918 20.5175 74.0915 20.7741ZM10.1611 15C10.511 15 10.758 15.0691 10.902 15.2073C11.0255 15.306 11.0975 15.454 11.1181 15.6514C11.1387 15.8291 11.1695 16.0068 11.2107 16.1844C11.2519 16.5003 11.293 16.826 11.3342 17.1616C11.3959 17.4774 11.4474 17.8032 11.4885 18.1387C11.7149 19.3824 11.9001 20.6458 12.0442 21.9289C12.2088 23.2121 12.4043 24.4853 12.6307 25.7487C12.713 26.1435 12.7747 26.5482 12.8159 26.9628C12.8571 27.3773 12.9188 27.782 13.0011 28.1768C13.0217 28.2755 13.0423 28.3742 13.0629 28.4729C13.0834 28.5716 13.1349 28.6506 13.2172 28.7098C13.2584 28.7296 13.2892 28.7493 13.3098 28.769C13.351 28.7888 13.4024 28.7789 13.4642 28.7394C13.6288 28.7 13.7626 28.5815 13.8655 28.3841C13.9684 28.1867 14.0713 28.009 14.1742 27.8511C14.4211 27.3971 14.6578 26.9529 14.8841 26.5186C15.1105 26.0646 15.3575 25.6106 15.625 25.1565C16.2836 23.9523 16.9421 22.7482 17.6006 21.544C18.2798 20.3201 18.9486 19.0962 19.6072 17.8723C19.7718 17.5564 19.9364 17.2504 20.1011 16.9543C20.2863 16.6385 20.4612 16.3226 20.6258 16.0068C20.7082 15.8488 20.8008 15.6909 20.9037 15.533C21.0066 15.3751 21.1506 15.2468 21.3358 15.1481C21.4799 15.0494 21.6445 15 21.8297 15H27.1393C27.3451 15 27.4891 15.0395 27.5714 15.1184C27.7772 15.2369 27.839 15.4639 27.7566 15.7995C27.6949 16.1153 27.6332 16.4411 27.5714 16.7767L26.6454 21.2183L24.3302 32.2335L23.8054 34.8097C23.7642 35.0268 23.7128 35.2439 23.651 35.4611C23.5893 35.6585 23.4864 35.8066 23.3423 35.9053C23.1983 36.004 23.0336 36.0632 22.8484 36.0829H19.9158C19.7718 36.0434 19.638 36.0138 19.5145 35.9941C19.4116 35.9743 19.3293 35.9053 19.2676 35.7868C19.2059 35.6881 19.1853 35.5598 19.2059 35.4019C19.247 35.2439 19.2882 35.0762 19.3293 34.8985L19.638 33.3883L21.2432 25.7783C21.2844 25.502 21.3255 25.2454 21.3667 25.0085C21.4284 24.7518 21.4799 24.4952 21.5211 24.2386C21.5622 24.0807 21.6034 23.9227 21.6445 23.7648C21.6857 23.5871 21.7063 23.4194 21.7063 23.2614C21.6857 23.1232 21.6857 22.9752 21.7063 22.8173C21.7474 22.6593 21.7166 22.5606 21.6137 22.5212C21.5519 22.5014 21.5005 22.5113 21.4593 22.5508L21.3667 22.6396C21.2638 22.7186 21.1712 22.8173 21.0889 22.9357L20.9037 23.2318C20.7184 23.5279 20.5332 23.8339 20.348 24.1498C20.1834 24.4656 19.9982 24.7814 19.7924 25.0973L19.6072 25.4526C19.566 25.5711 19.5043 25.6895 19.4219 25.808C19.2573 26.0646 19.103 26.3212 18.9589 26.5778C18.8354 26.8345 18.6914 27.0911 18.5267 27.3477C18.4856 27.4069 18.4547 27.476 18.4341 27.555C18.4135 27.6142 18.3827 27.6734 18.3415 27.7327C18.218 27.9103 18.1048 28.0979 18.0019 28.2953C17.9196 28.4927 17.8064 28.6901 17.6624 28.8875C17.5389 29.0652 17.4257 29.2527 17.3228 29.4501C17.2405 29.6475 17.1376 29.8449 17.0141 30.0423C16.6437 30.6148 16.3041 31.1971 15.9954 31.7893C15.6868 32.3618 15.3678 32.9343 15.0385 33.5068C14.9768 33.566 14.9356 33.6252 14.915 33.6844C14.915 33.7437 14.8841 33.8029 14.8224 33.8621C14.6784 34.0793 14.5446 34.3063 14.4211 34.5432C14.3182 34.7603 14.1947 34.9774 14.0507 35.1946C13.9684 35.3328 13.886 35.4611 13.8037 35.5795C13.7214 35.698 13.6288 35.7967 13.5259 35.8756C13.4024 35.9546 13.2892 36.004 13.1863 36.0237C13.0834 36.0237 12.9497 36.0434 12.785 36.0829H12.075C11.931 36.0829 11.7561 36.0928 11.5503 36.1125H10.9637C10.7785 36.1125 10.6036 36.1027 10.439 36.0829C10.2743 36.0632 10.1611 36.0237 10.0994 35.9645C9.95535 35.8658 9.86274 35.7572 9.82158 35.6388C9.801 35.5006 9.75985 35.3427 9.69811 35.165C9.65695 34.9281 9.62608 34.6912 9.6055 34.4543C9.58492 34.1977 9.54376 33.9509 9.48202 33.7141L9.45115 33.4476C9.38941 33.2107 9.34825 32.9639 9.32767 32.7073C9.3071 32.4309 9.26594 32.1743 9.2042 31.9374V31.7893C9.2042 31.7301 9.19391 31.6709 9.17333 31.6117C9.11159 31.434 9.07043 31.2465 9.04985 31.0491C9.02927 30.8517 8.9984 30.6543 8.95724 30.4569V30.3088C8.95724 30.2496 8.94695 30.2002 8.92637 30.1608C8.88521 29.9633 8.85435 29.7659 8.83377 29.5685C8.83377 29.3711 8.8029 29.1737 8.74116 28.9763C8.65884 28.5815 8.58681 28.167 8.52507 27.7327C8.48391 27.2984 8.42218 26.8739 8.33986 26.4594C8.25754 25.9659 8.18551 25.4625 8.12377 24.9492C8.08261 24.436 7.99001 23.9425 7.84595 23.4687C7.80479 23.1923 7.74305 22.9653 7.66073 22.7877C7.61957 22.7482 7.57841 22.7186 7.53726 22.6988C7.51668 22.6593 7.47552 22.6593 7.41378 22.6988C7.2903 22.758 7.20798 22.8567 7.16682 22.9949C7.14624 23.1331 7.10508 23.2713 7.04335 23.4095C6.96103 23.5477 6.90958 23.6957 6.889 23.8536C6.86842 23.9918 6.84784 24.1399 6.82726 24.2978C6.7861 24.515 6.73465 24.7321 6.67291 24.9492C6.63176 25.1664 6.58031 25.3835 6.51857 25.6007L4.88249 33.4772L4.5738 34.9281L4.45033 35.4019C4.42975 35.5598 4.36801 35.6881 4.26511 35.7868C4.16221 35.925 3.98729 36.0138 3.74033 36.0533C3.59627 36.0928 3.44193 36.1125 3.27729 36.1125C3.11265 36.0928 2.94802 36.0829 2.78338 36.0829H0.560792C0.375577 36.0632 0.23152 36.004 0.128622 35.9053C0.0257244 35.8066 -0.0154347 35.6585 0.00514488 35.4611L0.128622 34.8097L0.6534 32.2039L2.9686 21.1887L3.83294 17.0431C3.85352 16.9247 3.8741 16.7865 3.89468 16.6286C3.93584 16.4509 3.977 16.2831 4.01815 16.1252C4.05931 15.9673 4.10047 15.8192 4.14163 15.681C4.20337 15.5231 4.25482 15.4047 4.29598 15.3257C4.41946 15.1875 4.60467 15.0888 4.85163 15.0296C4.91336 15.0099 4.95452 15.0099 4.9751 15.0296C5.01626 15.0296 5.06771 15.0197 5.12945 15H10.1611ZM94.1015 20.9518C94.863 21.3268 95.398 21.8796 95.7067 22.61C95.8096 22.8271 95.8714 23.064 95.892 23.3206C95.9331 23.5575 95.964 23.8043 95.9846 24.0609C96.0051 24.2188 96.0051 24.3669 95.9846 24.5051C95.964 24.6433 95.964 24.7814 95.9846 24.9196C95.9434 25.0381 95.9331 25.117 95.9537 25.1565C95.9331 25.4329 95.892 25.7191 95.8302 26.0152C95.7685 26.3113 95.7067 26.5976 95.645 26.8739L95.1202 29.5093L94.1015 34.3063C94.0192 34.6813 93.9369 35.0465 93.8546 35.4019C93.7723 35.7375 93.5768 35.9546 93.2681 36.0533C93.1446 36.0928 93.0005 36.1125 92.8359 36.1125H90.675C90.4281 36.1125 90.212 36.1027 90.0268 36.0829C89.8416 36.0434 89.7078 35.9546 89.6255 35.8164C89.5638 35.698 89.5432 35.5499 89.5638 35.3723C89.6049 35.1749 89.6461 34.9676 89.6872 34.7504L90.1194 32.6777L91.0455 28.2657C91.1895 27.5353 91.2924 26.8641 91.3542 26.2521C91.4365 25.6204 91.3645 25.0874 91.1381 24.6531C90.9323 24.2583 90.5722 23.982 90.0577 23.824C89.9548 23.7846 89.8416 23.7648 89.7181 23.7648C89.6152 23.7648 89.5123 23.7451 89.4094 23.7056C89.3065 23.6858 89.1727 23.6858 89.0081 23.7056C88.864 23.7056 88.7509 23.7155 88.6685 23.7352C88.5656 23.7549 88.4833 23.7648 88.4216 23.7648C88.3598 23.7648 88.2981 23.7747 88.2364 23.7944C87.7425 23.9129 87.3309 24.0708 87.0016 24.2682C86.2402 24.7222 85.7051 25.3835 85.3964 26.2521C85.1083 27.1207 84.851 28.0979 84.6247 29.1836L83.8529 32.885L83.4825 34.6912C83.4413 34.8689 83.4002 35.0465 83.359 35.2242C83.3179 35.4019 83.2561 35.5499 83.1738 35.6684C83.0297 35.8855 82.8342 36.0138 82.5873 36.0533C82.3609 36.0928 82.0831 36.1125 81.7538 36.1125H80.2104C79.984 36.1125 79.7576 36.1027 79.5312 36.0829C79.3048 36.0632 79.1608 35.9941 79.0991 35.8756C78.9756 35.698 78.955 35.4414 79.0373 35.1058C79.1196 34.7702 79.1917 34.4543 79.2534 34.1582L80.0869 30.1311L81.4451 23.6168L81.7847 22.1066C81.8258 21.8895 81.867 21.6921 81.9082 21.5144C81.9493 21.3367 82.0419 21.1887 82.186 21.0702C82.2271 21.011 82.2992 20.9715 82.4021 20.9518C82.505 20.9123 82.6079 20.8827 82.7108 20.8629H82.8651C82.968 20.8432 83.0709 20.8333 83.1738 20.8333H84.8099C84.9745 20.8333 85.1289 20.8432 85.2729 20.8629C85.4376 20.8629 85.5816 20.8827 85.7051 20.9222C85.8286 20.9814 85.9006 21.0702 85.9212 21.1887C85.9623 21.3071 85.9829 21.4453 85.9829 21.6032C85.9829 21.6822 85.9726 21.7513 85.952 21.8105C85.9315 21.8697 85.9315 21.9289 85.952 21.9882C85.9726 22.0869 85.9932 22.1461 86.0138 22.1658C86.0549 22.1856 86.1064 22.2152 86.1681 22.2547C86.3739 22.2744 86.5694 22.2053 86.7546 22.0474C86.9399 21.8697 87.1251 21.7315 87.3103 21.6328C87.9483 21.238 88.6274 20.9222 89.3477 20.6853C89.5535 20.6261 89.749 20.5866 89.9342 20.5668C90.14 20.5471 90.3663 20.5175 90.6133 20.478C90.675 20.4583 90.7677 20.4583 90.8911 20.478C91.0146 20.478 91.0969 20.4681 91.1381 20.4484C92.3729 20.4089 93.3607 20.5767 94.1015 20.9518ZM38.0747 29.0059C37.9924 29.0257 37.9204 29.0454 37.8586 29.0652C37.7969 29.0652 37.7146 29.075 37.6117 29.0948C37.4676 29.1342 37.3133 29.1639 37.1486 29.1836C36.984 29.2033 36.8091 29.2329 36.6239 29.2724C36.5621 29.2922 36.4695 29.302 36.346 29.302C36.0579 29.3613 35.7801 29.4007 35.5126 29.4205C35.245 29.4402 34.9775 29.4896 34.71 29.5685L34.2161 29.687C34.072 29.7067 33.9279 29.7462 33.7839 29.8054C33.3106 29.9831 32.8887 30.2496 32.5182 30.6049C32.1478 30.9602 31.9317 31.4538 31.87 32.0855C31.8494 32.421 31.9111 32.6974 32.0552 32.9146C32.1375 33.1317 32.3124 33.3094 32.58 33.4476C32.8475 33.566 33.1459 33.6548 33.4752 33.7141C33.8045 33.7733 34.1543 33.793 34.5247 33.7733C34.9158 33.7338 35.2862 33.6647 35.636 33.566C36.2123 33.4081 36.6856 33.1613 37.056 32.8257C37.447 32.4704 37.7763 32.0361 38.0438 31.5229C38.1056 31.3847 38.157 31.2465 38.1982 31.1083C38.2394 30.9504 38.3011 30.7925 38.3834 30.6345L38.4451 30.368C38.4863 30.2693 38.5172 30.1608 38.5378 30.0423C38.5583 29.9041 38.5686 29.7857 38.5686 29.687C38.5686 29.5685 38.5789 29.46 38.5995 29.3613C38.6201 29.2626 38.5892 29.1836 38.5069 29.1244C38.4246 29.0454 38.2805 29.0059 38.0747 29.0059ZM70.8502 23.5279C70.7885 23.5674 70.7164 23.5773 70.6341 23.5575C70.5518 23.5378 70.4798 23.5378 70.418 23.5575C70.2946 23.597 70.1711 23.6266 70.0476 23.6464C69.9241 23.6464 69.8109 23.6661 69.708 23.7056C68.7408 23.982 67.9588 24.5248 67.362 25.3342C67.3002 25.4131 67.2282 25.5217 67.1459 25.6599C67.0636 25.7783 67.0018 25.9067 66.9607 26.0448C66.9195 26.1633 66.8989 26.2817 66.8989 26.4002C66.8989 26.5186 66.9504 26.6173 67.0533 26.6963C67.1973 26.795 67.4134 26.8443 67.7015 26.8443H72.8567C73.186 26.8246 73.4124 26.7358 73.5358 26.5778C73.721 26.3804 73.7828 26.1435 73.721 25.8672C73.6799 25.5711 73.649 25.3539 73.6284 25.2157C73.4432 24.6827 73.1448 24.2781 72.7332 24.0017C72.3216 23.7056 71.694 23.5477 70.8502 23.5279Z" fill="black"/>
<path d="M61.293 20.2179C61.2491 20.2353 61.2012 20.2571 61.1497 20.2833L61.0696 20.3256C61.0145 20.356 60.9557 20.3906 60.8936 20.4293L60.7979 20.4904L60.6974 20.5574L60.5922 20.6304L60.4825 20.7092C60.4639 20.7228 60.445 20.7366 60.426 20.7507L60.3099 20.838L60.1896 20.9308L60.0654 21.029L59.9375 21.1325L59.8059 21.2412L59.671 21.355L59.5328 21.4737C59.5095 21.4939 59.4861 21.5143 59.4625 21.535L59.9148 22.7566C60.4039 22.2558 60.8953 21.81 61.3775 21.4302L61.5472 21.2982L61.5594 21.2892L61.4428 21.3802L61.3284 21.4751L61.2044 21.5827L61.0867 21.6884L60.9878 21.7797L60.9169 21.8464L60.7631 21.9942L60.6374 22.1181L60.4563 22.3013L60.36 22.4007L60.2598 22.5055L60.1025 22.673L59.9929 22.7916C60.1054 22.8019 60.2287 22.8107 60.36 22.8183L60.5626 22.8286L60.7751 22.8371L60.9954 22.8436L61.2213 22.8483L61.4508 22.8513C61.4892 22.8516 61.5277 22.8519 61.5662 22.8521L61.797 22.8524C61.8353 22.8524 61.8736 22.8522 61.9118 22.852L62.1392 22.8499C62.1767 22.8494 62.2141 22.8489 62.2511 22.8482L62.4703 22.8438C62.6502 22.3293 62.6914 21.9157 62.6775 21.6068L62.6726 21.5286L62.6656 21.4552C62.6643 21.4433 62.6629 21.4317 62.6614 21.4202L62.6518 21.354L62.6408 21.2925C62.6389 21.2827 62.6369 21.2731 62.6349 21.2636L62.6225 21.2094L62.6096 21.1601L62.5965 21.1156L62.5836 21.076L62.5594 21.0115L62.5397 20.9667L62.493 20.8743L62.4657 20.825L62.443 20.7862L62.4166 20.7436L62.3866 20.698L62.3531 20.6501L62.3161 20.6006C62.1098 20.3341 61.7575 20.0341 61.293 20.2179Z" fill="url(#paint7_linear_3712_39327)"/>
<path d="M57.6189 25.4225C57.8633 25.1083 58.1065 24.8019 58.3484 24.5034C58.6004 24.1943 58.8547 23.8975 59.1118 23.6092C59.1271 23.5913 59.1423 23.5734 59.157 23.5594C59.4088 23.2784 59.6589 23.009 59.9112 22.7521L59.4584 21.5344L59.4038 21.5829L59.2895 21.6829C59.0766 21.8733 58.8531 22.0782 58.6231 22.2983C58.4934 22.4223 58.3622 22.55 58.2287 22.6815L57.9589 22.9494C57.9134 22.9949 57.8676 23.0407 57.8216 23.087C57.5692 23.344 57.3104 23.6161 57.0504 23.896C56.8849 24.0771 56.719 24.2603 56.5525 24.4474L56.3606 24.6644L56.9385 26.3204L57.167 26.0201L57.6189 25.4225Z" fill="url(#paint8_linear_3712_39327)"/>
<path d="M52.666 33.4441L52.58 33.5963L52.3528 34.0031C52.3146 34.0718 52.2764 34.1411 52.2382 34.2108L52.1179 34.4328C52.095 34.4736 52.0726 34.5106 52.0537 34.552L51.9273 34.7859L51.651 35.3007C51.8761 35.4405 52.0262 35.7421 52.1582 36.0812C52.1875 35.7528 52.0953 35.4273 51.8655 35.1545C53.0394 35.3719 54.1055 35.2294 54.7561 34.4715C54.8125 34.4034 54.8694 34.3312 54.9229 34.2546C54.6475 34.5018 54.346 34.5888 53.8269 34.4958L53.7683 34.4848C54.6442 34.2474 55.1094 33.9643 55.5591 33.4546C55.6653 33.3334 55.7734 33.2003 55.8839 33.0516C55.0556 33.6603 54.1909 33.7429 53.3351 33.4662L52.666 33.4441Z" fill="url(#paint9_linear_3712_39327)"/>
<path d="M53.0581 32.3001L53.3018 31.8895L53.7046 31.2143C53.9005 30.8893 54.1005 30.5648 54.3052 30.237C54.5099 29.9093 54.7187 29.582 54.9274 29.2548C55.1415 28.9203 55.3591 28.5903 55.5807 28.2609C55.7977 27.9349 56.0228 27.6099 56.2433 27.2884C56.3238 27.1715 56.4037 27.0585 56.4884 26.9422C56.6271 26.7454 56.7699 26.5491 56.9127 26.3528L56.9344 26.3198L56.3641 24.6689L56.3319 24.7074C56.3261 24.7139 56.32 24.7201 56.3136 24.7259C56.0799 24.9975 55.8415 25.2725 55.6101 25.5565C55.374 25.8438 55.1414 26.1356 54.9117 26.4358C54.7184 26.6891 54.5292 26.9429 54.3394 27.2007L54.2277 27.3573C53.9985 27.6816 53.7827 27.9999 53.5898 28.3053C53.3699 28.6509 53.1728 28.9838 52.995 29.2994C52.8796 29.5075 52.7695 29.7084 52.6688 29.9026C52.5852 30.0671 52.505 30.2361 52.4255 30.4012C52.2404 30.7919 52.0758 31.1854 51.9275 31.5812L52.5083 33.2457L52.6214 33.0481L52.8525 32.6506C52.8912 32.5838 52.93 32.5167 52.9685 32.449L53.0581 32.3001Z" fill="url(#paint10_linear_3712_39327)"/>
<path d="M51.9069 31.6344C51.7513 32.0543 51.6176 32.4772 51.5113 32.904L51.4556 33.1376C51.4033 33.0219 51.3192 32.9024 51.2245 32.7896L51.1665 32.7228C51.1567 32.7118 51.1468 32.701 51.1369 32.6902L51.0769 32.6268L51.017 32.5663L50.958 32.5092L50.8735 32.4311L50.7969 32.3635L50.7129 32.2928L50.6374 32.2331C51.0237 32.9846 51.2926 33.7116 51.2443 34.382C50.9748 34.3961 50.6264 34.271 50.2356 34.0677C50.4038 34.2656 50.5583 34.4052 50.6885 34.5031L50.7469 34.5454C50.7564 34.552 50.7656 34.5583 50.7748 34.5644L50.8275 34.5985L50.8763 34.6275L50.9209 34.6519L50.961 34.672L50.9964 34.6882L51.0269 34.7008C51.0316 34.7026 51.036 34.7043 51.0402 34.7059C50.7128 34.6794 50.3498 34.8116 49.975 34.9939L49.8496 35.0563L49.7235 35.1216C50.3694 34.968 50.8786 34.9435 51.2182 35.0715C51.0514 35.3745 50.8835 35.6845 50.7146 36.0012L50.4605 36.4811C50.0782 37.2081 49.691 37.967 49.2999 38.7516L49.0386 39.2784C48.9514 39.4552 48.8639 39.6332 48.7762 39.8124C48.9552 39.7895 49.0748 39.6901 49.1549 39.5491L49.4507 38.9474L49.723 38.4063L50.071 37.7268L50.3784 37.1361L50.6829 36.5589L50.9722 36.0176L51.3737 35.2772L51.6587 34.759L51.7567 34.5823L51.8411 34.4327L51.918 34.2925L52.0351 34.0851L52.2752 33.6621C52.3159 33.5907 52.3569 33.5189 52.3983 33.4465L52.5118 33.2502L52.5124 33.2462L51.9316 31.5818C51.9242 31.5941 51.9188 31.6049 51.914 31.6164L51.9069 31.6344Z" fill="url(#paint11_linear_3712_39327)"/>
<path d="M57.0491 26.4722L56.9586 26.5997C56.8978 26.6873 56.8353 26.7747 56.7731 26.8633L56.4751 27.2943L56.2624 27.6008L56.2085 27.6801C56.1277 27.799 56.0465 27.9198 55.9646 28.0425L55.7158 28.4161C55.5507 28.6654 55.3844 28.9221 55.2146 29.1881L55.0866 29.3894C54.8831 29.7093 54.6731 30.0444 54.4619 30.3873L54.2188 30.7854C54.0962 30.9867 53.9721 31.1918 53.8471 31.4026C53.773 31.5268 53.6986 31.6529 53.6236 31.7806L53.254 32.413L53.1407 32.61L52.9107 33.0115C52.8335 33.1468 52.7557 33.2837 52.6778 33.4218C52.6725 33.429 52.6672 33.4363 52.666 33.4441L53.3352 33.4662C53.3235 33.4605 53.3112 33.4588 53.2955 33.4526C54.099 33.4695 55.2322 33.0521 56.0137 32.4488C56.3737 32.1709 56.7134 31.8341 57.0429 31.4277C57.2896 31.1259 57.5253 30.7864 57.7635 30.4032C57.9688 30.0715 58.1748 29.7079 58.3775 29.3117C58.1837 29.3765 57.965 29.4139 57.7288 29.4287L57.6025 29.435C57.5745 29.4364 57.5467 29.436 57.5176 29.4361L57.4728 29.4367C58.2502 29.2697 58.7921 28.8131 59.2258 28.217C59.0144 28.3155 58.6743 28.4359 58.2855 28.4653C58.2347 28.4702 58.1803 28.4705 58.126 28.4709C58.1178 28.4697 58.1093 28.4703 58.0998 28.4702L58.0845 28.4691C58.3536 28.4028 58.5877 28.3195 58.7968 28.2087C58.8269 28.1942 58.8554 28.1778 58.8834 28.1606L58.9251 28.1346C58.9895 28.0956 59.0505 28.0521 59.1114 28.0086L59.2252 27.9204C59.3114 27.8484 59.3947 27.768 59.471 27.6785L59.5199 27.6243C59.5276 27.6153 59.535 27.6061 59.5421 27.5964L59.6037 27.5131C59.6135 27.4996 59.623 27.4862 59.632 27.4728C59.7477 27.3138 59.8454 27.1676 59.928 27.0346L59.9624 26.9784C60.0071 26.9046 60.0466 26.838 60.0813 26.7748L60.1219 26.7003L60.1835 26.5806C60.1962 26.5558 60.2078 26.5321 60.2179 26.5095L60.2359 26.4693L60.2665 26.3966C60.2755 26.3742 60.2833 26.3536 60.2899 26.335L60.2988 26.3085C60.2805 26.3193 60.2603 26.3298 60.2385 26.3389L60.2045 26.3514C59.9645 26.4458 59.5662 26.5099 59.2512 26.5217C59.2471 26.5211 59.243 26.5205 59.2383 26.5239L59.1754 26.5242C59.1644 26.5246 59.1532 26.5253 59.1419 26.5263L59.1594 26.5208L57.0574 26.4453C57.0591 26.4616 57.0538 26.4688 57.0491 26.4722Z" fill="url(#paint12_linear_3712_39327)"/>
<path d="M59.993 22.7916C59.9179 22.8732 59.8402 22.9589 59.7602 23.0485L59.5967 23.233L59.4268 23.4278L59.2214 23.6657C59.217 23.6712 59.2129 23.6768 59.2092 23.683C59.0921 23.8207 58.9718 23.9651 58.8478 24.1169L58.6589 24.3504C58.6269 24.3903 58.5947 24.4307 58.5622 24.4716L58.2908 24.8158L58.1134 25.0438C58.0236 25.16 57.9321 25.2796 57.8387 25.4033L57.7448 25.5283C57.6506 25.6525 57.5559 25.7802 57.4597 25.9114L57.2649 26.1783L57.0643 26.4543L59.1664 26.5298C59.8083 26.3477 60.1147 26.1464 60.4298 25.8341C60.4928 25.7709 60.5564 25.7032 60.6204 25.6328L60.6846 25.5615C60.9458 25.2737 61.2077 24.9539 61.4452 24.6308C61.6767 24.3188 61.8871 24.0078 62.0513 23.7264C62.1584 23.5451 62.2467 23.3773 62.3157 23.2267C62.3735 23.0946 62.4219 22.9692 62.4657 22.8471L62.2476 22.8508L62.0234 22.853L61.7951 22.8538L61.5649 22.853C61.5265 22.8527 61.4881 22.8524 61.4498 22.852L61.2207 22.8488L60.9951 22.8439C60.9579 22.8429 60.9209 22.8419 60.8842 22.8408L60.6677 22.8332C60.6323 22.8318 60.5973 22.8303 60.5626 22.8287L60.3601 22.8183C60.2288 22.8107 60.1055 22.8019 59.993 22.7916Z" fill="url(#paint13_linear_3712_39327)"/>
<defs>
<linearGradient id="paint0_linear_3712_39327" x1="47.5073" y1="21.3562" x2="50.9644" y2="20.1809" gradientUnits="userSpaceOnUse">
<stop stop-color="#F69923"/>
<stop offset="0.3123" stop-color="#F79A23"/>
<stop offset="0.8383" stop-color="#E97826"/>
</linearGradient>
<linearGradient id="paint1_linear_3712_39327" x1="47.2326" y1="39.7051" x2="51.1869" y2="23.3388" gradientUnits="userSpaceOnUse">
<stop offset="0.3233" stop-color="#9E2064"/>
<stop offset="0.6302" stop-color="#C92037"/>
<stop offset="0.7514" stop-color="#CD2335"/>
<stop offset="1" stop-color="#E97826"/>
</linearGradient>
<linearGradient id="paint2_linear_3712_39327" x1="51.0684" y1="39.1923" x2="53.6621" y2="26.0234" gradientUnits="userSpaceOnUse">
<stop stop-color="#282662"/>
<stop offset="0.0954839" stop-color="#662E8D"/>
<stop offset="0.7882" stop-color="#9F2064"/>
<stop offset="0.9487" stop-color="#CD2032"/>
</linearGradient>
<linearGradient id="paint3_linear_3712_39327" x1="47.9653" y1="38.8147" x2="53.7545" y2="24.139" gradientUnits="userSpaceOnUse">
<stop offset="0.3233" stop-color="#9E2064"/>
<stop offset="0.6302" stop-color="#C92037"/>
<stop offset="0.7514" stop-color="#CD2335"/>
<stop offset="1" stop-color="#E97826"/>
</linearGradient>
<linearGradient id="paint4_linear_3712_39327" x1="49.5201" y1="38.1441" x2="54.2768" y2="31.9658" gradientUnits="userSpaceOnUse">
<stop stop-color="#282662"/>
<stop offset="0.0954839" stop-color="#662E8D"/>
<stop offset="0.7882" stop-color="#9F2064"/>
<stop offset="0.9487" stop-color="#CD2032"/>
</linearGradient>
<linearGradient id="paint5_linear_3712_39327" x1="49.9058" y1="41.3455" x2="54.1274" y2="20.5129" gradientUnits="userSpaceOnUse">
<stop offset="0.3233" stop-color="#9E2064"/>
<stop offset="0.6302" stop-color="#C92037"/>
<stop offset="0.7514" stop-color="#CD2335"/>
<stop offset="1" stop-color="#E97826"/>
</linearGradient>
<linearGradient id="paint6_linear_3712_39327" x1="48.5886" y1="46.4768" x2="52.557" y2="22.3944" gradientUnits="userSpaceOnUse">
<stop offset="0.3233" stop-color="#9E2064"/>
<stop offset="0.6302" stop-color="#C92037"/>
<stop offset="0.7514" stop-color="#CD2335"/>
<stop offset="1" stop-color="#E97826"/>
</linearGradient>
<linearGradient id="paint7_linear_3712_39327" x1="59.9977" y1="21.7843" x2="64.4962" y2="20.5343" gradientUnits="userSpaceOnUse">
<stop stop-color="#F69923"/>
<stop offset="0.3123" stop-color="#F79A23"/>
<stop offset="0.8383" stop-color="#E97826"/>
</linearGradient>
<linearGradient id="paint8_linear_3712_39327" x1="53.3275" y1="40.4378" x2="61.9561" y2="23.9572" gradientUnits="userSpaceOnUse">
<stop offset="0.3233" stop-color="#9E2064"/>
<stop offset="0.6302" stop-color="#C92037"/>
<stop offset="0.7514" stop-color="#CD2335"/>
<stop offset="1" stop-color="#E97826"/>
</linearGradient>
<linearGradient id="paint9_linear_3712_39327" x1="50.7782" y1="36.9669" x2="54.6849" y2="30.1264" gradientUnits="userSpaceOnUse">
<stop stop-color="#282662"/>
<stop offset="0.0954839" stop-color="#662E8D"/>
<stop offset="0.7882" stop-color="#9F2064"/>
<stop offset="0.9487" stop-color="#CD2032"/>
</linearGradient>
<linearGradient id="paint10_linear_3712_39327" x1="52.389" y1="39.292" x2="61.1601" y2="23.8138" gradientUnits="userSpaceOnUse">
<stop offset="0.3233" stop-color="#9E2064"/>
<stop offset="0.6302" stop-color="#C92037"/>
<stop offset="0.7514" stop-color="#CD2335"/>
<stop offset="1" stop-color="#E97826"/>
</linearGradient>
<linearGradient id="paint11_linear_3712_39327" x1="50.1604" y1="37.9445" x2="54.9919" y2="30.4507" gradientUnits="userSpaceOnUse">
<stop stop-color="#282662"/>
<stop offset="0.0954839" stop-color="#662E8D"/>
<stop offset="0.7882" stop-color="#9F2064"/>
<stop offset="0.9487" stop-color="#CD2032"/>
</linearGradient>
<linearGradient id="paint12_linear_3712_39327" x1="50.014" y1="39.3056" x2="60.1431" y2="22.3854" gradientUnits="userSpaceOnUse">
<stop offset="0.3233" stop-color="#9E2064"/>
<stop offset="0.6302" stop-color="#C92037"/>
<stop offset="0.7514" stop-color="#CD2335"/>
<stop offset="1" stop-color="#E97826"/>
</linearGradient>
<linearGradient id="paint13_linear_3712_39327" x1="50.0499" y1="32.7519" x2="56.531" y2="21.6166" gradientUnits="userSpaceOnUse">
<stop offset="0.3233" stop-color="#9E2064"/>
<stop offset="0.6302" stop-color="#C92037"/>
<stop offset="0.7514" stop-color="#CD2335"/>
<stop offset="1" stop-color="#E97826"/>
</linearGradient>
</defs>
</svg>
