<svg width="50" height="50" viewBox="0 0 50 50" fill="none" xmlns="http://www.w3.org/2000/svg">
<g clip-path="url(#clip0_3702_45531)">
<path d="M29.2898 5.93274C27.2674 3.51893 25.5249 1.05029 25.171 0.543713C25.1637 0.533012 25.1539 0.524266 25.1425 0.518227C25.1311 0.512187 25.1184 0.509032 25.1055 0.509033C25.0927 0.509034 25.08 0.512191 25.0686 0.518232C25.0572 0.524274 25.0474 0.533021 25.0401 0.543724C24.6863 1.05032 22.9442 3.51894 20.9218 5.93274C3.58777 28.2673 23.6577 43.3361 23.6577 43.3361L23.8204 43.4505C23.9725 45.7819 24.3506 49.1325 24.3506 49.1325H25.861C25.861 49.1325 26.2374 45.7963 26.3902 43.4656L26.5539 43.3361C26.5539 43.3361 46.6237 28.2673 29.2898 5.93274ZM25.1059 43.0087H25.1057C25.1057 43.0087 24.206 42.2325 23.9631 41.8436L23.9609 41.8017L25.0492 17.4858C25.0499 17.471 25.0561 17.4571 25.0667 17.4469C25.0772 17.4368 25.0912 17.4311 25.1058 17.4311C25.1204 17.4311 25.1344 17.4368 25.1449 17.4469C25.1554 17.4571 25.1617 17.471 25.1623 17.4858L26.2506 41.8017L26.2485 41.8434C26.0058 42.2323 25.1059 43.0087 25.1059 43.0087Z" fill="#00684A"/>
</g>
<defs>
<clipPath id="clip0_3702_45531">
<rect width="24" height="50" fill="white" transform="translate(13)"/>
</clipPath>
</defs>
</svg>
