<svg width="100" height="50" viewBox="0 0 100 50" fill="none" xmlns="http://www.w3.org/2000/svg">
<path fill-rule="evenodd" clip-rule="evenodd" d="M8.03784 43.0848H10.8344V32.0059L15.2019 41.6652C15.6967 42.8263 16.4074 43.2564 17.7835 43.2564C19.1596 43.2564 19.8279 42.8258 20.339 41.6652L24.6848 32.0059V43.0848H27.5031V32.0059C27.5031 30.9307 27.0725 30.4133 26.1689 30.1336C24.0392 29.4885 22.6192 30.0478 21.974 31.4885L17.6933 41.0404L13.5626 31.4885C12.9386 30.0478 11.4969 29.4885 9.34597 30.1336C8.4636 30.4133 8.0335 30.9302 8.0335 32.0059L8.03302 43.0848H8.03784ZM29.831 34.071H32.6493V40.1594C32.6281 40.5032 32.7569 41.2781 34.2887 41.2988C35.0843 41.3205 40.3554 41.2988 40.3978 41.2988V34.0276H43.2161V43.9884C43.2161 46.4407 40.1784 46.9778 38.7628 47H29.9005V45.1292H38.7854C40.5926 44.9353 40.3776 44.0322 40.3776 43.7309V42.9989H34.4179C31.6426 42.9772 29.8566 41.7511 29.8359 40.3528V34.0701L29.831 34.071ZM90.2828 27.0145C88.5624 26.9711 87.2278 27.1437 86.1091 27.6172C85.787 27.7474 85.2702 27.7474 85.2277 28.1553C85.3999 28.3265 85.4206 28.6066 85.5715 28.8438C85.8295 29.2744 86.2818 29.8545 86.6902 30.1553C87.1424 30.5001 87.5942 30.8439 88.0668 31.1452C88.9057 31.6612 89.8522 31.9625 90.6695 32.4789C91.143 32.7803 91.616 33.1675 92.0895 33.4905C92.3306 33.6626 92.4767 33.9428 92.7781 34.0498V33.9847C92.6276 33.7919 92.5842 33.5122 92.4343 33.2962C92.2187 33.0816 92.0037 32.8873 91.7882 32.6727C91.1647 31.8338 90.3899 31.1018 89.5509 30.5001C88.8623 30.0266 87.357 29.3814 87.0773 28.5859L87.0349 28.5425C87.5074 28.4991 88.0668 28.3269 88.519 28.1977C89.251 28.0048 89.9173 28.0473 90.6695 27.8539C91.0143 27.7671 91.3581 27.6601 91.7028 27.5526V27.3597C91.3156 26.9725 91.036 26.4561 90.6276 26.0906C89.5306 25.1441 88.3252 24.2188 87.0773 23.4445C86.4105 23.0144 85.5498 22.7342 84.8401 22.3692C84.5811 22.24 84.1515 22.1754 84.0011 21.9603C83.6129 21.4878 83.3984 20.8634 83.1187 20.3036C82.4953 19.1203 81.8925 17.8084 81.3549 16.5605C80.9677 15.7215 80.7305 14.8825 80.258 14.1082C78.0419 10.4509 75.632 8.23532 71.9318 6.06218C71.1363 5.61038 70.1898 5.41607 69.1835 5.1798L67.5701 5.09301C67.2254 4.94257 66.8816 4.53369 66.5802 4.33986C65.3541 3.56549 62.1915 1.88753 61.2874 4.10359C60.7064 5.50189 62.1481 6.87849 62.6375 7.58873C63.004 8.08344 63.4765 8.64276 63.7354 9.20208C63.8801 9.56756 63.9283 9.95523 64.0792 10.3424C64.423 11.2889 64.746 12.3434 65.1978 13.2258C65.4389 13.6776 65.6921 14.1516 65.9934 14.56C66.1656 14.7962 66.4669 14.9042 66.531 15.2914C66.2297 15.722 66.209 16.3667 66.0368 16.9053C65.262 19.3364 65.5633 22.348 66.6603 24.133C67.005 24.6706 67.8175 25.8544 68.9197 25.4021C69.8879 25.0149 69.6719 23.7887 69.9516 22.713C70.0167 22.455 69.9733 22.2829 70.102 22.1103V22.1537L70.9844 23.9392C71.6512 24.9932 72.8133 26.0906 73.781 26.8226C74.2969 27.2097 74.7058 27.8771 75.3509 28.1133V28.0482H75.3085C75.1793 27.8554 74.9854 27.7686 74.8133 27.6181C74.4261 27.231 73.996 26.7575 73.6947 26.3274C72.7916 25.1229 71.996 23.7887 71.2857 22.4121C70.941 21.7453 70.6396 21.0138 70.3609 20.347C70.2307 20.0885 70.2308 19.7009 70.0162 19.5726C69.6931 20.0452 69.2206 20.455 68.9829 21.0355C68.574 21.9603 68.5316 23.1007 68.3811 24.2839C68.2943 24.3056 68.3329 24.2839 68.2943 24.3273C67.6068 24.1557 67.3695 23.4449 67.1116 22.8432C66.4664 21.3157 66.3584 18.8634 66.9177 17.0991C67.0682 16.6473 67.7143 15.2273 67.4563 14.7972C67.3261 14.3883 66.897 14.1521 66.6598 13.829C66.3801 13.4201 66.0797 12.9042 65.8859 12.4524C65.37 11.247 65.112 9.91376 64.5522 8.70882C64.2933 8.1495 63.842 7.56848 63.476 7.05256C63.0671 6.47154 62.6163 6.06266 62.2932 5.3746C62.1857 5.13834 62.0353 4.75067 62.2074 4.49222C62.2498 4.32009 62.3366 4.25596 62.5078 4.21257C62.7875 3.9763 63.584 4.27718 63.8637 4.40543C64.6593 4.72849 65.3261 5.02937 65.9929 5.48068C66.2943 5.69573 66.6174 6.10461 67.0045 6.21261H67.4568C68.1454 6.36305 68.9192 6.25601 69.5639 6.44888C70.7042 6.81533 71.7366 7.35247 72.6623 7.93397C75.4801 9.71945 77.8042 12.2581 79.3742 15.2919C79.6321 15.7866 79.7397 16.2384 79.9769 16.7548C80.4292 17.8093 80.9885 18.8846 81.4393 19.9179C81.8916 20.929 82.3217 21.9623 82.9668 22.8012C83.2899 23.253 84.5802 23.4893 85.1607 23.7261C85.5913 23.9189 86.2577 24.0925 86.6458 24.3288C87.3768 24.7806 88.1082 25.297 88.7963 25.7917C89.1401 26.0492 90.2163 26.5873 90.2804 27.0164L90.2828 27.0145ZM68.344 8.3197C68.0468 8.31707 67.7505 8.35322 67.4626 8.42723V8.47062H67.505C67.6772 8.81489 67.9785 9.05164 68.1936 9.353L68.6888 10.3858L68.7312 10.3424C69.0326 10.1274 69.1835 9.78309 69.1835 9.26717C69.0542 9.11673 69.033 8.96581 68.9255 8.81538C68.7963 8.60033 68.5166 8.49232 68.344 8.32067V8.3197Z" fill="#00678C"/>
<path fill-rule="evenodd" clip-rule="evenodd" d="M45.3638 43.0848H53.4527C54.3992 43.0848 55.3033 42.8919 56.0342 42.5472C57.2604 41.9878 57.8414 41.2357 57.8414 40.2458V38.1806C57.8414 37.385 57.1746 36.6314 55.8414 36.1155C55.1528 35.8575 54.2921 35.7066 53.4532 35.7066H50.0539C48.9135 35.7066 48.3759 35.3618 48.225 34.6096C48.2038 34.5238 48.2038 34.4375 48.2038 34.3517V33.0821C48.2038 33.017 48.2038 32.9317 48.225 32.8459C48.3754 32.2648 48.6768 32.1139 49.6715 32.0069H57.9538V30.1346H50.0799C48.9396 30.1346 48.3373 30.1997 47.7992 30.3718C46.1425 30.8878 45.411 31.7055 45.411 33.1463V34.7823C45.411 36.0504 46.831 37.1271 49.2404 37.385C49.4984 37.4067 49.7781 37.4067 50.0577 37.4067H52.9623C53.0698 37.4067 53.1769 37.4067 53.2627 37.4284C54.1451 37.5142 54.5323 37.6647 54.7902 37.9868C54.9624 38.1589 55.0058 38.3098 55.0058 38.5037V40.1382C55.0058 40.3311 54.8765 40.5905 54.6186 40.8051C54.3606 41.0196 53.9508 41.1706 53.4131 41.1923C53.3056 41.1923 53.242 41.214 53.1335 41.214H45.3638V43.0848ZM75.3524 39.8369C75.3524 41.7511 76.7989 42.8263 79.6775 43.0423C79.9572 43.064 80.2151 43.0848 80.4948 43.0848H87.8093V41.214H80.4307C78.7947 41.214 78.1712 40.8051 78.1712 39.8157V30.1346H75.3471V39.8374L75.3524 39.8369ZM59.6264 39.9222V33.2538C59.6264 31.5541 60.8309 30.5208 63.1766 30.1987C63.4346 30.177 63.6926 30.1553 63.9288 30.1553H69.2636C69.5432 30.1553 69.7805 30.177 70.0601 30.1987C72.4049 30.5208 73.5877 31.5536 73.5877 33.2538V39.9222C73.5877 41.2988 73.0935 42.0308 71.9309 42.5259L74.6841 45.0207H71.4362L69.199 42.999L66.9395 43.1282H63.9279C63.376 43.1254 62.8267 43.0533 62.2928 42.9136C60.5088 42.4179 59.6264 41.4719 59.6264 39.9222ZM62.6593 39.7727C62.6593 39.8586 62.7075 39.9439 62.7244 40.0524C62.8748 40.8263 63.6058 41.2569 64.7244 41.2569H67.2635L64.9404 39.1483H68.1883L70.2318 40.9989C70.6199 40.7834 70.8562 40.482 70.942 40.0948C70.9637 40.009 70.9637 39.902 70.9637 39.8152V33.4254C70.9637 33.3396 70.9637 33.2543 70.942 33.1675C70.7916 32.4365 70.0606 32.0281 68.9632 32.0281H64.7249C63.477 32.0281 62.6597 32.5657 62.6597 33.4254L62.6593 39.7727Z" fill="#CE8B2C"/>
</svg>
