<svg width="50" height="49" viewBox="0 0 50 49" fill="none" xmlns="http://www.w3.org/2000/svg">
<path fill-rule="evenodd" clip-rule="evenodd" d="M46.0551 37.8974C43.3353 37.8289 41.2252 38.1014 39.4567 38.8486C38.9475 39.054 38.1303 39.054 38.0633 39.6978C38.3354 39.9679 38.3682 40.41 38.6068 40.7844C39.0146 41.4639 39.7296 42.3792 40.3753 42.8541C41.0903 43.3981 41.8046 43.9407 42.5516 44.4162C43.878 45.2304 45.3744 45.706 46.6665 46.5209C47.4151 46.9965 48.1629 47.6075 48.9114 48.1173C49.2926 48.389 49.5236 48.8311 50 49V48.8973C49.7622 48.5929 49.6935 48.1516 49.4565 47.8107C49.1157 47.4721 48.7758 47.1654 48.435 46.8268C47.4494 45.5028 46.2244 44.3477 44.898 43.3981C43.8094 42.6509 41.4295 41.6328 40.9874 40.3773L40.9203 40.3088C41.6674 40.2403 42.5516 39.9687 43.2667 39.7647C44.4238 39.4604 45.4773 39.5273 46.6665 39.2222C47.2115 39.0852 47.755 38.9163 48.3001 38.7466V38.4422C47.688 37.8312 47.2458 37.0163 46.6002 36.4395C44.866 34.9458 42.9602 33.4856 40.9874 32.2636C39.9332 31.5848 38.5725 31.1427 37.4504 30.5667C37.041 30.3628 36.3618 30.2608 36.124 29.9215C35.5103 29.1758 35.1711 28.1904 34.729 27.307C33.7433 25.4397 32.7905 23.3692 31.9405 21.3999C31.3284 20.0759 30.9534 18.7519 30.2063 17.5299C26.7028 11.7583 22.8929 8.26191 17.043 4.83245C15.7852 4.11946 14.2889 3.81282 12.698 3.43996L10.1473 3.303C9.60228 3.06559 9.05877 2.42033 8.58234 2.11444C6.64383 0.892407 1.64396 -1.75559 0.214658 1.74159C-0.703904 3.94826 1.57535 6.12068 2.34907 7.24152C2.92841 8.02222 3.67546 8.90489 4.08481 9.78755C4.3135 10.3643 4.38973 10.9761 4.62833 11.5871C5.17185 13.0808 5.68258 14.7449 6.39685 16.1374C6.778 16.8504 7.1782 17.5984 7.65463 18.2429C7.92677 18.6157 8.4032 18.7862 8.50458 19.3972C8.02815 20.0767 7.99538 21.094 7.72324 21.944C6.49824 25.7806 6.97467 30.5333 8.70889 33.3502C9.25392 34.1986 10.5384 36.0667 12.281 35.3529C13.8117 34.7419 13.4702 32.8069 13.9123 31.1093C14.0152 30.7022 13.9466 30.4305 14.1501 30.1581V30.2266L15.5451 33.0443C16.5994 34.7077 18.4365 36.4395 19.9664 37.5946C20.7821 38.2056 21.4285 39.2587 22.4484 39.6316V39.5288H22.3814C22.1771 39.2245 21.8706 39.0875 21.5985 38.8501C20.9864 38.2391 20.3064 37.4919 19.83 36.8131C18.4022 34.9123 17.1444 32.8069 16.0216 30.6345C15.4765 29.5821 15.0001 28.4278 14.5595 27.3754C14.3537 26.9676 14.3537 26.3558 14.0144 26.1534C13.5037 26.8991 12.7567 27.5459 12.3808 28.462C11.7344 29.9215 11.6673 31.721 11.4295 33.5883C11.2923 33.6226 11.3533 33.5883 11.2923 33.6568C10.2053 33.3859 9.83022 32.2643 9.42239 31.3147C8.40244 28.9041 8.23168 25.0341 9.11594 22.2499C9.35378 21.5369 10.3753 19.296 9.96743 18.6173C9.76161 17.972 9.08317 17.5991 8.70812 17.0893C8.26599 16.4441 7.79108 15.6299 7.48464 14.9169C6.66898 13.0146 6.26116 10.9107 5.37614 9.00913C4.96679 8.12647 4.25328 7.20956 3.6747 6.39537C3.02828 5.47847 2.31553 4.83321 1.8048 3.74738C1.63481 3.37453 1.39697 2.76275 1.66911 2.35489C1.73619 2.08324 1.87341 1.98204 2.14402 1.91356C2.58615 1.54071 3.84545 2.01552 4.28758 2.21793C5.54536 2.72774 6.59962 3.20256 7.65387 3.91478C8.1303 4.25415 8.64104 4.89941 9.25316 5.06985H9.96818C11.0567 5.30726 12.2802 5.13834 13.2994 5.4427C15.1022 6.021 16.7343 6.86867 18.1979 7.78633C22.6527 10.604 26.327 14.6103 28.809 19.398C29.2168 20.1787 29.3868 20.8916 29.7619 21.7066C30.4769 23.3707 31.3612 25.0676 32.0739 26.6982C32.7889 28.2939 33.4689 29.9245 34.4889 31.2485C34.9996 31.9615 37.0395 32.3344 37.9573 32.708C38.638 33.0123 39.6915 33.2863 40.3052 33.6591C41.4608 34.3721 42.6172 35.187 43.705 35.9677C44.2485 36.3741 45.9499 37.2233 46.0513 37.9005L46.0551 37.8974ZM11.3708 8.39507C10.9009 8.39092 10.4325 8.44796 9.97734 8.56476V8.63324H10.0444C10.3166 9.17653 10.793 9.55015 11.133 10.0257L11.9159 11.6556L11.9829 11.5871C12.4594 11.2478 12.698 10.7045 12.698 9.89028C12.4937 9.65287 12.4601 9.4147 12.2901 9.17729C12.0858 8.83792 11.6437 8.66596 11.3708 8.39507Z" fill="#00678C"/>
</svg>
