<svg width="50" height="50" viewBox="0 0 50 50" fill="none" xmlns="http://www.w3.org/2000/svg">
<g clip-path="url(#clip0_3710_38714)">
<path d="M36.2082 17.3513L36.19 17.3436C36.1795 17.3396 36.1692 17.336 36.1601 17.3266C36.1298 17.2941 36.1163 17.2493 36.1236 17.2054L37.1302 11.0426L41.8504 15.7709L36.9414 17.8626C36.928 17.8681 36.9131 17.8709 36.8984 17.8702H36.8789C36.8724 17.8662 36.8659 17.8611 36.8528 17.8481C36.6701 17.6444 36.4517 17.476 36.2083 17.3512L36.2082 17.3513ZM43.0548 16.9757L48.1019 22.0301C49.1502 23.0811 49.6749 23.6054 49.8663 24.213C49.895 24.303 49.9184 24.393 49.9367 24.4856L37.8749 19.3699C37.8684 19.3672 37.862 19.3645 37.8554 19.3623C37.8072 19.3427 37.7512 19.3206 37.7512 19.271C37.7512 19.2214 37.8085 19.1979 37.8567 19.1784L37.8723 19.1719L43.0548 16.9757ZM49.7309 26.1078C49.4705 26.5981 48.9627 27.1066 48.1032 27.9686L42.4129 33.6658L35.0532 32.131L35.0141 32.1234C34.949 32.1128 34.88 32.1012 34.88 32.0425C34.8235 31.4279 34.5146 30.8644 34.0271 30.4868C33.9971 30.4568 34.0049 30.4099 34.0142 30.3669C34.0142 30.3604 34.0142 30.3539 34.0167 30.3485L35.4009 21.8385L35.406 21.8098C35.4137 21.7446 35.4255 21.669 35.4841 21.669C36.0833 21.5943 36.6275 21.2819 36.9946 20.8018C37.0063 20.7889 37.0141 20.7744 37.0298 20.7666C37.0714 20.747 37.1209 20.7666 37.1639 20.7849L49.7296 26.1079L49.7309 26.1078ZM41.1042 34.9764L31.747 44.347L33.3487 34.4887L33.3512 34.4757C33.3526 34.4628 33.3553 34.4497 33.3589 34.4379C33.3718 34.4066 33.4058 34.3936 33.4383 34.3805L33.454 34.3741C33.8047 34.2242 34.1148 33.9932 34.359 33.6999C34.3902 33.6634 34.428 33.6282 34.4761 33.6216C34.4886 33.6195 34.5014 33.6195 34.5139 33.6216L41.1027 34.9778L41.1042 34.9764ZM29.7665 46.3304L28.7117 47.3867L17.051 30.5101C17.0468 30.5039 17.0425 30.4979 17.0381 30.4918C17.02 30.467 17.0004 30.4422 17.0043 30.4135C17.0043 30.3927 17.0187 30.3744 17.0329 30.3588L17.0458 30.3418C17.081 30.2896 17.111 30.2375 17.1435 30.1814L17.1695 30.1357L17.1736 30.1317C17.1919 30.1004 17.2088 30.0704 17.24 30.0534C17.2673 30.0405 17.3051 30.0458 17.3351 30.0521L30.2536 32.7201C30.2897 32.7257 30.3238 32.7406 30.3526 32.7631C30.3696 32.7801 30.3734 32.7984 30.3773 32.8192C30.56 33.5114 31.0552 34.0782 31.7159 34.3515C31.7524 34.3698 31.7368 34.4101 31.72 34.4532C31.7116 34.4721 31.7049 34.4917 31.7005 34.5119C31.5377 35.5029 30.1418 44.0285 29.7668 46.3301L29.7665 46.3304ZM27.5632 48.5355C26.7859 49.3062 26.3275 49.7143 25.8093 49.8786C25.2983 50.0405 24.7499 50.0405 24.2389 49.8786C23.6321 49.6856 23.1073 49.1614 22.0591 48.1104L10.3489 36.3834L13.4077 31.6329C13.4221 31.6094 13.4363 31.5885 13.4597 31.5716C13.4923 31.5481 13.5392 31.5586 13.5782 31.5716C14.2803 31.7837 15.0341 31.7454 15.7111 31.4633C15.7463 31.4504 15.7815 31.4412 15.8088 31.4659C15.8226 31.4782 15.8347 31.4924 15.8452 31.5076L27.5632 48.5368L27.5632 48.5355ZM9.21996 35.2528L6.53364 32.5626L11.8386 30.2963C11.8521 30.2902 11.8667 30.2872 11.8815 30.2871C11.9258 30.2871 11.9519 30.3314 11.9753 30.3718C12.0286 30.454 12.0851 30.534 12.1446 30.6118L12.1616 30.6326C12.1772 30.6548 12.1666 30.677 12.151 30.6979L9.22122 35.2528L9.21996 35.2528ZM5.34478 31.3721L1.94619 27.9686C1.36804 27.3896 0.94875 26.9697 0.65707 26.6085L10.9909 28.7549C11.0038 28.7573 11.0169 28.7596 11.0299 28.7614C11.0938 28.7719 11.1641 28.7836 11.1641 28.8436C11.1641 28.9088 11.0872 28.9387 11.0221 28.9635L10.9922 28.9764L5.34478 31.3721ZM0.0632935 24.8585C0.0751192 24.6393 0.114451 24.4224 0.180478 24.213C0.373195 23.6054 0.896657 23.0811 1.94618 22.0301L6.29534 17.6747C8.29782 20.5851 10.3057 23.4918 12.3191 26.3946C12.3542 26.4416 12.3933 26.4938 12.3529 26.5329C12.1628 26.7428 11.9727 26.9723 11.8386 27.2214C11.824 27.2534 11.8016 27.2812 11.7734 27.3022C11.7565 27.3128 11.7383 27.3087 11.7188 27.3048H11.7162L0.0632935 24.8572V24.8585ZM7.45946 16.5089L13.3048 10.6526C13.8556 10.8938 15.857 11.7401 17.6448 12.4965C18.9991 13.0702 20.2335 13.5918 20.6215 13.7614C20.6606 13.777 20.6957 13.7926 20.7127 13.8318C20.7232 13.8552 20.7177 13.8852 20.7127 13.91C20.5246 14.7687 20.7806 15.6646 21.3937 16.2938C21.4327 16.3329 21.3937 16.3889 21.3598 16.4372L21.3417 16.4646L15.4039 25.6749C15.3883 25.7009 15.374 25.7231 15.3479 25.7401C15.3167 25.7596 15.2724 25.7506 15.2359 25.7414C15.005 25.6808 14.7676 25.6484 14.5289 25.6449C14.3153 25.6449 14.0835 25.684 13.8491 25.727H13.8478C13.8218 25.7311 13.7983 25.7362 13.7775 25.7206C13.7545 25.7017 13.7347 25.6793 13.7189 25.6541L7.45823 16.509L7.45946 16.5089ZM14.4884 9.46984L22.0591 1.8883C23.1073 0.838569 23.6321 0.313051 24.2389 0.12136C24.7499 -0.0404533 25.2983 -0.0404533 25.8093 0.12136C26.4161 0.313051 26.9408 0.838569 27.989 1.8883L29.6297 3.53136L24.2454 11.8823C24.2322 11.9066 24.2139 11.9279 24.192 11.9449C24.1594 11.967 24.1139 11.9578 24.0748 11.9449C23.213 11.6829 22.2776 11.8634 21.5747 12.4273C21.5395 12.4639 21.4875 12.443 21.4432 12.4233C20.74 12.1168 15.271 9.80221 14.4884 9.46968L14.4884 9.46984ZM30.773 4.67628L35.7446 9.65501L34.5466 17.0853V17.1048C34.5456 17.1218 34.5419 17.1385 34.5361 17.1544C34.5232 17.1805 34.4971 17.1857 34.471 17.1935C34.2149 17.2712 33.9736 17.3916 33.7574 17.5495C33.7481 17.5563 33.7395 17.5636 33.7314 17.5717C33.717 17.5873 33.7027 17.6017 33.6793 17.6043C33.6602 17.6049 33.6412 17.6019 33.6233 17.5951L26.0474 14.3716L26.033 14.3651C25.9848 14.3456 25.9275 14.3221 25.9275 14.2725C25.883 13.8498 25.7451 13.4422 25.5239 13.0794C25.4874 13.0194 25.447 12.9568 25.4783 12.8955L30.773 4.67628ZM25.653 15.8986L32.7549 18.9109C32.7939 18.9292 32.8369 18.9461 32.8538 18.9865C32.8607 19.0109 32.8607 19.0365 32.8538 19.0609C32.833 19.1652 32.8148 19.2839 32.8148 19.4038V19.6033C32.8148 19.6529 32.764 19.6738 32.7171 19.6933L32.7027 19.6984C31.5777 20.1796 16.9077 26.4441 16.8856 26.4441C16.8635 26.4441 16.84 26.4441 16.8179 26.4219C16.7788 26.3828 16.8179 26.328 16.853 26.2785C16.8594 26.2699 16.8652 26.2611 16.8712 26.2524L22.7074 17.2026L22.7179 17.1869C22.7518 17.1322 22.7908 17.0709 22.8533 17.0709L22.9119 17.08C23.0447 17.0983 23.1619 17.1152 23.2804 17.1152C24.1659 17.1152 24.9862 16.6836 25.481 15.9455C25.4929 15.9258 25.5078 15.9082 25.5253 15.8933C25.5605 15.8672 25.6126 15.8804 25.6529 15.8984L25.653 15.8986ZM17.5198 27.876L33.5101 21.0469C33.5101 21.0469 33.5336 21.0469 33.5557 21.069C33.6429 21.1564 33.7172 21.2151 33.7888 21.2699L33.8239 21.292C33.8565 21.3104 33.8891 21.3311 33.8916 21.3651C33.8916 21.378 33.8916 21.3859 33.8889 21.3977L32.519 29.8242L32.514 29.8581C32.5048 29.9233 32.4958 29.9977 32.4345 29.9977C31.6931 30.0478 31.0241 30.4611 30.6467 31.1022L30.6402 31.1127C30.6221 31.1427 30.6051 31.1714 30.5751 31.187C30.5478 31.1999 30.5126 31.1947 30.4839 31.1883L17.7321 28.5542C17.7192 28.5516 17.5342 27.8774 17.5198 27.8761L17.5198 27.876Z" fill="url(#paint0_radial_3710_38714)"/>
</g>
<defs>
<radialGradient id="paint0_radial_3710_38714" cx="0" cy="0" r="1" gradientUnits="userSpaceOnUse" gradientTransform="translate(25 -25) scale(49.9999 50.1269)">
<stop stop-color="#20C6B7"/>
<stop offset="1" stop-color="#4D9ABF"/>
</radialGradient>
<clipPath id="clip0_3710_38714">
<rect width="50" height="50" fill="white"/>
</clipPath>
</defs>
</svg>
