<svg width="50" height="50" viewBox="0 0 50 50" fill="none" xmlns="http://www.w3.org/2000/svg">
<g clip-path="url(#clip0_3702_45618)">
<path d="M3.21563 25.0359V13.1031C3.20393 12.893 3.25486 12.6842 3.36195 12.5031C3.46904 12.3221 3.62749 12.1768 3.8172 12.0859L24.4 0.198401C24.7703 -0.032849 25.186 -0.079725 25.5563 0.151525L46.2313 12.0843C46.4085 12.1863 46.5541 12.3353 46.6519 12.5148C46.7498 12.6943 46.7962 12.8973 46.7859 13.1015V36.9218C46.7962 37.126 46.7498 37.3291 46.6519 37.5086C46.5541 37.6881 46.4085 37.8371 46.2313 37.939L28.4703 48.2047C27.5398 48.7616 26.599 49.3013 25.6485 49.8234C25.2328 50.0546 24.8156 50.0546 24.3984 49.8234L3.77032 37.9359C3.40001 37.7046 3.21563 37.4265 3.21563 36.964V25.0312V25.0359Z" fill="#009438"/>
<path d="M17.7844 20.5938V34.5C17.7844 36.0719 16.5344 37.4594 14.8703 37.4141C13.8547 37.3672 13.0672 36.9516 12.5266 36.0734C12.2484 35.6578 12.1562 35.1953 12.1562 34.6859V15.3688C12.1562 14.0719 12.9422 13.15 13.9594 12.7328C14.9766 12.3156 15.9937 12.4094 17.0125 12.7328C17.9844 13.0109 18.7234 13.6109 19.3562 14.3516L31.6594 29.1063C31.7062 29.1531 31.7531 29.2469 31.8438 29.3375V15.275C31.8438 13.7953 32.8594 12.6391 34.2969 12.5C36.1 12.2688 37.3031 13.5625 37.4875 14.9063V34.5938C37.4875 35.6875 36.9781 36.4906 36.0531 37C35.3594 37.3703 34.6187 37.4625 33.8344 37.4156C32.6998 37.3401 31.624 36.8837 30.7812 36.1203C30.3187 35.7047 29.9953 35.1953 29.5781 34.7328L17.875 20.7172C17.875 20.6703 17.8281 20.6234 17.7812 20.5766L17.7844 20.5938Z" fill="#FEFEFE"/>
</g>
<defs>
<clipPath id="clip0_3702_45618">
<rect width="50" height="50" fill="white"/>
</clipPath>
</defs>
</svg>
