<svg width="100" height="50" viewBox="0 0 100 50" fill="none" xmlns="http://www.w3.org/2000/svg">
<path d="M88.9866 21.1096C88.7605 21.1096 88.5407 21.1563 88.3462 21.2664L82.1914 24.8207C81.7931 25.0501 81.551 25.4836 81.551 25.9446V33.0405C81.551 33.5013 81.7931 33.9341 82.1914 34.1642L83.7988 35.0905C84.5797 35.4755 84.8678 35.4694 85.2232 35.4694C86.3794 35.4694 87.0395 34.7677 87.0395 33.5483V26.5477C87.0395 26.4488 86.9537 26.3779 86.8566 26.3779H86.0856C85.9868 26.3779 85.9027 26.4506 85.9027 26.5477V33.552C85.9027 34.0925 85.3397 34.6363 84.4261 34.1793L82.7552 33.1993C82.6962 33.1671 82.6506 33.1085 82.6506 33.0425V25.9466C82.6506 25.8794 82.6956 25.8107 82.7552 25.7768L88.8971 22.2351C88.9547 22.2021 89.0231 22.2021 89.08 22.2351L95.2219 25.7768C95.2804 25.8118 95.3265 25.8772 95.3265 25.9466V33.0425C95.3265 33.1103 95.2925 33.1796 95.235 33.2123L89.0802 36.754C89.0257 36.7854 88.953 36.7854 88.8973 36.754L87.3161 35.8132C87.2688 35.7856 87.2047 35.7877 87.1593 35.8132C86.7229 36.0605 86.6408 36.0892 86.2316 36.2313C86.1308 36.2663 85.9773 36.321 86.2839 36.4928L88.3486 37.7097C88.5451 37.8234 88.7641 37.8795 88.989 37.8795C89.2169 37.8795 89.4327 37.825 89.6294 37.7097L95.7842 34.168C96.1825 33.9363 96.4246 33.5051 96.4246 33.0443V25.9484C96.4246 25.4874 96.1825 25.0548 95.7842 24.8245L89.6294 21.2702C89.4365 21.1601 89.2153 21.1134 88.989 21.1134L88.9866 21.1096ZM90.6332 26.1801C88.8806 26.1801 87.8368 26.9261 87.8368 28.1663C87.8368 29.5103 88.8727 29.8816 90.5549 30.0479C92.5673 30.245 92.7242 30.5405 92.7242 30.9366C92.7242 31.6237 92.1764 31.9167 90.8817 31.9167C89.2551 31.9167 88.8974 31.5105 88.7778 30.6998C88.7636 30.613 88.6968 30.543 88.6079 30.543H87.8088C87.7606 30.5441 87.7147 30.5637 87.6807 30.5978C87.6466 30.6319 87.627 30.6778 87.6259 30.7259C87.6259 31.7617 88.1893 32.9866 90.8798 32.9866C92.8274 32.9866 93.9507 32.2238 93.9507 30.8827C93.9507 29.5568 93.0433 29.1985 91.1543 28.9484C89.2472 28.6941 89.0634 28.5725 89.0634 28.1251C89.0634 27.7561 89.2178 27.2624 90.6316 27.2624C91.8944 27.2624 92.3611 27.5348 92.5526 28.3863C92.5693 28.4662 92.6398 28.5316 92.7224 28.5316H93.5215C93.5706 28.5316 93.6182 28.5014 93.6523 28.4662C93.6857 28.4286 93.7093 28.3863 93.7046 28.3354C93.5811 26.869 92.6032 26.1792 90.6337 26.1792L90.6332 26.1801Z" fill="#83CD29"/>
<path d="M52.8022 11.8075C52.7334 11.8076 52.6659 11.8256 52.6062 11.8598C52.5468 11.8945 52.4975 11.9441 52.4632 12.0037C52.4288 12.0633 52.4106 12.1308 52.4102 12.1996V22.1964C52.4102 22.2945 52.3645 22.3824 52.2795 22.4316C52.2378 22.4559 52.1905 22.4687 52.1422 22.4687C52.094 22.4687 52.0467 22.4559 52.005 22.4316L50.3715 21.4908C50.2524 21.4219 50.1172 21.3856 49.9795 21.3856C49.8418 21.3856 49.7066 21.4219 49.5875 21.4908L43.0669 25.2542C42.8232 25.3948 42.6746 25.6654 42.6746 25.9467V33.4737C42.6744 33.6114 42.7105 33.7468 42.7794 33.8661C42.8482 33.9854 42.9473 34.0844 43.0667 34.1531L49.5875 37.9167C49.7066 37.9858 49.8418 38.0222 49.9795 38.0222C50.1172 38.0222 50.2524 37.9858 50.3715 37.9167L56.8923 34.1531C57.0117 34.0844 57.1108 33.9854 57.1796 33.8661C57.2485 33.7468 57.2846 33.6114 57.2844 33.4737V14.7085C57.2844 14.423 57.1286 14.1551 56.8794 14.016L52.9983 11.8465C52.9373 11.8126 52.8697 11.8066 52.8022 11.8073V11.8075ZM10.8548 21.2031C10.7304 21.2082 10.6136 21.2298 10.5019 21.2947L3.98136 25.0581C3.86191 25.1267 3.76274 25.2257 3.6939 25.345C3.62507 25.4643 3.58902 25.5997 3.58942 25.7375L3.60268 35.8391C3.60268 35.9797 3.67533 36.1101 3.79883 36.1788C3.91997 36.2514 4.07017 36.2514 4.19077 36.1788L8.05877 33.9572C8.30396 33.8119 8.46378 33.5583 8.46378 33.2779V28.5603C8.46378 28.2788 8.6118 28.0209 8.85608 27.881L10.5027 26.9271C10.6216 26.8579 10.757 26.8218 10.8946 26.8225C11.0323 26.8217 11.1677 26.8578 11.2867 26.9271L12.9326 27.8805C13.1765 28.0203 13.3245 28.2786 13.3245 28.5597V33.2772C13.3245 33.558 13.488 33.813 13.7295 33.9564L17.5975 36.178C17.7192 36.2507 17.8691 36.2507 17.9895 36.178C18.1093 36.109 18.1856 35.9788 18.1856 35.8384L18.1987 25.7371C18.1995 25.5993 18.1636 25.4638 18.0947 25.3444C18.0258 25.225 17.9265 25.126 17.8068 25.0577L11.2862 21.2945C11.1759 21.2298 11.0586 21.208 10.9333 21.203H10.8552L10.8548 21.2031ZM69.4503 21.2947C69.3127 21.2943 69.1774 21.3304 69.0582 21.3993L62.5375 25.1629C62.2941 25.3036 62.1451 25.561 62.1451 25.8421V33.3691C62.1451 33.652 62.3046 33.9085 62.5502 34.0483L69.0186 37.7353C69.2575 37.8715 69.549 37.8818 69.7896 37.748L73.7099 35.5656C73.8343 35.4966 73.9184 35.3676 73.9188 35.226C73.9191 35.0843 73.8456 34.9568 73.7226 34.8863L67.1624 31.1228C67.0397 31.0527 66.9536 30.9108 66.9536 30.7699V28.4162C66.9536 28.2757 67.0408 28.1467 67.1624 28.0766L69.201 26.9004C69.3223 26.8303 69.4712 26.8303 69.5933 26.9004L71.6327 28.0766C71.6924 28.1109 71.742 28.1604 71.7764 28.22C71.8108 28.2797 71.8289 28.3474 71.8287 28.4162V30.2719C71.8285 30.3407 71.8465 30.4084 71.8809 30.4681C71.9154 30.5277 71.9649 30.5772 72.0246 30.6115C72.1469 30.682 72.2949 30.6823 72.4169 30.6115L76.324 28.3381C76.5665 28.1972 76.7163 27.9391 76.7163 27.6589V25.8427C76.7163 25.705 76.6801 25.5697 76.6112 25.4504C76.5424 25.3312 76.4434 25.2321 76.3242 25.1632L69.8426 21.3997C69.7235 21.3307 69.5882 21.2946 69.4505 21.295L69.4503 21.2947ZM49.9533 26.9141C49.9897 26.9139 50.0257 26.9228 50.0579 26.94L52.2924 28.2337C52.353 28.2688 52.397 28.3336 52.397 28.4035V30.9909C52.397 31.0612 52.3534 31.1259 52.2924 31.1607L50.0579 32.4544C49.997 32.4889 49.9227 32.4889 49.8617 32.4544L47.6272 31.1607C47.5664 31.1257 47.5226 31.0608 47.5226 30.9909V28.4032C47.5226 28.3331 47.5666 28.2688 47.6272 28.2334L49.8617 26.9398C49.8922 26.9222 49.9191 26.9139 49.9533 26.9139V26.9137V26.9141Z" fill="#404137"/>
<path d="M30.4434 21.2553C30.3057 21.2551 30.1704 21.2912 30.0511 21.3599L23.5304 25.1104C23.2866 25.251 23.1384 25.5218 23.1384 25.8029V33.3299C23.1381 33.4676 23.1741 33.603 23.243 33.7223C23.3118 33.8416 23.4109 33.9405 23.5304 34.0092L30.0511 37.7727C30.1702 37.8418 30.3055 37.8782 30.4432 37.8782C30.5809 37.8782 30.7161 37.8418 30.8352 37.7727L37.356 34.0092C37.4753 33.9404 37.5744 33.8414 37.6433 33.7221C37.7121 33.6028 37.7483 33.4674 37.7481 33.3297V25.8028C37.7481 25.5212 37.5999 25.2506 37.3558 25.1102L30.835 21.3597C30.7159 21.2907 30.5804 21.2545 30.4427 21.2551L30.4434 21.2553ZM69.4376 27.9722C69.4116 27.9722 69.3828 27.9722 69.3591 27.9849L68.1047 28.7169C68.0813 28.7299 68.0618 28.7488 68.048 28.7717C68.0342 28.7946 68.0267 28.8207 68.0262 28.8475V30.285C68.0262 30.3391 68.0577 30.3885 68.1047 30.4158L69.3591 31.1344C69.3807 31.1478 69.4055 31.1549 69.4309 31.1549C69.4562 31.1549 69.4811 31.1478 69.5026 31.1344L70.7571 30.4158C70.8036 30.3891 70.8355 30.3391 70.8355 30.285V28.8475C70.8355 28.7933 70.8038 28.7439 70.7571 28.7167L69.5026 27.9848C69.4794 27.971 69.4634 27.972 69.4372 27.972L69.4376 27.9722Z" fill="#83CD29"/>
</svg>
