<svg width="32" height="32" viewBox="0 0 32 32" fill="none" xmlns="http://www.w3.org/2000/svg">
<g clip-path="url(#clip0_7122_7622)">
<path d="M23.1158 6.02322L13.6399 0.342182C13.209 0.117183 12.7334 0 12.2511 0C11.7689 0 11.2933 0.117183 10.8624 0.342182L1.38651 6.02322C0.983684 6.29856 0.648491 6.66796 0.407739 7.10187C0.166986 7.53579 0.0273501 8.02218 0 8.52216V19.8842C0.028024 20.3834 0.167979 20.8689 0.408702 21.302C0.649425 21.735 0.984261 22.1037 1.38651 22.3786L2.44184 23.0113L12.2533 29.1417L22.0693 23.0205L23.1114 22.3969C23.5136 22.122 23.8484 21.7534 24.0892 21.3203C24.3299 20.8872 24.4698 20.4018 24.4979 19.9026V8.51757C24.4703 8.01879 24.3311 7.53358 24.0911 7.10054C23.8512 6.66751 23.5172 6.29861 23.1158 6.02322ZM6.6146 20.329C6.28274 20.327 5.96518 20.1885 5.73148 19.9438L1.0465 15.0744C0.815642 14.8293 0.686366 14.5002 0.686366 14.1573C0.686366 13.8145 0.815642 13.4854 1.0465 13.2403L5.73148 8.34792C5.83948 8.19624 5.97772 8.07054 6.13677 7.9794C6.29582 7.88826 6.47194 7.83383 6.6531 7.81981C6.83426 7.8058 7.0162 7.83253 7.1865 7.89819C7.3568 7.96385 7.51145 8.06689 7.6399 8.20028C7.76836 8.33366 7.86759 8.49426 7.93082 8.6711C7.99405 8.84794 8.0198 9.03686 8.0063 9.22498C7.9928 9.41309 7.94038 9.59597 7.85261 9.76113C7.76484 9.92629 7.64379 10.0698 7.49772 10.182L3.69146 14.1344L7.48448 18.0731C7.66547 18.2541 7.79035 18.487 7.84314 18.7421C7.89593 18.9972 7.87424 19.2629 7.78084 19.5051C7.68744 19.7473 7.52657 19.9551 7.31882 20.1019C7.11106 20.2487 6.86587 20.3277 6.6146 20.329ZM10.2442 21.4799C10.1418 21.7052 9.98 21.8958 9.77763 22.0296C9.57526 22.1635 9.34054 22.2352 9.1006 22.2364C8.88766 22.2367 8.67813 22.181 8.49147 22.0746C8.30481 21.9682 8.14709 21.8146 8.03297 21.6279C7.91885 21.4412 7.85204 21.2276 7.83875 21.0069C7.82546 20.7863 7.86611 20.5657 7.95695 20.3657L14.3949 6.15162C14.4654 5.99566 14.5647 5.85565 14.6873 5.73956C14.8099 5.62348 14.9532 5.53359 15.1093 5.47505C15.2653 5.4165 15.4309 5.39044 15.5966 5.39835C15.7623 5.40626 15.9249 5.44799 16.0751 5.52115C16.2253 5.59431 16.3601 5.69747 16.4719 5.82474C16.5837 5.95201 16.6702 6.1009 16.7266 6.26291C16.783 6.42492 16.8081 6.59687 16.8005 6.76895C16.7929 6.94103 16.7527 7.10986 16.6822 7.26581L10.2442 21.4799ZM23.4646 15.0606L18.7664 19.9393C18.6584 20.0909 18.5201 20.2166 18.3611 20.3078C18.202 20.3989 18.0259 20.4534 17.8448 20.4674C17.6636 20.4814 17.4817 20.4546 17.3114 20.389C17.1411 20.3233 16.9864 20.2203 16.858 20.0869C16.7295 19.9535 16.6303 19.7929 16.567 19.6161C16.5038 19.4392 16.4781 19.2503 16.4916 19.0622C16.5051 18.8741 16.5575 18.6912 16.6453 18.5261C16.733 18.3609 16.8541 18.2173 17.0001 18.1052L20.8064 14.1528L16.9913 10.182C16.7604 9.93694 16.6312 9.60776 16.6312 9.26495C16.6312 8.92214 16.7604 8.59297 16.9913 8.34792C17.2309 8.11552 17.5466 7.98626 17.8744 7.98626C18.2023 7.98626 18.5179 8.11552 18.7576 8.34792L23.4469 13.2128C23.6855 13.4562 23.8213 13.7879 23.8247 14.1352C23.828 14.4825 23.6985 14.8169 23.4646 15.0652V15.0606Z" fill="#4367B1"/>
<g style="mix-blend-mode:multiply">
<path d="M30.982 28.7896L31.6665 27.3865C31.7089 27.2875 31.7163 27.1761 31.6872 27.072C31.6581 26.968 31.5944 26.878 31.5075 26.818L30.0415 25.9009C30.1409 25.4269 30.1765 24.9408 30.1475 24.4566L31.7327 23.7872C31.827 23.7413 31.9026 23.6623 31.9462 23.5641C31.9898 23.466 31.9987 23.355 31.9711 23.2507L31.4987 21.7559C31.4619 21.6542 31.3916 21.5693 31.3002 21.5164C31.2088 21.4635 31.1023 21.446 30.9997 21.4671L29.3394 21.8981C29.0867 21.4893 28.7806 21.119 28.4298 20.7976L29.0921 19.1607C29.1275 19.0588 29.1269 18.9471 29.0906 18.8456C29.0542 18.744 28.9844 18.6591 28.8934 18.6059L27.5423 17.8952C27.4469 17.8511 27.3396 17.8435 27.2394 17.8737C27.1392 17.9039 27.0525 17.97 26.9947 18.0603L26.1116 19.5826C25.655 19.48 25.187 19.4429 24.7207 19.4725L24.076 17.8264C24.0318 17.7285 23.9557 17.65 23.8612 17.6047C23.7667 17.5594 23.6598 17.5502 23.5594 17.5788L22.1199 18.0694C22.0219 18.1076 21.9402 18.1806 21.8892 18.2755C21.8383 18.3704 21.8214 18.481 21.8417 18.5876L22.2568 20.3116C21.8631 20.574 21.5064 20.8919 21.197 21.2561L19.6206 20.5684C19.5225 20.5317 19.4149 20.5322 19.3171 20.57C19.2193 20.6078 19.1376 20.6803 19.0863 20.7747L18.4019 22.1778C18.3594 22.2768 18.3521 22.3882 18.3812 22.4923C18.4103 22.5963 18.474 22.6864 18.5609 22.7463L20.0269 23.6634C19.9276 24.1374 19.8919 24.6235 19.9209 25.1077L18.3401 25.7726C18.2458 25.8184 18.1702 25.8974 18.1266 25.9956C18.0829 26.0937 18.0741 26.2048 18.1017 26.309L18.5741 27.8038C18.6109 27.9055 18.6812 27.9904 18.7726 28.0433C18.864 28.0962 18.9705 28.1137 19.0731 28.0927L20.7334 27.6616C20.986 28.0704 21.2922 28.4408 21.643 28.7621L20.9806 30.399C20.9453 30.501 20.9459 30.6126 20.9822 30.7142C21.0186 30.8157 21.0884 30.9006 21.1794 30.9538L22.5305 31.6645C22.6259 31.7086 22.7332 31.7163 22.8334 31.686C22.9336 31.6558 23.0203 31.5897 23.0781 31.4995L23.9612 29.9772C24.4178 30.0799 24.8858 30.117 25.3521 30.0872L25.9968 31.7333C26.0372 31.8344 26.1128 31.9161 26.2085 31.962C26.3042 32.0078 26.4131 32.0146 26.5134 31.9809L27.9529 31.4903C28.0509 31.4521 28.1326 31.3791 28.1836 31.2842C28.2345 31.1893 28.2514 31.0787 28.2311 30.9722L27.8072 29.2481C28.2009 28.9858 28.5576 28.6679 28.8669 28.3036L30.4566 28.9822C30.5521 29.0177 30.6565 29.0179 30.7522 28.9828C30.848 28.9478 30.9291 28.8795 30.982 28.7896ZM26.743 25.6717C26.5436 26.0818 26.2133 26.4073 25.8085 26.5928C25.4038 26.7784 24.9496 26.8124 24.5234 26.6891C24.0972 26.5658 23.7253 26.2929 23.4712 25.9167C23.2171 25.5406 23.0965 25.0847 23.1299 24.6266C23.1634 24.1684 23.3487 23.7365 23.6545 23.4045C23.9603 23.0724 24.3675 22.8607 24.8067 22.8055C25.2459 22.7503 25.69 22.855 26.0632 23.1017C26.4364 23.3485 26.7157 23.722 26.8534 24.1586C26.9315 24.4061 26.9616 24.6673 26.9419 24.9271C26.9222 25.1868 26.8531 25.4399 26.7386 25.6717H26.743Z" fill="#F0546A"/>
</g>
</g>
<defs>
<clipPath id="clip0_7122_7622">
<rect width="32" height="32" fill="white"/>
</clipPath>
</defs>
</svg>
