<svg width="100" height="50" viewBox="0 0 100 50" fill="none" xmlns="http://www.w3.org/2000/svg">
<path d="M27.0166 17.0834C23.815 12.9367 18.43 11.1284 13.375 12.5001C8.31998 13.8717 4.58664 18.1559 3.91998 23.3517C3.25331 28.5476 5.78164 33.6351 10.3283 36.2384C14.875 38.8417 20.5408 38.4517 24.6866 35.2484C30.3533 30.8751 31.3783 22.7434 27.0183 17.0842L27.0166 17.0834Z" fill="#FF6C37"/>
<path d="M21.135 20.3L15.6742 25.8041L14.1309 24.2175C19.5059 18.8425 20.045 19.3283 21.1459 20.3008L21.135 20.3Z" fill="white"/>
<path d="M15.6733 25.9558C15.625 25.955 15.5791 25.935 15.5441 25.9016L13.99 24.3475C13.9175 24.2641 13.9175 24.1533 13.99 24.0775C19.2783 18.7891 20.0125 19.0275 21.265 20.1608C21.3066 20.1941 21.3317 20.2466 21.33 20.3008C21.3383 20.3541 21.3175 20.4075 21.2758 20.4408L15.815 25.9016C15.7767 25.9366 15.7266 25.9558 15.675 25.9558H15.6733ZM14.4 24.2291L15.6733 25.5025L20.8541 20.3216C20.6752 20.0977 20.42 19.9475 20.1373 19.8997C19.8547 19.8519 19.5643 19.9098 19.3217 20.0625C18.3825 20.4941 16.8717 21.7675 14.4 24.2291Z" fill="#FF6C37"/>
<path d="M17.2383 27.3267L15.75 25.8167L21.2108 20.42C22.6775 21.8559 20.4983 24.2517 17.2392 27.3284L17.2383 27.3267Z" fill="white"/>
<path d="M17.2384 27.5209C17.1909 27.5167 17.145 27.4984 17.1092 27.4667L15.5984 25.9775C15.5759 25.9225 15.5759 25.8609 15.5984 25.805C15.5817 25.76 15.5817 25.71 15.5984 25.665L21.0592 20.2042C21.1384 20.1292 21.2609 20.1292 21.34 20.2042C21.6984 20.5334 21.895 21.0025 21.88 21.4875C21.88 22.9442 20.2175 24.7792 17.39 27.4559C17.3525 27.4934 17.3025 27.5159 17.25 27.5209H17.2384ZM16.03 25.7942L17.25 27.0142C19.4167 24.9642 21.4584 22.87 21.4809 21.445C21.4925 21.1425 21.3925 20.8467 21.2 20.6142L16.03 25.7942Z" fill="#FF6C37"/>
<path d="M14.1734 24.2499L15.2525 25.3291C15.2667 25.3416 15.2742 25.3591 15.2742 25.3774C15.2742 25.3958 15.2659 25.4141 15.2525 25.4258L12.9859 25.9116C12.9402 25.9206 12.8928 25.9146 12.8508 25.8946C12.8088 25.8746 12.7743 25.8415 12.7525 25.8004C12.7308 25.7593 12.7228 25.7122 12.7299 25.6662C12.7369 25.6202 12.7586 25.5777 12.7917 25.5449L14.1192 24.2283C14.1192 24.2283 14.1625 24.2283 14.1842 24.2499H14.1734Z" fill="white"/>
<path d="M12.9216 26.1292C12.775 26.1275 12.6408 26.05 12.5658 25.9242C12.524 25.8459 12.5087 25.7562 12.5224 25.6686C12.5361 25.5809 12.5779 25.5001 12.6416 25.4383L13.9583 24.1108C14.0057 24.0683 14.0671 24.0448 14.1308 24.0448C14.1945 24.0448 14.2559 24.0683 14.3033 24.1108L15.3825 25.19C15.4466 25.2508 15.4716 25.3425 15.4475 25.4275C15.4233 25.5125 15.3516 25.58 15.2641 25.6L12.9975 26.0858L12.9216 26.1292ZM14.13 24.4875L12.91 25.7075L14.9283 25.2758L14.13 24.4875Z" fill="#FF6C37"/>
<path d="M24.0383 17.2684C23.2575 16.5167 22.0316 16.485 21.205 17.1967C20.3783 17.9084 20.2466 19.1259 20.8816 20.005C21.5166 20.8842 22.7216 21.13 23.6525 20.5717L22.1858 19.105L24.0383 17.2684Z" fill="white"/>
<path d="M22.5808 21.0667C21.6642 21.055 20.8417 20.4959 20.4942 19.6467C20.1467 18.7975 20.3392 17.8234 20.9842 17.17C21.4159 16.7453 21.9973 16.5073 22.6029 16.5073C23.2086 16.5073 23.7899 16.7453 24.2217 17.17C24.2422 17.1873 24.2587 17.2087 24.27 17.233C24.2813 17.2573 24.2871 17.2837 24.2871 17.3105C24.2871 17.3372 24.2813 17.3637 24.27 17.3879C24.2587 17.4122 24.2422 17.4337 24.2217 17.4509L22.4733 19.1025L23.8008 20.3975C23.8223 20.4181 23.8384 20.4435 23.8479 20.4717C23.8573 20.4999 23.8598 20.5299 23.855 20.5592C23.8483 20.6175 23.8167 20.6675 23.7683 20.6992C23.4117 20.9223 23.0015 21.0453 22.5808 21.055V21.0667ZM22.5808 16.8792C22.2067 16.8814 21.8416 16.994 21.5312 17.2029C21.2208 17.4117 20.979 17.7076 20.8361 18.0533C20.6931 18.3991 20.6555 18.7793 20.7278 19.1464C20.8001 19.5134 20.9791 19.851 21.2425 20.1167C21.7925 20.6684 22.6225 20.8267 23.3367 20.5167L22.0633 19.2434C22.0217 19.21 21.9983 19.16 21.9983 19.1084C21.9983 19.0567 22.0233 19.0059 22.0633 18.9734L23.7467 17.2792C23.412 17.0226 23.0026 16.8824 22.5808 16.88V16.8792Z" fill="#FF6C37"/>
<path d="M24.0708 17.3L22.2358 19.135L23.7025 20.6017C23.8503 20.5168 23.9878 20.4153 24.1125 20.2992C24.4974 19.8925 24.7092 19.3521 24.7031 18.7922C24.6971 18.2323 24.4736 17.6966 24.08 17.2983L24.0708 17.3Z" fill="white"/>
<path d="M23.66 20.765C23.61 20.7675 23.5633 20.7483 23.5308 20.7108L22.0641 19.2441C22.0225 19.2108 21.9991 19.1608 21.9991 19.1091C21.9991 19.0575 22.0241 19.0066 22.0641 18.9741L23.8991 17.1716C23.935 17.1175 23.9958 17.085 24.0608 17.085C24.1258 17.085 24.1858 17.1183 24.2225 17.1716C24.4378 17.3827 24.6088 17.6345 24.7256 17.9125C24.8424 18.1904 24.9025 18.4889 24.9025 18.7904C24.9025 19.0919 24.8424 19.3903 24.7256 19.6683C24.6088 19.9462 24.4378 20.1981 24.2225 20.4091C24.0958 20.5441 23.95 20.6591 23.7908 20.7541C23.7508 20.7741 23.7041 20.7791 23.6616 20.765H23.66ZM22.4725 19.1025L23.6925 20.3225C23.7758 20.2641 23.8558 20.1991 23.93 20.1283C24.1075 19.9513 24.2484 19.741 24.3446 19.5095C24.4409 19.278 24.4905 19.0298 24.4908 18.7791C24.4911 18.3263 24.3261 17.8889 24.0266 17.5491L22.4725 19.1025Z" fill="#FF6C37"/>
<path d="M21.3616 20.5275C21.0583 20.2425 20.5866 20.2425 20.2825 20.5275L15.3933 25.4058L16.2016 26.2258L21.3825 21.6925C21.4614 21.6169 21.524 21.526 21.5664 21.4254C21.6088 21.3247 21.6302 21.2164 21.6292 21.1072C21.6281 20.998 21.6048 20.8901 21.5605 20.7903C21.5162 20.6904 21.4519 20.6007 21.3716 20.5266L21.3616 20.5275Z" fill="white"/>
<path d="M16.1583 26.42C16.11 26.4192 16.0642 26.3992 16.0292 26.3659L15.2092 25.5459C15.1367 25.4625 15.1367 25.3517 15.2092 25.2759L20.0983 20.4192C20.2389 20.2779 20.4188 20.1822 20.6146 20.1446C20.8103 20.107 21.0128 20.1293 21.1957 20.2086C21.3786 20.2879 21.5334 20.4204 21.6399 20.5889C21.7463 20.7574 21.7995 20.9541 21.7925 21.1534C21.7817 21.4259 21.6608 21.6825 21.4592 21.8659L16.2783 26.3992C16.2409 26.4258 16.1948 26.4374 16.1492 26.4317L16.1583 26.42ZM15.5867 25.4059L16.1267 25.9459L21.1992 21.5292C21.2615 21.4754 21.3119 21.4093 21.3472 21.335C21.3825 21.2606 21.4019 21.1798 21.4042 21.0975C21.4108 20.9309 21.3433 20.7684 21.2208 20.6559C20.985 20.4209 20.6042 20.4209 20.3683 20.6559L15.5867 25.4059Z" fill="#FF6C37"/>
<path d="M11.605 30.9642C11.5911 30.9829 11.5837 31.0055 11.5837 31.0288C11.5837 31.052 11.5911 31.0747 11.605 31.0934L11.8217 32.0325C11.84 32.1442 11.7867 32.2559 11.6883 32.3117C11.59 32.3675 11.4658 32.355 11.38 32.2809L9.90167 30.8642L14.51 26.2225H16.1075L17.1867 27.3017C15.5033 28.7742 13.6258 30.0084 11.6067 30.9717L11.605 30.9642Z" fill="white"/>
<path d="M11.5084 32.55C11.3859 32.5475 11.27 32.4975 11.1834 32.41L9.78003 31.0066C9.73836 30.9733 9.71503 30.9233 9.71503 30.8716C9.71503 30.82 9.74003 30.7691 9.78003 30.7366L14.4217 26.095C14.4478 26.0672 14.4819 26.0483 14.5192 26.0408H16.1384C16.18 26.0258 16.2259 26.0258 16.2675 26.0408L17.3467 27.12C17.3884 27.1583 17.4084 27.215 17.4009 27.27C17.4025 27.3241 17.3784 27.3766 17.3359 27.41L17.2492 27.485C15.5586 28.8944 13.6987 30.0872 11.7125 31.0358L11.9292 31.8991C11.9625 32.0358 11.9309 32.18 11.8459 32.2908C11.7609 32.4016 11.6292 32.4683 11.4875 32.4708L11.5084 32.55ZM10.1917 30.8558L11.465 32.1508C11.49 32.1725 11.5267 32.1725 11.5517 32.1508C11.5684 32.1283 11.5684 32.0975 11.5517 32.0758L11.335 31.1366C11.3 30.9975 11.3684 30.8533 11.4967 30.7916C13.4295 29.8559 15.2417 28.689 16.8934 27.3166L16 26.4308H14.5534L10.1917 30.8558Z" fill="#FF6C37"/>
<path d="M8.78748 31.9666L9.86664 30.8875L11.5291 32.55L8.88498 32.3666C8.83971 32.3628 8.79679 32.3449 8.76226 32.3154C8.72774 32.2859 8.70337 32.2462 8.69259 32.2021C8.68181 32.158 8.68517 32.1116 8.7022 32.0695C8.71923 32.0274 8.74906 31.9917 8.78748 31.9675V31.9666Z" fill="white"/>
<path d="M11.5616 32.7125L8.92831 32.5292C8.85131 32.5227 8.77774 32.4945 8.71613 32.4479C8.65453 32.4012 8.60742 32.3381 8.58028 32.2657C8.55314 32.1934 8.54708 32.1148 8.56281 32.0392C8.57854 31.9635 8.61541 31.8939 8.66914 31.8384L9.74831 30.7592C9.83164 30.6867 9.94248 30.6867 10.0183 30.7592L11.67 32.4109C11.6928 32.4422 11.7051 32.48 11.7051 32.5188C11.7051 32.5576 11.6928 32.5954 11.67 32.6267C11.645 32.6667 11.6066 32.6975 11.5616 32.7134V32.7125ZM8.92831 32.1084L11.095 32.2484L9.90748 31.1367L8.92831 32.1084Z" fill="#FF6C37"/>
<path d="M16.2567 26.345L14.0767 26.67L15.3392 25.4183L16.2567 26.345Z" fill="white"/>
<path d="M14.0766 26.8834C14.0404 26.8844 14.0047 26.8747 13.974 26.8554C13.9433 26.8361 13.919 26.8082 13.9041 26.7751C13.8813 26.7437 13.869 26.7059 13.869 26.6671C13.869 26.6284 13.8813 26.5906 13.9041 26.5592L15.1558 25.2967C15.235 25.2217 15.3575 25.2217 15.4366 25.2967L16.3533 26.2134C16.3715 26.2425 16.3811 26.2762 16.3811 26.3105C16.3811 26.3448 16.3715 26.3784 16.3533 26.4076C16.3451 26.4433 16.3263 26.4758 16.2994 26.5007C16.2725 26.5257 16.2387 26.542 16.2025 26.5476L14.0358 26.8726L14.0766 26.8834ZM15.3391 25.6959L14.6375 26.3976L15.8458 26.2142L15.3391 25.6959Z" fill="#FF6C37"/>
<path d="M16.2567 26.345L14.7459 26.5392C14.6625 26.5583 14.5759 26.52 14.5334 26.4458C14.4909 26.3717 14.5025 26.2775 14.5617 26.2158L15.3492 25.4283L16.2567 26.345Z" fill="white"/>
<path d="M14.6917 26.7442C14.6212 26.7435 14.5522 26.7241 14.4916 26.6881C14.431 26.6521 14.381 26.6007 14.3467 26.5392C14.2617 26.3875 14.2884 26.2059 14.4117 26.075L15.1992 25.2875C15.2784 25.2125 15.4009 25.2125 15.48 25.2875L16.3967 26.2042C16.4525 26.2567 16.48 26.3375 16.4467 26.41C16.4134 26.4825 16.3634 26.5325 16.2784 26.5384L14.7675 26.7325L14.6917 26.7442ZM14.6917 26.3442L15.8359 26.2042L15.3275 25.6959L14.68 26.3434L14.6917 26.3442ZM24.0817 18.5409C24.04 18.47 23.9517 18.4425 23.8767 18.4759C23.8409 18.4942 23.8134 18.5259 23.7934 18.565C23.7734 18.6042 23.785 18.645 23.8042 18.6817C23.8792 18.84 23.8592 19.0292 23.75 19.1675C23.7217 19.1942 23.7059 19.2309 23.7059 19.27C23.7059 19.3092 23.7225 19.345 23.75 19.3725C23.7775 19.3834 23.8084 19.3834 23.8367 19.3725C23.8867 19.3859 23.9417 19.3692 23.9767 19.3292C24.1584 19.1075 24.1959 18.8009 24.0742 18.5417L24.0817 18.5409ZM75.9884 23.0092L74.7134 25.755C74.5967 25.9867 74.5192 26.295 74.2967 26.295C73.9867 26.295 73.9492 25.985 73.8325 25.7159L72.7892 23.435C72.7117 23.3184 72.7117 23.0875 72.5575 23.125C72.3634 23.1642 72.4034 23.395 72.4034 23.5417V28.2192C72.4034 28.4509 72.4034 28.6834 72.3642 28.915C72.325 29.1467 72.17 29.3017 71.9475 29.3017C71.7159 29.2625 71.6375 29.1075 71.6 28.915V21.6467C71.6 21.3367 71.5225 20.9134 71.87 20.7967C72.2567 20.68 72.4884 20.9909 72.6425 21.3367L73.83 23.9659C73.9467 24.1975 73.9842 24.6134 74.2942 24.6617C74.6417 24.6617 74.6809 24.1975 74.7975 23.9659L75.985 21.4142C76.1392 21.0667 76.3325 20.7184 76.7575 20.7959C77.1742 20.9125 77.0675 21.3359 77.0675 21.685V28.4125C77.0675 28.76 77.1842 29.3017 76.6809 29.3017C76.1409 29.3017 76.2642 28.7617 76.2642 28.3734V23.9267C76.225 23.6167 76.3034 23.3084 75.9942 22.9984L75.9884 23.0092ZM92.5742 23.2034C92.3425 23.435 92.42 23.7434 92.42 24.015V28.615C92.42 28.885 92.4975 29.3109 92.11 29.3109C91.6934 29.35 91.6934 28.9242 91.6934 28.615V21.4917C91.6934 21.2217 91.6542 20.8734 91.9634 20.7959C92.3109 20.6792 92.5034 20.95 92.6592 21.26L94.5534 25.475C94.67 25.785 94.8234 26.0542 94.94 26.3642C95.0175 26.5184 95.0175 26.7509 95.25 26.6742C95.4442 26.5967 95.4042 26.3642 95.4042 26.21V21.6767C95.4042 21.4825 95.4042 21.3292 95.4434 21.1367C95.4825 20.8667 95.6375 20.75 95.86 20.75C96.0917 20.7892 96.17 20.9817 96.17 21.2142V28.3667C96.17 28.6767 96.2867 29.1 95.9 29.2167C95.4834 29.3709 95.3209 28.9467 95.1667 28.5984L93.0017 23.8042C92.885 23.5725 92.8475 23.3009 92.585 23.1859L92.5742 23.2034ZM48.6934 25.02C48.6542 25.87 48.7325 26.6825 48.6159 27.5325C48.4217 28.72 47.7659 29.3109 46.5659 29.3109C45.2909 29.3109 44.555 28.7709 44.4009 27.5709C44.2067 25.8309 44.1692 24.0525 44.4009 22.3209C44.555 21.1984 45.3292 20.6584 46.4884 20.6584C47.6475 20.6584 48.3825 21.2375 48.5759 22.3209C48.77 23.2492 48.6534 24.1375 48.6925 25.0267L48.6934 25.02ZM47.9209 25.02V23.05C47.8817 22.0467 47.3417 21.4634 46.4542 21.5034C45.6042 21.5034 45.1009 22.0434 45.0509 23.05V27.0434C45.09 28.0467 45.5909 28.59 46.4542 28.63C47.3434 28.63 47.8842 28.09 47.9209 27.0434C47.96 26.3959 47.9209 25.7292 47.9209 25.0325V25.02ZM86.8834 28.77C86.8834 29.04 86.8442 29.2342 86.6134 29.2734C86.4192 29.3125 86.2659 29.2734 86.1967 29.0417C86.1575 28.8875 86.08 28.6942 86.0425 28.5384C85.695 27.3509 85.695 27.3509 84.6392 27.3509H84.3C82.9859 27.3509 82.9859 27.3509 82.5217 28.7542C82.4442 29.0242 82.405 29.4017 82.0184 29.2942C81.6317 29.14 81.7484 28.7542 81.8242 28.4442L83.7184 21.4459C83.835 21.0984 83.8725 20.5959 84.3659 20.6342C84.7825 20.6734 84.8692 21.0984 84.945 21.4459L86.7234 28.0942C86.8009 28.3259 86.84 28.5584 86.8775 28.79L86.8834 28.77ZM84.2934 26.605H84.68C85.53 26.605 85.5692 26.5659 85.2984 25.6017L84.565 22.8567C84.5259 22.6625 84.565 22.3925 84.3334 22.3925C84.1017 22.3925 84.0634 22.6625 84.0234 22.8959L83.405 25.2167C83.0184 26.62 83.0575 26.62 84.2942 26.62L84.2934 26.605ZM35.085 25.0217V21.4384C35.085 20.8592 35.2792 20.6659 35.7325 20.6659H37.0467C38.825 20.705 39.4825 21.5159 39.4425 23.5659C39.4034 24.9692 38.7092 25.77 37.5009 25.8467C37.1534 25.8467 36.8534 25.8859 36.4975 25.8467C35.9575 25.8075 35.7642 26.0784 35.8017 26.6584C35.8409 27.3542 35.8017 28.0617 35.8017 28.7084C35.8017 28.9784 35.7625 29.2875 35.415 29.2875C35.0675 29.2875 35.0675 28.9775 35.0675 28.6692V25.0334L35.085 25.0217ZM36.9017 25.1384C38.0242 25.1384 38.4484 24.8684 38.6417 24.055C38.835 23.2417 38.8359 22.4684 38.255 21.8509C37.6367 21.2325 36.825 21.5034 36.09 21.5409C35.82 21.5409 35.82 21.8884 35.82 22.1592V23.8992C35.82 25.1359 35.82 25.1359 36.9034 25.1359L36.9017 25.1384ZM55.5734 29.3909C54.7617 29.3909 54.1067 29.2367 53.6017 28.6184C53.4475 28.4242 53.2542 28.1542 53.485 27.885C53.6792 27.6534 53.9017 27.8075 54.0642 28.0017C54.5284 28.505 55.0309 28.6492 55.6509 28.62C56.23 28.5809 56.6542 28.31 56.8875 27.6534C57.1167 27.055 56.9817 26.3784 56.54 25.9134C56.1234 25.4492 55.5734 25.2659 55.0317 24.985C54.2592 24.6375 53.6784 24.135 53.6017 23.0909C53.485 21.6875 54.105 20.9259 55.4584 20.655C56.0375 20.5384 56.5809 20.6942 57.0817 20.8867C57.3517 20.9642 57.585 21.1967 57.4684 21.5342C57.3517 21.9209 57.0817 21.7659 56.85 21.6509C56.3467 21.3809 55.8067 21.3809 55.3034 21.4567C54.8867 21.5342 54.4917 21.8042 54.4142 22.3459C54.3367 22.8875 54.4142 23.3492 54.8009 23.6992C55.3042 24.1159 55.8842 24.2784 56.4242 24.5492C57.2742 24.9659 57.7384 25.7092 57.7384 26.7909C57.7384 27.7942 57.5067 28.5692 56.655 29.0717C56.2684 29.3417 55.8434 29.3034 55.5717 29.3817L55.5734 29.3909ZM64.0417 25.3309V22.3542C64.0809 21.6209 63.81 21.3875 63.23 21.465C62.9984 21.5042 62.7267 21.465 62.4967 21.465C62.2667 21.465 62.11 21.3484 62.11 21.0484C62.11 20.8167 62.2642 20.6617 62.4575 20.6617H66.4009C66.595 20.6617 66.7484 20.7784 66.7484 21.0092C66.7484 21.2792 66.5942 21.4259 66.3617 21.4259C66.0917 21.4259 65.7825 21.465 65.5117 21.4259C64.9717 21.3867 64.8159 21.6575 64.8159 22.2375V28.5792C64.8159 28.8892 64.7767 29.2267 64.4292 29.2267C64.0425 29.2267 64.0425 28.8792 64.0425 28.5792V25.3417L64.0417 25.3309Z" fill="#FF6C37"/>
</svg>
