<svg width="50" height="50" viewBox="0 0 50 50" fill="none" xmlns="http://www.w3.org/2000/svg">
<path d="M35.627 35.0306C35.9072 32.6983 35.823 32.3579 37.5589 32.7343L38.0006 32.7739C39.3361 32.834 41.0823 32.559 42.1256 32.0829C44.3342 31.0586 45.6439 29.3467 43.4662 29.797C38.4991 30.8214 38.1381 29.1387 38.1381 29.1387C43.3855 21.3528 45.5803 11.47 43.6845 9.0517C38.5214 2.4517 29.5822 5.57295 29.4326 5.65545L29.3845 5.66404C28.4048 5.45779 27.322 5.33748 26.0673 5.32029C23.8192 5.28591 22.1142 5.90982 20.8183 6.89123C20.8183 6.89123 4.87343 0.322165 5.61421 15.1533C5.77233 18.3089 10.1345 39.0439 15.3423 32.7704C17.2484 30.4776 19.0875 28.5406 19.0875 28.5406C19.9984 29.1473 21.0933 29.4567 22.2397 29.345L22.3291 29.2694C22.3026 29.5664 22.3147 29.8657 22.3651 30.1597C21.0245 31.6584 21.4198 31.9214 18.7386 32.4731C16.0264 33.0317 17.6214 34.0269 18.6595 34.2881C19.9211 34.6044 22.8395 35.0512 24.8126 32.2909L24.7336 32.6054C25.2595 33.0265 25.2234 35.6304 25.3008 37.4901C25.3781 39.3498 25.5001 41.0875 25.88 42.1101C26.2598 43.1328 26.705 45.7711 30.2284 45.032C33.1726 44.4012 35.4242 43.492 35.6305 35.0461" fill="black"/>
<path d="M35.627 35.0306C35.9072 32.6983 35.823 32.3579 37.5589 32.7343L38.0006 32.7739C39.3361 32.834 41.0823 32.559 42.1256 32.0829C44.3342 31.0586 45.6439 29.3467 43.4662 29.797C38.4991 30.8214 38.1381 29.1387 38.1381 29.1387C43.3855 21.3528 45.5803 11.47 43.6845 9.0517C38.5214 2.4517 29.5822 5.57295 29.4326 5.65545L29.3845 5.66404C28.4048 5.45779 27.322 5.33748 26.0673 5.32029C23.8192 5.28591 22.1142 5.90982 20.8183 6.89123C20.8183 6.89123 4.87343 0.322165 5.61421 15.1533C5.77233 18.3089 10.1345 39.0439 15.3423 32.7704C17.2484 30.4776 19.0875 28.5406 19.0875 28.5406C19.9984 29.1473 21.0933 29.4567 22.2397 29.345L22.3291 29.2694C22.3026 29.5664 22.3147 29.8657 22.3651 30.1597C21.0245 31.6584 21.4198 31.9214 18.7386 32.4731C16.0264 33.0317 17.6214 34.0269 18.6595 34.2881C19.9211 34.6044 22.8395 35.0512 24.8126 32.2909L24.7336 32.6054C25.2595 33.0265 25.2234 35.6304 25.3008 37.4901C25.3781 39.3498 25.5001 41.0875 25.88 42.1101C26.2598 43.1328 26.705 45.7711 30.2284 45.032C33.1726 44.4012 35.4242 43.492 35.6305 35.0461" stroke="black" stroke-width="5.3725"/>
<path d="M43.4508 29.8125C38.4836 30.8368 38.1226 29.1542 38.1226 29.1542C43.37 21.3682 45.5648 11.4854 43.6708 9.06715C38.5076 2.46715 29.5684 5.59012 29.4189 5.6709L29.3708 5.67949C28.2789 5.46042 27.1689 5.34475 26.0553 5.33403C23.8072 5.29965 22.1022 5.92356 20.8062 6.90496C20.8062 6.90496 4.85967 0.335902 5.60217 15.167C5.7603 18.3226 10.1225 39.0576 15.3303 32.7842C17.2484 30.4776 19.0875 28.5406 19.0875 28.5406C19.9984 29.1473 21.0933 29.4567 22.2397 29.345L22.329 29.2693C22.3028 29.5664 22.3149 29.8657 22.3651 30.1596C21.0245 31.6584 21.4198 31.9214 18.7386 32.4731C16.0264 33.0317 17.6214 34.0268 18.6595 34.2881C19.9211 34.6043 22.8395 35.0512 24.8126 32.2909L24.7336 32.6054C25.2595 33.0265 25.6273 35.3434 25.5655 37.4437C25.5036 39.544 25.4623 40.9843 25.8748 42.1118C26.2873 43.2393 26.6998 45.7728 30.2233 45.0337C33.1675 44.4029 34.692 42.765 34.9069 40.039C35.0581 38.1003 35.3984 38.3856 35.4225 36.6531L35.6975 35.8315C36.012 33.2018 35.749 32.3545 37.5623 32.7498L38.004 32.7893C39.3395 32.8495 41.0875 32.5745 42.1119 32.0984C44.3205 31.074 45.6301 29.3622 43.4525 29.8125H43.4508Z" fill="#336791"/>
<path d="M25.0241 31.3027C24.8866 36.1942 25.0584 41.1202 25.5363 42.3027C26.0141 43.4852 27.0402 45.8261 30.5653 45.0733C33.5095 44.4425 34.582 43.2205 35.0461 40.5237L36.1341 31.9008M20.7994 6.78125C20.7994 6.78125 4.84251 0.256874 5.58501 15.088C5.74313 18.2436 10.1053 38.9786 15.3131 32.7052C17.2141 30.4141 18.9328 28.6214 18.9328 28.6214M29.4172 5.59015C28.8672 5.76203 38.2928 2.14406 43.6519 8.98984C45.5425 11.4081 43.3511 21.2909 38.1038 29.0769" stroke="white" stroke-width="1.79" stroke-linecap="round" stroke-linejoin="round"/>
<path d="M38.1055 29.0735C38.1055 29.0735 38.4492 30.7578 43.4336 29.73C45.6113 29.2797 44.2999 30.9916 42.093 32.016C40.2814 32.8582 36.2183 33.073 36.1513 31.9128C35.9794 28.9136 38.2894 29.8246 38.1227 29.0735C37.9714 28.3963 36.9367 27.7328 36.2561 26.076C35.6597 24.6322 28.0749 13.5463 38.3599 15.1911C38.738 15.1138 35.6786 5.39425 26.0536 5.25331C16.4286 5.11237 16.7328 17.0869 16.7328 17.0869" stroke="white" stroke-width="1.79" stroke-linecap="round" stroke-linejoin="bevel"/>
<path d="M22.3308 30.1013C20.9901 31.6 21.3854 31.863 18.7042 32.4147C15.992 32.9733 17.587 33.9684 18.6251 34.2297C19.8867 34.5459 22.8051 34.9928 24.7783 32.2308C25.3798 31.3886 24.7748 30.048 23.9498 29.7077C23.5511 29.5427 23.0183 29.3364 22.3342 30.103L22.3308 30.1013Z" stroke="white" stroke-width="1.79" stroke-linejoin="round"/>
<path d="M22.2431 30.0755C22.1056 29.1938 22.5319 28.147 22.9873 26.9199C23.6714 25.0808 25.2492 23.2417 23.9876 17.4031C23.0475 13.0547 16.7345 16.4974 16.7345 17.0869C16.7345 17.6764 17.0198 20.0775 16.6314 22.8705C16.1209 26.5177 18.9517 29.6011 22.2105 29.2866" stroke="white" stroke-width="1.79" stroke-linecap="round" stroke-linejoin="round"/>
<path d="M20.7409 16.9992C20.7117 17.2003 21.1105 17.7382 21.6278 17.8104C22.1452 17.8826 22.5869 17.4632 22.6161 17.2604C22.6453 17.0576 22.2466 16.8376 21.7292 16.7654C21.2119 16.6932 20.7667 16.7998 20.7409 16.9992Z" fill="white" stroke="white" stroke-width="0.5975"/>
<path d="M36.4916 16.5884C36.5191 16.7895 36.122 17.3275 35.6047 17.3997C35.0874 17.4718 34.6422 17.0525 34.6164 16.8497C34.5906 16.6468 34.986 16.4268 35.5033 16.3547C36.0206 16.2825 36.4658 16.389 36.4916 16.5884Z" fill="white" stroke="white" stroke-width="0.2975"/>
<path d="M38.3409 15.1946C38.4269 16.7758 38.0006 17.85 37.9456 19.5327C37.8666 21.9768 39.1109 24.7749 37.2358 27.5765" stroke="white" stroke-width="1.79" stroke-linecap="round" stroke-linejoin="round"/>
</svg>
