<svg width="50" height="50" viewBox="0 0 50 50" fill="none" xmlns="http://www.w3.org/2000/svg">
<g clip-path="url(#clip0_3702_45539)">
<path d="M50 25.005C50 21.7493 45.852 18.664 39.4925 16.7506C40.96 10.3795 40.3078 5.3107 37.4338 3.68788C36.7713 3.30721 35.9967 3.1269 35.1508 3.1269V5.36079C35.6196 5.36079 35.9967 5.45095 36.3127 5.62124C37.6987 6.40261 38.3 9.37779 37.8312 13.2045C37.7191 14.1461 37.5357 15.1378 37.3115 16.1496C35.3139 15.6687 33.1329 15.2981 30.8398 15.0577C29.4639 13.2045 28.0371 11.5215 26.6001 10.049C29.9225 7.01367 33.0412 5.35077 35.161 5.35077V3.11688C32.3583 3.11688 28.6894 5.0803 24.9796 8.48624C21.2699 5.10034 17.6009 3.15695 14.7982 3.15695V5.39084C16.9079 5.39084 20.0367 7.04372 23.3592 10.059C21.9323 11.5315 20.5055 13.2045 19.15 15.0577C16.8467 15.2981 14.6657 15.6687 12.6682 16.1596C12.4338 15.1579 12.2605 14.1862 12.1382 13.2545C11.6592 9.42787 12.2503 6.45269 13.6262 5.66131C13.9319 5.481 14.3294 5.40086 14.7982 5.40086V3.16697C13.9421 3.16697 13.1675 3.34728 12.4949 3.72795C9.63106 5.35077 8.98899 10.4096 10.4668 16.7606C4.1276 18.684 0 21.7594 0 25.005C0 28.2607 4.14798 31.3461 10.5075 33.2594C9.03995 39.6305 9.69221 44.6993 12.5662 46.3221C13.2287 46.7028 14.0033 46.8831 14.8594 46.8831C17.662 46.8831 21.331 44.9197 25.0408 41.5138C28.7505 44.8997 32.4195 46.843 35.2222 46.843C36.0783 46.843 36.8528 46.6627 37.5255 46.2821C40.3893 44.6592 41.0314 39.6004 39.5536 33.2494C45.8724 31.336 50 28.2507 50 25.005ZM36.7305 18.3234C36.3534 19.6156 35.8846 20.9479 35.3547 22.2803C34.9368 21.4789 34.4986 20.6775 34.0196 19.8761C33.5508 19.0747 33.0514 18.2933 32.552 17.532C33.9992 17.7424 35.3954 18.0028 36.7305 18.3234ZM32.0628 28.9919C31.2678 30.3443 30.4525 31.6265 29.6066 32.8186C28.0881 32.9488 26.5491 33.019 25 33.019C23.4611 33.019 21.9221 32.9488 20.4138 32.8286C19.5679 31.6366 18.7424 30.3643 17.9474 29.022C17.1728 27.7097 16.4696 26.3774 15.8276 25.0351C16.4594 23.6927 17.1729 22.3504 17.9372 21.0381C18.7322 19.6857 19.5475 18.4035 20.3934 17.2114C21.9119 17.0812 23.4509 17.0111 25 17.0111C26.5389 17.0111 28.0779 17.0812 29.5862 17.2014C30.4321 18.3935 31.2576 19.6657 32.0526 21.008C32.8272 22.3203 33.5304 23.6527 34.1724 24.995C33.5304 26.3373 32.8271 27.6797 32.0628 28.9919ZM35.3547 27.6897C35.905 29.032 36.3738 30.3744 36.7611 31.6766C35.426 31.9972 34.0196 32.2677 32.5622 32.478C33.0616 31.7067 33.5609 30.9153 34.0298 30.1039C34.4986 29.3025 34.9368 28.4911 35.3547 27.6897ZM25.0204 38.3783C24.0726 37.4166 23.1247 36.3448 22.1871 35.1727C23.1044 35.2128 24.042 35.2428 24.9898 35.2428C25.9478 35.2428 26.8956 35.2228 27.8231 35.1727C26.9058 36.3448 25.958 37.4166 25.0204 38.3783ZM17.4378 32.478C15.9906 32.2677 14.5944 32.0072 13.2593 31.6866C13.6364 30.3944 14.1052 29.0621 14.6351 27.7298C15.053 28.5311 15.4912 29.3325 15.9702 30.1339C16.4492 30.9353 16.9384 31.7167 17.4378 32.478ZM24.9694 11.6317C25.9172 12.5934 26.8651 13.6653 27.8027 14.8373C26.8854 14.7972 25.9478 14.7672 25 14.7672C24.042 14.7672 23.0942 14.7872 22.1667 14.8373C23.084 13.6653 24.0318 12.5934 24.9694 11.6317ZM17.4276 17.532C16.9283 18.3033 16.4289 19.0947 15.96 19.9061C15.4912 20.7075 15.053 21.5089 14.6351 22.3103C14.0848 20.968 13.616 19.6256 13.2287 18.3234C14.5638 18.0128 15.9702 17.7424 17.4276 17.532ZM8.20424 30.0738C4.59641 28.5612 2.26254 26.5777 2.26254 25.005C2.26254 23.4323 4.59641 21.4388 8.20424 19.9362C9.08072 19.5655 10.0387 19.235 11.0273 18.9244C11.6082 20.8878 12.3726 22.9314 13.3204 25.025C12.3828 27.1087 11.6286 29.1422 11.0579 31.0956C10.0489 30.7851 9.09091 30.4445 8.20424 30.0738ZM13.6873 44.3888C12.3013 43.6074 11.7 40.6322 12.1688 36.8056C12.2809 35.8639 12.4643 34.8722 12.6885 33.8604C14.6861 34.3413 16.8671 34.7119 19.1602 34.9523C20.5361 36.8056 21.9629 38.4885 23.3999 39.9611C20.0775 42.9963 16.9588 44.6592 14.839 44.6592C14.3804 44.6492 13.9931 44.5591 13.6873 44.3888ZM37.8618 36.7555C38.3408 40.5821 37.7497 43.5573 36.3738 44.3487C36.0681 44.529 35.6706 44.6092 35.2018 44.6092C33.0921 44.6092 29.9633 42.9563 26.6409 39.941C28.0677 38.4685 29.4945 36.7955 30.85 34.9423C33.1533 34.7019 35.3343 34.3313 37.3318 33.8404C37.5662 34.8522 37.7497 35.8238 37.8618 36.7555ZM41.7856 30.0738C40.9091 30.4445 39.9511 30.7751 38.9625 31.0856C38.3816 29.1222 37.6172 27.0786 36.6694 24.985C37.607 22.9013 38.3612 20.8678 38.9319 18.9144C39.9409 19.2249 40.8989 19.5655 41.7958 19.9362C45.4036 21.4488 47.7375 23.4323 47.7375 25.005C47.7273 26.5777 45.3934 28.5712 41.7856 30.0738Z" fill="#61DAFB"/>
<path d="M24.9898 29.5829C27.5621 29.5829 29.6474 27.5333 29.6474 25.005C29.6474 22.4766 27.5621 20.427 24.9898 20.427C22.4175 20.427 20.3323 22.4766 20.3323 25.005C20.3323 27.5333 22.4175 29.5829 24.9898 29.5829Z" fill="#61DAFB"/>
</g>
<defs>
<clipPath id="clip0_3702_45539">
<rect width="50" height="44" fill="white" transform="translate(0 3)"/>
</clipPath>
</defs>
</svg>
