<svg width="50" height="50" viewBox="0 0 50 50" fill="none" xmlns="http://www.w3.org/2000/svg">
<g clip-path="url(#clip0_3702_45496)">
<path d="M25 4.77284C13.8487 4.77284 4.77284 13.853 4.77284 25C4.77284 36.147 13.853 45.2272 25 45.2272C36.147 45.2272 45.2272 36.147 45.2272 25C45.2272 13.853 36.147 4.77284 25 4.77284ZM24.9701 6.57005C25.3159 6.579 25.6446 6.72316 25.886 6.97176C26.1274 7.22037 26.2624 7.55376 26.2623 7.90084C26.2623 8.25378 26.1221 8.59228 25.8725 8.84185C25.623 9.09142 25.2845 9.23163 24.9315 9.23163C24.5786 9.23163 24.2401 9.09142 23.9905 8.84185C23.741 8.59228 23.6007 8.25378 23.6007 7.90084C23.6007 7.72279 23.6363 7.54653 23.7056 7.38251C23.7749 7.21849 23.8764 7.07004 24.004 6.94594C24.1317 6.82185 24.283 6.72464 24.4489 6.66008C24.6149 6.59551 24.7921 6.56489 24.9701 6.57005ZM28.0167 8.76093C30.353 9.19851 32.5659 10.1394 34.5019 11.5183C36.438 12.8971 38.0506 14.6809 39.2279 16.7457L37.6575 20.2887C37.3879 20.9007 37.666 21.6195 38.2737 21.8934L41.2947 23.2327C41.3884 24.1771 41.3999 25.1277 41.3289 26.074H39.6473C39.4804 26.074 39.4119 26.1853 39.4119 26.3479V27.1181C39.4119 28.9325 38.3892 29.3304 37.4906 29.4288C36.6348 29.5273 35.6891 29.0694 35.5693 28.5473C35.0644 25.7103 34.2257 25.107 32.8992 24.0586C34.5466 23.0145 36.2582 21.4698 36.2582 19.4073C36.2582 17.1779 34.7306 15.7743 33.6908 15.0854C32.2274 14.1226 30.6099 13.93 30.1734 13.93H12.8004C15.2026 11.2464 18.4227 9.42958 21.9619 8.76093L24.0115 10.909C24.4737 11.3926 25.2396 11.414 25.7232 10.9475L28.0167 8.76093ZM9.10326 18.6113C9.44949 18.6214 9.77817 18.766 10.0195 19.0145C10.2608 19.263 10.3957 19.5958 10.3955 19.9421C10.3955 20.2951 10.2553 20.6336 10.0058 20.8832C9.75618 21.1327 9.41769 21.2729 9.06475 21.2729C8.7118 21.2729 8.3733 21.1327 8.12373 20.8832C7.87416 20.6336 7.73395 20.2951 7.73395 19.9421C7.73388 19.7641 7.76954 19.5878 7.83881 19.4238C7.90808 19.2598 8.00957 19.1113 8.13725 18.9872C8.26493 18.8632 8.41622 18.7659 8.58215 18.7014C8.74808 18.6368 8.92528 18.6062 9.10326 18.6113ZM40.8326 18.6713C41.1788 18.6813 41.5075 18.8259 41.7488 19.0744C41.9901 19.3229 42.125 19.6557 42.1248 20.002C42.1248 20.355 41.9846 20.6935 41.7351 20.9431C41.4855 21.1926 41.147 21.3328 40.794 21.3328C40.4411 21.3328 40.1026 21.1926 39.853 20.9431C39.6035 20.6935 39.4633 20.355 39.4633 20.002C39.4632 19.824 39.4988 19.6477 39.5681 19.4837C39.6374 19.3197 39.7389 19.1712 39.8666 19.0472C39.9942 18.9231 40.1455 18.8259 40.3115 18.7613C40.4774 18.6967 40.6546 18.6661 40.8326 18.6713ZM11.6108 18.8852H13.93V29.3433H9.24875C8.67059 27.313 8.49042 25.1902 8.71814 23.0915L11.5851 21.8164C12.197 21.5425 12.4752 20.8279 12.2013 20.216L11.6108 18.8852ZM21.29 18.9965H26.8143C27.101 18.9965 28.8298 19.326 28.8298 20.6225C28.8298 21.6966 27.5033 22.0817 26.4121 22.0817H21.2858L21.29 18.9965ZM21.29 26.5105H25.522C25.9072 26.5105 27.5888 26.6218 28.1237 28.7699C28.2906 29.4288 28.6629 31.5769 28.9153 32.2659C29.1678 33.0361 30.1905 34.5766 31.2817 34.5766H38.1881C37.7252 35.1964 37.219 35.7827 36.6733 36.331L33.862 35.7276C33.2073 35.5864 32.5611 36.0058 32.4199 36.6605L31.7524 39.7756C29.6058 40.748 27.2746 41.2457 24.9181 41.2346C22.5616 41.2235 20.2352 40.704 18.0979 39.7114L17.4303 36.5963C17.2891 35.9416 16.6473 35.5222 15.9926 35.6634L13.2411 36.254C12.7305 35.7273 12.2559 35.1669 11.8205 34.5766H25.2011C25.3509 34.5766 25.4536 34.5509 25.4536 34.4097V29.677C25.4536 29.5401 25.3509 29.5101 25.2011 29.5101H21.2858L21.29 26.5105ZM15.1153 37.3494C15.4616 37.3594 15.7903 37.504 16.0316 37.7525C16.2729 38.001 16.4078 38.3338 16.4076 38.6802C16.4076 39.0331 16.2674 39.3716 16.0178 39.6212C15.7683 39.8708 15.4298 40.011 15.0768 40.011C14.7239 40.011 14.3854 39.8708 14.1358 39.6212C13.8863 39.3716 13.746 39.0331 13.746 38.6802C13.746 38.5021 13.7816 38.3259 13.8509 38.1619C13.9202 37.9978 14.0217 37.8494 14.1493 37.7253C14.277 37.6012 14.4283 37.504 14.5942 37.4394C14.7602 37.3749 14.9374 37.3442 15.1153 37.3494ZM34.8205 37.4093C35.1667 37.4193 35.4954 37.5639 35.7367 37.8124C35.978 38.0609 36.1129 38.3937 36.1127 38.7401C36.1127 39.093 35.9725 39.4315 35.723 39.6811C35.4734 39.9307 35.1349 40.0709 34.782 40.0709C34.429 40.0709 34.0905 39.9307 33.8409 39.6811C33.5914 39.4315 33.4512 39.093 33.4512 38.7401C33.4511 38.562 33.4867 38.3858 33.556 38.2218C33.6253 38.0577 33.7268 37.9093 33.8545 37.7852C33.9821 37.6611 34.1334 37.5639 34.2994 37.4993C34.4653 37.4348 34.6425 37.4042 34.8205 37.4093Z" fill="black"/>
<path fill-rule="evenodd" clip-rule="evenodd" d="M44.0975 25C44.0975 30.065 42.0854 34.9225 38.504 38.504C34.9225 42.0854 30.065 44.0975 25 44.0975C19.935 44.0975 15.0775 42.0854 11.496 38.504C7.91456 34.9225 5.90251 30.065 5.90251 25C5.90251 19.935 7.91456 15.0775 11.496 11.496C15.0775 7.91456 19.935 5.90251 25 5.90251C30.065 5.90251 34.9225 7.91456 38.504 11.496C42.0854 15.0775 44.0975 19.935 44.0975 25ZM43.738 23.1557L46.7163 25L43.738 26.8443L46.2969 29.2363L43.0192 30.4644L45.0646 33.31L41.6028 33.8748L43.0577 37.067L39.5531 36.9429L40.3576 40.3576L36.9429 39.5531L37.067 43.0577L33.8748 41.6028L33.31 45.0646L30.4644 43.0192L29.2363 46.2969L26.8443 43.738L25 46.7163L23.1557 43.738L20.7637 46.2969L19.5356 43.0192L16.69 45.0646L16.1252 41.6028L12.933 43.0577L13.0571 39.5531L9.64242 40.3576L10.4469 36.9429L6.94233 37.067L8.39721 33.8748L4.93544 33.31L6.98084 30.4644L3.70307 29.2363L6.26195 26.8443L3.28372 25L6.26195 23.1557L3.70307 20.7637L6.98084 19.5356L4.93544 16.69L8.39721 16.1252L6.94233 12.933L10.4469 13.0571L9.64242 9.64242L13.0571 10.4469L12.933 6.94233L16.1252 8.39721L16.69 4.93544L19.5356 6.98084L20.7637 3.70307L23.1557 6.26195L25 3.28372L26.8443 6.26195L29.2363 3.70307L30.4644 6.98084L33.31 4.93544L33.8748 8.39721L37.067 6.94233L36.9429 10.4469L40.3576 9.64242L39.5531 13.0571L43.0577 12.933L41.6028 16.1252L45.0646 16.69L43.0192 19.5356L46.2969 20.7637L43.738 23.1557Z" fill="black"/>
<path fill-rule="evenodd" clip-rule="evenodd" d="M25 2C25.4445 2 25.8574 2.22995 26.0914 2.60787L27.0523 4.15957L28.2985 2.82644C28.6018 2.50193 29.0514 2.3573 29.487 2.44408C29.9227 2.53086 30.2825 2.83669 30.4384 3.25267L31.0777 4.95902L32.5607 3.89306C32.9216 3.63368 33.3909 3.57938 33.8015 3.74954C34.212 3.9197 34.5054 4.2901 34.5769 4.72872L34.8712 6.53232L36.5346 5.77421C36.9393 5.58975 37.4107 5.62793 37.7804 5.87511C38.1502 6.1223 38.3656 6.54326 38.3499 6.98775L38.2853 8.81176L40.0632 8.39291C40.4961 8.29093 40.9509 8.42024 41.2653 8.73469C41.5798 9.04914 41.7091 9.50394 41.6071 9.93679L41.1882 11.7147L43.0122 11.6501C43.4567 11.6344 43.8777 11.8498 44.1249 12.2196C44.3721 12.5893 44.4103 13.0607 44.2258 13.4654L43.4677 15.1288L45.2713 15.4231C45.7099 15.4946 46.0803 15.788 46.2505 16.1985C46.4206 16.6091 46.3663 17.0784 46.1069 17.4393L45.041 18.9223L46.7473 19.5616C47.1633 19.7175 47.4692 20.0773 47.5559 20.513C47.6427 20.9486 47.4981 21.3982 47.1736 21.7015L45.8404 22.9477L47.3921 23.9086C47.77 24.1426 48 24.5555 48 25C48 25.4445 47.77 25.8574 47.3921 26.0914L45.8404 27.0523L47.1736 28.2985C47.4981 28.6018 47.6427 29.0514 47.5559 29.487C47.4692 29.9227 47.1633 30.2825 46.7473 30.4384L45.041 31.0777L46.1069 32.5607C46.3663 32.9216 46.4206 33.3909 46.2505 33.8015C46.0803 34.212 45.7099 34.5054 45.2713 34.5769L43.4677 34.8712L44.2258 36.5346C44.4103 36.9393 44.3721 37.4107 44.1249 37.7804C43.8777 38.1502 43.4567 38.3656 43.0122 38.3499L41.1882 38.2853L41.6071 40.0632C41.7091 40.4961 41.5798 40.9509 41.2653 41.2653C40.9509 41.5798 40.4961 41.7091 40.0632 41.6071L38.2853 41.1882L38.3499 43.0122C38.3656 43.4567 38.1502 43.8777 37.7804 44.1249C37.4107 44.3721 36.9393 44.4103 36.5346 44.2258L34.8712 43.4677L34.5769 45.2713C34.5054 45.7099 34.212 46.0803 33.8015 46.2505C33.3909 46.4206 32.9216 46.3663 32.5607 46.1069L31.0777 45.041L30.4384 46.7473C30.2825 47.1633 29.9227 47.4692 29.487 47.5559C29.0514 47.6427 28.6018 47.4981 28.2985 47.1736L27.0523 45.8404L26.0914 47.3921C25.8574 47.77 25.4445 48 25 48C24.5555 48 24.1426 47.77 23.9086 47.3921L22.9477 45.8404L21.7015 47.1736C21.3982 47.4981 20.9486 47.6427 20.513 47.5559C20.0773 47.4692 19.7175 47.1633 19.5616 46.7473L18.9223 45.041L17.4393 46.1069C17.0784 46.3663 16.6091 46.4206 16.1985 46.2505C15.788 46.0803 15.4946 45.7099 15.4231 45.2713L15.1288 43.4677L13.4654 44.2258C13.0607 44.4103 12.5893 44.3721 12.2196 44.1249C11.8498 43.8777 11.6344 43.4567 11.6501 43.0122L11.7147 41.1882L9.93679 41.6071C9.50394 41.7091 9.04914 41.5798 8.73469 41.2653C8.42024 40.9509 8.29093 40.4961 8.39291 40.0632L8.81176 38.2853L6.98775 38.3499C6.54326 38.3656 6.1223 38.1502 5.87511 37.7804C5.62793 37.4107 5.58975 36.9393 5.77421 36.5346L6.53232 34.8712L4.72872 34.5769C4.2901 34.5054 3.9197 34.212 3.74954 33.8015C3.57939 33.3909 3.63368 32.9216 3.89306 32.5607L4.95902 31.0777L3.25267 30.4384C2.83669 30.2825 2.53086 29.9227 2.44408 29.487C2.35731 29.0514 2.50193 28.6018 2.82644 28.2985L4.15957 27.0523L2.60787 26.0914C2.22995 25.8574 2 25.4445 2 25C2 24.5555 2.22995 24.1426 2.60787 23.9086L4.15957 22.9477L2.82644 21.7015C2.50193 21.3982 2.35731 20.9486 2.44408 20.513C2.53086 20.0773 2.83669 19.7175 3.25267 19.5616L4.95902 18.9223L3.89306 17.4393C3.63368 17.0784 3.57939 16.6091 3.74954 16.1985C3.9197 15.788 4.2901 15.4946 4.72872 15.4231L6.53232 15.1288L5.77421 13.4654C5.58975 13.0607 5.62793 12.5893 5.87511 12.2196C6.1223 11.8498 6.54326 11.6344 6.98775 11.6501L8.81176 11.7147L8.39291 9.93679C8.29093 9.50394 8.42024 9.04914 8.73469 8.73469C9.04914 8.42024 9.50394 8.29093 9.93679 8.39291L11.7147 8.81176L11.6501 6.98775C11.6344 6.54326 11.8498 6.1223 12.2196 5.87511C12.5893 5.62793 13.0607 5.58975 13.4654 5.77421L15.1288 6.53232L15.4231 4.72872C15.4946 4.2901 15.788 3.9197 16.1985 3.74954C16.6091 3.57938 17.0784 3.63367 17.4393 3.89306L18.9223 4.95902L19.5616 3.25267C19.7175 2.83669 20.0773 2.53086 20.513 2.44408C20.9486 2.3573 21.3982 2.50193 21.7015 2.82644L22.9477 4.15957L23.9086 2.60787C24.1426 2.22995 24.5555 2 25 2ZM22.4958 7.36306C22.7295 7.50315 23.0048 7.56688 23.2821 7.53944C23.559 7.51204 23.816 7.39596 24.0176 7.21332C24.3439 7.19531 24.6715 7.18623 25 7.18623C25.3285 7.18623 25.6561 7.19531 25.9824 7.21332C26.184 7.39596 26.441 7.51204 26.7179 7.53944C26.9952 7.56688 27.2705 7.50315 27.5042 7.36306C28.1559 7.45557 28.8002 7.58391 29.4343 7.7469C29.5965 7.96495 29.8257 8.12859 30.0917 8.20928C30.3577 8.28998 30.6394 8.28129 30.8954 8.19004C31.5145 8.40718 32.1212 8.65835 32.7126 8.94239C32.8289 9.19026 33.0229 9.3975 33.2698 9.52945C33.5167 9.66133 33.7966 9.70744 34.0672 9.66644C34.6285 9.99832 35.1726 10.3616 35.6967 10.7553C35.7625 11.0207 35.9121 11.2616 36.1283 11.4391C36.3446 11.6166 36.6102 11.7166 36.8835 11.7292C37.1266 11.9469 37.3643 12.1718 37.5962 12.4038C37.8282 12.6357 38.0531 12.8734 38.2708 13.1165C38.2834 13.3898 38.3834 13.6554 38.5609 13.8717C38.7384 14.0879 38.9793 14.2375 39.2447 14.3033C39.6384 14.8274 40.0017 15.3715 40.3336 15.9328C40.2926 16.2034 40.3387 16.4833 40.4706 16.7302C40.6025 16.9771 40.8097 17.1711 41.0576 17.2874C41.3417 17.8788 41.5928 18.4855 41.81 19.1046C41.7187 19.3606 41.71 19.6423 41.7907 19.9083C41.8714 20.1743 42.035 20.4036 42.2531 20.5657C42.4161 21.1998 42.5444 21.8441 42.6369 22.4958C42.4969 22.7295 42.4331 23.0048 42.4606 23.2821C42.488 23.559 42.604 23.816 42.7867 24.0176C42.8047 24.3439 42.8138 24.6715 42.8138 25C42.8138 25.3285 42.8047 25.6561 42.7867 25.9824C42.604 26.184 42.488 26.441 42.4606 26.7179C42.4331 26.9952 42.4969 27.2705 42.6369 27.5042C42.5444 28.1559 42.4161 28.8002 42.2531 29.4343C42.035 29.5965 41.8714 29.8257 41.7907 30.0917C41.71 30.3577 41.7187 30.6394 41.81 30.8954C41.5928 31.5145 41.3417 32.1212 41.0576 32.7126C40.8097 32.8289 40.6025 33.0229 40.4706 33.2698C40.3387 33.5167 40.2926 33.7966 40.3336 34.0672C40.0017 34.6285 39.6384 35.1726 39.2447 35.6967C38.9793 35.7625 38.7384 35.9121 38.5609 36.1283C38.3834 36.3446 38.2834 36.6102 38.2708 36.8835C38.0531 37.1266 37.8282 37.3643 37.5962 37.5962C37.3643 37.8282 37.1266 38.0531 36.8835 38.2708C36.6102 38.2834 36.3446 38.3834 36.1283 38.5609C35.9121 38.7384 35.7625 38.9793 35.6967 39.2447C35.1726 39.6384 34.6285 40.0017 34.0672 40.3336C33.7966 40.2926 33.5167 40.3387 33.2698 40.4706C33.0229 40.6025 32.8289 40.8097 32.7126 41.0576C32.1212 41.3417 31.5145 41.5928 30.8954 41.81C30.6394 41.7187 30.3577 41.71 30.0917 41.7907C29.8257 41.8714 29.5965 42.035 29.4343 42.2531C28.8002 42.4161 28.1559 42.5444 27.5042 42.6369C27.2705 42.4969 26.9952 42.4331 26.7179 42.4606C26.441 42.488 26.184 42.604 25.9824 42.7867C25.6561 42.8047 25.3285 42.8138 25 42.8138C24.6715 42.8138 24.3439 42.8047 24.0176 42.7867C23.816 42.604 23.559 42.488 23.2821 42.4606C23.0048 42.4331 22.7295 42.4969 22.4958 42.6369C21.8441 42.5444 21.1998 42.4161 20.5657 42.2531C20.4035 42.035 20.1743 41.8714 19.9083 41.7907C19.6423 41.71 19.3606 41.7187 19.1046 41.81C18.4855 41.5928 17.8788 41.3417 17.2874 41.0576C17.1711 40.8097 16.9771 40.6025 16.7302 40.4706C16.4833 40.3387 16.2034 40.2926 15.9328 40.3336C15.3715 40.0017 14.8274 39.6384 14.3033 39.2447C14.2375 38.9793 14.0879 38.7384 13.8717 38.5609C13.6554 38.3834 13.3898 38.2834 13.1165 38.2708C12.8734 38.0531 12.6357 37.8282 12.4038 37.5962C12.1718 37.3643 11.9469 37.1266 11.7292 36.8835C11.7166 36.6102 11.6166 36.3446 11.4391 36.1283C11.2616 35.9121 11.0207 35.7625 10.7553 35.6967C10.3616 35.1726 9.99832 34.6285 9.66644 34.0672C9.70744 33.7966 9.66133 33.5167 9.52945 33.2698C9.39751 33.0229 9.19026 32.8289 8.94239 32.7126C8.65835 32.1212 8.40718 31.5145 8.19004 30.8954C8.28129 30.6394 8.28998 30.3577 8.20928 30.0917C8.12859 29.8257 7.96496 29.5965 7.7469 29.4343C7.58391 28.8002 7.45558 28.1559 7.36306 27.5042C7.50315 27.2705 7.56688 26.9952 7.53944 26.7179C7.51204 26.441 7.39596 26.184 7.21332 25.9824C7.19531 25.6561 7.18623 25.3285 7.18623 25C7.18623 24.6715 7.19531 24.3439 7.21332 24.0176C7.39596 23.816 7.51204 23.559 7.53944 23.2821C7.56688 23.0048 7.50315 22.7295 7.36306 22.4958C7.45558 21.8441 7.58391 21.1998 7.7469 20.5657C7.96496 20.4035 8.12859 20.1743 8.20928 19.9083C8.28998 19.6423 8.28129 19.3606 8.19004 19.1046C8.40718 18.4855 8.65835 17.8788 8.94239 17.2874C9.19026 17.1711 9.3975 16.9771 9.52945 16.7302C9.66133 16.4833 9.70744 16.2034 9.66644 15.9328C9.99832 15.3715 10.3616 14.8274 10.7553 14.3033C11.0207 14.2375 11.2616 14.0879 11.4391 13.8717C11.6166 13.6554 11.7166 13.3898 11.7292 13.1165C11.9469 12.8734 12.1718 12.6357 12.4038 12.4038C12.6357 12.1718 12.8734 11.9469 13.1165 11.7292C13.3898 11.7166 13.6554 11.6166 13.8717 11.4391C14.0879 11.2616 14.2375 11.0207 14.3033 10.7553C14.8274 10.3616 15.3715 9.99832 15.9328 9.66644C16.2034 9.70744 16.4833 9.66133 16.7302 9.52945C16.9771 9.3975 17.1711 9.19026 17.2874 8.94239C17.8788 8.65835 18.4855 8.40718 19.1046 8.19004C19.3606 8.28129 19.6423 8.28998 19.9083 8.20928C20.1743 8.12859 20.4035 7.96496 20.5657 7.7469C21.1998 7.58391 21.8441 7.45558 22.4958 7.36306Z" fill="black"/>
</g>
<defs>
<clipPath id="clip0_3702_45496">
<rect width="50" height="50" fill="white"/>
</clipPath>
</defs>
</svg>
