<svg width="52" height="50" viewBox="0 0 52 50" fill="none" xmlns="http://www.w3.org/2000/svg">
<path d="M44.3002 27.8127C42.5268 27.8226 40.9912 28.2486 39.7032 28.8827C39.2277 27.9415 38.7522 27.1192 38.6729 26.505C38.5837 25.7917 38.4748 25.3557 38.5837 24.5037C38.6927 23.6517 39.1881 22.443 39.1881 22.344C39.1782 22.2548 39.0791 21.8189 38.0587 21.809C37.0382 21.7991 36.1565 22.0071 36.0574 22.2746C35.9583 22.5421 35.7602 23.1563 35.6314 23.7904C35.4531 24.7217 33.5905 28.0208 32.5304 29.7545C32.1837 29.0808 31.8865 28.4864 31.827 28.0109C31.7379 27.2975 31.6289 26.8616 31.7379 26.0096C31.8468 25.1576 32.3422 23.9489 32.3422 23.8498C32.3323 23.7607 32.2332 23.3248 31.2128 23.3149C30.1924 23.305 29.3106 23.513 29.2115 23.7805C29.1125 24.048 29.0035 24.682 28.7855 25.2963C28.5775 25.9105 26.1007 31.4189 25.4567 32.8555C25.1298 33.5886 24.8425 34.1731 24.6344 34.5694C24.4264 34.9657 24.6245 34.5991 24.6047 34.6388C24.4264 34.9756 24.3273 35.1638 24.3273 35.1638V35.1737C24.1886 35.4214 24.04 35.6592 23.9706 35.6592C23.9211 35.6592 23.822 34.9954 23.9905 34.084C24.357 32.1719 25.2487 29.1898 25.2388 29.0808C25.2388 29.0313 25.4072 28.5062 24.6641 28.2387C23.9409 27.9712 23.6833 28.4171 23.6239 28.4171C23.5645 28.4171 23.5149 28.5756 23.5149 28.5756C23.5149 28.5756 24.3174 25.217 21.9793 25.217C20.513 25.217 18.492 26.8121 17.4914 28.2684C16.8573 28.6152 15.5099 29.3483 14.0833 30.131C13.5384 30.4282 12.9737 30.7452 12.4387 31.0325L12.3297 30.9137C9.49626 27.892 4.25537 25.752 4.47332 21.6901C4.55258 20.2139 5.06775 16.3204 14.539 11.6046C22.2963 7.74078 28.5081 8.80085 29.588 11.1588C31.1236 14.5272 26.2691 20.7885 18.2047 21.6901C15.1334 22.0368 13.5186 20.848 13.1124 20.4021C12.6864 19.9365 12.6269 19.9167 12.4684 20.0059C12.2108 20.1446 12.3693 20.5607 12.4684 20.8083C12.7062 21.4325 13.6969 22.5421 15.3811 23.0969C16.8573 23.5824 20.4635 23.8498 24.8227 22.1656C29.7069 20.2734 33.5212 15.0226 32.4017 10.6337C31.2623 6.16554 23.8518 4.69927 16.8474 7.18598C12.6765 8.67205 8.15879 10.9903 4.90924 14.0318C1.04544 17.638 0.431197 20.7885 0.688783 22.0963C1.59034 26.7626 8.02009 29.8041 10.596 32.053C10.4672 32.1223 10.3483 32.1917 10.2393 32.2511C8.95137 32.8852 4.04732 35.4512 2.81883 38.1657C1.43182 41.2369 3.03678 43.4462 4.10676 43.7435C7.41576 44.6648 10.804 43.0103 12.6368 40.2859C14.4598 37.5614 14.2418 34.0245 13.3997 32.4096L13.37 32.3502L14.3805 31.7558C15.0344 31.3694 15.6783 31.0127 16.243 30.7056C15.926 31.5675 15.6982 32.588 15.5793 34.0741C15.4406 35.8177 16.1539 38.0766 17.0951 38.9682C17.5112 39.3546 18.0065 39.3645 18.3136 39.3645C19.4034 39.3645 19.8988 38.4629 20.4437 37.3831C21.1174 36.0654 21.7118 34.5397 21.7118 34.5397C21.7118 34.5397 20.9688 38.671 22.9997 38.671C23.7428 38.671 24.4858 37.71 24.8227 37.2146V37.2245C24.8227 37.2245 24.8425 37.1948 24.8821 37.1255C24.9614 37.0066 25.001 36.9372 25.001 36.9372V36.9174C25.2982 36.4022 25.962 35.2233 26.9527 33.2716C28.2307 30.7551 29.4592 27.6047 29.4592 27.6047C29.4592 27.6047 29.5781 28.3774 29.9447 29.6455C30.1626 30.3985 30.6382 31.2208 31.0047 32.0233C30.7075 32.4394 30.5292 32.6771 30.5292 32.6771L30.5391 32.687C30.3013 33.0041 30.0338 33.3409 29.7564 33.6778C28.7459 34.8864 27.5372 36.2635 27.3787 36.6598C27.1905 37.1255 27.2301 37.4722 27.5967 37.7496C27.8642 37.9478 28.3397 37.9874 28.845 37.9478C29.7564 37.8883 30.3905 37.6605 30.7075 37.5218C31.2029 37.3434 31.7676 37.0759 32.3125 36.6796C33.3032 35.9465 33.9075 34.9063 33.8481 33.5193C33.8184 32.7564 33.5707 32.0035 33.2636 31.2901C33.3527 31.1613 33.4419 31.0325 33.5311 30.8938C35.0964 28.6053 36.3051 26.0889 36.3051 26.0889C36.3051 26.0889 36.424 26.8616 36.7905 28.1297C36.9788 28.7737 37.3552 29.4771 37.6921 30.1706C36.2258 31.3694 35.3045 32.7564 34.9874 33.6679C34.4029 35.3521 34.8586 36.1149 35.7206 36.2933C36.1069 36.3725 36.6617 36.1942 37.0778 36.0159C37.593 35.8474 38.2172 35.5601 38.7918 35.1341C39.7825 34.401 40.7336 33.3806 40.6841 32.0035C40.6543 31.3694 40.4859 30.7452 40.258 30.1508C41.5063 29.6356 43.1212 29.3384 45.172 29.5861C49.5807 30.1013 50.4525 32.8555 50.2841 34.0047C50.1157 35.1539 49.1943 35.788 48.8872 35.9861C48.5801 36.1744 48.481 36.2437 48.5107 36.3824C48.5504 36.5905 48.689 36.5806 48.9565 36.5409C49.3231 36.4815 51.2748 35.5998 51.3541 33.4796C51.473 30.7551 48.8872 27.783 44.3002 27.8127ZM10.2987 39.2753C8.84239 40.8704 6.7916 41.4747 5.91977 40.9595C4.97859 40.4146 5.34516 38.0666 7.13835 36.3725C8.22814 35.3422 9.64487 34.3911 10.5761 33.8066C10.7842 33.6778 11.1012 33.4895 11.4777 33.2617C11.5371 33.222 11.5768 33.2022 11.5768 33.2022C11.6461 33.1626 11.7254 33.1131 11.8046 33.0635C12.4684 35.4809 11.8344 37.601 10.2987 39.2753ZM20.949 32.0332C20.4437 33.2716 19.3737 36.4518 18.7297 36.2734C18.1749 36.1248 17.8381 33.7174 18.6208 31.3397C19.0171 30.1409 19.8592 28.7143 20.3545 28.1595C21.157 27.2678 22.0288 26.9706 22.2468 27.3372C22.5044 27.8127 21.266 31.2604 20.949 32.0332ZM29.7366 36.2338C29.5187 36.3428 29.3205 36.4221 29.2314 36.3626C29.162 36.323 29.3205 36.1744 29.3205 36.1744C29.3205 36.1744 30.4202 34.9954 30.8561 34.4505C31.1038 34.1335 31.401 33.7669 31.7181 33.3508V33.4697C31.7181 34.8963 30.3509 35.8474 29.7366 36.2338ZM36.5131 34.6883C36.3546 34.5694 36.3744 34.2028 36.9094 33.0536C37.1175 32.5979 37.593 31.835 38.4153 31.1118C38.5144 31.409 38.5738 31.6963 38.5639 31.9638C38.554 33.7471 37.2859 34.4109 36.5131 34.6883Z" fill="#E535AB"/>
</svg>
