<svg width="44" height="44" viewBox="0 0 44 44" fill="none" xmlns="http://www.w3.org/2000/svg">
<rect width="44" height="44" rx="22" fill="white"/>
<path d="M22 4.14563C18.4688 4.14563 15.0168 5.19277 12.0807 7.15463C9.14452 9.1165 6.85608 11.905 5.50472 15.1674C4.15337 18.4299 3.79979 22.0198 4.4887 25.4832C5.17762 28.9466 6.87808 32.128 9.37506 34.625C11.872 37.1219 15.0534 38.8224 18.5168 39.5113C21.9802 40.2002 25.5701 39.8466 28.8326 38.4953C32.095 37.1439 34.8835 34.8555 36.8454 31.9194C38.8072 28.9832 39.8544 25.5313 39.8544 22C39.8489 17.2664 37.9661 12.7282 34.6189 9.38108C31.2718 6.03392 26.7336 4.15109 22 4.14563ZM22 38.5825C18.7203 38.5825 15.5142 37.61 12.7873 35.7878C10.0603 33.9657 7.93487 31.3759 6.67978 28.3458C5.42469 25.3158 5.0963 21.9816 5.73614 18.7649C6.37598 15.5482 7.95531 12.5935 10.2744 10.2744C12.5935 7.9553 15.5482 6.37597 18.7649 5.73613C21.9816 5.09629 25.3158 5.42468 28.3459 6.67977C31.3759 7.93486 33.9657 10.0603 35.7879 12.7873C37.61 15.5142 38.5825 18.7203 38.5825 22C38.578 26.3966 36.8294 30.6117 33.7206 33.7206C30.6118 36.8294 26.3966 38.5779 22 38.5825Z" fill="black"/>
<path d="M23.6913 19.9375C20.7144 18.8753 19.0266 17.2734 19.1778 15.6543C19.2878 14.4821 20.2503 13.2962 22.0859 13.2034C25.0147 13.0625 27.2009 14.7812 28.5313 16.2662L29.48 15.4171C27.9641 13.75 25.4375 11.7734 22.0241 11.9315C18.2188 12.1171 15.2556 14.2759 14.8431 17.1875C14.4306 20.099 16.5619 22.5775 20.5391 23.9387C23.7772 25.049 25.5784 26.6062 25.4788 28.215C25.41 29.3218 24.1553 30.7759 21.6975 30.7759C18.6209 30.7759 16.4863 29.1121 15.235 27.7131L14.2863 28.5621C16.3281 30.8343 18.9063 32.0409 21.6975 32.0409C26.5719 32.0409 29.1844 29.559 29.6038 27.1012C30.0059 24.7981 28.6619 21.7078 23.6913 19.9375ZM28.3559 26.8846C28.2329 27.4497 27.9933 27.9828 27.6523 28.4498C27.3114 28.9169 26.8766 29.3075 26.3759 29.5968C26.5901 29.1899 26.7166 28.7426 26.7472 28.2837C26.8263 26.9809 26.1834 24.5025 20.9516 22.7287C17.6034 21.5806 15.7953 19.5731 16.1013 17.3593C16.2766 16.1425 17.0534 15.094 18.2188 14.3515C18.0461 14.7254 17.9414 15.1269 17.9094 15.5375C17.8303 16.6134 18.1294 19.3187 23.265 21.1337C27.5 22.6393 28.6653 25.0937 28.3559 26.8846Z" fill="black"/>
</svg>
