<svg width="50" height="50" viewBox="0 0 50 50" fill="none" xmlns="http://www.w3.org/2000/svg">
<g clip-path="url(#clip0_3702_45673)">
<path d="M41.5351 10.4064C41.495 10.1703 41.294 10.0128 41.0931 10.0128C40.8922 10.0128 37.3561 9.93413 37.3561 9.93413C37.3561 9.93413 34.3826 7.1004 34.1013 6.82489C33.8201 6.54939 33.2173 6.62811 33.0164 6.70682C33.0164 6.70682 32.4539 6.86425 31.5297 7.13975C31.3689 6.62811 31.1278 6.03774 30.8064 5.40803C29.7616 3.44015 28.1945 2.3775 26.3461 2.3775C26.2255 2.3775 26.105 2.3775 25.9443 2.41686C25.9041 2.33815 25.8237 2.29879 25.7835 2.22007C24.9799 1.35421 23.9351 0.960637 22.6895 0.999994C20.2785 1.07871 17.8676 2.77108 15.9388 5.8016C14.5726 7.9269 13.5278 10.6032 13.2064 12.6892C10.4338 13.5157 8.505 14.106 8.46482 14.1454C7.05843 14.5783 7.01824 14.6177 6.85751 15.9165C6.73696 16.9004 3.04016 44.6474 3.04016 44.6474L33.7397 49.8426L47.0402 46.6152C47 46.5759 41.5753 10.6426 41.5351 10.4064ZM30.0027 7.61204C29.2794 7.80883 28.4758 8.08433 27.6319 8.32048C27.6319 7.13975 27.4712 5.44738 26.9087 4.03052C28.7169 4.38473 29.6009 6.39196 30.0027 7.61204ZM25.9845 8.83212C24.3771 9.30441 22.6091 9.85542 20.8411 10.3671C21.3233 8.51726 22.2876 6.66746 23.4128 5.44738C23.8548 5.01445 24.4575 4.50281 25.1406 4.18795C25.8639 5.56546 26.0246 7.49397 25.9845 8.83212ZM22.7297 2.57429C23.2922 2.57429 23.7744 2.69236 24.1762 2.92851C23.5333 3.28273 22.8904 3.75501 22.2876 4.38473C20.7607 5.99839 19.5954 8.51726 19.1132 10.9181C17.6666 11.351 16.2201 11.7839 14.894 12.1775C15.7379 8.39919 18.9927 2.69236 22.7297 2.57429Z" fill="#95BF47"/>
<path d="M41.0931 10.0129C40.8922 10.0129 37.3561 9.93414 37.3561 9.93414C37.3561 9.93414 34.3826 7.1004 34.1014 6.8249C33.9808 6.70683 33.8603 6.66747 33.6995 6.62811V49.8032L47 46.5759C47 46.5759 41.5753 10.6426 41.5351 10.3671C41.495 10.1703 41.294 10.0129 41.0931 10.0129Z" fill="#5E8E3E"/>
<path d="M26.3059 16.7036L24.779 22.3711C24.779 22.3711 23.0511 21.584 21.0018 21.7414C17.9881 21.9382 17.9881 23.788 17.9881 24.2603C18.1488 26.7791 24.9397 27.3301 25.3415 33.2731C25.6228 37.9567 22.81 41.1446 18.7516 41.3808C13.8493 41.6956 11.157 38.8619 11.157 38.8619L12.2018 34.5326C12.2018 34.5326 14.894 36.5398 17.0639 36.3824C18.4703 36.3036 18.9927 35.1623 18.9525 34.3751C18.7516 31.0691 13.2064 31.2659 12.8447 25.8346C12.5634 21.2691 15.6173 16.6249 22.368 16.2314C24.9799 16.0346 26.3059 16.7036 26.3059 16.7036Z" fill="white"/>
</g>
<defs>
<clipPath id="clip0_3702_45673">
<rect width="44" height="49" fill="white" transform="translate(3 1)"/>
</clipPath>
</defs>
</svg>
