<svg width="50" height="50" viewBox="0 0 50 50" fill="none" xmlns="http://www.w3.org/2000/svg">
<g clip-path="url(#clip0_3702_45581)">
<path d="M43.8785 4.65562C43.2392 6.19073 42.4117 7.64033 41.4151 8.97108C39.2813 6.76136 36.7264 5.00252 33.9016 3.79863C31.0768 2.59473 28.0395 1.97025 24.9694 1.96212C21.8992 1.95399 18.8587 2.56238 16.0275 3.7513C13.1964 4.94022 10.6323 6.68551 8.48688 8.8839C6.34146 11.0823 4.65833 13.6891 3.53708 16.5501C2.41583 19.4112 1.87923 22.4683 1.95905 25.5405C2.03887 28.6128 2.73348 31.6379 4.00178 34.4367C5.27008 37.2355 7.0863 39.7512 9.34298 41.835L10.1957 42.5938C13.4317 45.3257 17.3599 47.1078 21.5453 47.7426C25.7307 48.3775 30.0099 47.8403 33.9091 46.1906C37.8084 44.541 41.1754 41.8432 43.6373 38.396C46.0993 34.9488 47.5601 30.8868 47.8579 26.6597C48.5211 20.8742 46.7683 13.4762 43.8785 4.65562ZM12.6591 42.0247C12.4156 42.3243 12.0887 42.545 11.7199 42.6587C11.3511 42.7724 10.9569 42.7742 10.5871 42.6637C10.2173 42.5533 9.88857 42.3355 9.64235 42.0381C9.39613 41.7406 9.24352 41.3768 9.20381 40.9925C9.1641 40.6083 9.23907 40.2209 9.41925 39.8793C9.59943 39.5376 9.87672 39.2572 10.2161 39.0733C10.5555 38.8894 10.9417 38.8103 11.3259 38.8461C11.7102 38.8818 12.0752 39.0308 12.3749 39.2742C12.7678 39.6073 13.0167 40.0796 13.0697 40.5922C13.1227 41.1048 12.9756 41.6181 12.6591 42.0247ZM43.7364 35.1484C38.0989 42.6886 25.9712 40.1278 18.2493 40.5072C18.2493 40.5072 16.8754 40.602 15.5016 40.7917C15.5016 40.7917 16.0227 40.5546 16.6859 40.3175C22.1339 38.4206 24.6921 38.0412 28.0083 36.334C34.2142 33.1567 40.4202 26.1855 41.6519 18.9773C39.2832 25.901 32.0824 31.8762 25.5448 34.2948C21.0443 35.9546 12.9434 37.567 12.9434 37.567L12.6118 37.3773C7.1164 34.6742 6.92691 22.7237 16.9702 18.8824C21.3759 17.1752 25.5448 18.1237 30.3296 16.9855C35.3986 15.8 41.2729 12.0061 43.6416 7.02675C46.2946 15.0412 49.516 27.4659 43.7364 35.1484Z" fill="#6DB33F"/>
</g>
<defs>
<clipPath id="clip0_3702_45581">
<rect width="46" height="46" fill="white" transform="translate(2 2)"/>
</clipPath>
</defs>
</svg>
