<svg width="101" height="26" viewBox="0 0 101 26" fill="none" xmlns="http://www.w3.org/2000/svg">
<path fill-rule="evenodd" clip-rule="evenodd" d="M22.4769 4.32227H7.93402V11.3335H15.0898C15.3448 11.3335 15.5516 11.5324 15.5516 11.7775V18.5631H22.9387V4.76706C22.9389 4.64917 22.8904 4.53603 22.8037 4.45259C22.7171 4.36915 22.5995 4.32227 22.4769 4.32227Z" fill="#8E75FF"/>
<path opacity="0.405" fill-rule="evenodd" clip-rule="evenodd" d="M7.93315 4.32227V11.3335H1.11078C1.01703 11.3334 0.93265 11.2788 0.897132 11.1954C0.861614 11.112 0.88198 11.0162 0.9487 10.9529L7.93315 4.32227ZM15.9449 25.201C15.8785 25.2638 15.7794 25.2821 15.6936 25.2475C15.6077 25.213 15.5517 25.1323 15.5516 25.0428V18.5631H22.9387L15.9449 25.2002V25.201Z" fill="#8E75FF"/>
<path opacity="0.405" fill-rule="evenodd" clip-rule="evenodd" d="M7.93311 11.3335H15.3211C15.4477 11.3335 15.5515 11.4325 15.5515 11.5551V18.5631H8.3957C8.14068 18.5631 7.93395 18.3643 7.93395 18.1191V11.3335H7.93311Z" fill="#8E75FF"/>
<path fill-rule="evenodd" clip-rule="evenodd" d="M97.4301 3.87984C97.8429 4.27269 98.33 4.46831 98.8922 4.46831C99.4721 4.46831 99.9685 4.27269 100.381 3.87984C100.794 3.48699 101 3.02434 101 2.48944C101 1.95536 100.794 1.48783 100.381 1.08686C99.9935 0.696001 99.4539 0.478071 98.8922 0.485409C98.33 0.485409 97.8429 0.685893 97.4301 1.08605C97.0173 1.48783 96.8114 1.95454 96.8114 2.49025C96.8114 3.02434 97.0173 3.48699 97.4301 3.87984ZM52.6398 9.00315C52.6398 9.04373 52.6044 9.07782 52.5613 9.07782H49.6617V14.2888C49.6617 14.723 49.7765 15.0404 50.0044 15.2409C50.2323 15.4414 50.5666 15.5534 51.0056 15.5785C51.4074 15.6021 51.897 15.6005 52.4752 15.5745L52.5571 15.5704C52.5784 15.5693 52.5993 15.5767 52.6148 15.5908C52.6303 15.6049 52.639 15.6246 52.639 15.6451V18.43C52.6392 18.4682 52.6093 18.5005 52.5698 18.5046L52.5166 18.5103C50.2458 18.74 48.6394 18.5266 47.6991 17.8707C46.7418 17.2027 46.264 16.0087 46.264 14.2888V9.07782H44.049C44.0061 9.07782 43.9713 9.04439 43.9713 9.00315V6.04621C43.9713 6.00563 44.0059 5.97153 44.049 5.97153H46.2632V3.90419C46.2632 3.84413 46.3003 3.79056 46.3569 3.76621L49.5528 2.42938C49.5769 2.41888 49.6048 2.42087 49.627 2.43466C49.6492 2.44845 49.6626 2.47215 49.6625 2.49756V5.97153H52.5613C52.6035 5.97153 52.639 6.00481 52.639 6.04621V9.00315H52.6398ZM58.8021 8.12654C59.1178 7.3246 59.6403 6.72315 60.3688 6.32218C61.0875 5.92873 61.9003 5.72174 62.7274 5.72154C62.7704 5.72154 62.8059 5.75482 62.8059 5.79702V9.19389C62.8059 9.22827 62.7906 9.26101 62.7641 9.28405C62.7376 9.30709 62.7022 9.31827 62.6666 9.31483C61.6865 9.23042 60.8061 9.43577 60.0261 9.93008C59.2098 10.4471 58.8021 11.3075 58.8021 12.5104V18.4227C58.8021 18.4426 58.7938 18.4617 58.779 18.4758C58.7643 18.4898 58.7443 18.4976 58.7236 18.4973H55.4804C55.4375 18.4973 55.4027 18.4639 55.4027 18.4227V6.0454C55.4027 6.00481 55.4373 5.97072 55.4804 5.97072H58.7236C58.7658 5.97072 58.8012 6.004 58.8012 6.0454V8.12491L58.8021 8.12654ZM74.8712 5.97153C74.8505 5.97132 74.8305 5.97909 74.8158 5.99312C74.801 6.00715 74.7927 6.02626 74.7927 6.04621V7.45041C73.7747 6.23046 72.343 5.62089 70.4986 5.62089C68.7427 5.62089 67.2359 6.25968 65.9807 7.53726C64.7246 8.81484 64.0966 10.3806 64.0966 12.2344C64.0966 14.0883 64.7246 15.654 65.9807 16.9316C67.2359 18.2092 68.7427 18.848 70.4986 18.848C72.343 18.848 73.7738 18.2384 74.7927 17.0193V18.4227C74.7927 18.4632 74.8282 18.4973 74.8712 18.4973H78.1136C78.1566 18.4973 78.1921 18.4641 78.1921 18.4227V6.0454C78.1921 6.02545 78.1838 6.00633 78.169 5.99231C78.1543 5.97828 78.1343 5.97051 78.1136 5.97072H74.8712V5.97153ZM68.5233 14.7896C69.2079 15.4414 70.0765 15.7669 71.1317 15.7669C72.1852 15.7669 73.0588 15.4365 73.7527 14.7766C74.4466 14.1175 74.7927 13.2701 74.7927 12.2344C74.7927 11.1987 74.4466 10.3513 73.7527 9.69145C73.0588 9.03237 72.1852 8.70202 71.1308 8.70202C70.0773 8.70202 69.2079 9.03237 68.5224 9.69226C67.8387 10.3513 67.4951 11.1987 67.4951 12.2344C67.4951 13.2701 67.8378 14.1216 68.5233 14.7896ZM93.2989 7.53726C92.0428 6.25968 90.5276 5.62089 88.754 5.62089C86.9096 5.62089 85.4872 6.23046 84.486 7.4496V6.04621C84.486 6.00497 84.4513 5.97153 84.4084 5.97153H81.1652C81.1223 5.97153 81.0875 6.00497 81.0875 6.04621V23.4323C81.0875 23.4737 81.1221 23.5078 81.1652 23.5078H84.4084C84.4506 23.5078 84.486 23.4737 84.486 23.4323V17.0193C85.4872 18.2384 86.9096 18.848 88.754 18.848C90.5276 18.848 92.0428 18.2092 93.2989 16.9316C94.5541 15.654 95.1822 14.0883 95.1822 12.2344C95.1822 10.3806 94.5541 8.81484 93.2989 7.53726ZM85.5133 14.7896C86.1988 15.4414 87.0674 15.7669 88.1217 15.7669C89.1752 15.7669 90.0489 15.4365 90.7428 14.7766C91.4367 14.1175 91.7836 13.2701 91.7836 12.2344C91.7836 11.1987 91.4367 10.3513 90.7428 9.69145C90.0489 9.03237 89.1752 8.70202 88.1217 8.70202C87.0674 8.70202 86.1988 9.03237 85.5133 9.69226C84.8287 10.3513 84.486 11.1987 84.486 12.2344C84.486 13.2701 84.8287 14.1216 85.5133 14.7896ZM97.2841 18.4973C97.2412 18.4973 97.2064 18.4639 97.2064 18.4227V6.0454C97.2064 6.00481 97.241 5.97072 97.2841 5.97072H100.527C100.57 5.97072 100.605 6.004 100.605 6.0454V18.4235C100.605 18.4647 100.57 18.4981 100.527 18.4981H97.2841V18.4973ZM36.6872 10.3432C36.2212 10.1346 35.9891 9.86271 35.9891 9.52912C35.9891 9.21175 36.1334 8.96094 36.4238 8.7775C36.7134 8.59406 37.078 8.50153 37.517 8.50153C38.3586 8.50153 38.9942 8.81403 39.4248 9.43821C39.4544 9.48194 39.5123 9.49903 39.5624 9.47879L42.4308 8.27183C42.4508 8.26318 42.4661 8.24676 42.4729 8.22665C42.4796 8.20653 42.4772 8.18461 42.4662 8.16631C42.4332 8.11339 42.3994 8.0609 42.3649 8.00884C41.8745 7.27428 41.2388 6.72639 40.4411 6.31C39.5632 5.85059 38.5882 5.62089 37.517 5.62089C36.0938 5.62089 34.9044 5.97559 33.9463 6.68581C32.9899 7.39522 32.5112 8.36842 32.5112 9.60379C32.5112 10.4228 32.7442 11.103 33.2093 11.646C33.6588 12.1776 34.2444 12.5877 34.9086 12.8359C35.5755 13.0859 36.2432 13.2953 36.9109 13.4617C37.5778 13.6289 38.145 13.8172 38.6102 14.0258C39.0753 14.2344 39.3083 14.5055 39.3083 14.8399C39.3083 15.5583 38.7022 15.917 37.4908 15.917C36.3369 15.917 35.5375 15.5112 35.0926 14.7011C35.0556 14.6303 34.9676 14.5993 34.8917 14.6305L32.0317 15.8358C32.0125 15.844 31.9975 15.8593 31.9901 15.8783C31.9828 15.8972 31.9838 15.9182 31.9929 15.9365L32.025 15.999C33.0245 17.8983 34.8461 18.848 37.4908 18.848C39.001 18.848 40.2613 18.5014 41.2709 17.809C42.2813 17.1151 42.7861 16.1256 42.7861 14.8399C42.7861 13.9877 42.5532 13.2783 42.088 12.7101C41.6495 12.1618 41.0612 11.7414 40.3888 11.4958C39.7343 11.2575 39.0657 11.0566 38.3865 10.8944C37.7187 10.7353 37.1523 10.5518 36.6872 10.3424V10.3432Z" fill="#2F2E8B"/>
</svg>
