<svg width="100" height="50" viewBox="0 0 100 50" fill="none" xmlns="http://www.w3.org/2000/svg">
<path fill-rule="evenodd" clip-rule="evenodd" d="M88.4615 24.9542C88.4615 19.5465 85.812 15.2795 80.7478 15.2795C75.6624 15.2795 72.5855 19.5465 72.5855 24.9119C72.5855 31.2701 76.2179 34.4809 81.4316 34.4809C83.9743 34.4809 85.8974 33.9106 87.3504 33.1079V28.8831C85.8974 29.6013 84.2308 30.0449 82.1154 30.0449C80.0427 30.0449 78.2051 29.3267 77.9701 26.8342H88.4188C88.4188 26.5596 88.4615 25.4611 88.4615 24.9542ZM77.906 22.9474C77.906 20.5604 79.3803 19.5676 80.7265 19.5676C82.0299 19.5676 83.4188 20.5604 83.4188 22.9474H77.906ZM64.3376 15.2795C62.2436 15.2795 60.8974 16.2512 60.1496 16.9272L59.8718 15.6175H55.1709V40.2476L60.5128 39.1281L60.5342 33.1501C61.3034 33.6993 62.4359 34.4809 64.3162 34.4809C68.141 34.4809 71.6239 31.4391 71.6239 24.7429C71.6026 18.6171 68.0769 15.2795 64.3376 15.2795ZM63.0555 29.8337C61.7949 29.8337 61.047 29.3901 60.5342 28.8409L60.5128 21.004C61.0684 20.3915 61.8376 19.969 63.0555 19.969C65 19.969 66.3461 22.1236 66.3461 24.8908C66.3461 27.7213 65.0214 29.8337 63.0555 29.8337ZM47.8205 14.0333L53.1837 12.8926V8.60449L47.8205 9.72404V14.0333ZM47.8205 15.6387H53.1837V34.1218H47.8205V15.6387ZM42.0726 17.2018L41.7308 15.6387H37.1154V34.1218H42.4573V21.5955C43.7179 19.969 45.8547 20.2647 46.5171 20.4971V15.6387C45.8333 15.3852 43.3333 14.9204 42.0726 17.2018ZM31.3889 11.0548L26.1752 12.1533L26.1538 29.0733C26.1538 32.1995 28.5256 34.502 31.688 34.502C33.4402 34.502 34.7222 34.1852 35.4273 33.8049V29.5169C34.7436 29.7915 31.3675 30.7631 31.3675 27.6369V20.138H35.4273V15.6387H31.3675L31.3889 11.0548ZM16.9444 21.004C16.9444 20.1802 17.6282 19.8634 18.7607 19.8634C20.3846 19.8634 22.4359 20.3492 24.0598 21.2153V16.2512C22.2863 15.5542 20.5342 15.2795 18.7607 15.2795C14.4231 15.2795 11.5385 17.5187 11.5385 21.2575C11.5385 27.0876 19.6581 26.1582 19.6581 28.6719C19.6581 29.6436 18.8034 29.9604 17.6068 29.9604C15.8333 29.9604 13.5684 29.2422 11.7735 28.2706V33.298C13.7607 34.1429 15.7692 34.502 17.6068 34.502C22.0513 34.502 25.1068 32.3263 25.1068 28.5452C25.0855 22.2503 16.9444 23.3699 16.9444 21.004Z" fill="#635BFF"/>
</svg>
