<svg width="50" height="50" viewBox="0 0 50 50" fill="none" xmlns="http://www.w3.org/2000/svg">
<path d="M41.0787 8.91363C37.0937 3.09913 29.2232 1.3757 23.5325 5.07191L13.5382 11.5655C12.1881 12.4314 11.03 13.575 10.1381 14.9231C9.24611 16.2712 8.6399 17.7942 8.35816 19.3948C7.88141 22.0908 8.30045 24.8719 9.54893 27.2978C8.69344 28.6208 8.10996 30.1068 7.83375 31.6661C7.54903 33.2989 7.587 34.9732 7.94542 36.5908C8.30385 38.2085 8.97551 39.7368 9.92103 41.0863C13.9069 46.9014 21.7774 48.6241 27.4673 44.928L37.4616 38.4344C38.8118 37.5686 39.9699 36.4251 40.8619 35.0769C41.7538 33.7288 42.36 32.2058 42.6416 30.6052C43.1183 27.9092 42.6996 25.1281 41.4517 22.7019C42.307 21.379 42.8902 19.893 43.1662 18.3338C43.4511 16.701 43.4132 15.0267 43.0548 13.4091C42.6963 11.7914 42.0246 10.263 41.0789 8.91363" fill="#FF3E00"/>
<path d="M22.5561 41.6334C20.9833 42.0503 19.3229 41.9651 17.7991 41.3893C16.2753 40.8135 14.9616 39.7749 14.0353 38.4136C13.4666 37.6022 13.0626 36.683 12.847 35.7102C12.6314 34.7374 12.6086 33.7305 12.7798 32.7486C12.8378 32.4262 12.9176 32.1083 13.0186 31.7972L13.2069 31.2121L13.7189 31.5955C14.9014 32.4813 16.2236 33.1547 17.6285 33.5868L17.9999 33.7017L17.9657 34.0796C17.9203 34.6173 18.0631 35.1539 18.3688 35.5945C18.6476 36.0045 19.043 36.3175 19.5018 36.4911C19.9606 36.6647 20.4606 36.6905 20.9343 36.5652C21.1515 36.506 21.3585 36.4133 21.5481 36.2902L31.5427 29.7973C31.7873 29.6403 31.9971 29.4331 32.1587 29.1889C32.3204 28.9447 32.4304 28.6689 32.4817 28.3789C32.533 28.083 32.526 27.7795 32.461 27.4864C32.396 27.1932 32.2745 26.9162 32.1033 26.6714C31.8244 26.2613 31.4288 25.9483 30.9699 25.7746C30.5109 25.6009 30.0108 25.5749 29.5369 25.7002C29.32 25.7594 29.1132 25.852 28.9238 25.975L25.11 28.4535C24.4828 28.86 23.7984 29.1664 23.0805 29.362C21.5077 29.7789 19.8473 29.6937 18.3235 29.1179C16.7998 28.5421 15.4861 27.5035 14.5598 26.1422C13.9911 25.3308 13.5871 24.4117 13.3715 23.4389C13.1559 22.4661 13.133 21.4592 13.3043 20.4772C13.4737 19.5148 13.8383 18.599 14.3747 17.7884C14.9111 16.9778 15.6076 16.2902 16.4195 15.7697L26.4132 9.27626C27.0406 8.8691 27.7255 8.56233 28.4441 8.36662C30.0168 7.94975 31.6772 8.03497 33.201 8.61076C34.7247 9.18655 36.0384 10.2252 36.9647 11.5864C37.5334 12.3979 37.9374 13.317 38.153 14.2898C38.3686 15.2626 38.3914 16.2695 38.2202 17.2514C38.162 17.5738 38.0822 17.8916 37.9814 18.2029L37.7931 18.7879L37.2814 18.4051C36.0989 17.5189 34.7766 16.8451 33.3715 16.4129L33.0001 16.298L33.0343 15.9201C33.0793 15.3825 32.9365 14.846 32.6312 14.4052C32.3525 13.9952 31.957 13.6823 31.4982 13.5087C31.0394 13.3351 30.5394 13.3092 30.0658 13.4345C29.8485 13.4937 29.6415 13.5865 29.4519 13.7096L19.4573 20.2027C19.2128 20.3596 19.0031 20.5667 18.8415 20.8109C18.6799 21.055 18.5701 21.3308 18.519 21.6207C18.4674 21.9167 18.4742 22.2201 18.5391 22.5134C18.6039 22.8066 18.7255 23.0837 18.8967 23.3284C19.1756 23.7385 19.5712 24.0516 20.0302 24.2252C20.4891 24.3989 20.9892 24.4249 21.4631 24.2997C21.6803 24.2404 21.8873 24.1476 22.077 24.0246L25.8903 21.5471C26.5172 21.1401 27.2015 20.8334 27.9196 20.6378C29.4924 20.2209 31.1528 20.3061 32.6765 20.8819C34.2003 21.4577 35.514 22.4964 36.4402 23.8576C37.009 24.6691 37.413 25.5882 37.6286 26.561C37.8442 27.5338 37.867 28.5407 37.6957 29.5226C37.5262 30.4851 37.1616 31.401 36.6252 32.2117C36.0888 33.0224 35.3924 33.7101 34.5805 34.2309L24.5868 40.7238C23.9594 41.1309 23.2745 41.4377 22.5559 41.6334" fill="white"/>
</svg>
