<svg width="32" height="32" viewBox="0 0 32 32" fill="none" xmlns="http://www.w3.org/2000/svg">
<g clip-path="url(#clip0_7122_7589)">
<path d="M18.7825 30.7823L13.2266 25.2201L25.1613 13.1641L30.8196 18.8209L18.7825 30.7823Z" fill="#8AB4F8"/>
<path d="M18.8254 6.82998L13.1684 1.17188L1.17277 13.167C-0.389844 14.7283 -0.39114 17.2587 1.17018 18.8212C1.17148 18.8225 1.17277 18.8238 1.17277 18.8238L13.1684 30.819L18.7179 25.2438L9.65316 16.0032L18.8254 6.82998Z" fill="#4285F4"/>
<path d="M30.8181 13.1671L18.8225 1.17192C17.2599 -0.390639 14.7268 -0.390639 13.1642 1.17192C11.6015 2.73447 11.6015 5.26747 13.1642 6.82873L25.1663 18.8239C26.7289 20.3864 29.262 20.3864 30.8233 18.8239C32.3859 17.2613 32.3859 14.7283 30.8233 13.1671H30.8181Z" fill="#8AB4F8"/>
<path d="M15.9492 31.9997C18.139 31.9997 19.9141 30.2246 19.9141 28.035C19.9141 25.8454 18.139 24.0703 15.9492 24.0703C13.7595 24.0703 11.9844 25.8454 11.9844 28.035C11.9844 30.2246 13.7595 31.9997 15.9492 31.9997Z" fill="#246FDB"/>
</g>
<defs>
<clipPath id="clip0_7122_7589">
<rect width="32" height="32" fill="white"/>
</clipPath>
</defs>
</svg>
