<svg width="50" height="50" viewBox="0 0 50 50" fill="none" xmlns="http://www.w3.org/2000/svg">
<g clip-path="url(#clip0_3702_45645)">
<path d="M30.9002 50C27.305 50 24.6809 49.1406 23.0278 47.4218C21.4965 45.9669 20.6079 43.9695 20.5562 41.8663C20.5375 41.2273 20.6868 40.5946 20.9891 40.0301C21.2712 39.5424 21.6786 39.1378 22.1698 38.8575C22.7407 38.5749 23.37 38.4278 24.008 38.4278C24.646 38.4278 25.2752 38.5749 25.8462 38.8575C26.3365 39.1367 26.742 39.5418 27.0202 40.0301C27.3313 40.5918 27.4861 41.2256 27.4687 41.8663C27.5008 42.6315 27.2796 43.3861 26.8389 44.0148C26.4716 44.5279 25.9466 44.9092 25.3427 45.1014C25.9333 45.8477 26.769 46.3647 27.7043 46.5625C28.7507 46.8641 29.8343 47.0191 30.9239 47.0232C32.3665 47.0357 33.7794 46.6165 34.9783 45.8202C36.222 44.9482 37.1495 43.7017 37.6233 42.2655C38.2239 40.5562 38.517 38.7554 38.4892 36.9454C38.5377 35.0583 38.2169 33.1798 37.5445 31.414C37.0388 30.0017 36.0789 28.7937 34.8129 27.9765C33.6361 27.2374 32.27 26.8497 30.8775 26.8594C29.664 26.9614 28.4939 27.3556 27.4687 28.0078L24.941 29.2655V28.0078L36.3006 12.8845H20.5562V28.5782C20.5117 29.7107 20.8136 30.83 21.4221 31.7891C21.7166 32.207 22.1148 32.5424 22.5782 32.7627C23.0415 32.9831 23.5544 33.0809 24.0671 33.0468C25.0144 33.0277 25.9305 32.7074 26.6805 32.1328C27.5307 31.5145 28.2704 30.7592 28.8691 29.8983C28.923 29.7474 29.0224 29.6165 29.1538 29.5235C29.2592 29.4331 29.3939 29.3832 29.5333 29.3829C29.8068 29.4077 30.0656 29.5169 30.2734 29.6952C30.5365 29.987 30.6797 30.3662 30.6747 30.7577C30.6443 31.0208 30.597 31.2818 30.533 31.5389C29.9737 32.8824 29.0362 34.0375 27.8327 34.866C26.7149 35.6166 25.3946 36.0146 24.045 36.0078C20.6362 36.0078 18.2747 35.3412 16.9604 34.0079C16.2849 33.2709 15.7643 32.4076 15.4291 31.4686C15.0938 30.5295 14.9507 29.5335 15.0081 28.5389V12.8845H7V9.96861H15.0454V3.32015L13.2034 1.4909V0H18.5484L20.5562 1.03139V9.96861L41.3544 9.90584L43.425 11.9683L30.6719 24.6861C31.4423 24.3786 32.2537 24.1839 33.0806 24.108C34.7172 24.1791 36.314 24.6315 37.7419 25.4284C39.3953 26.2084 40.7887 27.4424 41.757 28.9843C42.6245 30.2896 43.2386 31.7442 43.5677 33.2734C43.8381 34.4796 43.9832 35.7101 44.0006 36.9457C44.0091 39.3037 43.4703 41.632 42.4262 43.7502C41.436 45.8013 39.7695 47.4552 37.7027 48.4379C35.587 49.4725 33.2588 50.0071 30.9002 50Z" fill="#2C7DF7"/>
</g>
<defs>
<clipPath id="clip0_3702_45645">
<rect width="37" height="50" fill="white" transform="translate(7)"/>
</clipPath>
</defs>
</svg>
