<svg width="50" height="50" viewBox="0 0 50 50" fill="none" xmlns="http://www.w3.org/2000/svg">
<g clip-path="url(#clip0_3702_45623)">
<path d="M8.6312 30.5938C9.23255 31.3326 9.86597 32.0448 10.5296 32.7282C8.50464 33.3407 7.17026 34.4704 6.33901 35.475C5.02026 37.0594 4.32964 39.1469 4.48745 40.936H1.00464C1.71089 39.4141 4.50464 35.0188 8.63276 30.5922L8.6312 30.5938ZM49.0437 41.8782H44.8062C35.075 36.7938 26.5218 33.2141 17.4515 32.4297C17.4671 31.1735 17.7015 29.7297 18.1265 28.1454L17.2953 27.9266C16.8578 29.5594 16.6203 31.0516 16.589 32.3688C15.6382 32.3059 14.6856 32.2747 13.7328 32.275C12.9853 32.2744 12.2394 32.3429 11.5046 32.4797C10.701 31.6794 9.94159 30.836 9.22964 29.9532C13.4046 25.6063 20.3234 21.6672 26.3046 20.175C28 25.7938 31.625 29.6391 36.0187 32.2282C36.3435 32.0437 36.6629 31.8499 36.9765 31.6469L44.6515 39.9172L44.964 39.886C47.0671 39.6985 48.2453 40.8438 48.5578 41.2047C48.8078 41.4547 48.9328 41.6735 49.0265 41.8797L49.0437 41.8782Z" fill="#D1A41B"/>
<path d="M45.3094 14.225C45.4656 21.8531 41.5594 27.9281 36.1281 31.05C26.8844 26.4359 25.1437 14.7593 26.7109 8.49683C27.1484 10.8984 27.9516 12.4031 29.6766 13.1265C33.4266 12.0593 38.6062 11.9656 42.4047 13.0171C43.9891 11.8562 44.6016 10.0984 44.9469 8.55933C45.3531 10.3484 45.2906 14.225 45.3062 14.225H45.3094Z" fill="#FFDC76"/>
<path d="M22.0344 21.4453L23.4469 25.6359L19.1625 22.7484L22.0344 21.4453ZM17.9063 23.2812L19.4125 25.8859L16.225 24.2687L17.9063 23.2812ZM14.4688 25.3218L15.1906 27.9265L12.9938 26.4203L14.4688 25.3218ZM37.8375 32.3218L36.4719 34.4093L38.8735 33.3109L37.8375 32.3218ZM39.9719 34.7234L37.7907 36.4031L40.8219 35.6187L39.9719 34.7234ZM34.6375 12.0437L36.2547 15.5906L37.3063 11.9968L34.6375 12.0437ZM26.4297 17.2078L28.9875 18.5734L26.6797 18.7296L26.4297 17.2078ZM27.0578 19.9859L28.6266 20.614L27.3078 20.9734L27.0578 19.9859ZM45.3578 18.2125L43.2547 19.0906L44.9813 19.3562L45.3578 18.2125ZM44.511 20.7703L42.8938 21.239L44.1969 21.7078L44.511 20.7703ZM25.5813 24.6765H30.6344V25.3046H25.5813V24.6765ZM25.5813 23.1859H30.6344V23.814H25.5813V23.1859ZM40.9938 24.6765H46.0469V25.3046H40.9938V24.6765ZM40.9938 23.1859H46.0469V23.814H40.9938V23.1859ZM39.2047 19.4828H30.9813V18.9171H33.5391C33.8516 17.5671 33.9141 16.2812 33.5391 15.6359C33.3828 15.3546 33.1485 15.2296 32.8328 15.2296C31.3735 15.2296 30.761 16.7828 30.7453 16.8468L30.2297 16.6437C30.261 16.5656 30.9985 14.6656 32.85 14.6656C33.0932 14.6589 33.3335 14.7199 33.544 14.8419C33.7545 14.9638 33.927 15.1419 34.0422 15.3562C34.511 16.1562 34.4485 17.5218 34.136 18.95H38.625C39.2219 17.1921 40.461 16.3765 42.5313 16.3765V16.9421C40.2719 16.9421 39.6438 17.9 39.1875 18.9671H41.636V19.5328L39.2047 19.4828Z" fill="#010202"/>
<path d="M39.5813 22.2765C38.9219 21.2875 38.7032 20.4562 38.9844 19.4984H38.4188C38.2156 20.1265 38.2938 21.0828 38.7938 21.9156H33.0813C33.4627 21.1414 33.7678 20.3318 33.9922 19.4984H33.411C33.1453 20.425 32.7828 21.3343 32.375 22.0562L32.25 22.2906L35.4532 24.3L33.6485 25.4921L33.961 25.9609L35.9703 24.6265L38.1516 26.039L38.4641 25.5703L36.4547 24.3296C37.4943 23.634 38.5407 22.9486 39.5938 22.2734L39.5813 22.2765ZM35.9563 23.9718L33.586 22.4812H38.2157L35.9563 23.9718ZM46.25 13.55C46.25 12.5765 45.9375 8.44995 45.3875 7.3187C43.8813 7.89995 41.1188 9.75151 40.4906 11.6656C37.4008 11.233 34.2633 11.2699 31.1844 11.775C30.7157 9.7187 28.2188 8.14995 26.35 7.27026C25.5657 8.60464 25.2203 11.6796 25.2985 13.864H25.2828C25.6266 23.0296 30.1328 28.7421 36.0172 32.2109C42.075 28.7734 46.4078 22.0078 46.2516 13.55H46.25ZM41.2125 11.7765C41.2281 11.7765 41.2594 11.7921 41.275 11.7921C41.2438 11.7921 41.2281 11.7765 41.2125 11.7765ZM40.8375 11.714C40.8844 11.7296 40.9469 11.7296 40.9938 11.7453C40.9313 11.7296 40.8844 11.714 40.8375 11.714ZM45.3125 14.2093C45.4688 21.8375 41.5625 27.9125 36.1313 31.0343C26.8875 26.4203 25.1313 14.7437 26.7141 8.4812C27.1516 10.8828 27.9547 12.3875 29.6797 13.1109C33.4297 12.0437 38.6094 11.95 42.4078 13.0015C43.9922 11.8406 44.6047 10.0828 44.95 8.5437C45.3563 10.3328 45.2938 14.2093 45.3094 14.2093H45.3125Z" fill="#010202"/>
<path d="M49.25 40.6249C48.2922 39.5577 46.4406 39.0561 44.8875 39.103C43.7891 37.7843 37.3875 31.0515 37.3875 31.0515L36.95 31.6171L44.6875 39.9218L45 39.8905C47.1031 39.7343 48.2812 40.8483 48.5938 41.2093C48.7824 41.4037 48.9315 41.633 49.0328 41.8843H44.7969C35.0656 36.7999 26.5125 33.2202 17.4422 32.4358C17.4578 31.164 17.6922 29.7358 18.1172 28.1515L17.2859 27.9327C16.8484 29.5655 16.6109 31.0577 16.5797 32.3749C15.6289 32.312 14.6763 32.2808 13.7234 32.2811C12.976 32.2805 12.2301 32.349 11.4953 32.4858C10.6914 31.6848 9.93142 30.8409 9.21875 29.9577C13.4406 25.564 20.3937 21.5921 26.4375 20.1327L26.25 19.2858C19.7531 20.8546 12.6438 25.1249 8.67188 29.2358C6.83594 26.7561 6.09844 24.7155 5.89375 23.178C5.62813 21.2311 6.08125 19.428 7.24375 17.9983C9.04844 15.7546 11.6219 15.5968 14.275 16.0358C14.2281 16.4577 14.275 16.8515 14.4312 17.103C15.1219 18.139 18.8891 18.4999 21.1187 17.4936C19.4703 15.1702 16.1125 14.0561 15.1859 14.4968C14.8734 14.653 14.6516 14.9186 14.4953 15.2499C13.5844 15.0936 12.675 14.9686 12.0156 14.9686C9.69219 14.9843 7.90312 15.7999 6.57031 17.4483C5.26719 19.0811 4.73438 21.089 5.04844 23.2874C5.36094 25.3593 6.36719 27.5718 8.09531 29.8499L7.26406 30.7608C3.0625 35.4593 0 40.4999 0 41.3436V41.7811H5.54063L5.44688 41.2655C5.13438 39.6171 5.75938 37.5468 7.03125 36.0077C7.83125 35.0343 9.16563 33.9358 11.2531 33.4186C13.1047 35.239 15.475 37.1686 18.1281 39.0218H22.2406V38.5843C22.2406 38.1155 22.0063 37.6733 21.5656 37.3765C20.9219 36.9546 19.9172 36.9077 18.9922 37.2202C18.1141 36.2468 17.6266 34.9296 17.5172 33.314C26.4469 34.0983 35.0172 37.7077 44.6375 42.7468H49.9422L50.0047 42.403C50.0828 41.9343 49.8172 41.2421 49.2672 40.6296L49.25 40.6249ZM6.34375 35.4452C5.04063 37.0296 4.33437 39.1171 4.49219 40.9061H1.00469C1.71094 39.3843 4.50469 35.0046 8.63281 30.5624C9.19844 31.2686 9.84062 31.9749 10.5312 32.6968C8.89333 33.1775 7.4349 34.1335 6.34063 35.4436L6.34375 35.4452Z" fill="#010202"/>
</g>
<defs>
<clipPath id="clip0_3702_45623">
<rect width="50" height="36" fill="white" transform="translate(0 7)"/>
</clipPath>
</defs>
</svg>
