<svg width="64" height="20" viewBox="0 0 64 20" fill="none" xmlns="http://www.w3.org/2000/svg">
<path d="M45.1215 4.26212H41.707C41.6632 4.26533 41.622 4.28388 41.5909 4.31441C41.5599 4.34494 41.541 4.38542 41.5377 4.42848V6.36928C41.541 6.41234 41.5599 6.45282 41.5909 6.48335C41.622 6.51388 41.6632 6.53243 41.707 6.53563H45.1215C45.1653 6.53243 45.2065 6.51388 45.2376 6.48335C45.2687 6.45282 45.2875 6.41234 45.2908 6.36928V4.42848C45.2908 4.31758 45.2344 4.26212 45.1215 4.26212ZM45.065 7.1456H38.5183C38.4337 7.1456 38.3208 7.22878 38.2926 7.31196L37.446 10.4727L37.3896 10.639L36.402 7.2565C36.3737 7.17333 36.2891 7.09015 36.1762 7.09015H33.6365C33.5519 7.09015 33.439 7.17333 33.4108 7.2565L32.4514 10.4172L32.3949 10.5836L32.3385 10.4172L31.5484 7.31196C31.5201 7.22878 31.4355 7.1456 31.3226 7.1456H26.215V4.42848C26.215 4.3453 26.1022 4.2344 25.9893 4.28985L22.7442 5.26025C22.6595 5.28798 22.5749 5.34343 22.5749 5.4266V7.1456H21.7283C21.6845 7.1488 21.6433 7.16736 21.6122 7.19789C21.5811 7.22842 21.5622 7.2689 21.559 7.31196V9.72409C21.5622 9.76715 21.5811 9.80763 21.6122 9.83816C21.6433 9.86869 21.6845 9.88725 21.7283 9.89045H22.5749V12.8294C22.5749 14.9088 23.7318 15.8792 25.8764 15.8792C26.7512 15.8792 27.626 15.6851 28.1903 15.3801V12.8848C28.1903 12.7462 28.0775 12.7185 28.021 12.7462C27.6824 12.8848 27.4002 12.9403 27.0898 12.9403C26.5255 12.9403 26.215 12.7185 26.215 12.0531V9.89045H28.0493C28.0931 9.88725 28.1343 9.86869 28.1653 9.83816C28.1964 9.80763 28.2153 9.76715 28.2186 9.72409V7.70012L30.6454 15.6297C30.6736 15.7129 30.7582 15.796 30.8711 15.796H33.5519C33.6365 15.796 33.7494 15.7129 33.7776 15.6297L34.9346 12.1085L36.0633 15.602C36.0915 15.6851 36.2044 15.7683 36.2891 15.7683H38.9698C39.0545 15.7683 39.1674 15.6851 39.1956 15.602L41.6506 7.64466V15.602C41.6539 15.645 41.6727 15.6855 41.7038 15.716C41.7349 15.7465 41.7761 15.7651 41.8199 15.7683H45.0933C45.1371 15.7651 45.1783 15.7465 45.2094 15.716C45.2404 15.6855 45.2593 15.645 45.2626 15.602V7.31196C45.2344 7.20105 45.1497 7.1456 45.065 7.1456ZM49.3825 4.26212H46.1091C46.0653 4.26533 46.0241 4.28388 45.993 4.31441C45.962 4.34494 45.9431 4.38542 45.9398 4.42848V15.602C45.9431 15.645 45.962 15.6855 45.993 15.716C46.0241 15.7465 46.0653 15.7651 46.1091 15.7683H49.3825C49.4263 15.7651 49.4675 15.7465 49.4986 15.716C49.5297 15.6855 49.5485 15.645 49.5518 15.602V4.42848C49.5518 4.31758 49.4671 4.26212 49.3825 4.26212ZM53.7564 4.26212H50.3419C50.2981 4.26533 50.2569 4.28388 50.2258 4.31441C50.1948 4.34494 50.1759 4.38542 50.1726 4.42848V6.36928C50.1759 6.41234 50.1948 6.45282 50.2258 6.48335C50.2569 6.51388 50.2981 6.53243 50.3419 6.53563H53.7564C53.8002 6.53243 53.8414 6.51388 53.8725 6.48335C53.9035 6.45282 53.9224 6.41234 53.9257 6.36928V4.42848C53.9257 4.31758 53.8692 4.26212 53.7564 4.26212ZM53.6999 7.1456H50.4266C50.3828 7.1488 50.3416 7.16736 50.3105 7.19789C50.2794 7.22842 50.2605 7.2689 50.2573 7.31196V15.602C50.2605 15.645 50.2794 15.6855 50.3105 15.716C50.3416 15.7465 50.3828 15.7651 50.4266 15.7683H53.6999C53.7438 15.7651 53.785 15.7465 53.816 15.716C53.8471 15.6855 53.866 15.645 53.8692 15.602V7.31196C53.8692 7.20105 53.7846 7.1456 53.6999 7.1456ZM59.1179 6.9238C56.2396 6.9238 54.2079 9.00323 54.2079 11.4154V11.4431C54.2079 13.8552 56.2396 15.9069 59.0897 15.9069C61.968 15.9069 63.9997 13.8275 63.9997 11.4154V11.3876C64.0279 8.9755 61.9962 6.9238 59.1179 6.9238ZM60.5288 11.4431C60.5288 12.2471 59.9362 12.9403 59.1179 12.9403C58.3278 12.9403 57.6787 12.2749 57.6787 11.4154V11.3876C57.6787 10.5836 58.2713 9.89045 59.0897 9.89045C59.8798 9.89045 60.5288 10.5559 60.5288 11.4154V11.4431ZM9.62253 0.546875C4.31744 0.546875 0 4.78891 0 10.0014C0 15.2138 4.31744 19.4558 9.62253 19.4558C14.9558 19.4836 19.2733 15.2415 19.2733 10.0014C19.2733 4.76119 14.9558 0.546875 9.62253 0.546875ZM9.62253 16.9882C5.72837 16.9882 2.53967 13.8552 2.53967 10.0014C2.53967 6.1752 5.72837 3.04219 9.62253 3.04219C13.5449 3.04219 16.7336 6.1752 16.7336 10.0014C16.7336 13.8552 13.5449 16.9882 9.62253 16.9882Z" fill="#E31E26"/>
<path d="M12.0211 9.61319C13.1276 9.61319 14.0246 8.73185 14.0246 7.64466C14.0246 6.55748 13.1276 5.67614 12.0211 5.67614C10.9146 5.67614 10.0176 6.55748 10.0176 7.64466C10.0176 8.73185 10.9146 9.61319 12.0211 9.61319Z" fill="#E31E26"/>
<path d="M12.0211 14.3266C13.1276 14.3266 14.0246 13.4452 14.0246 12.358C14.0246 11.2709 13.1276 10.3895 12.0211 10.3895C10.9146 10.3895 10.0176 11.2709 10.0176 12.358C10.0176 13.4452 10.9146 14.3266 12.0211 14.3266Z" fill="#E31E26"/>
<path d="M7.22395 14.3266C8.33047 14.3266 9.22747 13.4452 9.22747 12.358C9.22747 11.2709 8.33047 10.3895 7.22395 10.3895C6.11744 10.3895 5.22043 11.2709 5.22043 12.358C5.22043 13.4452 6.11744 14.3266 7.22395 14.3266Z" fill="#E31E26"/>
<path d="M7.22395 9.61319C8.33047 9.61319 9.22747 8.73185 9.22747 7.64466C9.22747 6.55748 8.33047 5.67614 7.22395 5.67614C6.11744 5.67614 5.22043 6.55748 5.22043 7.64466C5.22043 8.73185 6.11744 9.61319 7.22395 9.61319Z" fill="#E31E26"/>
</svg>
