<svg width="50" height="50" viewBox="0 0 50 50" fill="none" xmlns="http://www.w3.org/2000/svg">
<g clip-path="url(#clip0_3702_45559)">
<path d="M3 24.9999V46.9999H47.0014V2.99854H3V24.9999ZM38.4592 23.2468C39.5764 23.5259 40.4289 24.0223 41.2113 24.8322C41.6169 25.2653 42.2171 26.0545 42.2659 26.2429C42.2796 26.2979 40.3663 27.5835 39.2065 28.3033C39.1653 28.3308 38.9968 28.15 38.8078 27.8702C38.2419 27.0452 37.6486 26.6898 36.7404 26.6272C35.4067 26.5365 34.5404 27.235 34.5542 28.401C34.5542 28.7433 34.6023 28.9455 34.7426 29.226C35.0361 29.8337 35.5813 30.1967 37.2918 30.9378C40.4419 32.2922 41.7894 33.186 42.6268 34.4578C43.5618 35.8755 43.7722 38.1387 43.1369 39.8217C42.4384 41.6518 40.7066 42.8948 38.2694 43.3073C37.5152 43.44 35.7271 43.4194 34.9172 43.273C33.1503 42.9588 31.4742 42.0857 30.4402 40.9403C30.0346 40.4934 29.246 39.3267 29.2948 39.2422C29.3154 39.2147 29.4976 39.1026 29.7004 38.9837L31.3346 38.0418L32.5996 37.3082L32.865 37.7001C33.2349 38.2659 34.0454 39.0407 34.5343 39.2992C35.9381 40.0397 37.8659 39.9345 38.8153 39.0827C39.2209 38.7128 39.388 38.3285 39.388 37.7627C39.388 37.2525 39.3261 37.0291 39.0601 36.6455C38.7177 36.1573 38.0192 35.7448 36.0351 34.8855C33.7649 33.9078 32.7873 33.3001 31.8936 32.3362C31.3766 31.7773 30.8878 30.8835 30.6849 30.1362C30.5172 29.5147 30.4753 27.9568 30.6079 27.3285C31.0754 25.1285 32.7309 23.6057 35.12 23.1519C35.8955 23.0055 37.6981 23.0612 38.4585 23.2495L38.4592 23.2468ZM28.1295 25.0824L28.1432 26.8837H22.4164V43.1568H18.3656V26.8837H12.6388V25.1168L12.6869 23.3018C12.7075 23.2743 16.1931 23.2605 20.4185 23.2674L28.1082 23.288L28.1295 25.0824Z" fill="#007ACC"/>
</g>
<defs>
<clipPath id="clip0_3702_45559">
<rect width="44" height="44" fill="white" transform="translate(3 3)"/>
</clipPath>
</defs>
</svg>
