<svg width="50" height="50" viewBox="0 0 50 50" fill="none" xmlns="http://www.w3.org/2000/svg">
<g clip-path="url(#clip0_3702_45480)">
<path d="M48 25C48 37.7018 37.7018 48 25 48C12.2982 48 2 37.7018 2 25C2 12.2982 12.2982 2 25 2C37.7018 2 48 12.2982 48 25Z" fill="#DD4814"/>
<path d="M9.36002 21.9295C7.66377 21.9295 6.28809 23.3038 6.28809 25.0015C6.28809 26.6992 7.66234 28.072 9.36002 28.072C11.0577 28.072 12.432 26.6963 12.432 25C12.432 23.3038 11.0563 21.9295 9.36002 21.9295ZM31.2848 35.8877C29.8156 36.7502 29.3125 38.6132 30.1606 40.0808C31.0088 41.5485 32.8847 42.0531 34.3538 41.205C35.823 40.3568 36.3261 38.4809 35.478 37.0118C34.6298 35.5427 32.7525 35.0424 31.2848 35.8877ZM16.03 25C16.029 23.5604 16.3752 22.1417 17.039 20.8642C17.7029 19.5868 18.665 18.4882 19.8437 17.6616L17.5998 13.9025C14.8719 15.723 12.9084 18.4826 12.0826 21.6564C13.0544 22.447 13.6725 23.6488 13.6725 25C13.6725 26.3513 13.0515 27.553 12.0826 28.3437C12.9121 31.5593 14.9116 34.3035 17.5998 36.099L19.8451 32.3385C18.6664 31.5119 17.7044 30.4133 17.0405 29.1358C16.3766 27.8584 16.0305 26.4397 16.0315 25H16.03ZM25 16.03C27.2413 16.0302 29.4013 16.8694 31.0548 18.3824C32.7083 19.8954 33.7355 21.9727 33.9341 24.2051L38.3098 24.1404C38.1015 20.8661 36.6899 17.7845 34.3466 15.4881C33.1794 15.9294 31.831 15.8618 30.6666 15.1891C30.112 14.8699 29.6356 14.431 29.2723 13.9043C28.909 13.3775 28.6678 12.7763 28.5665 12.1445C27.4438 11.8325 26.2363 11.66 25 11.66C22.8768 11.66 20.8701 12.1588 19.0876 13.04L21.2208 16.8638C22.3708 16.329 23.6502 16.03 24.9986 16.03H25ZM25 33.97C23.6488 33.97 22.3694 33.6682 21.2223 33.1363L19.089 36.96C20.8715 37.8427 22.8783 38.34 25.0015 38.34C26.2058 38.3397 27.4045 38.1762 28.565 37.8542C28.7663 36.6208 29.4994 35.4852 30.6638 34.8095C31.8281 34.1339 33.1794 34.0707 34.3438 34.512C36.687 32.2156 38.0986 29.1339 38.307 25.8597L33.9298 25.795C33.7312 28.0267 32.7047 30.1033 31.0521 31.6162C29.3995 33.1291 27.2405 33.9688 25 33.97ZM31.2848 14.1138C32.7539 14.9763 34.6313 14.4588 35.478 12.9926C36.3246 11.5263 35.823 9.6461 34.3567 8.79797C32.8905 7.94985 31.0102 8.45297 30.1621 9.92353C29.314 11.3941 29.8171 13.2686 31.2862 14.1167L31.2848 14.1138Z" fill="white"/>
</g>
<defs>
<clipPath id="clip0_3702_45480">
<rect width="46" height="46" fill="white" transform="translate(2 2)"/>
</clipPath>
</defs>
</svg>
