<svg width="50" height="50" viewBox="0 0 50 50" fill="none" xmlns="http://www.w3.org/2000/svg">
<path d="M49 25C49 11.749 38.251 1 25 1C11.749 1 1 11.749 1 25C1 38.251 11.749 49 25 49C38.251 49 49 38.251 49 25Z" fill="#2C8EBB"/>
<path d="M41.3274 32.2741C41.1606 30.9583 40.0487 30.0502 38.6216 30.0687C36.4903 30.0965 34.7019 31.1992 33.5158 31.9313C33.0525 32.2185 32.6541 32.4317 32.3112 32.5892C32.3853 31.5143 32.3205 30.1058 31.7645 28.5583C31.088 26.705 30.1799 25.5653 29.5313 24.9073C30.2819 23.8139 31.3104 22.2201 31.7923 19.7552C32.2093 17.6517 32.0795 14.3807 31.1251 12.5459C30.9305 12.1753 30.6062 11.9066 30.1985 11.7954C30.0317 11.749 29.7166 11.6564 29.0958 11.8324C28.1598 9.89575 27.8355 9.69189 27.5853 9.5251C27.0664 9.19151 26.4548 9.11738 25.8803 9.3305C25.1112 9.6085 24.4533 10.3498 23.8324 11.6656C23.7398 11.8602 23.6564 12.0456 23.5822 12.2309C22.4054 12.3143 20.5521 12.7405 18.9861 14.4363C18.7915 14.6494 18.4116 14.807 18.0131 14.9552H18.0224C17.207 15.2425 16.8363 15.9097 16.3822 17.1143C15.7521 18.8008 16.4008 20.4595 17.0402 21.5344C16.1691 22.3127 15.0108 23.5544 14.3992 25.0093C13.6394 26.807 13.556 28.5676 13.5838 29.522C12.9351 30.2077 11.9344 31.4958 11.8232 32.9413C11.6749 34.9614 12.407 36.3328 12.7313 36.8332C12.8239 36.9815 12.9259 37.1019 13.0371 37.2224C13 37.4726 12.9907 37.7413 13.0463 38.0193C13.1668 38.668 13.5745 39.1961 14.1954 39.5297C15.4185 40.1784 17.1236 40.4564 18.4394 39.7985C18.912 40.2988 19.7737 40.7807 21.3398 40.7807H21.4324C21.8309 40.7807 26.8903 40.512 28.3637 40.1506C29.0216 39.993 29.4757 39.7151 29.7722 39.4649C30.7174 39.1683 33.3305 38.2788 35.7954 36.6849C37.5375 35.5544 38.1398 35.3135 39.4371 34.9985C40.6973 34.6927 41.4849 33.5436 41.3274 32.2741ZM39.122 33.6363C37.6394 33.9884 36.8888 34.3127 35.0541 35.5081C32.1907 37.3614 29.0587 38.2232 29.0587 38.2232C29.0587 38.2232 28.7992 38.6124 28.0486 38.7884C26.7514 39.1035 21.868 39.3722 21.4232 39.3815C20.2278 39.3907 19.4958 39.0757 19.2919 38.5846C18.671 37.1019 20.1815 36.4533 20.1815 36.4533C20.1815 36.4533 19.8479 36.2494 19.6533 36.0641C19.4772 35.888 19.2919 35.5359 19.2363 35.6656C19.0046 36.2309 18.8842 37.6116 18.2633 38.2324C17.4108 39.0942 15.7985 38.8069 14.844 38.3066C13.7969 37.7506 14.9181 36.444 14.9181 36.444C14.9181 36.444 14.3529 36.7776 13.8988 36.0919C13.4911 35.4618 13.1112 34.3869 13.2131 33.0618C13.3243 31.5514 15.0108 30.0873 15.0108 30.0873C15.0108 30.0873 14.7143 27.8541 15.6873 25.5653C16.5676 23.4803 18.9398 21.8031 18.9398 21.8031C18.9398 21.8031 16.9475 19.5977 17.6888 17.6147C18.1707 16.3174 18.3653 16.3266 18.5228 16.271C19.0788 16.0579 19.6162 15.8263 20.0147 15.3907C22.007 13.2409 24.5459 13.6486 24.5459 13.6486C24.5459 13.6486 25.7506 9.98842 26.8626 10.7019C27.2054 10.9243 28.4378 13.6672 28.4378 13.6672C28.4378 13.6672 29.7537 12.8981 29.9019 13.1853C30.6988 14.7328 30.7915 17.6888 30.4394 19.4865C29.8463 22.4517 28.3637 24.0456 27.7707 25.0463C27.6317 25.278 29.3645 26.01 30.4579 29.0402C31.468 31.8108 30.5691 34.1367 30.7266 34.3961C30.7544 34.4425 30.7637 34.461 30.7637 34.461C30.7637 34.461 31.922 34.5537 34.2479 33.1174C35.4896 32.3483 36.9629 31.4865 38.6402 31.468C40.2618 31.4402 40.3452 33.3398 39.122 33.6363Z" fill="white"/>
</svg>
