<svg width="710" height="229" viewBox="0 0 710 229" fill="none" xmlns="http://www.w3.org/2000/svg">
<rect x="107.402" y="2.05957" width="106.853" height="38.8911" fill="#EBEAE8"/>
<rect x="0.550781" y="2.05957" width="106.853" height="38.8911" fill="#EBEAE8"/>
<line x1="107.652" y1="2.05957" x2="107.652" y2="40.9507" stroke="#0B0E29" stroke-width="0.5" stroke-dasharray="2 2"/>
<ellipse cx="645.866" cy="55.9757" rx="9.71394" ry="9.72277" fill="#1324A0"/>
<rect x="328.879" y="2.05957" width="106.853" height="38.8911" fill="#00D0F6"/>
<rect x="222.027" y="2.05957" width="106.853" height="38.8911" fill="#00D0F6"/>
<line x1="329.129" y1="2.05957" x2="329.129" y2="40.9507" stroke="#0B0E29" stroke-width="0.5" stroke-dasharray="2 2"/>
<rect x="550.359" y="2.05957" width="106.853" height="38.8911" fill="#0B0E29" stroke="white" stroke-width="0.5" stroke-dasharray="1 1"/>
<rect x="443.508" y="2.05957" width="106.853" height="38.8911" fill="#0B0E29" stroke="white" stroke-width="0.5" stroke-dasharray="1 1"/>
<ellipse cx="22.8936" cy="56.6993" rx="9.71394" ry="9.72277" fill="#0B0E29"/>
<ellipse cx="129.745" cy="56.6993" rx="9.71394" ry="9.72277" fill="#0B0E29"/>
<path fill-rule="evenodd" clip-rule="evenodd" d="M91.9324 63.5748C90.3974 65.1112 88.4765 66.0259 86.4819 66.3189L94.6741 58.1193C94.3814 60.1156 93.4675 62.0383 91.9324 63.5748ZM94.2474 53.5247C94.6075 54.5708 94.7842 55.6661 94.7774 56.7605L85.1243 66.4223C84.0309 66.4291 82.9366 66.2523 81.8915 65.8918L94.2474 53.5247ZM93.8881 52.6289C93.514 51.8163 93.022 51.0448 92.412 50.3401L78.7098 64.0547C79.4138 64.6653 80.1847 65.1578 80.9965 65.5322L93.8881 52.6289ZM89.622 48.111C90.4011 48.5256 91.1357 49.0539 91.8013 49.6959L78.0662 63.4435C77.4248 62.7773 76.8969 62.042 76.4827 61.2622L89.622 48.111ZM88.769 47.7093C87.7894 47.3053 86.7573 47.0685 85.7161 46.9988L75.3715 57.3527C75.4412 58.3949 75.6778 59.428 76.0814 60.4084L88.769 47.7093ZM78.1949 49.8247C79.9394 48.0786 82.1823 47.1355 84.4652 46.9953L75.368 56.1008C75.5081 53.8157 76.4504 51.5708 78.1949 49.8247Z" fill="#0B0E29"/>
<ellipse cx="413.39" cy="56.6993" rx="9.71394" ry="9.72277" fill="#FF0049"/>
<ellipse cx="454.851" cy="55.9757" rx="9.71394" ry="9.72277" fill="#00D0F6"/>
<path fill-rule="evenodd" clip-rule="evenodd" d="M199.315 63.5748C197.78 65.1112 195.859 66.0259 193.865 66.3189L202.057 58.1193C201.764 60.1156 200.85 62.0383 199.315 63.5748ZM201.63 53.5247C201.99 54.5708 202.167 55.6661 202.16 56.7605L192.507 66.4223C191.414 66.4291 190.319 66.2523 189.274 65.8918L201.63 53.5247ZM201.271 52.6289C200.897 51.8163 200.405 51.0448 199.795 50.3401L186.093 64.0547C186.797 64.6653 187.568 65.1578 188.379 65.5322L201.271 52.6289ZM197.005 48.111C197.784 48.5256 198.519 49.0539 199.184 49.6959L185.449 63.4435C184.808 62.7773 184.28 62.042 183.866 61.2622L197.005 48.111ZM196.152 47.7093C195.172 47.3053 194.14 47.0685 193.099 46.9988L182.754 57.3527C182.824 58.3949 183.061 59.428 183.464 60.4084L196.152 47.7093ZM185.578 49.8247C187.322 48.0786 189.565 47.1355 191.848 46.9953L182.751 56.1008C182.891 53.8157 183.833 51.5708 185.578 49.8247Z" fill="#0B0E29"/>
<path d="M14.0564 188.58H17.8484C18.8084 188.58 19.5604 188.841 20.1044 189.364C20.6484 189.887 20.9204 190.585 20.9204 191.46C20.9204 192.132 20.7551 192.66 20.4244 193.044C20.1044 193.428 19.6884 193.7 19.1764 193.86V193.908C19.8058 194.057 20.3231 194.34 20.7284 194.756C21.1338 195.161 21.3364 195.753 21.3364 196.532C21.3364 196.98 21.2618 197.401 21.1124 197.796C20.9631 198.191 20.7498 198.532 20.4724 198.82C20.2058 199.108 19.8858 199.337 19.5124 199.508C19.1498 199.668 18.7551 199.748 18.3284 199.748H14.0564V188.58ZM17.9284 198.58C18.5471 198.58 19.0324 198.441 19.3844 198.164C19.7364 197.887 19.9124 197.46 19.9124 196.884V196.228C19.9124 195.663 19.7364 195.241 19.3844 194.964C19.0324 194.676 18.5471 194.532 17.9284 194.532H15.4004V198.58H17.9284ZM17.7044 193.428C18.2698 193.428 18.7124 193.305 19.0324 193.06C19.3524 192.804 19.5124 192.42 19.5124 191.908V191.284C19.5124 190.772 19.3524 190.388 19.0324 190.132C18.7124 189.876 18.2698 189.748 17.7044 189.748H15.4004V193.428H17.7044ZM30.1622 199.748C29.6609 199.748 29.3035 199.62 29.0902 199.364C28.8769 199.108 28.7435 198.788 28.6902 198.404H28.6102C28.4289 198.884 28.1355 199.263 27.7302 199.54C27.3355 199.807 26.8022 199.94 26.1302 199.94C25.2662 199.94 24.5782 199.716 24.0662 199.268C23.5542 198.82 23.2982 198.207 23.2982 197.428C23.2982 196.66 23.5755 196.068 24.1302 195.652C24.6955 195.236 25.6022 195.028 26.8502 195.028H28.6102V194.212C28.6102 193.604 28.4395 193.151 28.0982 192.852C27.7569 192.543 27.2715 192.388 26.6422 192.388C26.0875 192.388 25.6342 192.5 25.2822 192.724C24.9302 192.937 24.6475 193.231 24.4342 193.604L23.5702 192.964C23.6769 192.751 23.8209 192.543 24.0022 192.34C24.1835 192.137 24.4075 191.961 24.6742 191.812C24.9409 191.652 25.2449 191.529 25.5862 191.444C25.9275 191.348 26.3062 191.3 26.7222 191.3C27.6929 191.3 28.4609 191.545 29.0262 192.036C29.6022 192.527 29.8902 193.209 29.8902 194.084V198.628H31.0422V199.748H30.1622ZM26.3542 198.868C26.6849 198.868 26.9835 198.831 27.2502 198.756C27.5275 198.671 27.7675 198.564 27.9702 198.436C28.1729 198.297 28.3275 198.137 28.4342 197.956C28.5515 197.764 28.6102 197.561 28.6102 197.348V195.988H26.8502C26.0822 195.988 25.5222 196.095 25.1702 196.308C24.8182 196.521 24.6422 196.831 24.6422 197.236V197.572C24.6422 197.999 24.7915 198.324 25.0902 198.548C25.3995 198.761 25.8209 198.868 26.3542 198.868ZM36.9239 199.94C36.3266 199.94 35.7933 199.839 35.3239 199.636C34.8653 199.423 34.4759 199.129 34.1559 198.756C33.8359 198.383 33.5906 197.929 33.4199 197.396C33.2599 196.863 33.1799 196.271 33.1799 195.62C33.1799 194.969 33.2653 194.377 33.4359 193.844C33.6066 193.311 33.8519 192.857 34.1719 192.484C34.4919 192.1 34.8813 191.807 35.3399 191.604C35.7986 191.401 36.3213 191.3 36.9079 191.3C37.7079 191.3 38.3586 191.476 38.8599 191.828C39.3613 192.18 39.7293 192.639 39.9639 193.204L38.9399 193.748C38.7906 193.321 38.5399 192.991 38.1879 192.756C37.8466 192.521 37.4199 192.404 36.9079 192.404C36.5346 192.404 36.1986 192.468 35.8999 192.596C35.6119 192.713 35.3666 192.884 35.1639 193.108C34.9613 193.332 34.8066 193.599 34.6999 193.908C34.6039 194.217 34.5559 194.553 34.5559 194.916V196.324C34.5559 196.687 34.6039 197.023 34.6999 197.332C34.8066 197.641 34.9613 197.908 35.1639 198.132C35.3666 198.356 35.6173 198.532 35.9159 198.66C36.2146 198.777 36.5559 198.836 36.9399 198.836C37.4946 198.836 37.9533 198.708 38.3159 198.452C38.6786 198.196 38.9666 197.844 39.1799 197.396L40.0919 198.02C39.8466 198.575 39.4626 199.033 38.9399 199.396C38.4279 199.759 37.7559 199.94 36.9239 199.94ZM43.1097 187.908H44.3897V195.38H44.4537L45.8937 194.02L48.6457 191.492H50.2137L46.7897 194.724L50.6137 199.748H49.0297L45.8137 195.46L44.3897 196.756V199.748H43.1097V187.908ZM52.3034 198.66H55.1834V188.996H52.3034V187.908H56.4634V198.66H59.3434V199.748H52.3034V198.66ZM65.4172 199.94C64.8412 199.94 64.3185 199.839 63.8492 199.636C63.3905 199.433 62.9959 199.145 62.6652 198.772C62.3452 198.388 62.0999 197.935 61.9292 197.412C61.7585 196.879 61.6732 196.281 61.6732 195.62C61.6732 194.969 61.7585 194.377 61.9292 193.844C62.0999 193.311 62.3452 192.857 62.6652 192.484C62.9959 192.1 63.3905 191.807 63.8492 191.604C64.3185 191.401 64.8412 191.3 65.4172 191.3C65.9932 191.3 66.5105 191.401 66.9692 191.604C67.4385 191.807 67.8332 192.1 68.1532 192.484C68.4839 192.857 68.7345 193.311 68.9052 193.844C69.0759 194.377 69.1612 194.969 69.1612 195.62C69.1612 196.281 69.0759 196.879 68.9052 197.412C68.7345 197.935 68.4839 198.388 68.1532 198.772C67.8332 199.145 67.4385 199.433 66.9692 199.636C66.5105 199.839 65.9932 199.94 65.4172 199.94ZM65.4172 198.836C66.1319 198.836 66.7079 198.623 67.1452 198.196C67.5825 197.769 67.8012 197.108 67.8012 196.212V195.028C67.8012 194.132 67.5825 193.471 67.1452 193.044C66.7079 192.617 66.1319 192.404 65.4172 192.404C64.7025 192.404 64.1265 192.617 63.6892 193.044C63.2519 193.471 63.0332 194.132 63.0332 195.028V196.212C63.0332 197.108 63.2519 197.769 63.6892 198.196C64.1265 198.623 64.7025 198.836 65.4172 198.836ZM79.1869 200.692C79.1869 201.524 78.8403 202.137 78.1469 202.532C77.4536 202.937 76.4136 203.14 75.0269 203.14C73.6936 203.14 72.7336 202.964 72.1469 202.612C71.5709 202.26 71.2829 201.753 71.2829 201.092C71.2829 200.644 71.4003 200.297 71.6349 200.052C71.8696 199.807 72.2003 199.625 72.6269 199.508V199.316C72.3923 199.199 72.2109 199.049 72.0829 198.868C71.9549 198.687 71.8909 198.457 71.8909 198.18C71.8909 197.753 72.0296 197.433 72.3069 197.22C72.5949 197.007 72.9523 196.847 73.3789 196.74V196.676C72.8669 196.452 72.4669 196.121 72.1789 195.684C71.9016 195.247 71.7629 194.735 71.7629 194.148C71.7629 193.732 71.8376 193.348 71.9869 192.996C72.1363 192.644 72.3496 192.345 72.6269 192.1C72.9149 191.844 73.2563 191.647 73.6509 191.508C74.0456 191.369 74.4829 191.3 74.9629 191.3C75.5816 191.3 76.1256 191.412 76.5949 191.636V191.492C76.5949 191.172 76.6696 190.905 76.8189 190.692C76.9683 190.479 77.2243 190.372 77.5869 190.372H79.1069V191.492H77.2509V192.052C77.5496 192.308 77.7789 192.612 77.9389 192.964C78.0989 193.316 78.1789 193.711 78.1789 194.148C78.1789 194.564 78.0989 194.948 77.9389 195.3C77.7896 195.652 77.5763 195.956 77.2989 196.212C77.0216 196.457 76.6803 196.649 76.2749 196.788C75.8803 196.927 75.4429 196.996 74.9629 196.996C74.8243 196.996 74.6909 196.991 74.5629 196.98C74.4349 196.969 74.3069 196.953 74.1789 196.932C74.0509 196.953 73.9176 196.991 73.7789 197.044C73.6403 197.087 73.5123 197.151 73.3949 197.236C73.2776 197.311 73.1816 197.401 73.1069 197.508C73.0323 197.615 72.9949 197.737 72.9949 197.876C72.9949 198.121 73.1176 198.287 73.3629 198.372C73.6083 198.447 73.9283 198.484 74.3229 198.484H76.1469C77.2136 198.484 77.9869 198.687 78.4669 199.092C78.9469 199.487 79.1869 200.02 79.1869 200.692ZM77.9869 200.756C77.9869 200.425 77.8536 200.159 77.5869 199.956C77.3203 199.764 76.8563 199.668 76.1949 199.668H73.3309C72.7763 199.892 72.4989 200.265 72.4989 200.788C72.4989 201.151 72.6429 201.46 72.9309 201.716C73.2189 201.983 73.6989 202.116 74.3709 202.116H75.6189C76.3656 202.116 76.9469 201.999 77.3629 201.764C77.7789 201.54 77.9869 201.204 77.9869 200.756ZM74.9629 196.004C75.6029 196.004 76.0723 195.855 76.3709 195.556C76.6803 195.257 76.8349 194.863 76.8349 194.372V193.908C76.8349 193.417 76.6803 193.028 76.3709 192.74C76.0723 192.441 75.6029 192.292 74.9629 192.292C74.3229 192.292 73.8536 192.441 73.5549 192.74C73.2563 193.028 73.1069 193.417 73.1069 193.908V194.372C73.1069 194.863 73.2563 195.257 73.5549 195.556C73.8536 195.855 74.3229 196.004 74.9629 196.004ZM96.5024 198.26H96.4224C96.3264 198.473 96.2144 198.681 96.0864 198.884C95.9584 199.087 95.7931 199.268 95.5904 199.428C95.3984 199.577 95.1638 199.7 94.8864 199.796C94.6091 199.892 94.2784 199.94 93.8944 199.94C92.6784 199.94 91.7718 199.449 91.1744 198.468C90.5878 197.487 90.2944 196.079 90.2944 194.244C90.2944 192.324 90.6198 190.868 91.2704 189.876C91.9211 188.884 92.9238 188.388 94.2784 188.388C94.8011 188.388 95.2544 188.457 95.6384 188.596C96.0224 188.735 96.3478 188.921 96.6144 189.156C96.8918 189.391 97.1211 189.657 97.3024 189.956C97.4838 190.244 97.6331 190.537 97.7504 190.836L96.5984 191.364C96.5024 191.119 96.3904 190.889 96.2624 190.676C96.1451 190.452 95.9958 190.26 95.8144 190.1C95.6438 189.929 95.4358 189.796 95.1904 189.7C94.9451 189.604 94.6571 189.556 94.3264 189.556C93.4304 189.556 92.7691 189.892 92.3424 190.564C91.9264 191.236 91.7184 192.132 91.7184 193.252V194.98C91.7184 195.545 91.7611 196.063 91.8464 196.532C91.9318 196.991 92.0704 197.391 92.2624 197.732C92.4651 198.073 92.7211 198.34 93.0304 198.532C93.3504 198.713 93.7398 198.804 94.1984 198.804C94.9238 198.804 95.4891 198.585 95.8944 198.148C96.2998 197.711 96.5024 197.145 96.5024 196.452V195.3H94.1504V194.228H97.7504V199.748H96.5024V198.26ZM100.224 198.66H102.64V192.58H100.224V191.492H103.92V193.572H104C104.171 192.921 104.491 192.415 104.96 192.052C105.44 191.679 106.048 191.492 106.784 191.492H107.936V192.772H106.384C105.648 192.772 105.051 192.985 104.592 193.412C104.144 193.839 103.92 194.399 103.92 195.092V198.66H107.12V199.748H100.224V198.66ZM113.386 199.94C112.81 199.94 112.287 199.839 111.818 199.636C111.359 199.433 110.965 199.145 110.634 198.772C110.314 198.388 110.069 197.935 109.898 197.412C109.727 196.879 109.642 196.281 109.642 195.62C109.642 194.969 109.727 194.377 109.898 193.844C110.069 193.311 110.314 192.857 110.634 192.484C110.965 192.1 111.359 191.807 111.818 191.604C112.287 191.401 112.81 191.3 113.386 191.3C113.962 191.3 114.479 191.401 114.938 191.604C115.407 191.807 115.802 192.1 116.122 192.484C116.453 192.857 116.703 193.311 116.874 193.844C117.045 194.377 117.13 194.969 117.13 195.62C117.13 196.281 117.045 196.879 116.874 197.412C116.703 197.935 116.453 198.388 116.122 198.772C115.802 199.145 115.407 199.433 114.938 199.636C114.479 199.839 113.962 199.94 113.386 199.94ZM113.386 198.836C114.101 198.836 114.677 198.623 115.114 198.196C115.551 197.769 115.77 197.108 115.77 196.212V195.028C115.77 194.132 115.551 193.471 115.114 193.044C114.677 192.617 114.101 192.404 113.386 192.404C112.671 192.404 112.095 192.617 111.658 193.044C111.221 193.471 111.002 194.132 111.002 195.028V196.212C111.002 197.108 111.221 197.769 111.658 198.196C112.095 198.623 112.671 198.836 113.386 198.836ZM122.98 199.94C122.404 199.94 121.881 199.839 121.412 199.636C120.953 199.433 120.558 199.145 120.228 198.772C119.908 198.388 119.662 197.935 119.492 197.412C119.321 196.879 119.236 196.281 119.236 195.62C119.236 194.969 119.321 194.377 119.492 193.844C119.662 193.311 119.908 192.857 120.228 192.484C120.558 192.1 120.953 191.807 121.412 191.604C121.881 191.401 122.404 191.3 122.98 191.3C123.556 191.3 124.073 191.401 124.532 191.604C125.001 191.807 125.396 192.1 125.716 192.484C126.046 192.857 126.297 193.311 126.468 193.844C126.638 194.377 126.724 194.969 126.724 195.62C126.724 196.281 126.638 196.879 126.468 197.412C126.297 197.935 126.046 198.388 125.716 198.772C125.396 199.145 125.001 199.433 124.532 199.636C124.073 199.839 123.556 199.94 122.98 199.94ZM122.98 198.836C123.694 198.836 124.27 198.623 124.708 198.196C125.145 197.769 125.364 197.108 125.364 196.212V195.028C125.364 194.132 125.145 193.471 124.708 193.044C124.27 192.617 123.694 192.404 122.98 192.404C122.265 192.404 121.689 192.617 121.252 193.044C120.814 193.471 120.596 194.132 120.596 195.028V196.212C120.596 197.108 120.814 197.769 121.252 198.196C121.689 198.623 122.265 198.836 122.98 198.836ZM128.637 199.748V191.492H129.821V192.452H129.885C130.013 192.132 130.195 191.86 130.429 191.636C130.664 191.412 131.011 191.3 131.469 191.3C131.949 191.3 132.307 191.423 132.541 191.668C132.776 191.903 132.92 192.212 132.973 192.596H133.021C133.171 192.223 133.384 191.913 133.661 191.668C133.939 191.423 134.323 191.3 134.813 191.3C135.485 191.3 135.933 191.535 136.157 192.004C136.392 192.473 136.509 193.145 136.509 194.02V199.748H135.325V194.228C135.325 193.524 135.251 193.039 135.101 192.772C134.963 192.495 134.701 192.356 134.317 192.356C133.976 192.356 133.699 192.468 133.485 192.692C133.272 192.905 133.165 193.236 133.165 193.684V199.748H131.981V194.228C131.981 193.524 131.907 193.039 131.757 192.772C131.619 192.495 131.363 192.356 130.989 192.356C130.648 192.356 130.365 192.468 130.141 192.692C129.928 192.905 129.821 193.236 129.821 193.684V199.748H128.637ZM142.679 189.668C142.306 189.668 142.045 189.593 141.895 189.444C141.746 189.284 141.671 189.087 141.671 188.852V188.596C141.671 188.361 141.746 188.169 141.895 188.02C142.045 187.86 142.306 187.78 142.679 187.78C143.053 187.78 143.314 187.86 143.463 188.02C143.613 188.169 143.687 188.361 143.687 188.596V188.852C143.687 189.087 143.613 189.284 143.463 189.444C143.314 189.593 143.053 189.668 142.679 189.668ZM139.063 198.66H142.039V192.58H139.063V191.492H143.319V198.66H146.103V199.748H139.063V198.66ZM148.529 199.748V191.492H149.809V192.836H149.873C149.958 192.633 150.065 192.441 150.193 192.26C150.321 192.068 150.476 191.903 150.657 191.764C150.849 191.625 151.073 191.513 151.329 191.428C151.585 191.343 151.884 191.3 152.225 191.3C153.089 191.3 153.782 191.577 154.305 192.132C154.828 192.676 155.089 193.449 155.089 194.452V199.748H153.809V194.676C153.809 193.919 153.644 193.359 153.313 192.996C152.982 192.623 152.497 192.436 151.857 192.436C151.601 192.436 151.35 192.468 151.105 192.532C150.86 192.596 150.641 192.692 150.449 192.82C150.257 192.948 150.102 193.113 149.985 193.316C149.868 193.519 149.809 193.753 149.809 194.02V199.748H148.529ZM165.531 200.692C165.531 201.524 165.184 202.137 164.491 202.532C163.797 202.937 162.757 203.14 161.371 203.14C160.037 203.14 159.077 202.964 158.491 202.612C157.915 202.26 157.627 201.753 157.627 201.092C157.627 200.644 157.744 200.297 157.979 200.052C158.213 199.807 158.544 199.625 158.971 199.508V199.316C158.736 199.199 158.555 199.049 158.427 198.868C158.299 198.687 158.235 198.457 158.235 198.18C158.235 197.753 158.373 197.433 158.651 197.22C158.939 197.007 159.296 196.847 159.723 196.74V196.676C159.211 196.452 158.811 196.121 158.523 195.684C158.245 195.247 158.107 194.735 158.107 194.148C158.107 193.732 158.181 193.348 158.331 192.996C158.48 192.644 158.693 192.345 158.971 192.1C159.259 191.844 159.6 191.647 159.995 191.508C160.389 191.369 160.827 191.3 161.307 191.3C161.925 191.3 162.469 191.412 162.939 191.636V191.492C162.939 191.172 163.013 190.905 163.163 190.692C163.312 190.479 163.568 190.372 163.931 190.372H165.451V191.492H163.595V192.052C163.893 192.308 164.123 192.612 164.283 192.964C164.443 193.316 164.523 193.711 164.523 194.148C164.523 194.564 164.443 194.948 164.283 195.3C164.133 195.652 163.92 195.956 163.643 196.212C163.365 196.457 163.024 196.649 162.619 196.788C162.224 196.927 161.787 196.996 161.307 196.996C161.168 196.996 161.035 196.991 160.907 196.98C160.779 196.969 160.651 196.953 160.523 196.932C160.395 196.953 160.261 196.991 160.123 197.044C159.984 197.087 159.856 197.151 159.739 197.236C159.621 197.311 159.525 197.401 159.451 197.508C159.376 197.615 159.339 197.737 159.339 197.876C159.339 198.121 159.461 198.287 159.707 198.372C159.952 198.447 160.272 198.484 160.667 198.484H162.491C163.557 198.484 164.331 198.687 164.811 199.092C165.291 199.487 165.531 200.02 165.531 200.692ZM164.331 200.756C164.331 200.425 164.197 200.159 163.931 199.956C163.664 199.764 163.2 199.668 162.539 199.668H159.675C159.12 199.892 158.843 200.265 158.843 200.788C158.843 201.151 158.987 201.46 159.275 201.716C159.563 201.983 160.043 202.116 160.715 202.116H161.963C162.709 202.116 163.291 201.999 163.707 201.764C164.123 201.54 164.331 201.204 164.331 200.756ZM161.307 196.004C161.947 196.004 162.416 195.855 162.715 195.556C163.024 195.257 163.179 194.863 163.179 194.372V193.908C163.179 193.417 163.024 193.028 162.715 192.74C162.416 192.441 161.947 192.292 161.307 192.292C160.667 192.292 160.197 192.441 159.899 192.74C159.6 193.028 159.451 193.417 159.451 193.908V194.372C159.451 194.863 159.6 195.257 159.899 195.556C160.197 195.855 160.667 196.004 161.307 196.004ZM17.4164 221.94C16.4138 221.94 15.5924 221.759 14.9524 221.396C14.3124 221.023 13.7844 220.548 13.3684 219.972L14.3444 219.172C14.7818 219.716 15.2404 220.121 15.7204 220.388C16.2111 220.655 16.7924 220.788 17.4644 220.788C18.2751 220.788 18.8938 220.601 19.3204 220.228C19.7471 219.855 19.9604 219.332 19.9604 218.66C19.9604 218.116 19.8058 217.695 19.4964 217.396C19.1871 217.087 18.6484 216.868 17.8804 216.74L16.6324 216.532C16.0884 216.436 15.6298 216.292 15.2564 216.1C14.8938 215.908 14.6004 215.679 14.3764 215.412C14.1524 215.135 13.9924 214.836 13.8964 214.516C13.8004 214.185 13.7524 213.844 13.7524 213.492C13.7524 212.468 14.0884 211.695 14.7604 211.172C15.4324 210.649 16.3391 210.388 17.4804 210.388C18.3764 210.388 19.1284 210.537 19.7364 210.836C20.3551 211.135 20.8511 211.556 21.2244 212.1L20.2804 212.916C19.9711 212.511 19.5978 212.18 19.1604 211.924C18.7231 211.668 18.1578 211.54 17.4644 211.54C16.7071 211.54 16.1258 211.7 15.7204 212.02C15.3151 212.34 15.1124 212.82 15.1124 213.46C15.1124 213.961 15.2618 214.372 15.5604 214.692C15.8698 215.001 16.4191 215.225 17.2084 215.364L18.4084 215.572C18.9524 215.668 19.4111 215.812 19.7844 216.004C20.1578 216.196 20.4564 216.425 20.6804 216.692C20.9151 216.959 21.0804 217.257 21.1764 217.588C21.2724 217.919 21.3204 218.265 21.3204 218.628C21.3204 219.663 20.9791 220.473 20.2964 221.06C19.6244 221.647 18.6644 221.94 17.4164 221.94ZM27.1862 221.94C26.5889 221.94 26.0502 221.839 25.5702 221.636C25.1009 221.433 24.6955 221.145 24.3542 220.772C24.0235 220.388 23.7675 219.935 23.5862 219.412C23.4049 218.879 23.3142 218.287 23.3142 217.636C23.3142 216.975 23.4049 216.377 23.5862 215.844C23.7782 215.311 24.0395 214.857 24.3702 214.484C24.7009 214.1 25.0955 213.807 25.5542 213.604C26.0235 213.401 26.5409 213.3 27.1062 213.3C27.6609 213.3 28.1622 213.401 28.6102 213.604C29.0689 213.807 29.4582 214.089 29.7782 214.452C30.0982 214.804 30.3435 215.225 30.5142 215.716C30.6849 216.207 30.7702 216.745 30.7702 217.332V217.94H24.6582V218.324C24.6582 218.687 24.7169 219.023 24.8342 219.332C24.9515 219.641 25.1169 219.908 25.3302 220.132C25.5542 220.356 25.8209 220.532 26.1302 220.66C26.4502 220.777 26.8022 220.836 27.1862 220.836C27.7409 220.836 28.2209 220.708 28.6262 220.452C29.0315 220.196 29.3409 219.844 29.5542 219.396L30.4982 220.036C30.2529 220.591 29.8422 221.049 29.2662 221.412C28.7009 221.764 28.0075 221.94 27.1862 221.94ZM27.1062 214.356C26.7542 214.356 26.4289 214.42 26.1302 214.548C25.8315 214.676 25.5702 214.852 25.3462 215.076C25.1329 215.3 24.9622 215.567 24.8342 215.876C24.7169 216.175 24.6582 216.505 24.6582 216.868V216.98H29.3942V216.804C29.3942 216.441 29.3355 216.111 29.2182 215.812C29.1115 215.513 28.9569 215.257 28.7542 215.044C28.5622 214.82 28.3222 214.649 28.0342 214.532C27.7569 214.415 27.4475 214.356 27.1062 214.356ZM36.7319 221.94C35.8679 221.94 35.1213 221.796 34.4919 221.508C33.8733 221.209 33.3453 220.815 32.9079 220.324L33.7719 219.572C34.1666 219.988 34.5986 220.308 35.0679 220.532C35.5373 220.756 36.1026 220.868 36.7639 220.868C37.4039 220.868 37.9266 220.756 38.3319 220.532C38.7479 220.297 38.9559 219.935 38.9559 219.444C38.9559 219.231 38.9133 219.055 38.8279 218.916C38.7533 218.767 38.6466 218.649 38.5079 218.564C38.3693 218.479 38.2146 218.415 38.0439 218.372C37.8733 218.319 37.6919 218.276 37.4999 218.244L36.2039 218.052C35.9159 218.009 35.6013 217.951 35.2599 217.876C34.9293 217.801 34.6253 217.684 34.3479 217.524C34.0706 217.353 33.8359 217.129 33.6439 216.852C33.4626 216.575 33.3719 216.212 33.3719 215.764C33.3719 215.348 33.4519 214.991 33.6119 214.692C33.7826 214.383 34.0173 214.127 34.3159 213.924C34.6146 213.711 34.9666 213.556 35.3719 213.46C35.7773 213.353 36.2199 213.3 36.6999 213.3C37.4466 213.3 38.0919 213.417 38.6359 213.652C39.1906 213.887 39.6653 214.212 40.0599 214.628L39.2279 215.412C39.1319 215.295 39.0093 215.177 38.8599 215.06C38.7213 214.932 38.5453 214.82 38.3319 214.724C38.1293 214.617 37.8893 214.532 37.6119 214.468C37.3346 214.404 37.0146 214.372 36.6519 214.372C36.0013 214.372 35.4999 214.484 35.1479 214.708C34.8066 214.932 34.6359 215.257 34.6359 215.684C34.6359 215.897 34.6733 216.079 34.7479 216.228C34.8333 216.367 34.9453 216.479 35.0839 216.564C35.2226 216.649 35.3773 216.719 35.5479 216.772C35.7293 216.815 35.9106 216.852 36.0919 216.884L37.3879 217.076C37.6866 217.119 38.0013 217.177 38.3319 217.252C38.6626 217.327 38.9666 217.449 39.2439 217.62C39.5213 217.78 39.7506 217.999 39.9319 218.276C40.1239 218.553 40.2199 218.916 40.2199 219.364C40.2199 220.185 39.8999 220.82 39.2599 221.268C38.6306 221.716 37.7879 221.94 36.7319 221.94ZM46.3257 221.94C45.4617 221.94 44.715 221.796 44.0857 221.508C43.467 221.209 42.939 220.815 42.5017 220.324L43.3657 219.572C43.7604 219.988 44.1924 220.308 44.6617 220.532C45.131 220.756 45.6964 220.868 46.3577 220.868C46.9977 220.868 47.5204 220.756 47.9257 220.532C48.3417 220.297 48.5497 219.935 48.5497 219.444C48.5497 219.231 48.507 219.055 48.4217 218.916C48.347 218.767 48.2404 218.649 48.1017 218.564C47.963 218.479 47.8084 218.415 47.6377 218.372C47.467 218.319 47.2857 218.276 47.0937 218.244L45.7977 218.052C45.5097 218.009 45.195 217.951 44.8537 217.876C44.523 217.801 44.219 217.684 43.9417 217.524C43.6644 217.353 43.4297 217.129 43.2377 216.852C43.0564 216.575 42.9657 216.212 42.9657 215.764C42.9657 215.348 43.0457 214.991 43.2057 214.692C43.3764 214.383 43.611 214.127 43.9097 213.924C44.2084 213.711 44.5604 213.556 44.9657 213.46C45.371 213.353 45.8137 213.3 46.2937 213.3C47.0404 213.3 47.6857 213.417 48.2297 213.652C48.7844 213.887 49.259 214.212 49.6537 214.628L48.8217 215.412C48.7257 215.295 48.603 215.177 48.4537 215.06C48.315 214.932 48.139 214.82 47.9257 214.724C47.723 214.617 47.483 214.532 47.2057 214.468C46.9284 214.404 46.6084 214.372 46.2457 214.372C45.595 214.372 45.0937 214.484 44.7417 214.708C44.4004 214.932 44.2297 215.257 44.2297 215.684C44.2297 215.897 44.267 216.079 44.3417 216.228C44.427 216.367 44.539 216.479 44.6777 216.564C44.8164 216.649 44.971 216.719 45.1417 216.772C45.323 216.815 45.5044 216.852 45.6857 216.884L46.9817 217.076C47.2804 217.119 47.595 217.177 47.9257 217.252C48.2564 217.327 48.5604 217.449 48.8377 217.62C49.115 217.78 49.3444 217.999 49.5257 218.276C49.7177 218.553 49.8137 218.916 49.8137 219.364C49.8137 220.185 49.4937 220.82 48.8537 221.268C48.2244 221.716 47.3817 221.94 46.3257 221.94ZM56.3354 211.668C55.9621 211.668 55.7008 211.593 55.5514 211.444C55.4021 211.284 55.3274 211.087 55.3274 210.852V210.596C55.3274 210.361 55.4021 210.169 55.5514 210.02C55.7008 209.86 55.9621 209.78 56.3354 209.78C56.7088 209.78 56.9701 209.86 57.1194 210.02C57.2688 210.169 57.3434 210.361 57.3434 210.596V210.852C57.3434 211.087 57.2688 211.284 57.1194 211.444C56.9701 211.593 56.7088 211.668 56.3354 211.668ZM52.7194 220.66H55.6954V214.58H52.7194V213.492H56.9754V220.66H59.7594V221.748H52.7194V220.66ZM65.4172 221.94C64.8412 221.94 64.3185 221.839 63.8492 221.636C63.3905 221.433 62.9959 221.145 62.6652 220.772C62.3452 220.388 62.0999 219.935 61.9292 219.412C61.7585 218.879 61.6732 218.281 61.6732 217.62C61.6732 216.969 61.7585 216.377 61.9292 215.844C62.0999 215.311 62.3452 214.857 62.6652 214.484C62.9959 214.1 63.3905 213.807 63.8492 213.604C64.3185 213.401 64.8412 213.3 65.4172 213.3C65.9932 213.3 66.5105 213.401 66.9692 213.604C67.4385 213.807 67.8332 214.1 68.1532 214.484C68.4839 214.857 68.7345 215.311 68.9052 215.844C69.0759 216.377 69.1612 216.969 69.1612 217.62C69.1612 218.281 69.0759 218.879 68.9052 219.412C68.7345 219.935 68.4839 220.388 68.1532 220.772C67.8332 221.145 67.4385 221.433 66.9692 221.636C66.5105 221.839 65.9932 221.94 65.4172 221.94ZM65.4172 220.836C66.1319 220.836 66.7079 220.623 67.1452 220.196C67.5825 219.769 67.8012 219.108 67.8012 218.212V217.028C67.8012 216.132 67.5825 215.471 67.1452 215.044C66.7079 214.617 66.1319 214.404 65.4172 214.404C64.7025 214.404 64.1265 214.617 63.6892 215.044C63.2519 215.471 63.0332 216.132 63.0332 217.028V218.212C63.0332 219.108 63.2519 219.769 63.6892 220.196C64.1265 220.623 64.7025 220.836 65.4172 220.836ZM71.7789 221.748V213.492H73.0589V214.836H73.1229C73.2083 214.633 73.3149 214.441 73.4429 214.26C73.5709 214.068 73.7256 213.903 73.9069 213.764C74.0989 213.625 74.3229 213.513 74.5789 213.428C74.8349 213.343 75.1336 213.3 75.4749 213.3C76.3389 213.3 77.0323 213.577 77.5549 214.132C78.0776 214.676 78.3389 215.449 78.3389 216.452V221.748H77.0589V216.676C77.0589 215.919 76.8936 215.359 76.5629 214.996C76.2323 214.623 75.7469 214.436 75.1069 214.436C74.8509 214.436 74.6003 214.468 74.3549 214.532C74.1096 214.596 73.8909 214.692 73.6989 214.82C73.5069 214.948 73.3523 215.113 73.2349 215.316C73.1176 215.519 73.0589 215.753 73.0589 216.02V221.748H71.7789ZM84.7007 221.94C83.8367 221.94 83.09 221.796 82.4607 221.508C81.842 221.209 81.314 220.815 80.8767 220.324L81.7407 219.572C82.1354 219.988 82.5674 220.308 83.0367 220.532C83.506 220.756 84.0714 220.868 84.7327 220.868C85.3727 220.868 85.8954 220.756 86.3007 220.532C86.7167 220.297 86.9247 219.935 86.9247 219.444C86.9247 219.231 86.882 219.055 86.7967 218.916C86.722 218.767 86.6154 218.649 86.4767 218.564C86.338 218.479 86.1834 218.415 86.0127 218.372C85.842 218.319 85.6607 218.276 85.4687 218.244L84.1727 218.052C83.8847 218.009 83.57 217.951 83.2287 217.876C82.898 217.801 82.594 217.684 82.3167 217.524C82.0394 217.353 81.8047 217.129 81.6127 216.852C81.4314 216.575 81.3407 216.212 81.3407 215.764C81.3407 215.348 81.4207 214.991 81.5807 214.692C81.7514 214.383 81.986 214.127 82.2847 213.924C82.5834 213.711 82.9354 213.556 83.3407 213.46C83.746 213.353 84.1887 213.3 84.6687 213.3C85.4154 213.3 86.0607 213.417 86.6047 213.652C87.1594 213.887 87.634 214.212 88.0287 214.628L87.1967 215.412C87.1007 215.295 86.978 215.177 86.8287 215.06C86.69 214.932 86.514 214.82 86.3007 214.724C86.098 214.617 85.858 214.532 85.5807 214.468C85.3034 214.404 84.9834 214.372 84.6207 214.372C83.97 214.372 83.4687 214.484 83.1167 214.708C82.7754 214.932 82.6047 215.257 82.6047 215.684C82.6047 215.897 82.642 216.079 82.7167 216.228C82.802 216.367 82.914 216.479 83.0527 216.564C83.1914 216.649 83.346 216.719 83.5167 216.772C83.698 216.815 83.8794 216.852 84.0607 216.884L85.3567 217.076C85.6554 217.119 85.97 217.177 86.3007 217.252C86.6314 217.327 86.9354 217.449 87.2127 217.62C87.49 217.78 87.7194 217.999 87.9007 218.276C88.0927 218.553 88.1887 218.916 88.1887 219.364C88.1887 220.185 87.8687 220.82 87.2287 221.268C86.5994 221.716 85.7567 221.94 84.7007 221.94Z" fill="#0B0E29"/>
<path d="M405.631 199.94C404.629 199.94 403.807 199.759 403.167 199.396C402.527 199.023 401.999 198.548 401.583 197.972L402.559 197.172C402.997 197.716 403.455 198.121 403.935 198.388C404.426 198.655 405.007 198.788 405.679 198.788C406.49 198.788 407.109 198.601 407.535 198.228C407.962 197.855 408.175 197.332 408.175 196.66C408.175 196.116 408.021 195.695 407.711 195.396C407.402 195.087 406.863 194.868 406.095 194.74L404.847 194.532C404.303 194.436 403.845 194.292 403.471 194.1C403.109 193.908 402.815 193.679 402.591 193.412C402.367 193.135 402.207 192.836 402.111 192.516C402.015 192.185 401.967 191.844 401.967 191.492C401.967 190.468 402.303 189.695 402.975 189.172C403.647 188.649 404.554 188.388 405.695 188.388C406.591 188.388 407.343 188.537 407.951 188.836C408.57 189.135 409.066 189.556 409.439 190.1L408.495 190.916C408.186 190.511 407.813 190.18 407.375 189.924C406.938 189.668 406.373 189.54 405.679 189.54C404.922 189.54 404.341 189.7 403.935 190.02C403.53 190.34 403.327 190.82 403.327 191.46C403.327 191.961 403.477 192.372 403.775 192.692C404.085 193.001 404.634 193.225 405.423 193.364L406.623 193.572C407.167 193.668 407.626 193.812 407.999 194.004C408.373 194.196 408.671 194.425 408.895 194.692C409.13 194.959 409.295 195.257 409.391 195.588C409.487 195.919 409.535 196.265 409.535 196.628C409.535 197.663 409.194 198.473 408.511 199.06C407.839 199.647 406.879 199.94 405.631 199.94ZM411.977 191.492H413.257V192.836H413.321C413.854 191.812 414.702 191.3 415.865 191.3C416.878 191.3 417.668 191.679 418.233 192.436C418.809 193.193 419.097 194.255 419.097 195.62C419.097 196.985 418.809 198.047 418.233 198.804C417.668 199.561 416.878 199.94 415.865 199.94C414.702 199.94 413.854 199.428 413.321 198.404H413.257V202.948H411.977V191.492ZM415.369 198.804C416.116 198.804 416.692 198.58 417.097 198.132C417.513 197.673 417.721 197.071 417.721 196.324V194.916C417.721 194.169 417.513 193.572 417.097 193.124C416.692 192.665 416.116 192.436 415.369 192.436C415.081 192.436 414.809 192.473 414.553 192.548C414.297 192.623 414.073 192.735 413.881 192.884C413.689 193.023 413.534 193.199 413.417 193.412C413.31 193.615 413.257 193.855 413.257 194.132V197.108C413.257 197.385 413.31 197.631 413.417 197.844C413.534 198.047 413.689 198.223 413.881 198.372C414.073 198.511 414.297 198.617 414.553 198.692C414.809 198.767 415.081 198.804 415.369 198.804ZM421.283 198.66H423.699V192.58H421.283V191.492H424.979V193.572H425.059C425.229 192.921 425.549 192.415 426.019 192.052C426.499 191.679 427.107 191.492 427.843 191.492H428.995V192.772H427.443C426.707 192.772 426.109 192.985 425.651 193.412C425.203 193.839 424.979 194.399 424.979 195.092V198.66H428.179V199.748H421.283V198.66ZM434.957 189.668C434.583 189.668 434.322 189.593 434.173 189.444C434.023 189.284 433.949 189.087 433.949 188.852V188.596C433.949 188.361 434.023 188.169 434.173 188.02C434.322 187.86 434.583 187.78 434.957 187.78C435.33 187.78 435.591 187.86 435.741 188.02C435.89 188.169 435.965 188.361 435.965 188.596V188.852C435.965 189.087 435.89 189.284 435.741 189.444C435.591 189.593 435.33 189.668 434.957 189.668ZM431.341 198.66H434.317V192.58H431.341V191.492H435.597V198.66H438.381V199.748H431.341V198.66ZM440.806 199.748V191.492H442.086V192.836H442.15C442.236 192.633 442.342 192.441 442.47 192.26C442.598 192.068 442.753 191.903 442.934 191.764C443.126 191.625 443.35 191.513 443.606 191.428C443.862 191.343 444.161 191.3 444.502 191.3C445.366 191.3 446.06 191.577 446.582 192.132C447.105 192.676 447.366 193.449 447.366 194.452V199.748H446.086V194.676C446.086 193.919 445.921 193.359 445.59 192.996C445.26 192.623 444.774 192.436 444.134 192.436C443.878 192.436 443.628 192.468 443.382 192.532C443.137 192.596 442.918 192.692 442.726 192.82C442.534 192.948 442.38 193.113 442.262 193.316C442.145 193.519 442.086 193.753 442.086 194.02V199.748H440.806ZM454.032 199.748C453.403 199.748 452.939 199.572 452.64 199.22C452.352 198.868 452.208 198.415 452.208 197.86V192.58H449.456V191.492H451.504C451.781 191.492 451.973 191.439 452.08 191.332C452.197 191.215 452.256 191.017 452.256 190.74V188.58H453.488V191.492H457.248V192.58H453.488V198.66H457.248V199.748H454.032ZM403.647 221.748H402.303V210.58H406.367C407.402 210.58 408.191 210.863 408.735 211.428C409.279 211.993 409.551 212.783 409.551 213.796C409.551 214.703 409.317 215.428 408.847 215.972C408.378 216.516 407.695 216.831 406.799 216.916L409.647 221.748H408.143L405.423 216.98H403.647V221.748ZM406.335 215.844C406.901 215.844 407.338 215.705 407.647 215.428C407.967 215.14 408.127 214.735 408.127 214.212V213.38C408.127 212.857 407.967 212.457 407.647 212.18C407.338 211.892 406.901 211.748 406.335 211.748H403.647V215.844H406.335ZM415.401 221.94C414.804 221.94 414.265 221.839 413.785 221.636C413.316 221.433 412.91 221.145 412.569 220.772C412.238 220.388 411.982 219.935 411.801 219.412C411.62 218.879 411.529 218.287 411.529 217.636C411.529 216.975 411.62 216.377 411.801 215.844C411.993 215.311 412.254 214.857 412.585 214.484C412.916 214.1 413.31 213.807 413.769 213.604C414.238 213.401 414.756 213.3 415.321 213.3C415.876 213.3 416.377 213.401 416.825 213.604C417.284 213.807 417.673 214.089 417.993 214.452C418.313 214.804 418.558 215.225 418.729 215.716C418.9 216.207 418.985 216.745 418.985 217.332V217.94H412.873V218.324C412.873 218.687 412.932 219.023 413.049 219.332C413.166 219.641 413.332 219.908 413.545 220.132C413.769 220.356 414.036 220.532 414.345 220.66C414.665 220.777 415.017 220.836 415.401 220.836C415.956 220.836 416.436 220.708 416.841 220.452C417.246 220.196 417.556 219.844 417.769 219.396L418.713 220.036C418.468 220.591 418.057 221.049 417.481 221.412C416.916 221.764 416.222 221.94 415.401 221.94ZM415.321 214.356C414.969 214.356 414.644 214.42 414.345 214.548C414.046 214.676 413.785 214.852 413.561 215.076C413.348 215.3 413.177 215.567 413.049 215.876C412.932 216.175 412.873 216.505 412.873 216.868V216.98H417.609V216.804C417.609 216.441 417.55 216.111 417.433 215.812C417.326 215.513 417.172 215.257 416.969 215.044C416.777 214.82 416.537 214.649 416.249 214.532C415.972 214.415 415.662 214.356 415.321 214.356ZM424.035 221.748L421.075 213.492H422.371L423.555 216.948L424.835 220.676H424.899L426.179 216.948L427.363 213.492H428.627L425.667 221.748H424.035ZM434.957 211.668C434.583 211.668 434.322 211.593 434.173 211.444C434.023 211.284 433.949 211.087 433.949 210.852V210.596C433.949 210.361 434.023 210.169 434.173 210.02C434.322 209.86 434.583 209.78 434.957 209.78C435.33 209.78 435.591 209.86 435.741 210.02C435.89 210.169 435.965 210.361 435.965 210.596V210.852C435.965 211.087 435.89 211.284 435.741 211.444C435.591 211.593 435.33 211.668 434.957 211.668ZM431.341 220.66H434.317V214.58H431.341V213.492H435.597V220.66H438.381V221.748H431.341V220.66ZM444.182 221.94C443.585 221.94 443.046 221.839 442.566 221.636C442.097 221.433 441.692 221.145 441.35 220.772C441.02 220.388 440.764 219.935 440.582 219.412C440.401 218.879 440.31 218.287 440.31 217.636C440.31 216.975 440.401 216.377 440.582 215.844C440.774 215.311 441.036 214.857 441.366 214.484C441.697 214.1 442.092 213.807 442.55 213.604C443.02 213.401 443.537 213.3 444.102 213.3C444.657 213.3 445.158 213.401 445.606 213.604C446.065 213.807 446.454 214.089 446.774 214.452C447.094 214.804 447.34 215.225 447.51 215.716C447.681 216.207 447.766 216.745 447.766 217.332V217.94H441.654V218.324C441.654 218.687 441.713 219.023 441.83 219.332C441.948 219.641 442.113 219.908 442.326 220.132C442.55 220.356 442.817 220.532 443.126 220.66C443.446 220.777 443.798 220.836 444.182 220.836C444.737 220.836 445.217 220.708 445.622 220.452C446.028 220.196 446.337 219.844 446.55 219.396L447.494 220.036C447.249 220.591 446.838 221.049 446.262 221.412C445.697 221.764 445.004 221.94 444.182 221.94ZM444.102 214.356C443.75 214.356 443.425 214.42 443.126 214.548C442.828 214.676 442.566 214.852 442.342 215.076C442.129 215.3 441.958 215.567 441.83 215.876C441.713 216.175 441.654 216.505 441.654 216.868V216.98H446.39V216.804C446.39 216.441 446.332 216.111 446.214 215.812C446.108 215.513 445.953 215.257 445.75 215.044C445.558 214.82 445.318 214.649 445.03 214.532C444.753 214.415 444.444 214.356 444.102 214.356ZM449.312 213.492H450.448L451.392 220.628H451.536L452.944 213.492H454.352L455.76 220.628H455.904L456.848 213.492H457.952L456.688 221.748H455.024L453.712 214.836H453.584L452.24 221.748H450.576L449.312 213.492Z" fill="#0B0E29"/>
<path d="M445.199 133.702V132.63H447.983V123.606H445.199V122.534H452.111V123.606H449.327V132.63H452.111V133.702H445.199ZM455.017 133.702V125.446H456.297V126.79H456.361C456.447 126.587 456.553 126.395 456.681 126.214C456.809 126.022 456.964 125.857 457.145 125.718C457.337 125.579 457.561 125.467 457.817 125.382C458.073 125.297 458.372 125.254 458.713 125.254C459.577 125.254 460.271 125.531 460.793 126.086C461.316 126.63 461.577 127.403 461.577 128.406V133.702H460.297V128.63C460.297 127.873 460.132 127.313 459.801 126.95C459.471 126.577 458.985 126.39 458.345 126.39C458.089 126.39 457.839 126.422 457.593 126.486C457.348 126.55 457.129 126.646 456.937 126.774C456.745 126.902 456.591 127.067 456.473 127.27C456.356 127.473 456.297 127.707 456.297 127.974V133.702H455.017ZM467.027 133.702L464.067 125.446H465.363L466.547 128.902L467.827 132.63H467.891L469.171 128.902L470.355 125.446H471.619L468.659 133.702H467.027ZM477.437 133.894C476.861 133.894 476.338 133.793 475.869 133.59C475.41 133.387 475.015 133.099 474.685 132.726C474.365 132.342 474.119 131.889 473.949 131.366C473.778 130.833 473.693 130.235 473.693 129.574C473.693 128.923 473.778 128.331 473.949 127.798C474.119 127.265 474.365 126.811 474.685 126.438C475.015 126.054 475.41 125.761 475.869 125.558C476.338 125.355 476.861 125.254 477.437 125.254C478.013 125.254 478.53 125.355 478.989 125.558C479.458 125.761 479.853 126.054 480.173 126.438C480.503 126.811 480.754 127.265 480.925 127.798C481.095 128.331 481.181 128.923 481.181 129.574C481.181 130.235 481.095 130.833 480.925 131.366C480.754 131.889 480.503 132.342 480.173 132.726C479.853 133.099 479.458 133.387 478.989 133.59C478.53 133.793 478.013 133.894 477.437 133.894ZM477.437 132.79C478.151 132.79 478.727 132.577 479.165 132.15C479.602 131.723 479.821 131.062 479.821 130.166V128.982C479.821 128.086 479.602 127.425 479.165 126.998C478.727 126.571 478.151 126.358 477.437 126.358C476.722 126.358 476.146 126.571 475.709 126.998C475.271 127.425 475.053 128.086 475.053 128.982V130.166C475.053 131.062 475.271 131.723 475.709 132.15C476.146 132.577 476.722 132.79 477.437 132.79ZM487.542 123.622C487.169 123.622 486.908 123.547 486.758 123.398C486.609 123.238 486.534 123.041 486.534 122.806V122.55C486.534 122.315 486.609 122.123 486.758 121.974C486.908 121.814 487.169 121.734 487.542 121.734C487.916 121.734 488.177 121.814 488.326 121.974C488.476 122.123 488.55 122.315 488.55 122.55V122.806C488.55 123.041 488.476 123.238 488.326 123.398C488.177 123.547 487.916 123.622 487.542 123.622ZM483.926 132.614H486.902V126.534H483.926V125.446H488.182V132.614H490.966V133.702H483.926V132.614ZM496.912 133.894C496.315 133.894 495.782 133.793 495.312 133.59C494.854 133.377 494.464 133.083 494.144 132.71C493.824 132.337 493.579 131.883 493.408 131.35C493.248 130.817 493.168 130.225 493.168 129.574C493.168 128.923 493.254 128.331 493.424 127.798C493.595 127.265 493.84 126.811 494.16 126.438C494.48 126.054 494.87 125.761 495.328 125.558C495.787 125.355 496.31 125.254 496.896 125.254C497.696 125.254 498.347 125.43 498.848 125.782C499.35 126.134 499.718 126.593 499.952 127.158L498.928 127.702C498.779 127.275 498.528 126.945 498.176 126.71C497.835 126.475 497.408 126.358 496.896 126.358C496.523 126.358 496.187 126.422 495.888 126.55C495.6 126.667 495.355 126.838 495.152 127.062C494.95 127.286 494.795 127.553 494.688 127.862C494.592 128.171 494.544 128.507 494.544 128.87V130.278C494.544 130.641 494.592 130.977 494.688 131.286C494.795 131.595 494.95 131.862 495.152 132.086C495.355 132.31 495.606 132.486 495.904 132.614C496.203 132.731 496.544 132.79 496.928 132.79C497.483 132.79 497.942 132.662 498.304 132.406C498.667 132.15 498.955 131.798 499.168 131.35L500.08 131.974C499.835 132.529 499.451 132.987 498.928 133.35C498.416 133.713 497.744 133.894 496.912 133.894ZM506.362 133.894C505.765 133.894 505.226 133.793 504.746 133.59C504.277 133.387 503.871 133.099 503.53 132.726C503.199 132.342 502.943 131.889 502.762 131.366C502.581 130.833 502.49 130.241 502.49 129.59C502.49 128.929 502.581 128.331 502.762 127.798C502.954 127.265 503.215 126.811 503.546 126.438C503.877 126.054 504.271 125.761 504.73 125.558C505.199 125.355 505.717 125.254 506.282 125.254C506.837 125.254 507.338 125.355 507.786 125.558C508.245 125.761 508.634 126.043 508.954 126.406C509.274 126.758 509.519 127.179 509.69 127.67C509.861 128.161 509.946 128.699 509.946 129.286V129.894H503.834V130.278C503.834 130.641 503.893 130.977 504.01 131.286C504.127 131.595 504.293 131.862 504.506 132.086C504.73 132.31 504.997 132.486 505.306 132.614C505.626 132.731 505.978 132.79 506.362 132.79C506.917 132.79 507.397 132.662 507.802 132.406C508.207 132.15 508.517 131.798 508.73 131.35L509.674 131.99C509.429 132.545 509.018 133.003 508.442 133.366C507.877 133.718 507.183 133.894 506.362 133.894ZM506.282 126.31C505.93 126.31 505.605 126.374 505.306 126.502C505.007 126.63 504.746 126.806 504.522 127.03C504.309 127.254 504.138 127.521 504.01 127.83C503.893 128.129 503.834 128.459 503.834 128.822V128.934H508.57V128.758C508.57 128.395 508.511 128.065 508.394 127.766C508.287 127.467 508.133 127.211 507.93 126.998C507.738 126.774 507.498 126.603 507.21 126.486C506.933 126.369 506.623 126.31 506.282 126.31Z" fill="#0B0E29"/>
<path d="M636.655 133.702V122.534H640.719C641.754 122.534 642.543 122.817 643.087 123.382C643.631 123.947 643.903 124.737 643.903 125.75C643.903 126.763 643.631 127.553 643.087 128.118C642.543 128.683 641.754 128.966 640.719 128.966H637.999V133.702H636.655ZM637.999 127.798H640.687C641.252 127.798 641.69 127.659 641.999 127.382C642.319 127.094 642.479 126.689 642.479 126.166V125.334C642.479 124.811 642.319 124.411 641.999 124.134C641.69 123.846 641.252 123.702 640.687 123.702H637.999V127.798ZM652.729 133.702C652.227 133.702 651.87 133.574 651.657 133.318C651.443 133.062 651.31 132.742 651.257 132.358H651.177C650.995 132.838 650.702 133.217 650.297 133.494C649.902 133.761 649.369 133.894 648.697 133.894C647.833 133.894 647.145 133.67 646.633 133.222C646.121 132.774 645.865 132.161 645.865 131.382C645.865 130.614 646.142 130.022 646.697 129.606C647.262 129.19 648.169 128.982 649.417 128.982H651.177V128.166C651.177 127.558 651.006 127.105 650.665 126.806C650.323 126.497 649.838 126.342 649.209 126.342C648.654 126.342 648.201 126.454 647.849 126.678C647.497 126.891 647.214 127.185 647.001 127.558L646.137 126.918C646.243 126.705 646.387 126.497 646.569 126.294C646.75 126.091 646.974 125.915 647.241 125.766C647.507 125.606 647.811 125.483 648.153 125.398C648.494 125.302 648.873 125.254 649.289 125.254C650.259 125.254 651.027 125.499 651.593 125.99C652.169 126.481 652.457 127.163 652.457 128.038V132.582H653.609V133.702H652.729ZM648.921 132.822C649.251 132.822 649.55 132.785 649.817 132.71C650.094 132.625 650.334 132.518 650.537 132.39C650.739 132.251 650.894 132.091 651.001 131.91C651.118 131.718 651.177 131.515 651.177 131.302V129.942H649.417C648.649 129.942 648.089 130.049 647.737 130.262C647.385 130.475 647.209 130.785 647.209 131.19V131.526C647.209 131.953 647.358 132.278 647.657 132.502C647.966 132.715 648.387 132.822 648.921 132.822ZM661.874 125.446H663.154L659.058 135.51C658.962 135.745 658.856 135.947 658.738 136.118C658.621 136.299 658.482 136.443 658.322 136.55C658.162 136.667 657.97 136.753 657.746 136.806C657.522 136.87 657.256 136.902 656.946 136.902H655.73V135.814H657.65L658.578 133.542L655.25 125.446H656.562L657.954 128.902L659.186 132.038H659.25L660.482 128.902L661.874 125.446ZM664.86 133.702V125.446H666.044V126.406H666.108C666.236 126.086 666.417 125.814 666.652 125.59C666.887 125.366 667.233 125.254 667.692 125.254C668.172 125.254 668.529 125.377 668.764 125.622C668.999 125.857 669.143 126.166 669.196 126.55H669.244C669.393 126.177 669.607 125.867 669.884 125.622C670.161 125.377 670.545 125.254 671.036 125.254C671.708 125.254 672.156 125.489 672.38 125.958C672.615 126.427 672.732 127.099 672.732 127.974V133.702H671.548V128.182C671.548 127.478 671.473 126.993 671.324 126.726C671.185 126.449 670.924 126.31 670.54 126.31C670.199 126.31 669.921 126.422 669.708 126.646C669.495 126.859 669.388 127.19 669.388 127.638V133.702H668.204V128.182C668.204 127.478 668.129 126.993 667.98 126.726C667.841 126.449 667.585 126.31 667.212 126.31C666.871 126.31 666.588 126.422 666.364 126.646C666.151 126.859 666.044 127.19 666.044 127.638V133.702H664.86ZM678.534 133.894C677.937 133.894 677.398 133.793 676.918 133.59C676.449 133.387 676.043 133.099 675.702 132.726C675.371 132.342 675.115 131.889 674.934 131.366C674.753 130.833 674.662 130.241 674.662 129.59C674.662 128.929 674.753 128.331 674.934 127.798C675.126 127.265 675.387 126.811 675.718 126.438C676.049 126.054 676.443 125.761 676.902 125.558C677.371 125.355 677.889 125.254 678.454 125.254C679.009 125.254 679.51 125.355 679.958 125.558C680.417 125.761 680.806 126.043 681.126 126.406C681.446 126.758 681.691 127.179 681.862 127.67C682.033 128.161 682.118 128.699 682.118 129.286V129.894H676.006V130.278C676.006 130.641 676.065 130.977 676.182 131.286C676.299 131.595 676.465 131.862 676.678 132.086C676.902 132.31 677.169 132.486 677.478 132.614C677.798 132.731 678.15 132.79 678.534 132.79C679.089 132.79 679.569 132.662 679.974 132.406C680.379 132.15 680.689 131.798 680.902 131.35L681.846 131.99C681.601 132.545 681.19 133.003 680.614 133.366C680.049 133.718 679.355 133.894 678.534 133.894ZM678.454 126.31C678.102 126.31 677.777 126.374 677.478 126.502C677.179 126.63 676.918 126.806 676.694 127.03C676.481 127.254 676.31 127.521 676.182 127.83C676.065 128.129 676.006 128.459 676.006 128.822V128.934H680.742V128.758C680.742 128.395 680.683 128.065 680.566 127.766C680.459 127.467 680.305 127.211 680.102 126.998C679.91 126.774 679.67 126.603 679.382 126.486C679.105 126.369 678.795 126.31 678.454 126.31ZM684.752 133.702V125.446H686.032V126.79H686.096C686.181 126.587 686.288 126.395 686.416 126.214C686.544 126.022 686.698 125.857 686.88 125.718C687.072 125.579 687.296 125.467 687.552 125.382C687.808 125.297 688.106 125.254 688.448 125.254C689.312 125.254 690.005 125.531 690.528 126.086C691.05 126.63 691.312 127.403 691.312 128.406V133.702H690.032V128.63C690.032 127.873 689.866 127.313 689.536 126.95C689.205 126.577 688.72 126.39 688.08 126.39C687.824 126.39 687.573 126.422 687.328 126.486C687.082 126.55 686.864 126.646 686.672 126.774C686.48 126.902 686.325 127.067 686.208 127.27C686.09 127.473 686.032 127.707 686.032 127.974V133.702H684.752ZM697.977 133.702C697.348 133.702 696.884 133.526 696.585 133.174C696.297 132.822 696.153 132.369 696.153 131.814V126.534H693.401V125.446H695.449C695.727 125.446 695.919 125.393 696.025 125.286C696.143 125.169 696.201 124.971 696.201 124.694V122.534H697.433V125.446H701.193V126.534H697.433V132.614H701.193V133.702H697.977Z" fill="#0B0E29"/>
<line x1="646.613" y1="69.3691" x2="646.613" y2="105.694" stroke="#0B0E29"/>
<line x1="455.254" y1="69.3691" x2="455.254" y2="105.694" stroke="#0B0E29"/>
<line x1="413.461" y1="69.2061" x2="413.461" y2="173.779" stroke="#0B0E29"/>
<line x1="23.0469" y1="69.2061" x2="23.0469" y2="173.779" stroke="#0B0E29"/>
<line x1="85.7305" y1="69.2061" x2="85.7305" y2="105.531" stroke="#0B0E29"/>
<line x1="129.723" y1="69.2061" x2="129.723" y2="105.531" stroke="#0B0E29"/>
<line x1="192.41" y1="69.2061" x2="192.41" y2="105.531" stroke="#0B0E29"/>
</svg>
