<svg width="24" height="25" viewBox="0 0 24 25" fill="none" xmlns="http://www.w3.org/2000/svg">
<g clip-path="url(#clip0_4705_114342)">
<path d="M3 6.27393C3 5.85971 3.33579 5.52393 3.75 5.52393H20.25C20.6642 5.52393 21 5.85971 21 6.27393C21 6.68814 20.6642 7.02393 20.25 7.02393H3.75C3.33579 7.02393 3 6.68814 3 6.27393Z" fill="#0B0E29"/>
<path d="M3 12.2739C3 11.8597 3.33579 11.5239 3.75 11.5239H20.25C20.6642 11.5239 21 11.8597 21 12.2739C21 12.6881 20.6642 13.0239 20.25 13.0239H3.75C3.33579 13.0239 3 12.6881 3 12.2739Z" fill="#0B0E29"/>
<path d="M3.75 17.5239C3.33579 17.5239 3 17.8597 3 18.2739C3 18.6881 3.33579 19.0239 3.75 19.0239H20.25C20.6642 19.0239 21 18.6881 21 18.2739C21 17.8597 20.6642 17.5239 20.25 17.5239H3.75Z" fill="#0B0E29"/>
</g>
<defs>
<clipPath id="clip0_4705_114342">
<rect width="24" height="24" fill="white" transform="translate(0 0.273926)"/>
</clipPath>
</defs>
</svg>
