<svg width="24" height="24" viewBox="0 0 24 24" fill="none" xmlns="http://www.w3.org/2000/svg">
<path fill-rule="evenodd" clip-rule="evenodd" d="M7.90909 4.36244C6.10161 4.36244 4.63636 5.82769 4.63636 7.63517V15.817C4.63636 17.6245 6.10161 19.0897 7.90909 19.0897H16.0909C17.8984 19.0897 19.3636 17.6245 19.3636 15.817V7.63517C19.3636 5.82769 17.8984 4.36244 16.0909 4.36244H7.90909ZM3 7.63517C3 4.92395 5.19787 2.72607 7.90909 2.72607H16.0909C18.8021 2.72607 21 4.92395 21 7.63517V15.817C21 18.5282 18.8021 20.7261 16.0909 20.7261H7.90909C5.19787 20.7261 3 18.5282 3 15.817V7.63517ZM15.6818 7.22607C15.6818 6.7742 16.0481 6.40789 16.5 6.40789H16.5082C16.9601 6.40789 17.3264 6.7742 17.3264 7.22607C17.3264 7.67794 16.9601 8.04426 16.5082 8.04426H16.5C16.0481 8.04426 15.6818 7.67794 15.6818 7.22607ZM12.3954 9.26268C11.8847 9.18695 11.3632 9.27418 10.9049 9.51196C10.4466 9.74975 10.075 10.126 9.84291 10.5871C9.6108 11.0483 9.53001 11.5709 9.61203 12.0806C9.69405 12.5904 9.93471 13.0612 10.2998 13.4263C10.6648 13.7914 11.1357 14.032 11.6454 14.114C12.1552 14.1961 12.6778 14.1153 13.1389 13.8832C13.6001 13.651 13.9763 13.2794 14.2141 12.8212C14.4519 12.3629 14.5391 11.8413 14.4634 11.3306C14.3861 10.8097 14.1434 10.3274 13.771 9.95505C13.3986 9.58267 12.9164 9.33993 12.3954 9.26268ZM10.1512 8.05949C10.915 7.66318 11.7843 7.5178 12.6355 7.64402C13.5037 7.77276 14.3075 8.17733 14.9281 8.79796C15.5487 9.4186 15.9533 10.2224 16.0821 11.0906C16.2083 11.9418 16.0629 12.8111 15.6666 13.5748C15.2703 14.3386 14.6432 14.958 13.8746 15.3448C13.106 15.7317 12.235 15.8663 11.3855 15.7296C10.5359 15.5929 9.75113 15.1918 9.14269 14.5834C8.53425 13.9749 8.13315 13.1901 7.99645 12.3406C7.85974 11.4911 7.9944 10.62 8.38126 9.85144C8.76811 9.08284 9.38748 8.4558 10.1512 8.05949Z" fill="#CCF7FF"/>
</svg>
