<svg width="24" height="25" viewBox="0 0 24 25" fill="none" xmlns="http://www.w3.org/2000/svg">
<path d="M20.0476 8.2933C20.0602 8.46969 20.0602 8.64612 20.0602 8.82251C20.0602 14.2027 15.9652 20.4019 8.48079 20.4019C6.17499 20.4019 4.03301 19.7341 2.2312 18.5749C2.55881 18.6127 2.87378 18.6253 3.214 18.6253C5.11656 18.6253 6.86799 17.9827 8.26659 16.8865C6.47739 16.8487 4.97799 15.6769 4.46138 14.0641C4.7134 14.1019 4.96538 14.1271 5.23001 14.1271C5.59539 14.1271 5.96082 14.0767 6.301 13.9885C4.43621 13.6105 3.03757 11.9725 3.03757 9.99431V9.94393C3.57934 10.2463 4.2094 10.4353 4.87715 10.4605C3.78095 9.72968 3.06278 8.4823 3.06278 7.07109C3.06278 6.31511 3.26434 5.62211 3.61716 5.01731C5.62056 7.4869 8.63198 9.09967 12.0087 9.2761C11.9457 8.9737 11.9079 8.65873 11.9079 8.34372C11.9079 6.1009 13.7223 4.27393 15.9777 4.27393C17.1495 4.27393 18.2079 4.76532 18.9513 5.55912C19.8711 5.38273 20.7531 5.04252 21.5343 4.57633C21.2319 5.52135 20.5893 6.31515 19.7451 6.81911C20.5641 6.73095 21.3579 6.5041 22.0887 6.18914C21.5344 6.9955 20.8414 7.71367 20.0476 8.2933V8.2933Z" fill="#00D0F6"/>
</svg>
