<svg width="24" height="25" viewBox="0 0 24 25" fill="none" xmlns="http://www.w3.org/2000/svg">
<path fill-rule="evenodd" clip-rule="evenodd" d="M7.90909 4.63636C6.10161 4.63636 4.63636 6.10161 4.63636 7.90909V16.0909C4.63636 17.8984 6.10161 19.3636 7.90909 19.3636H16.0909C17.8984 19.3636 19.3636 17.8984 19.3636 16.0909V7.90909C19.3636 6.10161 17.8984 4.63636 16.0909 4.63636H7.90909ZM3 7.90909C3 5.19787 5.19787 3 7.90909 3H16.0909C18.8021 3 21 5.19787 21 7.90909V16.0909C21 18.8021 18.8021 21 16.0909 21H7.90909C5.19787 21 3 18.8021 3 16.0909V7.90909ZM15.6818 7.5C15.6818 7.04813 16.0481 6.68182 16.5 6.68182H16.5082C16.9601 6.68182 17.3264 7.04813 17.3264 7.5C17.3264 7.95187 16.9601 8.31818 16.5082 8.31818H16.5C16.0481 8.31818 15.6818 7.95187 15.6818 7.5ZM12.3954 9.5366C11.8847 9.46087 11.3632 9.54811 10.9049 9.78589C10.4466 10.0237 10.075 10.3999 9.84291 10.8611C9.6108 11.3222 9.53001 11.8448 9.61203 12.3546C9.69405 12.8643 9.93471 13.3352 10.2998 13.7002C10.6648 14.0653 11.1357 14.306 11.6454 14.388C12.1552 14.47 12.6778 14.3892 13.1389 14.1571C13.6001 13.925 13.9763 13.5534 14.2141 13.0951C14.4519 12.6368 14.5391 12.1153 14.4634 11.6046C14.3861 11.0836 14.1434 10.6014 13.771 10.229C13.3986 9.85659 12.9164 9.61385 12.3954 9.5366ZM10.1512 8.33341C10.915 7.93711 11.7843 7.79172 12.6355 7.91794C13.5037 8.04669 14.3075 8.45126 14.9281 9.07189C15.5487 9.69253 15.9533 10.4963 16.0821 11.3645C16.2083 12.2157 16.0629 13.085 15.6666 13.8488C15.2703 14.6125 14.6432 15.2319 13.8746 15.6187C13.106 16.0056 12.235 16.1403 11.3855 16.0036C10.5359 15.8669 9.75113 15.4658 9.14269 14.8573C8.53425 14.2489 8.13315 13.4641 7.99645 12.6145C7.85974 11.765 7.9944 10.894 8.38126 10.1254C8.76811 9.35677 9.38748 8.72972 10.1512 8.33341Z" fill="#00D0F6"/>
</svg>
