<svg width="24" height="25" viewBox="0 0 24 25" fill="none" xmlns="http://www.w3.org/2000/svg">
<path d="M19.7143 3.27393H4.2817C3.57455 3.27393 3 3.85652 3 4.57169V19.9762C3 20.6913 3.57455 21.2739 4.2817 21.2739H19.7143C20.4214 21.2739 21 20.6913 21 19.9762V4.57169C21 3.85652 20.4214 3.27393 19.7143 3.27393ZM8.44018 18.7025H5.77232V10.1123H8.4442V18.7025H8.44018ZM7.10625 8.9391C6.25045 8.9391 5.55937 8.24402 5.55937 7.39223C5.55937 6.54044 6.25045 5.84535 7.10625 5.84535C7.95804 5.84535 8.65312 6.54044 8.65312 7.39223C8.65312 8.24803 7.96205 8.9391 7.10625 8.9391V8.9391ZM18.4406 18.7025H15.7728V14.5239C15.7728 13.5275 15.7527 12.2458 14.3866 12.2458C12.9964 12.2458 12.7835 13.3306 12.7835 14.4516V18.7025H10.1156V10.1123H12.675V11.2855H12.7112C13.0687 10.6105 13.9406 9.89937 15.2384 9.89937C17.9384 9.89937 18.4406 11.6793 18.4406 13.9936V18.7025V18.7025Z" fill="#00D0F6"/>
</svg>
