<svg width="24" height="24" viewBox="0 0 24 24" fill="none" xmlns="http://www.w3.org/2000/svg">
<path d="M19.7143 3H4.2817C3.57455 3 3 3.58259 3 4.29777V19.7022C3 20.4174 3.57455 21 4.2817 21H19.7143C20.4214 21 21 20.4174 21 19.7022V4.29777C21 3.58259 20.4214 3 19.7143 3ZM8.44018 18.4286H5.77232V9.83839H8.4442V18.4286H8.44018ZM7.10625 8.66518C6.25045 8.66518 5.55937 7.97009 5.55937 7.1183C5.55937 6.26652 6.25045 5.57143 7.10625 5.57143C7.95804 5.57143 8.65312 6.26652 8.65312 7.1183C8.65312 7.97411 7.96205 8.66518 7.10625 8.66518V8.66518ZM18.4406 18.4286H15.7728V14.25C15.7728 13.2536 15.7527 11.9719 14.3866 11.9719C12.9964 11.9719 12.7835 13.0567 12.7835 14.1777V18.4286H10.1156V9.83839H12.675V11.0116H12.7112C13.0687 10.3366 13.9406 9.62545 15.2384 9.62545C17.9384 9.62545 18.4406 11.4054 18.4406 13.7196V18.4286V18.4286Z" fill="#CCF7FF"/>
</svg>
