<svg width="24" height="24" viewBox="0 0 24 24" fill="none" xmlns="http://www.w3.org/2000/svg">
<path d="M20.0476 8.01938C20.0602 8.19577 20.0602 8.3722 20.0602 8.54859C20.0602 13.9288 15.9653 20.128 8.48085 20.128C6.17505 20.128 4.03307 19.4601 2.23126 18.301C2.55887 18.3388 2.87384 18.3514 3.21406 18.3514C5.11662 18.3514 6.86805 17.7088 8.26665 16.6126C6.47745 16.5748 4.97805 15.403 4.46144 13.7902C4.71346 13.828 4.96544 13.8532 5.23007 13.8532C5.59545 13.8532 5.96088 13.8027 6.30106 13.7146C4.43627 13.3366 3.03763 11.6986 3.03763 9.72038V9.67C3.57941 9.9724 4.20946 10.1614 4.87721 10.1866C3.78101 9.45575 3.06284 8.20837 3.06284 6.79717C3.06284 6.04118 3.2644 5.34818 3.61722 4.74338C5.62063 7.21297 8.63204 8.82574 12.0088 9.00217C11.9458 8.69977 11.908 8.3848 11.908 8.0698C11.908 5.82698 13.7224 4 15.9778 4C17.1496 4 18.208 4.4914 18.9514 5.2852C19.8712 5.10881 20.7532 4.76859 21.5344 4.3024C21.2319 5.24742 20.5894 6.04122 19.7452 6.54518C20.5642 6.45703 21.358 6.23018 22.0888 5.91521C21.5345 6.72157 20.8414 7.43974 20.0476 8.01938V8.01938Z" fill="#CCF7FF"/>
</svg>
