<svg width="553" height="446" viewBox="0 0 553 446" fill="none" xmlns="http://www.w3.org/2000/svg">
<g clip-path="url(#clip0_7774_337698)">
<rect width="553" height="446" fill="white"/>
<path d="M439.544 371.655C437.348 367.272 421.341 353.491 414.893 349.687C408.463 345.9 404.949 337.432 399.976 311.152C395.004 284.889 385.358 262.991 385.358 262.991C386.816 246.353 381.844 223.877 380.965 219.494C380.087 215.111 383.601 195.265 377.75 178.627C371.899 161.989 353.609 153.819 341.327 148.56C329.046 143.3 312.512 132.658 312.512 132.658V116.02C315.288 112.672 316.571 107.184 317.994 103.362C318.328 105.01 322.264 102.924 323.546 100.96C324.829 98.9966 326.656 88.4774 325.444 83.2353C324.231 77.9757 322.369 80.2724 322.369 80.2724C322.369 80.2724 323.458 68.0175 319.523 58.1645C315.569 48.3115 304.992 43.2974 300.213 42.6136C297.402 42.2104 295.03 42 293.695 42H292.324C290.971 42 288.968 42 285.806 42.6136C281.062 43.5428 270.449 48.3115 266.496 58.1645C262.543 68.0175 263.65 80.2724 263.65 80.2724C263.65 80.2724 261.787 77.9757 260.575 83.2353C259.362 88.4949 261.19 98.9966 262.472 100.96C263.755 102.924 267.708 105.01 268.025 103.362C269.448 107.202 270.73 112.672 273.506 116.02V132.658C273.506 132.658 256.973 143.318 244.691 148.56C232.41 153.819 214.119 161.989 208.269 178.627C202.418 195.265 205.932 215.111 205.053 219.494C204.175 223.877 199.202 246.353 200.661 262.991C200.661 262.991 191.015 284.889 186.042 311.152C181.07 337.415 177.556 345.883 171.125 349.687C164.695 353.474 148.671 367.272 146.474 371.655C144.278 376.038 150.199 376.914 154.153 374.495C158.106 372.075 164.027 366.833 164.677 369.025C165.327 371.216 158.967 389.379 157.438 395.954C155.91 402.528 155.91 404.93 160.724 404.93C162.92 404.93 169.07 385.452 169.07 385.452C169.07 385.452 166.979 404.387 167.98 408.77C168.964 413.153 173.357 412.048 174.13 406.035C174.903 400.021 176.976 387.433 176.976 387.433C176.976 387.433 177.187 406.263 178.294 409.769C179.401 413.276 182.897 414.363 183.231 407.034C183.565 399.706 184.443 385.575 184.443 385.575C184.443 385.575 185.656 403.528 187.624 407.139C189.592 410.751 192.666 407.245 191.682 402.318C190.698 397.392 190.804 387.872 193.65 382.402C196.497 376.932 201.557 361.17 198.693 351.317C197.814 347.162 197.814 343.218 206.371 326.58C214.928 309.942 222.606 298.914 225.54 275.281C226.419 265.937 241.037 229.75 241.336 212.814C240.756 241.129 241.634 262.728 244.85 279.366C248.065 296.004 237.101 340.044 236.662 364.502C236.223 388.976 240.176 450.268 247.186 477.846C247.626 484.421 248.504 505.862 248.504 517.696C247.239 531.336 248.75 581.495 250.841 605.286C252.036 622.608 252.721 652.868 252.721 660.091C252.721 667.315 249.137 680.06 238.12 683.391C218.565 689.3 221.165 698.136 226.05 699.223C230.934 700.31 233.534 703.027 249.945 701.59C254.829 701.151 260.153 697.066 266.18 694.892C272.224 692.719 272.997 695.436 275.896 692.719C278.795 690.001 276.283 680.253 274.982 671.961C272.241 654.621 281.501 607.881 281.501 607.881C284.312 595.749 291.287 577.165 283.152 528.934C279.709 508.545 287.826 498.867 284.031 485.437C282.274 468.221 286.368 448.655 287.246 435.822C288.125 422.971 292.219 393.201 289.882 384.155C291.059 383.734 292.096 383.471 292.992 383.296C293.905 383.471 294.924 383.734 296.102 384.155C293.765 393.201 297.859 422.971 298.737 435.822C299.616 448.673 303.709 468.221 301.952 485.437C298.157 498.867 306.696 508.615 302.831 528.934C294.538 572.466 301.109 592.874 303.955 610.406C303.955 610.406 313.76 654.604 311.019 671.943C309.718 680.236 307.206 690.001 310.105 692.701C313.004 695.418 313.777 692.701 319.821 694.875C325.865 697.049 331.189 701.151 336.056 701.572C352.467 703.01 355.067 700.292 359.951 699.205C364.836 698.118 367.436 689.282 347.881 683.374C336.864 680.043 332.735 667.841 332.735 660.617C332.735 653.394 333.983 622.59 335.16 605.269C337.251 581.495 338.762 531.319 337.497 517.679C337.497 505.862 338.375 484.403 338.815 477.829C345.843 450.251 349.778 388.941 349.339 364.484C348.9 340.009 337.936 295.986 341.151 279.349C344.367 262.711 345.245 241.111 344.665 212.797C344.964 229.733 359.582 265.919 360.461 275.264C363.378 298.914 371.073 309.924 379.63 326.562C388.187 343.2 388.187 347.145 387.308 351.3C384.462 361.153 389.504 376.914 392.351 382.384C395.197 387.854 395.32 397.374 394.319 402.301C393.335 407.227 396.409 410.733 398.377 407.122C400.345 403.51 401.557 385.558 401.557 385.558C401.557 385.558 402.436 399.671 402.77 407.017C403.104 414.345 406.618 413.258 407.707 409.752C408.796 406.245 409.025 387.416 409.025 387.416C409.025 387.416 411.116 400.004 411.871 406.017C412.627 412.031 417.019 413.135 418.021 408.752C419.005 404.369 416.931 385.435 416.931 385.435C416.931 385.435 423.081 404.913 425.277 404.913C430.109 404.913 430.109 402.511 428.563 395.936C427.034 389.362 420.656 371.199 421.324 369.007C421.974 366.816 427.913 372.075 431.848 374.477C435.784 376.879 441.723 376.003 439.527 371.637L439.544 371.655Z" fill="#F6F5F4"/>
<path fill-rule="evenodd" clip-rule="evenodd" d="M317.291 70.7476C317.39 70.8565 317.437 71.0038 317.418 71.1503L311.178 118.99C311.16 119.126 311.088 119.248 310.978 119.329C310.868 119.409 310.73 119.442 310.595 119.418L275.235 113.178C275.025 113.141 274.862 112.974 274.828 112.764L268.588 73.2436C268.566 73.1029 268.605 72.9594 268.695 72.8491C268.785 72.7389 268.918 72.6723 269.06 72.6661L316.9 70.5861C317.048 70.5797 317.191 70.6388 317.291 70.7476ZM269.663 73.6408L275.76 112.255L310.254 118.342L316.349 71.611L269.663 73.6408Z" fill="#0B0E29"/>
<path d="M298 91.4997C298 92.8804 296.881 93.9997 295.5 93.9997C294.119 93.9997 293 92.8804 293 91.4997C293 90.119 294.119 88.9997 295.5 88.9997C296.881 88.9997 298 90.119 298 91.4997Z" fill="#0B0E29"/>
<path fill-rule="evenodd" clip-rule="evenodd" d="M314.874 72.4277C314.583 72.0007 314.413 71.4848 314.413 70.9294C314.413 69.4566 315.607 68.2627 317.08 68.2627C318.553 68.2627 319.747 69.4566 319.747 70.9294C319.747 72.4021 318.553 73.596 317.08 73.596C316.524 73.596 316.008 73.4259 315.581 73.135L296.739 91.9686L309.88 116.374C310.133 116.294 310.403 116.251 310.682 116.251C312.155 116.251 313.349 117.445 313.349 118.918C313.349 120.391 312.155 121.585 310.682 121.585C309.209 121.585 308.016 120.391 308.016 118.918C308.016 118.083 308.399 117.338 309 116.849L296.001 92.7068L277.528 111.179C277.819 111.606 277.989 112.122 277.989 112.678C277.989 114.151 276.795 115.345 275.322 115.345C273.849 115.345 272.656 114.151 272.656 112.678C272.656 111.205 273.849 110.011 275.322 110.011C275.878 110.011 276.394 110.181 276.821 110.472L295.345 91.9481L270.951 75.0601C270.47 75.533 269.81 75.8247 269.082 75.8247C267.609 75.8247 266.416 74.6308 266.416 73.158C266.416 71.6853 267.609 70.4914 269.082 70.4914C270.555 70.4914 271.749 71.6853 271.749 73.158C271.749 73.5425 271.667 73.9081 271.521 74.2383L296.064 91.2295L314.874 72.4277Z" fill="#0B0E29"/>
<path fill-rule="evenodd" clip-rule="evenodd" d="M243.391 41.4531H245.937V42.4531H244.391V44.0175H243.391V41.4531ZM250.029 41.4531H254.121V42.4531H250.029V41.4531ZM258.214 41.4531H262.306V42.4531H258.214V41.4531ZM266.398 41.4531H270.491V42.4531H266.398V41.4531ZM274.583 41.4531H278.675V42.4531H274.583V41.4531ZM282.768 41.4531H286.86V42.4531H282.768V41.4531ZM290.952 41.4531H295.044V42.4531H290.952V41.4531ZM299.137 41.4531H303.229V42.4531H299.137V41.4531ZM307.321 41.4531H311.414V42.4531H307.321V41.4531ZM315.506 41.4531H319.598V42.4531H315.506V41.4531ZM323.691 41.4531H327.783V42.4531H323.691V41.4531ZM331.875 41.4531H335.968V42.4531H331.875V41.4531ZM340.06 41.4531H342.606V44.0176H341.606V42.4531H340.06V41.4531ZM243.391 52.2752V48.1464H244.391V52.2752H243.391ZM342.606 48.1464V52.2753H341.606V48.1464H342.606ZM243.391 60.5329V56.4041H244.391V60.5329H243.391ZM342.606 56.4041V60.5329H341.606V56.4041H342.606ZM243.391 68.7906V64.6618H244.391V68.7906H243.391ZM342.606 64.6618V68.7906H341.606V64.6618H342.606ZM243.391 77.0483V72.9195H244.391V77.0483H243.391ZM342.606 72.9195V77.0483H341.606V72.9195H342.606ZM243.391 85.306V81.1772H244.391V85.306H243.391ZM342.606 81.1772V85.306H341.606V81.1772H342.606ZM243.391 93.5637V89.4348H244.391V93.5637H243.391ZM342.606 89.4349V93.5637H341.606V89.4349H342.606ZM243.391 101.821V97.6925H244.391V101.821H243.391ZM342.606 97.6926V101.821H341.606V97.6926H342.606ZM243.391 110.079V105.95H244.391V110.079H243.391ZM342.606 105.95V110.079H341.606V105.95H342.606ZM243.391 118.337V114.208H244.391V118.337H243.391ZM342.606 114.208V118.337H341.606V114.208H342.606ZM243.391 126.594V122.466H244.391V126.594H243.391ZM342.606 122.466V126.594H341.606V122.466H342.606ZM243.391 134.852V130.723H244.391V134.852H243.391ZM342.606 130.723V134.852H341.606V130.723H342.606ZM243.391 138.981H244.391V140.545H245.937V141.545H243.391V138.981ZM342.606 138.981V141.545H340.06V140.545H341.606V138.981H342.606ZM254.121 141.545H250.029V140.545H254.121V141.545ZM262.306 141.545H258.214V140.545H262.306V141.545ZM270.491 141.545H266.398V140.545H270.491V141.545ZM278.675 141.545H274.583V140.545H278.675V141.545ZM286.86 141.545H282.768V140.545H286.86V141.545ZM295.044 141.545H290.952V140.545H295.044V141.545ZM303.229 141.545H299.137V140.545H303.229V141.545ZM311.414 141.545H307.321V140.545H311.414V141.545ZM319.598 141.545H315.506V140.545H319.598V141.545ZM327.783 141.545H323.691V140.545H327.783V141.545ZM335.968 141.545H331.875V140.545H335.968V141.545Z" fill="#0B0E29"/>
<path fill-rule="evenodd" clip-rule="evenodd" d="M242.891 40.9531H266.291V42.9531H244.891V64.5531H242.891V40.9531Z" fill="#0B0E29"/>
<path fill-rule="evenodd" clip-rule="evenodd" d="M242.891 142.047H266.291V140.047H244.891V118.447H242.891V142.047Z" fill="#0B0E29"/>
<path fill-rule="evenodd" clip-rule="evenodd" d="M343.105 40.9531H319.705V42.9531H341.105V64.5531H343.105V40.9531Z" fill="#0B0E29"/>
<path fill-rule="evenodd" clip-rule="evenodd" d="M343.105 142.047H319.705V140.047H341.105V118.447H343.105V142.047Z" fill="#0B0E29"/>
<path fill-rule="evenodd" clip-rule="evenodd" d="M127.254 323.312H129.764V324.312H128.254V325.841H127.254V323.312ZM133.785 323.312H137.805V324.312H133.785V323.312ZM141.826 323.312H145.846V324.312H141.826V323.312ZM149.867 323.312H153.887V324.312H149.867V323.312ZM157.908 323.312H161.928V324.312H157.908V323.312ZM165.949 323.312H169.969V324.312H165.949V323.312ZM173.99 323.312H178.01V324.312H173.99V323.312ZM182.031 323.312H186.051V324.312H182.031V323.312ZM190.072 323.312H194.092V324.312H190.072V323.312ZM198.113 323.312H202.133V324.312H198.113V323.312ZM206.154 323.312H210.174V324.312H206.154V323.312ZM214.195 323.312H218.215V324.312H214.195V323.312ZM222.236 323.312H224.746V325.841H223.746V324.312H222.236V323.312ZM127.254 333.955V329.898H128.254V333.955H127.254ZM224.746 329.898V333.955H223.746V329.898H224.746ZM127.254 342.069V338.012H128.254V342.069H127.254ZM224.746 338.012V342.069H223.746V338.012H224.746ZM127.254 350.183V346.126H128.254V350.183H127.254ZM224.746 346.126V350.183H223.746V346.126H224.746ZM224.746 354.24V358.297H223.746V354.24H224.746ZM127.254 358.297V354.24H128.254V358.297H127.254ZM224.746 362.354V366.411H223.746V362.354H224.746ZM127.254 366.411V362.354H128.254V366.411H127.254ZM224.746 370.468V374.525H223.746V370.468H224.746ZM127.254 374.526V370.468H128.254V374.526H127.254ZM224.746 378.583V382.64H223.746V378.583H224.746ZM127.254 382.64V378.583H128.254V382.64H127.254ZM224.746 386.697V390.754H223.746V386.697H224.746ZM127.254 390.754V386.697H128.254V390.754H127.254ZM224.746 394.811V398.868H223.746V394.811H224.746ZM127.254 398.868V394.811H128.254V398.868H127.254ZM127.254 406.982V402.925H128.254V406.982H127.254ZM224.746 402.925V406.982H223.746V402.925H224.746ZM127.254 415.096V411.039H128.254V415.096H127.254ZM224.746 411.039V415.096H223.746V411.039H224.746ZM127.254 419.153H128.254V420.681H129.764V421.681H127.254V419.153ZM224.746 419.153V421.681H222.236V420.681H223.746V419.153H224.746ZM137.805 421.681H133.785V420.681H137.805V421.681ZM145.846 421.681H141.826V420.681H145.846V421.681ZM153.887 421.681H149.867V420.681H153.887V421.681ZM161.928 421.681H157.908V420.681H161.928V421.681ZM169.969 421.681H165.949V420.681H169.969V421.681ZM178.01 421.681H173.99V420.681H178.01V421.681ZM186.051 421.681H182.031V420.681H186.051V421.681ZM194.092 421.681H190.072V420.681H194.092V421.681ZM202.133 421.681H198.113V420.681H202.133V421.681ZM210.174 421.681H206.154V420.681H210.174V421.681ZM218.215 421.681H214.195V420.681H218.215V421.681Z" fill="#0B0E29"/>
<path fill-rule="evenodd" clip-rule="evenodd" d="M126.754 322.812H149.761V324.812H128.754V346.019H126.754V322.812Z" fill="#0B0E29"/>
<path fill-rule="evenodd" clip-rule="evenodd" d="M126.754 422.188H149.761V420.188H128.754V398.981H126.754V422.188Z" fill="#0B0E29"/>
<path fill-rule="evenodd" clip-rule="evenodd" d="M225.242 322.812H202.235V324.812H223.242V346.019H225.242V322.812Z" fill="#0B0E29"/>
<path fill-rule="evenodd" clip-rule="evenodd" d="M225.242 422.188H202.235V420.188H223.242V398.981H225.242V422.188Z" fill="#0B0E29"/>
<path d="M162.769 400.711C162.769 402.092 161.65 403.211 160.269 403.211C158.889 403.211 157.77 402.092 157.77 400.711C157.77 399.33 158.889 398.211 160.269 398.211C161.65 398.211 162.769 399.33 162.769 400.711Z" fill="#0B0E29"/>
<path d="M182.999 409.5C182.999 410.881 181.88 412 180.5 412C179.119 412 178 410.881 178 409.5C178 408.119 179.119 407 180.5 407C181.88 407 182.999 408.119 182.999 409.5Z" fill="#0B0E29"/>
<path d="M191.999 406.5C191.999 407.881 190.88 409 189.5 409C188.119 409 187 407.881 187 406.5C187 405.119 188.119 404 189.5 404C190.88 404 191.999 405.119 191.999 406.5Z" fill="#0B0E29"/>
<path d="M172.999 408.5C172.999 409.881 171.88 411 170.5 411C169.119 411 168 409.881 168 408.5C168 407.119 169.119 406 170.5 406C171.88 406 172.999 407.119 172.999 408.5Z" fill="#0B0E29"/>
<path d="M151.999 372.5C151.999 373.881 150.88 375 149.5 375C148.119 375 147 373.881 147 372.5C147 371.119 148.119 370 149.5 370C150.88 370 151.999 371.119 151.999 372.5Z" fill="#0B0E29"/>
<path fill-rule="evenodd" clip-rule="evenodd" d="M295.5 170.5H298V171.5H296.5V173.031H295.5V170.5ZM302 170.5H306V171.5H302V170.5ZM310 170.5H314V171.5H310V170.5ZM318 170.5H322V171.5H318V170.5ZM326 170.5H330V171.5H326V170.5ZM334 170.5H338V171.5H334V170.5ZM342 170.5H346V171.5H342V170.5ZM350 170.5H354V171.5H350V170.5ZM358 170.5H360.5V173.031H359.5V171.5H358V170.5ZM295.5 181.156V177.094H296.5V181.156H295.5ZM360.5 177.094V181.156H359.5V177.094H360.5ZM295.5 189.281V185.219H296.5V189.281H295.5ZM360.5 185.219V189.281H359.5V185.219H360.5ZM295.5 197.406V193.344H296.5V197.406H295.5ZM360.5 193.344V197.406H359.5V193.344H360.5ZM295.5 205.531V201.469H296.5V205.531H295.5ZM360.5 201.469V205.531H359.5V201.469H360.5ZM295.5 213.656V209.594H296.5V213.656H295.5ZM360.5 209.594V213.656H359.5V209.594H360.5ZM295.5 221.781V217.719H296.5V221.781H295.5ZM360.5 217.719V221.781H359.5V217.719H360.5ZM295.5 229.906V225.844H296.5V229.906H295.5ZM360.5 225.844V229.906H359.5V225.844H360.5ZM295.5 233.969H296.5V235.5H298V236.5H295.5V233.969ZM360.5 233.969V236.5H358V235.5H359.5V233.969H360.5ZM306 236.5H302V235.5H306V236.5ZM314 236.5H310V235.5H314V236.5ZM322 236.5H318V235.5H322V236.5ZM330 236.5H326V235.5H330V236.5ZM338 236.5H334V235.5H338V236.5ZM346 236.5H342V235.5H346V236.5ZM354 236.5H350V235.5H354V236.5Z" fill="#0B0E29"/>
<path fill-rule="evenodd" clip-rule="evenodd" d="M295 170H311V172H297V186H295V170Z" fill="#0B0E29"/>
<path fill-rule="evenodd" clip-rule="evenodd" d="M295 237H311V235H297V221H295V237Z" fill="#0B0E29"/>
<path fill-rule="evenodd" clip-rule="evenodd" d="M361 170H345V172H359V186H361V170Z" fill="#0B0E29"/>
<path fill-rule="evenodd" clip-rule="evenodd" d="M361 237H345V235H359V221H361V237Z" fill="#0B0E29"/>
<path d="M333 202.5C333 203.881 331.881 205 330.5 205C329.119 205 328 203.881 328 202.5C328 201.119 329.119 200 330.5 200C331.881 200 333 201.119 333 202.5Z" fill="#0B0E29"/>
<path fill-rule="evenodd" clip-rule="evenodd" d="M378.961 324.023H381.653V325.023H379.961V326.771H378.961V324.023ZM386.038 324.023H390.422V325.023H386.038V324.023ZM394.807 324.023H399.192V325.023H394.807V324.023ZM403.576 324.023H407.961V325.023H403.576V324.023ZM412.346 324.023H415.038V326.771H414.038V325.023H412.346V324.023ZM378.961 335.759V331.265H379.961V335.759H378.961ZM415.038 331.265V335.759H414.038V331.265H415.038ZM378.961 344.747V340.253H379.961V344.747H378.961ZM415.038 340.253V344.747H414.038V340.253H415.038ZM378.961 353.736V349.242H379.961V353.736H378.961ZM415.038 349.242V353.736H414.038V349.242H415.038ZM378.961 358.23H379.961V359.977H381.653V360.977H378.961V358.23ZM415.038 358.23V360.977H412.346V359.977H414.038V358.23H415.038ZM390.422 360.977H386.038V359.977H390.422V360.977ZM399.192 360.977H394.807V359.977H399.192V360.977ZM407.961 360.977H403.576V359.977H407.961V360.977Z" fill="#0B0E29"/>
<path fill-rule="evenodd" clip-rule="evenodd" d="M378.461 323.523H387.461V325.523H380.461V332.723H378.461V323.523Z" fill="#0B0E29"/>
<path fill-rule="evenodd" clip-rule="evenodd" d="M378.461 361.477H387.461V359.477H380.461V352.277H378.461V361.477Z" fill="#0B0E29"/>
<path fill-rule="evenodd" clip-rule="evenodd" d="M415.539 323.523H406.539V325.523H413.539V332.723H415.539V323.523Z" fill="#0B0E29"/>
<path fill-rule="evenodd" clip-rule="evenodd" d="M415.539 361.477H406.539V359.477H413.539V352.277H415.539V361.477Z" fill="#0B0E29"/>
<path d="M400 343.5C400 344.881 398.881 346 397.5 346C396.119 346 395 344.881 395 343.5C395 342.119 396.119 341 397.5 341C398.881 341 400 342.119 400 343.5Z" fill="#0B0E29"/>
<path fill-rule="evenodd" clip-rule="evenodd" d="M369.293 202L371.146 200.146L371.854 200.853L370 202.707L369.293 202ZM374.146 197.146L377.146 194.146L377.854 194.853L374.854 197.853L374.146 197.146ZM380.146 191.146L383.146 188.146L383.854 188.853L380.854 191.853L380.146 191.146ZM386.146 185.146L389.146 182.146L389.854 182.853L386.854 185.853L386.146 185.146ZM392.146 179.146L395.146 176.146L395.854 176.853L392.854 179.853L392.146 179.146ZM398.146 173.146L399.646 171.646L400.354 172.353L398.854 173.853L398.146 173.146Z" fill="#0B0E29"/>
<path d="M413.232 171.196H409.968V175H408.96V166.624H409.968V170.32H413.232V166.624H414.24V175H413.232V171.196Z" fill="black"/>
<path d="M418.903 175.144C418.455 175.144 418.051 175.068 417.691 174.916C417.339 174.764 417.035 174.548 416.779 174.268C416.531 173.98 416.339 173.64 416.203 173.248C416.067 172.848 415.999 172.404 415.999 171.916C415.999 171.42 416.067 170.972 416.203 170.572C416.347 170.172 416.543 169.832 416.791 169.552C417.039 169.264 417.335 169.044 417.679 168.892C418.031 168.74 418.419 168.664 418.843 168.664C419.259 168.664 419.635 168.74 419.971 168.892C420.315 169.044 420.607 169.256 420.847 169.528C421.087 169.792 421.271 170.108 421.399 170.476C421.527 170.844 421.591 171.248 421.591 171.688V172.144H417.007V172.432C417.007 172.704 417.051 172.956 417.139 173.188C417.227 173.42 417.351 173.62 417.511 173.788C417.679 173.956 417.879 174.088 418.111 174.184C418.351 174.272 418.615 174.316 418.903 174.316C419.319 174.316 419.679 174.22 419.983 174.028C420.287 173.836 420.519 173.572 420.679 173.236L421.387 173.716C421.203 174.132 420.895 174.476 420.463 174.748C420.039 175.012 419.519 175.144 418.903 175.144ZM418.843 169.456C418.579 169.456 418.335 169.504 418.111 169.6C417.887 169.696 417.691 169.828 417.523 169.996C417.363 170.164 417.235 170.364 417.139 170.596C417.051 170.82 417.007 171.068 417.007 171.34V171.424H420.559V171.292C420.559 171.02 420.515 170.772 420.427 170.548C420.347 170.324 420.231 170.132 420.079 169.972C419.935 169.804 419.755 169.676 419.539 169.588C419.331 169.5 419.099 169.456 418.843 169.456Z" fill="black"/>
<path d="M428.331 175C427.955 175 427.687 174.904 427.527 174.712C427.367 174.52 427.267 174.28 427.227 173.992H427.167C427.031 174.352 426.811 174.636 426.507 174.844C426.211 175.044 425.811 175.144 425.307 175.144C424.659 175.144 424.143 174.976 423.759 174.64C423.375 174.304 423.183 173.844 423.183 173.26C423.183 172.684 423.391 172.24 423.807 171.928C424.231 171.616 424.911 171.46 425.847 171.46H427.167V170.848C427.167 170.392 427.039 170.052 426.783 169.828C426.527 169.596 426.163 169.48 425.691 169.48C425.275 169.48 424.935 169.564 424.671 169.732C424.407 169.892 424.195 170.112 424.035 170.392L423.387 169.912C423.467 169.752 423.575 169.596 423.711 169.444C423.847 169.292 424.015 169.16 424.215 169.048C424.415 168.928 424.643 168.836 424.899 168.772C425.155 168.7 425.439 168.664 425.751 168.664C426.479 168.664 427.055 168.848 427.479 169.216C427.911 169.584 428.127 170.096 428.127 170.752V174.16H428.991V175H428.331ZM425.475 174.34C425.723 174.34 425.947 174.312 426.147 174.256C426.355 174.192 426.535 174.112 426.687 174.016C426.839 173.912 426.955 173.792 427.035 173.656C427.123 173.512 427.167 173.36 427.167 173.2V172.18H425.847C425.271 172.18 424.851 172.26 424.587 172.42C424.323 172.58 424.191 172.812 424.191 173.116V173.368C424.191 173.688 424.303 173.932 424.527 174.1C424.759 174.26 425.075 174.34 425.475 174.34Z" fill="black"/>
<path d="M430.51 174.184H432.322V169.624H430.51V168.808H433.282V170.368H433.342C433.47 169.88 433.71 169.5 434.062 169.228C434.422 168.948 434.878 168.808 435.43 168.808H436.294V169.768H435.13C434.578 169.768 434.13 169.928 433.786 170.248C433.45 170.568 433.282 170.988 433.282 171.508V174.184H435.682V175H430.51V174.184Z" fill="black"/>
<path d="M440.681 175C440.209 175 439.861 174.868 439.637 174.604C439.421 174.34 439.313 174 439.313 173.584V169.624H437.249V168.808H438.785C438.993 168.808 439.137 168.768 439.217 168.688C439.305 168.6 439.349 168.452 439.349 168.244V166.624H440.273V168.808H443.093V169.624H440.273V174.184H443.093V175H440.681Z" fill="black"/>
<path d="M452.096 174.184H453.908V169.624H452.096V168.808H454.868V170.368H454.928C455.056 169.88 455.296 169.5 455.648 169.228C456.008 168.948 456.464 168.808 457.016 168.808H457.88V169.768H456.716C456.164 169.768 455.716 169.928 455.372 170.248C455.036 170.568 454.868 170.988 454.868 171.508V174.184H457.268V175H452.096V174.184Z" fill="black"/>
<path d="M464.307 175C463.931 175 463.663 174.904 463.503 174.712C463.343 174.52 463.243 174.28 463.203 173.992H463.143C463.007 174.352 462.787 174.636 462.483 174.844C462.187 175.044 461.787 175.144 461.283 175.144C460.635 175.144 460.119 174.976 459.735 174.64C459.351 174.304 459.159 173.844 459.159 173.26C459.159 172.684 459.367 172.24 459.783 171.928C460.207 171.616 460.887 171.46 461.823 171.46H463.143V170.848C463.143 170.392 463.015 170.052 462.759 169.828C462.503 169.596 462.139 169.48 461.667 169.48C461.251 169.48 460.911 169.564 460.647 169.732C460.383 169.892 460.171 170.112 460.011 170.392L459.363 169.912C459.443 169.752 459.551 169.596 459.687 169.444C459.823 169.292 459.991 169.16 460.191 169.048C460.391 168.928 460.619 168.836 460.875 168.772C461.131 168.7 461.415 168.664 461.727 168.664C462.455 168.664 463.031 168.848 463.455 169.216C463.887 169.584 464.103 170.096 464.103 170.752V174.16H464.967V175H464.307ZM461.451 174.34C461.699 174.34 461.923 174.312 462.123 174.256C462.331 174.192 462.511 174.112 462.663 174.016C462.815 173.912 462.931 173.792 463.011 173.656C463.099 173.512 463.143 173.36 463.143 173.2V172.18H461.823C461.247 172.18 460.827 172.26 460.563 172.42C460.299 172.58 460.167 172.812 460.167 173.116V173.368C460.167 173.688 460.279 173.932 460.503 174.1C460.735 174.26 461.051 174.34 461.451 174.34Z" fill="black"/>
<path d="M469.462 175C468.99 175 468.642 174.868 468.418 174.604C468.202 174.34 468.094 174 468.094 173.584V169.624H466.03V168.808H467.566C467.774 168.808 467.918 168.768 467.998 168.688C468.086 168.6 468.13 168.452 468.13 168.244V166.624H469.054V168.808H471.874V169.624H469.054V174.184H471.874V175H469.462Z" fill="black"/>
<path d="M476.466 175.144C476.018 175.144 475.614 175.068 475.254 174.916C474.902 174.764 474.598 174.548 474.342 174.268C474.094 173.98 473.902 173.64 473.766 173.248C473.63 172.848 473.562 172.404 473.562 171.916C473.562 171.42 473.63 170.972 473.766 170.572C473.91 170.172 474.106 169.832 474.354 169.552C474.602 169.264 474.898 169.044 475.242 168.892C475.594 168.74 475.982 168.664 476.406 168.664C476.822 168.664 477.198 168.74 477.534 168.892C477.878 169.044 478.17 169.256 478.41 169.528C478.65 169.792 478.834 170.108 478.962 170.476C479.09 170.844 479.154 171.248 479.154 171.688V172.144H474.57V172.432C474.57 172.704 474.614 172.956 474.702 173.188C474.79 173.42 474.914 173.62 475.074 173.788C475.242 173.956 475.442 174.088 475.674 174.184C475.914 174.272 476.178 174.316 476.466 174.316C476.882 174.316 477.242 174.22 477.546 174.028C477.85 173.836 478.082 173.572 478.242 173.236L478.95 173.716C478.766 174.132 478.458 174.476 478.026 174.748C477.602 175.012 477.082 175.144 476.466 175.144ZM476.406 169.456C476.142 169.456 475.898 169.504 475.674 169.6C475.45 169.696 475.254 169.828 475.086 169.996C474.926 170.164 474.798 170.364 474.702 170.596C474.614 170.82 474.57 171.068 474.57 171.34V171.424H478.122V171.292C478.122 171.02 478.078 170.772 477.99 170.548C477.91 170.324 477.794 170.132 477.642 169.972C477.498 169.804 477.318 169.676 477.102 169.588C476.894 169.5 476.662 169.456 476.406 169.456Z" fill="black"/>
<path fill-rule="evenodd" clip-rule="evenodd" d="M233.707 92.0001L231.854 93.8536L231.146 93.1465L233 91.293L233.707 92.0001ZM228.854 96.8536L225.854 99.8536L225.146 99.1465L228.146 96.1465L228.854 96.8536ZM222.854 102.854L219.854 105.854L219.146 105.147L222.146 102.147L222.854 102.854ZM216.854 108.854L213.854 111.854L213.146 111.147L216.146 108.147L216.854 108.854ZM210.854 114.854L207.854 117.854L207.146 117.147L210.146 114.147L210.854 114.854ZM204.854 120.854L203.354 122.354L202.646 121.647L204.146 120.147L204.854 120.854Z" fill="#0B0E29"/>
<path d="M66.0801 127V118.624H71.3601V119.5H67.0881V122.32H71.0001V123.196H67.0881V127H66.0801Z" fill="black"/>
<path d="M78.1354 127C77.7594 127 77.4914 126.904 77.3314 126.712C77.1714 126.52 77.0714 126.28 77.0314 125.992H76.9714C76.8354 126.352 76.6154 126.636 76.3114 126.844C76.0154 127.044 75.6154 127.144 75.1114 127.144C74.4634 127.144 73.9474 126.976 73.5634 126.64C73.1794 126.304 72.9874 125.844 72.9874 125.26C72.9874 124.684 73.1954 124.24 73.6114 123.928C74.0354 123.616 74.7154 123.46 75.6514 123.46H76.9714V122.848C76.9714 122.392 76.8434 122.052 76.5874 121.828C76.3314 121.596 75.9674 121.48 75.4954 121.48C75.0794 121.48 74.7394 121.564 74.4754 121.732C74.2114 121.892 73.9994 122.112 73.8394 122.392L73.1914 121.912C73.2714 121.752 73.3794 121.596 73.5154 121.444C73.6514 121.292 73.8194 121.16 74.0194 121.048C74.2194 120.928 74.4474 120.836 74.7034 120.772C74.9594 120.7 75.2434 120.664 75.5554 120.664C76.2834 120.664 76.8594 120.848 77.2834 121.216C77.7154 121.584 77.9314 122.096 77.9314 122.752V126.16H78.7954V127H78.1354ZM75.2794 126.34C75.5274 126.34 75.7514 126.312 75.9514 126.256C76.1594 126.192 76.3394 126.112 76.4914 126.016C76.6434 125.912 76.7594 125.792 76.8394 125.656C76.9274 125.512 76.9714 125.36 76.9714 125.2V124.18H75.6514C75.0754 124.18 74.6554 124.26 74.3914 124.42C74.1274 124.58 73.9954 124.812 73.9954 125.116V125.368C73.9954 125.688 74.1074 125.932 74.3314 126.1C74.5634 126.26 74.8794 126.34 75.2794 126.34Z" fill="black"/>
<path d="M83.2067 127.144C82.7587 127.144 82.3587 127.068 82.0067 126.916C81.6627 126.756 81.3707 126.536 81.1307 126.256C80.8907 125.976 80.7067 125.636 80.5787 125.236C80.4587 124.836 80.3987 124.392 80.3987 123.904C80.3987 123.416 80.4627 122.972 80.5907 122.572C80.7187 122.172 80.9027 121.832 81.1427 121.552C81.3827 121.264 81.6747 121.044 82.0187 120.892C82.3627 120.74 82.7547 120.664 83.1947 120.664C83.7947 120.664 84.2827 120.796 84.6587 121.06C85.0347 121.324 85.3107 121.668 85.4867 122.092L84.7187 122.5C84.6067 122.18 84.4187 121.932 84.1547 121.756C83.8987 121.58 83.5787 121.492 83.1947 121.492C82.9147 121.492 82.6627 121.54 82.4387 121.636C82.2227 121.724 82.0387 121.852 81.8867 122.02C81.7347 122.188 81.6187 122.388 81.5387 122.62C81.4667 122.852 81.4307 123.104 81.4307 123.376V124.432C81.4307 124.704 81.4667 124.956 81.5387 125.188C81.6187 125.42 81.7347 125.62 81.8867 125.788C82.0387 125.956 82.2267 126.088 82.4507 126.184C82.6747 126.272 82.9307 126.316 83.2187 126.316C83.6347 126.316 83.9787 126.22 84.2507 126.028C84.5227 125.836 84.7387 125.572 84.8987 125.236L85.5827 125.704C85.3987 126.12 85.1107 126.464 84.7187 126.736C84.3347 127.008 83.8307 127.144 83.2067 127.144Z" fill="black"/>
<path d="M90.57 119.44C90.29 119.44 90.094 119.384 89.982 119.272C89.87 119.152 89.814 119.004 89.814 118.828V118.636C89.814 118.46 89.87 118.316 89.982 118.204C90.094 118.084 90.29 118.024 90.57 118.024C90.85 118.024 91.046 118.084 91.158 118.204C91.27 118.316 91.326 118.46 91.326 118.636V118.828C91.326 119.004 91.27 119.152 91.158 119.272C91.046 119.384 90.85 119.44 90.57 119.44ZM87.858 126.184H90.09V121.624H87.858V120.808H91.05V126.184H93.138V127H87.858V126.184Z" fill="black"/>
<path d="M99.7213 127C99.3453 127 99.0773 126.904 98.9173 126.712C98.7573 126.52 98.6573 126.28 98.6173 125.992H98.5573C98.4213 126.352 98.2013 126.636 97.8973 126.844C97.6013 127.044 97.2013 127.144 96.6973 127.144C96.0493 127.144 95.5333 126.976 95.1493 126.64C94.7653 126.304 94.5733 125.844 94.5733 125.26C94.5733 124.684 94.7813 124.24 95.1973 123.928C95.6213 123.616 96.3013 123.46 97.2373 123.46H98.5573V122.848C98.5573 122.392 98.4293 122.052 98.1733 121.828C97.9173 121.596 97.5533 121.48 97.0813 121.48C96.6653 121.48 96.3253 121.564 96.0613 121.732C95.7973 121.892 95.5853 122.112 95.4253 122.392L94.7773 121.912C94.8573 121.752 94.9653 121.596 95.1013 121.444C95.2373 121.292 95.4053 121.16 95.6053 121.048C95.8053 120.928 96.0333 120.836 96.2893 120.772C96.5453 120.7 96.8293 120.664 97.1413 120.664C97.8693 120.664 98.4453 120.848 98.8693 121.216C99.3013 121.584 99.5173 122.096 99.5173 122.752V126.16H100.381V127H99.7213ZM96.8653 126.34C97.1133 126.34 97.3373 126.312 97.5373 126.256C97.7453 126.192 97.9253 126.112 98.0773 126.016C98.2293 125.912 98.3453 125.792 98.4253 125.656C98.5133 125.512 98.5573 125.36 98.5573 125.2V124.18H97.2373C96.6613 124.18 96.2413 124.26 95.9773 124.42C95.7133 124.58 95.5813 124.812 95.5813 125.116V125.368C95.5813 125.688 95.6933 125.932 95.9173 126.1C96.1493 126.26 96.4653 126.34 96.8653 126.34Z" fill="black"/>
<path d="M101.937 126.184H104.097V118.936H101.937V118.12H105.057V126.184H107.217V127H101.937V126.184Z" fill="black"/>
<path d="M116.291 126.184H118.103V121.624H116.291V120.808H119.063V122.368H119.123C119.251 121.88 119.491 121.5 119.843 121.228C120.203 120.948 120.659 120.808 121.211 120.808H122.075V121.768H120.911C120.359 121.768 119.911 121.928 119.567 122.248C119.231 122.568 119.063 122.988 119.063 123.508V126.184H121.463V127H116.291V126.184Z" fill="black"/>
<path d="M126.271 127.144C125.823 127.144 125.419 127.068 125.059 126.916C124.707 126.764 124.403 126.548 124.147 126.268C123.899 125.98 123.707 125.64 123.571 125.248C123.435 124.848 123.367 124.404 123.367 123.916C123.367 123.42 123.435 122.972 123.571 122.572C123.715 122.172 123.911 121.832 124.159 121.552C124.407 121.264 124.703 121.044 125.047 120.892C125.399 120.74 125.787 120.664 126.211 120.664C126.627 120.664 127.003 120.74 127.339 120.892C127.683 121.044 127.975 121.256 128.215 121.528C128.455 121.792 128.639 122.108 128.767 122.476C128.895 122.844 128.959 123.248 128.959 123.688V124.144H124.375V124.432C124.375 124.704 124.419 124.956 124.507 125.188C124.595 125.42 124.719 125.62 124.879 125.788C125.047 125.956 125.247 126.088 125.479 126.184C125.719 126.272 125.983 126.316 126.271 126.316C126.687 126.316 127.047 126.22 127.351 126.028C127.655 125.836 127.887 125.572 128.047 125.236L128.755 125.716C128.571 126.132 128.263 126.476 127.831 126.748C127.407 127.012 126.887 127.144 126.271 127.144ZM126.211 121.456C125.947 121.456 125.703 121.504 125.479 121.6C125.255 121.696 125.059 121.828 124.891 121.996C124.731 122.164 124.603 122.364 124.507 122.596C124.419 122.82 124.375 123.068 124.375 123.34V123.424H127.927V123.292C127.927 123.02 127.883 122.772 127.795 122.548C127.715 122.324 127.599 122.132 127.447 121.972C127.303 121.804 127.123 121.676 126.907 121.588C126.699 121.5 126.467 121.456 126.211 121.456Z" fill="black"/>
<path d="M133.574 127.144C133.126 127.144 132.726 127.068 132.374 126.916C132.03 126.756 131.738 126.536 131.498 126.256C131.258 125.976 131.074 125.636 130.946 125.236C130.826 124.836 130.766 124.392 130.766 123.904C130.766 123.416 130.83 122.972 130.958 122.572C131.086 122.172 131.27 121.832 131.51 121.552C131.75 121.264 132.042 121.044 132.386 120.892C132.73 120.74 133.122 120.664 133.562 120.664C134.162 120.664 134.65 120.796 135.026 121.06C135.402 121.324 135.678 121.668 135.854 122.092L135.086 122.5C134.974 122.18 134.786 121.932 134.522 121.756C134.266 121.58 133.946 121.492 133.562 121.492C133.282 121.492 133.03 121.54 132.806 121.636C132.59 121.724 132.406 121.852 132.254 122.02C132.102 122.188 131.986 122.388 131.906 122.62C131.834 122.852 131.798 123.104 131.798 123.376V124.432C131.798 124.704 131.834 124.956 131.906 125.188C131.986 125.42 132.102 125.62 132.254 125.788C132.406 125.956 132.594 126.088 132.818 126.184C133.042 126.272 133.298 126.316 133.586 126.316C134.002 126.316 134.346 126.22 134.618 126.028C134.89 125.836 135.106 125.572 135.266 125.236L135.95 125.704C135.766 126.12 135.478 126.464 135.086 126.736C134.702 127.008 134.198 127.144 133.574 127.144Z" fill="black"/>
<path d="M140.553 127.144C140.121 127.144 139.729 127.068 139.377 126.916C139.033 126.764 138.737 126.548 138.489 126.268C138.249 125.98 138.065 125.64 137.937 125.248C137.809 124.848 137.745 124.4 137.745 123.904C137.745 123.416 137.809 122.972 137.937 122.572C138.065 122.172 138.249 121.832 138.489 121.552C138.737 121.264 139.033 121.044 139.377 120.892C139.729 120.74 140.121 120.664 140.553 120.664C140.985 120.664 141.373 120.74 141.717 120.892C142.069 121.044 142.365 121.264 142.605 121.552C142.853 121.832 143.041 122.172 143.169 122.572C143.297 122.972 143.361 123.416 143.361 123.904C143.361 124.4 143.297 124.848 143.169 125.248C143.041 125.64 142.853 125.98 142.605 126.268C142.365 126.548 142.069 126.764 141.717 126.916C141.373 127.068 140.985 127.144 140.553 127.144ZM140.553 126.316C141.089 126.316 141.521 126.156 141.849 125.836C142.177 125.516 142.341 125.02 142.341 124.348V123.46C142.341 122.788 142.177 122.292 141.849 121.972C141.521 121.652 141.089 121.492 140.553 121.492C140.017 121.492 139.585 121.652 139.257 121.972C138.929 122.292 138.765 122.788 138.765 123.46V124.348C138.765 125.02 138.929 125.516 139.257 125.836C139.585 126.156 140.017 126.316 140.553 126.316Z" fill="black"/>
<path d="M150.881 127.708C150.881 128.332 150.621 128.792 150.101 129.088C149.581 129.392 148.801 129.544 147.761 129.544C146.761 129.544 146.041 129.412 145.601 129.148C145.169 128.884 144.953 128.504 144.953 128.008C144.953 127.672 145.041 127.412 145.217 127.228C145.393 127.044 145.641 126.908 145.961 126.82V126.676C145.785 126.588 145.649 126.476 145.553 126.34C145.457 126.204 145.409 126.032 145.409 125.824C145.409 125.504 145.513 125.264 145.721 125.104C145.937 124.944 146.205 124.824 146.525 124.744V124.696C146.141 124.528 145.841 124.28 145.625 123.952C145.417 123.624 145.313 123.24 145.313 122.8C145.313 122.488 145.369 122.2 145.481 121.936C145.593 121.672 145.753 121.448 145.961 121.264C146.177 121.072 146.433 120.924 146.729 120.82C147.025 120.716 147.353 120.664 147.713 120.664C148.177 120.664 148.585 120.748 148.937 120.916V120.808C148.937 120.568 148.993 120.368 149.105 120.208C149.217 120.048 149.409 119.968 149.681 119.968H150.821V120.808H149.429V121.228C149.653 121.42 149.825 121.648 149.945 121.912C150.065 122.176 150.125 122.472 150.125 122.8C150.125 123.112 150.065 123.4 149.945 123.664C149.833 123.928 149.673 124.156 149.465 124.348C149.257 124.532 149.001 124.676 148.697 124.78C148.401 124.884 148.073 124.936 147.713 124.936C147.609 124.936 147.509 124.932 147.413 124.924C147.317 124.916 147.221 124.904 147.125 124.888C147.029 124.904 146.929 124.932 146.825 124.972C146.721 125.004 146.625 125.052 146.537 125.116C146.449 125.172 146.377 125.24 146.321 125.32C146.265 125.4 146.237 125.492 146.237 125.596C146.237 125.78 146.329 125.904 146.513 125.968C146.697 126.024 146.937 126.052 147.233 126.052H148.601C149.401 126.052 149.981 126.204 150.341 126.508C150.701 126.804 150.881 127.204 150.881 127.708ZM149.981 127.756C149.981 127.508 149.881 127.308 149.681 127.156C149.481 127.012 149.133 126.94 148.637 126.94H146.489C146.073 127.108 145.865 127.388 145.865 127.78C145.865 128.052 145.973 128.284 146.189 128.476C146.405 128.676 146.765 128.776 147.269 128.776H148.205C148.765 128.776 149.201 128.688 149.513 128.512C149.825 128.344 149.981 128.092 149.981 127.756ZM147.713 124.192C148.193 124.192 148.545 124.08 148.769 123.856C149.001 123.632 149.117 123.336 149.117 122.968V122.62C149.117 122.252 149.001 121.96 148.769 121.744C148.545 121.52 148.193 121.408 147.713 121.408C147.233 121.408 146.881 121.52 146.657 121.744C146.433 121.96 146.321 122.252 146.321 122.62V122.968C146.321 123.336 146.433 123.632 146.657 123.856C146.881 124.08 147.233 124.192 147.713 124.192Z" fill="black"/>
<path d="M152.52 127V120.808H153.48V121.816H153.528C153.592 121.664 153.672 121.52 153.768 121.384C153.864 121.24 153.98 121.116 154.116 121.012C154.26 120.908 154.428 120.824 154.62 120.76C154.812 120.696 155.036 120.664 155.292 120.664C155.94 120.664 156.46 120.872 156.852 121.288C157.244 121.696 157.44 122.276 157.44 123.028V127H156.48V123.196C156.48 122.628 156.356 122.208 156.108 121.936C155.86 121.656 155.496 121.516 155.016 121.516C154.824 121.516 154.636 121.54 154.452 121.588C154.268 121.636 154.104 121.708 153.96 121.804C153.816 121.9 153.7 122.024 153.612 122.176C153.524 122.328 153.48 122.504 153.48 122.704V127H152.52Z" fill="black"/>
<path d="M162.523 119.44C162.243 119.44 162.047 119.384 161.935 119.272C161.823 119.152 161.767 119.004 161.767 118.828V118.636C161.767 118.46 161.823 118.316 161.935 118.204C162.047 118.084 162.243 118.024 162.523 118.024C162.803 118.024 162.999 118.084 163.111 118.204C163.223 118.316 163.279 118.46 163.279 118.636V118.828C163.279 119.004 163.223 119.152 163.111 119.272C162.999 119.384 162.803 119.44 162.523 119.44ZM159.811 126.184H162.043V121.624H159.811V120.808H163.003V126.184H165.091V127H159.811V126.184Z" fill="black"/>
<path d="M169.634 127C169.162 127 168.814 126.868 168.59 126.604C168.374 126.34 168.266 126 168.266 125.584V121.624H166.202V120.808H167.738C167.946 120.808 168.09 120.768 168.17 120.688C168.258 120.6 168.302 120.452 168.302 120.244V118.624H169.226V120.808H172.046V121.624H169.226V126.184H172.046V127H169.634Z" fill="black"/>
<path d="M176.914 119.44C176.634 119.44 176.438 119.384 176.326 119.272C176.214 119.152 176.158 119.004 176.158 118.828V118.636C176.158 118.46 176.214 118.316 176.326 118.204C176.438 118.084 176.634 118.024 176.914 118.024C177.194 118.024 177.39 118.084 177.502 118.204C177.614 118.316 177.67 118.46 177.67 118.636V118.828C177.67 119.004 177.614 119.152 177.502 119.272C177.39 119.384 177.194 119.44 176.914 119.44ZM174.202 126.184H176.434V121.624H174.202V120.808H177.394V126.184H179.482V127H174.202V126.184Z" fill="black"/>
<path d="M183.725 127.144C183.293 127.144 182.901 127.068 182.549 126.916C182.205 126.764 181.909 126.548 181.661 126.268C181.421 125.98 181.237 125.64 181.109 125.248C180.981 124.848 180.917 124.4 180.917 123.904C180.917 123.416 180.981 122.972 181.109 122.572C181.237 122.172 181.421 121.832 181.661 121.552C181.909 121.264 182.205 121.044 182.549 120.892C182.901 120.74 183.293 120.664 183.725 120.664C184.157 120.664 184.545 120.74 184.889 120.892C185.241 121.044 185.537 121.264 185.777 121.552C186.025 121.832 186.213 122.172 186.341 122.572C186.469 122.972 186.533 123.416 186.533 123.904C186.533 124.4 186.469 124.848 186.341 125.248C186.213 125.64 186.025 125.98 185.777 126.268C185.537 126.548 185.241 126.764 184.889 126.916C184.545 127.068 184.157 127.144 183.725 127.144ZM183.725 126.316C184.261 126.316 184.693 126.156 185.021 125.836C185.349 125.516 185.513 125.02 185.513 124.348V123.46C185.513 122.788 185.349 122.292 185.021 121.972C184.693 121.652 184.261 121.492 183.725 121.492C183.189 121.492 182.757 121.652 182.429 121.972C182.101 122.292 181.937 122.788 181.937 123.46V124.348C181.937 125.02 182.101 125.516 182.429 125.836C182.757 126.156 183.189 126.316 183.725 126.316Z" fill="black"/>
<path d="M188.496 127V120.808H189.456V121.816H189.504C189.568 121.664 189.648 121.52 189.744 121.384C189.84 121.24 189.956 121.116 190.092 121.012C190.236 120.908 190.404 120.824 190.596 120.76C190.788 120.696 191.012 120.664 191.268 120.664C191.916 120.664 192.436 120.872 192.828 121.288C193.22 121.696 193.416 122.276 193.416 123.028V127H192.456V123.196C192.456 122.628 192.332 122.208 192.084 121.936C191.836 121.656 191.472 121.516 190.992 121.516C190.8 121.516 190.612 121.54 190.428 121.588C190.244 121.636 190.08 121.708 189.936 121.804C189.792 121.9 189.676 122.024 189.588 122.176C189.5 122.328 189.456 122.504 189.456 122.704V127H188.496Z" fill="black"/>
<path fill-rule="evenodd" clip-rule="evenodd" d="M171.207 313L169.354 311.146L168.646 311.853L170.5 313.707L171.207 313ZM166.354 308.146L163.354 305.146L162.646 305.853L165.646 308.853L166.354 308.146ZM160.354 302.146L157.354 299.146L156.646 299.853L159.646 302.853L160.354 302.146ZM154.354 296.146L151.354 293.146L150.646 293.853L153.646 296.853L154.354 296.146ZM148.354 290.146L145.354 287.146L144.646 287.853L147.646 290.853L148.354 290.146ZM142.354 284.146L140.854 282.646L140.146 283.353L141.646 284.853L142.354 284.146Z" fill="#0B0E29"/>
<path d="M3.08008 285V276.624H8.36008V277.5H4.08808V280.32H8.00008V281.196H4.08808V285H3.08008Z" fill="black"/>
<path d="M13.1794 277.44C12.8994 277.44 12.7034 277.384 12.5914 277.272C12.4794 277.152 12.4234 277.004 12.4234 276.828V276.636C12.4234 276.46 12.4794 276.316 12.5914 276.204C12.7034 276.084 12.8994 276.024 13.1794 276.024C13.4594 276.024 13.6554 276.084 13.7674 276.204C13.8794 276.316 13.9354 276.46 13.9354 276.636V276.828C13.9354 277.004 13.8794 277.152 13.7674 277.272C13.6554 277.384 13.4594 277.44 13.1794 277.44ZM10.4674 284.184H12.6994V279.624H10.4674V278.808H13.6594V284.184H15.7474V285H10.4674V284.184Z" fill="black"/>
<path d="M17.5667 285V278.808H18.5267V279.816H18.5747C18.6387 279.664 18.7187 279.52 18.8147 279.384C18.9107 279.24 19.0267 279.116 19.1627 279.012C19.3067 278.908 19.4747 278.824 19.6667 278.76C19.8587 278.696 20.0827 278.664 20.3387 278.664C20.9867 278.664 21.5067 278.872 21.8987 279.288C22.2907 279.696 22.4867 280.276 22.4867 281.028V285H21.5267V281.196C21.5267 280.628 21.4027 280.208 21.1547 279.936C20.9067 279.656 20.5427 279.516 20.0627 279.516C19.8707 279.516 19.6827 279.54 19.4987 279.588C19.3147 279.636 19.1507 279.708 19.0067 279.804C18.8627 279.9 18.7467 280.024 18.6587 280.176C18.5707 280.328 18.5267 280.504 18.5267 280.704V285H17.5667Z" fill="black"/>
<path d="M30.318 285.708C30.318 286.332 30.058 286.792 29.538 287.088C29.018 287.392 28.238 287.544 27.198 287.544C26.198 287.544 25.478 287.412 25.038 287.148C24.606 286.884 24.39 286.504 24.39 286.008C24.39 285.672 24.478 285.412 24.654 285.228C24.83 285.044 25.078 284.908 25.398 284.82V284.676C25.222 284.588 25.086 284.476 24.99 284.34C24.894 284.204 24.846 284.032 24.846 283.824C24.846 283.504 24.95 283.264 25.158 283.104C25.374 282.944 25.642 282.824 25.962 282.744V282.696C25.578 282.528 25.278 282.28 25.062 281.952C24.854 281.624 24.75 281.24 24.75 280.8C24.75 280.488 24.806 280.2 24.918 279.936C25.03 279.672 25.19 279.448 25.398 279.264C25.614 279.072 25.87 278.924 26.166 278.82C26.462 278.716 26.79 278.664 27.15 278.664C27.614 278.664 28.022 278.748 28.374 278.916V278.808C28.374 278.568 28.43 278.368 28.542 278.208C28.654 278.048 28.846 277.968 29.118 277.968H30.258V278.808H28.866V279.228C29.09 279.42 29.262 279.648 29.382 279.912C29.502 280.176 29.562 280.472 29.562 280.8C29.562 281.112 29.502 281.4 29.382 281.664C29.27 281.928 29.11 282.156 28.902 282.348C28.694 282.532 28.438 282.676 28.134 282.78C27.838 282.884 27.51 282.936 27.15 282.936C27.046 282.936 26.946 282.932 26.85 282.924C26.754 282.916 26.658 282.904 26.562 282.888C26.466 282.904 26.366 282.932 26.262 282.972C26.158 283.004 26.062 283.052 25.974 283.116C25.886 283.172 25.814 283.24 25.758 283.32C25.702 283.4 25.674 283.492 25.674 283.596C25.674 283.78 25.766 283.904 25.95 283.968C26.134 284.024 26.374 284.052 26.67 284.052H28.038C28.838 284.052 29.418 284.204 29.778 284.508C30.138 284.804 30.318 285.204 30.318 285.708ZM29.418 285.756C29.418 285.508 29.318 285.308 29.118 285.156C28.918 285.012 28.57 284.94 28.074 284.94H25.926C25.51 285.108 25.302 285.388 25.302 285.78C25.302 286.052 25.41 286.284 25.626 286.476C25.842 286.676 26.202 286.776 26.706 286.776H27.642C28.202 286.776 28.638 286.688 28.95 286.512C29.262 286.344 29.418 286.092 29.418 285.756ZM27.15 282.192C27.63 282.192 27.982 282.08 28.206 281.856C28.438 281.632 28.554 281.336 28.554 280.968V280.62C28.554 280.252 28.438 279.96 28.206 279.744C27.982 279.52 27.63 279.408 27.15 279.408C26.67 279.408 26.318 279.52 26.094 279.744C25.87 279.96 25.758 280.252 25.758 280.62V280.968C25.758 281.336 25.87 281.632 26.094 281.856C26.318 282.08 26.67 282.192 27.15 282.192Z" fill="black"/>
<path d="M34.4893 285.144C34.0413 285.144 33.6373 285.068 33.2773 284.916C32.9253 284.764 32.6213 284.548 32.3653 284.268C32.1173 283.98 31.9253 283.64 31.7893 283.248C31.6533 282.848 31.5853 282.404 31.5853 281.916C31.5853 281.42 31.6533 280.972 31.7893 280.572C31.9333 280.172 32.1293 279.832 32.3773 279.552C32.6253 279.264 32.9213 279.044 33.2653 278.892C33.6173 278.74 34.0053 278.664 34.4293 278.664C34.8453 278.664 35.2213 278.74 35.5573 278.892C35.9013 279.044 36.1933 279.256 36.4333 279.528C36.6733 279.792 36.8573 280.108 36.9853 280.476C37.1133 280.844 37.1773 281.248 37.1773 281.688V282.144H32.5933V282.432C32.5933 282.704 32.6373 282.956 32.7253 283.188C32.8133 283.42 32.9373 283.62 33.0973 283.788C33.2653 283.956 33.4653 284.088 33.6973 284.184C33.9373 284.272 34.2013 284.316 34.4893 284.316C34.9053 284.316 35.2653 284.22 35.5693 284.028C35.8733 283.836 36.1053 283.572 36.2653 283.236L36.9733 283.716C36.7893 284.132 36.4813 284.476 36.0493 284.748C35.6253 285.012 35.1053 285.144 34.4893 285.144ZM34.4293 279.456C34.1653 279.456 33.9213 279.504 33.6973 279.6C33.4733 279.696 33.2773 279.828 33.1093 279.996C32.9493 280.164 32.8213 280.364 32.7253 280.596C32.6373 280.82 32.5933 281.068 32.5933 281.34V281.424H36.1453V281.292C36.1453 281.02 36.1013 280.772 36.0133 280.548C35.9333 280.324 35.8173 280.132 35.6653 279.972C35.5213 279.804 35.3413 279.676 35.1253 279.588C34.9173 279.5 34.6853 279.456 34.4293 279.456Z" fill="black"/>
<path d="M38.9006 284.184H40.7126V279.624H38.9006V278.808H41.6726V280.368H41.7326C41.8606 279.88 42.1006 279.5 42.4526 279.228C42.8126 278.948 43.2686 278.808 43.8206 278.808H44.6846V279.768H43.5206C42.9686 279.768 42.5206 279.928 42.1766 280.248C41.8406 280.568 41.6726 280.988 41.6726 281.508V284.184H44.0726V285H38.9006V284.184Z" fill="black"/>
<path d="M46.312 278.808H47.2719V279.816H47.32C47.72 279.048 48.356 278.664 49.228 278.664C49.988 278.664 50.58 278.948 51.004 279.516C51.436 280.084 51.652 280.88 51.652 281.904C51.652 282.928 51.436 283.724 51.004 284.292C50.58 284.86 49.988 285.144 49.228 285.144C48.356 285.144 47.72 284.76 47.32 283.992H47.2719V287.4H46.312V278.808ZM48.856 284.292C49.416 284.292 49.848 284.124 50.152 283.788C50.464 283.444 50.62 282.992 50.62 282.432V281.376C50.62 280.816 50.464 280.368 50.152 280.032C49.848 279.688 49.416 279.516 48.856 279.516C48.64 279.516 48.4359 279.544 48.2439 279.6C48.0519 279.656 47.884 279.74 47.74 279.852C47.596 279.956 47.48 280.088 47.392 280.248C47.312 280.4 47.2719 280.58 47.2719 280.788V283.02C47.2719 283.228 47.312 283.412 47.392 283.572C47.48 283.724 47.596 283.856 47.74 283.968C47.884 284.072 48.0519 284.152 48.2439 284.208C48.4359 284.264 48.64 284.292 48.856 284.292Z" fill="black"/>
<path d="M53.2913 284.184H55.1033V279.624H53.2913V278.808H56.0633V280.368H56.1233C56.2513 279.88 56.4913 279.5 56.8433 279.228C57.2033 278.948 57.6593 278.808 58.2113 278.808H59.0753V279.768H57.9113C57.3593 279.768 56.9113 279.928 56.5673 280.248C56.2313 280.568 56.0633 280.988 56.0633 281.508V284.184H58.4633V285H53.2913V284.184Z" fill="black"/>
<path d="M63.5466 277.44C63.2666 277.44 63.0706 277.384 62.9586 277.272C62.8466 277.152 62.7906 277.004 62.7906 276.828V276.636C62.7906 276.46 62.8466 276.316 62.9586 276.204C63.0706 276.084 63.2666 276.024 63.5466 276.024C63.8266 276.024 64.0226 276.084 64.1346 276.204C64.2466 276.316 64.3026 276.46 64.3026 276.636V276.828C64.3026 277.004 64.2466 277.152 64.1346 277.272C64.0226 277.384 63.8266 277.44 63.5466 277.44ZM60.8346 284.184H63.0666V279.624H60.8346V278.808H64.0266V284.184H66.1146V285H60.8346V284.184Z" fill="black"/>
<path d="M67.9339 285V278.808H68.8939V279.816H68.9419C69.0059 279.664 69.0859 279.52 69.1819 279.384C69.2779 279.24 69.3939 279.116 69.5299 279.012C69.6739 278.908 69.8419 278.824 70.0339 278.76C70.2259 278.696 70.4499 278.664 70.7059 278.664C71.3539 278.664 71.8739 278.872 72.2659 279.288C72.6579 279.696 72.8539 280.276 72.8539 281.028V285H71.8939V281.196C71.8939 280.628 71.7699 280.208 71.5219 279.936C71.2739 279.656 70.9099 279.516 70.4299 279.516C70.2379 279.516 70.0499 279.54 69.8659 279.588C69.6819 279.636 69.5179 279.708 69.3739 279.804C69.2299 279.9 69.1139 280.024 69.0259 280.176C68.9379 280.328 68.8939 280.504 68.8939 280.704V285H67.9339Z" fill="black"/>
<path d="M77.8532 285C77.3812 285 77.0332 284.868 76.8092 284.604C76.5932 284.34 76.4852 284 76.4852 283.584V279.624H74.4212V278.808H75.9572C76.1652 278.808 76.3092 278.768 76.3892 278.688C76.4772 278.6 76.5212 278.452 76.5212 278.244V276.624H77.4452V278.808H80.2652V279.624H77.4452V284.184H80.2652V285H77.8532Z" fill="black"/>
<path d="M89.2678 284.184H91.0798V279.624H89.2678V278.808H92.0398V280.368H92.0998C92.2278 279.88 92.4678 279.5 92.8198 279.228C93.1798 278.948 93.6358 278.808 94.1878 278.808H95.0518V279.768H93.8878C93.3358 279.768 92.8878 279.928 92.5438 280.248C92.2078 280.568 92.0398 280.988 92.0398 281.508V284.184H94.4398V285H89.2678V284.184Z" fill="black"/>
<path d="M99.2471 285.144C98.7991 285.144 98.3951 285.068 98.0351 284.916C97.6831 284.764 97.3791 284.548 97.1231 284.268C96.8751 283.98 96.6831 283.64 96.5471 283.248C96.4111 282.848 96.3431 282.404 96.3431 281.916C96.3431 281.42 96.4111 280.972 96.5471 280.572C96.6911 280.172 96.8871 279.832 97.1351 279.552C97.3831 279.264 97.6791 279.044 98.0231 278.892C98.3751 278.74 98.7631 278.664 99.1871 278.664C99.6031 278.664 99.9791 278.74 100.315 278.892C100.659 279.044 100.951 279.256 101.191 279.528C101.431 279.792 101.615 280.108 101.743 280.476C101.871 280.844 101.935 281.248 101.935 281.688V282.144H97.3511V282.432C97.3511 282.704 97.3951 282.956 97.4831 283.188C97.5711 283.42 97.6951 283.62 97.8551 283.788C98.0231 283.956 98.2231 284.088 98.4551 284.184C98.6951 284.272 98.9591 284.316 99.2471 284.316C99.6631 284.316 100.023 284.22 100.327 284.028C100.631 283.836 100.863 283.572 101.023 283.236L101.731 283.716C101.547 284.132 101.239 284.476 100.807 284.748C100.383 285.012 99.8631 285.144 99.2471 285.144ZM99.1871 279.456C98.9231 279.456 98.6791 279.504 98.4551 279.6C98.2311 279.696 98.0351 279.828 97.8671 279.996C97.7071 280.164 97.5791 280.364 97.4831 280.596C97.3951 280.82 97.3511 281.068 97.3511 281.34V281.424H100.903V281.292C100.903 281.02 100.859 280.772 100.771 280.548C100.691 280.324 100.575 280.132 100.423 279.972C100.279 279.804 100.099 279.676 99.8831 279.588C99.6751 279.5 99.4431 279.456 99.1871 279.456Z" fill="black"/>
<path d="M108.674 285C108.298 285 108.03 284.904 107.87 284.712C107.71 284.52 107.61 284.28 107.57 283.992H107.51C107.374 284.352 107.154 284.636 106.85 284.844C106.554 285.044 106.154 285.144 105.65 285.144C105.002 285.144 104.486 284.976 104.102 284.64C103.718 284.304 103.526 283.844 103.526 283.26C103.526 282.684 103.734 282.24 104.15 281.928C104.574 281.616 105.254 281.46 106.19 281.46H107.51V280.848C107.51 280.392 107.382 280.052 107.126 279.828C106.87 279.596 106.506 279.48 106.034 279.48C105.618 279.48 105.278 279.564 105.014 279.732C104.75 279.892 104.538 280.112 104.378 280.392L103.73 279.912C103.81 279.752 103.918 279.596 104.054 279.444C104.19 279.292 104.358 279.16 104.558 279.048C104.758 278.928 104.986 278.836 105.242 278.772C105.498 278.7 105.782 278.664 106.094 278.664C106.822 278.664 107.398 278.848 107.822 279.216C108.254 279.584 108.47 280.096 108.47 280.752V284.16H109.334V285H108.674ZM105.818 284.34C106.066 284.34 106.29 284.312 106.49 284.256C106.698 284.192 106.878 284.112 107.03 284.016C107.182 283.912 107.298 283.792 107.378 283.656C107.466 283.512 107.51 283.36 107.51 283.2V282.18H106.19C105.614 282.18 105.194 282.26 104.93 282.42C104.666 282.58 104.534 282.812 104.534 283.116V283.368C104.534 283.688 104.646 283.932 104.87 284.1C105.102 284.26 105.418 284.34 105.818 284.34Z" fill="black"/>
<path d="M115.03 283.992H114.982C114.582 284.76 113.946 285.144 113.074 285.144C112.314 285.144 111.718 284.86 111.286 284.292C110.862 283.724 110.65 282.928 110.65 281.904C110.65 280.88 110.862 280.084 111.286 279.516C111.718 278.948 112.314 278.664 113.074 278.664C113.946 278.664 114.582 279.048 114.982 279.816H115.03V276.12H115.99V285H115.03V283.992ZM113.446 284.292C113.662 284.292 113.866 284.264 114.058 284.208C114.25 284.152 114.418 284.072 114.562 283.968C114.706 283.856 114.818 283.724 114.898 283.572C114.986 283.412 115.03 283.228 115.03 283.02V280.788C115.03 280.58 114.986 280.4 114.898 280.248C114.818 280.088 114.706 279.956 114.562 279.852C114.418 279.74 114.25 279.656 114.058 279.6C113.866 279.544 113.662 279.516 113.446 279.516C112.886 279.516 112.45 279.688 112.138 280.032C111.834 280.368 111.682 280.816 111.682 281.376V282.432C111.682 282.992 111.834 283.444 112.138 283.788C112.45 284.124 112.886 284.292 113.446 284.292Z" fill="black"/>
<path d="M121.109 277.44C120.829 277.44 120.633 277.384 120.521 277.272C120.409 277.152 120.353 277.004 120.353 276.828V276.636C120.353 276.46 120.409 276.316 120.521 276.204C120.633 276.084 120.829 276.024 121.109 276.024C121.389 276.024 121.585 276.084 121.697 276.204C121.809 276.316 121.865 276.46 121.865 276.636V276.828C121.865 277.004 121.809 277.152 121.697 277.272C121.585 277.384 121.389 277.44 121.109 277.44ZM118.397 284.184H120.629V279.624H118.397V278.808H121.589V284.184H123.677V285H118.397V284.184Z" fill="black"/>
<path d="M125.496 285V278.808H126.456V279.816H126.504C126.568 279.664 126.648 279.52 126.744 279.384C126.84 279.24 126.956 279.116 127.092 279.012C127.236 278.908 127.404 278.824 127.596 278.76C127.788 278.696 128.012 278.664 128.268 278.664C128.916 278.664 129.436 278.872 129.828 279.288C130.22 279.696 130.416 280.276 130.416 281.028V285H129.456V281.196C129.456 280.628 129.332 280.208 129.084 279.936C128.836 279.656 128.472 279.516 127.992 279.516C127.8 279.516 127.612 279.54 127.428 279.588C127.244 279.636 127.08 279.708 126.936 279.804C126.792 279.9 126.676 280.024 126.588 280.176C126.5 280.328 126.456 280.504 126.456 280.704V285H125.496Z" fill="black"/>
<path d="M138.248 285.708C138.248 286.332 137.988 286.792 137.468 287.088C136.948 287.392 136.168 287.544 135.128 287.544C134.128 287.544 133.408 287.412 132.968 287.148C132.536 286.884 132.32 286.504 132.32 286.008C132.32 285.672 132.408 285.412 132.584 285.228C132.76 285.044 133.008 284.908 133.328 284.82V284.676C133.152 284.588 133.016 284.476 132.92 284.34C132.824 284.204 132.776 284.032 132.776 283.824C132.776 283.504 132.88 283.264 133.088 283.104C133.304 282.944 133.572 282.824 133.892 282.744V282.696C133.508 282.528 133.208 282.28 132.992 281.952C132.784 281.624 132.68 281.24 132.68 280.8C132.68 280.488 132.736 280.2 132.848 279.936C132.96 279.672 133.12 279.448 133.328 279.264C133.544 279.072 133.8 278.924 134.096 278.82C134.392 278.716 134.72 278.664 135.08 278.664C135.544 278.664 135.952 278.748 136.304 278.916V278.808C136.304 278.568 136.36 278.368 136.472 278.208C136.584 278.048 136.776 277.968 137.048 277.968H138.188V278.808H136.796V279.228C137.02 279.42 137.192 279.648 137.312 279.912C137.432 280.176 137.492 280.472 137.492 280.8C137.492 281.112 137.432 281.4 137.312 281.664C137.2 281.928 137.04 282.156 136.832 282.348C136.624 282.532 136.368 282.676 136.064 282.78C135.768 282.884 135.44 282.936 135.08 282.936C134.976 282.936 134.876 282.932 134.78 282.924C134.684 282.916 134.588 282.904 134.492 282.888C134.396 282.904 134.296 282.932 134.192 282.972C134.088 283.004 133.992 283.052 133.904 283.116C133.816 283.172 133.744 283.24 133.688 283.32C133.632 283.4 133.604 283.492 133.604 283.596C133.604 283.78 133.696 283.904 133.88 283.968C134.064 284.024 134.304 284.052 134.6 284.052H135.968C136.768 284.052 137.348 284.204 137.708 284.508C138.068 284.804 138.248 285.204 138.248 285.708ZM137.348 285.756C137.348 285.508 137.248 285.308 137.048 285.156C136.848 285.012 136.5 284.94 136.004 284.94H133.856C133.44 285.108 133.232 285.388 133.232 285.78C133.232 286.052 133.34 286.284 133.556 286.476C133.772 286.676 134.132 286.776 134.636 286.776H135.572C136.132 286.776 136.568 286.688 136.88 286.512C137.192 286.344 137.348 286.092 137.348 285.756ZM135.08 282.192C135.56 282.192 135.912 282.08 136.136 281.856C136.368 281.632 136.484 281.336 136.484 280.968V280.62C136.484 280.252 136.368 279.96 136.136 279.744C135.912 279.52 135.56 279.408 135.08 279.408C134.6 279.408 134.248 279.52 134.024 279.744C133.8 279.96 133.688 280.252 133.688 280.62V280.968C133.688 281.336 133.8 281.632 134.024 281.856C134.248 282.08 134.6 282.192 135.08 282.192Z" fill="black"/>
<path fill-rule="evenodd" clip-rule="evenodd" d="M397.793 314L399.646 312.146L400.354 312.853L398.5 314.707L397.793 314ZM402.646 309.146L405.646 306.146L406.354 306.853L403.354 309.853L402.646 309.146ZM408.646 303.146L411.646 300.146L412.354 300.853L409.354 303.853L408.646 303.146ZM414.646 297.146L417.646 294.146L418.354 294.853L415.354 297.853L414.646 297.146ZM420.646 291.146L423.646 288.146L424.354 288.853L421.354 291.853L420.646 291.146ZM426.646 285.146L428.146 283.646L428.854 284.353L427.354 285.853L426.646 285.146Z" fill="#0B0E29"/>
<path d="M438.056 279.624H440.9C441.62 279.624 442.184 279.82 442.592 280.212C443 280.604 443.204 281.128 443.204 281.784C443.204 282.288 443.08 282.684 442.832 282.972C442.592 283.26 442.28 283.464 441.896 283.584V283.62C442.368 283.732 442.756 283.944 443.06 284.256C443.364 284.56 443.516 285.004 443.516 285.588C443.516 285.924 443.46 286.24 443.348 286.536C443.236 286.832 443.076 287.088 442.868 287.304C442.668 287.52 442.428 287.692 442.148 287.82C441.876 287.94 441.58 288 441.26 288H438.056V279.624ZM440.96 287.124C441.424 287.124 441.788 287.02 442.052 286.812C442.316 286.604 442.448 286.284 442.448 285.852V285.36C442.448 284.936 442.316 284.62 442.052 284.412C441.788 284.196 441.424 284.088 440.96 284.088H439.064V287.124H440.96ZM440.792 283.26C441.216 283.26 441.548 283.168 441.788 282.984C442.028 282.792 442.148 282.504 442.148 282.12V281.652C442.148 281.268 442.028 280.98 441.788 280.788C441.548 280.596 441.216 280.5 440.792 280.5H439.064V283.26H440.792Z" fill="black"/>
<path d="M445.155 287.184H447.315V279.936H445.155V279.12H448.275V287.184H450.435V288H445.155V287.184Z" fill="black"/>
<path d="M454.991 288.144C454.559 288.144 454.167 288.068 453.815 287.916C453.471 287.764 453.175 287.548 452.927 287.268C452.687 286.98 452.503 286.64 452.375 286.248C452.247 285.848 452.183 285.4 452.183 284.904C452.183 284.416 452.247 283.972 452.375 283.572C452.503 283.172 452.687 282.832 452.927 282.552C453.175 282.264 453.471 282.044 453.815 281.892C454.167 281.74 454.559 281.664 454.991 281.664C455.423 281.664 455.811 281.74 456.155 281.892C456.507 282.044 456.803 282.264 457.043 282.552C457.291 282.832 457.479 283.172 457.607 283.572C457.735 283.972 457.799 284.416 457.799 284.904C457.799 285.4 457.735 285.848 457.607 286.248C457.479 286.64 457.291 286.98 457.043 287.268C456.803 287.548 456.507 287.764 456.155 287.916C455.811 288.068 455.423 288.144 454.991 288.144ZM454.991 287.316C455.527 287.316 455.959 287.156 456.287 286.836C456.615 286.516 456.779 286.02 456.779 285.348V284.46C456.779 283.788 456.615 283.292 456.287 282.972C455.959 282.652 455.527 282.492 454.991 282.492C454.455 282.492 454.023 282.652 453.695 282.972C453.367 283.292 453.203 283.788 453.203 284.46V285.348C453.203 286.02 453.367 286.516 453.695 286.836C454.023 287.156 454.455 287.316 454.991 287.316Z" fill="black"/>
<path d="M462.186 288.144C461.754 288.144 461.362 288.068 461.01 287.916C460.666 287.764 460.37 287.548 460.122 287.268C459.882 286.98 459.698 286.64 459.57 286.248C459.442 285.848 459.378 285.4 459.378 284.904C459.378 284.416 459.442 283.972 459.57 283.572C459.698 283.172 459.882 282.832 460.122 282.552C460.37 282.264 460.666 282.044 461.01 281.892C461.362 281.74 461.754 281.664 462.186 281.664C462.618 281.664 463.006 281.74 463.35 281.892C463.702 282.044 463.998 282.264 464.238 282.552C464.486 282.832 464.674 283.172 464.802 283.572C464.93 283.972 464.994 284.416 464.994 284.904C464.994 285.4 464.93 285.848 464.802 286.248C464.674 286.64 464.486 286.98 464.238 287.268C463.998 287.548 463.702 287.764 463.35 287.916C463.006 288.068 462.618 288.144 462.186 288.144ZM462.186 287.316C462.722 287.316 463.154 287.156 463.482 286.836C463.81 286.516 463.974 286.02 463.974 285.348V284.46C463.974 283.788 463.81 283.292 463.482 282.972C463.154 282.652 462.722 282.492 462.186 282.492C461.65 282.492 461.218 282.652 460.89 282.972C460.562 283.292 460.398 283.788 460.398 284.46V285.348C460.398 286.02 460.562 286.516 460.89 286.836C461.218 287.156 461.65 287.316 462.186 287.316Z" fill="black"/>
<path d="M470.881 286.992H470.833C470.433 287.76 469.797 288.144 468.925 288.144C468.165 288.144 467.569 287.86 467.137 287.292C466.713 286.724 466.501 285.928 466.501 284.904C466.501 283.88 466.713 283.084 467.137 282.516C467.569 281.948 468.165 281.664 468.925 281.664C469.797 281.664 470.433 282.048 470.833 282.816H470.881V279.12H471.841V288H470.881V286.992ZM469.297 287.292C469.513 287.292 469.717 287.264 469.909 287.208C470.101 287.152 470.269 287.072 470.413 286.968C470.557 286.856 470.669 286.724 470.749 286.572C470.837 286.412 470.881 286.228 470.881 286.02V283.788C470.881 283.58 470.837 283.4 470.749 283.248C470.669 283.088 470.557 282.956 470.413 282.852C470.269 282.74 470.101 282.656 469.909 282.6C469.717 282.544 469.513 282.516 469.297 282.516C468.737 282.516 468.301 282.688 467.989 283.032C467.685 283.368 467.533 283.816 467.533 284.376V285.432C467.533 285.992 467.685 286.444 467.989 286.788C468.301 287.124 468.737 287.292 469.297 287.292Z" fill="black"/>
<path d="M481.312 281.808H482.272V282.816H482.32C482.72 282.048 483.356 281.664 484.228 281.664C484.988 281.664 485.58 281.948 486.004 282.516C486.436 283.084 486.652 283.88 486.652 284.904C486.652 285.928 486.436 286.724 486.004 287.292C485.58 287.86 484.988 288.144 484.228 288.144C483.356 288.144 482.72 287.76 482.32 286.992H482.272V290.4H481.312V281.808ZM483.856 287.292C484.416 287.292 484.848 287.124 485.152 286.788C485.464 286.444 485.62 285.992 485.62 285.432V284.376C485.62 283.816 485.464 283.368 485.152 283.032C484.848 282.688 484.416 282.516 483.856 282.516C483.64 282.516 483.436 282.544 483.244 282.6C483.052 282.656 482.884 282.74 482.74 282.852C482.596 282.956 482.48 283.088 482.392 283.248C482.312 283.4 482.272 283.58 482.272 283.788V286.02C482.272 286.228 482.312 286.412 482.392 286.572C482.48 286.724 482.596 286.856 482.74 286.968C482.884 287.072 483.052 287.152 483.244 287.208C483.436 287.264 483.64 287.292 483.856 287.292Z" fill="black"/>
<path d="M488.291 287.184H490.103V282.624H488.291V281.808H491.063V283.368H491.123C491.251 282.88 491.491 282.5 491.843 282.228C492.203 281.948 492.659 281.808 493.211 281.808H494.075V282.768H492.911C492.359 282.768 491.911 282.928 491.567 283.248C491.231 283.568 491.063 283.988 491.063 284.508V287.184H493.463V288H488.291V287.184Z" fill="black"/>
<path d="M498.271 288.144C497.823 288.144 497.419 288.068 497.059 287.916C496.707 287.764 496.403 287.548 496.147 287.268C495.899 286.98 495.707 286.64 495.571 286.248C495.435 285.848 495.367 285.404 495.367 284.916C495.367 284.42 495.435 283.972 495.571 283.572C495.715 283.172 495.911 282.832 496.159 282.552C496.407 282.264 496.703 282.044 497.047 281.892C497.399 281.74 497.787 281.664 498.211 281.664C498.627 281.664 499.003 281.74 499.339 281.892C499.683 282.044 499.975 282.256 500.215 282.528C500.455 282.792 500.639 283.108 500.767 283.476C500.895 283.844 500.959 284.248 500.959 284.688V285.144H496.375V285.432C496.375 285.704 496.419 285.956 496.507 286.188C496.595 286.42 496.719 286.62 496.879 286.788C497.047 286.956 497.247 287.088 497.479 287.184C497.719 287.272 497.983 287.316 498.271 287.316C498.687 287.316 499.047 287.22 499.351 287.028C499.655 286.836 499.887 286.572 500.047 286.236L500.755 286.716C500.571 287.132 500.263 287.476 499.831 287.748C499.407 288.012 498.887 288.144 498.271 288.144ZM498.211 282.456C497.947 282.456 497.703 282.504 497.479 282.6C497.255 282.696 497.059 282.828 496.891 282.996C496.731 283.164 496.603 283.364 496.507 283.596C496.419 283.82 496.375 284.068 496.375 284.34V284.424H499.927V284.292C499.927 284.02 499.883 283.772 499.795 283.548C499.715 283.324 499.599 283.132 499.447 282.972C499.303 282.804 499.123 282.676 498.907 282.588C498.699 282.5 498.467 282.456 498.211 282.456Z" fill="black"/>
<path d="M505.43 288.144C504.782 288.144 504.222 288.036 503.75 287.82C503.286 287.596 502.89 287.3 502.562 286.932L503.21 286.368C503.506 286.68 503.83 286.92 504.182 287.088C504.534 287.256 504.958 287.34 505.454 287.34C505.934 287.34 506.326 287.256 506.63 287.088C506.942 286.912 507.098 286.64 507.098 286.272C507.098 286.112 507.066 285.98 507.002 285.876C506.946 285.764 506.866 285.676 506.762 285.612C506.658 285.548 506.542 285.5 506.414 285.468C506.286 285.428 506.15 285.396 506.006 285.372L505.034 285.228C504.818 285.196 504.582 285.152 504.326 285.096C504.078 285.04 503.85 284.952 503.642 284.832C503.434 284.704 503.258 284.536 503.114 284.328C502.978 284.12 502.91 283.848 502.91 283.512C502.91 283.2 502.97 282.932 503.09 282.708C503.218 282.476 503.394 282.284 503.618 282.132C503.842 281.972 504.106 281.856 504.41 281.784C504.714 281.704 505.046 281.664 505.406 281.664C505.966 281.664 506.45 281.752 506.858 281.928C507.274 282.104 507.63 282.348 507.926 282.66L507.302 283.248C507.23 283.16 507.138 283.072 507.026 282.984C506.922 282.888 506.79 282.804 506.63 282.732C506.478 282.652 506.298 282.588 506.09 282.54C505.882 282.492 505.642 282.468 505.37 282.468C504.882 282.468 504.506 282.552 504.242 282.72C503.986 282.888 503.858 283.132 503.858 283.452C503.858 283.612 503.886 283.748 503.942 283.86C504.006 283.964 504.09 284.048 504.194 284.112C504.298 284.176 504.414 284.228 504.542 284.268C504.678 284.3 504.814 284.328 504.95 284.352L505.922 284.496C506.146 284.528 506.382 284.572 506.63 284.628C506.878 284.684 507.106 284.776 507.314 284.904C507.522 285.024 507.694 285.188 507.83 285.396C507.974 285.604 508.046 285.876 508.046 286.212C508.046 286.828 507.806 287.304 507.326 287.64C506.854 287.976 506.222 288.144 505.43 288.144Z" fill="black"/>
<path d="M512.625 288.144C511.977 288.144 511.417 288.036 510.945 287.82C510.481 287.596 510.085 287.3 509.757 286.932L510.405 286.368C510.701 286.68 511.025 286.92 511.377 287.088C511.729 287.256 512.153 287.34 512.649 287.34C513.129 287.34 513.521 287.256 513.825 287.088C514.137 286.912 514.293 286.64 514.293 286.272C514.293 286.112 514.261 285.98 514.197 285.876C514.141 285.764 514.061 285.676 513.957 285.612C513.853 285.548 513.737 285.5 513.609 285.468C513.481 285.428 513.345 285.396 513.201 285.372L512.229 285.228C512.013 285.196 511.777 285.152 511.521 285.096C511.273 285.04 511.045 284.952 510.837 284.832C510.629 284.704 510.453 284.536 510.309 284.328C510.173 284.12 510.105 283.848 510.105 283.512C510.105 283.2 510.165 282.932 510.285 282.708C510.413 282.476 510.589 282.284 510.813 282.132C511.037 281.972 511.301 281.856 511.605 281.784C511.909 281.704 512.241 281.664 512.601 281.664C513.161 281.664 513.645 281.752 514.053 281.928C514.469 282.104 514.825 282.348 515.121 282.66L514.497 283.248C514.425 283.16 514.333 283.072 514.221 282.984C514.117 282.888 513.985 282.804 513.825 282.732C513.673 282.652 513.493 282.588 513.285 282.54C513.077 282.492 512.837 282.468 512.565 282.468C512.077 282.468 511.701 282.552 511.437 282.72C511.181 282.888 511.053 283.132 511.053 283.452C511.053 283.612 511.081 283.748 511.137 283.86C511.201 283.964 511.285 284.048 511.389 284.112C511.493 284.176 511.609 284.228 511.737 284.268C511.873 284.3 512.009 284.328 512.145 284.352L513.117 284.496C513.341 284.528 513.577 284.572 513.825 284.628C514.073 284.684 514.301 284.776 514.509 284.904C514.717 285.024 514.889 285.188 515.025 285.396C515.169 285.604 515.241 285.876 515.241 286.212C515.241 286.828 515.001 287.304 514.521 287.64C514.049 287.976 513.417 288.144 512.625 288.144Z" fill="black"/>
<path d="M521.213 286.992H521.165C521.101 287.144 521.021 287.292 520.925 287.436C520.829 287.572 520.709 287.692 520.565 287.796C520.429 287.9 520.265 287.984 520.073 288.048C519.881 288.112 519.657 288.144 519.401 288.144C518.753 288.144 518.233 287.94 517.841 287.532C517.449 287.116 517.253 286.532 517.253 285.78V281.808H518.213V285.612C518.213 286.18 518.337 286.604 518.585 286.884C518.833 287.156 519.197 287.292 519.677 287.292C519.869 287.292 520.057 287.268 520.241 287.22C520.425 287.172 520.589 287.1 520.733 287.004C520.877 286.908 520.993 286.788 521.081 286.644C521.169 286.492 521.213 286.312 521.213 286.104V281.808H522.173V288H521.213V286.992Z" fill="black"/>
<path d="M524.268 287.184H526.08V282.624H524.268V281.808H527.04V283.368H527.1C527.228 282.88 527.468 282.5 527.82 282.228C528.18 281.948 528.636 281.808 529.188 281.808H530.052V282.768H528.888C528.336 282.768 527.888 282.928 527.544 283.248C527.208 283.568 527.04 283.988 527.04 284.508V287.184H529.44V288H524.268V287.184Z" fill="black"/>
<path d="M534.247 288.144C533.799 288.144 533.395 288.068 533.035 287.916C532.683 287.764 532.379 287.548 532.123 287.268C531.875 286.98 531.683 286.64 531.547 286.248C531.411 285.848 531.343 285.404 531.343 284.916C531.343 284.42 531.411 283.972 531.547 283.572C531.691 283.172 531.887 282.832 532.135 282.552C532.383 282.264 532.679 282.044 533.023 281.892C533.375 281.74 533.763 281.664 534.187 281.664C534.603 281.664 534.979 281.74 535.315 281.892C535.659 282.044 535.951 282.256 536.191 282.528C536.431 282.792 536.615 283.108 536.743 283.476C536.871 283.844 536.935 284.248 536.935 284.688V285.144H532.351V285.432C532.351 285.704 532.395 285.956 532.483 286.188C532.571 286.42 532.695 286.62 532.855 286.788C533.023 286.956 533.223 287.088 533.455 287.184C533.695 287.272 533.959 287.316 534.247 287.316C534.663 287.316 535.023 287.22 535.327 287.028C535.631 286.836 535.863 286.572 536.023 286.236L536.731 286.716C536.547 287.132 536.239 287.476 535.807 287.748C535.383 288.012 534.863 288.144 534.247 288.144ZM534.187 282.456C533.923 282.456 533.679 282.504 533.455 282.6C533.231 282.696 533.035 282.828 532.867 282.996C532.707 283.164 532.579 283.364 532.483 283.596C532.395 283.82 532.351 284.068 532.351 284.34V284.424H535.903V284.292C535.903 284.02 535.859 283.772 535.771 283.548C535.691 283.324 535.575 283.132 535.423 282.972C535.279 282.804 535.099 282.676 534.883 282.588C534.675 282.5 534.443 282.456 534.187 282.456Z" fill="black"/>
<path fill-rule="evenodd" clip-rule="evenodd" d="M271.931 14.7286L273.317 16.114L274.024 15.4069L272.638 14.0215L271.931 14.7286ZM276.088 18.8848L278.858 21.6557L279.566 20.9486L276.795 18.1777L276.088 18.8848ZM281.629 24.4265L284.4 27.1973L285.107 26.4902L282.336 23.7194L281.629 24.4265ZM287.171 29.9682L288.91 31.7071L289.617 31L287.878 29.2611L287.171 29.9682Z" fill="#0B0E29"/>
<path d="M171.056 9.62441H173.9C174.62 9.62441 175.184 9.82041 175.592 10.2124C176 10.6044 176.204 11.1284 176.204 11.7844C176.204 12.2884 176.08 12.6844 175.832 12.9724C175.592 13.2604 175.28 13.4644 174.896 13.5844V13.6204C175.368 13.7324 175.756 13.9444 176.06 14.2564C176.364 14.5604 176.516 15.0044 176.516 15.5884C176.516 15.9244 176.46 16.2404 176.348 16.5364C176.236 16.8324 176.076 17.0884 175.868 17.3044C175.668 17.5204 175.428 17.6924 175.148 17.8204C174.876 17.9404 174.58 18.0004 174.26 18.0004H171.056V9.62441ZM173.96 17.1244C174.424 17.1244 174.788 17.0204 175.052 16.8124C175.316 16.6044 175.448 16.2844 175.448 15.8524V15.3604C175.448 14.9364 175.316 14.6204 175.052 14.4124C174.788 14.1964 174.424 14.0884 173.96 14.0884H172.064V17.1244H173.96ZM173.792 13.2604C174.216 13.2604 174.548 13.1684 174.788 12.9844C175.028 12.7924 175.148 12.5044 175.148 12.1204V11.6524C175.148 11.2684 175.028 10.9804 174.788 10.7884C174.548 10.5964 174.216 10.5004 173.792 10.5004H172.064V13.2604H173.792Z" fill="black"/>
<path d="M178.119 17.1844H179.931V12.6244H178.119V11.8084H180.891V13.3684H180.951C181.079 12.8804 181.319 12.5004 181.671 12.2284C182.031 11.9484 182.487 11.8084 183.039 11.8084H183.903V12.7684H182.739C182.187 12.7684 181.739 12.9284 181.395 13.2484C181.059 13.5684 180.891 13.9884 180.891 14.5084V17.1844H183.291V18.0004H178.119V17.1844Z" fill="black"/>
<path d="M190.331 18.0004C189.955 18.0004 189.687 17.9044 189.527 17.7124C189.367 17.5204 189.267 17.2804 189.227 16.9924H189.167C189.031 17.3524 188.811 17.6364 188.507 17.8444C188.211 18.0444 187.811 18.1444 187.307 18.1444C186.659 18.1444 186.143 17.9764 185.759 17.6404C185.375 17.3044 185.183 16.8444 185.183 16.2604C185.183 15.6844 185.391 15.2404 185.807 14.9284C186.231 14.6164 186.911 14.4604 187.847 14.4604H189.167V13.8484C189.167 13.3924 189.039 13.0524 188.783 12.8284C188.527 12.5964 188.163 12.4804 187.691 12.4804C187.275 12.4804 186.935 12.5644 186.671 12.7324C186.407 12.8924 186.195 13.1124 186.035 13.3924L185.387 12.9124C185.467 12.7524 185.575 12.5964 185.711 12.4444C185.847 12.2924 186.015 12.1604 186.215 12.0484C186.415 11.9284 186.643 11.8364 186.899 11.7724C187.155 11.7004 187.439 11.6644 187.751 11.6644C188.479 11.6644 189.055 11.8484 189.479 12.2164C189.911 12.5844 190.127 13.0964 190.127 13.7524V17.1604H190.991V18.0004H190.331ZM187.475 17.3404C187.723 17.3404 187.947 17.3124 188.147 17.2564C188.355 17.1924 188.535 17.1124 188.687 17.0164C188.839 16.9124 188.955 16.7924 189.035 16.6564C189.123 16.5124 189.167 16.3604 189.167 16.2004V15.1804H187.847C187.271 15.1804 186.851 15.2604 186.587 15.4204C186.323 15.5804 186.191 15.8124 186.191 16.1164V16.3684C186.191 16.6884 186.303 16.9324 186.527 17.1004C186.759 17.2604 187.075 17.3404 187.475 17.3404Z" fill="black"/>
<path d="M195.57 10.4404C195.29 10.4404 195.094 10.3844 194.982 10.2724C194.87 10.1524 194.814 10.0044 194.814 9.82841V9.63641C194.814 9.46041 194.87 9.31641 194.982 9.20441C195.094 9.08441 195.29 9.02441 195.57 9.02441C195.85 9.02441 196.046 9.08441 196.158 9.20441C196.27 9.31641 196.326 9.46041 196.326 9.63641V9.82841C196.326 10.0044 196.27 10.1524 196.158 10.2724C196.046 10.3844 195.85 10.4404 195.57 10.4404ZM192.858 17.1844H195.09V12.6244H192.858V11.8084H196.05V17.1844H198.138V18.0004H192.858V17.1844Z" fill="black"/>
<path d="M199.957 18.0004V11.8084H200.917V12.8164H200.965C201.029 12.6644 201.109 12.5204 201.205 12.3844C201.301 12.2404 201.417 12.1164 201.553 12.0124C201.697 11.9084 201.865 11.8244 202.057 11.7604C202.249 11.6964 202.473 11.6644 202.729 11.6644C203.377 11.6644 203.897 11.8724 204.289 12.2884C204.681 12.6964 204.877 13.2764 204.877 14.0284V18.0004H203.917V14.1964C203.917 13.6284 203.793 13.2084 203.545 12.9364C203.297 12.6564 202.933 12.5164 202.453 12.5164C202.261 12.5164 202.073 12.5404 201.889 12.5884C201.705 12.6364 201.541 12.7084 201.397 12.8044C201.253 12.9004 201.137 13.0244 201.049 13.1764C200.961 13.3284 200.917 13.5044 200.917 13.7044V18.0004H199.957Z" fill="black"/>
<path d="M219.112 18.0004C218.736 18.0004 218.468 17.9044 218.308 17.7124C218.148 17.5204 218.048 17.2804 218.008 16.9924H217.948C217.812 17.3524 217.592 17.6364 217.288 17.8444C216.992 18.0444 216.592 18.1444 216.088 18.1444C215.44 18.1444 214.924 17.9764 214.54 17.6404C214.156 17.3044 213.964 16.8444 213.964 16.2604C213.964 15.6844 214.172 15.2404 214.588 14.9284C215.012 14.6164 215.692 14.4604 216.628 14.4604H217.948V13.8484C217.948 13.3924 217.82 13.0524 217.564 12.8284C217.308 12.5964 216.944 12.4804 216.472 12.4804C216.056 12.4804 215.716 12.5644 215.452 12.7324C215.188 12.8924 214.976 13.1124 214.816 13.3924L214.168 12.9124C214.248 12.7524 214.356 12.5964 214.492 12.4444C214.628 12.2924 214.796 12.1604 214.996 12.0484C215.196 11.9284 215.424 11.8364 215.68 11.7724C215.936 11.7004 216.22 11.6644 216.532 11.6644C217.26 11.6644 217.836 11.8484 218.26 12.2164C218.692 12.5844 218.908 13.0964 218.908 13.7524V17.1604H219.772V18.0004H219.112ZM216.256 17.3404C216.504 17.3404 216.728 17.3124 216.928 17.2564C217.136 17.1924 217.316 17.1124 217.468 17.0164C217.62 16.9124 217.736 16.7924 217.816 16.6564C217.904 16.5124 217.948 16.3604 217.948 16.2004V15.1804H216.628C216.052 15.1804 215.632 15.2604 215.368 15.4204C215.104 15.5804 214.972 15.8124 214.972 16.1164V16.3684C214.972 16.6884 215.084 16.9324 215.308 17.1004C215.54 17.2604 215.856 17.3404 216.256 17.3404Z" fill="black"/>
<path d="M224.183 18.1444C223.735 18.1444 223.335 18.0684 222.983 17.9164C222.639 17.7564 222.347 17.5364 222.107 17.2564C221.867 16.9764 221.683 16.6364 221.555 16.2364C221.435 15.8364 221.375 15.3924 221.375 14.9044C221.375 14.4164 221.439 13.9724 221.567 13.5724C221.695 13.1724 221.879 12.8324 222.119 12.5524C222.359 12.2644 222.651 12.0444 222.995 11.8924C223.339 11.7404 223.731 11.6644 224.171 11.6644C224.771 11.6644 225.259 11.7964 225.635 12.0604C226.011 12.3244 226.287 12.6684 226.463 13.0924L225.695 13.5004C225.583 13.1804 225.395 12.9324 225.131 12.7564C224.875 12.5804 224.555 12.4924 224.171 12.4924C223.891 12.4924 223.639 12.5404 223.415 12.6364C223.199 12.7244 223.015 12.8524 222.863 13.0204C222.711 13.1884 222.595 13.3884 222.515 13.6204C222.443 13.8524 222.407 14.1044 222.407 14.3764V15.4324C222.407 15.7044 222.443 15.9564 222.515 16.1884C222.595 16.4204 222.711 16.6204 222.863 16.7884C223.015 16.9564 223.203 17.0884 223.427 17.1844C223.651 17.2724 223.907 17.3164 224.195 17.3164C224.611 17.3164 224.955 17.2204 225.227 17.0284C225.499 16.8364 225.715 16.5724 225.875 16.2364L226.559 16.7044C226.375 17.1204 226.087 17.4644 225.695 17.7364C225.311 18.0084 224.807 18.1444 224.183 18.1444Z" fill="black"/>
<path d="M231.463 18.0004C230.991 18.0004 230.643 17.8684 230.419 17.6044C230.203 17.3404 230.095 17.0004 230.095 16.5844V12.6244H228.031V11.8084H229.567C229.775 11.8084 229.919 11.7684 229.999 11.6884C230.087 11.6004 230.131 11.4524 230.131 11.2444V9.62441H231.055V11.8084H233.875V12.6244H231.055V17.1844H233.875V18.0004H231.463Z" fill="black"/>
<path d="M238.742 10.4404C238.462 10.4404 238.266 10.3844 238.154 10.2724C238.042 10.1524 237.986 10.0044 237.986 9.82841V9.63641C237.986 9.46041 238.042 9.31641 238.154 9.20441C238.266 9.08441 238.462 9.02441 238.742 9.02441C239.022 9.02441 239.218 9.08441 239.33 9.20441C239.442 9.31641 239.498 9.46041 239.498 9.63641V9.82841C239.498 10.0044 239.442 10.1524 239.33 10.2724C239.218 10.3844 239.022 10.4404 238.742 10.4404ZM236.03 17.1844H238.262V12.6244H236.03V11.8084H239.222V17.1844H241.31V18.0004H236.03V17.1844Z" fill="black"/>
<path d="M244.941 18.0004L242.721 11.8084H243.693L244.581 14.4004L245.541 17.1964H245.589L246.549 14.4004L247.437 11.8084H248.385L246.165 18.0004H244.941Z" fill="black"/>
<path d="M253.133 10.4404C252.853 10.4404 252.657 10.3844 252.545 10.2724C252.433 10.1524 252.377 10.0044 252.377 9.82841V9.63641C252.377 9.46041 252.433 9.31641 252.545 9.20441C252.657 9.08441 252.853 9.02441 253.133 9.02441C253.413 9.02441 253.609 9.08441 253.721 9.20441C253.833 9.31641 253.889 9.46041 253.889 9.63641V9.82841C253.889 10.0044 253.833 10.1524 253.721 10.2724C253.609 10.3844 253.413 10.4404 253.133 10.4404ZM250.421 17.1844H252.653V12.6244H250.421V11.8084H253.613V17.1844H255.701V18.0004H250.421V17.1844Z" fill="black"/>
<path d="M261.948 11.8084H262.908L259.836 19.3564C259.764 19.5324 259.684 19.6844 259.596 19.8124C259.508 19.9484 259.404 20.0564 259.284 20.1364C259.164 20.2244 259.02 20.2884 258.852 20.3284C258.684 20.3764 258.484 20.4004 258.252 20.4004H257.34V19.5844H258.78L259.476 17.8804L256.98 11.8084H257.964L259.008 14.4004L259.932 16.7524H259.98L260.904 14.4004L261.948 11.8084Z" fill="black"/>
</g>
<defs>
<clipPath id="clip0_7774_337698">
<rect width="553" height="446" fill="white"/>
</clipPath>
</defs>
</svg>
