<svg width="553" height="446" viewBox="0 0 553 446" fill="none" xmlns="http://www.w3.org/2000/svg">
<g clip-path="url(#clip0_7765_341962)">
<rect width="553" height="446" fill="white"/>
<path d="M439.544 371.655C437.348 367.272 421.341 353.491 414.893 349.687C408.463 345.9 404.949 337.432 399.976 311.152C395.004 284.889 385.358 262.991 385.358 262.991C386.816 246.353 381.844 223.877 380.965 219.494C380.087 215.111 383.601 195.265 377.75 178.627C371.899 161.989 353.609 153.819 341.327 148.56C329.046 143.3 312.512 132.658 312.512 132.658V116.02C315.288 112.672 316.571 107.184 317.994 103.362C318.328 105.01 322.264 102.924 323.546 100.96C324.829 98.9966 326.656 88.4774 325.444 83.2353C324.231 77.9757 322.369 80.2724 322.369 80.2724C322.369 80.2724 323.458 68.0175 319.523 58.1645C315.569 48.3115 304.992 43.2974 300.213 42.6136C297.402 42.2104 295.03 42 293.695 42H292.324C290.971 42 288.968 42 285.806 42.6136C281.062 43.5428 270.449 48.3115 266.496 58.1645C262.543 68.0175 263.65 80.2724 263.65 80.2724C263.65 80.2724 261.787 77.9757 260.575 83.2353C259.362 88.4949 261.19 98.9966 262.472 100.96C263.755 102.924 267.708 105.01 268.025 103.362C269.448 107.202 270.73 112.672 273.506 116.02V132.658C273.506 132.658 256.973 143.318 244.691 148.56C232.41 153.819 214.119 161.989 208.269 178.627C202.418 195.265 205.932 215.111 205.053 219.494C204.175 223.877 199.202 246.353 200.661 262.991C200.661 262.991 191.015 284.889 186.042 311.152C181.07 337.415 177.556 345.883 171.125 349.687C164.695 353.474 148.671 367.272 146.474 371.655C144.278 376.038 150.199 376.914 154.153 374.495C158.106 372.075 164.027 366.833 164.677 369.025C165.327 371.216 158.967 389.379 157.438 395.954C155.91 402.529 155.91 404.93 160.724 404.93C162.92 404.93 169.07 385.452 169.07 385.452C169.07 385.452 166.979 404.387 167.98 408.77C168.964 413.153 173.357 412.048 174.13 406.035C174.903 400.021 176.976 387.433 176.976 387.433C176.976 387.433 177.187 406.263 178.294 409.769C179.401 413.276 182.897 414.363 183.231 407.034C183.565 399.706 184.443 385.575 184.443 385.575C184.443 385.575 185.656 403.528 187.624 407.139C189.592 410.751 192.666 407.245 191.682 402.318C190.698 397.392 190.804 387.872 193.65 382.402C196.497 376.932 201.557 361.17 198.693 351.317C197.814 347.162 197.814 343.218 206.371 326.58C214.928 309.942 222.606 298.914 225.54 275.281C226.419 265.937 241.037 229.75 241.336 212.814C240.756 241.129 241.634 262.728 244.85 279.366C248.065 296.004 237.101 340.044 236.662 364.502C236.223 388.976 240.176 450.268 247.186 477.846C247.626 484.421 248.504 505.862 248.504 517.696C247.239 531.336 248.75 581.495 250.841 605.286C252.036 622.608 252.721 652.868 252.721 660.091C252.721 667.315 249.137 680.06 238.12 683.391C218.565 689.3 221.165 698.136 226.05 699.223C230.934 700.31 233.534 703.027 249.945 701.59C254.829 701.151 260.153 697.066 266.18 694.893C272.224 692.719 272.997 695.436 275.896 692.719C278.795 690.001 276.283 680.253 274.982 671.961C272.241 654.621 281.501 607.881 281.501 607.881C284.312 595.749 291.287 577.165 283.152 528.934C279.709 508.545 287.826 498.867 284.031 485.437C282.274 468.221 286.368 448.655 287.246 435.822C288.125 422.971 292.219 393.201 289.882 384.155C291.059 383.734 292.096 383.471 292.992 383.296C293.905 383.471 294.924 383.734 296.102 384.155C293.765 393.201 297.859 422.971 298.737 435.822C299.616 448.673 303.709 468.221 301.952 485.437C298.157 498.867 306.696 508.615 302.831 528.934C294.538 572.466 301.109 592.874 303.955 610.406C303.955 610.406 313.76 654.604 311.019 671.943C309.718 680.236 307.206 690.001 310.105 692.701C313.004 695.418 313.777 692.701 319.821 694.875C325.865 697.049 331.189 701.151 336.056 701.572C352.467 703.01 355.067 700.292 359.951 699.205C364.836 698.118 367.436 689.282 347.881 683.374C336.864 680.043 332.735 667.841 332.735 660.617C332.735 653.394 333.983 622.59 335.16 605.269C337.251 581.495 338.762 531.319 337.497 517.679C337.497 505.862 338.375 484.403 338.815 477.829C345.843 450.251 349.778 388.941 349.339 364.484C348.9 340.009 337.936 295.986 341.151 279.349C344.367 262.711 345.245 241.111 344.665 212.797C344.964 229.733 359.582 265.919 360.461 275.264C363.378 298.914 371.073 309.924 379.63 326.562C388.187 343.2 388.187 347.145 387.308 351.3C384.462 361.153 389.504 376.914 392.351 382.384C395.197 387.854 395.32 397.374 394.319 402.301C393.335 407.227 396.409 410.733 398.377 407.122C400.345 403.51 401.557 385.558 401.557 385.558C401.557 385.558 402.436 399.671 402.77 407.017C403.104 414.345 406.618 413.258 407.707 409.752C408.796 406.245 409.025 387.416 409.025 387.416C409.025 387.416 411.116 400.004 411.871 406.017C412.627 412.031 417.019 413.135 418.021 408.752C419.005 404.369 416.931 385.435 416.931 385.435C416.931 385.435 423.081 404.913 425.277 404.913C430.109 404.913 430.109 402.511 428.563 395.936C427.034 389.362 420.656 371.199 421.324 369.007C421.974 366.816 427.913 372.075 431.848 374.477C435.784 376.879 441.723 376.003 439.527 371.637L439.544 371.655Z" fill="#F6F5F4"/>
<path fill-rule="evenodd" clip-rule="evenodd" d="M317.291 70.7476C317.39 70.8565 317.437 71.0038 317.418 71.1503L311.178 118.99C311.16 119.126 311.088 119.248 310.978 119.329C310.868 119.409 310.73 119.442 310.595 119.418L275.235 113.178C275.025 113.141 274.862 112.974 274.828 112.764L268.588 73.2436C268.566 73.1029 268.605 72.9594 268.695 72.8491C268.785 72.7389 268.918 72.6723 269.06 72.6661L316.9 70.5861C317.048 70.5797 317.191 70.6388 317.291 70.7476ZM269.663 73.6408L275.76 112.255L310.254 118.342L316.349 71.611L269.663 73.6408Z" fill="#0B0E29"/>
<path d="M298 91.4997C298 92.8804 296.881 93.9997 295.5 93.9997C294.119 93.9997 293 92.8804 293 91.4997C293 90.119 294.119 88.9997 295.5 88.9997C296.881 88.9997 298 90.119 298 91.4997Z" fill="#0B0E29"/>
<path fill-rule="evenodd" clip-rule="evenodd" d="M314.874 72.4277C314.583 72.0007 314.413 71.4848 314.413 70.9294C314.413 69.4566 315.607 68.2627 317.08 68.2627C318.553 68.2627 319.747 69.4566 319.747 70.9294C319.747 72.4021 318.553 73.596 317.08 73.596C316.524 73.596 316.008 73.4259 315.581 73.135L296.739 91.9686L309.88 116.374C310.133 116.294 310.403 116.251 310.682 116.251C312.155 116.251 313.349 117.445 313.349 118.918C313.349 120.391 312.155 121.585 310.682 121.585C309.209 121.585 308.016 120.391 308.016 118.918C308.016 118.083 308.399 117.338 309 116.849L296.001 92.7068L277.528 111.179C277.819 111.606 277.989 112.122 277.989 112.678C277.989 114.151 276.795 115.345 275.322 115.345C273.849 115.345 272.656 114.151 272.656 112.678C272.656 111.205 273.849 110.011 275.322 110.011C275.878 110.011 276.394 110.181 276.821 110.472L295.345 91.9481L270.951 75.0601C270.47 75.533 269.81 75.8247 269.082 75.8247C267.609 75.8247 266.416 74.6308 266.416 73.158C266.416 71.6853 267.609 70.4914 269.082 70.4914C270.555 70.4914 271.749 71.6853 271.749 73.158C271.749 73.5425 271.667 73.9081 271.521 74.2383L296.064 91.2295L314.874 72.4277Z" fill="#0B0E29"/>
<path fill-rule="evenodd" clip-rule="evenodd" d="M243.391 41.4531H245.937V42.4531H244.391V44.0175H243.391V41.4531ZM250.029 41.4531H254.121V42.4531H250.029V41.4531ZM258.214 41.4531H262.306V42.4531H258.214V41.4531ZM266.398 41.4531H270.491V42.4531H266.398V41.4531ZM274.583 41.4531H278.675V42.4531H274.583V41.4531ZM282.768 41.4531H286.86V42.4531H282.768V41.4531ZM290.952 41.4531H295.044V42.4531H290.952V41.4531ZM299.137 41.4531H303.229V42.4531H299.137V41.4531ZM307.321 41.4531H311.414V42.4531H307.321V41.4531ZM315.506 41.4531H319.598V42.4531H315.506V41.4531ZM323.691 41.4531H327.783V42.4531H323.691V41.4531ZM331.875 41.4531H335.968V42.4531H331.875V41.4531ZM340.06 41.4531H342.606V44.0176H341.606V42.4531H340.06V41.4531ZM243.391 52.2752V48.1464H244.391V52.2752H243.391ZM342.606 48.1464V52.2753H341.606V48.1464H342.606ZM243.391 60.5329V56.4041H244.391V60.5329H243.391ZM342.606 56.4041V60.5329H341.606V56.4041H342.606ZM243.391 68.7906V64.6618H244.391V68.7906H243.391ZM342.606 64.6618V68.7906H341.606V64.6618H342.606ZM243.391 77.0483V72.9195H244.391V77.0483H243.391ZM342.606 72.9195V77.0483H341.606V72.9195H342.606ZM243.391 85.306V81.1772H244.391V85.306H243.391ZM342.606 81.1772V85.306H341.606V81.1772H342.606ZM243.391 93.5637V89.4348H244.391V93.5637H243.391ZM342.606 89.4349V93.5637H341.606V89.4349H342.606ZM243.391 101.821V97.6925H244.391V101.821H243.391ZM342.606 97.6926V101.821H341.606V97.6926H342.606ZM243.391 110.079V105.95H244.391V110.079H243.391ZM342.606 105.95V110.079H341.606V105.95H342.606ZM243.391 118.337V114.208H244.391V118.337H243.391ZM342.606 114.208V118.337H341.606V114.208H342.606ZM243.391 126.594V122.466H244.391V126.594H243.391ZM342.606 122.466V126.594H341.606V122.466H342.606ZM243.391 134.852V130.723H244.391V134.852H243.391ZM342.606 130.723V134.852H341.606V130.723H342.606ZM243.391 138.981H244.391V140.545H245.937V141.545H243.391V138.981ZM342.606 138.981V141.545H340.06V140.545H341.606V138.981H342.606ZM254.121 141.545H250.029V140.545H254.121V141.545ZM262.306 141.545H258.214V140.545H262.306V141.545ZM270.491 141.545H266.398V140.545H270.491V141.545ZM278.675 141.545H274.583V140.545H278.675V141.545ZM286.86 141.545H282.768V140.545H286.86V141.545ZM295.044 141.545H290.952V140.545H295.044V141.545ZM303.229 141.545H299.137V140.545H303.229V141.545ZM311.414 141.545H307.321V140.545H311.414V141.545ZM319.598 141.545H315.506V140.545H319.598V141.545ZM327.783 141.545H323.691V140.545H327.783V141.545ZM335.968 141.545H331.875V140.545H335.968V141.545Z" fill="#0B0E29"/>
<path fill-rule="evenodd" clip-rule="evenodd" d="M242.891 40.9531H266.291V42.9531H244.891V64.5531H242.891V40.9531Z" fill="#0B0E29"/>
<path fill-rule="evenodd" clip-rule="evenodd" d="M242.891 142.047H266.291V140.047H244.891V118.447H242.891V142.047Z" fill="#0B0E29"/>
<path fill-rule="evenodd" clip-rule="evenodd" d="M343.105 40.9531H319.705V42.9531H341.105V64.5531H343.105V40.9531Z" fill="#0B0E29"/>
<path fill-rule="evenodd" clip-rule="evenodd" d="M343.105 142.047H319.705V140.047H341.105V118.447H343.105V142.047Z" fill="#0B0E29"/>
<path fill-rule="evenodd" clip-rule="evenodd" d="M127.254 323.312H129.764V324.312H128.254V325.841H127.254V323.312ZM133.785 323.312H137.805V324.312H133.785V323.312ZM141.826 323.312H145.846V324.312H141.826V323.312ZM149.867 323.312H153.887V324.312H149.867V323.312ZM157.908 323.312H161.928V324.312H157.908V323.312ZM165.949 323.312H169.969V324.312H165.949V323.312ZM173.99 323.312H178.01V324.312H173.99V323.312ZM182.031 323.312H186.051V324.312H182.031V323.312ZM190.072 323.312H194.092V324.312H190.072V323.312ZM198.113 323.312H202.133V324.312H198.113V323.312ZM206.154 323.312H210.174V324.312H206.154V323.312ZM214.195 323.312H218.215V324.312H214.195V323.312ZM222.236 323.312H224.746V325.841H223.746V324.312H222.236V323.312ZM127.254 333.955V329.898H128.254V333.955H127.254ZM224.746 329.898V333.955H223.746V329.898H224.746ZM127.254 342.069V338.012H128.254V342.069H127.254ZM224.746 338.012V342.069H223.746V338.012H224.746ZM127.254 350.183V346.126H128.254V350.183H127.254ZM224.746 346.126V350.183H223.746V346.126H224.746ZM224.746 354.24V358.297H223.746V354.24H224.746ZM127.254 358.297V354.24H128.254V358.297H127.254ZM224.746 362.354V366.411H223.746V362.354H224.746ZM127.254 366.411V362.354H128.254V366.411H127.254ZM224.746 370.468V374.525H223.746V370.468H224.746ZM127.254 374.526V370.468H128.254V374.526H127.254ZM224.746 378.583V382.64H223.746V378.583H224.746ZM127.254 382.64V378.583H128.254V382.64H127.254ZM224.746 386.697V390.754H223.746V386.697H224.746ZM127.254 390.754V386.697H128.254V390.754H127.254ZM224.746 394.811V398.868H223.746V394.811H224.746ZM127.254 398.868V394.811H128.254V398.868H127.254ZM127.254 406.982V402.925H128.254V406.982H127.254ZM224.746 402.925V406.982H223.746V402.925H224.746ZM127.254 415.096V411.039H128.254V415.096H127.254ZM224.746 411.039V415.096H223.746V411.039H224.746ZM127.254 419.153H128.254V420.681H129.764V421.681H127.254V419.153ZM224.746 419.153V421.681H222.236V420.681H223.746V419.153H224.746ZM137.805 421.681H133.785V420.681H137.805V421.681ZM145.846 421.681H141.826V420.681H145.846V421.681ZM153.887 421.681H149.867V420.681H153.887V421.681ZM161.928 421.681H157.908V420.681H161.928V421.681ZM169.969 421.681H165.949V420.681H169.969V421.681ZM178.01 421.681H173.99V420.681H178.01V421.681ZM186.051 421.681H182.031V420.681H186.051V421.681ZM194.092 421.681H190.072V420.681H194.092V421.681ZM202.133 421.681H198.113V420.681H202.133V421.681ZM210.174 421.681H206.154V420.681H210.174V421.681ZM218.215 421.681H214.195V420.681H218.215V421.681Z" fill="#0B0E29"/>
<path fill-rule="evenodd" clip-rule="evenodd" d="M126.754 322.812H149.761V324.812H128.754V346.019H126.754V322.812Z" fill="#0B0E29"/>
<path fill-rule="evenodd" clip-rule="evenodd" d="M126.754 422.188H149.761V420.188H128.754V398.981H126.754V422.188Z" fill="#0B0E29"/>
<path fill-rule="evenodd" clip-rule="evenodd" d="M225.242 322.812H202.235V324.812H223.242V346.019H225.242V322.812Z" fill="#0B0E29"/>
<path fill-rule="evenodd" clip-rule="evenodd" d="M225.242 422.188H202.235V420.188H223.242V398.981H225.242V422.188Z" fill="#0B0E29"/>
<path d="M162.769 400.711C162.769 402.092 161.65 403.211 160.269 403.211C158.889 403.211 157.77 402.092 157.77 400.711C157.77 399.33 158.889 398.211 160.269 398.211C161.65 398.211 162.769 399.33 162.769 400.711Z" fill="#0B0E29"/>
<path d="M182.999 409.5C182.999 410.881 181.88 412 180.5 412C179.119 412 178 410.881 178 409.5C178 408.119 179.119 407 180.5 407C181.88 407 182.999 408.119 182.999 409.5Z" fill="#0B0E29"/>
<path d="M191.999 406.5C191.999 407.881 190.88 409 189.5 409C188.119 409 187 407.881 187 406.5C187 405.119 188.119 404 189.5 404C190.88 404 191.999 405.119 191.999 406.5Z" fill="#0B0E29"/>
<path d="M172.999 408.5C172.999 409.881 171.88 411 170.5 411C169.119 411 168 409.881 168 408.5C168 407.119 169.119 406 170.5 406C171.88 406 172.999 407.119 172.999 408.5Z" fill="#0B0E29"/>
<path d="M151.999 372.5C151.999 373.881 150.88 375 149.5 375C148.119 375 147 373.881 147 372.5C147 371.119 148.119 370 149.5 370C150.88 370 151.999 371.119 151.999 372.5Z" fill="#0B0E29"/>
<path fill-rule="evenodd" clip-rule="evenodd" d="M295.5 170.5H298V171.5H296.5V173.031H295.5V170.5ZM302 170.5H306V171.5H302V170.5ZM310 170.5H314V171.5H310V170.5ZM318 170.5H322V171.5H318V170.5ZM326 170.5H330V171.5H326V170.5ZM334 170.5H338V171.5H334V170.5ZM342 170.5H346V171.5H342V170.5ZM350 170.5H354V171.5H350V170.5ZM358 170.5H360.5V173.031H359.5V171.5H358V170.5ZM295.5 181.156V177.094H296.5V181.156H295.5ZM360.5 177.094V181.156H359.5V177.094H360.5ZM295.5 189.281V185.219H296.5V189.281H295.5ZM360.5 185.219V189.281H359.5V185.219H360.5ZM295.5 197.406V193.344H296.5V197.406H295.5ZM360.5 193.344V197.406H359.5V193.344H360.5ZM295.5 205.531V201.469H296.5V205.531H295.5ZM360.5 201.469V205.531H359.5V201.469H360.5ZM295.5 213.656V209.594H296.5V213.656H295.5ZM360.5 209.594V213.656H359.5V209.594H360.5ZM295.5 221.781V217.719H296.5V221.781H295.5ZM360.5 217.719V221.781H359.5V217.719H360.5ZM295.5 229.906V225.844H296.5V229.906H295.5ZM360.5 225.844V229.906H359.5V225.844H360.5ZM295.5 233.969H296.5V235.5H298V236.5H295.5V233.969ZM360.5 233.969V236.5H358V235.5H359.5V233.969H360.5ZM306 236.5H302V235.5H306V236.5ZM314 236.5H310V235.5H314V236.5ZM322 236.5H318V235.5H322V236.5ZM330 236.5H326V235.5H330V236.5ZM338 236.5H334V235.5H338V236.5ZM346 236.5H342V235.5H346V236.5ZM354 236.5H350V235.5H354V236.5Z" fill="#0B0E29"/>
<path fill-rule="evenodd" clip-rule="evenodd" d="M295 170H311V172H297V186H295V170Z" fill="#0B0E29"/>
<path fill-rule="evenodd" clip-rule="evenodd" d="M295 237H311V235H297V221H295V237Z" fill="#0B0E29"/>
<path fill-rule="evenodd" clip-rule="evenodd" d="M361 170H345V172H359V186H361V170Z" fill="#0B0E29"/>
<path fill-rule="evenodd" clip-rule="evenodd" d="M361 237H345V235H359V221H361V237Z" fill="#0B0E29"/>
<path d="M333 202.5C333 203.881 331.881 205 330.5 205C329.119 205 328 203.881 328 202.5C328 201.119 329.119 200 330.5 200C331.881 200 333 201.119 333 202.5Z" fill="#0B0E29"/>
<path fill-rule="evenodd" clip-rule="evenodd" d="M378.961 324.023H381.653V325.023H379.961V326.771H378.961V324.023ZM386.038 324.023H390.422V325.023H386.038V324.023ZM394.807 324.023H399.192V325.023H394.807V324.023ZM403.576 324.023H407.961V325.023H403.576V324.023ZM412.346 324.023H415.038V326.771H414.038V325.023H412.346V324.023ZM378.961 335.759V331.265H379.961V335.759H378.961ZM415.038 331.265V335.759H414.038V331.265H415.038ZM378.961 344.747V340.253H379.961V344.747H378.961ZM415.038 340.253V344.747H414.038V340.253H415.038ZM378.961 353.736V349.242H379.961V353.736H378.961ZM415.038 349.242V353.736H414.038V349.242H415.038ZM378.961 358.23H379.961V359.977H381.653V360.977H378.961V358.23ZM415.038 358.23V360.977H412.346V359.977H414.038V358.23H415.038ZM390.422 360.977H386.038V359.977H390.422V360.977ZM399.192 360.977H394.807V359.977H399.192V360.977ZM407.961 360.977H403.576V359.977H407.961V360.977Z" fill="#0B0E29"/>
<path fill-rule="evenodd" clip-rule="evenodd" d="M378.461 323.523H387.461V325.523H380.461V332.723H378.461V323.523Z" fill="#0B0E29"/>
<path fill-rule="evenodd" clip-rule="evenodd" d="M378.461 361.477H387.461V359.477H380.461V352.277H378.461V361.477Z" fill="#0B0E29"/>
<path fill-rule="evenodd" clip-rule="evenodd" d="M415.539 323.523H406.539V325.523H413.539V332.723H415.539V323.523Z" fill="#0B0E29"/>
<path fill-rule="evenodd" clip-rule="evenodd" d="M415.539 361.477H406.539V359.477H413.539V352.277H415.539V361.477Z" fill="#0B0E29"/>
<path d="M400 343.5C400 344.881 398.881 346 397.5 346C396.119 346 395 344.881 395 343.5C395 342.119 396.119 341 397.5 341C398.881 341 400 342.119 400 343.5Z" fill="#0B0E29"/>
<path fill-rule="evenodd" clip-rule="evenodd" d="M369.293 202L371.146 200.146L371.854 200.853L370 202.707L369.293 202ZM374.146 197.146L377.146 194.146L377.854 194.853L374.854 197.853L374.146 197.146ZM380.146 191.146L383.146 188.146L383.854 188.853L380.854 191.853L380.146 191.146ZM386.146 185.146L389.146 182.146L389.854 182.853L386.854 185.853L386.146 185.146ZM392.146 179.146L395.146 176.146L395.854 176.853L392.854 179.853L392.146 179.146ZM398.146 173.146L399.646 171.646L400.354 172.353L398.854 173.853L398.146 173.146Z" fill="#0B0E29"/>
<path d="M409.08 175V166.624H414.36V167.5H410.088V170.32H414V171.196H410.088V175H409.08Z" fill="black"/>
<path d="M416.119 174.184H417.931V169.624H416.119V168.808H418.891V170.368H418.951C419.079 169.88 419.319 169.5 419.671 169.228C420.031 168.948 420.487 168.808 421.039 168.808H421.903V169.768H420.739C420.187 169.768 419.739 169.928 419.395 170.248C419.059 170.568 418.891 170.988 418.891 171.508V174.184H421.291V175H416.119V174.184Z" fill="black"/>
<path d="M426.099 175.144C425.651 175.144 425.247 175.068 424.887 174.916C424.535 174.764 424.231 174.548 423.975 174.268C423.727 173.98 423.535 173.64 423.399 173.248C423.263 172.848 423.195 172.404 423.195 171.916C423.195 171.42 423.263 170.972 423.399 170.572C423.543 170.172 423.739 169.832 423.987 169.552C424.235 169.264 424.531 169.044 424.875 168.892C425.227 168.74 425.615 168.664 426.039 168.664C426.455 168.664 426.831 168.74 427.167 168.892C427.511 169.044 427.803 169.256 428.043 169.528C428.283 169.792 428.467 170.108 428.595 170.476C428.723 170.844 428.787 171.248 428.787 171.688V172.144H424.203V172.432C424.203 172.704 424.247 172.956 424.335 173.188C424.423 173.42 424.547 173.62 424.707 173.788C424.875 173.956 425.075 174.088 425.307 174.184C425.547 174.272 425.811 174.316 426.099 174.316C426.515 174.316 426.875 174.22 427.179 174.028C427.483 173.836 427.715 173.572 427.875 173.236L428.583 173.716C428.399 174.132 428.091 174.476 427.659 174.748C427.235 175.012 426.715 175.144 426.099 175.144ZM426.039 169.456C425.775 169.456 425.531 169.504 425.307 169.6C425.083 169.696 424.887 169.828 424.719 169.996C424.559 170.164 424.431 170.364 424.335 170.596C424.247 170.82 424.203 171.068 424.203 171.34V171.424H427.755V171.292C427.755 171.02 427.711 170.772 427.623 170.548C427.543 170.324 427.427 170.132 427.275 169.972C427.131 169.804 426.951 169.676 426.735 169.588C426.527 169.5 426.295 169.456 426.039 169.456Z" fill="black"/>
<path d="M433.402 175.144C432.954 175.144 432.554 175.068 432.202 174.916C431.858 174.756 431.566 174.536 431.326 174.256C431.086 173.976 430.902 173.636 430.774 173.236C430.654 172.836 430.594 172.392 430.594 171.904C430.594 171.416 430.658 170.972 430.786 170.572C430.914 170.172 431.098 169.832 431.338 169.552C431.578 169.264 431.87 169.044 432.214 168.892C432.558 168.74 432.95 168.664 433.39 168.664C433.99 168.664 434.478 168.796 434.854 169.06C435.23 169.324 435.506 169.668 435.682 170.092L434.914 170.5C434.802 170.18 434.614 169.932 434.35 169.756C434.094 169.58 433.774 169.492 433.39 169.492C433.11 169.492 432.858 169.54 432.634 169.636C432.418 169.724 432.234 169.852 432.082 170.02C431.93 170.188 431.814 170.388 431.734 170.62C431.662 170.852 431.626 171.104 431.626 171.376V172.432C431.626 172.704 431.662 172.956 431.734 173.188C431.814 173.42 431.93 173.62 432.082 173.788C432.234 173.956 432.422 174.088 432.646 174.184C432.87 174.272 433.126 174.316 433.414 174.316C433.83 174.316 434.174 174.22 434.446 174.028C434.718 173.836 434.934 173.572 435.094 173.236L435.778 173.704C435.594 174.12 435.306 174.464 434.914 174.736C434.53 175.008 434.026 175.144 433.402 175.144Z" fill="black"/>
<path d="M441.845 173.992H441.797C441.733 174.144 441.653 174.292 441.557 174.436C441.461 174.572 441.341 174.692 441.197 174.796C441.061 174.9 440.897 174.984 440.705 175.048C440.513 175.112 440.289 175.144 440.033 175.144C439.385 175.144 438.865 174.94 438.473 174.532C438.081 174.116 437.885 173.532 437.885 172.78V168.808H438.845V172.612C438.845 173.18 438.969 173.604 439.217 173.884C439.465 174.156 439.829 174.292 440.309 174.292C440.501 174.292 440.689 174.268 440.873 174.22C441.057 174.172 441.221 174.1 441.365 174.004C441.509 173.908 441.625 173.788 441.713 173.644C441.801 173.492 441.845 173.312 441.845 173.104V168.808H442.805V175H441.845V173.992Z" fill="black"/>
<path d="M447.685 175.144C447.237 175.144 446.833 175.068 446.473 174.916C446.121 174.764 445.817 174.548 445.561 174.268C445.313 173.98 445.121 173.64 444.985 173.248C444.849 172.848 444.781 172.404 444.781 171.916C444.781 171.42 444.849 170.972 444.985 170.572C445.129 170.172 445.325 169.832 445.573 169.552C445.821 169.264 446.117 169.044 446.461 168.892C446.813 168.74 447.201 168.664 447.625 168.664C448.041 168.664 448.417 168.74 448.753 168.892C449.097 169.044 449.389 169.256 449.629 169.528C449.869 169.792 450.053 170.108 450.181 170.476C450.309 170.844 450.373 171.248 450.373 171.688V172.144H445.789V172.432C445.789 172.704 445.833 172.956 445.921 173.188C446.009 173.42 446.133 173.62 446.293 173.788C446.461 173.956 446.661 174.088 446.893 174.184C447.133 174.272 447.397 174.316 447.685 174.316C448.101 174.316 448.461 174.22 448.765 174.028C449.069 173.836 449.301 173.572 449.461 173.236L450.169 173.716C449.985 174.132 449.677 174.476 449.245 174.748C448.821 175.012 448.301 175.144 447.685 175.144ZM447.625 169.456C447.361 169.456 447.117 169.504 446.893 169.6C446.669 169.696 446.473 169.828 446.305 169.996C446.145 170.164 446.017 170.364 445.921 170.596C445.833 170.82 445.789 171.068 445.789 171.34V171.424H449.341V171.292C449.341 171.02 449.297 170.772 449.209 170.548C449.129 170.324 449.013 170.132 448.861 169.972C448.717 169.804 448.537 169.676 448.321 169.588C448.113 169.5 447.881 169.456 447.625 169.456Z" fill="black"/>
<path d="M452.348 175V168.808H453.308V169.816H453.356C453.42 169.664 453.5 169.52 453.596 169.384C453.692 169.24 453.808 169.116 453.944 169.012C454.088 168.908 454.256 168.824 454.448 168.76C454.64 168.696 454.864 168.664 455.12 168.664C455.768 168.664 456.288 168.872 456.68 169.288C457.072 169.696 457.268 170.276 457.268 171.028V175H456.308V171.196C456.308 170.628 456.184 170.208 455.936 169.936C455.688 169.656 455.324 169.516 454.844 169.516C454.652 169.516 454.464 169.54 454.28 169.588C454.096 169.636 453.932 169.708 453.788 169.804C453.644 169.9 453.528 170.024 453.44 170.176C453.352 170.328 453.308 170.504 453.308 170.704V175H452.348Z" fill="black"/>
<path d="M462.183 175.144C461.735 175.144 461.335 175.068 460.983 174.916C460.639 174.756 460.347 174.536 460.107 174.256C459.867 173.976 459.683 173.636 459.555 173.236C459.435 172.836 459.375 172.392 459.375 171.904C459.375 171.416 459.439 170.972 459.567 170.572C459.695 170.172 459.879 169.832 460.119 169.552C460.359 169.264 460.651 169.044 460.995 168.892C461.339 168.74 461.731 168.664 462.171 168.664C462.771 168.664 463.259 168.796 463.635 169.06C464.011 169.324 464.287 169.668 464.463 170.092L463.695 170.5C463.583 170.18 463.395 169.932 463.131 169.756C462.875 169.58 462.555 169.492 462.171 169.492C461.891 169.492 461.639 169.54 461.415 169.636C461.199 169.724 461.015 169.852 460.863 170.02C460.711 170.188 460.595 170.388 460.515 170.62C460.443 170.852 460.407 171.104 460.407 171.376V172.432C460.407 172.704 460.443 172.956 460.515 173.188C460.595 173.42 460.711 173.62 460.863 173.788C461.015 173.956 461.203 174.088 461.427 174.184C461.651 174.272 461.907 174.316 462.195 174.316C462.611 174.316 462.955 174.22 463.227 174.028C463.499 173.836 463.715 173.572 463.875 173.236L464.559 173.704C464.375 174.12 464.087 174.464 463.695 174.736C463.311 175.008 462.807 175.144 462.183 175.144Z" fill="black"/>
<path d="M469.547 167.44C469.267 167.44 469.071 167.384 468.959 167.272C468.847 167.152 468.791 167.004 468.791 166.828V166.636C468.791 166.46 468.847 166.316 468.959 166.204C469.071 166.084 469.267 166.024 469.547 166.024C469.827 166.024 470.023 166.084 470.135 166.204C470.247 166.316 470.303 166.46 470.303 166.636V166.828C470.303 167.004 470.247 167.152 470.135 167.272C470.023 167.384 469.827 167.44 469.547 167.44ZM466.835 174.184H469.067V169.624H466.835V168.808H470.027V174.184H472.115V175H466.835V174.184Z" fill="black"/>
<path d="M478.698 175C478.322 175 478.054 174.904 477.894 174.712C477.734 174.52 477.634 174.28 477.594 173.992H477.534C477.398 174.352 477.178 174.636 476.874 174.844C476.578 175.044 476.178 175.144 475.674 175.144C475.026 175.144 474.51 174.976 474.126 174.64C473.742 174.304 473.55 173.844 473.55 173.26C473.55 172.684 473.758 172.24 474.174 171.928C474.598 171.616 475.278 171.46 476.214 171.46H477.534V170.848C477.534 170.392 477.406 170.052 477.15 169.828C476.894 169.596 476.53 169.48 476.058 169.48C475.642 169.48 475.302 169.564 475.038 169.732C474.774 169.892 474.562 170.112 474.402 170.392L473.754 169.912C473.834 169.752 473.942 169.596 474.078 169.444C474.214 169.292 474.382 169.16 474.582 169.048C474.782 168.928 475.01 168.836 475.266 168.772C475.522 168.7 475.806 168.664 476.118 168.664C476.846 168.664 477.422 168.848 477.846 169.216C478.278 169.584 478.494 170.096 478.494 170.752V174.16H479.358V175H478.698ZM475.842 174.34C476.09 174.34 476.314 174.312 476.514 174.256C476.722 174.192 476.902 174.112 477.054 174.016C477.206 173.912 477.322 173.792 477.402 173.656C477.49 173.512 477.534 173.36 477.534 173.2V172.18H476.214C475.638 172.18 475.218 172.26 474.954 172.42C474.69 172.58 474.558 172.812 474.558 173.116V173.368C474.558 173.688 474.67 173.932 474.894 174.1C475.126 174.26 475.442 174.34 475.842 174.34Z" fill="black"/>
<path d="M490.965 175.144C490.517 175.144 490.117 175.068 489.765 174.916C489.421 174.756 489.129 174.536 488.889 174.256C488.649 173.976 488.465 173.636 488.337 173.236C488.217 172.836 488.157 172.392 488.157 171.904C488.157 171.416 488.221 170.972 488.349 170.572C488.477 170.172 488.661 169.832 488.901 169.552C489.141 169.264 489.433 169.044 489.777 168.892C490.121 168.74 490.513 168.664 490.953 168.664C491.553 168.664 492.041 168.796 492.417 169.06C492.793 169.324 493.069 169.668 493.245 170.092L492.477 170.5C492.365 170.18 492.177 169.932 491.913 169.756C491.657 169.58 491.337 169.492 490.953 169.492C490.673 169.492 490.421 169.54 490.197 169.636C489.981 169.724 489.797 169.852 489.645 170.02C489.493 170.188 489.377 170.388 489.297 170.62C489.225 170.852 489.189 171.104 489.189 171.376V172.432C489.189 172.704 489.225 172.956 489.297 173.188C489.377 173.42 489.493 173.62 489.645 173.788C489.797 173.956 489.985 174.088 490.209 174.184C490.433 174.272 490.689 174.316 490.977 174.316C491.393 174.316 491.737 174.22 492.009 174.028C492.281 173.836 492.497 173.572 492.657 173.236L493.341 173.704C493.157 174.12 492.869 174.464 492.477 174.736C492.093 175.008 491.589 175.144 490.965 175.144Z" fill="black"/>
<path d="M500.284 175C499.908 175 499.64 174.904 499.48 174.712C499.32 174.52 499.22 174.28 499.18 173.992H499.12C498.984 174.352 498.764 174.636 498.46 174.844C498.164 175.044 497.764 175.144 497.26 175.144C496.612 175.144 496.096 174.976 495.712 174.64C495.328 174.304 495.136 173.844 495.136 173.26C495.136 172.684 495.344 172.24 495.76 171.928C496.184 171.616 496.864 171.46 497.8 171.46H499.12V170.848C499.12 170.392 498.992 170.052 498.736 169.828C498.48 169.596 498.116 169.48 497.644 169.48C497.228 169.48 496.888 169.564 496.624 169.732C496.36 169.892 496.148 170.112 495.988 170.392L495.34 169.912C495.42 169.752 495.528 169.596 495.664 169.444C495.8 169.292 495.968 169.16 496.168 169.048C496.368 168.928 496.596 168.836 496.852 168.772C497.108 168.7 497.392 168.664 497.704 168.664C498.432 168.664 499.008 168.848 499.432 169.216C499.864 169.584 500.08 170.096 500.08 170.752V174.16H500.944V175H500.284ZM497.428 174.34C497.676 174.34 497.9 174.312 498.1 174.256C498.308 174.192 498.488 174.112 498.64 174.016C498.792 173.912 498.908 173.792 498.988 173.656C499.076 173.512 499.12 173.36 499.12 173.2V172.18H497.8C497.224 172.18 496.804 172.26 496.54 172.42C496.276 172.58 496.144 172.812 496.144 173.116V173.368C496.144 173.688 496.256 173.932 496.48 174.1C496.712 174.26 497.028 174.34 497.428 174.34Z" fill="black"/>
<path d="M502.463 174.184H504.275V169.624H502.463V168.808H505.235V170.368H505.295C505.423 169.88 505.663 169.5 506.015 169.228C506.375 168.948 506.831 168.808 507.383 168.808H508.247V169.768H507.083C506.531 169.768 506.083 169.928 505.739 170.248C505.403 170.568 505.235 170.988 505.235 171.508V174.184H507.635V175H502.463V174.184Z" fill="black"/>
<path d="M513.834 173.992H513.786C513.386 174.76 512.75 175.144 511.878 175.144C511.118 175.144 510.522 174.86 510.09 174.292C509.666 173.724 509.454 172.928 509.454 171.904C509.454 170.88 509.666 170.084 510.09 169.516C510.522 168.948 511.118 168.664 511.878 168.664C512.75 168.664 513.386 169.048 513.786 169.816H513.834V166.12H514.794V175H513.834V173.992ZM512.25 174.292C512.466 174.292 512.67 174.264 512.862 174.208C513.054 174.152 513.222 174.072 513.366 173.968C513.51 173.856 513.622 173.724 513.702 173.572C513.79 173.412 513.834 173.228 513.834 173.02V170.788C513.834 170.58 513.79 170.4 513.702 170.248C513.622 170.088 513.51 169.956 513.366 169.852C513.222 169.74 513.054 169.656 512.862 169.6C512.67 169.544 512.466 169.516 512.25 169.516C511.69 169.516 511.254 169.688 510.942 170.032C510.638 170.368 510.486 170.816 510.486 171.376V172.432C510.486 172.992 510.638 173.444 510.942 173.788C511.254 174.124 511.69 174.292 512.25 174.292Z" fill="black"/>
<path d="M519.914 167.44C519.634 167.44 519.438 167.384 519.326 167.272C519.214 167.152 519.158 167.004 519.158 166.828V166.636C519.158 166.46 519.214 166.316 519.326 166.204C519.438 166.084 519.634 166.024 519.914 166.024C520.194 166.024 520.39 166.084 520.502 166.204C520.614 166.316 520.67 166.46 520.67 166.636V166.828C520.67 167.004 520.614 167.152 520.502 167.272C520.39 167.384 520.194 167.44 519.914 167.44ZM517.202 174.184H519.434V169.624H517.202V168.808H520.394V174.184H522.482V175H517.202V174.184Z" fill="black"/>
<path d="M529.065 175C528.689 175 528.421 174.904 528.261 174.712C528.101 174.52 528.001 174.28 527.961 173.992H527.901C527.765 174.352 527.545 174.636 527.241 174.844C526.945 175.044 526.545 175.144 526.041 175.144C525.393 175.144 524.877 174.976 524.493 174.64C524.109 174.304 523.917 173.844 523.917 173.26C523.917 172.684 524.125 172.24 524.541 171.928C524.965 171.616 525.645 171.46 526.581 171.46H527.901V170.848C527.901 170.392 527.773 170.052 527.517 169.828C527.261 169.596 526.897 169.48 526.425 169.48C526.009 169.48 525.669 169.564 525.405 169.732C525.141 169.892 524.929 170.112 524.769 170.392L524.121 169.912C524.201 169.752 524.309 169.596 524.445 169.444C524.581 169.292 524.749 169.16 524.949 169.048C525.149 168.928 525.377 168.836 525.633 168.772C525.889 168.7 526.173 168.664 526.485 168.664C527.213 168.664 527.789 168.848 528.213 169.216C528.645 169.584 528.861 170.096 528.861 170.752V174.16H529.725V175H529.065ZM526.209 174.34C526.457 174.34 526.681 174.312 526.881 174.256C527.089 174.192 527.269 174.112 527.421 174.016C527.573 173.912 527.689 173.792 527.769 173.656C527.857 173.512 527.901 173.36 527.901 173.2V172.18H526.581C526.005 172.18 525.585 172.26 525.321 172.42C525.057 172.58 524.925 172.812 524.925 173.116V173.368C524.925 173.688 525.037 173.932 525.261 174.1C525.493 174.26 525.809 174.34 526.209 174.34Z" fill="black"/>
<path d="M534.136 175.144C533.688 175.144 533.288 175.068 532.936 174.916C532.592 174.756 532.3 174.536 532.06 174.256C531.82 173.976 531.636 173.636 531.508 173.236C531.388 172.836 531.328 172.392 531.328 171.904C531.328 171.416 531.392 170.972 531.52 170.572C531.648 170.172 531.832 169.832 532.072 169.552C532.312 169.264 532.604 169.044 532.948 168.892C533.292 168.74 533.684 168.664 534.124 168.664C534.724 168.664 535.212 168.796 535.588 169.06C535.964 169.324 536.24 169.668 536.416 170.092L535.648 170.5C535.536 170.18 535.348 169.932 535.084 169.756C534.828 169.58 534.508 169.492 534.124 169.492C533.844 169.492 533.592 169.54 533.368 169.636C533.152 169.724 532.968 169.852 532.816 170.02C532.664 170.188 532.548 170.388 532.468 170.62C532.396 170.852 532.36 171.104 532.36 171.376V172.432C532.36 172.704 532.396 172.956 532.468 173.188C532.548 173.42 532.664 173.62 532.816 173.788C532.968 173.956 533.156 174.088 533.38 174.184C533.604 174.272 533.86 174.316 534.148 174.316C534.564 174.316 534.908 174.22 535.18 174.028C535.452 173.836 535.668 173.572 535.828 173.236L536.512 173.704C536.328 174.12 536.04 174.464 535.648 174.736C535.264 175.008 534.76 175.144 534.136 175.144Z" fill="black"/>
<path d="M543.456 175C543.08 175 542.812 174.904 542.652 174.712C542.492 174.52 542.392 174.28 542.352 173.992H542.292C542.156 174.352 541.936 174.636 541.632 174.844C541.336 175.044 540.936 175.144 540.432 175.144C539.784 175.144 539.268 174.976 538.884 174.64C538.5 174.304 538.308 173.844 538.308 173.26C538.308 172.684 538.516 172.24 538.932 171.928C539.356 171.616 540.036 171.46 540.972 171.46H542.292V170.848C542.292 170.392 542.164 170.052 541.908 169.828C541.652 169.596 541.288 169.48 540.816 169.48C540.4 169.48 540.06 169.564 539.796 169.732C539.532 169.892 539.32 170.112 539.16 170.392L538.512 169.912C538.592 169.752 538.7 169.596 538.836 169.444C538.972 169.292 539.14 169.16 539.34 169.048C539.54 168.928 539.768 168.836 540.024 168.772C540.28 168.7 540.564 168.664 540.876 168.664C541.604 168.664 542.18 168.848 542.604 169.216C543.036 169.584 543.252 170.096 543.252 170.752V174.16H544.116V175H543.456ZM540.6 174.34C540.848 174.34 541.072 174.312 541.272 174.256C541.48 174.192 541.66 174.112 541.812 174.016C541.964 173.912 542.08 173.792 542.16 173.656C542.248 173.512 542.292 173.36 542.292 173.2V172.18H540.972C540.396 172.18 539.976 172.26 539.712 172.42C539.448 172.58 539.316 172.812 539.316 173.116V173.368C539.316 173.688 539.428 173.932 539.652 174.1C539.884 174.26 540.2 174.34 540.6 174.34Z" fill="black"/>
<path fill-rule="evenodd" clip-rule="evenodd" d="M233.707 92.0001L231.854 93.8536L231.146 93.1465L233 91.293L233.707 92.0001ZM228.854 96.8536L225.854 99.8536L225.146 99.1465L228.146 96.1465L228.854 96.8536ZM222.854 102.854L219.854 105.854L219.146 105.147L222.146 102.147L222.854 102.854ZM216.854 108.854L213.854 111.854L213.146 111.147L216.146 108.147L216.854 108.854ZM210.854 114.854L207.854 117.854L207.146 117.147L210.146 114.147L210.854 114.854ZM204.854 120.854L203.354 122.354L202.646 121.647L204.146 120.147L204.854 120.854Z" fill="#0B0E29"/>
<path d="M45.0881 127H44.0801V118.624H47.1281C47.9041 118.624 48.4961 118.836 48.9041 119.26C49.3121 119.684 49.5161 120.276 49.5161 121.036C49.5161 121.716 49.3401 122.26 48.9881 122.668C48.6361 123.076 48.1241 123.312 47.4521 123.376L49.5881 127H48.4601L46.4201 123.424H45.0881V127ZM47.1041 122.572C47.5281 122.572 47.8561 122.468 48.0881 122.26C48.3281 122.044 48.4481 121.74 48.4481 121.348V120.724C48.4481 120.332 48.3281 120.032 48.0881 119.824C47.8561 119.608 47.5281 119.5 47.1041 119.5H45.0881V122.572H47.1041Z" fill="black"/>
<path d="M53.9034 127.144C53.4554 127.144 53.0514 127.068 52.6914 126.916C52.3394 126.764 52.0354 126.548 51.7794 126.268C51.5314 125.98 51.3394 125.64 51.2034 125.248C51.0674 124.848 50.9994 124.404 50.9994 123.916C50.9994 123.42 51.0674 122.972 51.2034 122.572C51.3474 122.172 51.5434 121.832 51.7914 121.552C52.0394 121.264 52.3354 121.044 52.6794 120.892C53.0314 120.74 53.4194 120.664 53.8434 120.664C54.2594 120.664 54.6354 120.74 54.9714 120.892C55.3154 121.044 55.6074 121.256 55.8474 121.528C56.0874 121.792 56.2714 122.108 56.3994 122.476C56.5274 122.844 56.5914 123.248 56.5914 123.688V124.144H52.0074V124.432C52.0074 124.704 52.0514 124.956 52.1394 125.188C52.2274 125.42 52.3514 125.62 52.5114 125.788C52.6794 125.956 52.8794 126.088 53.1114 126.184C53.3514 126.272 53.6154 126.316 53.9034 126.316C54.3194 126.316 54.6794 126.22 54.9834 126.028C55.2874 125.836 55.5194 125.572 55.6794 125.236L56.3874 125.716C56.2034 126.132 55.8954 126.476 55.4634 126.748C55.0394 127.012 54.5194 127.144 53.9034 127.144ZM53.8434 121.456C53.5794 121.456 53.3354 121.504 53.1114 121.6C52.8874 121.696 52.6914 121.828 52.5234 121.996C52.3634 122.164 52.2354 122.364 52.1394 122.596C52.0514 122.82 52.0074 123.068 52.0074 123.34V123.424H55.5594V123.292C55.5594 123.02 55.5154 122.772 55.4274 122.548C55.3474 122.324 55.2314 122.132 55.0794 121.972C54.9354 121.804 54.7554 121.676 54.5394 121.588C54.3314 121.5 54.0994 121.456 53.8434 121.456Z" fill="black"/>
<path d="M61.2067 127.144C60.7587 127.144 60.3587 127.068 60.0067 126.916C59.6627 126.756 59.3707 126.536 59.1307 126.256C58.8907 125.976 58.7067 125.636 58.5787 125.236C58.4587 124.836 58.3987 124.392 58.3987 123.904C58.3987 123.416 58.4627 122.972 58.5907 122.572C58.7187 122.172 58.9027 121.832 59.1427 121.552C59.3827 121.264 59.6747 121.044 60.0187 120.892C60.3627 120.74 60.7547 120.664 61.1947 120.664C61.7947 120.664 62.2827 120.796 62.6587 121.06C63.0347 121.324 63.3107 121.668 63.4867 122.092L62.7187 122.5C62.6067 122.18 62.4187 121.932 62.1547 121.756C61.8987 121.58 61.5787 121.492 61.1947 121.492C60.9147 121.492 60.6627 121.54 60.4387 121.636C60.2227 121.724 60.0387 121.852 59.8867 122.02C59.7347 122.188 59.6187 122.388 59.5387 122.62C59.4667 122.852 59.4307 123.104 59.4307 123.376V124.432C59.4307 124.704 59.4667 124.956 59.5387 125.188C59.6187 125.42 59.7347 125.62 59.8867 125.788C60.0387 125.956 60.2267 126.088 60.4507 126.184C60.6747 126.272 60.9307 126.316 61.2187 126.316C61.6347 126.316 61.9787 126.22 62.2507 126.028C62.5227 125.836 62.7387 125.572 62.8987 125.236L63.5827 125.704C63.3987 126.12 63.1107 126.464 62.7187 126.736C62.3347 127.008 61.8307 127.144 61.2067 127.144Z" fill="black"/>
<path d="M68.186 127.144C67.754 127.144 67.362 127.068 67.01 126.916C66.666 126.764 66.37 126.548 66.122 126.268C65.882 125.98 65.698 125.64 65.57 125.248C65.442 124.848 65.378 124.4 65.378 123.904C65.378 123.416 65.442 122.972 65.57 122.572C65.698 122.172 65.882 121.832 66.122 121.552C66.37 121.264 66.666 121.044 67.01 120.892C67.362 120.74 67.754 120.664 68.186 120.664C68.618 120.664 69.006 120.74 69.35 120.892C69.702 121.044 69.998 121.264 70.238 121.552C70.486 121.832 70.674 122.172 70.802 122.572C70.93 122.972 70.994 123.416 70.994 123.904C70.994 124.4 70.93 124.848 70.802 125.248C70.674 125.64 70.486 125.98 70.238 126.268C69.998 126.548 69.702 126.764 69.35 126.916C69.006 127.068 68.618 127.144 68.186 127.144ZM68.186 126.316C68.722 126.316 69.154 126.156 69.482 125.836C69.81 125.516 69.974 125.02 69.974 124.348V123.46C69.974 122.788 69.81 122.292 69.482 121.972C69.154 121.652 68.722 121.492 68.186 121.492C67.65 121.492 67.218 121.652 66.89 121.972C66.562 122.292 66.398 122.788 66.398 123.46V124.348C66.398 125.02 66.562 125.516 66.89 125.836C67.218 126.156 67.65 126.316 68.186 126.316Z" fill="black"/>
<path d="M72.9573 127V120.808H73.9173V121.816H73.9653C74.0293 121.664 74.1093 121.52 74.2053 121.384C74.3013 121.24 74.4173 121.116 74.5533 121.012C74.6973 120.908 74.8653 120.824 75.0573 120.76C75.2493 120.696 75.4733 120.664 75.7293 120.664C76.3773 120.664 76.8973 120.872 77.2893 121.288C77.6813 121.696 77.8773 122.276 77.8773 123.028V127H76.9173V123.196C76.9173 122.628 76.7933 122.208 76.5453 121.936C76.2973 121.656 75.9333 121.516 75.4533 121.516C75.2613 121.516 75.0733 121.54 74.8893 121.588C74.7053 121.636 74.5413 121.708 74.3973 121.804C74.2533 121.9 74.1373 122.024 74.0493 122.176C73.9613 122.328 73.9173 122.504 73.9173 122.704V127H72.9573Z" fill="black"/>
<path d="M82.5766 127.144C82.1446 127.144 81.7526 127.068 81.4006 126.916C81.0566 126.764 80.7606 126.548 80.5126 126.268C80.2726 125.98 80.0886 125.64 79.9606 125.248C79.8326 124.848 79.7686 124.4 79.7686 123.904C79.7686 123.416 79.8326 122.972 79.9606 122.572C80.0886 122.172 80.2726 121.832 80.5126 121.552C80.7606 121.264 81.0566 121.044 81.4006 120.892C81.7526 120.74 82.1446 120.664 82.5766 120.664C83.0086 120.664 83.3966 120.74 83.7406 120.892C84.0926 121.044 84.3886 121.264 84.6286 121.552C84.8766 121.832 85.0646 122.172 85.1926 122.572C85.3206 122.972 85.3846 123.416 85.3846 123.904C85.3846 124.4 85.3206 124.848 85.1926 125.248C85.0646 125.64 84.8766 125.98 84.6286 126.268C84.3886 126.548 84.0926 126.764 83.7406 126.916C83.3966 127.068 83.0086 127.144 82.5766 127.144ZM82.5766 126.316C83.1126 126.316 83.5446 126.156 83.8726 125.836C84.2006 125.516 84.3646 125.02 84.3646 124.348V123.46C84.3646 122.788 84.2006 122.292 83.8726 121.972C83.5446 121.652 83.1126 121.492 82.5766 121.492C82.0406 121.492 81.6086 121.652 81.2806 121.972C80.9526 122.292 80.7886 122.788 80.7886 123.46V124.348C80.7886 125.02 80.9526 125.516 81.2806 125.836C81.6086 126.156 82.0406 126.316 82.5766 126.316Z" fill="black"/>
<path d="M89.988 127.144C89.54 127.144 89.14 127.068 88.788 126.916C88.444 126.756 88.152 126.536 87.912 126.256C87.672 125.976 87.488 125.636 87.36 125.236C87.24 124.836 87.18 124.392 87.18 123.904C87.18 123.416 87.244 122.972 87.372 122.572C87.5 122.172 87.684 121.832 87.924 121.552C88.164 121.264 88.4559 121.044 88.7999 120.892C89.1439 120.74 89.536 120.664 89.976 120.664C90.576 120.664 91.064 120.796 91.44 121.06C91.816 121.324 92.092 121.668 92.268 122.092L91.5 122.5C91.388 122.18 91.2 121.932 90.936 121.756C90.68 121.58 90.36 121.492 89.976 121.492C89.696 121.492 89.444 121.54 89.22 121.636C89.004 121.724 88.8199 121.852 88.6679 122.02C88.5159 122.188 88.4 122.388 88.32 122.62C88.248 122.852 88.212 123.104 88.212 123.376V124.432C88.212 124.704 88.248 124.956 88.32 125.188C88.4 125.42 88.5159 125.62 88.6679 125.788C88.8199 125.956 89.008 126.088 89.232 126.184C89.456 126.272 89.712 126.316 90 126.316C90.416 126.316 90.76 126.22 91.032 126.028C91.304 125.836 91.52 125.572 91.68 125.236L92.364 125.704C92.18 126.12 91.892 126.464 91.5 126.736C91.116 127.008 90.612 127.144 89.988 127.144Z" fill="black"/>
<path d="M97.3513 119.44C97.0713 119.44 96.8753 119.384 96.7633 119.272C96.6513 119.152 96.5953 119.004 96.5953 118.828V118.636C96.5953 118.46 96.6513 118.316 96.7633 118.204C96.8753 118.084 97.0713 118.024 97.3513 118.024C97.6313 118.024 97.8273 118.084 97.9393 118.204C98.0513 118.316 98.1073 118.46 98.1073 118.636V118.828C98.1073 119.004 98.0513 119.152 97.9393 119.272C97.8273 119.384 97.6313 119.44 97.3513 119.44ZM94.6393 126.184H96.8713V121.624H94.6393V120.808H97.8313V126.184H99.9193V127H94.6393V126.184Z" fill="black"/>
<path d="M101.211 127V120.808H102.099V121.528H102.147C102.243 121.288 102.379 121.084 102.555 120.916C102.731 120.748 102.991 120.664 103.335 120.664C103.695 120.664 103.963 120.756 104.139 120.94C104.315 121.116 104.423 121.348 104.463 121.636H104.499C104.611 121.356 104.771 121.124 104.979 120.94C105.187 120.756 105.475 120.664 105.843 120.664C106.347 120.664 106.683 120.84 106.851 121.192C107.027 121.544 107.115 122.048 107.115 122.704V127H106.227V122.86C106.227 122.332 106.171 121.968 106.059 121.768C105.955 121.56 105.759 121.456 105.471 121.456C105.215 121.456 105.007 121.54 104.847 121.708C104.687 121.868 104.607 122.116 104.607 122.452V127H103.719V122.86C103.719 122.332 103.663 121.968 103.551 121.768C103.447 121.56 103.255 121.456 102.975 121.456C102.719 121.456 102.507 121.54 102.339 121.708C102.179 121.868 102.099 122.116 102.099 122.452V127H101.211Z" fill="black"/>
<path d="M111.742 119.44C111.462 119.44 111.266 119.384 111.154 119.272C111.042 119.152 110.986 119.004 110.986 118.828V118.636C110.986 118.46 111.042 118.316 111.154 118.204C111.266 118.084 111.462 118.024 111.742 118.024C112.022 118.024 112.218 118.084 112.33 118.204C112.442 118.316 112.498 118.46 112.498 118.636V118.828C112.498 119.004 112.442 119.152 112.33 119.272C112.218 119.384 112.022 119.44 111.742 119.44ZM109.03 126.184H111.262V121.624H109.03V120.808H112.222V126.184H114.31V127H109.03V126.184Z" fill="black"/>
<path d="M118.661 127.144C118.213 127.144 117.809 127.068 117.449 126.916C117.097 126.764 116.793 126.548 116.537 126.268C116.289 125.98 116.097 125.64 115.961 125.248C115.825 124.848 115.757 124.404 115.757 123.916C115.757 123.42 115.825 122.972 115.961 122.572C116.105 122.172 116.301 121.832 116.549 121.552C116.797 121.264 117.093 121.044 117.437 120.892C117.789 120.74 118.177 120.664 118.601 120.664C119.017 120.664 119.393 120.74 119.729 120.892C120.073 121.044 120.365 121.256 120.605 121.528C120.845 121.792 121.029 122.108 121.157 122.476C121.285 122.844 121.349 123.248 121.349 123.688V124.144H116.765V124.432C116.765 124.704 116.809 124.956 116.897 125.188C116.985 125.42 117.109 125.62 117.269 125.788C117.437 125.956 117.637 126.088 117.869 126.184C118.109 126.272 118.373 126.316 118.661 126.316C119.077 126.316 119.437 126.22 119.741 126.028C120.045 125.836 120.277 125.572 120.437 125.236L121.145 125.716C120.961 126.132 120.653 126.476 120.221 126.748C119.797 127.012 119.277 127.144 118.661 127.144ZM118.601 121.456C118.337 121.456 118.093 121.504 117.869 121.6C117.645 121.696 117.449 121.828 117.281 121.996C117.121 122.164 116.993 122.364 116.897 122.596C116.809 122.82 116.765 123.068 116.765 123.34V123.424H120.317V123.292C120.317 123.02 120.273 122.772 120.185 122.548C120.105 122.324 119.989 122.132 119.837 121.972C119.693 121.804 119.513 121.676 119.297 121.588C119.089 121.5 118.857 121.456 118.601 121.456Z" fill="black"/>
<path d="M123.325 127V120.808H124.285V121.816H124.333C124.397 121.664 124.477 121.52 124.573 121.384C124.669 121.24 124.785 121.116 124.921 121.012C125.065 120.908 125.233 120.824 125.425 120.76C125.617 120.696 125.841 120.664 126.097 120.664C126.745 120.664 127.265 120.872 127.657 121.288C128.049 121.696 128.245 122.276 128.245 123.028V127H127.285V123.196C127.285 122.628 127.161 122.208 126.913 121.936C126.665 121.656 126.301 121.516 125.821 121.516C125.629 121.516 125.441 121.54 125.257 121.588C125.073 121.636 124.909 121.708 124.765 121.804C124.621 121.9 124.505 122.024 124.417 122.176C124.329 122.328 124.285 122.504 124.285 122.704V127H123.325Z" fill="black"/>
<path d="M133.244 127C132.772 127 132.424 126.868 132.2 126.604C131.984 126.34 131.876 126 131.876 125.584V121.624H129.812V120.808H131.348C131.556 120.808 131.7 120.768 131.78 120.688C131.868 120.6 131.912 120.452 131.912 120.244V118.624H132.836V120.808H135.656V121.624H132.836V126.184H135.656V127H133.244Z" fill="black"/>
<path d="M140.139 127.144C139.707 127.144 139.315 127.068 138.963 126.916C138.619 126.764 138.323 126.548 138.075 126.268C137.835 125.98 137.651 125.64 137.523 125.248C137.395 124.848 137.331 124.4 137.331 123.904C137.331 123.416 137.395 122.972 137.523 122.572C137.651 122.172 137.835 121.832 138.075 121.552C138.323 121.264 138.619 121.044 138.963 120.892C139.315 120.74 139.707 120.664 140.139 120.664C140.571 120.664 140.959 120.74 141.303 120.892C141.655 121.044 141.951 121.264 142.191 121.552C142.439 121.832 142.627 122.172 142.755 122.572C142.883 122.972 142.947 123.416 142.947 123.904C142.947 124.4 142.883 124.848 142.755 125.248C142.627 125.64 142.439 125.98 142.191 126.268C141.951 126.548 141.655 126.764 141.303 126.916C140.959 127.068 140.571 127.144 140.139 127.144ZM140.139 126.316C140.675 126.316 141.107 126.156 141.435 125.836C141.763 125.516 141.927 125.02 141.927 124.348V123.46C141.927 122.788 141.763 122.292 141.435 121.972C141.107 121.652 140.675 121.492 140.139 121.492C139.603 121.492 139.171 121.652 138.843 121.972C138.515 122.292 138.351 122.788 138.351 123.46V124.348C138.351 125.02 138.515 125.516 138.843 125.836C139.171 126.156 139.603 126.316 140.139 126.316Z" fill="black"/>
<path d="M151.926 126.184H154.014V121.624H151.806V120.808H154.014V119.536C154.014 119.12 154.122 118.78 154.338 118.516C154.562 118.252 154.91 118.12 155.382 118.12H157.458V118.936H154.974V120.808H157.458V121.624H154.974V126.184H157.182V127H151.926V126.184Z" fill="black"/>
<path d="M164.065 127C163.689 127 163.421 126.904 163.261 126.712C163.101 126.52 163.001 126.28 162.961 125.992H162.901C162.765 126.352 162.545 126.636 162.241 126.844C161.945 127.044 161.545 127.144 161.041 127.144C160.393 127.144 159.877 126.976 159.493 126.64C159.109 126.304 158.917 125.844 158.917 125.26C158.917 124.684 159.125 124.24 159.541 123.928C159.965 123.616 160.645 123.46 161.581 123.46H162.901V122.848C162.901 122.392 162.773 122.052 162.517 121.828C162.261 121.596 161.897 121.48 161.425 121.48C161.009 121.48 160.669 121.564 160.405 121.732C160.141 121.892 159.929 122.112 159.769 122.392L159.121 121.912C159.201 121.752 159.309 121.596 159.445 121.444C159.581 121.292 159.749 121.16 159.949 121.048C160.149 120.928 160.377 120.836 160.633 120.772C160.889 120.7 161.173 120.664 161.485 120.664C162.213 120.664 162.789 120.848 163.213 121.216C163.645 121.584 163.861 122.096 163.861 122.752V126.16H164.725V127H164.065ZM161.209 126.34C161.457 126.34 161.681 126.312 161.881 126.256C162.089 126.192 162.269 126.112 162.421 126.016C162.573 125.912 162.689 125.792 162.769 125.656C162.857 125.512 162.901 125.36 162.901 125.2V124.18H161.581C161.005 124.18 160.585 124.26 160.321 124.42C160.057 124.58 159.925 124.812 159.925 125.116V125.368C159.925 125.688 160.037 125.932 160.261 126.1C160.493 126.26 160.809 126.34 161.209 126.34Z" fill="black"/>
<path d="M169.136 127.144C168.688 127.144 168.288 127.068 167.936 126.916C167.592 126.756 167.3 126.536 167.06 126.256C166.82 125.976 166.636 125.636 166.508 125.236C166.388 124.836 166.328 124.392 166.328 123.904C166.328 123.416 166.392 122.972 166.52 122.572C166.648 122.172 166.832 121.832 167.072 121.552C167.312 121.264 167.604 121.044 167.948 120.892C168.292 120.74 168.684 120.664 169.124 120.664C169.724 120.664 170.212 120.796 170.588 121.06C170.964 121.324 171.24 121.668 171.416 122.092L170.648 122.5C170.536 122.18 170.348 121.932 170.084 121.756C169.828 121.58 169.508 121.492 169.124 121.492C168.844 121.492 168.592 121.54 168.368 121.636C168.152 121.724 167.968 121.852 167.816 122.02C167.664 122.188 167.548 122.388 167.468 122.62C167.396 122.852 167.36 123.104 167.36 123.376V124.432C167.36 124.704 167.396 124.956 167.468 125.188C167.548 125.42 167.664 125.62 167.816 125.788C167.968 125.956 168.156 126.088 168.38 126.184C168.604 126.272 168.86 126.316 169.148 126.316C169.564 126.316 169.908 126.22 170.18 126.028C170.452 125.836 170.668 125.572 170.828 125.236L171.512 125.704C171.328 126.12 171.04 126.464 170.648 126.736C170.264 127.008 169.76 127.144 169.136 127.144Z" fill="black"/>
<path d="M176.5 119.44C176.22 119.44 176.024 119.384 175.912 119.272C175.8 119.152 175.744 119.004 175.744 118.828V118.636C175.744 118.46 175.8 118.316 175.912 118.204C176.024 118.084 176.22 118.024 176.5 118.024C176.78 118.024 176.976 118.084 177.088 118.204C177.2 118.316 177.256 118.46 177.256 118.636V118.828C177.256 119.004 177.2 119.152 177.088 119.272C176.976 119.384 176.78 119.44 176.5 119.44ZM173.788 126.184H176.02V121.624H173.788V120.808H176.98V126.184H179.068V127H173.788V126.184Z" fill="black"/>
<path d="M185.651 127C185.275 127 185.007 126.904 184.847 126.712C184.687 126.52 184.587 126.28 184.547 125.992H184.487C184.351 126.352 184.131 126.636 183.827 126.844C183.531 127.044 183.131 127.144 182.627 127.144C181.979 127.144 181.463 126.976 181.079 126.64C180.695 126.304 180.503 125.844 180.503 125.26C180.503 124.684 180.711 124.24 181.127 123.928C181.551 123.616 182.231 123.46 183.167 123.46H184.487V122.848C184.487 122.392 184.359 122.052 184.103 121.828C183.847 121.596 183.483 121.48 183.011 121.48C182.595 121.48 182.255 121.564 181.991 121.732C181.727 121.892 181.515 122.112 181.355 122.392L180.707 121.912C180.787 121.752 180.895 121.596 181.031 121.444C181.167 121.292 181.335 121.16 181.535 121.048C181.735 120.928 181.963 120.836 182.219 120.772C182.475 120.7 182.759 120.664 183.071 120.664C183.799 120.664 184.375 120.848 184.799 121.216C185.231 121.584 185.447 122.096 185.447 122.752V126.16H186.311V127H185.651ZM182.795 126.34C183.043 126.34 183.267 126.312 183.467 126.256C183.675 126.192 183.855 126.112 184.007 126.016C184.159 125.912 184.275 125.792 184.355 125.656C184.443 125.512 184.487 125.36 184.487 125.2V124.18H183.167C182.591 124.18 182.171 124.26 181.907 124.42C181.643 124.58 181.511 124.812 181.511 125.116V125.368C181.511 125.688 181.623 125.932 181.847 126.1C182.079 126.26 182.395 126.34 182.795 126.34Z" fill="black"/>
<path d="M187.866 126.184H190.026V118.936H187.866V118.12H190.986V126.184H193.146V127H187.866V126.184Z" fill="black"/>
<path fill-rule="evenodd" clip-rule="evenodd" d="M171.207 313L169.354 311.146L168.646 311.853L170.5 313.707L171.207 313ZM166.354 308.146L163.354 305.146L162.646 305.853L165.646 308.853L166.354 308.146ZM160.354 302.146L157.354 299.146L156.646 299.853L159.646 302.853L160.354 302.146ZM154.354 296.146L151.354 293.146L150.646 293.853L153.646 296.853L154.354 296.146ZM148.354 290.146L145.354 287.146L144.646 287.853L147.646 290.853L148.354 290.146ZM142.354 284.146L140.854 282.646L140.146 283.353L141.646 284.853L142.354 284.146Z" fill="#0B0E29"/>
<path d="M3.43994 285V276.624H4.44794V284.124H8.41994V285H3.43994Z" fill="black"/>
<path d="M12.9033 285.144C12.4553 285.144 12.0513 285.068 11.6913 284.916C11.3393 284.764 11.0353 284.548 10.7793 284.268C10.5313 283.98 10.3393 283.64 10.2033 283.248C10.0673 282.848 9.99925 282.404 9.99925 281.916C9.99925 281.42 10.0673 280.972 10.2033 280.572C10.3473 280.172 10.5433 279.832 10.7913 279.552C11.0393 279.264 11.3353 279.044 11.6793 278.892C12.0313 278.74 12.4193 278.664 12.8433 278.664C13.2593 278.664 13.6353 278.74 13.9713 278.892C14.3153 279.044 14.6073 279.256 14.8473 279.528C15.0873 279.792 15.2713 280.108 15.3993 280.476C15.5273 280.844 15.5913 281.248 15.5913 281.688V282.144H11.0073V282.432C11.0073 282.704 11.0513 282.956 11.1393 283.188C11.2273 283.42 11.3513 283.62 11.5113 283.788C11.6793 283.956 11.8793 284.088 12.1113 284.184C12.3513 284.272 12.6153 284.316 12.9033 284.316C13.3193 284.316 13.6793 284.22 13.9833 284.028C14.2873 283.836 14.5193 283.572 14.6793 283.236L15.3873 283.716C15.2033 284.132 14.8953 284.476 14.4633 284.748C14.0393 285.012 13.5193 285.144 12.9033 285.144ZM12.8433 279.456C12.5793 279.456 12.3353 279.504 12.1113 279.6C11.8873 279.696 11.6913 279.828 11.5233 279.996C11.3633 280.164 11.2353 280.364 11.1393 280.596C11.0513 280.82 11.0073 281.068 11.0073 281.34V281.424H14.5593V281.292C14.5593 281.02 14.5153 280.772 14.4273 280.548C14.3473 280.324 14.2313 280.132 14.0793 279.972C13.9353 279.804 13.7553 279.676 13.5393 279.588C13.3313 279.5 13.0993 279.456 12.8433 279.456Z" fill="black"/>
<path d="M20.2066 285.144C19.7586 285.144 19.3586 285.068 19.0066 284.916C18.6626 284.756 18.3706 284.536 18.1306 284.256C17.8906 283.976 17.7066 283.636 17.5786 283.236C17.4586 282.836 17.3986 282.392 17.3986 281.904C17.3986 281.416 17.4626 280.972 17.5906 280.572C17.7186 280.172 17.9026 279.832 18.1426 279.552C18.3826 279.264 18.6746 279.044 19.0186 278.892C19.3626 278.74 19.7546 278.664 20.1946 278.664C20.7946 278.664 21.2826 278.796 21.6586 279.06C22.0346 279.324 22.3106 279.668 22.4866 280.092L21.7186 280.5C21.6066 280.18 21.4186 279.932 21.1546 279.756C20.8986 279.58 20.5786 279.492 20.1946 279.492C19.9146 279.492 19.6626 279.54 19.4386 279.636C19.2226 279.724 19.0386 279.852 18.8866 280.02C18.7346 280.188 18.6186 280.388 18.5386 280.62C18.4666 280.852 18.4306 281.104 18.4306 281.376V282.432C18.4306 282.704 18.4666 282.956 18.5386 283.188C18.6186 283.42 18.7346 283.62 18.8866 283.788C19.0386 283.956 19.2266 284.088 19.4506 284.184C19.6746 284.272 19.9306 284.316 20.2186 284.316C20.6346 284.316 20.9786 284.22 21.2506 284.028C21.5226 283.836 21.7386 283.572 21.8986 283.236L22.5826 283.704C22.3986 284.12 22.1106 284.464 21.7186 284.736C21.3346 285.008 20.8306 285.144 20.2066 285.144Z" fill="black"/>
<path d="M27.4859 285C27.0139 285 26.6659 284.868 26.4419 284.604C26.2259 284.34 26.1179 284 26.1179 283.584V279.624H24.0539V278.808H25.5899C25.7979 278.808 25.9419 278.768 26.0219 278.688C26.1099 278.6 26.1539 278.452 26.1539 278.244V276.624H27.0779V278.808H29.8979V279.624H27.0779V284.184H29.8979V285H27.4859Z" fill="black"/>
<path d="M35.8452 283.992H35.7972C35.7332 284.144 35.6532 284.292 35.5572 284.436C35.4612 284.572 35.3412 284.692 35.1972 284.796C35.0612 284.9 34.8972 284.984 34.7052 285.048C34.5132 285.112 34.2892 285.144 34.0332 285.144C33.3852 285.144 32.8652 284.94 32.4732 284.532C32.0812 284.116 31.8852 283.532 31.8852 282.78V278.808H32.8452V282.612C32.8452 283.18 32.9692 283.604 33.2172 283.884C33.4652 284.156 33.8292 284.292 34.3092 284.292C34.5012 284.292 34.6892 284.268 34.8732 284.22C35.0572 284.172 35.2212 284.1 35.3652 284.004C35.5092 283.908 35.6252 283.788 35.7132 283.644C35.8012 283.492 35.8452 283.312 35.8452 283.104V278.808H36.8052V285H35.8452V283.992Z" fill="black"/>
<path d="M38.9005 284.184H40.7125V279.624H38.9005V278.808H41.6725V280.368H41.7325C41.8605 279.88 42.1005 279.5 42.4525 279.228C42.8125 278.948 43.2685 278.808 43.8205 278.808H44.6845V279.768H43.5205C42.9685 279.768 42.5205 279.928 42.1765 280.248C41.8405 280.568 41.6725 280.988 41.6725 281.508V284.184H44.0725V285H38.9005V284.184Z" fill="black"/>
<path d="M51.1118 285C50.7358 285 50.4678 284.904 50.3078 284.712C50.1478 284.52 50.0478 284.28 50.0078 283.992H49.9478C49.8118 284.352 49.5918 284.636 49.2878 284.844C48.9918 285.044 48.5918 285.144 48.0878 285.144C47.4398 285.144 46.9238 284.976 46.5398 284.64C46.1558 284.304 45.9638 283.844 45.9638 283.26C45.9638 282.684 46.1718 282.24 46.5878 281.928C47.0118 281.616 47.6918 281.46 48.6278 281.46H49.9478V280.848C49.9478 280.392 49.8198 280.052 49.5638 279.828C49.3078 279.596 48.9438 279.48 48.4718 279.48C48.0558 279.48 47.7158 279.564 47.4518 279.732C47.1878 279.892 46.9758 280.112 46.8158 280.392L46.1678 279.912C46.2478 279.752 46.3558 279.596 46.4918 279.444C46.6278 279.292 46.7958 279.16 46.9958 279.048C47.1958 278.928 47.4238 278.836 47.6798 278.772C47.9358 278.7 48.2198 278.664 48.5318 278.664C49.2598 278.664 49.8358 278.848 50.2598 279.216C50.6918 279.584 50.9078 280.096 50.9078 280.752V284.16H51.7718V285H51.1118ZM48.2558 284.34C48.5038 284.34 48.7278 284.312 48.9278 284.256C49.1358 284.192 49.3158 284.112 49.4678 284.016C49.6198 283.912 49.7358 283.792 49.8158 283.656C49.9038 283.512 49.9478 283.36 49.9478 283.2V282.18H48.6278C48.0518 282.18 47.6318 282.26 47.3678 282.42C47.1038 282.58 46.9718 282.812 46.9718 283.116V283.368C46.9718 283.688 47.0838 283.932 47.3078 284.1C47.5398 284.26 47.8558 284.34 48.2558 284.34Z" fill="black"/>
<path d="M64.6624 283.992H64.6144C64.2144 284.76 63.5784 285.144 62.7064 285.144C61.9464 285.144 61.3504 284.86 60.9184 284.292C60.4944 283.724 60.2824 282.928 60.2824 281.904C60.2824 280.88 60.4944 280.084 60.9184 279.516C61.3504 278.948 61.9464 278.664 62.7064 278.664C63.5784 278.664 64.2144 279.048 64.6144 279.816H64.6624V276.12H65.6224V285H64.6624V283.992ZM63.0784 284.292C63.2944 284.292 63.4984 284.264 63.6904 284.208C63.8824 284.152 64.0504 284.072 64.1944 283.968C64.3384 283.856 64.4504 283.724 64.5304 283.572C64.6184 283.412 64.6624 283.228 64.6624 283.02V280.788C64.6624 280.58 64.6184 280.4 64.5304 280.248C64.4504 280.088 64.3384 279.956 64.1944 279.852C64.0504 279.74 63.8824 279.656 63.6904 279.6C63.4984 279.544 63.2944 279.516 63.0784 279.516C62.5184 279.516 62.0824 279.688 61.7704 280.032C61.4664 280.368 61.3144 280.816 61.3144 281.376V282.432C61.3144 282.992 61.4664 283.444 61.7704 283.788C62.0824 284.124 62.5184 284.292 63.0784 284.292Z" fill="black"/>
<path d="M70.4658 285.144C70.0178 285.144 69.6138 285.068 69.2538 284.916C68.9018 284.764 68.5978 284.548 68.3418 284.268C68.0938 283.98 67.9018 283.64 67.7658 283.248C67.6298 282.848 67.5618 282.404 67.5618 281.916C67.5618 281.42 67.6298 280.972 67.7658 280.572C67.9098 280.172 68.1058 279.832 68.3538 279.552C68.6018 279.264 68.8978 279.044 69.2418 278.892C69.5938 278.74 69.9818 278.664 70.4058 278.664C70.8218 278.664 71.1978 278.74 71.5338 278.892C71.8778 279.044 72.1698 279.256 72.4098 279.528C72.6498 279.792 72.8338 280.108 72.9618 280.476C73.0898 280.844 73.1538 281.248 73.1538 281.688V282.144H68.5697V282.432C68.5697 282.704 68.6138 282.956 68.7018 283.188C68.7898 283.42 68.9138 283.62 69.0738 283.788C69.2418 283.956 69.4418 284.088 69.6738 284.184C69.9138 284.272 70.1778 284.316 70.4658 284.316C70.8818 284.316 71.2418 284.22 71.5458 284.028C71.8498 283.836 72.0818 283.572 72.2418 283.236L72.9498 283.716C72.7658 284.132 72.4577 284.476 72.0257 284.748C71.6017 285.012 71.0818 285.144 70.4658 285.144ZM70.4058 279.456C70.1418 279.456 69.8978 279.504 69.6738 279.6C69.4498 279.696 69.2538 279.828 69.0858 279.996C68.9258 280.164 68.7978 280.364 68.7018 280.596C68.6138 280.82 68.5697 281.068 68.5697 281.34V281.424H72.1217V281.292C72.1217 281.02 72.0778 280.772 71.9898 280.548C71.9098 280.324 71.7938 280.132 71.6418 279.972C71.4978 279.804 71.3178 279.676 71.1018 279.588C70.8938 279.5 70.6618 279.456 70.4058 279.456Z" fill="black"/>
<path d="M82.3244 276.12H83.2844V279.816H83.3324C83.3964 279.664 83.4764 279.52 83.5724 279.384C83.6684 279.24 83.7844 279.116 83.9204 279.012C84.0644 278.908 84.2324 278.824 84.4244 278.76C84.6164 278.696 84.8404 278.664 85.0964 278.664C85.7444 278.664 86.2644 278.872 86.6564 279.288C87.0484 279.696 87.2444 280.276 87.2444 281.028V285H86.2844V281.196C86.2844 280.628 86.1604 280.208 85.9124 279.936C85.6644 279.656 85.3004 279.516 84.8204 279.516C84.6284 279.516 84.4404 279.54 84.2564 279.588C84.0724 279.636 83.9084 279.708 83.7644 279.804C83.6204 279.9 83.5044 280.024 83.4164 280.176C83.3284 280.328 83.2844 280.504 83.2844 280.704V285H82.3244V276.12Z" fill="black"/>
<path d="M93.4077 283.992H93.3597C93.2957 284.144 93.2157 284.292 93.1197 284.436C93.0237 284.572 92.9037 284.692 92.7597 284.796C92.6237 284.9 92.4597 284.984 92.2677 285.048C92.0757 285.112 91.8517 285.144 91.5957 285.144C90.9477 285.144 90.4277 284.94 90.0357 284.532C89.6437 284.116 89.4477 283.532 89.4477 282.78V278.808H90.4077V282.612C90.4077 283.18 90.5317 283.604 90.7797 283.884C91.0277 284.156 91.3917 284.292 91.8717 284.292C92.0637 284.292 92.2517 284.268 92.4357 284.22C92.6197 284.172 92.7837 284.1 92.9277 284.004C93.0717 283.908 93.1877 283.788 93.2757 283.644C93.3637 283.492 93.4077 283.312 93.4077 283.104V278.808H94.3677V285H93.4077V283.992Z" fill="black"/>
<path d="M99.247 285.144C98.799 285.144 98.395 285.068 98.035 284.916C97.683 284.764 97.379 284.548 97.123 284.268C96.875 283.98 96.683 283.64 96.547 283.248C96.411 282.848 96.343 282.404 96.343 281.916C96.343 281.42 96.411 280.972 96.547 280.572C96.691 280.172 96.887 279.832 97.135 279.552C97.383 279.264 97.679 279.044 98.023 278.892C98.375 278.74 98.763 278.664 99.187 278.664C99.603 278.664 99.979 278.74 100.315 278.892C100.659 279.044 100.951 279.256 101.191 279.528C101.431 279.792 101.615 280.108 101.743 280.476C101.871 280.844 101.935 281.248 101.935 281.688V282.144H97.351V282.432C97.351 282.704 97.395 282.956 97.483 283.188C97.571 283.42 97.695 283.62 97.855 283.788C98.023 283.956 98.223 284.088 98.455 284.184C98.695 284.272 98.959 284.316 99.247 284.316C99.663 284.316 100.023 284.22 100.327 284.028C100.631 283.836 100.863 283.572 101.023 283.236L101.731 283.716C101.547 284.132 101.239 284.476 100.807 284.748C100.383 285.012 99.863 285.144 99.247 285.144ZM99.187 279.456C98.923 279.456 98.679 279.504 98.455 279.6C98.231 279.696 98.035 279.828 97.867 279.996C97.707 280.164 97.579 280.364 97.483 280.596C97.395 280.82 97.351 281.068 97.351 281.34V281.424H100.903V281.292C100.903 281.02 100.859 280.772 100.771 280.548C100.691 280.324 100.575 280.132 100.423 279.972C100.279 279.804 100.099 279.676 99.883 279.588C99.675 279.5 99.443 279.456 99.187 279.456Z" fill="black"/>
<path d="M103.694 284.184H105.854V276.936H103.694V276.12H106.814V284.184H108.974V285H103.694V284.184Z" fill="black"/>
<path d="M110.89 284.184H113.05V276.936H110.89V276.12H114.01V284.184H116.17V285H110.89V284.184Z" fill="black"/>
<path d="M123.065 285C122.689 285 122.421 284.904 122.261 284.712C122.101 284.52 122.001 284.28 121.961 283.992H121.901C121.765 284.352 121.545 284.636 121.241 284.844C120.945 285.044 120.545 285.144 120.041 285.144C119.393 285.144 118.877 284.976 118.493 284.64C118.109 284.304 117.917 283.844 117.917 283.26C117.917 282.684 118.125 282.24 118.541 281.928C118.965 281.616 119.645 281.46 120.581 281.46H121.901V280.848C121.901 280.392 121.773 280.052 121.517 279.828C121.261 279.596 120.897 279.48 120.425 279.48C120.009 279.48 119.669 279.564 119.405 279.732C119.141 279.892 118.929 280.112 118.769 280.392L118.121 279.912C118.201 279.752 118.309 279.596 118.445 279.444C118.581 279.292 118.749 279.16 118.949 279.048C119.149 278.928 119.377 278.836 119.633 278.772C119.889 278.7 120.173 278.664 120.485 278.664C121.213 278.664 121.789 278.848 122.213 279.216C122.645 279.584 122.861 280.096 122.861 280.752V284.16H123.725V285H123.065ZM120.209 284.34C120.457 284.34 120.681 284.312 120.881 284.256C121.089 284.192 121.269 284.112 121.421 284.016C121.573 283.912 121.689 283.792 121.769 283.656C121.857 283.512 121.901 283.36 121.901 283.2V282.18H120.581C120.005 282.18 119.585 282.26 119.321 282.42C119.057 282.58 118.925 282.812 118.925 283.116V283.368C118.925 283.688 119.037 283.932 119.261 284.1C119.493 284.26 119.809 284.34 120.209 284.34Z" fill="black"/>
<path d="M127.992 285.144C127.344 285.144 126.784 285.036 126.312 284.82C125.848 284.596 125.452 284.3 125.124 283.932L125.772 283.368C126.068 283.68 126.392 283.92 126.744 284.088C127.096 284.256 127.52 284.34 128.016 284.34C128.496 284.34 128.888 284.256 129.192 284.088C129.504 283.912 129.66 283.64 129.66 283.272C129.66 283.112 129.628 282.98 129.564 282.876C129.508 282.764 129.428 282.676 129.324 282.612C129.22 282.548 129.104 282.5 128.976 282.468C128.848 282.428 128.712 282.396 128.568 282.372L127.596 282.228C127.38 282.196 127.144 282.152 126.888 282.096C126.64 282.04 126.412 281.952 126.204 281.832C125.996 281.704 125.82 281.536 125.676 281.328C125.54 281.12 125.472 280.848 125.472 280.512C125.472 280.2 125.532 279.932 125.652 279.708C125.78 279.476 125.956 279.284 126.18 279.132C126.404 278.972 126.668 278.856 126.972 278.784C127.276 278.704 127.608 278.664 127.968 278.664C128.528 278.664 129.012 278.752 129.42 278.928C129.836 279.104 130.192 279.348 130.488 279.66L129.864 280.248C129.792 280.16 129.7 280.072 129.588 279.984C129.484 279.888 129.352 279.804 129.192 279.732C129.04 279.652 128.86 279.588 128.652 279.54C128.444 279.492 128.204 279.468 127.932 279.468C127.444 279.468 127.068 279.552 126.804 279.72C126.548 279.888 126.42 280.132 126.42 280.452C126.42 280.612 126.448 280.748 126.504 280.86C126.568 280.964 126.652 281.048 126.756 281.112C126.86 281.176 126.976 281.228 127.104 281.268C127.24 281.3 127.376 281.328 127.512 281.352L128.484 281.496C128.708 281.528 128.944 281.572 129.192 281.628C129.44 281.684 129.668 281.776 129.876 281.904C130.084 282.024 130.256 282.188 130.392 282.396C130.536 282.604 130.608 282.876 130.608 283.212C130.608 283.828 130.368 284.304 129.888 284.64C129.416 284.976 128.784 285.144 127.992 285.144Z" fill="black"/>
<path fill-rule="evenodd" clip-rule="evenodd" d="M428.854 284.354L427.354 285.854L426.647 285.146L428.147 283.646L428.854 284.354ZM424.354 288.854L421.354 291.854L420.647 291.146L423.647 288.146L424.354 288.854ZM418.354 294.854L415.354 297.854L414.647 297.146L417.647 294.146L418.354 294.854ZM412.354 300.854L409.354 303.854L408.647 303.146L411.647 300.146L412.354 300.854ZM406.354 306.854L403.354 309.854L402.647 309.146L405.647 306.146L406.354 306.854ZM400.354 312.854L398.5 314.707L397.793 314L399.647 312.146L400.354 312.854Z" fill="#0B0E29"/>
<path d="M438.08 288V279.624H441.128C441.904 279.624 442.496 279.836 442.904 280.26C443.312 280.684 443.516 281.276 443.516 282.036C443.516 282.796 443.312 283.388 442.904 283.812C442.496 284.236 441.904 284.448 441.128 284.448H439.088V288H438.08ZM439.088 283.572H441.104C441.528 283.572 441.856 283.468 442.088 283.26C442.328 283.044 442.448 282.74 442.448 282.348V281.724C442.448 281.332 442.328 281.032 442.088 280.824C441.856 280.608 441.528 280.5 441.104 280.5H439.088V283.572Z" fill="black"/>
<path d="M445.119 287.184H446.931V282.624H445.119V281.808H447.891V283.368H447.951C448.079 282.88 448.319 282.5 448.671 282.228C449.031 281.948 449.487 281.808 450.039 281.808H450.903V282.768H449.739C449.187 282.768 448.739 282.928 448.395 283.248C448.059 283.568 447.891 283.988 447.891 284.508V287.184H450.291V288H445.119V287.184Z" fill="black"/>
<path d="M455.099 288.144C454.651 288.144 454.247 288.068 453.887 287.916C453.535 287.764 453.231 287.548 452.975 287.268C452.727 286.98 452.535 286.64 452.399 286.248C452.263 285.848 452.195 285.404 452.195 284.916C452.195 284.42 452.263 283.972 452.399 283.572C452.543 283.172 452.739 282.832 452.987 282.552C453.235 282.264 453.531 282.044 453.875 281.892C454.227 281.74 454.615 281.664 455.039 281.664C455.455 281.664 455.831 281.74 456.167 281.892C456.511 282.044 456.803 282.256 457.043 282.528C457.283 282.792 457.467 283.108 457.595 283.476C457.723 283.844 457.787 284.248 457.787 284.688V285.144H453.203V285.432C453.203 285.704 453.247 285.956 453.335 286.188C453.423 286.42 453.547 286.62 453.707 286.788C453.875 286.956 454.075 287.088 454.307 287.184C454.547 287.272 454.811 287.316 455.099 287.316C455.515 287.316 455.875 287.22 456.179 287.028C456.483 286.836 456.715 286.572 456.875 286.236L457.583 286.716C457.399 287.132 457.091 287.476 456.659 287.748C456.235 288.012 455.715 288.144 455.099 288.144ZM455.039 282.456C454.775 282.456 454.531 282.504 454.307 282.6C454.083 282.696 453.887 282.828 453.719 282.996C453.559 283.164 453.431 283.364 453.335 283.596C453.247 283.82 453.203 284.068 453.203 284.34V284.424H456.755V284.292C456.755 284.02 456.711 283.772 456.623 283.548C456.543 283.324 456.427 283.132 456.275 282.972C456.131 282.804 455.951 282.676 455.735 282.588C455.527 282.5 455.295 282.456 455.039 282.456Z" fill="black"/>
<path d="M462.258 288.144C461.61 288.144 461.05 288.036 460.578 287.82C460.114 287.596 459.718 287.3 459.39 286.932L460.038 286.368C460.334 286.68 460.658 286.92 461.01 287.088C461.362 287.256 461.786 287.34 462.282 287.34C462.762 287.34 463.154 287.256 463.458 287.088C463.77 286.912 463.926 286.64 463.926 286.272C463.926 286.112 463.894 285.98 463.83 285.876C463.774 285.764 463.694 285.676 463.59 285.612C463.486 285.548 463.37 285.5 463.242 285.468C463.114 285.428 462.978 285.396 462.834 285.372L461.862 285.228C461.646 285.196 461.41 285.152 461.154 285.096C460.906 285.04 460.678 284.952 460.47 284.832C460.262 284.704 460.086 284.536 459.942 284.328C459.806 284.12 459.738 283.848 459.738 283.512C459.738 283.2 459.798 282.932 459.918 282.708C460.046 282.476 460.222 282.284 460.446 282.132C460.67 281.972 460.934 281.856 461.238 281.784C461.542 281.704 461.874 281.664 462.234 281.664C462.794 281.664 463.278 281.752 463.686 281.928C464.102 282.104 464.458 282.348 464.754 282.66L464.13 283.248C464.058 283.16 463.966 283.072 463.854 282.984C463.75 282.888 463.618 282.804 463.458 282.732C463.306 282.652 463.126 282.588 462.918 282.54C462.71 282.492 462.47 282.468 462.198 282.468C461.71 282.468 461.334 282.552 461.07 282.72C460.814 282.888 460.686 283.132 460.686 283.452C460.686 283.612 460.714 283.748 460.77 283.86C460.834 283.964 460.918 284.048 461.022 284.112C461.126 284.176 461.242 284.228 461.37 284.268C461.506 284.3 461.642 284.328 461.778 284.352L462.75 284.496C462.974 284.528 463.21 284.572 463.458 284.628C463.706 284.684 463.934 284.776 464.142 284.904C464.35 285.024 464.522 285.188 464.658 285.396C464.802 285.604 464.874 285.876 464.874 286.212C464.874 286.828 464.634 287.304 464.154 287.64C463.682 287.976 463.05 288.144 462.258 288.144Z" fill="black"/>
<path d="M469.765 280.44C469.485 280.44 469.289 280.384 469.177 280.272C469.065 280.152 469.009 280.004 469.009 279.828V279.636C469.009 279.46 469.065 279.316 469.177 279.204C469.289 279.084 469.485 279.024 469.765 279.024C470.045 279.024 470.241 279.084 470.353 279.204C470.465 279.316 470.521 279.46 470.521 279.636V279.828C470.521 280.004 470.465 280.152 470.353 280.272C470.241 280.384 470.045 280.44 469.765 280.44ZM467.053 287.184H469.285V282.624H467.053V281.808H470.245V287.184H472.333V288H467.053V287.184Z" fill="black"/>
<path d="M476.577 288.144C476.145 288.144 475.753 288.068 475.401 287.916C475.057 287.764 474.761 287.548 474.513 287.268C474.273 286.98 474.089 286.64 473.961 286.248C473.833 285.848 473.769 285.4 473.769 284.904C473.769 284.416 473.833 283.972 473.961 283.572C474.089 283.172 474.273 282.832 474.513 282.552C474.761 282.264 475.057 282.044 475.401 281.892C475.753 281.74 476.145 281.664 476.577 281.664C477.009 281.664 477.397 281.74 477.741 281.892C478.093 282.044 478.389 282.264 478.629 282.552C478.877 282.832 479.065 283.172 479.193 283.572C479.321 283.972 479.385 284.416 479.385 284.904C479.385 285.4 479.321 285.848 479.193 286.248C479.065 286.64 478.877 286.98 478.629 287.268C478.389 287.548 478.093 287.764 477.741 287.916C477.397 288.068 477.009 288.144 476.577 288.144ZM476.577 287.316C477.113 287.316 477.545 287.156 477.873 286.836C478.201 286.516 478.365 286.02 478.365 285.348V284.46C478.365 283.788 478.201 283.292 477.873 282.972C477.545 282.652 477.113 282.492 476.577 282.492C476.041 282.492 475.609 282.652 475.281 282.972C474.953 283.292 474.789 283.788 474.789 284.46V285.348C474.789 286.02 474.953 286.516 475.281 286.836C475.609 287.156 476.041 287.316 476.577 287.316ZM476.661 280.98L476.037 280.692L477.057 278.652L477.933 279.072L476.661 280.98Z" fill="black"/>
<path d="M481.348 288V281.808H482.308V282.816H482.356C482.42 282.664 482.5 282.52 482.596 282.384C482.692 282.24 482.808 282.116 482.944 282.012C483.088 281.908 483.256 281.824 483.448 281.76C483.64 281.696 483.864 281.664 484.12 281.664C484.768 281.664 485.288 281.872 485.68 282.288C486.072 282.696 486.268 283.276 486.268 284.028V288H485.308V284.196C485.308 283.628 485.184 283.208 484.936 282.936C484.688 282.656 484.324 282.516 483.844 282.516C483.652 282.516 483.464 282.54 483.28 282.588C483.096 282.636 482.932 282.708 482.788 282.804C482.644 282.9 482.528 283.024 482.44 283.176C482.352 283.328 482.308 283.504 482.308 283.704V288H481.348Z" fill="black"/>
<path d="M500.503 288C500.127 288 499.859 287.904 499.699 287.712C499.539 287.52 499.439 287.28 499.399 286.992H499.339C499.203 287.352 498.983 287.636 498.679 287.844C498.383 288.044 497.983 288.144 497.479 288.144C496.831 288.144 496.315 287.976 495.931 287.64C495.547 287.304 495.355 286.844 495.355 286.26C495.355 285.684 495.563 285.24 495.979 284.928C496.403 284.616 497.083 284.46 498.019 284.46H499.339V283.848C499.339 283.392 499.211 283.052 498.955 282.828C498.699 282.596 498.335 282.48 497.863 282.48C497.447 282.48 497.107 282.564 496.843 282.732C496.579 282.892 496.367 283.112 496.207 283.392L495.559 282.912C495.639 282.752 495.747 282.596 495.883 282.444C496.019 282.292 496.187 282.16 496.387 282.048C496.587 281.928 496.815 281.836 497.071 281.772C497.327 281.7 497.611 281.664 497.923 281.664C498.651 281.664 499.227 281.848 499.651 282.216C500.083 282.584 500.299 283.096 500.299 283.752V287.16H501.163V288H500.503ZM497.647 287.34C497.895 287.34 498.119 287.312 498.319 287.256C498.527 287.192 498.707 287.112 498.859 287.016C499.011 286.912 499.127 286.792 499.207 286.656C499.295 286.512 499.339 286.36 499.339 286.2V285.18H498.019C497.443 285.18 497.023 285.26 496.759 285.42C496.495 285.58 496.363 285.812 496.363 286.116V286.368C496.363 286.688 496.475 286.932 496.699 287.1C496.931 287.26 497.247 287.34 497.647 287.34Z" fill="black"/>
<path d="M502.682 287.184H504.494V282.624H502.682V281.808H505.454V283.368H505.514C505.642 282.88 505.882 282.5 506.234 282.228C506.594 281.948 507.05 281.808 507.602 281.808H508.466V282.768H507.302C506.75 282.768 506.302 282.928 505.958 283.248C505.622 283.568 505.454 283.988 505.454 284.508V287.184H507.854V288H502.682V287.184Z" fill="black"/>
<path d="M512.853 288C512.381 288 512.033 287.868 511.809 287.604C511.593 287.34 511.485 287 511.485 286.584V282.624H509.421V281.808H510.957C511.165 281.808 511.309 281.768 511.389 281.688C511.477 281.6 511.521 281.452 511.521 281.244V279.624H512.445V281.808H515.265V282.624H512.445V287.184H515.265V288H512.853Z" fill="black"/>
<path d="M519.857 288.144C519.409 288.144 519.005 288.068 518.645 287.916C518.293 287.764 517.989 287.548 517.733 287.268C517.485 286.98 517.293 286.64 517.157 286.248C517.021 285.848 516.953 285.404 516.953 284.916C516.953 284.42 517.021 283.972 517.157 283.572C517.301 283.172 517.497 282.832 517.745 282.552C517.993 282.264 518.289 282.044 518.633 281.892C518.985 281.74 519.373 281.664 519.797 281.664C520.213 281.664 520.589 281.74 520.925 281.892C521.269 282.044 521.561 282.256 521.801 282.528C522.041 282.792 522.225 283.108 522.353 283.476C522.481 283.844 522.545 284.248 522.545 284.688V285.144H517.961V285.432C517.961 285.704 518.005 285.956 518.093 286.188C518.181 286.42 518.305 286.62 518.465 286.788C518.633 286.956 518.833 287.088 519.065 287.184C519.305 287.272 519.569 287.316 519.857 287.316C520.273 287.316 520.633 287.22 520.937 287.028C521.241 286.836 521.473 286.572 521.633 286.236L522.341 286.716C522.157 287.132 521.849 287.476 521.417 287.748C520.993 288.012 520.473 288.144 519.857 288.144ZM519.797 282.456C519.533 282.456 519.289 282.504 519.065 282.6C518.841 282.696 518.645 282.828 518.477 282.996C518.317 283.164 518.189 283.364 518.093 283.596C518.005 283.82 517.961 284.068 517.961 284.34V284.424H521.513V284.292C521.513 284.02 521.469 283.772 521.381 283.548C521.301 283.324 521.185 283.132 521.033 282.972C520.889 282.804 520.709 282.676 520.493 282.588C520.285 282.5 520.053 282.456 519.797 282.456Z" fill="black"/>
<path d="M524.268 287.184H526.08V282.624H524.268V281.808H527.04V283.368H527.1C527.228 282.88 527.468 282.5 527.82 282.228C528.18 281.948 528.636 281.808 529.188 281.808H530.052V282.768H528.888C528.336 282.768 527.888 282.928 527.544 283.248C527.208 283.568 527.04 283.988 527.04 284.508V287.184H529.44V288H524.268V287.184Z" fill="black"/>
<path d="M534.523 280.44C534.243 280.44 534.047 280.384 533.935 280.272C533.823 280.152 533.767 280.004 533.767 279.828V279.636C533.767 279.46 533.823 279.316 533.935 279.204C534.047 279.084 534.243 279.024 534.523 279.024C534.803 279.024 534.999 279.084 535.111 279.204C535.223 279.316 535.279 279.46 535.279 279.636V279.828C535.279 280.004 535.223 280.152 535.111 280.272C534.999 280.384 534.803 280.44 534.523 280.44ZM531.811 287.184H534.043V282.624H531.811V281.808H535.003V287.184H537.091V288H531.811V287.184Z" fill="black"/>
<path d="M543.674 288C543.298 288 543.03 287.904 542.87 287.712C542.71 287.52 542.61 287.28 542.57 286.992H542.51C542.374 287.352 542.154 287.636 541.85 287.844C541.554 288.044 541.154 288.144 540.65 288.144C540.002 288.144 539.486 287.976 539.102 287.64C538.718 287.304 538.526 286.844 538.526 286.26C538.526 285.684 538.734 285.24 539.15 284.928C539.574 284.616 540.254 284.46 541.19 284.46H542.51V283.848C542.51 283.392 542.382 283.052 542.126 282.828C541.87 282.596 541.506 282.48 541.034 282.48C540.618 282.48 540.278 282.564 540.014 282.732C539.75 282.892 539.538 283.112 539.378 283.392L538.73 282.912C538.81 282.752 538.918 282.596 539.054 282.444C539.19 282.292 539.358 282.16 539.558 282.048C539.758 281.928 539.986 281.836 540.242 281.772C540.498 281.7 540.782 281.664 541.094 281.664C541.822 281.664 542.398 281.848 542.822 282.216C543.254 282.584 543.47 283.096 543.47 283.752V287.16H544.334V288H543.674ZM540.818 287.34C541.066 287.34 541.29 287.312 541.49 287.256C541.698 287.192 541.878 287.112 542.03 287.016C542.182 286.912 542.298 286.792 542.378 286.656C542.466 286.512 542.51 286.36 542.51 286.2V285.18H541.19C540.614 285.18 540.194 285.26 539.93 285.42C539.666 285.58 539.534 285.812 539.534 286.116V286.368C539.534 286.688 539.646 286.932 539.87 287.1C540.102 287.26 540.418 287.34 540.818 287.34Z" fill="black"/>
<path d="M545.89 287.184H548.05V279.936H545.89V279.12H549.01V287.184H551.17V288H545.89V287.184Z" fill="black"/>
<path fill-rule="evenodd" clip-rule="evenodd" d="M271.931 14.7286L273.317 16.114L274.024 15.4069L272.638 14.0215L271.931 14.7286ZM276.088 18.8848L278.858 21.6557L279.566 20.9486L276.795 18.1777L276.088 18.8848ZM281.629 24.4265L284.4 27.1973L285.107 26.4902L282.336 23.7194L281.629 24.4265ZM287.171 29.9682L288.91 31.7071L289.617 31L287.878 29.2611L287.171 29.9682Z" fill="#0B0E29"/>
<path d="M139.772 18.0004L139.064 15.6124H136.124L135.416 18.0004H134.372L136.94 9.62441H138.272L140.84 18.0004H139.772ZM137.648 10.6924H137.54L136.364 14.7364H138.824L137.648 10.6924Z" fill="black"/>
<path d="M145.011 18.1444C144.563 18.1444 144.163 18.0684 143.811 17.9164C143.467 17.7564 143.175 17.5364 142.935 17.2564C142.695 16.9764 142.511 16.6364 142.383 16.2364C142.263 15.8364 142.203 15.3924 142.203 14.9044C142.203 14.4164 142.267 13.9724 142.395 13.5724C142.523 13.1724 142.707 12.8324 142.947 12.5524C143.187 12.2644 143.479 12.0444 143.823 11.8924C144.167 11.7404 144.559 11.6644 144.999 11.6644C145.599 11.6644 146.087 11.7964 146.463 12.0604C146.839 12.3244 147.115 12.6684 147.291 13.0924L146.523 13.5004C146.411 13.1804 146.223 12.9324 145.959 12.7564C145.703 12.5804 145.383 12.4924 144.999 12.4924C144.719 12.4924 144.467 12.5404 144.243 12.6364C144.027 12.7244 143.843 12.8524 143.691 13.0204C143.539 13.1884 143.423 13.3884 143.343 13.6204C143.271 13.8524 143.235 14.1044 143.235 14.3764V15.4324C143.235 15.7044 143.271 15.9564 143.343 16.1884C143.423 16.4204 143.539 16.6204 143.691 16.7884C143.843 16.9564 144.031 17.0884 144.255 17.1844C144.479 17.2724 144.735 17.3164 145.023 17.3164C145.439 17.3164 145.783 17.2204 146.055 17.0284C146.327 16.8364 146.543 16.5724 146.703 16.2364L147.387 16.7044C147.203 17.1204 146.915 17.4644 146.523 17.7364C146.139 18.0084 145.635 18.1444 145.011 18.1444Z" fill="black"/>
<path d="M152.291 18.0004C151.819 18.0004 151.471 17.8684 151.247 17.6044C151.031 17.3404 150.923 17.0004 150.923 16.5844V12.6244H148.859V11.8084H150.395C150.603 11.8084 150.747 11.7684 150.827 11.6884C150.915 11.6004 150.959 11.4524 150.959 11.2444V9.62441H151.883V11.8084H154.703V12.6244H151.883V17.1844H154.703V18.0004H152.291Z" fill="black"/>
<path d="M159.57 10.4404C159.29 10.4404 159.094 10.3844 158.982 10.2724C158.87 10.1524 158.814 10.0044 158.814 9.82841V9.63641C158.814 9.46041 158.87 9.31641 158.982 9.20441C159.094 9.08441 159.29 9.02441 159.57 9.02441C159.85 9.02441 160.046 9.08441 160.158 9.20441C160.27 9.31641 160.326 9.46041 160.326 9.63641V9.82841C160.326 10.0044 160.27 10.1524 160.158 10.2724C160.046 10.3844 159.85 10.4404 159.57 10.4404ZM156.858 17.1844H159.09V12.6244H156.858V11.8084H160.05V17.1844H162.138V18.0004H156.858V17.1844Z" fill="black"/>
<path d="M165.769 18.0004L163.549 11.8084H164.521L165.409 14.4004L166.369 17.1964H166.417L167.377 14.4004L168.265 11.8084H169.213L166.993 18.0004H165.769Z" fill="black"/>
<path d="M173.961 10.4404C173.681 10.4404 173.485 10.3844 173.373 10.2724C173.261 10.1524 173.205 10.0044 173.205 9.82841V9.63641C173.205 9.46041 173.261 9.31641 173.373 9.20441C173.485 9.08441 173.681 9.02441 173.961 9.02441C174.241 9.02441 174.437 9.08441 174.549 9.20441C174.661 9.31641 174.717 9.46041 174.717 9.63641V9.82841C174.717 10.0044 174.661 10.1524 174.549 10.2724C174.437 10.3844 174.241 10.4404 173.961 10.4404ZM171.249 17.1844H173.481V12.6244H171.249V11.8084H174.441V17.1844H176.529V18.0004H171.249V17.1844Z" fill="black"/>
<path d="M182.272 16.9924H182.224C181.824 17.7604 181.188 18.1444 180.316 18.1444C179.556 18.1444 178.96 17.8604 178.528 17.2924C178.104 16.7244 177.892 15.9284 177.892 14.9044C177.892 13.8804 178.104 13.0844 178.528 12.5164C178.96 11.9484 179.556 11.6644 180.316 11.6644C181.188 11.6644 181.824 12.0484 182.224 12.8164H182.272V9.12041H183.232V18.0004H182.272V16.9924ZM180.688 17.2924C180.904 17.2924 181.108 17.2644 181.3 17.2084C181.492 17.1524 181.66 17.0724 181.804 16.9684C181.948 16.8564 182.06 16.7244 182.14 16.5724C182.228 16.4124 182.272 16.2284 182.272 16.0204V13.7884C182.272 13.5804 182.228 13.4004 182.14 13.2484C182.06 13.0884 181.948 12.9564 181.804 12.8524C181.66 12.7404 181.492 12.6564 181.3 12.6004C181.108 12.5444 180.904 12.5164 180.688 12.5164C180.128 12.5164 179.692 12.6884 179.38 13.0324C179.076 13.3684 178.924 13.8164 178.924 14.3764V15.4324C178.924 15.9924 179.076 16.4444 179.38 16.7884C179.692 17.1244 180.128 17.2924 180.688 17.2924Z" fill="black"/>
<path d="M190.307 18.0004C189.931 18.0004 189.663 17.9044 189.503 17.7124C189.343 17.5204 189.243 17.2804 189.203 16.9924H189.143C189.007 17.3524 188.787 17.6364 188.483 17.8444C188.187 18.0444 187.787 18.1444 187.283 18.1444C186.635 18.1444 186.119 17.9764 185.735 17.6404C185.351 17.3044 185.159 16.8444 185.159 16.2604C185.159 15.6844 185.367 15.2404 185.783 14.9284C186.207 14.6164 186.887 14.4604 187.823 14.4604H189.143V13.8484C189.143 13.3924 189.015 13.0524 188.759 12.8284C188.503 12.5964 188.139 12.4804 187.667 12.4804C187.251 12.4804 186.911 12.5644 186.647 12.7324C186.383 12.8924 186.171 13.1124 186.011 13.3924L185.363 12.9124C185.443 12.7524 185.551 12.5964 185.687 12.4444C185.823 12.2924 185.991 12.1604 186.191 12.0484C186.391 11.9284 186.619 11.8364 186.875 11.7724C187.131 11.7004 187.415 11.6644 187.727 11.6644C188.455 11.6644 189.031 11.8484 189.455 12.2164C189.887 12.5844 190.103 13.0964 190.103 13.7524V17.1604H190.967V18.0004H190.307ZM187.451 17.3404C187.699 17.3404 187.923 17.3124 188.123 17.2564C188.331 17.1924 188.511 17.1124 188.663 17.0164C188.815 16.9124 188.931 16.7924 189.011 16.6564C189.099 16.5124 189.143 16.3604 189.143 16.2004V15.1804H187.823C187.247 15.1804 186.827 15.2604 186.563 15.4204C186.299 15.5804 186.167 15.8124 186.167 16.1164V16.3684C186.167 16.6884 186.279 16.9324 186.503 17.1004C186.735 17.2604 187.051 17.3404 187.451 17.3404Z" fill="black"/>
<path d="M196.663 16.9924H196.615C196.215 17.7604 195.579 18.1444 194.707 18.1444C193.947 18.1444 193.351 17.8604 192.919 17.2924C192.495 16.7244 192.283 15.9284 192.283 14.9044C192.283 13.8804 192.495 13.0844 192.919 12.5164C193.351 11.9484 193.947 11.6644 194.707 11.6644C195.579 11.6644 196.215 12.0484 196.615 12.8164H196.663V9.12041H197.623V18.0004H196.663V16.9924ZM195.079 17.2924C195.295 17.2924 195.499 17.2644 195.691 17.2084C195.883 17.1524 196.051 17.0724 196.195 16.9684C196.339 16.8564 196.451 16.7244 196.531 16.5724C196.619 16.4124 196.663 16.2284 196.663 16.0204V13.7884C196.663 13.5804 196.619 13.4004 196.531 13.2484C196.451 13.0884 196.339 12.9564 196.195 12.8524C196.051 12.7404 195.883 12.6564 195.691 12.6004C195.499 12.5444 195.295 12.5164 195.079 12.5164C194.519 12.5164 194.083 12.6884 193.771 13.0324C193.467 13.3684 193.315 13.8164 193.315 14.3764V15.4324C193.315 15.9924 193.467 16.4444 193.771 16.7884C194.083 17.1244 194.519 17.2924 195.079 17.2924Z" fill="black"/>
<path d="M209.769 18.1444C209.321 18.1444 208.921 18.0684 208.569 17.9164C208.225 17.7564 207.933 17.5364 207.693 17.2564C207.453 16.9764 207.269 16.6364 207.141 16.2364C207.021 15.8364 206.961 15.3924 206.961 14.9044C206.961 14.4164 207.025 13.9724 207.153 13.5724C207.281 13.1724 207.465 12.8324 207.705 12.5524C207.945 12.2644 208.237 12.0444 208.581 11.8924C208.925 11.7404 209.317 11.6644 209.757 11.6644C210.357 11.6644 210.845 11.7964 211.221 12.0604C211.597 12.3244 211.873 12.6684 212.049 13.0924L211.281 13.5004C211.169 13.1804 210.981 12.9324 210.717 12.7564C210.461 12.5804 210.141 12.4924 209.757 12.4924C209.477 12.4924 209.225 12.5404 209.001 12.6364C208.785 12.7244 208.601 12.8524 208.449 13.0204C208.297 13.1884 208.181 13.3884 208.101 13.6204C208.029 13.8524 207.993 14.1044 207.993 14.3764V15.4324C207.993 15.7044 208.029 15.9564 208.101 16.1884C208.181 16.4204 208.297 16.6204 208.449 16.7884C208.601 16.9564 208.789 17.0884 209.013 17.1844C209.237 17.2724 209.493 17.3164 209.781 17.3164C210.197 17.3164 210.541 17.2204 210.813 17.0284C211.085 16.8364 211.301 16.5724 211.461 16.2364L212.145 16.7044C211.961 17.1204 211.673 17.4644 211.281 17.7364C210.897 18.0084 210.393 18.1444 209.769 18.1444Z" fill="black"/>
<path d="M216.857 18.1444C216.409 18.1444 216.005 18.0684 215.645 17.9164C215.293 17.7644 214.989 17.5484 214.733 17.2684C214.485 16.9804 214.293 16.6404 214.157 16.2484C214.021 15.8484 213.953 15.4044 213.953 14.9164C213.953 14.4204 214.021 13.9724 214.157 13.5724C214.301 13.1724 214.497 12.8324 214.745 12.5524C214.993 12.2644 215.289 12.0444 215.633 11.8924C215.985 11.7404 216.373 11.6644 216.797 11.6644C217.213 11.6644 217.589 11.7404 217.925 11.8924C218.269 12.0444 218.561 12.2564 218.801 12.5284C219.041 12.7924 219.225 13.1084 219.353 13.4764C219.481 13.8444 219.545 14.2484 219.545 14.6884V15.1444H214.961V15.4324C214.961 15.7044 215.005 15.9564 215.093 16.1884C215.181 16.4204 215.305 16.6204 215.465 16.7884C215.633 16.9564 215.833 17.0884 216.065 17.1844C216.305 17.2724 216.569 17.3164 216.857 17.3164C217.273 17.3164 217.633 17.2204 217.937 17.0284C218.241 16.8364 218.473 16.5724 218.633 16.2364L219.341 16.7164C219.157 17.1324 218.849 17.4764 218.417 17.7484C217.993 18.0124 217.473 18.1444 216.857 18.1444ZM216.797 12.4564C216.533 12.4564 216.289 12.5044 216.065 12.6004C215.841 12.6964 215.645 12.8284 215.477 12.9964C215.317 13.1644 215.189 13.3644 215.093 13.5964C215.005 13.8204 214.961 14.0684 214.961 14.3404V14.4244H218.513V14.2924C218.513 14.0204 218.469 13.7724 218.381 13.5484C218.301 13.3244 218.185 13.1324 218.033 12.9724C217.889 12.8044 217.709 12.6764 217.493 12.5884C217.285 12.5004 217.053 12.4564 216.797 12.4564Z" fill="black"/>
<path d="M221.268 17.1844H223.08V12.6244H221.268V11.8084H224.04V13.3684H224.1C224.228 12.8804 224.468 12.5004 224.82 12.2284C225.18 11.9484 225.636 11.8084 226.188 11.8084H227.052V12.7684H225.888C225.336 12.7684 224.888 12.9284 224.544 13.2484C224.208 13.5684 224.04 13.9884 224.04 14.5084V17.1844H226.44V18.0004H221.268V17.1844Z" fill="black"/>
<path d="M231.247 18.1444C230.799 18.1444 230.395 18.0684 230.035 17.9164C229.683 17.7644 229.379 17.5484 229.123 17.2684C228.875 16.9804 228.683 16.6404 228.547 16.2484C228.411 15.8484 228.343 15.4044 228.343 14.9164C228.343 14.4204 228.411 13.9724 228.547 13.5724C228.691 13.1724 228.887 12.8324 229.135 12.5524C229.383 12.2644 229.679 12.0444 230.023 11.8924C230.375 11.7404 230.763 11.6644 231.187 11.6644C231.603 11.6644 231.979 11.7404 232.315 11.8924C232.659 12.0444 232.951 12.2564 233.191 12.5284C233.431 12.7924 233.615 13.1084 233.743 13.4764C233.871 13.8444 233.935 14.2484 233.935 14.6884V15.1444H229.351V15.4324C229.351 15.7044 229.395 15.9564 229.483 16.1884C229.571 16.4204 229.695 16.6204 229.855 16.7884C230.023 16.9564 230.223 17.0884 230.455 17.1844C230.695 17.2724 230.959 17.3164 231.247 17.3164C231.663 17.3164 232.023 17.2204 232.327 17.0284C232.631 16.8364 232.863 16.5724 233.023 16.2364L233.731 16.7164C233.547 17.1324 233.239 17.4764 232.807 17.7484C232.383 18.0124 231.863 18.1444 231.247 18.1444ZM231.187 12.4564C230.923 12.4564 230.679 12.5044 230.455 12.6004C230.231 12.6964 230.035 12.8284 229.867 12.9964C229.707 13.1644 229.579 13.3644 229.483 13.5964C229.395 13.8204 229.351 14.0684 229.351 14.3404V14.4244H232.903V14.2924C232.903 14.0204 232.859 13.7724 232.771 13.5484C232.691 13.3244 232.575 13.1324 232.423 12.9724C232.279 12.8044 232.099 12.6764 231.883 12.5884C231.675 12.5004 231.443 12.4564 231.187 12.4564Z" fill="black"/>
<path d="M235.874 9.12041H236.834V12.8164H236.882C237.282 12.0484 237.918 11.6644 238.79 11.6644C239.55 11.6644 240.142 11.9484 240.566 12.5164C240.998 13.0844 241.214 13.8804 241.214 14.9044C241.214 15.9284 240.998 16.7244 240.566 17.2924C240.142 17.8604 239.55 18.1444 238.79 18.1444C237.918 18.1444 237.282 17.7604 236.882 16.9924H236.834V18.0004H235.874V9.12041ZM238.418 17.2924C238.978 17.2924 239.41 17.1244 239.714 16.7884C240.026 16.4444 240.182 15.9924 240.182 15.4324V14.3764C240.182 13.8164 240.026 13.3684 239.714 13.0324C239.41 12.6884 238.978 12.5164 238.418 12.5164C238.202 12.5164 237.998 12.5444 237.806 12.6004C237.614 12.6564 237.446 12.7404 237.302 12.8524C237.158 12.9564 237.042 13.0884 236.954 13.2484C236.874 13.4004 236.834 13.5804 236.834 13.7884V16.0204C236.834 16.2284 236.874 16.4124 236.954 16.5724C237.042 16.7244 237.158 16.8564 237.302 16.9684C237.446 17.0724 237.614 17.1524 237.806 17.2084C237.998 17.2644 238.202 17.2924 238.418 17.2924Z" fill="black"/>
<path d="M242.854 17.1844H244.666V12.6244H242.854V11.8084H245.626V13.3684H245.686C245.814 12.8804 246.054 12.5004 246.406 12.2284C246.766 11.9484 247.222 11.8084 247.774 11.8084H248.638V12.7684H247.474C246.922 12.7684 246.474 12.9284 246.13 13.2484C245.794 13.5684 245.626 13.9884 245.626 14.5084V17.1844H248.026V18.0004H242.854V17.1844Z" fill="black"/>
<path d="M255.065 18.0004C254.689 18.0004 254.421 17.9044 254.261 17.7124C254.101 17.5204 254.001 17.2804 253.961 16.9924H253.901C253.765 17.3524 253.545 17.6364 253.241 17.8444C252.945 18.0444 252.545 18.1444 252.041 18.1444C251.393 18.1444 250.877 17.9764 250.493 17.6404C250.109 17.3044 249.917 16.8444 249.917 16.2604C249.917 15.6844 250.125 15.2404 250.541 14.9284C250.965 14.6164 251.645 14.4604 252.581 14.4604H253.901V13.8484C253.901 13.3924 253.773 13.0524 253.517 12.8284C253.261 12.5964 252.897 12.4804 252.425 12.4804C252.009 12.4804 251.669 12.5644 251.405 12.7324C251.141 12.8924 250.929 13.1124 250.769 13.3924L250.121 12.9124C250.201 12.7524 250.309 12.5964 250.445 12.4444C250.581 12.2924 250.749 12.1604 250.949 12.0484C251.149 11.9284 251.377 11.8364 251.633 11.7724C251.889 11.7004 252.173 11.6644 252.485 11.6644C253.213 11.6644 253.789 11.8484 254.213 12.2164C254.645 12.5844 254.861 13.0964 254.861 13.7524V17.1604H255.725V18.0004H255.065ZM252.209 17.3404C252.457 17.3404 252.681 17.3124 252.881 17.2564C253.089 17.1924 253.269 17.1124 253.421 17.0164C253.573 16.9124 253.689 16.7924 253.769 16.6564C253.857 16.5124 253.901 16.3604 253.901 16.2004V15.1804H252.581C252.005 15.1804 251.585 15.2604 251.321 15.4204C251.057 15.5804 250.925 15.8124 250.925 16.1164V16.3684C250.925 16.6884 251.037 16.9324 251.261 17.1004C251.493 17.2604 251.809 17.3404 252.209 17.3404Z" fill="black"/>
<path d="M257.28 17.1844H259.44V9.93641H257.28V9.12041H260.4V17.1844H262.56V18.0004H257.28V17.1844Z" fill="black"/>
</g>
<defs>
<clipPath id="clip0_7765_341962">
<rect width="553" height="446" fill="white"/>
</clipPath>
</defs>
</svg>
