<svg width="482" height="172" viewBox="0 0 482 172" fill="none" xmlns="http://www.w3.org/2000/svg">
<rect x="16" y="16" width="140" height="140" rx="70" fill="#094C82"/>
<path fill-rule="evenodd" clip-rule="evenodd" d="M84.197 43.8451C82.6926 44.0823 81.4183 44.9532 80.6247 46.2865C80.5159 46.4693 80.3347 46.8896 80.2222 47.2204C80.0367 47.7656 80.0151 47.8968 79.9927 48.6179C79.9645 49.5253 80.037 49.9843 80.3234 50.7089C81.1425 52.7816 83.2512 54.0581 85.4411 53.8067C86.6565 53.6672 87.6682 53.1568 88.5103 52.2583C89.902 50.7734 90.2543 48.5922 89.4081 46.7011C88.8118 45.3686 87.578 44.3242 86.168 43.9587C85.6342 43.8202 84.6968 43.7662 84.197 43.8451ZM69.8552 47.1252C67.9684 47.3211 66.4874 47.7903 63.1352 49.2542C60.5137 50.399 60.0123 50.6325 58.3527 51.4817C56.1353 52.6161 55.4986 53.0251 55.2787 53.456C55.1496 53.7089 55.1703 54.1075 55.3244 54.3393C55.4686 54.556 56.1363 55.0576 56.6494 55.3348C57.2403 55.6539 58.0024 55.7851 60.1278 55.9337C61.0114 55.9955 61.2596 55.9913 62.1513 55.8991C64.2332 55.684 65.0322 55.8403 67.3243 56.9114C68.5301 57.4748 72.497 59.6024 73.9019 60.4392C76.5228 62.0004 77.0638 62.2698 79.4551 63.2056C81.0651 63.8355 81.6817 64.1334 82.2569 64.5594C82.5019 64.7409 82.7177 64.8894 82.7364 64.8894C82.755 64.8894 82.9518 64.7714 83.1737 64.6274C83.4267 64.4631 83.722 64.1939 83.9659 63.9052C84.674 63.067 84.8397 62.6168 84.5603 62.29C84.4294 62.1369 83.78 61.7365 82.8006 61.2048C82.1893 60.873 80.349 59.7239 79.616 59.2163C79.3365 59.0227 78.9045 58.6466 78.656 58.3805C78.1225 57.809 77.3557 56.7975 77.162 56.4095C76.9559 55.9968 76.6757 55.159 76.4787 54.366C76.3196 53.7256 76.2984 53.5271 76.2555 52.2731C76.1813 50.1019 76.0124 49.4725 75.3202 48.7861C74.8504 48.3203 74.0098 47.7748 73.4398 47.5658C72.6093 47.2613 71.6067 47.0837 70.7794 47.0946C70.383 47.0997 69.9672 47.1135 69.8552 47.1252ZM98.306 47.1224C97.6492 47.2545 96.6428 47.539 96.3398 47.6783C95.6368 48.0013 94.8634 48.5873 94.4634 49.1C94.0304 49.655 93.8264 50.5898 93.8256 52.0221C93.825 53.0222 93.7501 53.7105 93.5582 54.4811C93.1994 55.9216 92.9049 56.5366 92.0588 57.6121C91.3712 58.4861 91.0397 58.8082 90.3351 59.287C89.4209 59.9084 87.9841 60.8058 87.3097 61.1766C86.2548 61.7567 85.5656 62.1851 85.474 62.3175C85.3149 62.5477 85.3677 62.8971 85.6194 63.2791C85.9668 63.8062 86.5047 64.3718 86.9182 64.6448C87.122 64.7793 87.3049 64.8894 87.3248 64.8894C87.3446 64.8894 87.5653 64.7406 87.8152 64.5586C88.4311 64.1104 88.9142 63.8743 90.4515 63.2703C92.9383 62.2932 93.547 61.9966 95.6685 60.7278C97.271 59.7693 100.588 57.9698 102.291 57.1341C104.887 55.8613 105.702 55.6824 107.915 55.8992C108.939 55.9995 109.054 55.9997 110.315 55.9038C112.5 55.7376 112.972 55.6282 113.83 55.0895C114.495 54.6717 114.808 54.3668 114.86 54.086C114.994 53.3579 114.645 53.0317 112.511 51.8917C110.664 50.905 107.827 49.5975 105.084 48.4695C102.674 47.4783 101.321 47.1515 99.4697 47.1138C98.9097 47.1024 98.386 47.1063 98.306 47.1224ZM52.6625 54.1546C52.0545 54.309 50.9941 54.6236 50.3061 54.8534C48.2719 55.5331 47.9092 55.6194 41.9861 56.8335C36.6045 57.9365 35.1846 58.1676 30.1752 58.7557C28.7832 58.9192 27.5962 59.0595 27.5374 59.0676C27.3659 59.0912 27.9463 59.9327 28.5337 60.512C29.4942 61.4593 30.3338 61.8823 32.0079 62.262C34.8221 62.9005 38.0914 62.9 42.597 62.2605C46.6322 61.6877 47.8987 61.3968 51.7025 60.1688C55.3659 58.9861 57.9776 58.0682 59.8217 57.3153C60.8009 56.9155 61.4831 56.5949 61.2152 56.6604C60.9392 56.728 59.9149 56.8135 59.3383 56.8171C58.7522 56.8209 58.1819 56.7682 57.2892 56.6279C56.8373 56.5569 55.9392 56.2281 55.4506 55.9548C54.9207 55.6583 54.3281 54.9953 54.0356 54.3715C53.905 54.0929 53.7913 53.8669 53.783 53.8693C53.7747 53.8717 53.2705 54.0001 52.6625 54.1546ZM116.022 54.3754C115.589 55.3262 114.915 55.9035 113.695 56.3686C113.173 56.5675 112.985 56.6086 112.066 56.7245C111.019 56.8564 109.721 56.8315 108.839 56.6624C108.6 56.6166 109.367 56.9658 110.524 57.4304C112.459 58.2068 116.71 59.6658 120.299 60.7852C122.136 61.3585 123.879 61.729 126.697 62.1458C131.701 62.8861 134.875 62.9354 137.771 62.3181C139.189 62.0158 140.084 61.6717 140.799 61.154C141.289 60.799 142.167 59.8636 142.402 59.4473C142.508 59.259 142.585 59.097 142.574 59.0874C142.563 59.0778 141.493 58.9456 140.197 58.7936C137.423 58.4684 134.437 58.0611 133.028 57.8159C131.953 57.629 126.228 56.4706 123.964 55.9821C122.074 55.5743 121.047 55.2975 119.533 54.7875C118.818 54.5467 117.819 54.2524 117.313 54.1334C116.806 54.0143 116.361 53.9051 116.324 53.8908C116.283 53.8754 116.159 54.0752 116.022 54.3754ZM82.7355 54.6247C82.442 54.808 82.3409 55.2628 82.5051 55.661C82.6277 55.9584 82.847 56.0462 83.4668 56.0462C83.8245 56.0462 83.9933 56.0679 83.9933 56.1139C83.9933 56.2642 83.7623 60.3422 83.7375 60.6299L83.7108 60.9394H84.8993H86.0879L86.0867 60.7478C86.0861 60.6424 86.0343 59.694 85.9715 58.6402C85.9087 57.5864 85.8569 56.5716 85.8563 56.3852L85.8551 56.0462H86.3844C87.1748 56.0462 87.3679 55.8896 87.3679 55.2485C87.3679 54.9776 87.3416 54.8981 87.1981 54.7354L87.0284 54.5429L84.9727 54.5271C83.0311 54.5123 82.9069 54.5177 82.7355 54.6247ZM62.757 56.772C62.613 56.8149 62.3657 56.9345 62.2074 57.0376C62.0491 57.1409 61.8975 57.2253 61.8704 57.2253C61.8433 57.2253 61.1481 57.5403 60.3255 57.9253C59.0368 58.5284 55.4985 59.9401 54.3206 60.321C54.1446 60.378 53.0581 60.7545 51.9061 61.1578C49.7104 61.9266 48.4753 62.3037 47.3097 62.5611C46.9257 62.6459 46.2712 62.7919 45.8552 62.8854C44.88 63.1047 44.4095 63.1846 42.3727 63.4769C40.8215 63.6994 40.5597 63.7208 38.9283 63.7582C37.0833 63.8005 36.928 63.8247 37.1042 64.0421C37.2247 64.1907 38.3647 64.7249 39.1478 64.9997C39.8714 65.2537 41.4959 65.6003 42.6223 65.741C45.123 66.0534 48.3631 65.995 50.8297 65.5931C53.7989 65.1094 55.6194 64.6044 59.0043 63.3258C61.5264 62.3731 63.2661 61.5743 64.997 60.5742C65.477 60.2969 66.1083 59.9489 66.3997 59.8008C66.737 59.6295 67.1374 59.3547 67.5008 59.0451L68.0718 58.5587L67.7853 58.3006C67.1227 57.7036 66.0652 57.1063 65.2588 56.8736C64.6998 56.7123 63.1666 56.6501 62.757 56.772ZM105.4 56.7493C104.939 56.814 104.28 57.0266 103.832 57.2553C103.321 57.5162 102.455 58.1088 102.214 58.3628L102.02 58.567L102.505 58.9924C103.004 59.4305 103.404 59.6901 104.211 60.1007C104.467 60.2308 104.883 60.4611 105.135 60.6124C106.471 61.4139 108.639 62.412 110.927 63.2784C114.145 64.4968 115.647 64.9366 118.225 65.415C120.536 65.8437 122.255 65.9847 124.488 65.9286C126.619 65.875 127.563 65.7732 129.419 65.3968C130.924 65.0916 132.925 64.2825 132.971 63.9606C132.996 63.7893 132.919 63.781 130.975 63.7462C129.428 63.7185 129.252 63.7033 127.484 63.4456C125.608 63.172 125.02 63.0654 123.266 62.6806C121.786 62.3559 120.74 62.0499 118.797 61.3737C117.815 61.0318 116.527 60.5852 115.935 60.3812C114.84 60.0039 113.186 59.3838 111.717 58.7997C110.827 58.4459 108.501 57.3745 107.761 56.9772L107.295 56.7275L106.51 56.7157C106.078 56.7092 105.578 56.7243 105.4 56.7493ZM68.9693 59.2396C68.8194 59.3476 68.5144 59.5899 68.2916 59.7778C67.6937 60.2822 67.1474 60.5952 64.7352 61.8161C62.2504 63.0736 61.224 63.5577 59.9884 64.0547C57.2856 65.142 53.124 66.2496 50.4101 66.604C50.0993 66.6446 49.814 66.6972 49.7762 66.7209C49.4753 66.9093 50.7386 67.5162 52.2152 67.8926C53.6312 68.2536 54.1631 68.3198 55.8915 68.3504C58.2543 68.392 60.0327 68.1812 61.5643 67.6778C63.596 67.01 66.9005 65.5396 70.553 63.6781C71.9512 62.9656 73.9841 61.8476 74.0989 61.7282C74.214 61.6085 72.6233 60.4724 71.581 59.9299C70.9738 59.6138 69.7206 59.1156 69.4176 59.0697C69.2851 59.0497 69.1748 59.0915 68.9693 59.2396ZM100.459 59.1083C100.411 59.1368 100.123 59.2452 99.8188 59.3493C98.7708 59.7081 97.2118 60.594 96.3199 61.3375C96.0024 61.6022 95.9348 61.6858 95.9928 61.7422C96.2911 62.0318 101.216 64.5841 103.397 65.5798C106.602 67.0427 108.787 67.8615 110.03 68.0662C111.518 68.3111 112.556 68.3826 114.19 68.3525C115.819 68.3224 116.354 68.2577 117.739 67.9231C118.607 67.7133 119.023 67.5688 119.705 67.2389C120.251 66.9746 120.431 66.8312 120.336 66.7352C120.317 66.7156 119.888 66.6373 119.384 66.5612C116.311 66.0977 112.572 65.0807 109.884 63.9771C108.67 63.4785 107.732 63.0331 105.251 61.7757C102.863 60.5655 102.34 60.265 101.768 59.7756C100.951 59.0769 100.715 58.9564 100.459 59.1083ZM77.4479 64.1854C75.9731 64.3379 73.2425 64.9964 71.9392 65.5137C70.6289 66.0337 69.7357 66.6595 68.4564 67.9537C67.2963 69.1272 66.8487 70.0086 66.5696 71.6691C66.3404 73.0324 66.3193 74.5831 66.5167 75.5599C66.7057 76.495 67.5568 78.5305 68.1191 79.3921C68.4392 79.8826 69.1177 80.5768 69.702 81.0118C70.7984 81.8279 72.5769 82.7799 73.8169 83.2144C76.0867 84.0097 79.6436 84.5617 83.3824 84.6988C85.5225 84.7773 88.4837 84.969 89.3246 85.0836C90.8671 85.2937 92.7618 86.0211 93.7388 86.7783C95.3092 87.9954 95.9134 89.98 95.091 91.2197C94.6812 91.8375 93.7193 92.4045 91.4988 93.3375C90.9068 93.5863 90.3589 93.8233 90.2813 93.8642C90.1463 93.9353 90.145 93.9412 90.2522 93.9993C90.3138 94.0327 90.757 94.1973 91.2369 94.3651C91.7272 94.5364 92.4411 94.8454 92.866 95.0702C93.6544 95.4872 94.8847 96.2214 95.2039 96.4653C95.3058 96.5431 95.4244 96.6068 95.4675 96.6068C95.5793 96.6068 96.5402 95.9672 97.2103 95.4468C98.2096 94.6706 98.8917 93.8388 99.4772 92.6822C99.886 91.875 99.9578 91.4593 99.9191 90.1271C99.8874 89.0382 99.7569 88.0387 99.5597 87.3747C99.3316 86.6067 98.4085 85.0473 97.7031 84.2384C96.7046 83.0933 95.3514 82.1885 93.5505 81.4617C91.625 80.6846 88.9685 80.2456 84.0515 79.8918C80.7917 79.6573 78.2628 79.332 77.1427 79.0031C75.8773 78.6315 74.4649 77.9666 73.3201 77.2033C72.2842 76.5128 72.0877 76.2522 71.792 75.1769C71.6456 74.6445 71.6302 74.4989 71.6331 73.6736C71.637 72.5946 71.7581 71.958 72.1154 71.1375C72.4224 70.4326 72.782 69.9015 73.4014 69.2384C74.1067 68.4831 74.4104 68.3354 75.237 68.345C75.9988 68.3538 77.222 68.6635 77.9424 69.03L78.437 69.2815L79.1933 69.2764C80.3397 69.2687 81.4598 68.9964 82.5679 68.456C83.3645 68.0674 83.7606 67.6632 83.7606 67.2386C83.7606 67.0095 83.5211 66.596 83.1649 66.2102C82.8201 65.8367 81.7292 65.0416 81.1665 64.7538C80.2563 64.2881 78.7216 64.0536 77.4479 64.1854ZM91.0042 64.1867C90.2989 64.2711 89.4633 64.5008 88.995 64.7389C88.764 64.8564 88.2986 65.1432 87.9609 65.3761C86.6098 66.308 86.1223 67.0784 86.4961 67.6912C86.9765 68.4788 89.5556 69.3697 91.1497 69.2985C91.6612 69.2757 91.7385 69.2553 92.1866 69.0243C92.9136 68.6496 94.0889 68.3522 94.8733 68.3443C95.4266 68.3388 95.5167 68.3536 95.8294 68.502C96.2106 68.6829 96.7927 69.2476 97.3112 69.9396C97.6553 70.3988 98.0636 71.2169 98.24 71.801C98.4294 72.4282 98.5584 73.4541 98.5169 74.0055C98.4709 74.6188 98.1796 75.7908 97.993 76.1134C97.7942 76.4571 97.4178 76.7943 96.7217 77.252C95.0869 78.3269 93.3896 79.0033 91.586 79.2984C91.266 79.3507 90.9165 79.4082 90.8092 79.4261C90.7019 79.4441 90.6267 79.4714 90.642 79.4869C90.6574 79.5025 91.2164 79.7016 91.8843 79.9294C94.1481 80.7014 96.3042 81.651 97.2819 82.3065C97.5027 82.4546 97.7061 82.5757 97.734 82.5757C97.8281 82.5757 98.8425 82.0378 99.3762 81.7049C100.642 80.9156 101.525 80.1172 102.058 79.2817C102.579 78.4648 103.313 76.7117 103.587 75.6299C103.749 74.9928 103.727 72.714 103.55 71.7036C103.185 69.625 102.574 68.6447 100.604 66.9822C99.7541 66.2646 99.5266 66.1145 98.7715 65.7737C97.5503 65.2223 96.9311 65.0609 93.4479 64.3853C92.2192 64.147 91.6929 64.1043 91.0042 64.1867ZM80.5461 65.4782C80.9054 65.7003 80.7144 66.0134 80.1961 66.0522C79.5975 66.097 79.2899 65.6951 79.7461 65.4643C80.0139 65.3287 80.3124 65.3339 80.5461 65.4782ZM90.0368 65.4261C90.262 65.5057 90.3628 65.67 90.2812 65.8245C90.131 66.1089 89.453 66.1447 89.1936 65.8818C89.0629 65.7493 89.0603 65.7335 89.1485 65.6059C89.3115 65.3701 89.6718 65.2973 90.0368 65.4261ZM83.7992 68.3529C83.7847 68.3773 83.6389 68.9117 83.4753 69.5407L83.1779 70.6842L83.2386 74.2865C83.2721 76.2678 83.3139 78.1076 83.3316 78.3752L83.3638 78.8615H84.9295H86.4951L86.5002 78.2573C86.503 77.9249 86.5366 76.0877 86.5748 74.1747L86.6443 70.6964L86.393 69.7236C86.2548 69.1886 86.1156 68.6514 86.0835 68.5298L86.0252 68.3087H84.9254C84.3205 68.3087 83.8138 68.3286 83.7992 68.3529ZM72.4454 84.1822C71.7718 84.9384 70.8619 86.4635 70.5899 87.292C70.1839 88.5289 70.0357 90.8221 70.2954 91.8514C70.4011 92.2705 70.8448 93.1451 71.2633 93.7588C71.6075 94.2638 72.3036 94.9985 72.8077 95.3888C73.333 95.7955 74.51 96.6068 74.5747 96.6068C74.6051 96.6068 74.7534 96.6695 74.9043 96.7462C75.2472 96.9204 77.5889 97.6734 78.4069 97.8725C79.1483 98.0529 80.5121 98.27 81.957 98.4375C82.844 98.5404 83.4426 98.5651 85.3606 98.5782C87.4531 98.5924 87.7524 98.6067 88.3279 98.7192C89.6923 98.9861 90.696 99.3782 91.239 99.8565C91.7805 100.333 92.4896 101.166 92.6636 101.529C92.8829 101.987 92.969 102.524 92.9442 103.28C92.9266 103.815 92.9033 103.93 92.7497 104.24C92.4841 104.776 91.9332 105.334 91.4259 105.582C91.0917 105.746 89.9789 106.181 89.4624 106.351C89.3573 106.385 89.3351 106.376 90.0733 106.599C90.774 106.81 91.1633 107.034 92.3073 107.887L93.2733 108.607L93.7679 108.231C94.0399 108.025 94.5111 107.676 94.8151 107.456C95.7158 106.805 96.0071 106.428 96.3437 105.478C96.9219 103.846 96.899 102.325 96.2682 100.471C95.8219 99.1596 95.3732 98.4105 94.4716 97.4713C93.3256 96.2774 92.2774 95.6822 90.3933 95.1555C88.9107 94.7411 88.4122 94.6666 86.4951 94.5729C83.1058 94.4072 81.2874 94.2619 80.5854 94.1005C79.7821 93.916 78.1038 93.3341 77.4193 93.003C76.0311 92.3314 75.4087 91.8212 75.0386 91.0517C74.3976 89.719 74.6519 88.5211 75.8405 87.2734C76.443 86.6411 77.2977 86.1201 78.3771 85.7271L78.899 85.5371L78.5516 85.4671C76.7023 85.0943 74.7915 84.5666 73.53 84.0802C73.1498 83.9336 72.8241 83.8137 72.8061 83.8137C72.7882 83.8137 72.6259 83.9795 72.4454 84.1822ZM83.4893 87.3068C83.5101 88.2876 83.5444 90.0651 83.5656 91.2567L83.6041 93.4233H84.8976H86.1911L86.2259 92.6126C86.2451 92.1668 86.2746 90.7674 86.2916 89.5028C86.3085 88.2382 86.3382 86.8255 86.3576 86.3635L86.3928 85.5234H84.9222H83.4516L83.4893 87.3068ZM74.9742 98.0703C74.6642 98.3961 74.2616 99.1947 73.847 100.306C73.4595 101.344 73.4058 101.626 73.3666 102.826C73.3135 104.451 73.4223 104.947 74.0833 106.092C74.6148 107.013 75.7437 108.041 76.9061 108.662C77.6826 109.077 79.2452 109.568 80.7061 109.854C81.1543 109.942 81.6231 109.958 83.9642 109.964C86.698 109.971 86.6989 109.971 87.2515 110.121C89.4266 110.71 90.226 111.398 90.8303 113.202C91.0382 113.823 91.0814 114.448 90.9484 114.915C90.7126 115.743 90.3564 116.201 89.4969 116.778C88.8194 117.234 87.8465 117.724 87.3503 117.859L86.9545 117.967L87.9612 118.27C89.1151 118.618 89.1713 118.644 89.9158 119.193C90.2596 119.446 90.4921 119.581 90.5324 119.55C90.5679 119.523 90.9171 119.256 91.3083 118.956C92.4495 118.082 92.9907 117.427 93.5657 116.224C93.9714 115.375 94.0593 115.025 94.1005 114.097C94.1394 113.219 94.0684 112.7 93.8236 112.072C93.6326 111.583 92.6061 109.699 92.3765 109.417C92.0019 108.956 91.0093 108.266 89.957 107.733C88.5174 107.005 87.297 106.774 84.4297 106.689C80.9668 106.585 79.046 106.08 77.9348 104.978C77.5486 104.595 77.4747 104.488 77.3854 104.182C77.2472 103.709 77.2567 103.032 77.4123 102.266C77.6593 101.051 78.1036 100.418 79.1968 99.7267C79.7838 99.3554 79.9908 99.2008 79.9012 99.2008C79.716 99.2008 78.2342 98.8032 77.8958 98.6626C77.6494 98.5603 77.2253 98.3903 76.9533 98.2847C76.6813 98.1791 76.3017 98.0243 76.1097 97.9407C75.913 97.855 75.648 97.7881 75.5026 97.7873C75.2697 97.786 75.2183 97.8135 74.9742 98.0703ZM83.7231 100.07C83.7427 100.516 83.7757 102.002 83.7964 103.372L83.8341 105.863H84.8953H85.9565L85.9923 105.111C86.0119 104.698 86.045 103.212 86.0659 101.81L86.1037 99.2598H84.8956H83.6875L83.7231 100.07ZM77.3372 109.819C77.1366 109.978 76.9224 110.414 76.5529 111.414C76.0926 112.66 76.0027 113.113 76.0401 113.998C76.0922 115.231 76.3894 116.163 77.0536 117.175C77.6979 118.158 78.4795 118.82 79.8048 119.508C81.2407 120.253 82.1837 120.487 84.6915 120.721C86.1164 120.853 86.6085 120.939 87.2961 121.171C88.2132 121.482 88.5823 121.765 88.8954 122.399C89.2155 123.048 89.2968 124.396 89.1194 126.113C89.0524 126.762 88.9179 128.062 88.8206 129.002C88.3619 133.432 87.9015 135.312 87.1227 135.935C87.0176 136.019 86.7155 136.215 86.4515 136.37C86.1875 136.526 85.9715 136.679 85.9715 136.71C85.9715 136.745 86.2138 136.759 86.597 136.745C87.1563 136.725 87.2553 136.704 87.5336 136.549C88.2845 136.131 89.1233 134.796 89.5154 133.394C89.7128 132.689 90.5645 128.815 90.948 126.88C91.2962 125.122 91.3985 124.216 91.3694 123.146C91.3479 122.355 91.3297 122.234 91.1553 121.726C90.9985 121.27 90.8933 121.081 90.564 120.665C90.0728 120.045 89.652 119.695 88.9334 119.311C88.1569 118.896 86.7226 118.531 85.0829 118.333C84.2458 118.232 83.1854 117.995 82.3933 117.732C81.0388 117.283 79.9712 116.457 79.5113 115.502C79.1759 114.805 79.1257 114.465 79.2403 113.669C79.2919 113.31 79.3868 112.892 79.4512 112.74C79.6194 112.342 80.2834 111.355 80.6368 110.978L80.9388 110.655L79.8624 110.373C79.2704 110.219 78.5715 110.003 78.3094 109.893C77.7561 109.663 77.5524 109.647 77.3372 109.819ZM83.9563 112.451C83.9771 113.48 84.0107 115.032 84.031 115.9L84.068 117.477H84.9242H85.7805L85.8187 114.662C85.8397 113.113 85.8729 111.561 85.8926 111.213L85.9283 110.579H84.9234H83.9186L83.9563 112.451ZM79.4198 120.466C79.2981 120.622 79.1171 120.855 79.0173 120.984C78.9096 121.125 78.7553 121.471 78.6366 121.839C78.4421 122.443 78.4374 122.481 78.4448 123.372C78.4569 124.816 78.5832 125.585 79.5187 129.916C80.3432 133.732 80.4606 134.131 81.0607 135.15C81.4511 135.813 81.9635 136.383 82.3441 136.577C82.5702 136.692 82.7394 136.726 83.198 136.745C83.5126 136.758 83.7929 136.746 83.821 136.717C83.8504 136.687 83.6233 136.516 83.2876 136.314C82.6109 135.907 82.4204 135.709 82.1545 135.137C81.6774 134.109 81.3597 132.429 81.0278 129.179C80.9615 128.531 80.8399 127.363 80.7575 126.585C80.5334 124.469 80.6059 122.998 80.9682 122.31C81.1258 122.01 81.4704 121.648 81.7242 121.515L81.986 121.377L81.637 121.22C81.0178 120.94 80.3659 120.612 79.999 120.395L79.641 120.184L79.4198 120.466ZM84.1426 122.208C84.1556 122.508 84.1942 124.345 84.2284 126.29C84.2626 128.236 84.327 131.783 84.3716 134.174L84.4525 138.52L84.3126 138.774C84.1152 139.131 83.9952 139.706 83.9942 140.299C83.993 140.981 84.0704 141.361 84.3133 141.862C84.4253 142.094 84.5166 142.32 84.5161 142.364C84.5149 142.481 84.8855 143.535 84.928 143.535C84.9478 143.535 85.0516 143.236 85.1587 142.871C85.2658 142.507 85.4277 142.072 85.5185 141.906C85.9571 141.103 85.9629 139.566 85.5304 138.761L85.3748 138.471L85.5291 130.229C85.6139 125.696 85.6827 121.914 85.6819 121.825L85.6806 121.662H84.8998H84.119L84.1426 122.208Z" fill="white"/>
<path d="M188.83 47.2758H179.786V56.9998H174.618V33.2678H179.786V42.7198H188.83V33.2678H193.998V56.9998H188.83V47.2758Z" fill="#444444"/>
<path d="M206.396 57.4078C205.036 57.4078 203.823 57.1925 202.758 56.7618C201.692 56.3085 200.786 55.6852 200.038 54.8918C199.312 54.0758 198.757 53.0898 198.372 51.9338C198.009 50.7778 197.828 49.4858 197.828 48.0578C197.828 46.6525 198.009 45.3832 198.372 44.2498C198.734 43.0938 199.267 42.1078 199.97 41.2918C200.695 40.4758 201.579 39.8525 202.622 39.4218C203.664 38.9685 204.854 38.7418 206.192 38.7418C207.665 38.7418 208.923 38.9912 209.966 39.4898C211.031 39.9885 211.892 40.6572 212.55 41.4958C213.23 42.3345 213.717 43.3092 214.012 44.4198C214.329 45.5078 214.488 46.6525 214.488 47.8538V49.3498H203.03V49.6218C203.03 50.8005 203.347 51.7412 203.982 52.4438C204.616 53.1238 205.614 53.4638 206.974 53.4638C208.016 53.4638 208.866 53.2598 209.524 52.8518C210.181 52.4212 210.793 51.9112 211.36 51.3218L213.876 54.4498C213.082 55.3792 212.04 56.1045 210.748 56.6258C209.478 57.1472 208.028 57.4078 206.396 57.4078ZM206.294 42.4478C205.274 42.4478 204.469 42.7878 203.88 43.4678C203.313 44.1252 203.03 45.0092 203.03 46.1198V46.3918H209.286V46.0858C209.286 44.9978 209.036 44.1252 208.538 43.4678C208.062 42.7878 207.314 42.4478 206.294 42.4478Z" fill="#444444"/>
<path d="M231.233 56.9998C230.327 56.9998 229.567 56.7165 228.955 56.1498C228.366 55.5832 227.992 54.8238 227.833 53.8718H227.629C227.357 55.0278 226.757 55.9118 225.827 56.5238C224.898 57.1132 223.753 57.4078 222.393 57.4078C220.603 57.4078 219.231 56.9318 218.279 55.9798C217.327 55.0278 216.851 53.7698 216.851 52.2058C216.851 50.3245 217.531 48.9305 218.891 48.0238C220.274 47.0945 222.144 46.6298 224.501 46.6298H227.323V45.5078C227.323 44.6465 227.097 43.9665 226.643 43.4678C226.19 42.9465 225.431 42.6858 224.365 42.6858C223.368 42.6858 222.575 42.9012 221.985 43.3318C221.396 43.7625 220.909 44.2498 220.523 44.7938L217.531 42.1418C218.257 41.0765 219.163 40.2492 220.251 39.6598C221.362 39.0478 222.858 38.7418 224.739 38.7418C227.278 38.7418 229.182 39.2972 230.451 40.4078C231.721 41.5185 232.355 43.1392 232.355 45.2698V53.0898H234.021V56.9998H231.233ZM224.263 53.9058C225.102 53.9058 225.816 53.7245 226.405 53.3618C227.017 52.9992 227.323 52.4098 227.323 51.5938V49.4858H224.875C222.903 49.4858 221.917 50.1545 221.917 51.4918V52.0018C221.917 52.6592 222.121 53.1465 222.529 53.4638C222.937 53.7585 223.515 53.9058 224.263 53.9058Z" fill="#444444"/>
<path d="M242.397 56.9998C240.674 56.9998 239.405 56.5805 238.589 55.7418C237.796 54.9032 237.399 53.6905 237.399 52.1038V31.8398H242.431V53.0898H244.675V56.9998H242.397Z" fill="#444444"/>
<path d="M253.782 56.9998C252.037 56.9998 250.711 56.5578 249.804 55.6738C248.92 54.7898 248.478 53.4978 248.478 51.7978V43.0598H245.962V39.1498H247.22C247.9 39.1498 248.365 38.9912 248.614 38.6738C248.863 38.3338 248.988 37.8578 248.988 37.2458V34.3218H253.51V39.1498H257.046V43.0598H253.51V53.0898H256.774V56.9998H253.782Z" fill="#444444"/>
<path d="M260.541 31.8398H265.573V42.1758H265.777C266.095 41.2465 266.65 40.4418 267.443 39.7618C268.237 39.0818 269.336 38.7418 270.741 38.7418C272.577 38.7418 273.96 39.3538 274.889 40.5778C275.841 41.8018 276.317 43.5472 276.317 45.8138V56.9998H271.285V46.2218C271.285 45.0658 271.104 44.2158 270.741 43.6718C270.379 43.1052 269.733 42.8218 268.803 42.8218C268.395 42.8218 267.999 42.8785 267.613 42.9918C267.228 43.0825 266.877 43.2412 266.559 43.4678C266.265 43.6945 266.027 43.9778 265.845 44.3178C265.664 44.6352 265.573 45.0092 265.573 45.4398V56.9998H260.541V31.8398Z" fill="#444444"/>
<path d="M288.185 56.9998V52.8858H291.245V37.3818H288.185V33.2678H299.473V37.3818H296.413V52.8858H299.473V56.9998H288.185Z" fill="#444444"/>
<path d="M303.506 56.9998V39.1498H308.538V42.1758H308.742C309.06 41.2465 309.615 40.4418 310.408 39.7618C311.202 39.0818 312.301 38.7418 313.706 38.7418C315.542 38.7418 316.925 39.3538 317.854 40.5778C318.806 41.8018 319.282 43.5472 319.282 45.8138V56.9998H314.25V46.2218C314.25 45.0658 314.069 44.2158 313.706 43.6718C313.344 43.1052 312.698 42.8218 311.768 42.8218C311.36 42.8218 310.964 42.8785 310.578 42.9918C310.193 43.0825 309.842 43.2412 309.524 43.4678C309.23 43.6945 308.992 43.9778 308.81 44.3178C308.629 44.6352 308.538 45.0092 308.538 45.4398V56.9998H303.506Z" fill="#444444"/>
<path d="M329.812 57.4078C328.09 57.4078 326.639 57.1358 325.46 56.5918C324.282 56.0252 323.228 55.2318 322.298 54.2118L325.256 51.2198C325.891 51.9225 326.594 52.4778 327.364 52.8858C328.135 53.2938 329.008 53.4978 329.982 53.4978C330.98 53.4978 331.671 53.3505 332.056 53.0558C332.442 52.7385 332.634 52.3192 332.634 51.7978C332.634 50.9592 332.034 50.4605 330.832 50.3018L328.894 50.0638C324.882 49.5652 322.876 47.7292 322.876 44.5558C322.876 43.6945 323.035 42.9125 323.352 42.2098C323.692 41.4845 324.157 40.8725 324.746 40.3738C325.358 39.8525 326.084 39.4558 326.922 39.1838C327.784 38.8892 328.747 38.7418 329.812 38.7418C330.742 38.7418 331.558 38.8098 332.26 38.9458C332.986 39.0592 333.62 39.2405 334.164 39.4898C334.731 39.7165 335.241 40.0112 335.694 40.3738C336.17 40.7138 336.635 41.0992 337.088 41.5298L334.198 44.4878C333.632 43.9212 332.986 43.4792 332.26 43.1618C331.558 42.8218 330.832 42.6518 330.084 42.6518C329.223 42.6518 328.611 42.7878 328.248 43.0598C327.886 43.3318 327.704 43.6945 327.704 44.1478C327.704 44.6238 327.829 44.9978 328.078 45.2698C328.35 45.5192 328.849 45.7005 329.574 45.8138L331.58 46.0858C335.502 46.6072 337.462 48.3978 337.462 51.4578C337.462 52.3192 337.281 53.1125 336.918 53.8378C336.556 54.5632 336.034 55.1978 335.354 55.7418C334.697 56.2632 333.892 56.6712 332.94 56.9658C332.011 57.2605 330.968 57.4078 329.812 57.4078Z" fill="#444444"/>
<path d="M351.433 54.0078H351.263C351.104 54.4612 350.889 54.8918 350.617 55.2998C350.368 55.7078 350.039 56.0705 349.631 56.3878C349.223 56.7052 348.736 56.9545 348.169 57.1358C347.625 57.3172 346.99 57.4078 346.265 57.4078C344.429 57.4078 343.035 56.8072 342.083 55.6058C341.154 54.3818 340.689 52.6365 340.689 50.3698V39.1498H345.721V49.9278C345.721 51.0158 345.914 51.8545 346.299 52.4438C346.684 53.0332 347.342 53.3278 348.271 53.3278C348.656 53.3278 349.042 53.2712 349.427 53.1578C349.812 53.0445 350.152 52.8858 350.447 52.6818C350.742 52.4552 350.98 52.1832 351.161 51.8658C351.342 51.5485 351.433 51.1745 351.433 50.7438V39.1498H356.465V56.9998H351.433V54.0078Z" fill="#444444"/>
<path d="M361.147 56.9998V39.1498H366.179V43.0258H366.349C366.44 42.5272 366.598 42.0512 366.825 41.5978C367.052 41.1218 367.346 40.7025 367.709 40.3398C368.094 39.9772 368.548 39.6938 369.069 39.4898C369.59 39.2632 370.202 39.1498 370.905 39.1498H371.789V43.8418H370.531C369.058 43.8418 367.958 44.0345 367.233 44.4198C366.53 44.8052 366.179 45.5192 366.179 46.5618V56.9998H361.147Z" fill="#444444"/>
<path d="M387.62 56.9998C386.714 56.9998 385.954 56.7165 385.342 56.1498C384.753 55.5832 384.379 54.8238 384.22 53.8718H384.016C383.744 55.0278 383.144 55.9118 382.214 56.5238C381.285 57.1132 380.14 57.4078 378.78 57.4078C376.99 57.4078 375.618 56.9318 374.666 55.9798C373.714 55.0278 373.238 53.7698 373.238 52.2058C373.238 50.3245 373.918 48.9305 375.278 48.0238C376.661 47.0945 378.531 46.6298 380.888 46.6298H383.71V45.5078C383.71 44.6465 383.484 43.9665 383.03 43.4678C382.577 42.9465 381.818 42.6858 380.752 42.6858C379.755 42.6858 378.962 42.9012 378.372 43.3318C377.783 43.7625 377.296 44.2498 376.91 44.7938L373.918 42.1418C374.644 41.0765 375.55 40.2492 376.638 39.6598C377.749 39.0478 379.245 38.7418 381.126 38.7418C383.665 38.7418 385.569 39.2972 386.838 40.4078C388.108 41.5185 388.742 43.1392 388.742 45.2698V53.0898H390.408V56.9998H387.62ZM380.65 53.9058C381.489 53.9058 382.203 53.7245 382.792 53.3618C383.404 52.9992 383.71 52.4098 383.71 51.5938V49.4858H381.262C379.29 49.4858 378.304 50.1545 378.304 51.4918V52.0018C378.304 52.6592 378.508 53.1465 378.916 53.4638C379.324 53.7585 379.902 53.9058 380.65 53.9058Z" fill="#444444"/>
<path d="M393.786 56.9998V39.1498H398.818V42.1758H399.022C399.339 41.2465 399.894 40.4418 400.688 39.7618C401.481 39.0818 402.58 38.7418 403.986 38.7418C405.822 38.7418 407.204 39.3538 408.134 40.5778C409.086 41.8018 409.562 43.5472 409.562 45.8138V56.9998H404.53V46.2218C404.53 45.0658 404.348 44.2158 403.986 43.6718C403.623 43.1052 402.977 42.8218 402.048 42.8218C401.64 42.8218 401.243 42.8785 400.858 42.9918C400.472 43.0825 400.121 43.2412 399.804 43.4678C399.509 43.6945 399.271 43.9778 399.09 44.3178C398.908 44.6352 398.818 45.0092 398.818 45.4398V56.9998H393.786Z" fill="#444444"/>
<path d="M421.248 57.4078C419.91 57.4078 418.72 57.1925 417.678 56.7618C416.635 56.3085 415.762 55.6852 415.06 54.8918C414.357 54.0758 413.824 53.0898 413.462 51.9338C413.099 50.7778 412.918 49.4858 412.918 48.0578C412.918 46.6298 413.099 45.3492 413.462 44.2158C413.824 43.0598 414.357 42.0738 415.06 41.2578C415.762 40.4418 416.635 39.8185 417.678 39.3878C418.72 38.9572 419.91 38.7418 421.248 38.7418C423.061 38.7418 424.568 39.1498 425.77 39.9658C426.994 40.7818 427.866 41.9265 428.388 43.3998L424.308 45.1678C424.149 44.4878 423.82 43.9098 423.322 43.4338C422.823 42.9578 422.132 42.7198 421.248 42.7198C420.228 42.7198 419.457 43.0598 418.936 43.7398C418.414 44.3972 418.154 45.2925 418.154 46.4258V49.7578C418.154 50.8912 418.414 51.7865 418.936 52.4438C419.457 53.1012 420.228 53.4298 421.248 53.4298C422.154 53.4298 422.868 53.1918 423.39 52.7158C423.934 52.2172 424.33 51.5712 424.58 50.7778L428.49 52.4778C427.9 54.1778 426.982 55.4245 425.736 56.2178C424.512 57.0112 423.016 57.4078 421.248 57.4078Z" fill="#444444"/>
<path d="M438.884 57.4078C437.524 57.4078 436.311 57.1925 435.246 56.7618C434.181 56.3085 433.274 55.6852 432.526 54.8918C431.801 54.0758 431.245 53.0898 430.86 51.9338C430.497 50.7778 430.316 49.4858 430.316 48.0578C430.316 46.6525 430.497 45.3832 430.86 44.2498C431.223 43.0938 431.755 42.1078 432.458 41.2918C433.183 40.4758 434.067 39.8525 435.11 39.4218C436.153 38.9685 437.343 38.7418 438.68 38.7418C440.153 38.7418 441.411 38.9912 442.454 39.4898C443.519 39.9885 444.381 40.6572 445.038 41.4958C445.718 42.3345 446.205 43.3092 446.5 44.4198C446.817 45.5078 446.976 46.6525 446.976 47.8538V49.3498H435.518V49.6218C435.518 50.8005 435.835 51.7412 436.47 52.4438C437.105 53.1238 438.102 53.4638 439.462 53.4638C440.505 53.4638 441.355 53.2598 442.012 52.8518C442.669 52.4212 443.281 51.9112 443.848 51.3218L446.364 54.4498C445.571 55.3792 444.528 56.1045 443.236 56.6258C441.967 57.1472 440.516 57.4078 438.884 57.4078ZM438.782 42.4478C437.762 42.4478 436.957 42.7878 436.368 43.4678C435.801 44.1252 435.518 45.0092 435.518 46.1198V46.3918H441.774V46.0858C441.774 44.9978 441.525 44.1252 441.026 43.4678C440.55 42.7878 439.802 42.4478 438.782 42.4478Z" fill="#444444"/>
<path d="M174.618 98.9998V75.2678H185.838C186.949 75.2678 187.946 75.4605 188.83 75.8458C189.714 76.2085 190.462 76.7185 191.074 77.3758C191.709 78.0332 192.196 78.8378 192.536 79.7898C192.876 80.7192 193.046 81.7392 193.046 82.8498C193.046 83.9832 192.876 85.0145 192.536 85.9438C192.196 86.8732 191.709 87.6665 191.074 88.3238C190.462 88.9812 189.714 89.5025 188.83 89.8878C187.946 90.2505 186.949 90.4318 185.838 90.4318H179.786V98.9998H174.618ZM179.786 85.9438H185.226C185.997 85.9438 186.598 85.7512 187.028 85.3658C187.482 84.9578 187.708 84.3685 187.708 83.5978V82.1018C187.708 81.3312 187.482 80.7532 187.028 80.3678C186.598 79.9598 185.997 79.7558 185.226 79.7558H179.786V85.9438Z" fill="#444444"/>
<path d="M203.237 99.4078C201.922 99.4078 200.743 99.1925 199.701 98.7618C198.681 98.3312 197.808 97.7078 197.083 96.8918C196.38 96.0758 195.836 95.0898 195.451 93.9338C195.065 92.7778 194.873 91.4858 194.873 90.0578C194.873 88.6298 195.065 87.3378 195.451 86.1818C195.836 85.0258 196.38 84.0512 197.083 83.2578C197.808 82.4418 198.681 81.8185 199.701 81.3878C200.743 80.9572 201.922 80.7418 203.237 80.7418C204.551 80.7418 205.719 80.9572 206.739 81.3878C207.781 81.8185 208.654 82.4418 209.357 83.2578C210.082 84.0512 210.637 85.0258 211.023 86.1818C211.408 87.3378 211.601 88.6298 211.601 90.0578C211.601 91.4858 211.408 92.7778 211.023 93.9338C210.637 95.0898 210.082 96.0758 209.357 96.8918C208.654 97.7078 207.781 98.3312 206.739 98.7618C205.719 99.1925 204.551 99.4078 203.237 99.4078ZM203.237 95.4298C204.234 95.4298 205.005 95.1238 205.549 94.5118C206.093 93.8998 206.365 93.0272 206.365 91.8938V88.2558C206.365 87.1225 206.093 86.2498 205.549 85.6378C205.005 85.0258 204.234 84.7198 203.237 84.7198C202.239 84.7198 201.469 85.0258 200.925 85.6378C200.381 86.2498 200.109 87.1225 200.109 88.2558V91.8938C200.109 93.0272 200.381 93.8998 200.925 94.5118C201.469 95.1238 202.239 95.4298 203.237 95.4298Z" fill="#444444"/>
<path d="M215.186 98.9998V81.1498H220.218V85.0258H220.388C220.479 84.5272 220.637 84.0512 220.864 83.5978C221.091 83.1218 221.385 82.7025 221.748 82.3398C222.133 81.9772 222.587 81.6938 223.108 81.4898C223.629 81.2632 224.241 81.1498 224.944 81.1498H225.828V85.8418H224.57C223.097 85.8418 221.997 86.0345 221.272 86.4198C220.569 86.8052 220.218 87.5192 220.218 88.5618V98.9998H215.186Z" fill="#444444"/>
<path d="M235.321 98.9998C233.576 98.9998 232.25 98.5578 231.343 97.6738C230.459 96.7898 230.017 95.4978 230.017 93.7978V85.0598H227.501V81.1498H228.759C229.439 81.1498 229.904 80.9912 230.153 80.6738C230.402 80.3338 230.527 79.8578 230.527 79.2458V76.3218H235.049V81.1498H238.585V85.0598H235.049V95.0898H238.313V98.9998H235.321Z" fill="#444444"/>
<path d="M255.273 98.9998C254.366 98.9998 253.607 98.7165 252.995 98.1498C252.405 97.5832 252.031 96.8238 251.873 95.8718H251.669C251.397 97.0278 250.796 97.9118 249.867 98.5238C248.937 99.1132 247.793 99.4078 246.433 99.4078C244.642 99.4078 243.271 98.9318 242.319 97.9798C241.367 97.0278 240.891 95.7698 240.891 94.2058C240.891 92.3245 241.571 90.9305 242.931 90.0238C244.313 89.0945 246.183 88.6298 248.541 88.6298H251.363V87.5078C251.363 86.6465 251.136 85.9665 250.683 85.4678C250.229 84.9465 249.47 84.6858 248.405 84.6858C247.407 84.6858 246.614 84.9012 246.025 85.3318C245.435 85.7625 244.948 86.2498 244.563 86.7938L241.571 84.1418C242.296 83.0765 243.203 82.2492 244.291 81.6598C245.401 81.0478 246.897 80.7418 248.779 80.7418C251.317 80.7418 253.221 81.2972 254.491 82.4078C255.76 83.5185 256.395 85.1392 256.395 87.2698V95.0898H258.061V98.9998H255.273ZM248.303 95.9058C249.141 95.9058 249.855 95.7245 250.445 95.3618C251.057 94.9992 251.363 94.4098 251.363 93.5938V91.4858H248.915C246.943 91.4858 245.957 92.1545 245.957 93.4918V94.0018C245.957 94.6592 246.161 95.1465 246.569 95.4638C246.977 95.7585 247.555 95.9058 248.303 95.9058Z" fill="#444444"/>
<path d="M261.438 73.8398H266.47V84.1418H266.64C266.889 83.1445 267.456 82.3285 268.34 81.6938C269.247 81.0592 270.278 80.7418 271.434 80.7418C273.701 80.7418 275.412 81.5352 276.568 83.1218C277.724 84.7085 278.302 87.0205 278.302 90.0578C278.302 93.0952 277.724 95.4185 276.568 97.0278C275.412 98.6145 273.701 99.4078 271.434 99.4078C270.845 99.4078 270.289 99.3172 269.768 99.1358C269.247 98.9772 268.771 98.7505 268.34 98.4558C267.932 98.1385 267.581 97.7758 267.286 97.3678C266.991 96.9372 266.776 96.4838 266.64 96.0078H266.47V98.9998H261.438V73.8398ZM269.768 95.3278C270.72 95.3278 271.502 94.9992 272.114 94.3418C272.749 93.6618 273.066 92.7552 273.066 91.6218V88.5278C273.066 87.3945 272.749 86.4992 272.114 85.8418C271.502 85.1618 270.72 84.8218 269.768 84.8218C268.816 84.8218 268.023 85.0598 267.388 85.5358C266.776 85.9892 266.47 86.6238 266.47 87.4398V92.7098C266.47 93.5258 266.776 94.1718 267.388 94.6478C268.023 95.1012 268.816 95.3278 269.768 95.3278Z" fill="#444444"/>
<path d="M284.64 79.2458C283.62 79.2458 282.872 79.0192 282.396 78.5658C281.942 78.0898 281.716 77.4892 281.716 76.7638V76.0158C281.716 75.2905 281.942 74.7012 282.396 74.2478C282.872 73.7718 283.62 73.5338 284.64 73.5338C285.66 73.5338 286.396 73.7718 286.85 74.2478C287.326 74.7012 287.564 75.2905 287.564 76.0158V76.7638C287.564 77.4892 287.326 78.0898 286.85 78.5658C286.396 79.0192 285.66 79.2458 284.64 79.2458ZM282.124 81.1498H287.156V98.9998H282.124V81.1498Z" fill="#444444"/>
<path d="M296.85 98.9998C295.127 98.9998 293.858 98.5805 293.042 97.7418C292.249 96.9032 291.852 95.6905 291.852 94.1038V73.8398H296.884V95.0898H299.128V98.9998H296.85Z" fill="#444444"/>
<path d="M304.661 79.2458C303.641 79.2458 302.893 79.0192 302.417 78.5658C301.964 78.0898 301.737 77.4892 301.737 76.7638V76.0158C301.737 75.2905 301.964 74.7012 302.417 74.2478C302.893 73.7718 303.641 73.5338 304.661 73.5338C305.681 73.5338 306.418 73.7718 306.871 74.2478C307.347 74.7012 307.585 75.2905 307.585 76.0158V76.7638C307.585 77.4892 307.347 78.0898 306.871 78.5658C306.418 79.0192 305.681 79.2458 304.661 79.2458ZM302.145 81.1498H307.177V98.9998H302.145V81.1498Z" fill="#444444"/>
<path d="M318.13 98.9998C316.384 98.9998 315.058 98.5578 314.152 97.6738C313.268 96.7898 312.826 95.4978 312.826 93.7978V85.0598H310.31V81.1498H311.568C312.248 81.1498 312.712 80.9912 312.962 80.6738C313.211 80.3338 313.336 79.8578 313.336 79.2458V76.3218H317.858V81.1498H321.394V85.0598H317.858V95.0898H321.122V98.9998H318.13Z" fill="#444444"/>
<path d="M335.803 81.1498H340.495L333.627 101.754C333.174 103.137 332.528 104.157 331.689 104.814C330.873 105.471 329.694 105.8 328.153 105.8H325.025V101.89H328.391L329.003 99.9178L322.747 81.1498H327.745L330.363 89.4798L331.655 94.6478H331.859L333.185 89.4798L335.803 81.1498Z" fill="#444444"/>
<path d="M364.278 98.9998C363.372 98.9998 362.612 98.7165 362 98.1498C361.411 97.5832 361.037 96.8238 360.878 95.8718H360.674C360.402 97.0278 359.802 97.9118 358.872 98.5238C357.943 99.1132 356.798 99.4078 355.438 99.4078C353.648 99.4078 352.276 98.9318 351.324 97.9798C350.372 97.0278 349.896 95.7698 349.896 94.2058C349.896 92.3245 350.576 90.9305 351.936 90.0238C353.319 89.0945 355.189 88.6298 357.546 88.6298H360.368V87.5078C360.368 86.6465 360.142 85.9665 359.688 85.4678C359.235 84.9465 358.476 84.6858 357.41 84.6858C356.413 84.6858 355.62 84.9012 355.03 85.3318C354.441 85.7625 353.954 86.2498 353.568 86.7938L350.576 84.1418C351.302 83.0765 352.208 82.2492 353.296 81.6598C354.407 81.0478 355.903 80.7418 357.784 80.7418C360.323 80.7418 362.227 81.2972 363.496 82.4078C364.766 83.5185 365.4 85.1392 365.4 87.2698V95.0898H367.066V98.9998H364.278ZM357.308 95.9058C358.147 95.9058 358.861 95.7245 359.45 95.3618C360.062 94.9992 360.368 94.4098 360.368 93.5938V91.4858H357.92C355.948 91.4858 354.962 92.1545 354.962 93.4918V94.0018C354.962 94.6592 355.166 95.1465 355.574 95.4638C355.982 95.7585 356.56 95.9058 357.308 95.9058Z" fill="#444444"/>
<path d="M370.444 98.9998V81.1498H375.476V84.1758H375.68C375.997 83.2465 376.553 82.4418 377.346 81.7618C378.139 81.0818 379.239 80.7418 380.644 80.7418C382.48 80.7418 383.863 81.3538 384.792 82.5778C385.744 83.8018 386.22 85.5472 386.22 87.8138V98.9998H381.188V88.2218C381.188 87.0658 381.007 86.2158 380.644 85.6718C380.281 85.1052 379.635 84.8218 378.706 84.8218C378.298 84.8218 377.901 84.8785 377.516 84.9918C377.131 85.0825 376.779 85.2412 376.462 85.4678C376.167 85.6945 375.929 85.9778 375.748 86.3178C375.566 86.6352 375.476 87.0092 375.476 87.4398V98.9998H370.444Z" fill="#444444"/>
<path d="M401.646 96.0078H401.476C401.34 96.4838 401.124 96.9372 400.83 97.3678C400.535 97.7758 400.172 98.1385 399.742 98.4558C399.334 98.7505 398.858 98.9772 398.314 99.1358C397.792 99.3172 397.248 99.4078 396.682 99.4078C394.415 99.4078 392.704 98.6145 391.548 97.0278C390.392 95.4185 389.814 93.0952 389.814 90.0578C389.814 87.0205 390.392 84.7085 391.548 83.1218C392.704 81.5352 394.415 80.7418 396.682 80.7418C397.838 80.7418 398.858 81.0592 399.742 81.6938C400.648 82.3285 401.226 83.1445 401.476 84.1418H401.646V73.8398H406.678V98.9998H401.646V96.0078ZM398.348 95.3278C399.3 95.3278 400.082 95.1012 400.694 94.6478C401.328 94.1718 401.646 93.5258 401.646 92.7098V87.4398C401.646 86.6238 401.328 85.9892 400.694 85.5358C400.082 85.0598 399.3 84.8218 398.348 84.8218C397.396 84.8218 396.602 85.1618 395.968 85.8418C395.356 86.4992 395.05 87.3945 395.05 88.5278V91.6218C395.05 92.7552 395.356 93.6618 395.968 94.3418C396.602 94.9992 397.396 95.3278 398.348 95.3278Z" fill="#444444"/>
<path d="M189.238 141L187.538 135.356H179.616L177.916 141H172.68L180.5 117.268H186.892L194.61 141H189.238ZM183.628 121.96H183.458L180.84 130.97H186.28L183.628 121.96Z" fill="#444444"/>
<path d="M204.83 141.408C203.492 141.408 202.302 141.193 201.26 140.762C200.217 140.309 199.344 139.685 198.642 138.892C197.939 138.076 197.406 137.09 197.044 135.934C196.681 134.778 196.5 133.486 196.5 132.058C196.5 130.63 196.681 129.349 197.044 128.216C197.406 127.06 197.939 126.074 198.642 125.258C199.344 124.442 200.217 123.819 201.26 123.388C202.302 122.957 203.492 122.742 204.83 122.742C206.643 122.742 208.15 123.15 209.352 123.966C210.576 124.782 211.448 125.927 211.97 127.4L207.89 129.168C207.731 128.488 207.402 127.91 206.904 127.434C206.405 126.958 205.714 126.72 204.83 126.72C203.81 126.72 203.039 127.06 202.518 127.74C201.996 128.397 201.736 129.293 201.736 130.426V133.758C201.736 134.891 201.996 135.787 202.518 136.444C203.039 137.101 203.81 137.43 204.83 137.43C205.736 137.43 206.45 137.192 206.972 136.716C207.516 136.217 207.912 135.571 208.162 134.778L212.072 136.478C211.482 138.178 210.564 139.425 209.318 140.218C208.094 141.011 206.598 141.408 204.83 141.408Z" fill="#444444"/>
<path d="M222.228 141.408C220.891 141.408 219.701 141.193 218.658 140.762C217.615 140.309 216.743 139.685 216.04 138.892C215.337 138.076 214.805 137.09 214.442 135.934C214.079 134.778 213.898 133.486 213.898 132.058C213.898 130.63 214.079 129.349 214.442 128.216C214.805 127.06 215.337 126.074 216.04 125.258C216.743 124.442 217.615 123.819 218.658 123.388C219.701 122.957 220.891 122.742 222.228 122.742C224.041 122.742 225.549 123.15 226.75 123.966C227.974 124.782 228.847 125.927 229.368 127.4L225.288 129.168C225.129 128.488 224.801 127.91 224.302 127.434C223.803 126.958 223.112 126.72 222.228 126.72C221.208 126.72 220.437 127.06 219.916 127.74C219.395 128.397 219.134 129.293 219.134 130.426V133.758C219.134 134.891 219.395 135.787 219.916 136.444C220.437 137.101 221.208 137.43 222.228 137.43C223.135 137.43 223.849 137.192 224.37 136.716C224.914 136.217 225.311 135.571 225.56 134.778L229.47 136.478C228.881 138.178 227.963 139.425 226.716 140.218C225.492 141.011 223.996 141.408 222.228 141.408Z" fill="#444444"/>
<path d="M239.66 141.408C238.346 141.408 237.167 141.193 236.124 140.762C235.104 140.331 234.232 139.708 233.506 138.892C232.804 138.076 232.26 137.09 231.874 135.934C231.489 134.778 231.296 133.486 231.296 132.058C231.296 130.63 231.489 129.338 231.874 128.182C232.26 127.026 232.804 126.051 233.506 125.258C234.232 124.442 235.104 123.819 236.124 123.388C237.167 122.957 238.346 122.742 239.66 122.742C240.975 122.742 242.142 122.957 243.162 123.388C244.205 123.819 245.078 124.442 245.78 125.258C246.506 126.051 247.061 127.026 247.446 128.182C247.832 129.338 248.024 130.63 248.024 132.058C248.024 133.486 247.832 134.778 247.446 135.934C247.061 137.09 246.506 138.076 245.78 138.892C245.078 139.708 244.205 140.331 243.162 140.762C242.142 141.193 240.975 141.408 239.66 141.408ZM239.66 137.43C240.658 137.43 241.428 137.124 241.972 136.512C242.516 135.9 242.788 135.027 242.788 133.894V130.256C242.788 129.123 242.516 128.25 241.972 127.638C241.428 127.026 240.658 126.72 239.66 126.72C238.663 126.72 237.892 127.026 237.348 127.638C236.804 128.25 236.532 129.123 236.532 130.256V133.894C236.532 135.027 236.804 135.9 237.348 136.512C237.892 137.124 238.663 137.43 239.66 137.43Z" fill="#444444"/>
<path d="M262.15 138.008H261.98C261.821 138.461 261.606 138.892 261.334 139.3C261.085 139.708 260.756 140.071 260.348 140.388C259.94 140.705 259.453 140.955 258.886 141.136C258.342 141.317 257.707 141.408 256.982 141.408C255.146 141.408 253.752 140.807 252.8 139.606C251.871 138.382 251.406 136.637 251.406 134.37V123.15H256.438V133.928C256.438 135.016 256.631 135.855 257.016 136.444C257.401 137.033 258.059 137.328 258.988 137.328C259.373 137.328 259.759 137.271 260.144 137.158C260.529 137.045 260.869 136.886 261.164 136.682C261.459 136.455 261.697 136.183 261.878 135.866C262.059 135.549 262.15 135.175 262.15 134.744V123.15H267.182V141H262.15V138.008Z" fill="#444444"/>
<path d="M271.864 141V123.15H276.896V126.176H277.1C277.417 125.247 277.972 124.442 278.766 123.762C279.559 123.082 280.658 122.742 282.064 122.742C283.9 122.742 285.282 123.354 286.212 124.578C287.164 125.802 287.64 127.547 287.64 129.814V141H282.608V130.222C282.608 129.066 282.426 128.216 282.064 127.672C281.701 127.105 281.055 126.822 280.126 126.822C279.718 126.822 279.321 126.879 278.936 126.992C278.55 127.083 278.199 127.241 277.882 127.468C277.587 127.695 277.349 127.978 277.168 128.318C276.986 128.635 276.896 129.009 276.896 129.44V141H271.864Z" fill="#444444"/>
<path d="M298.374 141C296.628 141 295.302 140.558 294.396 139.674C293.512 138.79 293.07 137.498 293.07 135.798V127.06H290.554V123.15H291.812C292.492 123.15 292.956 122.991 293.206 122.674C293.455 122.334 293.58 121.858 293.58 121.246V118.322H298.102V123.15H301.638V127.06H298.102V137.09H301.366V141H298.374Z" fill="#444444"/>
<path d="M318.325 141C317.419 141 316.659 140.717 316.047 140.15C315.458 139.583 315.084 138.824 314.925 137.872H314.721C314.449 139.028 313.849 139.912 312.919 140.524C311.99 141.113 310.845 141.408 309.485 141.408C307.695 141.408 306.323 140.932 305.371 139.98C304.419 139.028 303.943 137.77 303.943 136.206C303.943 134.325 304.623 132.931 305.983 132.024C307.366 131.095 309.236 130.63 311.593 130.63H314.415V129.508C314.415 128.647 314.189 127.967 313.735 127.468C313.282 126.947 312.523 126.686 311.457 126.686C310.46 126.686 309.667 126.901 309.077 127.332C308.488 127.763 308.001 128.25 307.615 128.794L304.623 126.142C305.349 125.077 306.255 124.249 307.343 123.66C308.454 123.048 309.95 122.742 311.831 122.742C314.37 122.742 316.274 123.297 317.543 124.408C318.813 125.519 319.447 127.139 319.447 129.27V137.09H321.113V141H318.325ZM311.355 137.906C312.194 137.906 312.908 137.725 313.497 137.362C314.109 136.999 314.415 136.41 314.415 135.594V133.486H311.967C309.995 133.486 309.009 134.155 309.009 135.492V136.002C309.009 136.659 309.213 137.146 309.621 137.464C310.029 137.759 310.607 137.906 311.355 137.906Z" fill="#444444"/>
<path d="M324.491 115.84H329.523V126.142H329.693C329.942 125.145 330.509 124.329 331.393 123.694C332.299 123.059 333.331 122.742 334.487 122.742C336.753 122.742 338.465 123.535 339.621 125.122C340.777 126.709 341.355 129.021 341.355 132.058C341.355 135.095 340.777 137.419 339.621 139.028C338.465 140.615 336.753 141.408 334.487 141.408C333.897 141.408 333.342 141.317 332.821 141.136C332.299 140.977 331.823 140.751 331.393 140.456C330.985 140.139 330.633 139.776 330.339 139.368C330.044 138.937 329.829 138.484 329.693 138.008H329.523V141H324.491V115.84ZM332.821 137.328C333.773 137.328 334.555 136.999 335.167 136.342C335.801 135.662 336.119 134.755 336.119 133.622V130.528C336.119 129.395 335.801 128.499 335.167 127.842C334.555 127.162 333.773 126.822 332.821 126.822C331.869 126.822 331.075 127.06 330.441 127.536C329.829 127.989 329.523 128.624 329.523 129.44V134.71C329.523 135.526 329.829 136.172 330.441 136.648C331.075 137.101 331.869 137.328 332.821 137.328Z" fill="#444444"/>
<path d="M347.692 121.246C346.672 121.246 345.924 121.019 345.448 120.566C344.995 120.09 344.768 119.489 344.768 118.764V118.016C344.768 117.291 344.995 116.701 345.448 116.248C345.924 115.772 346.672 115.534 347.692 115.534C348.712 115.534 349.449 115.772 349.902 116.248C350.378 116.701 350.616 117.291 350.616 118.016V118.764C350.616 119.489 350.378 120.09 349.902 120.566C349.449 121.019 348.712 121.246 347.692 121.246ZM345.176 123.15H350.208V141H345.176V123.15Z" fill="#444444"/>
<path d="M359.903 141C358.18 141 356.911 140.581 356.095 139.742C355.301 138.903 354.905 137.691 354.905 136.104V115.84H359.937V137.09H362.181V141H359.903Z" fill="#444444"/>
<path d="M367.714 121.246C366.694 121.246 365.946 121.019 365.47 120.566C365.016 120.09 364.79 119.489 364.79 118.764V118.016C364.79 117.291 365.016 116.701 365.47 116.248C365.946 115.772 366.694 115.534 367.714 115.534C368.734 115.534 369.47 115.772 369.924 116.248C370.4 116.701 370.638 117.291 370.638 118.016V118.764C370.638 119.489 370.4 120.09 369.924 120.566C369.47 121.019 368.734 121.246 367.714 121.246ZM365.198 123.15H370.23V141H365.198V123.15Z" fill="#444444"/>
<path d="M381.182 141C379.437 141 378.111 140.558 377.204 139.674C376.32 138.79 375.878 137.498 375.878 135.798V127.06H373.362V123.15H374.62C375.3 123.15 375.765 122.991 376.014 122.674C376.264 122.334 376.388 121.858 376.388 121.246V118.322H380.91V123.15H384.446V127.06H380.91V137.09H384.174V141H381.182Z" fill="#444444"/>
<path d="M398.856 123.15H403.548L396.68 143.754C396.227 145.137 395.581 146.157 394.742 146.814C393.926 147.471 392.747 147.8 391.206 147.8H388.078V143.89H391.444L392.056 141.918L385.8 123.15H390.798L393.416 131.48L394.708 136.648H394.912L396.238 131.48L398.856 123.15Z" fill="#444444"/>
<path d="M429.031 141L427.331 135.356H419.409L417.709 141H412.473L420.293 117.268H426.685L434.403 141H429.031ZM423.421 121.96H423.251L420.633 130.97H426.073L423.421 121.96Z" fill="#444444"/>
<path d="M444.623 141.408C443.285 141.408 442.095 141.193 441.053 140.762C440.01 140.309 439.137 139.685 438.435 138.892C437.732 138.076 437.199 137.09 436.837 135.934C436.474 134.778 436.293 133.486 436.293 132.058C436.293 130.63 436.474 129.349 436.837 128.216C437.199 127.06 437.732 126.074 438.435 125.258C439.137 124.442 440.01 123.819 441.053 123.388C442.095 122.957 443.285 122.742 444.623 122.742C446.436 122.742 447.943 123.15 449.145 123.966C450.369 124.782 451.241 125.927 451.763 127.4L447.683 129.168C447.524 128.488 447.195 127.91 446.697 127.434C446.198 126.958 445.507 126.72 444.623 126.72C443.603 126.72 442.832 127.06 442.311 127.74C441.789 128.397 441.529 129.293 441.529 130.426V133.758C441.529 134.891 441.789 135.787 442.311 136.444C442.832 137.101 443.603 137.43 444.623 137.43C445.529 137.43 446.243 137.192 446.765 136.716C447.309 136.217 447.705 135.571 447.955 134.778L451.865 136.478C451.275 138.178 450.357 139.425 449.111 140.218C447.887 141.011 446.391 141.408 444.623 141.408Z" fill="#444444"/>
<path d="M461.235 141C459.49 141 458.164 140.558 457.257 139.674C456.373 138.79 455.931 137.498 455.931 135.798V127.06H453.415V123.15H454.673C455.353 123.15 455.818 122.991 456.067 122.674C456.316 122.334 456.441 121.858 456.441 121.246V118.322H460.963V123.15H464.499V127.06H460.963V137.09H464.227V141H461.235Z" fill="#444444"/>
</svg>
