<svg width="713" height="312" viewBox="0 0 713 312" fill="none" xmlns="http://www.w3.org/2000/svg">
<path fill-rule="evenodd" clip-rule="evenodd" d="M8.6 257H1V255H8.6V257ZM39 257H23.8V255H39V257ZM69.4 257H54.2V255H69.4V257ZM99.8 257H84.6V255H99.8V257ZM130.2 257H115V255H130.2V257ZM160.6 257H145.4V255H160.6V257ZM191 257H175.8V255H191V257ZM221.4 257H206.2V255H221.4V257ZM251.8 257H236.6V255H251.8V257ZM282.2 257H267V255H282.2V257ZM305 257H297.4V255H305V257Z" fill="black"/>
<path fill-rule="evenodd" clip-rule="evenodd" d="M8.6 207H1V205H8.6V207ZM39 207H23.8V205H39V207ZM69.4 207H54.2V205H69.4V207ZM99.8 207H84.6V205H99.8V207ZM130.2 207H115V205H130.2V207ZM160.6 207H145.4V205H160.6V207ZM191 207H175.8V205H191V207ZM221.4 207H206.2V205H221.4V207ZM251.8 207H236.6V205H251.8V207ZM282.2 207H267V205H282.2V207ZM305 207H297.4V205H305V207Z" fill="black"/>
<path fill-rule="evenodd" clip-rule="evenodd" d="M8.6 157H1V155H8.6V157ZM39 157H23.8V155H39V157ZM69.4 157H54.2V155H69.4V157ZM99.8 157H84.6V155H99.8V157ZM130.2 157H115V155H130.2V157ZM160.6 157H145.4V155H160.6V157ZM191 157H175.8V155H191V157ZM221.4 157H206.2V155H221.4V157ZM251.8 157H236.6V155H251.8V157ZM282.2 157H267V155H282.2V157ZM305 157H297.4V155H305V157Z" fill="black"/>
<path fill-rule="evenodd" clip-rule="evenodd" d="M8.6 107H1V105H8.6V107ZM39 107H23.8V105H39V107ZM69.4 107H54.2V105H69.4V107ZM99.8 107H84.6V105H99.8V107ZM130.2 107H115V105H130.2V107ZM160.6 107H145.4V105H160.6V107ZM191 107H175.8V105H191V107ZM221.4 107H206.2V105H221.4V107ZM251.8 107H236.6V105H251.8V107ZM282.2 107H267V105H282.2V107ZM305 107H297.4V105H305V107Z" fill="black"/>
<path fill-rule="evenodd" clip-rule="evenodd" d="M8.6 57H1V55H8.6V57ZM39 57H23.8V55H39V57ZM69.4 57H54.2V55H69.4V57ZM99.8 57H84.6V55H99.8V57ZM130.2 57H115V55H130.2V57ZM160.6 57H145.4V55H160.6V57ZM191 57H175.8V55H191V57ZM221.4 57H206.2V55H221.4V57ZM251.8 57H236.6V55H251.8V57ZM282.2 57H267V55H282.2V57ZM305 57H297.4V55H305V57Z" fill="black"/>
<path d="M60 44C66.6274 44 72 49.3726 72 56C72 62.6274 66.6274 68 60 68C53.3726 68 48 62.6274 48 56C48 49.3726 53.3726 44 60 44Z" fill="#00D0F6"/>
<path d="M206.5 32C219.755 32 230.5 42.7452 230.5 56C230.5 69.2548 219.755 80 206.5 80C193.245 80 182.5 69.2548 182.5 56C182.5 42.7452 193.245 32 206.5 32Z" fill="#1324A0"/>
<path d="M127 90C135.837 90 143 97.1634 143 106C143 114.837 135.837 122 127 122C118.163 122 111 114.837 111 106C111 97.1634 118.163 90 127 90Z" fill="#93949E"/>
<path d="M86 148C90.4183 148 94 151.582 94 156C94 160.418 90.4183 164 86 164C81.5817 164 78 160.418 78 156C78 151.582 81.5817 148 86 148Z" fill="#1324A0"/>
<path d="M199 198C203.418 198 207 201.582 207 206C207 210.418 203.418 214 199 214C194.582 214 191 210.418 191 206C191 201.582 194.582 198 199 198Z" fill="#93949E"/>
<path d="M143 248C147.418 248 151 251.582 151 256C151 260.418 147.418 264 143 264C138.582 264 135 260.418 135 256C135 251.582 138.582 248 143 248Z" fill="#1324A0"/>
<path d="M52 248C56.4183 248 60 251.582 60 256C60 260.418 56.4183 264 52 264C47.5817 264 44 260.418 44 256C44 251.582 47.5817 248 52 248Z" fill="#1324A0"/>
<path d="M24 182C37.2548 182 48 192.745 48 206C48 219.255 37.2548 230 24 230C10.7452 230 5.79387e-07 219.255 0 206C-5.79387e-07 192.745 10.7452 182 24 182Z" fill="#00D0F6"/>
<path d="M231 240C239.837 240 247 247.163 247 256C247 264.837 239.837 272 231 272C222.163 272 215 264.837 215 256C215 247.163 222.163 240 231 240Z" fill="#00D0F6"/>
<path d="M251 144C257.627 144 263 149.373 263 156C263 162.627 257.627 168 251 168C244.373 168 239 162.627 239 156C239 149.373 244.373 144 251 144Z" fill="#1324A0"/>
<path d="M285.5 98C289.918 98 293.5 101.582 293.5 106C293.5 110.418 289.918 114 285.5 114C281.082 114 277.5 110.418 277.5 106C277.5 101.582 281.082 98 285.5 98Z" fill="#00D0F6"/>
<path fill-rule="evenodd" clip-rule="evenodd" d="M353.5 2.5H304V0.5H355.5V55H406V105H456V107H404V57H353.5V2.5Z" fill="black"/>
<path fill-rule="evenodd" clip-rule="evenodd" d="M353.5 309.5H304V311.5H355.5V257H406V207H456V205H404V255H353.5V309.5Z" fill="black"/>
<path d="M480 32H590V48H480V32Z" fill="#0B0E29"/>
<path d="M480 56H647V64H480V56Z" fill="#EBEAE8"/>
<path d="M480 70H598V78H480V70Z" fill="#EBEAE8"/>
<path d="M480 84H524V92H480V84Z" fill="#EBEAE8"/>
<path d="M693.955 166.952C704.473 208.349 679.441 250.434 638.045 260.952C596.648 271.47 554.563 246.438 544.045 205.041C533.527 163.645 558.559 121.559 599.955 111.041C641.352 100.523 683.437 125.556 693.955 166.952ZM585.27 194.567C590.003 213.195 608.941 224.46 627.57 219.727C646.199 214.994 657.463 196.055 652.73 177.427C647.997 158.798 629.059 147.534 610.43 152.267C591.801 157 580.537 175.938 585.27 194.567Z" fill="#93949E"/>
<path d="M643.34 259.404C629.802 263.893 615.287 264.55 601.398 261.304C587.51 258.058 574.79 251.035 564.644 241.01C554.498 230.986 547.323 218.351 543.91 204.503C540.497 190.654 540.98 176.132 545.306 162.541L585.838 175.442C583.891 181.558 583.674 188.093 585.209 194.324C586.745 200.556 589.974 206.242 594.54 210.753C599.105 215.264 604.829 218.424 611.079 219.885C617.329 221.346 623.861 221.05 629.953 219.03L643.34 259.404Z" fill="#00D0F6"/>
<path d="M620.004 108.666C637.987 108.9 655.327 115.394 669.039 127.03C682.752 138.667 691.98 154.719 695.137 172.424C698.293 190.129 695.18 208.381 686.333 224.04C677.487 239.698 663.459 251.783 646.665 258.217L631.449 218.496C639.007 215.601 645.319 210.162 649.3 203.116C653.281 196.07 654.682 187.857 653.262 179.889C651.841 171.922 647.688 164.698 641.518 159.462C635.347 154.225 627.544 151.303 619.452 151.198L620.004 108.666Z" fill="#1324A0"/>
<path d="M618.547 108.661C636.961 108.553 654.809 115.019 668.881 126.896C682.953 138.773 692.326 155.281 695.313 173.452C698.3 191.622 694.705 210.262 685.176 226.019C675.647 241.775 660.808 253.615 643.329 259.408L629.948 219.032C637.814 216.425 644.491 211.097 648.779 204.007C653.067 196.916 654.685 188.528 653.341 180.352C651.997 172.175 647.779 164.746 641.447 159.402C635.114 154.057 627.082 151.147 618.796 151.196L618.547 108.661Z" fill="#1324A0"/>
<path d="M572.706 220.98C573.193 220.98 573.556 220.874 573.796 220.66C574.043 220.44 574.166 220.16 574.166 219.82V219.75C574.166 219.377 574.046 219.097 573.806 218.91C573.573 218.724 573.266 218.63 572.886 218.63C572.513 218.63 572.209 218.714 571.976 218.88C571.749 219.04 571.563 219.254 571.416 219.52L570.786 219.04C570.873 218.9 570.979 218.764 571.106 218.63C571.233 218.49 571.379 218.367 571.546 218.26C571.719 218.154 571.916 218.067 572.136 218C572.363 217.934 572.619 217.9 572.906 217.9C573.206 217.9 573.486 217.94 573.746 218.02C574.006 218.094 574.233 218.207 574.426 218.36C574.619 218.507 574.769 218.69 574.876 218.91C574.989 219.13 575.046 219.38 575.046 219.66C575.046 219.887 575.009 220.09 574.936 220.27C574.869 220.45 574.773 220.607 574.646 220.74C574.526 220.874 574.383 220.987 574.216 221.08C574.049 221.174 573.873 221.244 573.686 221.29V221.33C573.879 221.37 574.066 221.437 574.246 221.53C574.426 221.617 574.586 221.734 574.726 221.88C574.866 222.02 574.976 222.194 575.056 222.4C575.143 222.6 575.186 222.83 575.186 223.09C575.186 223.39 575.126 223.667 575.006 223.92C574.893 224.167 574.729 224.38 574.516 224.56C574.309 224.734 574.056 224.87 573.756 224.97C573.463 225.07 573.136 225.12 572.776 225.12C572.469 225.12 572.196 225.087 571.956 225.02C571.723 224.954 571.513 224.864 571.326 224.75C571.146 224.637 570.986 224.51 570.846 224.37C570.713 224.23 570.593 224.084 570.486 223.93L571.116 223.45C571.209 223.59 571.306 223.717 571.406 223.83C571.506 223.944 571.619 224.044 571.746 224.13C571.879 224.21 572.029 224.274 572.196 224.32C572.363 224.367 572.556 224.39 572.776 224.39C573.269 224.39 573.646 224.277 573.906 224.05C574.173 223.824 574.306 223.5 574.306 223.08V223C574.306 222.587 574.176 222.267 573.916 222.04C573.663 221.814 573.279 221.7 572.766 221.7H571.936V220.98H572.706Z" fill="#0B0E29"/>
<path d="M579.002 225.12C578.575 225.12 578.209 225.04 577.902 224.88C577.595 224.714 577.342 224.477 577.142 224.17C576.942 223.864 576.795 223.487 576.702 223.04C576.609 222.594 576.562 222.084 576.562 221.51C576.562 220.944 576.609 220.437 576.702 219.99C576.795 219.537 576.942 219.157 577.142 218.85C577.342 218.544 577.595 218.31 577.902 218.15C578.209 217.984 578.575 217.9 579.002 217.9C579.429 217.9 579.795 217.984 580.102 218.15C580.409 218.31 580.662 218.544 580.862 218.85C581.062 219.157 581.209 219.537 581.302 219.99C581.395 220.437 581.442 220.944 581.442 221.51C581.442 222.084 581.395 222.594 581.302 223.04C581.209 223.487 581.062 223.864 580.862 224.17C580.662 224.477 580.409 224.714 580.102 224.88C579.795 225.04 579.429 225.12 579.002 225.12ZM579.002 224.39C579.282 224.39 579.522 224.337 579.722 224.23C579.922 224.117 580.082 223.96 580.202 223.76C580.329 223.56 580.422 223.32 580.482 223.04C580.542 222.754 580.572 222.434 580.572 222.08V220.94C580.572 220.594 580.542 220.277 580.482 219.99C580.422 219.704 580.329 219.46 580.202 219.26C580.082 219.06 579.922 218.907 579.722 218.8C579.522 218.687 579.282 218.63 579.002 218.63C578.722 218.63 578.482 218.687 578.282 218.8C578.082 218.907 577.919 219.06 577.792 219.26C577.672 219.46 577.582 219.704 577.522 219.99C577.462 220.277 577.432 220.594 577.432 220.94V222.08C577.432 222.434 577.462 222.754 577.522 223.04C577.582 223.32 577.672 223.56 577.792 223.76C577.919 223.96 578.082 224.117 578.282 224.23C578.482 224.337 578.722 224.39 579.002 224.39ZM579.002 222.1C578.769 222.1 578.605 222.054 578.512 221.96C578.425 221.867 578.382 221.754 578.382 221.62V221.4C578.382 221.267 578.425 221.154 578.512 221.06C578.605 220.967 578.769 220.92 579.002 220.92C579.235 220.92 579.395 220.967 579.482 221.06C579.575 221.154 579.622 221.267 579.622 221.4V221.62C579.622 221.754 579.575 221.867 579.482 221.96C579.395 222.054 579.235 222.1 579.002 222.1Z" fill="#0B0E29"/>
<path d="M583.688 221.44C583.248 221.44 582.888 221.294 582.608 221C582.335 220.7 582.198 220.257 582.198 219.67C582.198 219.084 582.335 218.644 582.608 218.35C582.888 218.05 583.248 217.9 583.688 217.9C584.128 217.9 584.485 218.05 584.758 218.35C585.038 218.644 585.178 219.084 585.178 219.67C585.178 220.257 585.038 220.7 584.758 221C584.485 221.294 584.128 221.44 583.688 221.44ZM583.688 220.9C583.928 220.9 584.121 220.817 584.268 220.65C584.421 220.484 584.498 220.24 584.498 219.92V219.42C584.498 219.1 584.421 218.857 584.268 218.69C584.121 218.524 583.928 218.44 583.688 218.44C583.448 218.44 583.251 218.524 583.098 218.69C582.951 218.857 582.878 219.1 582.878 219.42V219.92C582.878 220.24 582.951 220.484 583.098 220.65C583.251 220.817 583.448 220.9 583.688 220.9ZM587.098 218.02H587.818L586.218 221.02H585.498L587.098 218.02ZM583.778 222H584.498L582.898 225H582.178L583.778 222ZM586.308 225.12C585.868 225.12 585.508 224.974 585.228 224.68C584.955 224.38 584.818 223.937 584.818 223.35C584.818 222.764 584.955 222.324 585.228 222.03C585.508 221.73 585.868 221.58 586.308 221.58C586.748 221.58 587.105 221.73 587.378 222.03C587.658 222.324 587.798 222.764 587.798 223.35C587.798 223.937 587.658 224.38 587.378 224.68C587.105 224.974 586.748 225.12 586.308 225.12ZM586.308 224.58C586.548 224.58 586.741 224.497 586.888 224.33C587.041 224.164 587.118 223.92 587.118 223.6V223.1C587.118 222.78 587.041 222.537 586.888 222.37C586.741 222.204 586.548 222.12 586.308 222.12C586.068 222.12 585.871 222.204 585.718 222.37C585.571 222.537 585.498 222.78 585.498 223.1V223.6C585.498 223.92 585.571 224.164 585.718 224.33C585.871 224.497 586.068 224.58 586.308 224.58Z" fill="#0B0E29"/>
<path d="M667.454 191.821V190.451H664.014V189.711L667.034 184.841H668.254V189.761H669.294V190.451H668.254V191.821H667.454ZM664.764 189.761H667.454V185.491H667.414L664.764 189.761Z" fill="white"/>
<path d="M674.68 185.571H671.56L671.36 188.241H671.43C671.603 188.007 671.797 187.824 672.01 187.691C672.223 187.551 672.517 187.481 672.89 187.481C673.197 187.481 673.477 187.531 673.73 187.631C673.99 187.724 674.213 187.864 674.4 188.051C674.587 188.237 674.733 188.464 674.84 188.731C674.947 188.991 675 189.291 675 189.631C675 189.971 674.947 190.284 674.84 190.571C674.733 190.851 674.577 191.094 674.37 191.301C674.163 191.501 673.913 191.657 673.62 191.771C673.327 191.884 672.993 191.941 672.62 191.941C672.327 191.941 672.063 191.907 671.83 191.841C671.603 191.774 671.4 191.684 671.22 191.571C671.047 191.457 670.893 191.331 670.76 191.191C670.627 191.051 670.507 190.904 670.4 190.751L671.03 190.271C671.123 190.411 671.217 190.537 671.31 190.651C671.41 190.764 671.523 190.864 671.65 190.951C671.777 191.031 671.92 191.094 672.08 191.141C672.24 191.187 672.427 191.211 672.64 191.211C673.12 191.211 673.487 191.081 673.74 190.821C674 190.561 674.13 190.201 674.13 189.741V189.661C674.13 189.201 674 188.841 673.74 188.581C673.48 188.321 673.107 188.191 672.62 188.191C672.287 188.191 672.027 188.247 671.84 188.361C671.66 188.474 671.493 188.614 671.34 188.781L670.63 188.681L670.88 184.841H674.68V185.571Z" fill="white"/>
<path d="M677.356 188.261C676.916 188.261 676.556 188.114 676.276 187.821C676.003 187.521 675.866 187.077 675.866 186.491C675.866 185.904 676.003 185.464 676.276 185.171C676.556 184.871 676.916 184.721 677.356 184.721C677.796 184.721 678.153 184.871 678.426 185.171C678.706 185.464 678.846 185.904 678.846 186.491C678.846 187.077 678.706 187.521 678.426 187.821C678.153 188.114 677.796 188.261 677.356 188.261ZM677.356 187.721C677.596 187.721 677.789 187.637 677.936 187.471C678.089 187.304 678.166 187.061 678.166 186.741V186.241C678.166 185.921 678.089 185.677 677.936 185.511C677.789 185.344 677.596 185.261 677.356 185.261C677.116 185.261 676.919 185.344 676.766 185.511C676.619 185.677 676.546 185.921 676.546 186.241V186.741C676.546 187.061 676.619 187.304 676.766 187.471C676.919 187.637 677.116 187.721 677.356 187.721ZM680.766 184.841H681.486L679.886 187.841H679.166L680.766 184.841ZM677.446 188.821H678.166L676.566 191.821H675.846L677.446 188.821ZM679.976 191.941C679.536 191.941 679.176 191.794 678.896 191.501C678.623 191.201 678.486 190.757 678.486 190.171C678.486 189.584 678.623 189.144 678.896 188.851C679.176 188.551 679.536 188.401 679.976 188.401C680.416 188.401 680.773 188.551 681.046 188.851C681.326 189.144 681.466 189.584 681.466 190.171C681.466 190.757 681.326 191.201 681.046 191.501C680.773 191.794 680.416 191.941 679.976 191.941ZM679.976 191.401C680.216 191.401 680.409 191.317 680.556 191.151C680.709 190.984 680.786 190.741 680.786 190.421V189.921C680.786 189.601 680.709 189.357 680.556 189.191C680.409 189.024 680.216 188.941 679.976 188.941C679.736 188.941 679.539 189.024 679.386 189.191C679.239 189.357 679.166 189.601 679.166 189.921V190.421C679.166 190.741 679.239 190.984 679.386 191.151C679.539 191.317 679.736 191.401 679.976 191.401Z" fill="white"/>
<path d="M579.376 151H574.716V150.14L577.046 148.04C577.386 147.734 577.666 147.42 577.886 147.1C578.106 146.774 578.216 146.43 578.216 146.07V145.95C578.216 145.53 578.106 145.207 577.886 144.98C577.666 144.747 577.339 144.63 576.906 144.63C576.479 144.63 576.149 144.74 575.916 144.96C575.689 145.174 575.519 145.46 575.406 145.82L574.656 145.54C574.723 145.334 574.813 145.134 574.926 144.94C575.046 144.74 575.196 144.564 575.376 144.41C575.556 144.257 575.773 144.134 576.026 144.04C576.286 143.947 576.586 143.9 576.926 143.9C577.273 143.9 577.579 143.95 577.846 144.05C578.119 144.15 578.346 144.29 578.526 144.47C578.713 144.65 578.853 144.864 578.946 145.11C579.046 145.357 579.096 145.627 579.096 145.92C579.096 146.187 579.056 146.437 578.976 146.67C578.903 146.904 578.796 147.127 578.656 147.34C578.523 147.554 578.359 147.764 578.166 147.97C577.979 148.17 577.769 148.37 577.536 148.57L575.586 150.27H579.376V151Z" fill="white"/>
<path d="M585.012 144.75H581.892L581.692 147.42H581.762C581.935 147.187 582.129 147.004 582.342 146.87C582.555 146.73 582.849 146.66 583.222 146.66C583.529 146.66 583.809 146.71 584.062 146.81C584.322 146.904 584.545 147.044 584.732 147.23C584.919 147.417 585.065 147.644 585.172 147.91C585.279 148.17 585.332 148.47 585.332 148.81C585.332 149.15 585.279 149.464 585.172 149.75C585.065 150.03 584.909 150.274 584.702 150.48C584.495 150.68 584.245 150.837 583.952 150.95C583.659 151.064 583.325 151.12 582.952 151.12C582.659 151.12 582.395 151.087 582.162 151.02C581.935 150.954 581.732 150.864 581.552 150.75C581.379 150.637 581.225 150.51 581.092 150.37C580.959 150.23 580.839 150.084 580.732 149.93L581.362 149.45C581.455 149.59 581.549 149.717 581.642 149.83C581.742 149.944 581.855 150.044 581.982 150.13C582.109 150.21 582.252 150.274 582.412 150.32C582.572 150.367 582.759 150.39 582.972 150.39C583.452 150.39 583.819 150.26 584.072 150C584.332 149.74 584.462 149.38 584.462 148.92V148.84C584.462 148.38 584.332 148.02 584.072 147.76C583.812 147.5 583.439 147.37 582.952 147.37C582.619 147.37 582.359 147.427 582.172 147.54C581.992 147.654 581.825 147.794 581.672 147.96L580.962 147.86L581.212 144.02H585.012V144.75Z" fill="white"/>
<path d="M587.688 147.44C587.248 147.44 586.888 147.294 586.608 147C586.335 146.7 586.198 146.257 586.198 145.67C586.198 145.084 586.335 144.644 586.608 144.35C586.888 144.05 587.248 143.9 587.688 143.9C588.128 143.9 588.485 144.05 588.758 144.35C589.038 144.644 589.178 145.084 589.178 145.67C589.178 146.257 589.038 146.7 588.758 147C588.485 147.294 588.128 147.44 587.688 147.44ZM587.688 146.9C587.928 146.9 588.121 146.817 588.268 146.65C588.421 146.484 588.498 146.24 588.498 145.92V145.42C588.498 145.1 588.421 144.857 588.268 144.69C588.121 144.524 587.928 144.44 587.688 144.44C587.448 144.44 587.251 144.524 587.098 144.69C586.951 144.857 586.878 145.1 586.878 145.42V145.92C586.878 146.24 586.951 146.484 587.098 146.65C587.251 146.817 587.448 146.9 587.688 146.9ZM591.098 144.02H591.818L590.218 147.02H589.498L591.098 144.02ZM587.778 148H588.498L586.898 151H586.178L587.778 148ZM590.308 151.12C589.868 151.12 589.508 150.974 589.228 150.68C588.955 150.38 588.818 149.937 588.818 149.35C588.818 148.764 588.955 148.324 589.228 148.03C589.508 147.73 589.868 147.58 590.308 147.58C590.748 147.58 591.105 147.73 591.378 148.03C591.658 148.324 591.798 148.764 591.798 149.35C591.798 149.937 591.658 150.38 591.378 150.68C591.105 150.974 590.748 151.12 590.308 151.12ZM590.308 150.58C590.548 150.58 590.741 150.497 590.888 150.33C591.041 150.164 591.118 149.92 591.118 149.6V149.1C591.118 148.78 591.041 148.537 590.888 148.37C590.741 148.204 590.548 148.12 590.308 148.12C590.068 148.12 589.871 148.204 589.718 148.37C589.571 148.537 589.498 148.78 589.498 149.1V149.6C589.498 149.92 589.571 150.164 589.718 150.33C589.871 150.497 590.068 150.58 590.308 150.58Z" fill="white"/>
</svg>
