<svg width="433" height="184" viewBox="0 0 433 184" fill="none" xmlns="http://www.w3.org/2000/svg">
<path d="M238.928 170.41C259.682 170.41 279.586 162.149 294.261 147.444C308.936 132.74 317.181 112.796 317.181 92.0005C317.181 71.2051 308.936 51.2614 294.261 36.5569C279.586 21.8523 259.682 13.5914 238.928 13.5914L238.928 44.955C251.38 44.955 263.323 49.9116 272.128 58.7343C280.933 67.557 285.88 79.5232 285.88 92.0005C285.88 104.478 280.933 116.444 272.128 125.267C263.323 134.089 251.38 139.046 238.928 139.046L238.928 170.41Z" fill="#EBEAE8"/>
<path d="M199.469 155.064C198.872 154.648 198.872 153.762 199.469 153.347L238.854 125.921C239.546 125.439 240.493 125.935 240.493 126.78L240.493 181.631C240.493 182.475 239.546 182.971 238.854 182.489L199.469 155.064Z" fill="#EBEAE8"/>
<path d="M194.067 14.3591C173.314 14.3591 153.41 22.62 138.734 37.3246C124.059 52.0291 115.814 71.9728 115.814 92.7682C115.814 113.564 124.059 133.507 138.734 148.212C153.41 162.916 173.313 171.177 194.067 171.177L194.067 139.814C181.615 139.814 169.673 134.857 160.868 126.034C152.062 117.212 147.116 105.245 147.116 92.7682C147.116 80.291 152.062 68.3248 160.868 59.502C169.673 50.6793 181.615 45.7227 194.067 45.7227L194.067 14.3591Z" fill="#EBEAE8"/>
<path d="M233.526 29.7052C234.123 30.121 234.123 31.0063 233.526 31.4222L194.141 58.8477C193.449 59.3294 192.502 58.8333 192.502 57.9892L192.502 3.13815C192.502 2.29397 193.449 1.79788 194.141 2.27964L233.526 29.7052Z" fill="#EBEAE8"/>
<g clip-path="url(#clip0_7797_326360)">
<rect width="68.6888" height="24.3382" transform="translate(0 79.4545)" fill="#00D0F6"/>
<path d="M20.4665 96.1902V87.4335H23.6467C24.4564 87.4335 25.074 87.6551 25.4997 88.0984C25.9254 88.5416 26.1383 89.1606 26.1383 89.9551C26.1383 90.7496 25.9254 91.3686 25.4997 91.8118C25.074 92.2551 24.4564 92.4767 23.6467 92.4767H21.5182V96.1902H20.4665ZM21.5182 91.5609H23.6217C24.064 91.5609 24.4063 91.4522 24.6483 91.2347C24.8987 91.0089 25.0239 90.6911 25.0239 90.2813V89.6289C25.0239 89.2191 24.8987 88.9055 24.6483 88.688C24.4063 88.4622 24.064 88.3493 23.6217 88.3493H21.5182V91.5609Z" fill="#0B0E29"/>
<path d="M27.8487 95.3371H30.1024V87.7596H27.8487V86.9066H31.104V95.3371H33.3577V96.1902H27.8487V95.3371Z" fill="#0B0E29"/>
<path d="M40.5521 96.1902C40.1598 96.1902 39.8802 96.0898 39.7132 95.8891C39.5463 95.6884 39.4419 95.4375 39.4002 95.1364H39.3376C39.1957 95.5127 38.9662 95.8096 38.649 96.0271C38.3401 96.2362 37.9228 96.3407 37.3969 96.3407C36.7208 96.3407 36.1824 96.1651 35.7818 95.8138C35.3811 95.4626 35.1808 94.9816 35.1808 94.3711C35.1808 93.7689 35.3978 93.3047 35.8319 92.9786C36.2743 92.6524 36.9837 92.4893 37.9603 92.4893H39.3376V91.8495C39.3376 91.3727 39.204 91.0173 38.9369 90.7831C38.6698 90.5406 38.2901 90.4193 37.7976 90.4193C37.3635 90.4193 37.0088 90.5071 36.7333 90.6827C36.4579 90.85 36.2367 91.08 36.0698 91.3727L35.3936 90.8709C35.4771 90.7036 35.5898 90.5406 35.7317 90.3816C35.8736 90.2227 36.0489 90.0847 36.2576 89.9676C36.4662 89.8422 36.7041 89.746 36.9712 89.6791C37.2383 89.6038 37.5346 89.5662 37.8602 89.5662C38.6198 89.5662 39.2207 89.7586 39.6631 90.1433C40.1139 90.528 40.3392 91.0633 40.3392 91.7491V95.312H41.2407V96.1902H40.5521ZM37.5722 95.5002C37.831 95.5002 38.0647 95.4709 38.2734 95.4124C38.4904 95.3455 38.6782 95.2618 38.8368 95.1615C38.9954 95.0527 39.1164 94.9273 39.1999 94.7851C39.2917 94.6346 39.3376 94.4756 39.3376 94.3084V93.242H37.9603C37.3594 93.242 36.9211 93.3256 36.6457 93.4929C36.3702 93.6602 36.2325 93.9027 36.2325 94.2206V94.484C36.2325 94.8186 36.3494 95.0736 36.5831 95.2493C36.8252 95.4166 37.1549 95.5002 37.5722 95.5002Z" fill="#0B0E29"/>
<path d="M43.0889 96.1902V89.7167H44.0905V90.7706H44.1406C44.2073 90.6116 44.2908 90.4611 44.391 90.3189C44.4911 90.1684 44.6122 90.0387 44.7541 89.93C44.9043 89.8213 45.0796 89.7335 45.2799 89.6666C45.4803 89.5996 45.714 89.5662 45.9811 89.5662C46.6572 89.5662 47.1997 89.7836 47.6087 90.2186C48.0177 90.6451 48.2223 91.2515 48.2223 92.0376V96.1902H47.2206V92.2133C47.2206 91.6195 47.0912 91.1804 46.8325 90.896C46.5737 90.6033 46.1939 90.4569 45.6931 90.4569C45.4928 90.4569 45.2966 90.482 45.1047 90.5322C44.9127 90.5824 44.7416 90.6576 44.5913 90.758C44.4411 90.8584 44.32 90.988 44.2282 91.1469C44.1364 91.3058 44.0905 91.4898 44.0905 91.6989V96.1902H43.0889Z" fill="#0B0E29"/>
<path fill-rule="evenodd" clip-rule="evenodd" d="M68.6888 80.4686V79.4545H69.7322V80.4686H68.6888ZM68.6888 84.525V82.4968H69.7322V84.525H68.6888ZM68.6888 88.5813V86.5532H69.7322V88.5813H68.6888ZM68.6888 92.6377V90.6095H69.7322V92.6377H68.6888ZM68.6888 96.6941V94.6659H69.7322V96.6941H68.6888ZM68.6888 100.75V98.7223H69.7322V100.75H68.6888ZM68.6888 103.793V102.779H69.7322V103.793H68.6888Z" fill="#00D0F6"/>
<rect width="68.6888" height="24.3382" transform="translate(69.7321 79.4545)" fill="#00D0F6"/>
<path d="M93.0846 96.3407C92.0162 96.3407 91.2191 95.9518 90.6932 95.174C90.1757 94.3962 89.9169 93.2755 89.9169 91.8118C89.9169 90.3482 90.1757 89.2275 90.6932 88.4496C91.2191 87.6718 92.0162 87.2829 93.0846 87.2829C93.4853 87.2829 93.8317 87.3373 94.1238 87.446C94.416 87.5547 94.6664 87.7011 94.875 87.8851C95.0837 88.0691 95.259 88.2782 95.4009 88.5124C95.5428 88.7382 95.668 88.9682 95.7765 89.2024L94.875 89.6164C94.7999 89.424 94.7123 89.2442 94.6121 89.0769C94.5119 88.9013 94.3909 88.7507 94.249 88.6253C94.1155 88.4915 93.9527 88.3869 93.7607 88.3116C93.5771 88.2364 93.3517 88.1987 93.0846 88.1987C92.3918 88.1987 91.8743 88.4622 91.5321 88.9891C91.1982 89.516 91.0313 90.2186 91.0313 91.0967V92.5269C91.0313 93.4051 91.1982 94.1076 91.5321 94.6346C91.8743 95.1615 92.3918 95.4249 93.0846 95.4249C93.3517 95.4249 93.5771 95.3873 93.7607 95.312C93.9527 95.2367 94.1155 95.1364 94.249 95.0109C94.3909 94.8771 94.5119 94.7266 94.6121 94.5593C94.7123 94.3836 94.7999 94.1996 94.875 94.0073L95.7765 94.4213C95.668 94.6638 95.5428 94.898 95.4009 95.1238C95.259 95.3496 95.0837 95.5546 94.875 95.7386C94.6664 95.9226 94.416 96.0689 94.1238 96.1776C93.8317 96.2864 93.4853 96.3407 93.0846 96.3407Z" fill="#0B0E29"/>
<path d="M100.304 96.3407C99.8533 96.3407 99.4443 96.2613 99.077 96.1024C98.7181 95.9435 98.4093 95.7176 98.1505 95.4249C97.9001 95.1238 97.7081 94.7684 97.5746 94.3586C97.441 93.9404 97.3742 93.472 97.3742 92.9535C97.3742 92.4433 97.441 91.9791 97.5746 91.5609C97.7081 91.1427 97.9001 90.7873 98.1505 90.4946C98.4093 90.1935 98.7181 89.9635 99.077 89.8046C99.4443 89.6456 99.8533 89.5662 100.304 89.5662C100.755 89.5662 101.16 89.6456 101.519 89.8046C101.886 89.9635 102.195 90.1935 102.445 90.4946C102.704 90.7873 102.9 91.1427 103.034 91.5609C103.167 91.9791 103.234 92.4433 103.234 92.9535C103.234 93.472 103.167 93.9404 103.034 94.3586C102.9 94.7684 102.704 95.1238 102.445 95.4249C102.195 95.7176 101.886 95.9435 101.519 96.1024C101.16 96.2613 100.755 96.3407 100.304 96.3407ZM100.304 95.4751C100.863 95.4751 101.314 95.3078 101.656 94.9733C101.998 94.6387 102.17 94.1202 102.17 93.4176V92.4893C102.17 91.7867 101.998 91.2682 101.656 90.9336C101.314 90.5991 100.863 90.4318 100.304 90.4318C99.7448 90.4318 99.2941 90.5991 98.9518 90.9336C98.6096 91.2682 98.4385 91.7867 98.4385 92.4893V93.4176C98.4385 94.1202 98.6096 94.6387 98.9518 94.9733C99.2941 95.3078 99.7448 95.4751 100.304 95.4751Z" fill="#0B0E29"/>
<path d="M109.376 95.1364H109.326C108.909 95.9393 108.245 96.3407 107.336 96.3407C106.543 96.3407 105.921 96.0438 105.47 95.45C105.028 94.8562 104.807 94.024 104.807 92.9535C104.807 91.8829 105.028 91.0507 105.47 90.4569C105.921 89.8631 106.543 89.5662 107.336 89.5662C108.245 89.5662 108.909 89.9676 109.326 90.7706H109.376V86.9066H110.378V96.1902H109.376V95.1364ZM107.724 95.45C107.949 95.45 108.162 95.4207 108.362 95.3622C108.563 95.3036 108.738 95.22 108.888 95.1113C109.038 94.9942 109.155 94.8562 109.239 94.6973C109.331 94.53 109.376 94.3376 109.376 94.1202V91.7867C109.376 91.5693 109.331 91.3811 109.239 91.2222C109.155 91.0549 109.038 90.9169 108.888 90.8082C108.738 90.6911 108.563 90.6033 108.362 90.5447C108.162 90.4862 107.949 90.4569 107.724 90.4569C107.14 90.4569 106.685 90.6367 106.359 90.9964C106.042 91.3476 105.883 91.816 105.883 92.4015V93.5055C105.883 94.0909 106.042 94.5635 106.359 94.9231C106.685 95.2744 107.14 95.45 107.724 95.45Z" fill="#0B0E29"/>
<path d="M115.432 96.3407C114.964 96.3407 114.543 96.2613 114.167 96.1024C113.8 95.9435 113.482 95.7176 113.215 95.4249C112.957 95.1238 112.756 94.7684 112.614 94.3586C112.473 93.9404 112.402 93.4762 112.402 92.966C112.402 92.4475 112.473 91.9791 112.614 91.5609C112.765 91.1427 112.969 90.7873 113.228 90.4946C113.487 90.1935 113.796 89.9635 114.154 89.8046C114.522 89.6456 114.927 89.5662 115.369 89.5662C115.803 89.5662 116.195 89.6456 116.546 89.8046C116.905 89.9635 117.209 90.1851 117.46 90.4695C117.71 90.7455 117.902 91.0758 118.036 91.4606C118.169 91.8453 118.236 92.2676 118.236 92.7276V93.2044H113.453V93.5055C113.453 93.7898 113.499 94.0533 113.591 94.2958C113.683 94.5384 113.812 94.7475 113.979 94.9231C114.154 95.0987 114.363 95.2367 114.605 95.3371C114.856 95.4291 115.131 95.4751 115.432 95.4751C115.866 95.4751 116.241 95.3747 116.558 95.174C116.876 94.9733 117.118 94.6973 117.285 94.346L118.023 94.8478C117.831 95.2827 117.51 95.6424 117.059 95.9267C116.617 96.2027 116.074 96.3407 115.432 96.3407ZM115.369 90.3942C115.093 90.3942 114.839 90.4444 114.605 90.5447C114.371 90.6451 114.167 90.7831 113.992 90.9587C113.825 91.1344 113.691 91.3435 113.591 91.586C113.499 91.8202 113.453 92.0795 113.453 92.3638V92.4516H117.159V92.3136C117.159 92.0293 117.113 91.77 117.022 91.5358C116.938 91.3016 116.817 91.1009 116.659 90.9336C116.508 90.758 116.32 90.6242 116.095 90.5322C115.878 90.4402 115.636 90.3942 115.369 90.3942Z" fill="#0B0E29"/>
<path fill-rule="evenodd" clip-rule="evenodd" d="M138.421 80.4686V79.4545H139.464V80.4686H138.421ZM138.421 84.525V82.4968H139.464V84.525H138.421ZM138.421 88.5813V86.5532H139.464V88.5813H138.421ZM138.421 92.6377V90.6095H139.464V92.6377H138.421ZM138.421 96.6941V94.6659H139.464V96.6941H138.421ZM138.421 100.75V98.7223H139.464V100.75H138.421ZM138.421 103.793V102.779H139.464V103.793H138.421Z" fill="#00D0F6"/>
<rect width="68.6888" height="24.3382" transform="translate(139.464 79.4545)" fill="#00D0F6"/>
<path d="M156.183 87.4836H159.151C159.902 87.4836 160.49 87.6885 160.916 88.0983C161.342 88.5081 161.555 89.056 161.555 89.7418C161.555 90.2687 161.425 90.6827 161.166 90.9838C160.916 91.2849 160.59 91.4981 160.19 91.6236V91.6612C160.682 91.7783 161.087 92 161.404 92.3261C161.722 92.644 161.88 93.1081 161.88 93.7187C161.88 94.07 161.822 94.4003 161.705 94.7098C161.588 95.0192 161.421 95.2869 161.204 95.5127C160.995 95.7385 160.745 95.9183 160.453 96.0521C160.169 96.1776 159.86 96.2403 159.526 96.2403H156.183V87.4836ZM159.213 95.3245C159.697 95.3245 160.077 95.2158 160.353 94.9983C160.628 94.7809 160.766 94.4463 160.766 93.9947V93.4803C160.766 93.0371 160.628 92.7067 160.353 92.4892C160.077 92.2634 159.697 92.1505 159.213 92.1505H157.235V95.3245H159.213ZM159.038 91.2849C159.48 91.2849 159.827 91.1887 160.077 90.9963C160.328 90.7956 160.453 90.4945 160.453 90.0931V89.6038C160.453 89.2023 160.328 88.9012 160.077 88.7005C159.827 88.4998 159.48 88.3994 159.038 88.3994H157.235V91.2849H159.038Z" fill="#0B0E29"/>
<path d="M167.873 95.1865H167.822C167.756 95.3454 167.672 95.5001 167.572 95.6507C167.472 95.7929 167.347 95.9183 167.196 96.0271C167.055 96.1358 166.883 96.2236 166.683 96.2905C166.483 96.3574 166.249 96.3909 165.982 96.3909C165.306 96.3909 164.763 96.1776 164.354 95.7511C163.945 95.3161 163.741 94.7056 163.741 93.9194V89.7669H164.742V93.7438C164.742 94.3376 164.872 94.7809 165.131 95.0736C165.389 95.358 165.769 95.5001 166.27 95.5001C166.47 95.5001 166.666 95.4751 166.858 95.4249C167.05 95.3747 167.221 95.2994 167.372 95.1991C167.522 95.0987 167.643 94.9732 167.735 94.8227C167.827 94.6638 167.873 94.4756 167.873 94.2581V89.7669H168.874V96.2403H167.873V95.1865Z" fill="#0B0E29"/>
<path d="M174.253 88.3367C173.961 88.3367 173.756 88.2781 173.64 88.1611C173.523 88.0356 173.464 87.8809 173.464 87.6969V87.4961C173.464 87.3121 173.523 87.1616 173.64 87.0445C173.756 86.9191 173.961 86.8563 174.253 86.8563C174.545 86.8563 174.75 86.9191 174.867 87.0445C174.983 87.1616 175.042 87.3121 175.042 87.4961V87.6969C175.042 87.8809 174.983 88.0356 174.867 88.1611C174.75 88.2781 174.545 88.3367 174.253 88.3367ZM171.423 95.3872H173.752V90.62H171.423V89.7669H174.754V95.3872H176.932V96.2403H171.423V95.3872Z" fill="#0B0E29"/>
<path d="M178.605 95.3872H180.859V87.8098H178.605V86.9567H181.861V95.3872H184.114V96.2403H178.605V95.3872Z" fill="#0B0E29"/>
<path d="M190.432 95.1865H190.382C189.965 95.9894 189.301 96.3909 188.391 96.3909C187.598 96.3909 186.977 96.094 186.526 95.5001C186.084 94.9063 185.862 94.0741 185.862 93.0036C185.862 91.9331 186.084 91.1009 186.526 90.5071C186.977 89.9132 187.598 89.6163 188.391 89.6163C189.301 89.6163 189.965 90.0178 190.382 90.8207H190.432V86.9567H191.434V96.2403H190.432V95.1865ZM188.78 95.5001C189.005 95.5001 189.218 95.4709 189.418 95.4123C189.618 95.3538 189.794 95.2701 189.944 95.1614C190.094 95.0443 190.211 94.9063 190.295 94.7474C190.386 94.5801 190.432 94.3878 190.432 94.1703V91.8369C190.432 91.6194 190.386 91.4312 190.295 91.2723C190.211 91.1051 190.094 90.9671 189.944 90.8583C189.794 90.7412 189.618 90.6534 189.418 90.5949C189.218 90.5363 189.005 90.5071 188.78 90.5071C188.195 90.5071 187.74 90.6869 187.415 91.0465C187.098 91.3978 186.939 91.8661 186.939 92.4516V93.5556C186.939 94.1411 187.098 94.6136 187.415 94.9732C187.74 95.3245 188.195 95.5001 188.78 95.5001Z" fill="#0B0E29"/>
<path fill-rule="evenodd" clip-rule="evenodd" d="M208.153 80.4686V79.4545H209.196V80.4686H208.153ZM208.153 84.525V82.4968H209.196V84.525H208.153ZM208.153 88.5813V86.5532H209.196V88.5813H208.153ZM208.153 92.6377V90.6095H209.196V92.6377H208.153ZM208.153 96.6941V94.6659H209.196V96.6941H208.153ZM208.153 100.75V98.7223H209.196V100.75H208.153ZM208.153 103.793V102.779H209.196V103.793H208.153Z" fill="#00D0F6"/>
<rect width="68.6888" height="24.3382" transform="translate(209.196 79.4545)" fill="#00D0F6"/>
<path d="M233.112 88.0858V95.9267H232.061V88.0858H229.143V87.17H236.03V88.0858H233.112Z" fill="#0B0E29"/>
<path d="M240.207 96.0773C239.739 96.0773 239.318 95.9978 238.942 95.8389C238.575 95.68 238.258 95.4542 237.99 95.1614C237.732 94.8603 237.531 94.5049 237.389 94.0951C237.248 93.6769 237.177 93.2127 237.177 92.7025C237.177 92.184 237.248 91.7156 237.389 91.2974C237.54 90.8793 237.744 90.5238 238.003 90.2311C238.262 89.93 238.571 89.7 238.929 89.5411C239.297 89.3822 239.702 89.3027 240.144 89.3027C240.578 89.3027 240.97 89.3822 241.321 89.5411C241.68 89.7 241.984 89.9216 242.235 90.206C242.485 90.482 242.677 90.8123 242.811 91.1971C242.944 91.5818 243.011 92.0042 243.011 92.4642V92.9409H238.228V93.242C238.228 93.5263 238.274 93.7898 238.366 94.0323C238.458 94.2749 238.587 94.484 238.754 94.6596C238.929 94.8353 239.138 94.9733 239.38 95.0736C239.631 95.1656 239.906 95.2116 240.207 95.2116C240.641 95.2116 241.016 95.1113 241.333 94.9105C241.651 94.7098 241.893 94.4338 242.06 94.0825L242.798 94.5843C242.606 95.0193 242.285 95.3789 241.834 95.6633C241.392 95.9393 240.849 96.0773 240.207 96.0773ZM240.144 90.1307C239.868 90.1307 239.614 90.1809 239.38 90.2813C239.146 90.3816 238.942 90.5196 238.767 90.6953C238.6 90.8709 238.466 91.08 238.366 91.3225C238.274 91.5567 238.228 91.816 238.228 92.1003V92.1882H241.934V92.0502C241.934 91.7658 241.888 91.5065 241.797 91.2723C241.713 91.0382 241.592 90.8374 241.434 90.6702C241.283 90.4945 241.095 90.3607 240.87 90.2687C240.653 90.1767 240.411 90.1307 240.144 90.1307Z" fill="#0B0E29"/>
<path d="M247.676 96.0773C247 96.0773 246.416 95.9643 245.923 95.7385C245.439 95.5043 245.026 95.1949 244.684 94.8102L245.36 94.2205C245.669 94.5467 246.007 94.7976 246.374 94.9733C246.741 95.1489 247.184 95.2367 247.701 95.2367C248.202 95.2367 248.611 95.1489 248.928 94.9733C249.254 94.7893 249.417 94.5049 249.417 94.1202C249.417 93.9529 249.383 93.8149 249.317 93.7062C249.258 93.5891 249.175 93.4971 249.066 93.4302C248.958 93.3633 248.837 93.3131 248.703 93.2796C248.569 93.2378 248.428 93.2043 248.277 93.1793L247.263 93.0287C247.038 92.9953 246.792 92.9493 246.524 92.8907C246.266 92.8322 246.028 92.7402 245.811 92.6147C245.594 92.4809 245.41 92.3053 245.26 92.0878C245.118 91.8703 245.047 91.586 245.047 91.2347C245.047 90.9085 245.11 90.6283 245.235 90.3942C245.368 90.1516 245.552 89.9509 245.786 89.792C246.019 89.6247 246.295 89.5034 246.612 89.4282C246.929 89.3445 247.276 89.3027 247.651 89.3027C248.236 89.3027 248.741 89.3947 249.166 89.5787C249.6 89.7627 249.972 90.0178 250.281 90.344L249.63 90.9587C249.554 90.8667 249.458 90.7747 249.342 90.6827C249.233 90.5823 249.095 90.4945 248.928 90.4193C248.77 90.3356 248.582 90.2687 248.365 90.2185C248.148 90.1683 247.898 90.1433 247.614 90.1433C247.105 90.1433 246.712 90.2311 246.437 90.4067C246.17 90.5823 246.036 90.8374 246.036 91.172C246.036 91.3393 246.065 91.4814 246.124 91.5985C246.191 91.7073 246.278 91.7951 246.387 91.862C246.495 91.9289 246.616 91.9833 246.75 92.0251C246.892 92.0585 247.034 92.0878 247.176 92.1129L248.19 92.2634C248.423 92.2969 248.67 92.3429 248.928 92.4014C249.187 92.46 249.425 92.5562 249.642 92.69C249.859 92.8154 250.039 92.9869 250.18 93.2043C250.331 93.4218 250.406 93.7062 250.406 94.0574C250.406 94.7014 250.155 95.1991 249.655 95.5503C249.162 95.9016 248.503 96.0773 247.676 96.0773Z" fill="#0B0E29"/>
<path d="M255.422 95.9267C254.929 95.9267 254.566 95.7887 254.332 95.5127C254.107 95.2367 253.994 94.8813 253.994 94.4463V90.3063H251.841V89.4533H253.443C253.66 89.4533 253.811 89.4114 253.894 89.3278C253.986 89.2358 254.032 89.0811 254.032 88.8636V87.17H254.996V89.4533H257.938V90.3063H254.996V95.0736H257.938V95.9267H255.422Z" fill="#0B0E29"/>
<path fill-rule="evenodd" clip-rule="evenodd" d="M277.885 80.4686V79.4545H278.928V80.4686H277.885ZM277.885 84.525V82.4968H278.928V84.525H277.885ZM277.885 88.5813V86.5532H278.928V88.5813H277.885ZM277.885 92.6377V90.6095H278.928V92.6377H277.885ZM277.885 96.6941V94.6659H278.928V96.6941H277.885ZM277.885 100.75V98.7223H278.928V100.75H277.885ZM277.885 103.793V102.779H278.928V103.793H277.885Z" fill="#00D0F6"/>
<rect width="68.6888" height="24.3382" transform="translate(278.929 79.4545)" fill="#00D0F6"/>
<path d="M289.029 96.1902H287.977V87.4335H291.158C291.967 87.4335 292.585 87.6551 293.011 88.0984C293.436 88.5416 293.649 89.1606 293.649 89.9551C293.649 90.666 293.466 91.2347 293.098 91.6613C292.731 92.0878 292.197 92.3346 291.496 92.4015L293.724 96.1902H292.547L290.419 92.4516H289.029V96.1902ZM291.133 91.5609C291.575 91.5609 291.917 91.4522 292.159 91.2347C292.41 91.0089 292.535 90.6911 292.535 90.2813V89.6289C292.535 89.2191 292.41 88.9055 292.159 88.688C291.917 88.4622 291.575 88.3493 291.133 88.3493H289.029V91.5609H291.133Z" fill="#0B0E29"/>
<path d="M298.227 96.3407C297.759 96.3407 297.338 96.2613 296.962 96.1024C296.595 95.9435 296.278 95.7176 296.011 95.4249C295.752 95.1238 295.552 94.7684 295.41 94.3586C295.268 93.9404 295.197 93.4762 295.197 92.966C295.197 92.4475 295.268 91.9791 295.41 91.5609C295.56 91.1427 295.764 90.7873 296.023 90.4946C296.282 90.1935 296.591 89.9635 296.95 89.8046C297.317 89.6456 297.722 89.5662 298.164 89.5662C298.598 89.5662 298.991 89.6456 299.341 89.8046C299.7 89.9635 300.005 90.1851 300.255 90.4695C300.506 90.7455 300.698 91.0758 300.831 91.4606C300.965 91.8453 301.031 92.2676 301.031 92.7276V93.2044H296.249V93.5055C296.249 93.7898 296.294 94.0533 296.386 94.2958C296.478 94.5384 296.607 94.7475 296.774 94.9231C296.95 95.0987 297.158 95.2367 297.4 95.3371C297.651 95.4291 297.926 95.4751 298.227 95.4751C298.661 95.4751 299.036 95.3747 299.354 95.174C299.671 94.9733 299.913 94.6973 300.08 94.346L300.819 94.8478C300.627 95.2827 300.305 95.6424 299.854 95.9267C299.412 96.2027 298.87 96.3407 298.227 96.3407ZM298.164 90.3942C297.889 90.3942 297.634 90.4444 297.4 90.5447C297.167 90.6451 296.962 90.7831 296.787 90.9587C296.62 91.1344 296.486 91.3435 296.386 91.586C296.294 91.8202 296.249 92.0795 296.249 92.3638V92.4516H299.955V92.3136C299.955 92.0293 299.909 91.77 299.817 91.5358C299.733 91.3016 299.612 91.1009 299.454 90.9336C299.304 90.758 299.116 90.6242 298.89 90.5322C298.673 90.4402 298.431 90.3942 298.164 90.3942Z" fill="#0B0E29"/>
<path d="M302.867 95.3371H305.121V87.7596H302.867V86.9066H306.122V95.3371H308.376V96.1902H302.867V95.3371Z" fill="#0B0E29"/>
<path d="M313.242 96.3407C312.774 96.3407 312.353 96.2613 311.977 96.1024C311.61 95.9435 311.293 95.7176 311.025 95.4249C310.767 95.1238 310.566 94.7684 310.424 94.3586C310.283 93.9404 310.212 93.4762 310.212 92.966C310.212 92.4475 310.283 91.9791 310.424 91.5609C310.575 91.1427 310.779 90.7873 311.038 90.4946C311.297 90.1935 311.606 89.9635 311.965 89.8046C312.332 89.6456 312.737 89.5662 313.179 89.5662C313.613 89.5662 314.005 89.6456 314.356 89.8046C314.715 89.9635 315.02 90.1851 315.27 90.4695C315.52 90.7455 315.712 91.0758 315.846 91.4606C315.979 91.8453 316.046 92.2676 316.046 92.7276V93.2044H311.263V93.5055C311.263 93.7898 311.309 94.0533 311.401 94.2958C311.493 94.5384 311.622 94.7475 311.789 94.9231C311.965 95.0987 312.173 95.2367 312.415 95.3371C312.666 95.4291 312.941 95.4751 313.242 95.4751C313.676 95.4751 314.051 95.3747 314.368 95.174C314.686 94.9733 314.928 94.6973 315.095 94.346L315.833 94.8478C315.641 95.2827 315.32 95.6424 314.869 95.9267C314.427 96.2027 313.884 96.3407 313.242 96.3407ZM313.179 90.3942C312.904 90.3942 312.649 90.4444 312.415 90.5447C312.182 90.6451 311.977 90.7831 311.802 90.9587C311.635 91.1344 311.501 91.3435 311.401 91.586C311.309 91.8202 311.263 92.0795 311.263 92.3638V92.4516H314.969V92.3136C314.969 92.0293 314.924 91.77 314.832 91.5358C314.748 91.3016 314.627 91.1009 314.469 90.9336C314.318 90.758 314.131 90.6242 313.905 90.5322C313.688 90.4402 313.446 90.3942 313.179 90.3942Z" fill="#0B0E29"/>
<path d="M323.078 96.1902C322.685 96.1902 322.406 96.0898 322.239 95.8891C322.072 95.6884 321.968 95.4375 321.926 95.1364H321.863C321.721 95.5127 321.492 95.8096 321.175 96.0271C320.866 96.2362 320.449 96.3407 319.923 96.3407C319.247 96.3407 318.708 96.1651 318.308 95.8138C317.907 95.4626 317.707 94.9816 317.707 94.3711C317.707 93.7689 317.924 93.3047 318.358 92.9786C318.8 92.6524 319.509 92.4893 320.486 92.4893H321.863V91.8495C321.863 91.3727 321.73 91.0173 321.463 90.7831C321.196 90.5406 320.816 90.4193 320.323 90.4193C319.889 90.4193 319.535 90.5071 319.259 90.6827C318.984 90.85 318.762 91.08 318.595 91.3727L317.919 90.8709C318.003 90.7036 318.116 90.5406 318.257 90.3816C318.399 90.2227 318.575 90.0847 318.783 89.9676C318.992 89.8422 319.23 89.746 319.497 89.6791C319.764 89.6038 320.06 89.5662 320.386 89.5662C321.145 89.5662 321.746 89.7586 322.189 90.1433C322.64 90.528 322.865 91.0633 322.865 91.7491V95.312H323.766V96.1902H323.078ZM320.098 95.5002C320.357 95.5002 320.59 95.4709 320.799 95.4124C321.016 95.3455 321.204 95.2618 321.363 95.1615C321.521 95.0527 321.642 94.9273 321.726 94.7851C321.817 94.6346 321.863 94.4756 321.863 94.3084V93.242H320.486C319.885 93.242 319.447 93.3256 319.171 93.4929C318.896 93.6602 318.758 93.9027 318.758 94.2206V94.484C318.758 94.8186 318.875 95.0736 319.109 95.2493C319.351 95.4166 319.681 95.5002 320.098 95.5002Z" fill="#0B0E29"/>
<path d="M328.219 96.3407C327.543 96.3407 326.958 96.2278 326.466 96.002C325.982 95.7678 325.569 95.4584 325.226 95.0736L325.903 94.484C326.211 94.8102 326.549 95.0611 326.917 95.2367C327.284 95.4124 327.726 95.5002 328.244 95.5002C328.745 95.5002 329.154 95.4124 329.471 95.2367C329.796 95.0527 329.959 94.7684 329.959 94.3836C329.959 94.2164 329.926 94.0784 329.859 93.9696C329.801 93.8526 329.717 93.7606 329.609 93.6936C329.5 93.6267 329.379 93.5766 329.246 93.5431C329.112 93.5013 328.97 93.4678 328.82 93.4427L327.806 93.2922C327.58 93.2587 327.334 93.2127 327.067 93.1542C326.808 93.0956 326.57 93.0036 326.353 92.8782C326.136 92.7444 325.953 92.5687 325.802 92.3513C325.66 92.1338 325.59 91.8495 325.59 91.4982C325.59 91.172 325.652 90.8918 325.777 90.6576C325.911 90.4151 326.095 90.2144 326.328 90.0555C326.562 89.8882 326.837 89.7669 327.155 89.6916C327.472 89.608 327.818 89.5662 328.194 89.5662C328.778 89.5662 329.283 89.6582 329.709 89.8422C330.143 90.0262 330.514 90.2813 330.823 90.6075L330.172 91.2222C330.097 91.1302 330.001 91.0382 329.884 90.9462C329.776 90.8458 329.638 90.758 329.471 90.6827C329.312 90.5991 329.124 90.5322 328.907 90.482C328.69 90.4318 328.44 90.4067 328.156 90.4067C327.647 90.4067 327.255 90.4946 326.979 90.6702C326.712 90.8458 326.579 91.1009 326.579 91.4355C326.579 91.6027 326.608 91.7449 326.666 91.862C326.733 91.9707 326.821 92.0586 326.929 92.1255C327.038 92.1924 327.159 92.2467 327.292 92.2886C327.434 92.322 327.576 92.3513 327.718 92.3764L328.732 92.5269C328.966 92.5604 329.212 92.6064 329.471 92.6649C329.73 92.7235 329.968 92.8196 330.185 92.9535C330.402 93.0789 330.581 93.2504 330.723 93.4678C330.873 93.6853 330.948 93.9696 330.948 94.3209C330.948 94.9649 330.698 95.4626 330.197 95.8138C329.705 96.1651 329.045 96.3407 328.219 96.3407Z" fill="#0B0E29"/>
<path d="M335.764 96.3407C335.296 96.3407 334.875 96.2613 334.499 96.1024C334.132 95.9435 333.815 95.7176 333.548 95.4249C333.289 95.1238 333.089 94.7684 332.947 94.3586C332.805 93.9404 332.734 93.4762 332.734 92.966C332.734 92.4475 332.805 91.9791 332.947 91.5609C333.097 91.1427 333.301 90.7873 333.56 90.4946C333.819 90.1935 334.128 89.9635 334.487 89.8046C334.854 89.6456 335.259 89.5662 335.701 89.5662C336.135 89.5662 336.528 89.6456 336.878 89.8046C337.237 89.9635 337.542 90.1851 337.792 90.4695C338.043 90.7455 338.234 91.0758 338.368 91.4606C338.502 91.8453 338.568 92.2676 338.568 92.7276V93.2044H333.786V93.5055C333.786 93.7898 333.831 94.0533 333.923 94.2958C334.015 94.5384 334.144 94.7475 334.311 94.9231C334.487 95.0987 334.695 95.2367 334.937 95.3371C335.188 95.4291 335.463 95.4751 335.764 95.4751C336.198 95.4751 336.573 95.3747 336.891 95.174C337.208 94.9733 337.45 94.6973 337.617 94.346L338.356 94.8478C338.164 95.2827 337.842 95.6424 337.391 95.9267C336.949 96.2027 336.407 96.3407 335.764 96.3407ZM335.701 90.3942C335.426 90.3942 335.171 90.4444 334.937 90.5447C334.704 90.6451 334.499 90.7831 334.324 90.9587C334.157 91.1344 334.023 91.3435 333.923 91.586C333.831 91.8202 333.786 92.0795 333.786 92.3638V92.4516H337.492V92.3136C337.492 92.0293 337.446 91.77 337.354 91.5358C337.27 91.3016 337.149 91.1009 336.991 90.9336C336.841 90.758 336.653 90.6242 336.427 90.5322C336.21 90.4402 335.968 90.3942 335.701 90.3942Z" fill="#0B0E29"/>
<path fill-rule="evenodd" clip-rule="evenodd" d="M347.617 80.4686V79.4545H348.661V80.4686H347.617ZM347.617 84.525V82.4968H348.661V84.525H347.617ZM347.617 88.5813V86.5532H348.661V88.5813H347.617ZM347.617 92.6377V90.6095H348.661V92.6377H347.617ZM347.617 96.6941V94.6659H348.661V96.6941H347.617ZM347.617 100.75V98.7223H348.661V100.75H347.617ZM347.617 103.793V102.779H348.661V103.793H347.617Z" fill="#00D0F6"/>
<rect width="68.6888" height="24.3382" transform="translate(348.661 79.4545)" fill="#00D0F6"/>
<path d="M361.407 86.2541H363.848C364.917 86.2541 365.714 86.6221 366.24 87.3581C366.766 88.0941 367.029 89.1856 367.029 90.6325C367.029 92.0794 366.766 93.1709 366.24 93.9069C365.714 94.6429 364.917 95.0109 363.848 95.0109H361.407V86.2541ZM363.798 94.0951C364.499 94.0951 365.025 93.8525 365.376 93.3674C365.735 92.8823 365.914 92.1965 365.914 91.31V89.9551C365.914 89.0685 365.735 88.3827 365.376 87.8976C365.025 87.4125 364.499 87.17 363.798 87.17H362.459V94.0951H363.798Z" fill="#0B0E29"/>
<path d="M371.594 95.1614C371.126 95.1614 370.705 95.082 370.329 94.9231C369.962 94.7641 369.645 94.5383 369.378 94.2456C369.119 93.9445 368.918 93.5891 368.777 93.1792C368.635 92.7611 368.564 92.2969 368.564 91.7867C368.564 91.2681 368.635 90.7998 368.777 90.3816C368.927 89.9634 369.131 89.608 369.39 89.3152C369.649 89.0141 369.958 88.7841 370.317 88.6252C370.684 88.4663 371.089 88.3869 371.531 88.3869C371.965 88.3869 372.357 88.4663 372.708 88.6252C373.067 88.7841 373.372 89.0058 373.622 89.2901C373.872 89.5661 374.064 89.8965 374.198 90.2812C374.331 90.666 374.398 91.0883 374.398 91.5483V92.0251H369.615V92.3261C369.615 92.6105 369.661 92.874 369.753 93.1165C369.845 93.3591 369.974 93.5681 370.141 93.7438C370.317 93.9194 370.525 94.0574 370.767 94.1578C371.018 94.2498 371.293 94.2958 371.594 94.2958C372.028 94.2958 372.403 94.1954 372.72 93.9947C373.038 93.794 373.28 93.518 373.447 93.1667L374.185 93.6685C373.993 94.1034 373.672 94.4631 373.221 94.7474C372.779 95.0234 372.236 95.1614 371.594 95.1614ZM371.531 89.2149C371.256 89.2149 371.001 89.2651 370.767 89.3654C370.534 89.4658 370.329 89.6038 370.154 89.7794C369.987 89.9551 369.853 90.1641 369.753 90.4067C369.661 90.6409 369.615 90.9001 369.615 91.1845V91.2723H373.321V91.1343C373.321 90.85 373.276 90.5907 373.184 90.3565C373.1 90.1223 372.979 89.9216 372.821 89.7543C372.67 89.5787 372.483 89.4449 372.257 89.3529C372.04 89.2609 371.798 89.2149 371.531 89.2149Z" fill="#0B0E29"/>
<path d="M376.422 88.5374H377.423V89.5912H377.473C377.891 88.7883 378.554 88.3869 379.464 88.3869C380.257 88.3869 380.875 88.6838 381.317 89.2776C381.768 89.8714 381.993 90.7036 381.993 91.7741C381.993 92.8447 381.768 93.6769 381.317 94.2707C380.875 94.8645 380.257 95.1614 379.464 95.1614C378.554 95.1614 377.891 94.76 377.473 93.9571H377.423V97.52H376.422V88.5374ZM379.076 94.2707C379.66 94.2707 380.111 94.0951 380.428 93.7438C380.754 93.3841 380.917 92.9116 380.917 92.3261V91.2221C380.917 90.6367 380.754 90.1683 380.428 89.8171C380.111 89.4574 379.66 89.2776 379.076 89.2776C378.851 89.2776 378.638 89.3069 378.437 89.3654C378.237 89.424 378.062 89.5118 377.912 89.6289C377.761 89.7376 377.64 89.8756 377.548 90.0429C377.465 90.2018 377.423 90.39 377.423 90.6074V92.9409C377.423 93.1583 377.465 93.3507 377.548 93.518C377.64 93.6769 377.761 93.8149 377.912 93.932C378.062 94.0407 378.237 94.1243 378.437 94.1829C378.638 94.2414 378.851 94.2707 379.076 94.2707Z" fill="#0B0E29"/>
<path d="M383.741 94.1578H385.995V86.5803H383.741V85.7272H386.997V94.1578H389.25V95.0109H383.741V94.1578Z" fill="#0B0E29"/>
<path d="M394.003 95.1614C393.552 95.1614 393.143 95.082 392.776 94.9231C392.417 94.7641 392.108 94.5383 391.85 94.2456C391.599 93.9445 391.407 93.5891 391.274 93.1792C391.14 92.7611 391.073 92.2927 391.073 91.7741C391.073 91.264 391.14 90.7998 391.274 90.3816C391.407 89.9634 391.599 89.608 391.85 89.3152C392.108 89.0141 392.417 88.7841 392.776 88.6252C393.143 88.4663 393.552 88.3869 394.003 88.3869C394.454 88.3869 394.859 88.4663 395.218 88.6252C395.585 88.7841 395.894 89.0141 396.144 89.3152C396.403 89.608 396.599 89.9634 396.733 90.3816C396.866 90.7998 396.933 91.264 396.933 91.7741C396.933 92.2927 396.866 92.7611 396.733 93.1792C396.599 93.5891 396.403 93.9445 396.144 94.2456C395.894 94.5383 395.585 94.7641 395.218 94.9231C394.859 95.082 394.454 95.1614 394.003 95.1614ZM394.003 94.2958C394.562 94.2958 395.013 94.1285 395.355 93.794C395.698 93.4594 395.869 92.9409 395.869 92.2383V91.31C395.869 90.6074 395.698 90.0889 395.355 89.7543C395.013 89.4198 394.562 89.2525 394.003 89.2525C393.444 89.2525 392.993 89.4198 392.651 89.7543C392.309 90.0889 392.138 90.6074 392.138 91.31V92.2383C392.138 92.9409 392.309 93.4594 392.651 93.794C392.993 94.1285 393.444 94.2958 394.003 94.2958Z" fill="#0B0E29"/>
<path d="M403.601 88.5374H404.603L401.398 96.4285C401.323 96.6125 401.239 96.7714 401.147 96.9052C401.056 97.0474 400.947 97.1603 400.822 97.244C400.697 97.336 400.546 97.4029 400.371 97.4447C400.196 97.4949 399.987 97.52 399.745 97.52H398.794V96.6669H400.296L401.022 94.8854L398.418 88.5374H399.445L400.534 91.2472L401.498 93.7061H401.548L402.512 91.2472L403.601 88.5374Z" fill="#0B0E29"/>
<path d="M433 91.4773L417.349 103.5L417.349 79.4545L433 91.4773Z" fill="#00D0F6"/>
</g>
<path d="M23.8682 148.605C22.7998 148.605 22.0027 148.216 21.4768 147.438C20.9593 146.661 20.7006 145.54 20.7006 144.076C20.7006 142.613 20.9593 141.492 21.4768 140.714C22.0027 139.936 22.7998 139.547 23.8682 139.547C24.2689 139.547 24.6153 139.602 24.9074 139.71C25.1996 139.819 25.45 139.965 25.6587 140.149C25.8673 140.333 26.0426 140.543 26.1845 140.777C26.3264 141.003 26.4516 141.233 26.5601 141.467L25.6587 141.881C25.5835 141.688 25.4959 141.509 25.3957 141.341C25.2956 141.166 25.1745 141.015 25.0326 140.89C24.8991 140.756 24.7363 140.651 24.5443 140.576C24.3607 140.501 24.1353 140.463 23.8682 140.463C23.1754 140.463 22.6579 140.727 22.3157 141.253C21.9818 141.78 21.8149 142.483 21.8149 143.361V144.791C21.8149 145.669 21.9818 146.372 22.3157 146.899C22.6579 147.426 23.1754 147.689 23.8682 147.689C24.1353 147.689 24.3607 147.652 24.5443 147.576C24.7363 147.501 24.8991 147.401 25.0326 147.275C25.1745 147.141 25.2956 146.991 25.3957 146.824C25.4959 146.648 25.5835 146.464 25.6587 146.272L26.5601 146.686C26.4516 146.928 26.3264 147.162 26.1845 147.388C26.0426 147.614 25.8673 147.819 25.6587 148.003C25.45 148.187 25.1996 148.333 24.9074 148.442C24.6153 148.551 24.2689 148.605 23.8682 148.605Z" fill="#93949E"/>
<path d="M31.0877 148.605C30.6369 148.605 30.2279 148.526 29.8607 148.367C29.5017 148.208 29.1929 147.982 28.9341 147.689C28.6837 147.388 28.4918 147.033 28.3582 146.623C28.2247 146.205 28.1579 145.736 28.1579 145.218C28.1579 144.708 28.2247 144.243 28.3582 143.825C28.4918 143.407 28.6837 143.052 28.9341 142.759C29.1929 142.458 29.5017 142.228 29.8607 142.069C30.2279 141.91 30.6369 141.831 31.0877 141.831C31.5384 141.831 31.9432 141.91 32.3022 142.069C32.6694 142.228 32.9783 142.458 33.2287 142.759C33.4874 143.052 33.6836 143.407 33.8171 143.825C33.9507 144.243 34.0175 144.708 34.0175 145.218C34.0175 145.736 33.9507 146.205 33.8171 146.623C33.6836 147.033 33.4874 147.388 33.2287 147.689C32.9783 147.982 32.6694 148.208 32.3022 148.367C31.9432 148.526 31.5384 148.605 31.0877 148.605ZM31.0877 147.739C31.6469 147.739 32.0977 147.572 32.4399 147.238C32.7821 146.903 32.9532 146.385 32.9532 145.682V144.754C32.9532 144.051 32.7821 143.533 32.4399 143.198C32.0977 142.863 31.6469 142.696 31.0877 142.696C30.5284 142.696 30.0777 142.863 29.7355 143.198C29.3932 143.533 29.2221 144.051 29.2221 144.754V145.682C29.2221 146.385 29.3932 146.903 29.7355 147.238C30.0777 147.572 30.5284 147.739 31.0877 147.739Z" fill="#93949E"/>
<path d="M36.0659 148.455V141.981H37.0676V143.035H37.1177C37.1844 142.876 37.2679 142.725 37.3681 142.583C37.4682 142.433 37.5893 142.303 37.7312 142.194C37.8814 142.086 38.0567 141.998 38.257 141.931C38.4573 141.864 38.6911 141.831 38.9582 141.831C39.6343 141.831 40.1768 142.048 40.5858 142.483C40.9948 142.909 41.1993 143.516 41.1993 144.302V148.455H40.1977V144.478C40.1977 143.884 40.0683 143.445 39.8096 143.16C39.5508 142.868 39.171 142.721 38.6702 142.721C38.4699 142.721 38.2737 142.746 38.0817 142.797C37.8897 142.847 37.7186 142.922 37.5684 143.022C37.4181 143.123 37.2971 143.252 37.2053 143.411C37.1135 143.57 37.0676 143.754 37.0676 143.963V148.455H36.0659Z" fill="#93949E"/>
<path d="M46.4155 148.455C45.923 148.455 45.5599 148.317 45.3262 148.041C45.1008 147.765 44.9881 147.409 44.9881 146.974V142.834H42.8346V141.981H44.4372C44.6543 141.981 44.8045 141.939 44.888 141.856C44.9798 141.764 45.0257 141.609 45.0257 141.391V139.698H45.9898V141.981H48.9321V142.834H45.9898V147.601H48.9321V148.455H46.4155Z" fill="#93949E"/>
<path d="M54.0105 140.551C53.7184 140.551 53.5139 140.492 53.397 140.375C53.2802 140.25 53.2217 140.095 53.2217 139.911V139.71C53.2217 139.526 53.2802 139.376 53.397 139.259C53.5139 139.133 53.7184 139.071 54.0105 139.071C54.3027 139.071 54.5072 139.133 54.624 139.259C54.7409 139.376 54.7993 139.526 54.7993 139.71V139.911C54.7993 140.095 54.7409 140.25 54.624 140.375C54.5072 140.492 54.3027 140.551 54.0105 140.551ZM51.1809 147.601H53.5097V142.834H51.1809V141.981H54.5113V147.601H56.6899V148.455H51.1809V147.601Z" fill="#93949E"/>
<path d="M58.5881 148.455V141.981H59.5898V143.035H59.6398C59.7066 142.876 59.7901 142.725 59.8903 142.583C59.9904 142.433 60.1115 142.303 60.2533 142.194C60.4036 142.086 60.5789 141.998 60.7792 141.931C60.9795 141.864 61.2133 141.831 61.4804 141.831C62.1565 141.831 62.699 142.048 63.108 142.483C63.517 142.909 63.7215 143.516 63.7215 144.302V148.455H62.7199V144.478C62.7199 143.884 62.5905 143.445 62.3317 143.16C62.073 142.868 61.6932 142.721 61.1924 142.721C60.9921 142.721 60.7959 142.746 60.6039 142.797C60.4119 142.847 60.2408 142.922 60.0906 143.022C59.9403 143.123 59.8193 143.252 59.7275 143.411C59.6357 143.57 59.5898 143.754 59.5898 143.963V148.455H58.5881Z" fill="#93949E"/>
<path d="M70.1522 147.401H70.1021C70.0353 147.56 69.9518 147.714 69.8517 147.865C69.7515 148.007 69.6263 148.133 69.4761 148.241C69.3342 148.35 69.163 148.438 68.9627 148.505C68.7624 148.572 68.5287 148.605 68.2616 148.605C67.5855 148.605 67.0429 148.392 66.6339 147.965C66.2249 147.53 66.0204 146.92 66.0204 146.134V141.981H67.022V145.958C67.022 146.552 67.1514 146.995 67.4102 147.288C67.6689 147.572 68.0487 147.714 68.5495 147.714C68.7499 147.714 68.946 147.689 69.138 147.639C69.33 147.589 69.5011 147.514 69.6513 147.413C69.8016 147.313 69.9226 147.187 70.0144 147.037C70.1063 146.878 70.1522 146.69 70.1522 146.472V141.981H71.1538V148.455H70.1522V147.401Z" fill="#93949E"/>
<path d="M76.1321 148.605C75.6813 148.605 75.2723 148.526 74.9051 148.367C74.5461 148.208 74.2373 147.982 73.9785 147.689C73.7281 147.388 73.5361 147.033 73.4026 146.623C73.269 146.205 73.2023 145.736 73.2023 145.218C73.2023 144.708 73.269 144.243 73.4026 143.825C73.5361 143.407 73.7281 143.052 73.9785 142.759C74.2373 142.458 74.5461 142.228 74.9051 142.069C75.2723 141.91 75.6813 141.831 76.1321 141.831C76.5828 141.831 76.9876 141.91 77.3465 142.069C77.7138 142.228 78.0227 142.458 78.2731 142.759C78.5318 143.052 78.728 143.407 78.8615 143.825C78.9951 144.243 79.0619 144.708 79.0619 145.218C79.0619 145.736 78.9951 146.205 78.8615 146.623C78.728 147.033 78.5318 147.388 78.2731 147.689C78.0227 147.982 77.7138 148.208 77.3465 148.367C76.9876 148.526 76.5828 148.605 76.1321 148.605ZM76.1321 147.739C76.6913 147.739 77.142 147.572 77.4843 147.238C77.8265 146.903 77.9976 146.385 77.9976 145.682V144.754C77.9976 144.051 77.8265 143.533 77.4843 143.198C77.142 142.863 76.6913 142.696 76.1321 142.696C75.5728 142.696 75.1221 142.863 74.7798 143.198C74.4376 143.533 74.2665 144.051 74.2665 144.754V145.682C74.2665 146.385 74.4376 146.903 74.7798 147.238C75.1221 147.572 75.5728 147.739 76.1321 147.739Z" fill="#93949E"/>
<path d="M85.167 147.401H85.1169C85.0501 147.56 84.9666 147.714 84.8665 147.865C84.7663 148.007 84.6411 148.133 84.4909 148.241C84.349 148.35 84.1778 148.438 83.9775 148.505C83.7772 148.572 83.5435 148.605 83.2764 148.605C82.6003 148.605 82.0577 148.392 81.6487 147.965C81.2397 147.53 81.0352 146.92 81.0352 146.134V141.981H82.0368V145.958C82.0368 146.552 82.1662 146.995 82.425 147.288C82.6837 147.572 83.0635 147.714 83.5643 147.714C83.7647 147.714 83.9608 147.689 84.1528 147.639C84.3448 147.589 84.5159 147.514 84.6661 147.413C84.8164 147.313 84.9374 147.187 85.0292 147.037C85.121 146.878 85.167 146.69 85.167 146.472V141.981H86.1686V148.455H85.167V147.401Z" fill="#93949E"/>
<path d="M91.222 148.605C90.5459 148.605 89.9616 148.492 89.4691 148.266C88.985 148.032 88.5718 147.723 88.2296 147.338L88.9057 146.748C89.2145 147.075 89.5526 147.325 89.9199 147.501C90.2871 147.677 90.7295 147.765 91.247 147.765C91.7478 147.765 92.1568 147.677 92.474 147.501C92.7996 147.317 92.9623 147.033 92.9623 146.648C92.9623 146.481 92.9289 146.343 92.8622 146.234C92.8037 146.117 92.7203 146.025 92.6118 145.958C92.5032 145.891 92.3822 145.841 92.2487 145.807C92.1151 145.766 91.9732 145.732 91.823 145.707L90.8088 145.557C90.5834 145.523 90.3372 145.477 90.0701 145.419C89.8113 145.36 89.5735 145.268 89.3564 145.143C89.1394 145.009 88.9558 144.833 88.8055 144.616C88.6636 144.398 88.5927 144.114 88.5927 143.763C88.5927 143.436 88.6553 143.156 88.7805 142.922C88.914 142.679 89.0977 142.479 89.3314 142.32C89.5651 142.153 89.8406 142.031 90.1577 141.956C90.4749 141.872 90.8213 141.831 91.1969 141.831C91.7812 141.831 92.2862 141.923 92.7119 142.107C93.146 142.291 93.5174 142.546 93.8262 142.872L93.1752 143.487C93.1001 143.395 93.0041 143.303 92.8872 143.211C92.7787 143.11 92.641 143.022 92.474 142.947C92.3154 142.863 92.1276 142.797 91.9106 142.746C91.6936 142.696 91.4432 142.671 91.1594 142.671C90.6502 142.671 90.2579 142.759 89.9825 142.935C89.7154 143.11 89.5818 143.365 89.5818 143.7C89.5818 143.867 89.611 144.009 89.6694 144.126C89.7362 144.235 89.8239 144.323 89.9324 144.39C90.0409 144.457 90.1619 144.511 90.2955 144.553C90.4374 144.586 90.5793 144.616 90.7212 144.641L91.7353 144.791C91.969 144.825 92.2153 144.871 92.474 144.929C92.7328 144.988 92.9707 145.084 93.1877 145.218C93.4047 145.343 93.5842 145.515 93.7261 145.732C93.8763 145.95 93.9514 146.234 93.9514 146.585C93.9514 147.229 93.701 147.727 93.2002 148.078C92.7077 148.429 92.0483 148.605 91.222 148.605Z" fill="#93949E"/>
<path d="M20.8758 165.182V164.341H23.0544V157.266H20.8758V156.425H26.2847V157.266H24.1061V164.341H26.2847V165.182H20.8758Z" fill="#93949E"/>
<path d="M28.5585 165.182V158.708H29.5602V159.762H29.6103C29.677 159.603 29.7605 159.453 29.8607 159.311C29.9608 159.16 30.0819 159.03 30.2238 158.922C30.374 158.813 30.5493 158.725 30.7496 158.658C30.9499 158.591 31.1837 158.558 31.4508 158.558C32.1269 158.558 32.6694 158.775 33.0784 159.21C33.4874 159.637 33.6919 160.243 33.6919 161.029V165.182H32.6903V161.205C32.6903 160.611 32.5609 160.172 32.3022 159.888C32.0434 159.595 31.6636 159.449 31.1628 159.449C30.9625 159.449 30.7663 159.474 30.5743 159.524C30.3823 159.574 30.2112 159.649 30.061 159.75C29.9107 159.85 29.7897 159.98 29.6979 160.139C29.6061 160.297 29.5602 160.481 29.5602 160.691V165.182H28.5585Z" fill="#93949E"/>
<path d="M38.9081 165.182C38.4156 165.182 38.0525 165.044 37.8188 164.768C37.5934 164.492 37.4807 164.136 37.4807 163.701V159.561H35.3272V158.708H36.9298C37.1469 158.708 37.2971 158.667 37.3806 158.583C37.4724 158.491 37.5183 158.336 37.5183 158.119V156.425H38.4824V158.708H41.4247V159.561H38.4824V164.329H41.4247V165.182H38.9081Z" fill="#93949E"/>
<path d="M46.2152 165.332C45.7477 165.332 45.3262 165.253 44.9506 165.094C44.5833 164.935 44.2661 164.709 43.999 164.417C43.7403 164.115 43.5399 163.76 43.398 163.35C43.2561 162.932 43.1852 162.468 43.1852 161.958C43.1852 161.439 43.2561 160.971 43.398 160.553C43.5483 160.134 43.7528 159.779 44.0115 159.486C44.2703 159.185 44.5791 158.955 44.9381 158.796C45.3053 158.637 45.7102 158.558 46.1525 158.558C46.5866 158.558 46.9789 158.637 47.3295 158.796C47.6884 158.955 47.9931 159.177 48.2435 159.461C48.4939 159.737 48.6859 160.067 48.8194 160.452C48.953 160.837 49.0197 161.259 49.0197 161.719V162.196H44.2369V162.497C44.2369 162.781 44.2828 163.045 44.3746 163.287C44.4665 163.53 44.5958 163.739 44.7628 163.915C44.9381 164.09 45.1467 164.228 45.3888 164.329C45.6392 164.421 45.9147 164.467 46.2152 164.467C46.6492 164.467 47.0248 164.366 47.342 164.166C47.6592 163.965 47.9012 163.689 48.0682 163.338L48.8069 163.839C48.6149 164.274 48.2936 164.634 47.8428 164.918C47.4004 165.194 46.8579 165.332 46.2152 165.332ZM46.1525 159.386C45.8771 159.386 45.6225 159.436 45.3888 159.536C45.1551 159.637 44.9506 159.775 44.7753 159.95C44.6084 160.126 44.4748 160.335 44.3746 160.578C44.2828 160.812 44.2369 161.071 44.2369 161.355V161.443H47.943V161.305C47.943 161.021 47.8971 160.762 47.8053 160.527C47.7218 160.293 47.6008 160.093 47.4422 159.925C47.2919 159.75 47.1041 159.616 46.8787 159.524C46.6617 159.432 46.4197 159.386 46.1525 159.386Z" fill="#93949E"/>
<path d="M56.8777 165.922C56.8777 166.574 56.6064 167.055 56.0639 167.365C55.5213 167.683 54.7075 167.841 53.6224 167.841C52.579 167.841 51.8278 167.703 51.3687 167.427C50.918 167.151 50.6926 166.754 50.6926 166.236C50.6926 165.884 50.7844 165.613 50.968 165.42C51.1517 165.228 51.4104 165.086 51.7443 164.994V164.843C51.5607 164.751 51.4188 164.634 51.3186 164.492C51.2185 164.35 51.1684 164.17 51.1684 163.952C51.1684 163.618 51.2769 163.367 51.4939 163.2C51.7193 163.032 51.9989 162.907 52.3328 162.823V162.773C51.9321 162.597 51.6191 162.338 51.3937 161.995C51.1767 161.652 51.0682 161.251 51.0682 160.791C51.0682 160.465 51.1266 160.164 51.2435 159.888C51.3604 159.612 51.5273 159.377 51.7443 159.185C51.9697 158.984 52.2368 158.83 52.5456 158.721C52.8545 158.612 53.1967 158.558 53.5723 158.558C54.0564 158.558 54.4821 158.646 54.8494 158.821V158.708C54.8494 158.457 54.9078 158.248 55.0247 158.081C55.1415 157.914 55.3419 157.83 55.6257 157.83H56.8151V158.708H55.3627V159.147C55.5964 159.348 55.7759 159.587 55.9011 159.863C56.0263 160.139 56.0889 160.448 56.0889 160.791C56.0889 161.117 56.0263 161.418 55.9011 161.694C55.7843 161.97 55.6173 162.209 55.4003 162.409C55.1833 162.602 54.9162 162.752 54.599 162.861C54.2901 162.97 53.9479 163.024 53.5723 163.024C53.4638 163.024 53.3595 163.02 53.2593 163.011C53.1591 163.003 53.059 162.991 52.9588 162.974C52.8586 162.991 52.7543 163.02 52.6458 163.062C52.5373 163.095 52.4371 163.145 52.3453 163.212C52.2535 163.271 52.1784 163.342 52.1199 163.425C52.0615 163.509 52.0323 163.605 52.0323 163.714C52.0323 163.906 52.1283 164.036 52.3203 164.103C52.5122 164.161 52.7626 164.191 53.0715 164.191H54.4988C55.3335 164.191 55.9387 164.35 56.3143 164.667C56.6899 164.977 56.8777 165.395 56.8777 165.922ZM55.9387 165.972C55.9387 165.713 55.8343 165.504 55.6257 165.345C55.417 165.194 55.0539 165.119 54.5364 165.119H52.2952C51.8612 165.295 51.6441 165.587 51.6441 165.997C51.6441 166.282 51.7568 166.524 51.9822 166.725C52.2076 166.934 52.5832 167.039 53.109 167.039H54.0856C54.6699 167.039 55.1248 166.947 55.4504 166.763C55.7759 166.587 55.9387 166.323 55.9387 165.972ZM53.5723 162.246C54.0731 162.246 54.4404 162.129 54.6741 161.895C54.9162 161.661 55.0372 161.351 55.0372 160.967V160.603C55.0372 160.218 54.9162 159.913 54.6741 159.687C54.4404 159.453 54.0731 159.336 53.5723 159.336C53.0715 159.336 52.7042 159.453 52.4705 159.687C52.2368 159.913 52.1199 160.218 52.1199 160.603V160.967C52.1199 161.351 52.2368 161.661 52.4705 161.895C52.7042 162.129 53.0715 162.246 53.5723 162.246Z" fill="#93949E"/>
<path d="M58.3252 164.329H60.2158V159.561H58.3252V158.708H61.2174V160.339H61.28C61.4136 159.829 61.664 159.432 62.0313 159.147C62.4069 158.855 62.8827 158.708 63.4586 158.708H64.3601V159.712H63.1456C62.5696 159.712 62.1022 159.879 61.7433 160.214C61.3927 160.548 61.2174 160.987 61.2174 161.531V164.329H63.7215V165.182H58.3252V164.329Z" fill="#93949E"/>
<path d="M71.0662 165.182C70.6738 165.182 70.3942 165.081 70.2273 164.881C70.0603 164.68 69.956 164.429 69.9143 164.128H69.8517C69.7098 164.504 69.4802 164.801 69.163 165.019C68.8542 165.228 68.4369 165.332 67.911 165.332C67.2349 165.332 66.6965 165.157 66.2959 164.805C65.8952 164.454 65.6949 163.973 65.6949 163.363C65.6949 162.761 65.9119 162.296 66.3459 161.97C66.7883 161.644 67.4978 161.481 68.4744 161.481H69.8517V160.841C69.8517 160.364 69.7181 160.009 69.451 159.775C69.1839 159.532 68.8041 159.411 68.3116 159.411C67.8776 159.411 67.5229 159.499 67.2474 159.674C66.972 159.842 66.7508 160.072 66.5838 160.364L65.9077 159.863C65.9912 159.695 66.1039 159.532 66.2458 159.373C66.3877 159.214 66.563 159.076 66.7716 158.959C66.9803 158.834 67.2182 158.738 67.4853 158.671C67.7524 158.595 68.0487 158.558 68.3743 158.558C69.1338 158.558 69.7348 158.75 70.1772 159.135C70.6279 159.52 70.8533 160.055 70.8533 160.741V164.304H71.7548V165.182H71.0662ZM68.0863 164.492C68.345 164.492 68.5788 164.463 68.7874 164.404C69.0044 164.337 69.1923 164.253 69.3509 164.153C69.5094 164.044 69.6305 163.919 69.7139 163.777C69.8058 163.626 69.8517 163.467 69.8517 163.3V162.234H68.4744C67.8734 162.234 67.4352 162.317 67.1598 162.485C66.8843 162.652 66.7466 162.894 66.7466 163.212V163.476C66.7466 163.81 66.8634 164.065 67.0972 164.241C67.3392 164.408 67.6689 164.492 68.0863 164.492Z" fill="#93949E"/>
<path d="M76.4451 165.182C75.9526 165.182 75.5895 165.044 75.3558 164.768C75.1304 164.492 75.0177 164.136 75.0177 163.701V159.561H72.8642V158.708H74.4668C74.6839 158.708 74.8341 158.667 74.9176 158.583C75.0094 158.491 75.0553 158.336 75.0553 158.119V156.425H76.0194V158.708H78.9617V159.561H76.0194V164.329H78.9617V165.182H76.4451Z" fill="#93949E"/>
<path d="M84.0401 157.278C83.748 157.278 83.5435 157.22 83.4266 157.103C83.3098 156.977 83.2513 156.822 83.2513 156.638V156.438C83.2513 156.254 83.3098 156.103 83.4266 155.986C83.5435 155.861 83.748 155.798 84.0401 155.798C84.3323 155.798 84.5368 155.861 84.6536 155.986C84.7705 156.103 84.8289 156.254 84.8289 156.438V156.638C84.8289 156.822 84.7705 156.977 84.6536 157.103C84.5368 157.22 84.3323 157.278 84.0401 157.278ZM81.2105 164.329H83.5393V159.561H81.2105V158.708H84.5409V164.329H86.7195V165.182H81.2105V164.329Z" fill="#93949E"/>
<path d="M91.1469 165.332C90.6961 165.332 90.2871 165.253 89.9199 165.094C89.5609 164.935 89.2521 164.709 88.9933 164.417C88.7429 164.115 88.5509 163.76 88.4174 163.35C88.2838 162.932 88.2171 162.464 88.2171 161.945C88.2171 161.435 88.2838 160.971 88.4174 160.553C88.5509 160.134 88.7429 159.779 88.9933 159.486C89.2521 159.185 89.5609 158.955 89.9199 158.796C90.2871 158.637 90.6961 158.558 91.1469 158.558C91.5976 158.558 92.0024 158.637 92.3613 158.796C92.7286 158.955 93.0375 159.185 93.2879 159.486C93.5466 159.779 93.7428 160.134 93.8763 160.553C94.0099 160.971 94.0766 161.435 94.0766 161.945C94.0766 162.464 94.0099 162.932 93.8763 163.35C93.7428 163.76 93.5466 164.115 93.2879 164.417C93.0375 164.709 92.7286 164.935 92.3613 165.094C92.0024 165.253 91.5976 165.332 91.1469 165.332ZM91.1469 164.467C91.7061 164.467 92.1568 164.299 92.4991 163.965C92.8413 163.63 93.0124 163.112 93.0124 162.409V161.481C93.0124 160.778 92.8413 160.26 92.4991 159.925C92.1568 159.591 91.7061 159.423 91.1469 159.423C90.5876 159.423 90.1369 159.591 89.7946 159.925C89.4524 160.26 89.2813 160.778 89.2813 161.481V162.409C89.2813 163.112 89.4524 163.63 89.7946 163.965C90.1369 164.299 90.5876 164.467 91.1469 164.467Z" fill="#93949E"/>
<path d="M96.1251 165.182V158.708H97.1268V159.762H97.1768C97.2436 159.603 97.3271 159.453 97.4273 159.311C97.5274 159.16 97.6484 159.03 97.7903 158.922C97.9406 158.813 98.1159 158.725 98.3162 158.658C98.5165 158.591 98.7502 158.558 99.0173 158.558C99.6935 158.558 100.236 158.775 100.645 159.21C101.054 159.637 101.259 160.243 101.259 161.029V165.182H100.257V161.205C100.257 160.611 100.128 160.172 99.8687 159.888C99.61 159.595 99.2302 159.449 98.7294 159.449C98.529 159.449 98.3329 159.474 98.1409 159.524C97.9489 159.574 97.7778 159.649 97.6276 159.75C97.4773 159.85 97.3563 159.98 97.2645 160.139C97.1727 160.297 97.1268 160.481 97.1268 160.691V165.182H96.1251Z" fill="#93949E"/>
<path d="M338.967 151.741C337.899 151.741 337.101 151.353 336.576 150.575C336.058 149.797 335.799 148.676 335.799 147.213C335.799 145.749 336.058 144.628 336.576 143.85C337.101 143.073 337.899 142.684 338.967 142.684C339.368 142.684 339.714 142.738 340.006 142.847C340.298 142.955 340.549 143.102 340.757 143.286C340.966 143.47 341.141 143.679 341.283 143.913C341.425 144.139 341.55 144.369 341.659 144.603L340.757 145.017C340.682 144.825 340.595 144.645 340.494 144.478C340.394 144.302 340.273 144.151 340.131 144.026C339.998 143.892 339.835 143.788 339.643 143.712C339.459 143.637 339.234 143.599 338.967 143.599C338.274 143.599 337.757 143.863 337.414 144.39C337.081 144.917 336.914 145.619 336.914 146.497V147.928C336.914 148.806 337.081 149.508 337.414 150.035C337.757 150.562 338.274 150.826 338.967 150.826C339.234 150.826 339.459 150.788 339.643 150.713C339.835 150.637 339.998 150.537 340.131 150.412C340.273 150.278 340.394 150.127 340.494 149.96C340.595 149.784 340.682 149.6 340.757 149.408L341.659 149.822C341.55 150.065 341.425 150.299 341.283 150.525C341.141 150.75 340.966 150.955 340.757 151.139C340.549 151.323 340.298 151.47 340.006 151.578C339.714 151.687 339.368 151.741 338.967 151.741Z" fill="#93949E"/>
<path d="M346.186 151.741C345.736 151.741 345.327 151.662 344.959 151.503C344.6 151.344 344.292 151.118 344.033 150.826C343.782 150.525 343.591 150.169 343.457 149.759C343.323 149.341 343.257 148.873 343.257 148.354C343.257 147.844 343.323 147.38 343.457 146.962C343.591 146.543 343.782 146.188 344.033 145.895C344.292 145.594 344.6 145.364 344.959 145.205C345.327 145.046 345.736 144.967 346.186 144.967C346.637 144.967 347.042 145.046 347.401 145.205C347.768 145.364 348.077 145.594 348.327 145.895C348.586 146.188 348.782 146.543 348.916 146.962C349.049 147.38 349.116 147.844 349.116 148.354C349.116 148.873 349.049 149.341 348.916 149.759C348.782 150.169 348.586 150.525 348.327 150.826C348.077 151.118 347.768 151.344 347.401 151.503C347.042 151.662 346.637 151.741 346.186 151.741ZM346.186 150.876C346.746 150.876 347.196 150.709 347.539 150.374C347.881 150.039 348.052 149.521 348.052 148.818V147.89C348.052 147.187 347.881 146.669 347.539 146.334C347.196 146 346.746 145.833 346.186 145.833C345.627 145.833 345.176 146 344.834 146.334C344.492 146.669 344.321 147.187 344.321 147.89V148.818C344.321 149.521 344.492 150.039 344.834 150.374C345.176 150.709 345.627 150.876 346.186 150.876Z" fill="#93949E"/>
<path d="M351.165 151.591V145.117H352.166V146.171H352.216C352.283 146.012 352.367 145.862 352.467 145.72C352.567 145.569 352.688 145.439 352.83 145.331C352.98 145.222 353.155 145.134 353.356 145.067C353.556 145 353.79 144.967 354.057 144.967C354.733 144.967 355.276 145.184 355.685 145.619C356.094 146.046 356.298 146.652 356.298 147.438V151.591H355.296V147.614C355.296 147.02 355.167 146.581 354.908 146.297C354.65 146.004 354.27 145.858 353.769 145.858C353.569 145.858 353.372 145.883 353.18 145.933C352.989 145.983 352.817 146.058 352.667 146.159C352.517 146.259 352.396 146.389 352.304 146.548C352.212 146.707 352.166 146.891 352.166 147.1V151.591H351.165Z" fill="#93949E"/>
<path d="M361.514 151.591C361.022 151.591 360.659 151.453 360.425 151.177C360.2 150.901 360.087 150.545 360.087 150.111V145.971H357.933V145.117H359.536C359.753 145.117 359.903 145.076 359.987 144.992C360.079 144.9 360.124 144.745 360.124 144.528V142.834H361.089V145.117H364.031V145.971H361.089V150.738H364.031V151.591H361.514Z" fill="#93949E"/>
<path d="M369.109 143.687C368.817 143.687 368.613 143.629 368.496 143.512C368.379 143.386 368.32 143.231 368.32 143.047V142.847C368.32 142.663 368.379 142.512 368.496 142.395C368.613 142.27 368.817 142.207 369.109 142.207C369.401 142.207 369.606 142.27 369.723 142.395C369.84 142.512 369.898 142.663 369.898 142.847V143.047C369.898 143.231 369.84 143.386 369.723 143.512C369.606 143.629 369.401 143.687 369.109 143.687ZM366.28 150.738H368.608V145.971H366.28V145.117H369.61V150.738H371.789V151.591H366.28V150.738Z" fill="#93949E"/>
<path d="M373.687 151.591V145.117H374.689V146.171H374.739C374.805 146.012 374.889 145.862 374.989 145.72C375.089 145.569 375.21 145.439 375.352 145.331C375.502 145.222 375.678 145.134 375.878 145.067C376.078 145 376.312 144.967 376.579 144.967C377.255 144.967 377.798 145.184 378.207 145.619C378.616 146.046 378.82 146.652 378.82 147.438V151.591H377.819V147.614C377.819 147.02 377.689 146.581 377.431 146.297C377.172 146.004 376.792 145.858 376.291 145.858C376.091 145.858 375.895 145.883 375.703 145.933C375.511 145.983 375.34 146.058 375.189 146.159C375.039 146.259 374.918 146.389 374.826 146.548C374.734 146.707 374.689 146.891 374.689 147.1V151.591H373.687Z" fill="#93949E"/>
<path d="M385.251 150.537H385.201C385.134 150.696 385.051 150.851 384.95 151.001C384.85 151.143 384.725 151.269 384.575 151.378C384.433 151.486 384.262 151.574 384.061 151.641C383.861 151.708 383.627 151.741 383.36 151.741C382.684 151.741 382.142 151.528 381.733 151.102C381.324 150.667 381.119 150.056 381.119 149.27V145.117H382.121V149.094C382.121 149.688 382.25 150.131 382.509 150.424C382.768 150.709 383.147 150.851 383.648 150.851C383.849 150.851 384.045 150.826 384.237 150.775C384.429 150.725 384.6 150.65 384.75 150.55C384.9 150.449 385.021 150.324 385.113 150.173C385.205 150.014 385.251 149.826 385.251 149.609V145.117H386.253V151.591H385.251V150.537Z" fill="#93949E"/>
<path d="M391.231 151.741C390.78 151.741 390.371 151.662 390.004 151.503C389.645 151.344 389.336 151.118 389.077 150.826C388.827 150.525 388.635 150.169 388.501 149.759C388.368 149.341 388.301 148.873 388.301 148.354C388.301 147.844 388.368 147.38 388.501 146.962C388.635 146.543 388.827 146.188 389.077 145.895C389.336 145.594 389.645 145.364 390.004 145.205C390.371 145.046 390.78 144.967 391.231 144.967C391.682 144.967 392.086 145.046 392.445 145.205C392.813 145.364 393.121 145.594 393.372 145.895C393.631 146.188 393.827 146.543 393.96 146.962C394.094 147.38 394.161 147.844 394.161 148.354C394.161 148.873 394.094 149.341 393.96 149.759C393.827 150.169 393.631 150.525 393.372 150.826C393.121 151.118 392.813 151.344 392.445 151.503C392.086 151.662 391.682 151.741 391.231 151.741ZM391.231 150.876C391.79 150.876 392.241 150.709 392.583 150.374C392.925 150.039 393.096 149.521 393.096 148.818V147.89C393.096 147.187 392.925 146.669 392.583 146.334C392.241 146 391.79 145.833 391.231 145.833C390.672 145.833 390.221 146 389.879 146.334C389.536 146.669 389.365 147.187 389.365 147.89V148.818C389.365 149.521 389.536 150.039 389.879 150.374C390.221 150.709 390.672 150.876 391.231 150.876Z" fill="#93949E"/>
<path d="M400.266 150.537H400.216C400.149 150.696 400.065 150.851 399.965 151.001C399.865 151.143 399.74 151.269 399.59 151.378C399.448 151.486 399.277 151.574 399.076 151.641C398.876 151.708 398.642 151.741 398.375 151.741C397.699 151.741 397.156 151.528 396.747 151.102C396.338 150.667 396.134 150.056 396.134 149.27V145.117H397.136V149.094C397.136 149.688 397.265 150.131 397.524 150.424C397.782 150.709 398.162 150.851 398.663 150.851C398.863 150.851 399.06 150.826 399.252 150.775C399.444 150.725 399.615 150.65 399.765 150.55C399.915 150.449 400.036 150.324 400.128 150.173C400.22 150.014 400.266 149.826 400.266 149.609V145.117H401.267V151.591H400.266V150.537Z" fill="#93949E"/>
<path d="M406.321 151.741C405.645 151.741 405.06 151.629 404.568 151.403C404.084 151.169 403.671 150.859 403.328 150.474L404.004 149.885C404.313 150.211 404.651 150.462 405.019 150.637C405.386 150.813 405.828 150.901 406.346 150.901C406.847 150.901 407.256 150.813 407.573 150.637C407.898 150.453 408.061 150.169 408.061 149.784C408.061 149.617 408.028 149.479 407.961 149.37C407.902 149.253 407.819 149.161 407.711 149.094C407.602 149.027 407.481 148.977 407.347 148.944C407.214 148.902 407.072 148.869 406.922 148.843L405.908 148.693C405.682 148.659 405.436 148.613 405.169 148.555C404.91 148.496 404.672 148.404 404.455 148.279C404.238 148.145 404.055 147.969 403.904 147.752C403.762 147.535 403.691 147.25 403.691 146.899C403.691 146.573 403.754 146.293 403.879 146.058C404.013 145.816 404.196 145.615 404.43 145.456C404.664 145.289 404.939 145.168 405.256 145.092C405.574 145.009 405.92 144.967 406.296 144.967C406.88 144.967 407.385 145.059 407.811 145.243C408.245 145.427 408.616 145.682 408.925 146.008L408.274 146.623C408.199 146.531 408.103 146.439 407.986 146.347C407.877 146.247 407.74 146.159 407.573 146.083C407.414 146 407.226 145.933 407.009 145.883C406.792 145.833 406.542 145.807 406.258 145.807C405.749 145.807 405.357 145.895 405.081 146.071C404.814 146.247 404.681 146.502 404.681 146.836C404.681 147.003 404.71 147.146 404.768 147.263C404.835 147.371 404.923 147.459 405.031 147.526C405.14 147.593 405.261 147.647 405.394 147.689C405.536 147.723 405.678 147.752 405.82 147.777L406.834 147.928C407.068 147.961 407.314 148.007 407.573 148.066C407.832 148.124 408.069 148.22 408.286 148.354C408.503 148.48 408.683 148.651 408.825 148.869C408.975 149.086 409.05 149.37 409.05 149.722C409.05 150.366 408.8 150.863 408.299 151.215C407.807 151.566 407.147 151.741 406.321 151.741Z" fill="#93949E"/>
<path d="M336.112 159.561H338.554C339.622 159.561 340.419 159.929 340.945 160.665C341.471 161.401 341.734 162.493 341.734 163.94C341.734 165.387 341.471 166.478 340.945 167.214C340.419 167.95 339.622 168.318 338.554 168.318H336.112V159.561ZM338.504 167.402C339.205 167.402 339.731 167.16 340.081 166.675C340.44 166.19 340.62 165.504 340.62 164.617V163.262C340.62 162.376 340.44 161.69 340.081 161.205C339.731 160.72 339.205 160.477 338.504 160.477H337.164V167.402H338.504Z" fill="#93949E"/>
<path d="M346.299 168.469C345.832 168.469 345.41 168.389 345.035 168.23C344.667 168.071 344.35 167.846 344.083 167.553C343.824 167.252 343.624 166.896 343.482 166.487C343.34 166.068 343.269 165.604 343.269 165.094C343.269 164.575 343.34 164.107 343.482 163.689C343.632 163.271 343.837 162.915 344.096 162.623C344.354 162.321 344.663 162.091 345.022 161.933C345.389 161.774 345.794 161.694 346.237 161.694C346.671 161.694 347.063 161.774 347.413 161.933C347.772 162.091 348.077 162.313 348.327 162.597C348.578 162.873 348.77 163.204 348.903 163.589C349.037 163.973 349.104 164.396 349.104 164.856V165.332H344.321V165.633C344.321 165.918 344.367 166.181 344.459 166.424C344.55 166.666 344.68 166.875 344.847 167.051C345.022 167.227 345.231 167.365 345.473 167.465C345.723 167.557 345.999 167.603 346.299 167.603C346.733 167.603 347.109 167.503 347.426 167.302C347.743 167.101 347.985 166.825 348.152 166.474L348.891 166.976C348.699 167.411 348.378 167.77 347.927 168.055C347.484 168.331 346.942 168.469 346.299 168.469ZM346.237 162.522C345.961 162.522 345.706 162.572 345.473 162.673C345.239 162.773 345.035 162.911 344.859 163.087C344.692 163.262 344.559 163.471 344.459 163.714C344.367 163.948 344.321 164.207 344.321 164.492V164.58H348.027V164.442C348.027 164.157 347.981 163.898 347.889 163.664C347.806 163.43 347.685 163.229 347.526 163.062C347.376 162.886 347.188 162.752 346.963 162.66C346.746 162.568 346.504 162.522 346.237 162.522Z" fill="#93949E"/>
<path d="M350.939 167.465H353.193V159.888H350.939V159.035H354.195V167.465H356.448V168.318H350.939V167.465Z" fill="#93949E"/>
<path d="M361.602 160.415C361.31 160.415 361.105 160.356 360.988 160.239C360.872 160.113 360.813 159.959 360.813 159.775V159.574C360.813 159.39 360.872 159.239 360.988 159.122C361.105 158.997 361.31 158.934 361.602 158.934C361.894 158.934 362.099 158.997 362.215 159.122C362.332 159.239 362.391 159.39 362.391 159.574V159.775C362.391 159.959 362.332 160.113 362.215 160.239C362.099 160.356 361.894 160.415 361.602 160.415ZM358.772 167.465H361.101V162.698H358.772V161.845H362.103V167.465H364.281V168.318H358.772V167.465Z" fill="#93949E"/>
<path d="M368.07 168.318L365.754 161.845H366.768L367.694 164.555L368.696 167.478H368.746L369.748 164.555L370.674 161.845H371.663L369.347 168.318H368.07Z" fill="#93949E"/>
<path d="M376.329 168.469C375.861 168.469 375.44 168.389 375.064 168.23C374.697 168.071 374.38 167.846 374.113 167.553C373.854 167.252 373.653 166.896 373.512 166.487C373.37 166.068 373.299 165.604 373.299 165.094C373.299 164.575 373.37 164.107 373.512 163.689C373.662 163.271 373.866 162.915 374.125 162.623C374.384 162.321 374.693 162.091 375.052 161.933C375.419 161.774 375.824 161.694 376.266 161.694C376.7 161.694 377.092 161.774 377.443 161.933C377.802 162.091 378.107 162.313 378.357 162.597C378.607 162.873 378.799 163.204 378.933 163.589C379.067 163.973 379.133 164.396 379.133 164.856V165.332H374.35V165.633C374.35 165.918 374.396 166.181 374.488 166.424C374.58 166.666 374.709 166.875 374.876 167.051C375.052 167.227 375.26 167.365 375.502 167.465C375.753 167.557 376.028 167.603 376.329 167.603C376.763 167.603 377.138 167.503 377.456 167.302C377.773 167.101 378.015 166.825 378.182 166.474L378.92 166.976C378.728 167.411 378.407 167.77 377.956 168.055C377.514 168.331 376.971 168.469 376.329 168.469ZM376.266 162.522C375.991 162.522 375.736 162.572 375.502 162.673C375.269 162.773 375.064 162.911 374.889 163.087C374.722 163.262 374.588 163.471 374.488 163.714C374.396 163.948 374.35 164.207 374.35 164.492V164.58H378.057V164.442C378.057 164.157 378.011 163.898 377.919 163.664C377.835 163.43 377.714 163.229 377.556 163.062C377.405 162.886 377.218 162.752 376.992 162.66C376.775 162.568 376.533 162.522 376.266 162.522Z" fill="#93949E"/>
<path d="M380.931 167.465H382.822V162.698H380.931V161.845H383.824V163.476H383.886C384.02 162.965 384.27 162.568 384.637 162.284C385.013 161.991 385.489 161.845 386.065 161.845H386.966V162.848H385.752C385.176 162.848 384.708 163.016 384.349 163.35C383.999 163.685 383.824 164.124 383.824 164.667V167.465H386.328V168.318H380.931V167.465Z" fill="#93949E"/>
<path d="M393.322 161.845H394.323L391.118 169.736C391.043 169.92 390.96 170.079 390.868 170.213C390.776 170.355 390.667 170.468 390.542 170.551C390.417 170.643 390.267 170.71 390.091 170.752C389.916 170.802 389.707 170.827 389.465 170.827H388.514V169.974H390.016L390.743 168.193L388.138 161.845H389.165L390.254 164.555L391.218 167.013H391.268L392.232 164.555L393.322 161.845Z" fill="#93949E"/>
<defs>
<clipPath id="clip0_7797_326360">
<path d="M0 80.4545C0 79.9022 0.447715 79.4545 1 79.4545H433V103.5H0.999988C0.447703 103.5 0 103.052 0 102.5V80.4545Z" fill="white"/>
</clipPath>
</defs>
</svg>
