<svg width="463" height="310" viewBox="0 0 463 310" fill="none" xmlns="http://www.w3.org/2000/svg">
<rect width="170" height="30" transform="translate(286 1)" fill="white"/>
<path opacity="0.35" d="M433.082 14.0531H439.397C440.594 14.0531 441.564 15.0232 441.564 16.2198V16.885C441.564 18.0816 440.594 19.0516 439.397 19.0516H433.082C431.885 19.0516 430.915 18.0816 430.915 16.885V16.2198C430.915 15.0232 431.885 14.0531 433.082 14.0531Z" fill="#93949E" stroke="#667080"/>
<path opacity="0.4" d="M442.594 15.4937V17.6108C443.02 17.4315 443.297 17.0143 443.297 16.5522C443.297 16.0901 443.02 15.673 442.594 15.4937" fill="#93949E"/>
<path d="M431.474 15.7118C431.474 15.1043 431.967 14.6118 432.574 14.6118H439.905C440.513 14.6118 441.005 15.1043 441.005 15.7118V17.3932C441.005 18.0007 440.513 18.4932 439.905 18.4932H432.574C431.967 18.4932 431.474 18.0007 431.474 17.3932V15.7118Z" fill="#93949E"/>
<path fill-rule="evenodd" clip-rule="evenodd" d="M423.706 14.757C424.88 14.757 426.008 15.2077 426.858 16.0158C426.922 16.0782 427.025 16.0774 427.088 16.014L427.7 15.3965C427.732 15.3644 427.75 15.3209 427.749 15.2756C427.749 15.2303 427.731 15.1869 427.699 15.1552C425.467 13.0171 421.946 13.0171 419.714 15.1552C419.681 15.1869 419.663 15.2302 419.663 15.2755C419.663 15.3208 419.68 15.3644 419.712 15.3965L420.325 16.014C420.388 16.0775 420.49 16.0783 420.554 16.0158C421.404 15.2076 422.533 14.757 423.706 14.757ZM423.706 16.766C424.351 16.7659 424.973 17.0054 425.451 17.438C425.515 17.4994 425.617 17.498 425.68 17.435L426.291 16.8175C426.324 16.7851 426.341 16.7411 426.341 16.6955C426.341 16.6498 426.322 16.6063 426.289 16.5745C424.834 15.2215 422.58 15.2215 421.125 16.5745C421.092 16.6063 421.073 16.6498 421.073 16.6955C421.073 16.7412 421.091 16.7851 421.123 16.8175L421.734 17.435C421.797 17.498 421.899 17.4994 421.963 17.438C422.441 17.0057 423.062 16.7662 423.706 16.766ZM424.931 18.1176C424.932 18.1634 424.914 18.2076 424.881 18.2397L423.824 19.3065C423.793 19.3379 423.75 19.3555 423.706 19.3555C423.662 19.3555 423.62 19.3379 423.589 19.3065L422.531 18.2397C422.499 18.2076 422.481 18.1634 422.482 18.1176C422.483 18.0718 422.502 18.0285 422.536 17.9978C423.212 17.4267 424.201 17.4267 424.876 17.9978C424.91 18.0285 424.93 18.0719 424.931 18.1176Z" fill="#93949E"/>
<path fill-rule="evenodd" clip-rule="evenodd" d="M416.472 13.7294H415.942C415.65 13.7294 415.413 13.9663 415.413 14.2587V18.8458C415.413 19.1381 415.65 19.375 415.942 19.375H416.472C416.764 19.375 417.001 19.1381 417.001 18.8458V14.2587C417.001 13.9663 416.764 13.7294 416.472 13.7294ZM413.471 14.9644H414.001C414.293 14.9644 414.53 15.2013 414.53 15.4936V18.8458C414.53 19.1381 414.293 19.375 414.001 19.375H413.471C413.179 19.375 412.942 19.1381 412.942 18.8458V15.4936C412.942 15.2013 413.179 14.9644 413.471 14.9644ZM411.53 16.1993H411C410.708 16.1993 410.471 16.4363 410.471 16.7286V18.8458C410.471 19.1381 410.708 19.375 411 19.375H411.53C411.822 19.375 412.059 19.1381 412.059 18.8458V16.7286C412.059 16.4363 411.822 16.1993 411.53 16.1993ZM409.059 17.2579H408.529C408.237 17.2579 408 17.4949 408 17.7872V18.8458C408 19.1381 408.237 19.375 408.529 19.375H409.059C409.351 19.375 409.588 19.1381 409.588 18.8458V17.7872C409.588 17.4949 409.351 17.2579 409.059 17.2579Z" fill="#93949E"/>
<path fill-rule="evenodd" clip-rule="evenodd" d="M404.761 1H336.282H333.408H332.93C333.096 1 333.255 1.00505 333.408 1.01527C333.417 9.46803 340.272 16.3178 348.726 16.3178H392.795C401.255 16.3178 408.113 9.45978 408.113 1H404.761Z" fill="white"/>
<rect x="304" y="14" width="12.25" height="6" fill="#93949E"/>
<rect width="170" height="278" transform="translate(286 31)" fill="#F6F5F4"/>
<rect x="301" y="102" width="140" height="50" rx="4" fill="white"/>
<path d="M347.92 120.18H349.76V121.62C349.29 121.98 348.64 122.19 348.06 122.19C346.68 122.19 345.52 120.99 345.52 119.56C345.52 118.14 346.68 116.94 348.06 116.94C348.77 116.94 349.58 117.26 350.05 117.77L350.76 117.09C350.11 116.42 349.03 116.01 348.06 116.01C346.13 116.01 344.48 117.63 344.48 119.56C344.48 121.49 346.13 123.12 348.06 123.12C349.03 123.12 350.11 122.7 350.76 122.04V119.3H347.92V120.18ZM354.531 122.24C353.641 122.24 353.011 121.62 352.881 120.76H356.951C356.951 118.91 356.041 117.71 354.461 117.71C353.031 117.71 351.881 118.85 351.881 120.4C351.881 121.99 353.101 123.12 354.541 123.12C355.271 123.12 356.171 122.81 356.631 122.32L356.011 121.68C355.701 122 355.071 122.24 354.531 122.24ZM354.501 118.59C355.391 118.59 355.881 119.17 355.991 119.97H352.891C353.051 119.13 353.701 118.59 354.501 118.59ZM360.519 122.07C360.409 122.18 360.209 122.26 359.989 122.26C359.699 122.26 359.459 122 359.459 121.64V118.67H360.679V117.83H359.459V116.41H358.489V117.83H357.709V118.67H358.489V121.71C358.489 122.54 359.049 123.12 359.849 123.12C360.219 123.12 360.599 122.98 360.879 122.75L360.519 122.07ZM365.239 116.97C365.559 116.97 365.829 116.69 365.829 116.37C365.829 116.06 365.559 115.78 365.239 115.78C364.899 115.78 364.639 116.06 364.639 116.37C364.639 116.69 364.899 116.97 365.239 116.97ZM364.739 123H365.729V117.83H364.739V123ZM369.581 122.07C369.471 122.18 369.271 122.26 369.051 122.26C368.761 122.26 368.521 122 368.521 121.64V118.67H369.741V117.83H368.521V116.41H367.551V117.83H366.771V118.67H367.551V121.71C367.551 122.54 368.111 123.12 368.911 123.12C369.281 123.12 369.661 122.98 369.941 122.75L369.581 122.07ZM377.142 123.12C379.072 123.12 380.692 121.49 380.692 119.56C380.692 117.63 379.072 116.01 377.142 116.01C375.212 116.01 373.572 117.63 373.572 119.56C373.572 121.49 375.212 123.12 377.142 123.12ZM377.142 122.19C375.772 122.19 374.612 120.99 374.612 119.56C374.612 118.14 375.772 116.94 377.142 116.94C378.512 116.94 379.662 118.14 379.662 119.56C379.662 120.99 378.512 122.19 377.142 122.19ZM384.528 117.71C383.828 117.71 383.198 118.07 382.888 118.58V117.83H381.898V123H382.888V119.65C382.968 119.04 383.588 118.57 384.308 118.57C385.008 118.57 385.498 119.11 385.498 119.88V123H386.468V119.71C386.468 118.54 385.668 117.71 384.528 117.71Z" fill="#0B0E29"/>
<path d="M349.362 132.206H351.602V133.676C351.056 134.068 350.384 134.292 349.726 134.292C348.088 134.292 346.702 132.864 346.702 131.184C346.702 129.518 348.088 128.09 349.726 128.09C350.608 128.09 351.546 128.51 352.12 129.168L353.618 127.824C352.652 126.816 351.168 126.214 349.726 126.214C346.94 126.214 344.574 128.482 344.574 131.184C344.574 133.886 346.94 136.168 349.726 136.168C351.168 136.168 352.652 135.566 353.618 134.558V130.596H349.362V132.206ZM358.856 136.168C360.998 136.168 362.79 134.432 362.79 132.374C362.79 130.316 360.998 128.594 358.856 128.594C356.7 128.594 354.894 130.316 354.894 132.374C354.894 134.432 356.7 136.168 358.856 136.168ZM358.856 134.446C357.764 134.446 356.854 133.494 356.854 132.374C356.854 131.254 357.764 130.316 358.856 130.316C359.934 130.316 360.844 131.254 360.844 132.374C360.844 133.494 359.934 134.446 358.856 134.446ZM367.729 136.168C369.871 136.168 371.663 134.432 371.663 132.374C371.663 130.316 369.871 128.594 367.729 128.594C365.573 128.594 363.767 130.316 363.767 132.374C363.767 134.432 365.573 136.168 367.729 136.168ZM367.729 134.446C366.637 134.446 365.727 133.494 365.727 132.374C365.727 131.254 366.637 130.316 367.729 130.316C368.807 130.316 369.717 131.254 369.717 132.374C369.717 133.494 368.807 134.446 367.729 134.446ZM378.282 128.762V129.742C377.792 129.056 376.868 128.594 375.888 128.594C374.068 128.594 372.682 130.008 372.682 132.024C372.682 134.04 374.068 135.468 375.888 135.468C376.84 135.468 377.708 135.048 378.282 134.348V135.146C378.282 136.084 377.442 136.686 376.126 136.686C375.286 136.686 374.446 136.42 373.97 136L373.256 137.442C373.97 138.002 375.174 138.408 376.448 138.408C378.73 138.408 380.34 137.092 380.34 135.23V128.762H378.282ZM376.532 133.746C375.51 133.746 374.782 133.032 374.782 132.024C374.782 131.016 375.51 130.316 376.532 130.316C377.554 130.316 378.282 131.016 378.282 132.024C378.282 133.032 377.554 133.746 376.532 133.746ZM382.138 136H384.182V126.214H382.138V136ZM389.382 134.362C388.528 134.362 387.898 133.83 387.66 133.046H392.882C392.882 130.316 391.552 128.594 389.284 128.594C387.17 128.594 385.56 130.176 385.56 132.36C385.56 134.586 387.24 136.168 389.396 136.168C390.46 136.168 391.706 135.72 392.35 135.048L391.048 133.718C390.656 134.096 389.956 134.362 389.382 134.362ZM389.368 130.4C390.194 130.4 390.726 130.862 390.922 131.576H387.688C387.954 130.848 388.598 130.4 389.368 130.4ZM398.231 136H400.289V132.878H402.557C404.643 132.878 406.183 131.534 406.183 129.63C406.183 127.726 404.643 126.382 402.557 126.382H398.231V136ZM400.289 130.988V128.272H402.333C403.355 128.272 404.055 128.804 404.055 129.63C404.055 130.456 403.355 130.988 402.333 130.988H400.289ZM407.417 136H409.461V126.214H407.417V136ZM414.48 128.594C413.472 128.594 412.478 128.874 411.456 129.392L412.142 130.75C412.716 130.456 413.346 130.232 414.018 130.232C415.208 130.232 415.684 130.904 415.684 131.674V131.814C415.068 131.576 414.424 131.45 413.836 131.45C412.156 131.45 410.826 132.43 410.826 133.858C410.826 135.244 412.016 136.168 413.556 136.168C414.34 136.168 415.166 135.86 415.684 135.272V136H417.658V131.674C417.658 129.784 416.37 128.594 414.48 128.594ZM414.018 134.754C413.318 134.754 412.8 134.39 412.8 133.802C412.8 133.214 413.388 132.78 414.13 132.78C414.69 132.78 415.222 132.878 415.684 133.046V133.718C415.544 134.39 414.802 134.754 414.018 134.754ZM421.032 138.52C422.166 138.52 423.09 137.778 423.636 136.364L426.604 128.762H424.518L422.712 133.844L420.808 128.762H418.694L421.704 136.07L421.452 136.602C421.298 136.868 420.99 136.994 420.598 136.994C420.36 136.994 419.996 136.868 419.646 136.672L419.212 138.072C419.702 138.338 420.43 138.52 421.032 138.52Z" fill="#0B0E29"/>
<g filter="url(#filter0_ii_7826_349323)">
<path d="M314.463 114.397C314.172 114.705 314 115.183 314 115.802V137.918C314 138.538 314.172 139.015 314.463 139.323L314.537 139.395L326.926 127.006V126.86V126.714L314.537 114.324L314.463 114.397Z" fill="url(#paint0_linear_7826_349323)"/>
<path d="M331.055 131.137L326.926 127.006V126.86V126.714L331.056 122.584L331.149 122.637L336.042 125.417C337.439 126.211 337.439 127.51 336.042 128.305L331.149 131.085L331.055 131.137Z" fill="url(#paint1_linear_7826_349323)"/>
<g filter="url(#filter1_i_7826_349323)">
<path d="M331.149 131.084L326.925 126.86L314.463 139.323C314.923 139.811 315.684 139.871 316.541 139.385L331.149 131.084Z" fill="url(#paint2_linear_7826_349323)"/>
</g>
<path d="M331.149 122.636L316.541 114.336C315.684 113.849 314.923 113.91 314.463 114.398L326.926 126.861L331.149 122.636Z" fill="url(#paint3_linear_7826_349323)"/>
</g>
<rect x="301" y="168" width="140" height="50" rx="4" fill="white"/>
<path d="M331.797 193.58C331.819 191.899 332.722 190.309 334.154 189.428C333.25 188.138 331.737 187.32 330.163 187.271C328.483 187.094 326.856 188.275 326 188.275C325.128 188.275 323.81 187.288 322.391 187.317C320.542 187.377 318.818 188.428 317.918 190.045C315.984 193.394 317.427 198.315 319.28 201.021C320.206 202.347 321.29 203.827 322.707 203.775C324.094 203.717 324.612 202.89 326.287 202.89C327.945 202.89 328.431 203.775 329.878 203.741C331.366 203.717 332.304 202.41 333.198 201.072C333.864 200.128 334.377 199.084 334.717 197.98C332.967 197.24 331.799 195.479 331.797 193.58Z" fill="#0B0E29"/>
<path d="M329.066 185.491C329.877 184.516 330.277 183.264 330.18 182C328.94 182.13 327.795 182.723 326.973 183.66C326.168 184.575 325.75 185.805 325.829 187.021C327.069 187.034 328.288 186.457 329.066 185.491Z" fill="#0B0E29"/>
<path d="M342.87 189H345.24C347.46 189 349.04 187.57 349.04 185.56C349.04 183.55 347.46 182.13 345.24 182.13H342.87V189ZM343.88 188.08V183.05H345.3C346.89 183.05 348 184.09 348 185.56C348 187.04 346.89 188.08 345.3 188.08H343.88ZM352.787 189.12C354.257 189.12 355.497 187.88 355.497 186.41C355.497 184.94 354.257 183.71 352.787 183.71C351.307 183.71 350.057 184.94 350.057 186.41C350.057 187.88 351.307 189.12 352.787 189.12ZM352.787 188.26C351.837 188.26 351.047 187.42 351.047 186.41C351.047 185.41 351.837 184.57 352.787 184.57C353.717 184.57 354.507 185.41 354.507 186.41C354.507 187.42 353.717 188.26 352.787 188.26ZM357.751 189H358.661L359.911 185.16L361.151 189H362.061L363.801 183.83H362.791L361.611 187.68L360.331 183.83H359.491L358.211 187.68L357.021 183.83H356.011L357.751 189ZM367.43 183.71C366.73 183.71 366.1 184.07 365.79 184.58V183.83H364.8V189H365.79V185.65C365.87 185.04 366.49 184.57 367.21 184.57C367.91 184.57 368.4 185.11 368.4 185.88V189H369.37V185.71C369.37 184.54 368.57 183.71 367.43 183.71ZM370.786 189H371.766V182.01H370.786V189ZM375.658 189.12C377.128 189.12 378.368 187.88 378.368 186.41C378.368 184.94 377.128 183.71 375.658 183.71C374.178 183.71 372.928 184.94 372.928 186.41C372.928 187.88 374.178 189.12 375.658 189.12ZM375.658 188.26C374.708 188.26 373.918 187.42 373.918 186.41C373.918 185.41 374.708 184.57 375.658 184.57C376.588 184.57 377.378 185.41 377.378 186.41C377.378 187.42 376.588 188.26 375.658 188.26ZM381.697 183.71C381.127 183.71 380.477 183.86 379.737 184.23L380.097 184.96C380.547 184.73 381.047 184.53 381.557 184.53C382.587 184.53 382.887 185.22 382.887 185.87V186.03C382.387 185.86 381.837 185.75 381.327 185.75C380.187 185.75 379.257 186.44 379.257 187.47C379.257 188.48 380.067 189.12 381.167 189.12C381.797 189.12 382.507 188.83 382.887 188.29V189H383.857V185.87C383.857 184.59 383.087 183.71 381.697 183.71ZM381.357 188.34C380.707 188.34 380.207 188 380.207 187.44C380.207 186.88 380.787 186.49 381.477 186.49C381.987 186.49 382.467 186.56 382.887 186.69V187.38C382.717 188.02 381.997 188.34 381.357 188.34ZM389.268 182.01V184.72C388.868 184.09 388.228 183.71 387.428 183.71C386.068 183.71 385.048 184.83 385.048 186.41C385.048 188 386.068 189.12 387.428 189.12C388.228 189.12 388.868 188.74 389.268 188.1V189H390.248V182.01H389.268ZM387.668 188.26C386.718 188.26 386.048 187.49 386.048 186.41C386.048 185.33 386.718 184.57 387.668 184.57C388.598 184.57 389.268 185.33 389.268 186.41C389.268 187.49 388.598 188.26 387.668 188.26ZM397.045 189.12C398.515 189.12 399.755 187.88 399.755 186.41C399.755 184.94 398.515 183.71 397.045 183.71C395.565 183.71 394.315 184.94 394.315 186.41C394.315 187.88 395.565 189.12 397.045 189.12ZM397.045 188.26C396.095 188.26 395.305 187.42 395.305 186.41C395.305 185.41 396.095 184.57 397.045 184.57C397.975 184.57 398.765 185.41 398.765 186.41C398.765 187.42 397.975 188.26 397.045 188.26ZM403.543 183.71C402.843 183.71 402.213 184.07 401.903 184.58V183.83H400.913V189H401.903V185.65C401.983 185.04 402.603 184.57 403.323 184.57C404.023 184.57 404.513 185.11 404.513 185.88V189H405.483V185.71C405.483 184.54 404.683 183.71 403.543 183.71ZM412.181 188.07C412.071 188.18 411.871 188.26 411.651 188.26C411.361 188.26 411.121 188 411.121 187.64V184.67H412.341V183.83H411.121V182.41H410.151V183.83H409.371V184.67H410.151V187.71C410.151 188.54 410.711 189.12 411.511 189.12C411.881 189.12 412.261 188.98 412.541 188.75L412.181 188.07ZM416.18 183.71C415.47 183.71 414.84 184.08 414.53 184.6V182.01H413.55V189H414.53V185.79C414.53 185.12 415.18 184.57 415.96 184.57C416.66 184.57 417.15 185.11 417.15 185.88V189H418.12V185.71C418.12 184.54 417.32 183.71 416.18 183.71ZM421.906 188.24C421.016 188.24 420.386 187.62 420.256 186.76H424.326C424.326 184.91 423.416 183.71 421.836 183.71C420.406 183.71 419.256 184.85 419.256 186.4C419.256 187.99 420.476 189.12 421.916 189.12C422.646 189.12 423.546 188.81 424.006 188.32L423.386 187.68C423.076 188 422.446 188.24 421.906 188.24ZM421.876 184.59C422.766 184.59 423.256 185.17 423.366 185.97H420.266C420.426 185.13 421.076 184.59 421.876 184.59Z" fill="#0B0E29"/>
<path d="M350.008 202H352.332L348.412 192.382H346.102L342.182 202H344.492L345.108 200.488H349.392L350.008 202ZM345.822 198.738L347.25 195.224L348.678 198.738H345.822ZM357.876 194.594C356.868 194.594 356.028 195.028 355.454 195.77V194.762H353.41V204.408H355.454V200.978C356.028 201.734 356.868 202.168 357.876 202.168C359.808 202.168 361.208 200.6 361.208 198.374C361.208 196.162 359.808 194.594 357.876 194.594ZM357.288 200.446C356.294 200.446 355.566 199.718 355.454 198.654V198.094C355.566 197.044 356.294 196.316 357.288 196.316C358.422 196.316 359.22 197.17 359.22 198.374C359.22 199.592 358.422 200.446 357.288 200.446ZM367.118 194.594C366.11 194.594 365.27 195.028 364.696 195.77V194.762H362.652V204.408H364.696V200.978C365.27 201.734 366.11 202.168 367.118 202.168C369.05 202.168 370.45 200.6 370.45 198.374C370.45 196.162 369.05 194.594 367.118 194.594ZM366.53 200.446C365.536 200.446 364.808 199.718 364.696 198.654V198.094C364.808 197.044 365.536 196.316 366.53 196.316C367.664 196.316 368.462 197.17 368.462 198.374C368.462 199.592 367.664 200.446 366.53 200.446ZM379.5 202.168C381.852 202.168 383.238 200.95 383.238 199.116C383.238 197.338 381.866 196.722 379.794 196.26C378.31 195.924 377.736 195.7 377.736 195C377.736 194.426 378.268 193.964 379.15 193.964C380.074 193.964 381.04 194.342 381.894 195.028L382.972 193.544C381.992 192.704 380.774 192.214 379.206 192.214C377.106 192.214 375.65 193.432 375.65 195.21C375.65 197.072 377.092 197.646 379.122 198.108C380.592 198.444 381.152 198.654 381.152 199.34C381.152 199.942 380.62 200.418 379.584 200.418C378.366 200.418 377.33 199.942 376.42 199.158L375.23 200.572C376.35 201.608 377.834 202.168 379.5 202.168ZM388.472 200.208C388.332 200.348 388.052 200.446 387.772 200.446C387.394 200.446 387.086 200.11 387.086 199.634V196.414H388.654V194.762H387.086V192.774H385.126V194.762H384.132V196.414H385.126V199.956C385.126 201.258 386.022 202.168 387.296 202.168C387.884 202.168 388.542 201.916 388.962 201.538L388.472 200.208ZM393.798 202.168C395.94 202.168 397.732 200.432 397.732 198.374C397.732 196.316 395.94 194.594 393.798 194.594C391.642 194.594 389.836 196.316 389.836 198.374C389.836 200.432 391.642 202.168 393.798 202.168ZM393.798 200.446C392.706 200.446 391.796 199.494 391.796 198.374C391.796 197.254 392.706 196.316 393.798 196.316C394.876 196.316 395.786 197.254 395.786 198.374C395.786 199.494 394.876 200.446 393.798 200.446ZM401.159 196.106V194.762H399.115V202H401.159V198.542C401.159 197.184 402.125 196.316 403.637 196.316V194.594C402.531 194.594 401.635 195.168 401.159 196.106ZM408.232 200.362C407.378 200.362 406.748 199.83 406.51 199.046H411.732C411.732 196.316 410.402 194.594 408.134 194.594C406.02 194.594 404.41 196.176 404.41 198.36C404.41 200.586 406.09 202.168 408.246 202.168C409.31 202.168 410.556 201.72 411.2 201.048L409.898 199.718C409.506 200.096 408.806 200.362 408.232 200.362ZM408.218 196.4C409.044 196.4 409.576 196.862 409.772 197.576H406.538C406.804 196.848 407.448 196.4 408.218 196.4Z" fill="#0B0E29"/>
<rect x="286.5" y="0.5" width="169" height="309" rx="11.5" stroke="black"/>
<path d="M265.354 26.1464C265.549 26.3417 265.549 26.6583 265.354 26.8536L262.172 30.0355C261.976 30.2308 261.66 30.2308 261.464 30.0355C261.269 29.8403 261.269 29.5237 261.464 29.3284L264.293 26.5L261.464 23.6716C261.269 23.4763 261.269 23.1597 261.464 22.9645C261.66 22.7692 261.976 22.7692 262.172 22.9645L265.354 26.1464ZM93.6667 56.6254C93.6667 58.0981 92.4728 59.292 91 59.292C89.5272 59.292 88.3333 58.0981 88.3333 56.6254C88.3333 55.1526 89.5272 53.9587 91 53.9587C92.4728 53.9587 93.6667 55.1526 93.6667 56.6254ZM265 27H263V26H265V27ZM259 27H255V26H259V27ZM251 27H247V26H251V27ZM243 27H239V26H243V27ZM235 27H231V26H235V27ZM227 27H223V26H227V27ZM219 27H215V26H219V27ZM211 27H207V26H211V27ZM203 27H199V26H203V27ZM195 27H191V26H195V27ZM187 27H183V26H187V27ZM179 27H175V26H179V27ZM171 27H167V26H171V27ZM163 27H159V26H163V27ZM155 27H151V26H155V27ZM147 27H143V26H147V27ZM139 27H135V26H139V27ZM131 27H127V26H131V27ZM123 27H119V26H123V27ZM115 27H111V26H115V27ZM107 27H103V26H107V27ZM99 27H97V26H99V27ZM97 27C96.2533 27 95.5426 27.1485 94.8948 27.4171L94.5117 26.4934C95.2788 26.1753 96.1196 26 97 26V27ZM91.9171 30.3948C91.6485 31.0426 91.5 31.7533 91.5 32.5H90.5C90.5 31.6196 90.6753 30.7788 90.9934 30.0117L91.9171 30.3948ZM91.5 32.5V34.5104H90.5V32.5H91.5ZM91.5 38.5313V42.5522H90.5V38.5313H91.5ZM91.5 46.5731V50.594H90.5V46.5731H91.5ZM91.5 54.6149V56.6254H90.5V54.6149H91.5Z" fill="#0B0E29"/>
<path d="M265.354 275.479C265.549 275.284 265.549 274.967 265.354 274.772L262.172 271.59C261.976 271.395 261.66 271.395 261.464 271.59C261.269 271.785 261.269 272.102 261.464 272.297L264.293 275.125L261.464 277.954C261.269 278.149 261.269 278.466 261.464 278.661C261.66 278.856 261.976 278.856 262.172 278.661L265.354 275.479ZM93.6667 245C93.6667 243.527 92.4728 242.333 91 242.333C89.5272 242.333 88.3333 243.527 88.3333 245C88.3333 246.473 89.5272 247.667 91 247.667C92.4728 247.667 93.6667 246.473 93.6667 245ZM265 274.625H263V275.625H265V274.625ZM259 274.625H255V275.625H259V274.625ZM251 274.625H247V275.625H251V274.625ZM243 274.625H239V275.625H243V274.625ZM235 274.625H231V275.625H235V274.625ZM227 274.625H223V275.625H227V274.625ZM219 274.625H215V275.625H219V274.625ZM211 274.625H207V275.625H211V274.625ZM203 274.625H199V275.625H203V274.625ZM195 274.625H191V275.625H195V274.625ZM187 274.625H183V275.625H187V274.625ZM179 274.625H175V275.625H179V274.625ZM171 274.625H167V275.625H171V274.625ZM163 274.625H159V275.625H163V274.625ZM155 274.625H151V275.625H155V274.625ZM147 274.625H143V275.625H147V274.625ZM139 274.625H135V275.625H139V274.625ZM131 274.625H127V275.625H131V274.625ZM123 274.625H119V275.625H123V274.625ZM115 274.625H111V275.625H115V274.625ZM107 274.625H103V275.625H107V274.625ZM99 274.625H97V275.625H99V274.625ZM97 274.625C96.2533 274.625 95.5426 274.477 94.8948 274.208L94.5117 275.132C95.2788 275.45 96.1196 275.625 97 275.625V274.625ZM91.9171 271.231C91.6485 270.583 91.5 269.872 91.5 269.125H90.5C90.5 270.006 90.6753 270.847 90.9934 271.614L91.9171 271.231ZM91.5 269.125V267.115H90.5V269.125H91.5ZM91.5 263.094V259.073H90.5V263.094H91.5ZM91.5 255.052V251.031H90.5V255.052H91.5ZM91.5 247.01V245H90.5V247.01H91.5Z" fill="#0B0E29"/>
<g clip-path="url(#clip0_7826_349323)">
<g clip-path="url(#clip1_7826_349323)">
<path d="M0.883125 99V98.416H2.48313V93.912H2.42713L1.01913 95.224L0.627125 94.8L2.10713 93.416H3.15513V98.416H4.62713V99H0.883125Z" fill="#93949E"/>
</g>
<g clip-path="url(#clip2_7826_349323)">
<path d="M4.49913 115H0.771125V114.312L2.63513 112.632C2.90713 112.387 3.13113 112.136 3.30713 111.88C3.48313 111.619 3.57113 111.344 3.57113 111.056V110.96C3.57113 110.624 3.48313 110.365 3.30713 110.184C3.13113 109.997 2.86979 109.904 2.52313 109.904C2.18179 109.904 1.91779 109.992 1.73113 110.168C1.54979 110.339 1.41379 110.568 1.32313 110.856L0.723125 110.632C0.776458 110.467 0.848458 110.307 0.939125 110.152C1.03513 109.992 1.15513 109.851 1.29913 109.728C1.44313 109.605 1.61646 109.507 1.81913 109.432C2.02713 109.357 2.26713 109.32 2.53913 109.32C2.81646 109.32 3.06179 109.36 3.27513 109.44C3.49379 109.52 3.67513 109.632 3.81913 109.776C3.96846 109.92 4.08046 110.091 4.15513 110.288C4.23513 110.485 4.27513 110.701 4.27513 110.936C4.27513 111.149 4.24313 111.349 4.17913 111.536C4.12046 111.723 4.03513 111.901 3.92313 112.072C3.81646 112.243 3.68579 112.411 3.53113 112.576C3.38179 112.736 3.21379 112.896 3.02713 113.056L1.46713 114.416H4.49913V115Z" fill="#93949E"/>
</g>
<g clip-path="url(#clip3_7826_349323)">
<path d="M2.36313 127.784C2.75246 127.784 3.04313 127.699 3.23513 127.528C3.43246 127.352 3.53113 127.128 3.53113 126.856V126.8C3.53113 126.501 3.43513 126.277 3.24313 126.128C3.05646 125.979 2.81113 125.904 2.50713 125.904C2.20846 125.904 1.96579 125.971 1.77913 126.104C1.59779 126.232 1.44846 126.403 1.33113 126.616L0.827125 126.232C0.896458 126.12 0.981792 126.011 1.08313 125.904C1.18446 125.792 1.30179 125.693 1.43513 125.608C1.57379 125.523 1.73113 125.453 1.90713 125.4C2.08846 125.347 2.29379 125.32 2.52313 125.32C2.76313 125.32 2.98713 125.352 3.19513 125.416C3.40313 125.475 3.58446 125.565 3.73913 125.688C3.89379 125.805 4.01379 125.952 4.09913 126.128C4.18979 126.304 4.23513 126.504 4.23513 126.728C4.23513 126.909 4.20579 127.072 4.14713 127.216C4.09379 127.36 4.01646 127.485 3.91513 127.592C3.81913 127.699 3.70446 127.789 3.57113 127.864C3.43779 127.939 3.29646 127.995 3.14713 128.032V128.064C3.30179 128.096 3.45113 128.149 3.59513 128.224C3.73913 128.293 3.86713 128.387 3.97913 128.504C4.09113 128.616 4.17913 128.755 4.24312 128.92C4.31246 129.08 4.34713 129.264 4.34713 129.472C4.34713 129.712 4.29913 129.933 4.20312 130.136C4.11246 130.333 3.98179 130.504 3.81113 130.648C3.64579 130.787 3.44313 130.896 3.20313 130.976C2.96846 131.056 2.70713 131.096 2.41913 131.096C2.17379 131.096 1.95513 131.069 1.76313 131.016C1.57646 130.963 1.40846 130.891 1.25912 130.8C1.11513 130.709 0.987125 130.608 0.875125 130.496C0.768458 130.384 0.672458 130.267 0.587125 130.144L1.09113 129.76C1.16579 129.872 1.24313 129.973 1.32313 130.064C1.40313 130.155 1.49379 130.235 1.59513 130.304C1.70179 130.368 1.82179 130.419 1.95513 130.456C2.08846 130.493 2.24313 130.512 2.41913 130.512C2.81379 130.512 3.11513 130.421 3.32313 130.24C3.53646 130.059 3.64313 129.8 3.64313 129.464V129.4C3.64313 129.069 3.53913 128.813 3.33113 128.632C3.12846 128.451 2.82179 128.36 2.41113 128.36H1.74713V127.784H2.36313Z" fill="#93949E"/>
</g>
<g clip-path="url(#clip4_7826_349323)">
<path d="M3.22713 147V145.904H0.475125V145.312L2.89113 141.416H3.86713V145.352H4.69913V145.904H3.86713V147H3.22713ZM1.07513 145.352H3.22713V141.936H3.19513L1.07513 145.352Z" fill="#93949E"/>
</g>
<g clip-path="url(#clip5_7826_349323)">
<path d="M4.21113 158H1.71513L1.55513 160.136H1.61113C1.74979 159.949 1.90446 159.803 2.07513 159.696C2.24579 159.584 2.48046 159.528 2.77913 159.528C3.02446 159.528 3.24846 159.568 3.45113 159.648C3.65913 159.723 3.83779 159.835 3.98713 159.984C4.13646 160.133 4.25379 160.315 4.33913 160.528C4.42446 160.736 4.46713 160.976 4.46713 161.248C4.46713 161.52 4.42446 161.771 4.33913 162C4.25379 162.224 4.12846 162.419 3.96313 162.584C3.79779 162.744 3.59779 162.869 3.36313 162.96C3.12846 163.051 2.86179 163.096 2.56313 163.096C2.32846 163.096 2.11779 163.069 1.93113 163.016C1.74979 162.963 1.58713 162.891 1.44313 162.8C1.30446 162.709 1.18179 162.608 1.07513 162.496C0.968458 162.384 0.872458 162.267 0.787125 162.144L1.29113 161.76C1.36579 161.872 1.44046 161.973 1.51513 162.064C1.59513 162.155 1.68579 162.235 1.78713 162.304C1.88846 162.368 2.00313 162.419 2.13113 162.456C2.25913 162.493 2.40846 162.512 2.57913 162.512C2.96313 162.512 3.25646 162.408 3.45913 162.2C3.66713 161.992 3.77113 161.704 3.77113 161.336V161.272C3.77113 160.904 3.66713 160.616 3.45913 160.408C3.25113 160.2 2.95246 160.096 2.56313 160.096C2.29646 160.096 2.08846 160.141 1.93913 160.232C1.79513 160.323 1.66179 160.435 1.53913 160.568L0.971125 160.488L1.17113 157.416H4.21113V158Z" fill="#93949E"/>
</g>
<g clip-path="url(#clip6_7826_349323)">
<path d="M2.61113 179.096C2.31779 179.096 2.05379 179.048 1.81913 178.952C1.58446 178.851 1.38446 178.709 1.21913 178.528C1.05913 178.341 0.933792 178.115 0.843125 177.848C0.757792 177.581 0.715125 177.283 0.715125 176.952C0.715125 176.536 0.776458 176.147 0.899125 175.784C1.02713 175.416 1.18713 175.083 1.37912 174.784C1.57646 174.48 1.79513 174.213 2.03513 173.984C2.27513 173.749 2.50979 173.56 2.73913 173.416H3.60313C3.29913 173.635 3.02713 173.848 2.78713 174.056C2.55246 174.264 2.34446 174.483 2.16313 174.712C1.98179 174.936 1.82979 175.179 1.70713 175.44C1.58446 175.696 1.48313 175.987 1.40313 176.312L1.44313 176.328C1.57646 176.099 1.75246 175.909 1.97113 175.76C2.18979 175.605 2.47246 175.528 2.81913 175.528C3.06446 175.528 3.28846 175.568 3.49113 175.648C3.69379 175.728 3.86979 175.843 4.01913 175.992C4.16846 176.141 4.28313 176.323 4.36313 176.536C4.44846 176.749 4.49113 176.987 4.49113 177.248C4.49113 177.52 4.44579 177.771 4.35513 178C4.26446 178.224 4.13646 178.419 3.97113 178.584C3.81113 178.744 3.61379 178.869 3.37913 178.96C3.14979 179.051 2.89379 179.096 2.61113 179.096ZM2.60313 178.528C2.98713 178.528 3.28313 178.424 3.49113 178.216C3.70446 178.008 3.81113 177.715 3.81113 177.336V177.272C3.81113 176.893 3.70446 176.6 3.49113 176.392C3.28313 176.184 2.98713 176.08 2.60313 176.08C2.21913 176.08 1.92046 176.184 1.70713 176.392C1.49913 176.6 1.39513 176.893 1.39513 177.272V177.336C1.39513 177.715 1.49913 178.008 1.70713 178.216C1.92046 178.424 2.21913 178.528 2.60313 178.528Z" fill="#93949E"/>
</g>
<g clip-path="url(#clip7_7826_349323)">
<path d="M1.58713 195L3.77113 189.992H1.32313V191.032H0.723125V189.416H4.45113V190.008L2.30713 195H1.58713Z" fill="#93949E"/>
</g>
<g clip-path="url(#clip8_7826_349323)">
<path d="M2.60313 211.096C2.27779 211.096 1.99246 211.056 1.74713 210.976C1.50179 210.891 1.29646 210.776 1.13113 210.632C0.971125 210.488 0.848458 210.317 0.763125 210.12C0.683125 209.923 0.643125 209.709 0.643125 209.48C0.643125 209.096 0.747125 208.792 0.955125 208.568C1.16313 208.344 1.43779 208.187 1.77913 208.096V208.032C1.48046 207.931 1.24313 207.768 1.06713 207.544C0.896458 207.315 0.811125 207.04 0.811125 206.72C0.811125 206.293 0.968458 205.955 1.28313 205.704C1.59779 205.448 2.03779 205.32 2.60313 205.32C3.16846 205.32 3.60846 205.448 3.92313 205.704C4.23779 205.955 4.39513 206.293 4.39513 206.72C4.39513 207.04 4.30713 207.315 4.13113 207.544C3.96046 207.768 3.72579 207.931 3.42713 208.032V208.096C3.76846 208.187 4.04313 208.344 4.25113 208.568C4.45913 208.792 4.56313 209.096 4.56313 209.48C4.56313 209.709 4.52046 209.923 4.43513 210.12C4.35513 210.317 4.23246 210.488 4.06713 210.632C3.90179 210.776 3.69646 210.891 3.45113 210.976C3.21113 211.056 2.92846 211.096 2.60313 211.096ZM2.60313 210.528C2.99779 210.528 3.30713 210.44 3.53113 210.264C3.75513 210.088 3.86713 209.84 3.86713 209.52V209.344C3.86713 209.024 3.75513 208.776 3.53113 208.6C3.31246 208.424 3.00313 208.336 2.60313 208.336C2.20313 208.336 1.89113 208.424 1.66713 208.6C1.44846 208.776 1.33913 209.024 1.33913 209.344V209.52C1.33913 209.84 1.45113 210.088 1.67513 210.264C1.89913 210.44 2.20846 210.528 2.60313 210.528ZM2.60313 207.792C2.96579 207.792 3.24046 207.715 3.42713 207.56C3.61913 207.405 3.71513 207.184 3.71513 206.896V206.784C3.71513 206.496 3.61646 206.275 3.41913 206.12C3.22713 205.965 2.95513 205.888 2.60313 205.888C2.25113 205.888 1.97646 205.965 1.77913 206.12C1.58713 206.275 1.49113 206.496 1.49113 206.784V206.896C1.49113 207.184 1.58446 207.405 1.77113 207.56C1.96313 207.715 2.24046 207.792 2.60313 207.792Z" fill="#93949E"/>
</g>
</g>
<rect x="24" y="92" width="46" height="8" fill="#00D0F6"/>
<path d="M78.1016 102.357C77.5684 102.357 77.1104 102.239 76.7275 102.002C76.3493 101.765 76.0599 101.421 75.8594 100.97C75.6589 100.519 75.5586 99.9785 75.5586 99.3496C75.5586 98.9395 75.5609 98.6318 75.5654 98.4268L75.5723 97.4629C75.5723 97.2259 75.4857 97.0345 75.3125 96.8887C75.1393 96.7428 74.932 96.638 74.6904 96.5742C74.4489 96.5104 74.2188 96.4785 74 96.4785V95.3984C74.196 95.3984 74.417 95.3574 74.6631 95.2754C74.9137 95.1934 75.1279 95.0794 75.3057 94.9336C75.4834 94.7832 75.5723 94.61 75.5723 94.4141L75.5654 93.4297C75.5609 93.2292 75.5586 92.9284 75.5586 92.5273C75.5586 91.6068 75.7796 90.8958 76.2217 90.3945C76.6683 89.8932 77.2949 89.6426 78.1016 89.6426C78.4661 89.6426 78.7852 89.6882 79.0586 89.7793L78.8945 90.9414C78.6211 90.8503 78.3978 90.8047 78.2246 90.8047C77.8372 90.8047 77.5387 90.9551 77.3291 91.2559C77.124 91.5521 77.0215 91.9759 77.0215 92.5273C77.0215 92.6823 77.0238 92.86 77.0283 93.0605C77.0329 93.2611 77.0374 93.416 77.042 93.5254C77.0557 93.8444 77.0625 94.1771 77.0625 94.5234C77.0625 94.929 76.9531 95.2458 76.7344 95.4736C76.5202 95.6969 76.2148 95.8132 75.8184 95.8223V96.0547C76.2103 96.0638 76.5156 96.1846 76.7344 96.417C76.9531 96.6449 77.0625 96.957 77.0625 97.3535C77.0625 97.5221 77.0602 97.7113 77.0557 97.9209C77.0511 98.1305 77.0465 98.2878 77.042 98.3926C77.0283 98.707 77.0215 99.026 77.0215 99.3496C77.0215 99.9421 77.124 100.398 77.3291 100.717C77.5387 101.036 77.8372 101.195 78.2246 101.195C78.3978 101.195 78.6211 101.15 78.8945 101.059L79.0586 102.221C78.7852 102.312 78.4661 102.357 78.1016 102.357Z" fill="white"/>
<path d="M24 108V196" stroke="#EBEAE8"/>
<rect x="40" y="108" width="146" height="8" fill="#EBEAE8"/>
<rect x="40" y="124" width="22" height="8" fill="#1324A0"/>
<rect x="66" y="124" width="46" height="8" fill="#93949E"/>
<rect x="40" y="140" width="67" height="8" fill="#1324A0"/>
<rect x="111" y="140" width="42" height="8" fill="#93949E"/>
<rect x="40" y="156" width="46" height="8" fill="#1324A0"/>
<rect x="90" y="156" width="96" height="8" fill="#93949E"/>
<rect x="40" y="172" width="77" height="8" fill="#1324A0"/>
<rect x="121" y="172" width="108" height="8" fill="#93949E"/>
<rect x="40" y="188" width="63" height="8" fill="#1324A0"/>
<rect x="107" y="188" width="58" height="8" fill="#93949E"/>
<path d="M24.957 201.643C25.4902 201.643 25.9482 201.761 26.3311 201.998C26.7093 202.235 26.9987 202.579 27.1992 203.03C27.3997 203.481 27.5 204.021 27.5 204.65C27.5 205.061 27.4977 205.368 27.4932 205.573L27.4863 206.537C27.4863 206.774 27.5729 206.965 27.7461 207.111C27.9193 207.257 28.1266 207.362 28.3682 207.426C28.6097 207.49 28.8398 207.521 29.0586 207.521V208.602C28.8626 208.602 28.6416 208.643 28.3955 208.725C28.1449 208.807 27.9307 208.921 27.7529 209.066C27.5752 209.217 27.4863 209.39 27.4863 209.586L27.4932 210.57C27.4977 210.771 27.5 211.072 27.5 211.473C27.5 212.393 27.279 213.104 26.8369 213.605C26.3903 214.107 25.7637 214.357 24.957 214.357C24.5924 214.357 24.2734 214.312 24 214.221L24.1641 213.059C24.4375 213.15 24.6608 213.195 24.834 213.195C25.2214 213.195 25.5199 213.045 25.7295 212.744C25.9346 212.448 26.0371 212.024 26.0371 211.473C26.0371 211.318 26.0348 211.14 26.0303 210.939C26.0257 210.739 26.0212 210.584 26.0166 210.475C26.0029 210.156 25.9961 209.823 25.9961 209.477C25.9961 209.071 26.1055 208.754 26.3242 208.526C26.5384 208.303 26.8438 208.187 27.2402 208.178V207.945C26.8483 207.936 26.543 207.815 26.3242 207.583C26.1055 207.355 25.9961 207.043 25.9961 206.646C25.9961 206.478 25.9984 206.289 26.0029 206.079C26.0075 205.869 26.012 205.712 26.0166 205.607C26.0303 205.293 26.0371 204.974 26.0371 204.65C26.0371 204.058 25.9346 203.602 25.7295 203.283C25.5199 202.964 25.2214 202.805 24.834 202.805C24.6608 202.805 24.4375 202.85 24.1641 202.941L24 201.779C24.2734 201.688 24.5924 201.643 24.957 201.643Z" fill="white"/>
<defs>
<filter id="filter0_ii_7826_349323" x="314" y="114" width="23.0897" height="25.7208" filterUnits="userSpaceOnUse" color-interpolation-filters="sRGB">
<feFlood flood-opacity="0" result="BackgroundImageFix"/>
<feBlend mode="normal" in="SourceGraphic" in2="BackgroundImageFix" result="shape"/>
<feColorMatrix in="SourceAlpha" type="matrix" values="0 0 0 0 0 0 0 0 0 0 0 0 0 0 0 0 0 0 127 0" result="hardAlpha"/>
<feOffset dy="-0.15"/>
<feComposite in2="hardAlpha" operator="arithmetic" k2="-1" k3="1"/>
<feColorMatrix type="matrix" values="0 0 0 0 0 0 0 0 0 0 0 0 0 0 0 0 0 0 0.12 0"/>
<feBlend mode="normal" in2="shape" result="effect1_innerShadow_7826_349323"/>
<feColorMatrix in="SourceAlpha" type="matrix" values="0 0 0 0 0 0 0 0 0 0 0 0 0 0 0 0 0 0 127 0" result="hardAlpha"/>
<feOffset dy="0.15"/>
<feComposite in2="hardAlpha" operator="arithmetic" k2="-1" k3="1"/>
<feColorMatrix type="matrix" values="0 0 0 0 1 0 0 0 0 1 0 0 0 0 1 0 0 0 0.25 0"/>
<feBlend mode="normal" in2="effect1_innerShadow_7826_349323" result="effect2_innerShadow_7826_349323"/>
</filter>
<filter id="filter1_i_7826_349323" x="314.463" y="126.86" width="16.686" height="12.8607" filterUnits="userSpaceOnUse" color-interpolation-filters="sRGB">
<feFlood flood-opacity="0" result="BackgroundImageFix"/>
<feBlend mode="normal" in="SourceGraphic" in2="BackgroundImageFix" result="shape"/>
<feColorMatrix in="SourceAlpha" type="matrix" values="0 0 0 0 0 0 0 0 0 0 0 0 0 0 0 0 0 0 127 0" result="hardAlpha"/>
<feOffset dy="-0.15"/>
<feComposite in2="hardAlpha" operator="arithmetic" k2="-1" k3="1"/>
<feColorMatrix type="matrix" values="0 0 0 0 0 0 0 0 0 0 0 0 0 0 0 0 0 0 0.08 0"/>
<feBlend mode="normal" in2="shape" result="effect1_innerShadow_7826_349323"/>
</filter>
<linearGradient id="paint0_linear_7826_349323" x1="325.828" y1="115.568" x2="309.046" y2="132.35" gradientUnits="userSpaceOnUse">
<stop stop-color="#00A0FF"/>
<stop offset="0.0066" stop-color="#00A1FF"/>
<stop offset="0.2601" stop-color="#00BEFF"/>
<stop offset="0.5122" stop-color="#00D2FF"/>
<stop offset="0.7604" stop-color="#00DFFF"/>
<stop offset="1" stop-color="#00E3FF"/>
</linearGradient>
<linearGradient id="paint1_linear_7826_349323" x1="337.861" y1="126.86" x2="313.665" y2="126.86" gradientUnits="userSpaceOnUse">
<stop stop-color="#FFE000"/>
<stop offset="0.4087" stop-color="#FFBD00"/>
<stop offset="0.7754" stop-color="#FFA500"/>
<stop offset="1" stop-color="#FF9C00"/>
</linearGradient>
<linearGradient id="paint2_linear_7826_349323" x1="328.855" y1="129.154" x2="306.097" y2="151.913" gradientUnits="userSpaceOnUse">
<stop stop-color="#FF3A44"/>
<stop offset="1" stop-color="#C31162"/>
</linearGradient>
<linearGradient id="paint3_linear_7826_349323" x1="311.324" y1="107.036" x2="321.487" y2="117.198" gradientUnits="userSpaceOnUse">
<stop stop-color="#32A071"/>
<stop offset="0.0685" stop-color="#2DA771"/>
<stop offset="0.4762" stop-color="#15CF74"/>
<stop offset="0.8009" stop-color="#06E775"/>
<stop offset="1" stop-color="#00F076"/>
</linearGradient>
<clipPath id="clip0_7826_349323">
<rect width="24" height="120" fill="white" transform="translate(0 92)"/>
</clipPath>
<clipPath id="clip1_7826_349323">
<rect width="24" height="8" fill="white" transform="translate(0 92)"/>
</clipPath>
<clipPath id="clip2_7826_349323">
<rect width="24" height="8" fill="white" transform="translate(0 108)"/>
</clipPath>
<clipPath id="clip3_7826_349323">
<rect width="24" height="8" fill="white" transform="translate(0 124)"/>
</clipPath>
<clipPath id="clip4_7826_349323">
<rect width="24" height="8" fill="white" transform="translate(0 140)"/>
</clipPath>
<clipPath id="clip5_7826_349323">
<rect width="24" height="8" fill="white" transform="translate(0 156)"/>
</clipPath>
<clipPath id="clip6_7826_349323">
<rect width="24" height="8" fill="white" transform="translate(0 172)"/>
</clipPath>
<clipPath id="clip7_7826_349323">
<rect width="24" height="8" fill="white" transform="translate(0 188)"/>
</clipPath>
<clipPath id="clip8_7826_349323">
<rect width="24" height="8" fill="white" transform="translate(0 204)"/>
</clipPath>
</defs>
</svg>
