<svg width="370" height="375" viewBox="0 0 370 375" fill="none" xmlns="http://www.w3.org/2000/svg">
<rect width="305" height="10" transform="translate(11 9)" fill="#202124"/>
<circle cx="16" cy="14" r="1" fill="#EBEAE8"/>
<circle cx="20" cy="14" r="1" fill="#EBEAE8"/>
<circle cx="24" cy="14" r="1" fill="#EBEAE8"/>
<rect width="305" height="13" transform="translate(11 19)" fill="#35363A"/>
<rect x="15" y="23" width="286" height="5" rx="2.5" fill="#202124"/>
<circle cx="311.5" cy="23.5" r="0.5" fill="#D9D9D9"/>
<circle cx="311.5" cy="25.5" r="0.5" fill="#D9D9D9"/>
<circle cx="311.5" cy="27.5" r="0.5" fill="#D9D9D9"/>
<g filter="url(#filter0_d_7797_326631)">
<rect x="8" y="6" width="311" height="161" rx="5" stroke="#35363A" stroke-width="6" shape-rendering="crispEdges"/>
</g>
<g clip-path="url(#clip0_7797_326631)">
<mask id="path-10-inside-1_7797_326631" fill="white">
<path d="M11 32H316V339C316 339.552 315.552 340 315 340H12C11.4477 340 11 339.552 11 339V32Z"/>
</mask>
<path d="M11 32H316V339C316 339.552 315.552 340 315 340H12C11.4477 340 11 339.552 11 339V32Z" fill="white"/>
<g clip-path="url(#clip1_7797_326631)">
<rect width="25" height="109" transform="translate(23 44)" fill="#EBEAE8"/>
<rect width="25" height="109" transform="translate(279 44)" fill="#EBEAE8"/>
</g>
<rect x="24" y="45" width="279" height="107" stroke="#93949E" stroke-width="2"/>
<rect x="18" y="39" width="291" height="119" stroke="#1324A0" stroke-width="2"/>
<g opacity="0.8">
<g clip-path="url(#clip2_7797_326631)">
<rect width="25" height="109" transform="translate(23 163)" fill="#EBEAE8"/>
<g clip-path="url(#clip3_7797_326631)">
<path d="M164 272V270.991H163V272H164ZM164 268.972V266.954H163V268.972H164ZM164 264.935V262.917H163V264.935H164ZM164 260.898V258.88H163V260.898H164ZM164 256.861V254.843H163V256.861H164ZM164 252.824V250.806H163V252.824H164ZM164 248.787V246.769H163V248.787H164ZM164 244.75V242.731H163V244.75H164ZM164 240.713V238.694H163V240.713H164ZM164 236.676V234.657H163V236.676H164ZM164 232.639V230.62H163V232.639H164ZM164 228.602V226.583H163V228.602H164ZM164 224.565V222.546H163V224.565H164ZM164 220.528V218.509H163V220.528H164ZM164 216.491V214.472H163V216.491H164ZM164 212.454V210.435H163V212.454H164ZM164 208.417V206.398H163V208.417H164ZM164 204.38V202.361H163V204.38H164ZM164 200.343V198.324H163V200.343H164ZM164 196.306V194.287H163V196.306H164ZM164 192.269V190.25H163V192.269H164ZM164 188.232V186.213H163V188.232H164ZM164 184.194V182.176H163V184.194H164ZM164 180.157V178.139H163V180.157H164ZM164 176.12V174.102H163V176.12H164ZM164 172.083V170.065H163V172.083H164ZM164 168.046V166.028H163V168.046H164ZM164 164.009V163H163V164.009H164ZM164.5 272V270.991H162.5V272H164.5ZM164.5 268.972V266.954H162.5V268.972H164.5ZM164.5 264.935V262.917H162.5V264.935H164.5ZM164.5 260.898V258.88H162.5V260.898H164.5ZM164.5 256.861V254.843H162.5V256.861H164.5ZM164.5 252.824V250.806H162.5V252.824H164.5ZM164.5 248.787V246.769H162.5V248.787H164.5ZM164.5 244.75V242.731H162.5V244.75H164.5ZM164.5 240.713V238.694H162.5V240.713H164.5ZM164.5 236.676V234.657H162.5V236.676H164.5ZM164.5 232.639V230.62H162.5V232.639H164.5ZM164.5 228.602V226.583H162.5V228.602H164.5ZM164.5 224.565V222.546H162.5V224.565H164.5ZM164.5 220.528V218.509H162.5V220.528H164.5ZM164.5 216.491V214.472H162.5V216.491H164.5ZM164.5 212.454V210.435H162.5V212.454H164.5ZM164.5 208.417V206.398H162.5V208.417H164.5ZM164.5 204.38V202.361H162.5V204.38H164.5ZM164.5 200.343V198.324H162.5V200.343H164.5ZM164.5 196.306V194.287H162.5V196.306H164.5ZM164.5 192.269V190.25H162.5V192.269H164.5ZM164.5 188.232V186.213H162.5V188.232H164.5ZM164.5 184.194V182.176H162.5V184.194H164.5ZM164.5 180.157V178.139H162.5V180.157H164.5ZM164.5 176.12V174.102H162.5V176.12H164.5ZM164.5 172.083V170.065H162.5V172.083H164.5ZM164.5 168.046V166.028H162.5V168.046H164.5ZM164.5 164.009V163H162.5V164.009H164.5Z" fill="#93949E" mask="url(#path-18-inside-2_7797_326631)"/>
</g>
<rect width="25" height="109" transform="translate(279 163)" fill="#EBEAE8"/>
</g>
<rect x="24" y="164" width="279" height="107" stroke="#93949E" stroke-width="2"/>
<rect x="18" y="158" width="291" height="119" stroke="#1324A0" stroke-width="2"/>
</g>
<g opacity="0.5">
<g clip-path="url(#clip4_7797_326631)">
<rect width="25" height="109" transform="translate(23 282)" fill="#EBEAE8"/>
<g clip-path="url(#clip5_7797_326631)">
<rect x="125.5" y="282.5" width="76" height="108" stroke="#93949E" stroke-dasharray="2 2"/>
</g>
<rect width="25" height="109" transform="translate(279 282)" fill="#EBEAE8"/>
</g>
<rect x="24" y="283" width="279" height="107" stroke="#93949E" stroke-width="2"/>
<rect x="18" y="277" width="291" height="119" stroke="#1324A0" stroke-width="2"/>
</g>
</g>
<path d="M9 30H318L314 34H13L9 30ZM316 340H11H316ZM12 340C10.3431 340 9 338.657 9 337V30L13 34V339C13 339.552 13 340 13 340H12ZM318 30V337C318 338.657 316.657 340 315 340H314C314 340 314 339.552 314 339V34L318 30Z" fill="#00D0F6" mask="url(#path-10-inside-1_7797_326631)"/>
<rect width="91" height="13" transform="translate(270 99)" fill="#35363A"/>
<rect x="274" y="103" width="72" height="5" rx="2.5" fill="#202124"/>
<circle cx="356.5" cy="103.5" r="0.5" fill="#D9D9D9"/>
<circle cx="356.5" cy="105.5" r="0.5" fill="#D9D9D9"/>
<circle cx="356.5" cy="107.5" r="0.5" fill="#D9D9D9"/>
<g filter="url(#filter1_d_7797_326631)">
<rect x="267" y="96" width="97" height="161" rx="5" stroke="#35363A" stroke-width="6" shape-rendering="crispEdges"/>
</g>
<g clip-path="url(#clip6_7797_326631)">
<mask id="path-30-inside-3_7797_326631" fill="white">
<path d="M270 112H361V374C361 374.552 360.552 375 360 375H271C270.448 375 270 374.552 270 374V112Z"/>
</mask>
<path d="M270 112H361V374C361 374.552 360.552 375 360 375H271C270.448 375 270 374.552 270 374V112Z" fill="white"/>
<g clip-path="url(#clip7_7797_326631)">
<g clip-path="url(#clip8_7797_326631)">
<rect x="282.5" y="124.5" width="66" height="86" stroke="#93949E" stroke-dasharray="2 2"/>
</g>
</g>
<rect x="283" y="125" width="65" height="85" stroke="#93949E" stroke-width="2"/>
<rect x="277" y="119" width="77" height="97" stroke="#1324A0" stroke-width="2"/>
<g opacity="0.8">
<g clip-path="url(#clip9_7797_326631)">
<rect x="282.5" y="266.5" width="66" height="43" stroke="#93949E" stroke-dasharray="2 2"/>
</g>
<rect x="283" y="223" width="65" height="86" stroke="#93949E" stroke-width="2"/>
<rect x="277" y="217" width="77" height="98" stroke="#1324A0" stroke-width="2"/>
</g>
<g opacity="0.5">
<g clip-path="url(#clip10_7797_326631)">
<g clip-path="url(#clip11_7797_326631)">
<rect x="282.5" y="321.5" width="32.5" height="42.5" stroke="#93949E" stroke-dasharray="2 2"/>
</g>
<g clip-path="url(#clip12_7797_326631)">
<rect x="316" y="365" width="32.5" height="42.5" stroke="#93949E" stroke-dasharray="2 2"/>
</g>
</g>
<rect x="283" y="322" width="65" height="85" stroke="#93949E" stroke-width="2"/>
<rect x="277" y="316" width="77" height="97" stroke="#1324A0" stroke-width="2"/>
</g>
</g>
<path d="M268 110H363L359 114H272L268 110ZM361 375H270H361ZM271 375C269.343 375 268 373.657 268 372V110L272 114V374C272 374.552 272 375 272 375H271ZM363 110V372C363 373.657 361.657 375 360 375H359C359 375 359 374.552 359 374V114L363 110Z" fill="#00D0F6" mask="url(#path-30-inside-3_7797_326631)"/>
<defs>
<filter id="filter0_d_7797_326631" x="0" y="0" width="325" height="175" filterUnits="userSpaceOnUse" color-interpolation-filters="sRGB">
<feFlood flood-opacity="0" result="BackgroundImageFix"/>
<feColorMatrix in="SourceAlpha" type="matrix" values="0 0 0 0 0 0 0 0 0 0 0 0 0 0 0 0 0 0 127 0" result="hardAlpha"/>
<feOffset dx="-1" dy="1"/>
<feGaussianBlur stdDeviation="2"/>
<feComposite in2="hardAlpha" operator="out"/>
<feColorMatrix type="matrix" values="0 0 0 0 0 0 0 0 0 0 0 0 0 0 0 0 0 0 0.25 0"/>
<feBlend mode="normal" in2="BackgroundImageFix" result="effect1_dropShadow_7797_326631"/>
<feBlend mode="normal" in="SourceGraphic" in2="effect1_dropShadow_7797_326631" result="shape"/>
</filter>
<filter id="filter1_d_7797_326631" x="259" y="90" width="111" height="175" filterUnits="userSpaceOnUse" color-interpolation-filters="sRGB">
<feFlood flood-opacity="0" result="BackgroundImageFix"/>
<feColorMatrix in="SourceAlpha" type="matrix" values="0 0 0 0 0 0 0 0 0 0 0 0 0 0 0 0 0 0 127 0" result="hardAlpha"/>
<feOffset dx="-1" dy="1"/>
<feGaussianBlur stdDeviation="2"/>
<feComposite in2="hardAlpha" operator="out"/>
<feColorMatrix type="matrix" values="0 0 0 0 0 0 0 0 0 0 0 0 0 0 0 0 0 0 0.25 0"/>
<feBlend mode="normal" in2="BackgroundImageFix" result="effect1_dropShadow_7797_326631"/>
<feBlend mode="normal" in="SourceGraphic" in2="effect1_dropShadow_7797_326631" result="shape"/>
</filter>
<clipPath id="clip0_7797_326631">
<path d="M11 32H316V339C316 339.552 315.552 340 315 340H12C11.4477 340 11 339.552 11 339V32Z" fill="white"/>
</clipPath>
<clipPath id="clip1_7797_326631">
<rect x="23" y="44" width="281" height="109" fill="white"/>
</clipPath>
<clipPath id="clip2_7797_326631">
<rect x="23" y="163" width="281" height="109" fill="white"/>
</clipPath>
<clipPath id="clip3_7797_326631">
<rect width="231" height="109" fill="white" transform="translate(48 163)"/>
</clipPath>
<clipPath id="clip4_7797_326631">
<rect x="23" y="282" width="281" height="109" fill="white"/>
</clipPath>
<clipPath id="clip5_7797_326631">
<rect width="231" height="109" fill="white" transform="translate(48 282)"/>
</clipPath>
<clipPath id="clip6_7797_326631">
<path d="M270 112H361V374C361 374.552 360.552 375 360 375H271C270.448 375 270 374.552 270 374V112Z" fill="white"/>
</clipPath>
<clipPath id="clip7_7797_326631">
<rect x="282" y="124" width="67" height="87" fill="white"/>
</clipPath>
<clipPath id="clip8_7797_326631">
<rect width="67" height="87" fill="white" transform="translate(282 124)"/>
</clipPath>
<clipPath id="clip9_7797_326631">
<rect x="282" y="222" width="67" height="88" fill="white"/>
</clipPath>
<clipPath id="clip10_7797_326631">
<rect x="282" y="321" width="67" height="87" fill="white"/>
</clipPath>
<clipPath id="clip11_7797_326631">
<rect width="67" height="43.5" fill="white" transform="translate(282 321)"/>
</clipPath>
<clipPath id="clip12_7797_326631">
<rect width="67" height="43.5" fill="white" transform="translate(282 364.5)"/>
</clipPath>
</defs>
</svg>
