<svg width="611" height="350" viewBox="0 0 611 350" fill="none" xmlns="http://www.w3.org/2000/svg">
<g clip-path="url(#clip0_7826_335172)">
<g clip-path="url(#clip1_7826_335172)">
<rect width="170" height="308" transform="translate(90)" fill="white"/>
<rect width="170" height="154" transform="translate(90)" fill="#1324A0"/>
<path d="M167 162H183" stroke="#93949E" stroke-linecap="round"/>
<rect x="143.5" y="196" width="63" height="6" fill="#0B0E29"/>
<rect x="106" y="210" width="138" height="4" fill="#93949E"/>
<rect x="116" y="218" width="39" height="4" fill="#93949E"/>
<rect x="157" y="218" width="69" height="4" fill="#93949E"/>
<rect x="228" y="218" width="6" height="4" fill="#93949E"/>
<rect x="119" y="226" width="43" height="4" fill="#93949E"/>
<rect x="164" y="226" width="67" height="4" fill="#93949E"/>
<rect x="142" y="234" width="58" height="4" fill="#93949E"/>
<rect x="202" y="234" width="6" height="4" fill="#93949E"/>
<rect x="148.5" y="246" width="53" height="20" rx="10" fill="#00D0F6"/>
<rect x="164.5" y="254" width="21" height="4" fill="#0B0E29"/>
</g>
<rect width="170" height="24.5" transform="translate(90 1)" fill="white"/>
<rect x="106" y="9.25" width="18" height="8" rx="4" fill="#93949E"/>
<rect x="230" y="9" width="14" height="1.5" rx="0.75" fill="#93949E"/>
<rect x="230" y="12.5" width="14" height="1.5" rx="0.75" fill="#93949E"/>
<rect x="230" y="16" width="14" height="1.5" rx="0.75" fill="#93949E"/>
</g>
<rect x="90.5" y="0.5" width="169" height="307" rx="11.5" stroke="#0B0E29"/>
<g clip-path="url(#clip2_7826_335172)">
<rect x="354" width="170" height="308" rx="12" fill="#F6F5F4"/>
<rect x="354" width="170" height="308" rx="1" fill="white"/>
<path d="M489.507 83.099C496.594 111.142 479.727 139.651 451.833 146.776C423.939 153.902 395.581 136.944 388.494 108.901C381.406 80.8583 398.274 52.349 426.168 45.2239C454.062 38.0988 482.419 55.0561 489.507 83.099ZM416.272 101.806C419.462 114.425 432.223 122.056 444.775 118.849C457.327 115.643 464.917 102.814 461.728 90.1947C458.539 77.5753 445.778 69.9445 433.226 73.1508C420.673 76.3571 413.083 89.1863 416.272 101.806Z" fill="#93949E"/>
<path d="M455.401 145.727C446.279 148.768 436.498 149.214 427.14 147.015C417.782 144.816 409.21 140.058 402.374 133.267C395.538 126.476 390.702 117.917 388.403 108.536C386.103 99.1551 386.429 89.3174 389.344 80.1106L416.655 88.8499C415.343 92.9929 415.197 97.4199 416.231 101.641C417.266 105.863 419.442 109.714 422.518 112.77C425.595 115.826 429.452 117.967 433.663 118.957C437.874 119.946 442.276 119.746 446.381 118.377L455.401 145.727Z" fill="#00D0F6"/>
<path d="M439.677 43.615C451.794 43.7732 463.478 48.1721 472.718 56.055C481.958 63.9378 488.176 74.8116 490.303 86.8056C492.429 98.7996 490.332 111.164 484.371 121.771C478.41 132.378 468.958 140.565 457.641 144.923L447.389 118.016C452.481 116.054 456.734 112.37 459.417 107.597C462.099 102.824 463.043 97.2599 462.086 91.8626C461.129 86.4653 458.331 81.5721 454.173 78.0248C450.015 74.4775 444.758 72.498 439.305 72.4268L439.677 43.615Z" fill="#1324A0"/>
<path d="M438.695 43.6115C451.103 43.5384 463.129 47.9186 472.611 55.9643C482.093 64.0099 488.408 75.1929 490.421 87.5018C492.434 99.8107 490.012 112.438 483.591 123.112C477.17 133.786 467.171 141.806 455.393 145.73L446.377 118.379C451.677 116.613 456.177 113.004 459.066 108.2C461.955 103.397 463.045 97.7149 462.14 92.1759C461.234 86.6369 458.392 81.6045 454.125 77.984C449.858 74.3635 444.446 72.3924 438.863 72.4252L438.695 43.6115Z" fill="#1324A0"/>
<rect x="370" y="157" width="51" height="4" fill="#93949E"/>
<rect x="423" y="157" width="77" height="4" fill="#93949E"/>
<rect x="502" y="157" width="6" height="4" fill="#93949E"/>
<rect x="370" y="165" width="138" height="4" fill="#93949E"/>
<rect x="370" y="173" width="38" height="4" fill="#93949E"/>
<rect x="410" y="173" width="16" height="4" fill="#93949E"/>
<rect x="386" y="193" width="33" height="4" fill="#93949E"/>
<rect x="370.5" y="185.5" width="64" height="19" rx="9.5" stroke="#93949E"/>
<rect x="443" y="185" width="65" height="20" rx="10" fill="#00D0F6"/>
<rect x="459" y="193" width="33" height="4" fill="#0B0E29"/>
<rect width="170" height="60" transform="translate(354 221)" fill="#F6F5F4"/>
<rect x="370" y="237" width="51" height="4" fill="#93949E"/>
<rect x="423" y="237" width="77" height="4" fill="#93949E"/>
<rect x="502" y="237" width="6" height="4" fill="#93949E"/>
<rect x="370" y="245" width="79" height="4" fill="#93949E"/>
<rect x="451" y="245" width="57" height="4" fill="#93949E"/>
<rect x="370" y="253" width="138" height="4" fill="#93949E"/>
<rect x="370" y="261" width="38" height="4" fill="#93949E"/>
<rect x="410" y="261" width="16" height="4" fill="#93949E"/>
<rect width="170" height="24.5" transform="translate(354 1)" fill="white"/>
<rect x="370" y="9.25" width="18" height="8" rx="4" fill="#93949E"/>
<rect x="494" y="9" width="14" height="1.5" rx="0.75" fill="#93949E"/>
<rect x="494" y="12.5" width="14" height="1.5" rx="0.75" fill="#93949E"/>
<rect x="494" y="16" width="14" height="1.5" rx="0.75" fill="#93949E"/>
</g>
<rect x="354.5" y="0.5" width="169" height="307" rx="11.5" stroke="#0B0E29"/>
<g filter="url(#filter0_d_7826_335172)">
<path d="M538.65 51L534.175 35.3026L549 42.3948L542.217 44.7983L538.65 51Z" fill="#0B0E29"/>
<path d="M534.393 34.8544L533.389 34.374L533.692 35.4372L538.167 51.1346L538.493 52.279L539.086 51.247L542.561 45.2051L549.17 42.8635L550.298 42.4636L549.218 41.9466L534.393 34.8544Z" stroke="#0B0E29"/>
</g>
<rect x="550" y="52" width="50.3077" height="18" fill="#0B0E29"/>
<rect x="550" y="52" width="50.3077" height="18" stroke="#0B0E29" stroke-width="2"/>
<g filter="url(#filter1_d_7826_335172)">
<path d="M239.65 296L235.175 280.303L250 287.395L243.217 289.799L239.65 296Z" fill="#1324A0"/>
<path d="M235.393 279.855L234.389 279.374L234.692 280.437L239.167 296.135L239.493 297.279L240.086 296.247L243.561 290.205L250.17 287.864L251.298 287.464L250.218 286.947L235.393 279.855Z" stroke="#1324A0"/>
</g>
<rect x="251" y="297" width="50.3077" height="18" fill="#1324A0"/>
<rect x="251" y="297" width="50.3077" height="18" stroke="#1324A0" stroke-width="2"/>
<g filter="url(#filter2_d_7826_335172)">
<path d="M14.6499 122L10.1751 106.303L25.0001 113.395L18.2167 115.799L14.6499 122Z" fill="#00D0F6"/>
<path d="M10.3929 105.855L9.38875 105.374L9.69183 106.437L14.1666 122.135L14.4928 123.279L15.0863 122.247L18.5612 116.205L25.1699 113.864L26.2986 113.464L25.2179 112.947L10.3929 105.855Z" stroke="#00D0F6"/>
</g>
<rect x="26.0002" y="123" width="50.308" height="18.0001" fill="#00D0F6"/>
<rect x="26.0002" y="123" width="50.308" height="18.0001" stroke="#00D0F6" stroke-width="2"/>
<path d="M530.048 242.786C529.93 243.035 530.036 243.333 530.286 243.452L534.35 245.382C534.6 245.5 534.898 245.394 535.017 245.145C535.135 244.895 535.029 244.597 534.779 244.479L531.166 242.763L532.882 239.15C533 238.9 532.894 238.602 532.645 238.483C532.395 238.365 532.097 238.471 531.979 238.721L530.048 242.786ZM579 209.5L578.553 209.276L579 209.5ZM550.5 132.5L550.005 132.432L550.5 132.5ZM581.144 85.5665L577.067 85.3564L576.857 89.4335L580.934 89.6436L581.144 85.5665ZM530.5 243C530.668 243.471 530.668 243.471 530.668 243.471C530.668 243.471 530.668 243.471 530.668 243.471C530.668 243.471 530.668 243.471 530.668 243.471C530.668 243.471 530.668 243.471 530.668 243.471C530.669 243.471 530.669 243.47 530.67 243.47C530.671 243.47 530.673 243.469 530.676 243.468C530.681 243.466 530.688 243.464 530.698 243.46C530.718 243.453 530.748 243.442 530.787 243.428C530.864 243.4 530.979 243.358 531.129 243.303C531.428 243.192 531.868 243.027 532.43 242.81L532.07 241.877C531.512 242.092 531.077 242.255 530.781 242.365C530.634 242.42 530.521 242.461 530.445 242.488C530.408 242.502 530.379 242.512 530.36 242.519C530.351 242.522 530.344 242.525 530.339 242.527C530.337 242.527 530.335 242.528 530.334 242.528C530.333 242.529 530.333 242.529 530.333 242.529C530.332 242.529 530.332 242.529 530.332 242.529C530.332 242.529 530.332 242.529 530.332 242.529C530.332 242.529 530.332 242.529 530.332 242.529C530.332 242.529 530.332 242.529 530.5 243ZM535.917 241.409C536.954 240.978 538.116 240.482 539.377 239.925L538.973 239.01C537.719 239.564 536.564 240.057 535.533 240.486L535.917 241.409ZM542.806 238.365C543.896 237.855 545.031 237.31 546.199 236.731L545.755 235.835C544.594 236.411 543.465 236.952 542.382 237.459L542.806 238.365ZM549.558 235.017C550.647 234.445 551.754 233.846 552.869 233.223L552.381 232.35C551.274 232.969 550.175 233.563 549.093 234.132L549.558 235.017ZM556.133 231.339C557.204 230.7 558.276 230.038 559.341 229.356L558.801 228.514C557.746 229.19 556.683 229.846 555.62 230.48L556.133 231.339ZM562.48 227.264C563.516 226.545 564.537 225.807 565.536 225.049L564.932 224.253C563.945 225.001 562.935 225.731 561.91 226.442L562.48 227.264ZM568.493 222.693C569.468 221.874 570.412 221.036 571.317 220.179L570.629 219.453C569.74 220.295 568.811 221.12 567.85 221.927L568.493 222.693ZM573.976 217.475C574.844 216.523 575.659 215.55 576.41 214.557L575.612 213.954C574.881 214.92 574.087 215.869 573.237 216.801L573.976 217.475ZM578.534 211.4C578.86 210.847 579.165 210.288 579.447 209.724L578.553 209.276C578.282 209.819 577.988 210.358 577.673 210.892L578.534 211.4ZM579.447 209.724C579.755 209.109 580.026 208.497 580.262 207.887L579.33 207.526C579.105 208.106 578.847 208.689 578.553 209.276L579.447 209.724ZM581.312 204.032C581.525 202.691 581.581 201.362 581.5 200.042L580.502 200.104C580.579 201.353 580.526 202.609 580.324 203.875L581.312 204.032ZM580.861 196.105C580.535 194.848 580.101 193.598 579.575 192.353L578.654 192.741C579.163 193.948 579.581 195.152 579.893 196.356L580.861 196.105ZM577.846 188.808C577.227 187.681 576.548 186.555 575.82 185.426L574.98 185.968C575.697 187.081 576.364 188.187 576.969 189.289L577.846 188.808ZM573.62 182.189C572.876 181.14 572.1 180.087 571.304 179.026L570.505 179.627C571.297 180.682 572.067 181.728 572.805 182.768L573.62 182.189ZM568.942 175.924C568.156 174.901 567.362 173.872 566.564 172.832L565.771 173.44C566.568 174.481 567.365 175.513 568.149 176.533L568.942 175.924ZM564.212 169.728C563.44 168.693 562.674 167.646 561.922 166.588L561.107 167.167C561.864 168.233 562.635 169.286 563.411 170.326L564.212 169.728ZM559.726 163.386C559.014 162.306 558.325 161.213 557.665 160.104L556.805 160.615C557.474 161.739 558.172 162.845 558.892 163.937L559.726 163.386ZM555.779 156.724C555.184 155.579 554.628 154.418 554.116 153.238L553.199 153.635C553.72 154.839 554.287 156.021 554.892 157.185L555.779 156.724ZM552.727 149.641C552.317 148.428 551.959 147.196 551.662 145.942L550.689 146.173C550.994 147.458 551.36 148.721 551.78 149.961L552.727 149.641ZM550.965 142.159C550.801 140.904 550.7 139.627 550.669 138.328L549.669 138.351C549.701 139.687 549.805 140.999 549.974 142.289L550.965 142.159ZM550.784 134.493C550.837 133.857 550.907 133.215 550.996 132.568L550.005 132.432C549.914 133.097 549.842 133.756 549.788 134.41L550.784 134.493ZM550.996 132.568C551.081 131.942 551.185 131.315 551.306 130.687L550.324 130.498C550.2 131.143 550.093 131.788 550.005 132.432L550.996 132.568ZM552.216 126.98C552.574 125.769 552.989 124.56 553.452 123.358L552.519 122.998C552.047 124.224 551.623 125.458 551.257 126.696L552.216 126.98ZM554.955 119.829C555.492 118.673 556.068 117.527 556.675 116.395L555.794 115.922C555.179 117.07 554.594 118.232 554.048 119.407L554.955 119.829ZM558.577 113.054C559.24 111.949 559.928 110.863 560.631 109.799L559.797 109.248C559.086 110.323 558.391 111.421 557.719 112.538L558.577 113.054ZM562.815 106.629C563.575 105.569 564.344 104.537 565.112 103.539L564.319 102.929C563.545 103.936 562.769 104.976 562.003 106.046L562.815 106.629ZM567.508 100.523C568.352 99.4928 569.186 98.5092 569.994 97.5788L569.24 96.9227C568.425 97.8599 567.586 98.8508 566.734 99.8894L567.508 100.523ZM572.57 94.6989C573.523 93.6624 574.414 92.7253 575.216 91.9009L574.499 91.2036C573.691 92.0343 572.794 92.9781 571.834 94.022L572.57 94.6989ZM577.953 89.172C578.393 88.7481 578.739 88.4221 578.975 88.2025C579.093 88.0927 579.184 88.0095 579.244 87.9539C579.275 87.9261 579.298 87.9053 579.313 87.8915C579.32 87.8845 579.326 87.8794 579.33 87.876C579.332 87.8744 579.333 87.8731 579.334 87.8723C579.334 87.8719 579.335 87.8716 579.335 87.8715C579.335 87.8714 579.335 87.8713 579.335 87.8713C579.335 87.8713 579.335 87.8713 579.335 87.8713C579.335 87.8713 579.335 87.8713 579.335 87.8713C579.335 87.8713 579.335 87.8713 579 87.5C578.665 87.1287 578.665 87.1287 578.665 87.1287C578.665 87.1287 578.665 87.1288 578.665 87.1288C578.665 87.1288 578.665 87.1288 578.665 87.1289C578.665 87.129 578.665 87.1291 578.665 87.1292C578.664 87.1295 578.664 87.1299 578.663 87.1304C578.662 87.1314 578.661 87.1328 578.659 87.1347C578.654 87.1385 578.648 87.1441 578.64 87.1514C578.624 87.1661 578.6 87.1878 578.569 87.2164C578.506 87.2737 578.414 87.3588 578.294 87.4704C578.054 87.6938 577.703 88.0238 577.259 88.4519L577.953 89.172Z" fill="#0B0E29"/>
<path d="M246.773 328.698L243.198 326.727L241.227 330.302L244.802 332.273L246.773 328.698ZM74.4961 236.937C74.4612 236.663 74.2109 236.469 73.937 236.504L69.473 237.072C69.199 237.107 69.0052 237.357 69.0401 237.631C69.075 237.905 69.3253 238.099 69.5992 238.064L73.5672 237.559L74.0722 241.527C74.1071 241.801 74.3574 241.995 74.6314 241.96C74.9053 241.925 75.0991 241.675 75.0642 241.401L74.4961 236.937ZM73.6047 236.694C73.1908 237.229 72.7847 237.769 72.3865 238.314L73.194 238.904C73.5867 238.366 73.9872 237.833 74.3955 237.306L73.6047 236.694ZM70.0893 241.649C69.3535 242.784 68.6503 243.937 67.9806 245.107L68.8485 245.603C69.509 244.449 70.2025 243.312 70.9283 242.193L70.0893 241.649ZM66.0669 248.676C65.4612 249.884 64.8901 251.108 64.3543 252.345L65.2719 252.743C65.8004 251.523 66.3636 250.316 66.961 249.123L66.0669 248.676ZM62.849 256.106C62.3817 257.375 61.9509 258.655 61.5574 259.945L62.5139 260.237C62.9019 258.965 63.3266 257.703 63.7874 256.451L62.849 256.106ZM60.4864 263.852C60.1664 265.166 59.8848 266.488 59.6425 267.815L60.6262 267.995C60.8651 266.687 61.1426 265.384 61.458 264.089L60.4864 263.852ZM59.0324 271.821C58.8686 273.163 58.7452 274.509 58.6628 275.856L59.661 275.917C59.742 274.59 59.8637 273.264 60.0251 271.942L59.0324 271.821ZM58.5401 279.907C58.5409 281.259 58.584 282.61 58.67 283.958L59.668 283.895C59.5833 282.567 59.5409 281.237 59.5401 279.906L58.5401 279.907ZM59.0578 287.994C59.2304 289.333 59.4466 290.668 59.7073 291.996L60.6886 291.803C60.4322 290.497 60.2194 289.184 60.0496 287.866L59.0578 287.994ZM60.6208 295.947C60.9685 297.25 61.3608 298.544 61.7985 299.827L62.745 299.504C62.3146 298.243 61.9289 296.97 61.587 295.689L60.6208 295.947ZM63.2385 303.619C63.7593 304.86 64.3249 306.088 64.936 307.303L65.8293 306.853C65.2286 305.66 64.6726 304.452 64.1606 303.232L63.2385 303.619ZM66.8837 310.861C67.5687 312.016 68.2977 313.156 69.0713 314.278L69.8945 313.71C69.1339 312.607 68.4172 311.487 67.7439 310.351L66.8837 310.861ZM71.4857 317.538C72.3186 318.587 73.1937 319.618 74.1117 320.629L74.8522 319.957C73.949 318.962 73.088 317.948 72.2689 316.916L71.4857 317.538ZM76.9323 323.543C77.8915 324.472 78.8903 325.382 79.9294 326.271L80.5795 325.511C79.556 324.636 78.5725 323.739 77.6282 322.825L76.9323 323.543ZM83.0843 328.812C84.1458 329.616 85.2439 330.4 86.3791 331.163L86.9369 330.333C85.8172 329.58 84.7345 328.807 83.6883 328.014L83.0843 328.812ZM89.7964 333.327C90.9376 334.008 92.1123 334.669 93.3209 335.308L93.7887 334.424C92.595 333.793 91.4351 333.14 90.3087 332.468L89.7964 333.327ZM96.9387 337.112C97.5507 337.399 98.1706 337.681 98.7983 337.958L99.2017 337.042C98.581 336.769 97.9682 336.49 97.3633 336.206L96.9387 337.112ZM98.7983 337.958C99.4173 338.23 100.045 338.495 100.682 338.75L101.054 337.822C100.428 337.571 99.8103 337.311 99.2017 337.042L98.7983 337.958ZM104.558 340.17C105.847 340.599 107.166 340.998 108.511 341.368L108.777 340.404C107.447 340.038 106.146 339.644 104.874 339.221L104.558 340.17ZM112.501 342.366C113.82 342.665 115.162 342.939 116.523 343.19L116.704 342.206C115.355 341.958 114.027 341.687 112.722 341.391L112.501 342.366ZM120.581 343.861C121.926 344.059 123.289 344.236 124.666 344.394L124.78 343.4C123.413 343.244 122.061 343.068 120.726 342.871L120.581 343.861ZM128.753 344.802C130.105 344.917 131.469 345.016 132.843 345.098L132.902 344.099C131.536 344.018 130.181 343.92 128.838 343.805L128.753 344.802ZM136.948 345.293C138.311 345.342 139.682 345.376 141.059 345.396L141.074 344.396C139.703 344.376 138.339 344.342 136.984 344.293L136.948 345.293ZM145.156 345.414C146.52 345.407 147.889 345.387 149.261 345.354L149.238 344.355C147.871 344.387 146.509 344.407 145.151 344.414L145.156 345.414ZM153.366 345.224C154.73 345.169 156.095 345.103 157.461 345.027L157.405 344.028C156.044 344.104 154.684 344.17 153.326 344.224L153.366 345.224ZM161.556 344.768C162.92 344.672 164.283 344.566 165.645 344.452L165.561 343.455C164.204 343.569 162.845 343.675 161.486 343.77L161.556 344.768ZM169.73 344.081C171.095 343.949 172.456 343.808 173.812 343.66L173.703 342.666C172.351 342.814 170.994 342.954 169.634 343.086L169.73 344.081ZM177.881 343.192C179.245 343.027 180.603 342.855 181.952 342.677L181.821 341.686C180.475 341.863 179.122 342.035 177.761 342.199L177.881 343.192ZM186.019 342.119C187.38 341.926 188.731 341.726 190.07 341.522L189.919 340.533C188.583 340.737 187.236 340.936 185.878 341.129L186.019 342.119ZM194.115 340.885C195.482 340.664 196.834 340.438 198.17 340.208L198.001 339.223C196.668 339.452 195.318 339.677 193.955 339.898L194.115 340.885ZM202.21 339.497C203.571 339.251 204.912 339.002 206.231 338.752L206.044 337.769C204.728 338.019 203.39 338.267 202.032 338.513L202.21 339.497ZM210.244 337.974C211.617 337.701 212.962 337.429 214.276 337.157L214.074 336.178C212.762 336.449 211.42 336.721 210.049 336.993L210.244 337.974ZM218.296 336.308C219.674 336.012 221.012 335.718 222.304 335.428L222.086 334.453C220.796 334.741 219.461 335.035 218.086 335.331L218.296 336.308ZM226.303 334.516C227.701 334.191 229.033 333.876 230.292 333.572L230.057 332.6C228.801 332.903 227.472 333.218 226.077 333.542L226.303 334.516ZM234.255 332.598C235.736 332.227 237.072 331.884 238.248 331.578L237.995 330.61C236.823 330.916 235.49 331.258 234.012 331.628L234.255 332.598ZM242.22 330.517C242.845 330.345 243.324 330.211 243.647 330.12C243.809 330.075 243.932 330.04 244.014 330.016C244.055 330.004 244.086 329.995 244.107 329.989C244.118 329.986 244.125 329.984 244.131 329.983C244.133 329.982 244.135 329.981 244.137 329.981C244.138 329.981 244.138 329.981 244.138 329.98C244.139 329.98 244.139 329.98 244.139 329.98C244.139 329.98 244.139 329.98 244.139 329.98C244.139 329.98 244.139 329.98 244.139 329.98C244.139 329.98 244.139 329.98 244 329.5C243.861 329.02 243.861 329.02 243.861 329.02C243.861 329.02 243.861 329.02 243.861 329.02C243.861 329.02 243.861 329.02 243.861 329.02C243.861 329.02 243.861 329.02 243.861 329.02C243.86 329.02 243.86 329.02 243.859 329.02C243.858 329.021 243.856 329.021 243.854 329.022C243.849 329.023 243.841 329.025 243.831 329.028C243.81 329.034 243.78 329.043 243.739 329.055C243.658 329.078 243.536 329.112 243.376 329.158C243.055 329.248 242.578 329.382 241.955 329.552L242.22 330.517Z" fill="#0B0E29"/>
<defs>
<filter id="filter0_d_7826_335172" x="530.602" y="32.4454" width="22.9946" height="24.1125" filterUnits="userSpaceOnUse" color-interpolation-filters="sRGB">
<feFlood flood-opacity="0" result="BackgroundImageFix"/>
<feColorMatrix in="SourceAlpha" type="matrix" values="0 0 0 0 0 0 0 0 0 0 0 0 0 0 0 0 0 0 127 0" result="hardAlpha"/>
<feOffset dy="1"/>
<feGaussianBlur stdDeviation="1"/>
<feComposite in2="hardAlpha" operator="out"/>
<feColorMatrix type="matrix" values="0 0 0 0 0 0 0 0 0 0 0 0 0 0 0 0 0 0 0.08 0"/>
<feBlend mode="normal" in2="BackgroundImageFix" result="effect1_dropShadow_7826_335172"/>
<feBlend mode="normal" in="SourceGraphic" in2="effect1_dropShadow_7826_335172" result="shape"/>
</filter>
<filter id="filter1_d_7826_335172" x="231.602" y="277.446" width="22.9946" height="24.1123" filterUnits="userSpaceOnUse" color-interpolation-filters="sRGB">
<feFlood flood-opacity="0" result="BackgroundImageFix"/>
<feColorMatrix in="SourceAlpha" type="matrix" values="0 0 0 0 0 0 0 0 0 0 0 0 0 0 0 0 0 0 127 0" result="hardAlpha"/>
<feOffset dy="1"/>
<feGaussianBlur stdDeviation="1"/>
<feComposite in2="hardAlpha" operator="out"/>
<feColorMatrix type="matrix" values="0 0 0 0 0 0 0 0 0 0 0 0 0 0 0 0 0 0 0.08 0"/>
<feBlend mode="normal" in2="BackgroundImageFix" result="effect1_dropShadow_7826_335172"/>
<feBlend mode="normal" in="SourceGraphic" in2="effect1_dropShadow_7826_335172" result="shape"/>
</filter>
<filter id="filter2_d_7826_335172" x="6.60236" y="103.446" width="22.9947" height="24.1125" filterUnits="userSpaceOnUse" color-interpolation-filters="sRGB">
<feFlood flood-opacity="0" result="BackgroundImageFix"/>
<feColorMatrix in="SourceAlpha" type="matrix" values="0 0 0 0 0 0 0 0 0 0 0 0 0 0 0 0 0 0 127 0" result="hardAlpha"/>
<feOffset dy="1"/>
<feGaussianBlur stdDeviation="1"/>
<feComposite in2="hardAlpha" operator="out"/>
<feColorMatrix type="matrix" values="0 0 0 0 0 0 0 0 0 0 0 0 0 0 0 0 0 0 0.08 0"/>
<feBlend mode="normal" in2="BackgroundImageFix" result="effect1_dropShadow_7826_335172"/>
<feBlend mode="normal" in="SourceGraphic" in2="effect1_dropShadow_7826_335172" result="shape"/>
</filter>
<clipPath id="clip0_7826_335172">
<rect x="90" width="170" height="308" rx="12" fill="white"/>
</clipPath>
<clipPath id="clip1_7826_335172">
<rect width="170" height="308" fill="white" transform="translate(90)"/>
</clipPath>
<clipPath id="clip2_7826_335172">
<rect x="354" width="170" height="308" rx="12" fill="white"/>
</clipPath>
</defs>
</svg>
