<svg width="727" height="508" viewBox="0 0 727 508" fill="none" xmlns="http://www.w3.org/2000/svg">
<g clip-path="url(#clip0_5199_93962)">
<rect x="0.585938" y="163.045" width="183.071" height="182.88" rx="91.44" fill="#0B0E29"/>
<rect x="183.656" width="508.53" height="508" rx="254" fill="#FF0049"/>
<path d="M397.727 218.641L391.613 242H385.578L394.465 213.562H398.234L397.727 218.641ZM402.551 242L396.398 218.641L395.832 213.562H399.66L408.625 242H402.551ZM402.766 231.395V236.141H389.934V231.395H402.766Z" fill="#0B0E29"/>
<path d="M430.227 227.059V238.777C429.823 239.207 429.23 239.708 428.449 240.281C427.681 240.841 426.672 241.336 425.422 241.766C424.185 242.182 422.674 242.391 420.891 242.391C419.315 242.391 417.883 242.143 416.594 241.648C415.318 241.154 414.217 240.405 413.293 239.402C412.382 238.387 411.685 237.124 411.203 235.613C410.721 234.09 410.48 232.286 410.48 230.203V225.359C410.48 223.302 410.708 221.512 411.164 219.988C411.633 218.452 412.31 217.176 413.195 216.16C414.081 215.145 415.135 214.389 416.359 213.895C417.596 213.4 418.99 213.152 420.539 213.152C422.674 213.152 424.426 213.51 425.793 214.227C427.173 214.943 428.215 216.004 428.918 217.41C429.634 218.816 430.064 220.542 430.207 222.586H424.68C424.589 221.388 424.387 220.451 424.074 219.773C423.775 219.096 423.352 218.615 422.805 218.328C422.258 218.029 421.548 217.879 420.676 217.879C419.921 217.879 419.263 218.016 418.703 218.289C418.143 218.549 417.674 218.979 417.297 219.578C416.919 220.177 416.639 220.945 416.457 221.883C416.275 222.82 416.184 223.966 416.184 225.32V230.203C416.184 231.544 416.288 232.69 416.496 233.641C416.704 234.591 417.01 235.366 417.414 235.965C417.831 236.564 418.352 237 418.977 237.273C419.615 237.534 420.363 237.664 421.223 237.664C421.913 237.664 422.466 237.592 422.883 237.449C423.299 237.306 423.632 237.156 423.879 237C424.139 236.831 424.354 236.701 424.523 236.609V231.375H420.441V227.059H430.227Z" fill="#0B0E29"/>
<path d="M440.285 213.562V242H434.602V213.562H440.285Z" fill="#0B0E29"/>
<path d="M460.949 237.273V242H449.133V237.273H460.949ZM450.891 213.562V242H445.168V213.562H450.891Z" fill="#0B0E29"/>
<path d="M480.617 237.273V242H468.254V237.273H480.617ZM470.031 213.562V242H464.309V213.562H470.031ZM478.957 225.086V229.676H468.254V225.086H478.957ZM480.578 213.562V218.309H468.254V213.562H480.578Z" fill="#0B0E29"/>
<path d="M325.012 294H319.992L320.031 289.273H325.012C326.392 289.273 327.466 289.026 328.234 288.531C329.003 288.036 329.543 287.255 329.855 286.188C330.181 285.12 330.344 283.72 330.344 281.988V277.555C330.344 276.24 330.259 275.126 330.09 274.215C329.921 273.29 329.634 272.548 329.23 271.988C328.827 271.415 328.286 270.992 327.609 270.719C326.932 270.445 326.092 270.309 325.09 270.309H319.895V265.562H325.09C326.73 265.562 328.221 265.829 329.562 266.363C330.904 266.897 332.056 267.678 333.02 268.707C333.983 269.723 334.725 270.979 335.246 272.477C335.767 273.974 336.027 275.68 336.027 277.594V281.988C336.027 283.915 335.767 285.621 335.246 287.105C334.725 288.59 333.983 289.846 333.02 290.875C332.069 291.891 330.917 292.665 329.562 293.199C328.208 293.733 326.691 294 325.012 294ZM323.312 265.562V294H317.59V265.562H323.312Z" fill="#0B0E29"/>
<path d="M356.516 289.273V294H344.152V289.273H356.516ZM345.93 265.562V294H340.207V265.562H345.93ZM354.855 277.086V281.676H344.152V277.086H354.855ZM356.477 265.562V270.309H344.152V265.562H356.477Z" fill="#0B0E29"/>
<path d="M368.703 287.926L374.094 265.562H380.266L372.023 294H367.863L368.703 287.926ZM364.094 265.562L369.465 287.926L370.344 294H366.164L357.98 265.562H364.094Z" fill="#0B0E29"/>
<path d="M399.289 289.273V294H386.926V289.273H399.289ZM388.703 265.562V294H382.98V265.562H388.703ZM397.629 277.086V281.676H386.926V277.086H397.629ZM399.25 265.562V270.309H386.926V265.562H399.25Z" fill="#0B0E29"/>
<path d="M418.41 289.273V294H406.594V289.273H418.41ZM408.352 265.562V294H402.629V265.562H408.352Z" fill="#0B0E29"/>
<path d="M440.5 277.574V282.32C440.5 284.326 440.253 286.083 439.758 287.594C439.276 289.091 438.586 290.348 437.688 291.363C436.802 292.366 435.728 293.121 434.465 293.629C433.215 294.137 431.828 294.391 430.305 294.391C428.781 294.391 427.388 294.137 426.125 293.629C424.875 293.121 423.794 292.366 422.883 291.363C421.984 290.348 421.288 289.091 420.793 287.594C420.298 286.083 420.051 284.326 420.051 282.32V277.574C420.051 275.517 420.292 273.72 420.773 272.184C421.255 270.634 421.952 269.345 422.863 268.316C423.775 267.275 424.855 266.493 426.105 265.973C427.355 265.439 428.742 265.172 430.266 265.172C431.789 265.172 433.176 265.439 434.426 265.973C435.676 266.493 436.757 267.275 437.668 268.316C438.579 269.345 439.276 270.634 439.758 272.184C440.253 273.72 440.5 275.517 440.5 277.574ZM434.816 282.32V277.535C434.816 276.181 434.719 275.029 434.523 274.078C434.328 273.115 434.035 272.327 433.645 271.715C433.254 271.103 432.779 270.654 432.219 270.367C431.659 270.081 431.008 269.938 430.266 269.938C429.523 269.938 428.866 270.081 428.293 270.367C427.733 270.654 427.258 271.103 426.867 271.715C426.49 272.327 426.203 273.115 426.008 274.078C425.826 275.029 425.734 276.181 425.734 277.535V282.32C425.734 283.622 425.832 284.736 426.027 285.66C426.223 286.585 426.516 287.34 426.906 287.926C427.297 288.512 427.772 288.948 428.332 289.234C428.905 289.508 429.562 289.645 430.305 289.645C431.034 289.645 431.678 289.508 432.238 289.234C432.811 288.948 433.286 288.512 433.664 287.926C434.042 287.34 434.328 286.585 434.523 285.66C434.719 284.736 434.816 283.622 434.816 282.32Z" fill="#0B0E29"/>
<path d="M454.348 283.98H448.527V279.234H454.348C455.155 279.234 455.812 279.052 456.32 278.688C456.841 278.323 457.219 277.822 457.453 277.184C457.688 276.533 457.805 275.803 457.805 274.996C457.805 274.176 457.681 273.414 457.434 272.711C457.199 271.995 456.828 271.415 456.32 270.973C455.826 270.53 455.168 270.309 454.348 270.309H450.363V294H444.66V265.562H454.348C456.262 265.562 457.909 265.966 459.289 266.773C460.669 267.581 461.724 268.694 462.453 270.113C463.195 271.52 463.566 273.134 463.566 274.957C463.566 276.793 463.195 278.388 462.453 279.742C461.724 281.083 460.669 282.125 459.289 282.867C457.909 283.609 456.262 283.98 454.348 283.98Z" fill="#0B0E29"/>
<path d="M469.426 265.562H474.445L480.246 285.016L486.027 265.562H490.461L482.375 294H478.098L469.426 265.562ZM467.395 265.562H472.18L472.922 284.312V294H467.395V265.562ZM488.273 265.562H493.078V294H487.57V284.312L488.273 265.562Z" fill="#0B0E29"/>
<path d="M514.055 289.273V294H501.691V289.273H514.055ZM503.469 265.562V294H497.746V265.562H503.469ZM512.395 277.086V281.676H501.691V277.086H512.395ZM514.016 265.562V270.309H501.691V265.562H514.016Z" fill="#0B0E29"/>
<path d="M537.277 265.562V294H531.75L522.824 276.207V294H517.395V265.562H522.844L531.848 283.551V265.562H537.277Z" fill="#0B0E29"/>
<path d="M552.629 265.562V294H546.945V265.562H552.629ZM559.699 265.562V270.309H540.012V265.562H559.699Z" fill="#0B0E29"/>
<rect x="692.188" y="138.854" width="230.533" height="230.293" rx="115.147" fill="#00D0F6"/>
</g>
<defs>
<clipPath id="clip0_5199_93962">
<rect width="727" height="508" fill="white"/>
</clipPath>
</defs>
</svg>
