<svg width="379" height="332" viewBox="0 0 379 332" fill="none" xmlns="http://www.w3.org/2000/svg">
<g clip-path="url(#clip0_5199_94665)">
<rect x="-94.6172" y="106.557" width="119.361" height="119.52" rx="59.6805" fill="#0B0E29"/>
<rect x="24.7422" width="331.558" height="332" rx="165.779" fill="#FF0049"/>
<path d="M150.812 130.641L144.699 154H138.664L147.551 125.562H151.32L150.812 130.641ZM155.637 154L149.484 130.641L148.918 125.562H152.746L161.711 154H155.637ZM155.852 143.395V148.141H143.02V143.395H155.852Z" fill="#0B0E29"/>
<path d="M183.312 139.059V150.777C182.909 151.207 182.316 151.708 181.535 152.281C180.767 152.841 179.758 153.336 178.508 153.766C177.271 154.182 175.76 154.391 173.977 154.391C172.401 154.391 170.969 154.143 169.68 153.648C168.404 153.154 167.303 152.405 166.379 151.402C165.467 150.387 164.771 149.124 164.289 147.613C163.807 146.09 163.566 144.286 163.566 142.203V137.359C163.566 135.302 163.794 133.512 164.25 131.988C164.719 130.452 165.396 129.176 166.281 128.16C167.167 127.145 168.221 126.389 169.445 125.895C170.682 125.4 172.076 125.152 173.625 125.152C175.76 125.152 177.512 125.51 178.879 126.227C180.259 126.943 181.301 128.004 182.004 129.41C182.72 130.816 183.15 132.542 183.293 134.586H177.766C177.674 133.388 177.473 132.451 177.16 131.773C176.861 131.096 176.438 130.615 175.891 130.328C175.344 130.029 174.634 129.879 173.762 129.879C173.007 129.879 172.349 130.016 171.789 130.289C171.229 130.549 170.76 130.979 170.383 131.578C170.005 132.177 169.725 132.945 169.543 133.883C169.361 134.82 169.27 135.966 169.27 137.32V142.203C169.27 143.544 169.374 144.69 169.582 145.641C169.79 146.591 170.096 147.366 170.5 147.965C170.917 148.564 171.438 149 172.062 149.273C172.701 149.534 173.449 149.664 174.309 149.664C174.999 149.664 175.552 149.592 175.969 149.449C176.385 149.306 176.717 149.156 176.965 149C177.225 148.831 177.44 148.701 177.609 148.609V143.375H173.527V139.059H183.312Z" fill="#0B0E29"/>
<path d="M193.371 125.562V154H187.688V125.562H193.371Z" fill="#0B0E29"/>
<path d="M214.035 149.273V154H202.219V149.273H214.035ZM203.977 125.562V154H198.254V125.562H203.977Z" fill="#0B0E29"/>
<path d="M233.703 149.273V154H221.34V149.273H233.703ZM223.117 125.562V154H217.395V125.562H223.117ZM232.043 137.086V141.676H221.34V137.086H232.043ZM233.664 125.562V130.309H221.34V125.562H233.664Z" fill="#0B0E29"/>
<path d="M78.0977 206H73.0781L73.1172 201.273H78.0977C79.4779 201.273 80.5521 201.026 81.3203 200.531C82.0885 200.036 82.6289 199.255 82.9414 198.188C83.2669 197.12 83.4297 195.72 83.4297 193.988V189.555C83.4297 188.24 83.3451 187.126 83.1758 186.215C83.0065 185.29 82.7201 184.548 82.3164 183.988C81.9128 183.415 81.3724 182.992 80.6953 182.719C80.0182 182.445 79.1784 182.309 78.1758 182.309H72.9805V177.562H78.1758C79.8164 177.562 81.3073 177.829 82.6484 178.363C83.9896 178.897 85.1419 179.678 86.1055 180.707C87.069 181.723 87.8112 182.979 88.332 184.477C88.8529 185.974 89.1133 187.68 89.1133 189.594V193.988C89.1133 195.915 88.8529 197.621 88.332 199.105C87.8112 200.59 87.069 201.846 86.1055 202.875C85.1549 203.891 84.0026 204.665 82.6484 205.199C81.2943 205.733 79.7773 206 78.0977 206ZM76.3984 177.562V206H70.6758V177.562H76.3984Z" fill="#0B0E29"/>
<path d="M109.602 201.273V206H97.2383V201.273H109.602ZM99.0156 177.562V206H93.293V177.562H99.0156ZM107.941 189.086V193.676H97.2383V189.086H107.941ZM109.562 177.562V182.309H97.2383V177.562H109.562Z" fill="#0B0E29"/>
<path d="M121.789 199.926L127.18 177.562H133.352L125.109 206H120.949L121.789 199.926ZM117.18 177.562L122.551 199.926L123.43 206H119.25L111.066 177.562H117.18Z" fill="#0B0E29"/>
<path d="M152.375 201.273V206H140.012V201.273H152.375ZM141.789 177.562V206H136.066V177.562H141.789ZM150.715 189.086V193.676H140.012V189.086H150.715ZM152.336 177.562V182.309H140.012V177.562H152.336Z" fill="#0B0E29"/>
<path d="M171.496 201.273V206H159.68V201.273H171.496ZM161.438 177.562V206H155.715V177.562H161.438Z" fill="#0B0E29"/>
<path d="M193.586 189.574V194.32C193.586 196.326 193.339 198.083 192.844 199.594C192.362 201.091 191.672 202.348 190.773 203.363C189.888 204.366 188.814 205.121 187.551 205.629C186.301 206.137 184.914 206.391 183.391 206.391C181.867 206.391 180.474 206.137 179.211 205.629C177.961 205.121 176.88 204.366 175.969 203.363C175.07 202.348 174.374 201.091 173.879 199.594C173.384 198.083 173.137 196.326 173.137 194.32V189.574C173.137 187.517 173.378 185.72 173.859 184.184C174.341 182.634 175.038 181.345 175.949 180.316C176.861 179.275 177.941 178.493 179.191 177.973C180.441 177.439 181.828 177.172 183.352 177.172C184.875 177.172 186.262 177.439 187.512 177.973C188.762 178.493 189.842 179.275 190.754 180.316C191.665 181.345 192.362 182.634 192.844 184.184C193.339 185.72 193.586 187.517 193.586 189.574ZM187.902 194.32V189.535C187.902 188.181 187.805 187.029 187.609 186.078C187.414 185.115 187.121 184.327 186.73 183.715C186.34 183.103 185.865 182.654 185.305 182.367C184.745 182.081 184.094 181.938 183.352 181.938C182.609 181.938 181.952 182.081 181.379 182.367C180.819 182.654 180.344 183.103 179.953 183.715C179.576 184.327 179.289 185.115 179.094 186.078C178.911 187.029 178.82 188.181 178.82 189.535V194.32C178.82 195.622 178.918 196.736 179.113 197.66C179.309 198.585 179.602 199.34 179.992 199.926C180.383 200.512 180.858 200.948 181.418 201.234C181.991 201.508 182.648 201.645 183.391 201.645C184.12 201.645 184.764 201.508 185.324 201.234C185.897 200.948 186.372 200.512 186.75 199.926C187.128 199.34 187.414 198.585 187.609 197.66C187.805 196.736 187.902 195.622 187.902 194.32Z" fill="#0B0E29"/>
<path d="M207.434 195.98H201.613V191.234H207.434C208.241 191.234 208.898 191.052 209.406 190.688C209.927 190.323 210.305 189.822 210.539 189.184C210.773 188.533 210.891 187.803 210.891 186.996C210.891 186.176 210.767 185.414 210.52 184.711C210.285 183.995 209.914 183.415 209.406 182.973C208.911 182.53 208.254 182.309 207.434 182.309H203.449V206H197.746V177.562H207.434C209.348 177.562 210.995 177.966 212.375 178.773C213.755 179.581 214.81 180.694 215.539 182.113C216.281 183.52 216.652 185.134 216.652 186.957C216.652 188.793 216.281 190.388 215.539 191.742C214.81 193.083 213.755 194.125 212.375 194.867C210.995 195.609 209.348 195.98 207.434 195.98Z" fill="#0B0E29"/>
<path d="M222.512 177.562H227.531L233.332 197.016L239.113 177.562H243.547L235.461 206H231.184L222.512 177.562ZM220.48 177.562H225.266L226.008 196.312V206H220.48V177.562ZM241.359 177.562H246.164V206H240.656V196.312L241.359 177.562Z" fill="#0B0E29"/>
<path d="M267.141 201.273V206H254.777V201.273H267.141ZM256.555 177.562V206H250.832V177.562H256.555ZM265.48 189.086V193.676H254.777V189.086H265.48ZM267.102 177.562V182.309H254.777V177.562H267.102Z" fill="#0B0E29"/>
<path d="M290.363 177.562V206H284.836L275.91 188.207V206H270.48V177.562H275.93L284.934 195.551V177.562H290.363Z" fill="#0B0E29"/>
<path d="M305.715 177.562V206H300.031V177.562H305.715ZM312.785 177.562V182.309H293.098V177.562H312.785Z" fill="#0B0E29"/>
<rect x="356.301" y="90.7471" width="150.306" height="150.507" rx="75.1532" fill="#00D0F6"/>
</g>
<defs>
<clipPath id="clip0_5199_94665">
<rect width="474" height="332" fill="white" transform="translate(-95)"/>
</clipPath>
</defs>
</svg>
