<svg width="277" height="325" viewBox="0 0 277 325" fill="none" xmlns="http://www.w3.org/2000/svg">
<rect x="1" y="24.5615" width="276" height="276" rx="138" fill="#FF0049"/>
<path d="M109.708 148.116H103.542L102.343 152.699H97.5601L104.557 130.308H108.693L115.736 152.699H110.908L109.708 148.116ZM104.526 144.348H108.709L106.618 136.367L104.526 144.348Z" fill="#0B0E29"/>
<path d="M132.729 150.161C131.857 151.104 130.786 151.817 129.515 152.299C128.254 152.771 126.87 153.006 125.363 153.006C122.79 153.006 120.791 152.212 119.366 150.623C117.941 149.023 117.208 146.701 117.167 143.656V139.627C117.167 136.541 117.838 134.168 119.181 132.507C120.534 130.836 122.503 130 125.086 130C127.516 130 129.346 130.6 130.576 131.799C131.816 132.999 132.534 134.88 132.729 137.443H128.331C128.208 136.018 127.91 135.049 127.439 134.537C126.967 134.014 126.229 133.752 125.224 133.752C124.004 133.752 123.118 134.198 122.564 135.09C122.01 135.982 121.723 137.402 121.703 139.35V143.41C121.703 145.45 122.005 146.937 122.61 147.87C123.225 148.793 124.23 149.254 125.624 149.254C126.516 149.254 127.239 149.075 127.792 148.716L128.192 148.439V144.333H125.024V140.919H132.729V150.161Z" fill="#0B0E29"/>
<path d="M140.648 152.699H136.127V130.308H140.648V152.699Z" fill="#0B0E29"/>
<path d="M148.967 148.946H156.902V152.699H144.446V130.308H148.967V148.946Z" fill="#0B0E29"/>
<path d="M171.08 143.01H164.037V148.946H172.372V152.699H159.516V130.308H172.341V134.075H164.037V139.366H171.08V143.01Z" fill="#0B0E29"/>
<path d="M44 194.692V172.301H49.9204C52.5346 172.301 54.6157 173.132 56.1637 174.793C57.7219 176.453 58.5164 178.729 58.5472 181.621V185.25C58.5472 188.192 57.7681 190.504 56.2098 192.186C54.6618 193.857 52.5243 194.692 49.7973 194.692H44ZM48.521 176.069V190.94H49.8742C51.3812 190.94 52.4423 190.545 53.0574 189.756C53.6725 188.956 53.9954 187.582 54.0262 185.634V181.744C54.0262 179.652 53.734 178.196 53.1497 177.376C52.5653 176.546 51.5709 176.11 50.1664 176.069H48.521Z" fill="#0B0E29"/>
<path d="M73.3712 185.004H66.3283V190.94H74.6629V194.692H61.8072V172.301H74.6321V176.069H66.3283V181.359H73.3712V185.004Z" fill="#0B0E29"/>
<path d="M84.5661 188.541L88.3336 172.301H93.3774L86.9188 194.692H82.2133L75.8008 172.301H80.8139L84.5661 188.541Z" fill="#0B0E29"/>
<path d="M107.048 185.004H100.005V190.94H108.34V194.692H95.4842V172.301H108.309V176.069H100.005V181.359H107.048V185.004Z" fill="#0B0E29"/>
<path d="M115.475 190.94H123.41V194.692H110.954V172.301H115.475V190.94Z" fill="#0B0E29"/>
<path d="M140.802 185.511C140.802 188.515 140.089 190.848 138.664 192.509C137.25 194.17 135.281 195 132.759 195C130.248 195 128.274 194.18 126.839 192.539C125.404 190.889 124.676 188.582 124.655 185.619V181.79C124.655 178.714 125.368 176.315 126.793 174.593C128.218 172.86 130.196 171.994 132.729 171.994C135.22 171.994 137.183 172.845 138.618 174.547C140.054 176.238 140.781 178.617 140.802 181.682V185.511ZM136.266 181.759C136.266 179.739 135.978 178.237 135.404 177.253C134.83 176.269 133.938 175.777 132.729 175.777C131.529 175.777 130.642 176.254 130.068 177.207C129.494 178.15 129.197 179.591 129.176 181.528V185.511C129.176 187.47 129.469 188.915 130.053 189.848C130.637 190.771 131.539 191.232 132.759 191.232C133.938 191.232 134.815 190.781 135.389 189.879C135.963 188.966 136.255 187.557 136.266 185.65V181.759Z" fill="#0B0E29"/>
<path d="M148.568 186.819V194.692H144.047V172.301H151.674C153.888 172.301 155.652 172.988 156.964 174.362C158.286 175.736 158.947 177.52 158.947 179.714C158.947 181.908 158.296 183.64 156.994 184.912C155.693 186.183 153.888 186.819 151.582 186.819H148.568ZM148.568 183.051H151.674C152.535 183.051 153.201 182.769 153.673 182.205C154.145 181.641 154.38 180.821 154.38 179.744C154.38 178.627 154.139 177.74 153.658 177.084C153.176 176.418 152.53 176.079 151.72 176.069H148.568V183.051Z" fill="#0B0E29"/>
<path d="M167.882 172.301L172.111 188.495L176.324 172.301H182.229V194.692H177.693V188.633L178.108 179.299L173.633 194.692H170.558L166.083 179.299L166.498 188.633V194.692H161.977V172.301H167.882Z" fill="#0B0E29"/>
<path d="M197.438 185.004H190.395V190.94H198.729V194.692H185.874V172.301H198.699V176.069H190.395V181.359H197.438V185.004Z" fill="#0B0E29"/>
<path d="M216.998 194.692H212.477L205.864 180.006V194.692H201.343V172.301H205.864L212.492 187.003V172.301H216.998V194.692Z" fill="#0B0E29"/>
<path d="M234.667 176.069H229.131V194.692H224.594V176.069H219.151V172.301H234.667V176.069Z" fill="#0B0E29"/>
<rect x="76" y="300.562" width="125" height="125" rx="62.5" fill="#00D0F6"/>
<rect x="88" y="-75.4385" width="100" height="100" rx="50" fill="#0B0E29"/>
</svg>
