<svg width="363" height="482" viewBox="0 0 363 482" fill="none" xmlns="http://www.w3.org/2000/svg">
<g clip-path="url(#clip0_5227_97318)">
<rect x="-424.559" y="9" width="463.794" height="464" rx="231.897" fill="#FF0049"/>
<rect x="39.2344" y="135.748" width="211.152" height="210.505" rx="105.252" fill="#00D0F6"/>
<path d="M118.507 229.039H113.047L111.985 233.097H107.75L113.946 213.272H117.608L123.844 233.097H119.569L118.507 229.039ZM113.918 225.703H117.622L115.77 218.637L113.918 225.703Z" fill="#0B0E29"/>
<path d="M138.89 230.85C138.118 231.685 137.169 232.316 136.044 232.743C134.927 233.16 133.702 233.369 132.368 233.369C130.089 233.369 128.319 232.666 127.057 231.259C125.796 229.843 125.147 227.787 125.11 225.091V221.523C125.11 218.791 125.705 216.69 126.894 215.219C128.092 213.74 129.835 213 132.123 213C134.274 213 135.894 213.531 136.983 214.593C138.082 215.655 138.717 217.321 138.89 219.59H134.995C134.887 218.328 134.623 217.47 134.206 217.017C133.788 216.554 133.135 216.322 132.245 216.322C131.165 216.322 130.38 216.717 129.89 217.507C129.399 218.297 129.145 219.554 129.127 221.278V224.873C129.127 226.679 129.395 227.995 129.93 228.821C130.475 229.638 131.365 230.047 132.599 230.047C133.389 230.047 134.029 229.888 134.519 229.57L134.873 229.325V225.69H132.068V222.667H138.89V230.85Z" fill="#0B0E29"/>
<path d="M145.902 233.097H141.899V213.272H145.902V233.097Z" fill="#0B0E29"/>
<path d="M153.268 229.775H160.293V233.097H149.265V213.272H153.268V229.775Z" fill="#0B0E29"/>
<path d="M172.847 224.519H166.611V229.775H173.991V233.097H162.608V213.272H173.964V216.608H166.611V221.292H172.847V224.519Z" fill="#0B0E29"/>
<path d="M65.2284 248.903L68.9728 263.241L72.7035 248.903H77.9319V268.728H73.9153V263.363L74.2829 255.098L70.3207 268.728H67.5976L63.6354 255.098L64.003 263.363V268.728H60V248.903H65.2284Z" fill="#0B0E29"/>
<path d="M90.8669 264.67H85.4069L84.3449 268.728H80.1104L86.3056 248.903H89.9682L96.2042 268.728H91.9289L90.8669 264.67ZM86.2784 261.334H89.9818L88.1301 254.268L86.2784 261.334Z" fill="#0B0E29"/>
<path d="M102.25 268.728H98.2466V248.903H102.25V268.728Z" fill="#0B0E29"/>
<path d="M119.473 268.728H115.47L109.616 255.725V268.728H105.613V248.903H109.616L115.484 261.92V248.903H119.473V268.728Z" fill="#0B0E29"/>
<path d="M135.118 252.239H130.216V268.728H126.2V252.239H121.38V248.903H135.118V252.239Z" fill="#0B0E29"/>
<path d="M147.658 260.15H141.422V265.405H148.802V268.728H137.419V248.903H148.775V252.239H141.422V256.923H147.658V260.15Z" fill="#0B0E29"/>
<path d="M164.977 268.728H160.974L155.119 255.725V268.728H151.116V248.903H155.119L160.988 261.92V248.903H164.977V268.728Z" fill="#0B0E29"/>
<path d="M177.899 264.67H172.439L171.377 268.728H167.142L173.337 248.903H177L183.236 268.728H178.961L177.899 264.67ZM173.31 261.334H177.014L175.162 254.268L173.31 261.334Z" fill="#0B0E29"/>
<path d="M198.962 268.728H194.959L189.104 255.725V268.728H185.101V248.903H189.104L194.973 261.92V248.903H198.962V268.728Z" fill="#0B0E29"/>
<path d="M215.614 262.124C215.514 264.384 214.879 266.095 213.708 267.257C212.537 268.419 210.885 269 208.752 269C206.51 269 204.79 268.265 203.591 266.794C202.402 265.315 201.808 263.209 201.808 260.477V257.141C201.808 254.418 202.425 252.321 203.66 250.85C204.894 249.371 206.61 248.631 208.806 248.631C210.967 248.631 212.605 249.234 213.722 250.442C214.847 251.649 215.487 253.383 215.641 255.643H211.625C211.588 254.245 211.371 253.283 210.971 252.756C210.581 252.221 209.859 251.953 208.806 251.953C207.735 251.953 206.977 252.33 206.532 253.083C206.088 253.828 205.852 255.057 205.824 256.773V260.517C205.824 262.487 206.042 263.84 206.478 264.575C206.923 265.31 207.681 265.678 208.752 265.678C209.805 265.678 210.531 265.424 210.93 264.915C211.33 264.398 211.557 263.467 211.611 262.124H215.614Z" fill="#0B0E29"/>
<path d="M228.318 260.15H222.082V265.405H229.461V268.728H218.079V248.903H229.434V252.239H222.082V256.923H228.318V260.15Z" fill="#0B0E29"/>
<rect x="250.387" y="184.668" width="112.614" height="112.665" rx="56.3072" fill="#73909E"/>
<path d="M289.967 230.386H292.72C292.682 231.42 292.474 232.294 292.095 233.007C291.717 233.713 291.178 234.249 290.478 234.615C289.784 234.981 288.945 235.164 287.961 235.164C287.198 235.164 286.52 235.038 285.927 234.785C285.334 234.527 284.829 234.148 284.413 233.65C283.996 233.152 283.681 232.537 283.467 231.805C283.258 231.067 283.154 230.219 283.154 229.26V226.923C283.154 225.964 283.265 225.116 283.486 224.378C283.713 223.64 284.034 223.022 284.451 222.523C284.873 222.019 285.381 221.64 285.974 221.388C286.573 221.129 287.248 221 287.999 221C289.002 221 289.84 221.189 290.515 221.568C291.19 221.946 291.711 222.498 292.077 223.223C292.449 223.943 292.673 224.822 292.748 225.863H289.986C289.967 225.207 289.891 224.693 289.758 224.321C289.632 223.943 289.43 223.678 289.153 223.526C288.875 223.369 288.491 223.29 287.999 223.29C287.633 223.29 287.317 223.356 287.053 223.488C286.788 223.615 286.57 223.82 286.4 224.103C286.229 224.387 286.103 224.759 286.021 225.22C285.946 225.68 285.908 226.242 285.908 226.904V229.26C285.908 229.91 285.942 230.465 286.012 230.925C286.081 231.379 286.192 231.751 286.343 232.042C286.494 232.332 286.699 232.543 286.958 232.675C287.223 232.808 287.557 232.874 287.961 232.874C288.428 232.874 288.803 232.805 289.087 232.666C289.377 232.527 289.591 232.278 289.73 231.919C289.869 231.559 289.948 231.048 289.967 230.386Z" fill="white"/>
<path d="M304.13 227.018V229.317C304.13 230.288 304.011 231.14 303.771 231.871C303.538 232.597 303.203 233.205 302.768 233.697C302.339 234.183 301.819 234.549 301.207 234.795C300.601 235.041 299.93 235.164 299.192 235.164C298.454 235.164 297.779 235.041 297.167 234.795C296.561 234.549 296.038 234.183 295.596 233.697C295.161 233.205 294.824 232.597 294.584 231.871C294.344 231.14 294.224 230.288 294.224 229.317V227.018C294.224 226.021 294.341 225.15 294.574 224.406C294.808 223.656 295.145 223.031 295.587 222.533C296.028 222.028 296.552 221.65 297.157 221.397C297.763 221.139 298.435 221.009 299.173 221.009C299.911 221.009 300.582 221.139 301.188 221.397C301.793 221.65 302.317 222.028 302.759 222.533C303.2 223.031 303.538 223.656 303.771 224.406C304.011 225.15 304.13 226.021 304.13 227.018ZM301.377 229.317V226.999C301.377 226.343 301.33 225.784 301.235 225.324C301.141 224.857 300.999 224.476 300.81 224.179C300.62 223.883 300.39 223.665 300.119 223.526C299.848 223.387 299.532 223.318 299.173 223.318C298.813 223.318 298.495 223.387 298.217 223.526C297.946 223.665 297.716 223.883 297.526 224.179C297.343 224.476 297.205 224.857 297.11 225.324C297.022 225.784 296.978 226.343 296.978 226.999V229.317C296.978 229.947 297.025 230.487 297.12 230.935C297.214 231.382 297.356 231.748 297.545 232.032C297.735 232.316 297.965 232.527 298.236 232.666C298.514 232.798 298.832 232.865 299.192 232.865C299.545 232.865 299.857 232.798 300.128 232.666C300.406 232.527 300.636 232.316 300.819 232.032C301.002 231.748 301.141 231.382 301.235 230.935C301.33 230.487 301.377 229.947 301.377 229.317Z" fill="white"/>
<path d="M315.778 221.199V234.975H313.1L308.776 226.355V234.975H306.146V221.199H308.786L313.147 229.913V221.199H315.778Z" fill="white"/>
<path d="M323.214 221.199V234.975H320.461V221.199H323.214ZM326.639 221.199V223.498H317.102V221.199H326.639Z" fill="white"/>
<path d="M325.892 233.622C325.892 233.205 326.031 232.858 326.308 232.581C326.586 232.297 326.961 232.155 327.434 232.155C327.907 232.155 328.283 232.297 328.56 232.581C328.838 232.858 328.976 233.205 328.976 233.622C328.976 234.038 328.838 234.385 328.56 234.662C328.283 234.94 327.907 235.079 327.434 235.079C326.961 235.079 326.586 234.94 326.308 234.662C326.031 234.385 325.892 234.038 325.892 233.622Z" fill="white"/>
<path d="M275.245 257.187C275.245 256.941 275.223 256.717 275.178 256.515C275.134 256.313 275.04 256.127 274.895 255.957C274.756 255.787 274.551 255.616 274.28 255.446C274.015 255.276 273.668 255.099 273.239 254.916C272.728 254.702 272.233 254.475 271.753 254.235C271.274 253.989 270.842 253.705 270.457 253.384C270.072 253.062 269.766 252.683 269.539 252.248C269.319 251.807 269.208 251.289 269.208 250.696C269.208 250.116 269.312 249.589 269.52 249.116C269.735 248.643 270.038 248.24 270.429 247.905C270.82 247.565 271.277 247.303 271.801 247.12C272.33 246.937 272.92 246.846 273.57 246.846C274.453 246.846 275.216 247.029 275.86 247.394C276.509 247.76 277.011 248.262 277.364 248.899C277.723 249.536 277.903 250.268 277.903 251.094H275.141C275.141 250.703 275.084 250.359 274.97 250.063C274.863 249.76 274.69 249.523 274.45 249.353C274.21 249.183 273.901 249.097 273.523 249.097C273.169 249.097 272.876 249.17 272.643 249.315C272.416 249.454 272.245 249.646 272.132 249.892C272.025 250.132 271.971 250.403 271.971 250.706C271.971 250.933 272.025 251.138 272.132 251.321C272.245 251.498 272.4 251.658 272.595 251.803C272.791 251.942 273.021 252.078 273.286 252.21C273.557 252.343 273.854 252.472 274.175 252.598C274.8 252.844 275.352 253.115 275.831 253.412C276.311 253.702 276.711 254.03 277.033 254.396C277.354 254.755 277.597 255.162 277.761 255.616C277.925 256.071 278.007 256.588 278.007 257.168C278.007 257.742 277.906 258.266 277.705 258.739C277.509 259.205 277.222 259.609 276.844 259.95C276.465 260.284 276.008 260.543 275.472 260.726C274.942 260.909 274.349 261 273.693 261C273.056 261 272.453 260.912 271.886 260.735C271.318 260.552 270.817 260.278 270.381 259.912C269.952 259.54 269.615 259.07 269.369 258.502C269.123 257.928 269 257.25 269 256.468H271.772C271.772 256.884 271.813 257.241 271.895 257.537C271.977 257.827 272.103 258.061 272.274 258.237C272.444 258.408 272.652 258.537 272.898 258.625C273.15 258.707 273.437 258.748 273.759 258.748C274.125 258.748 274.415 258.679 274.63 258.54C274.85 258.401 275.008 258.215 275.103 257.982C275.197 257.748 275.245 257.483 275.245 257.187Z" fill="white"/>
<path d="M286.069 247.035H288.831V256.496C288.831 257.556 288.636 258.42 288.245 259.089C287.86 259.751 287.327 260.237 286.646 260.546C285.964 260.849 285.185 261 284.309 261C283.426 261 282.64 260.849 281.953 260.546C281.265 260.237 280.729 259.751 280.344 259.089C279.966 258.42 279.777 257.556 279.777 256.496V247.035H282.539V256.496C282.539 257.096 282.606 257.556 282.738 257.878C282.877 258.199 283.076 258.42 283.334 258.54C283.599 258.654 283.924 258.71 284.309 258.71C284.7 258.71 285.021 258.654 285.274 258.54C285.532 258.42 285.728 258.199 285.86 257.878C285.999 257.556 286.069 257.096 286.069 256.496V247.035Z" fill="white"/>
<path d="M295.644 255.957H292.824V253.658H295.644C296.035 253.658 296.353 253.57 296.599 253.393C296.851 253.216 297.034 252.974 297.148 252.664C297.261 252.349 297.318 251.996 297.318 251.605C297.318 251.207 297.258 250.838 297.138 250.498C297.025 250.151 296.845 249.87 296.599 249.656C296.359 249.441 296.041 249.334 295.644 249.334H293.713V260.811H290.951V247.035H295.644C296.571 247.035 297.369 247.23 298.037 247.621C298.706 248.013 299.217 248.552 299.57 249.239C299.93 249.921 300.109 250.703 300.109 251.586C300.109 252.475 299.93 253.248 299.57 253.904C299.217 254.554 298.706 255.058 298.037 255.418C297.369 255.777 296.571 255.957 295.644 255.957Z" fill="white"/>
<path d="M306.657 255.957H303.837V253.658H306.657C307.048 253.658 307.366 253.57 307.612 253.393C307.865 253.216 308.048 252.974 308.161 252.664C308.275 252.349 308.331 251.996 308.331 251.605C308.331 251.207 308.271 250.838 308.152 250.498C308.038 250.151 307.858 249.87 307.612 249.656C307.373 249.441 307.054 249.334 306.657 249.334H304.727V260.811H301.964V247.035H306.657C307.584 247.035 308.382 247.23 309.05 247.621C309.719 248.013 310.23 248.552 310.583 249.239C310.943 249.921 311.123 250.703 311.123 251.586C311.123 252.475 310.943 253.248 310.583 253.904C310.23 254.554 309.719 255.058 309.05 255.418C308.382 255.777 307.584 255.957 306.657 255.957Z" fill="white"/>
<path d="M322.656 252.854V255.153C322.656 256.124 322.536 256.976 322.297 257.707C322.063 258.433 321.729 259.041 321.294 259.533C320.865 260.019 320.344 260.385 319.732 260.631C319.127 260.877 318.455 261 317.717 261C316.979 261 316.304 260.877 315.692 260.631C315.087 260.385 314.563 260.019 314.122 259.533C313.687 259.041 313.349 258.433 313.109 257.707C312.87 256.976 312.75 256.124 312.75 255.153V252.854C312.75 251.857 312.867 250.987 313.1 250.242C313.333 249.492 313.671 248.867 314.112 248.369C314.554 247.864 315.077 247.486 315.683 247.234C316.288 246.975 316.96 246.846 317.698 246.846C318.436 246.846 319.108 246.975 319.714 247.234C320.319 247.486 320.843 247.864 321.284 248.369C321.726 248.867 322.063 249.492 322.297 250.242C322.536 250.987 322.656 251.857 322.656 252.854ZM319.903 255.153V252.835C319.903 252.179 319.855 251.621 319.761 251.16C319.666 250.693 319.524 250.312 319.335 250.015C319.146 249.719 318.916 249.501 318.644 249.362C318.373 249.224 318.058 249.154 317.698 249.154C317.339 249.154 317.02 249.224 316.743 249.362C316.471 249.501 316.241 249.719 316.052 250.015C315.869 250.312 315.73 250.693 315.636 251.16C315.547 251.621 315.503 252.179 315.503 252.835V255.153C315.503 255.784 315.55 256.323 315.645 256.771C315.74 257.219 315.882 257.584 316.071 257.868C316.26 258.152 316.49 258.363 316.762 258.502C317.039 258.635 317.358 258.701 317.717 258.701C318.07 258.701 318.383 258.635 318.654 258.502C318.931 258.363 319.162 258.152 319.345 257.868C319.527 257.584 319.666 257.219 319.761 256.771C319.855 256.323 319.903 255.784 319.903 255.153Z" fill="white"/>
<path d="M324.681 247.035H329.099C330.02 247.035 330.806 247.193 331.455 247.508C332.105 247.823 332.603 248.29 332.95 248.908C333.297 249.526 333.471 250.29 333.471 251.198C333.471 251.942 333.37 252.579 333.168 253.109C332.966 253.633 332.679 254.071 332.307 254.424C331.935 254.771 331.49 255.049 330.973 255.257L330.131 255.758H326.545L326.535 253.459H329.024C329.402 253.459 329.714 253.377 329.96 253.213C330.213 253.043 330.399 252.806 330.519 252.504C330.645 252.195 330.708 251.835 330.708 251.425C330.708 250.99 330.651 250.618 330.537 250.309C330.43 249.993 330.257 249.753 330.017 249.589C329.784 249.419 329.478 249.334 329.099 249.334H327.453V260.811H324.681V247.035ZM330.935 260.811L328.409 254.67L331.313 254.661L333.896 260.678V260.811H330.935Z" fill="white"/>
<path d="M340.396 247.035V260.811H337.643V247.035H340.396ZM343.821 247.035V249.334H334.284V247.035H343.821Z" fill="white"/>
<rect x="188.152" y="68.2969" width="98.5376" height="97.8403" rx="48.9201" fill="#2300A6"/>
<path d="M217.258 107.373C217.258 107.126 217.236 106.902 217.192 106.7C217.147 106.497 217.052 106.311 216.907 106.14C216.768 105.97 216.563 105.799 216.291 105.628C216.025 105.458 215.678 105.281 215.248 105.097C214.736 104.882 214.24 104.655 213.759 104.415C213.279 104.168 212.846 103.884 212.46 103.561C212.075 103.239 211.768 102.86 211.54 102.424C211.319 101.981 211.209 101.463 211.209 100.869C211.209 100.287 211.313 99.7592 211.521 99.2851C211.736 98.811 212.04 98.4064 212.432 98.0714C212.824 97.7301 213.282 97.4678 213.807 97.2845C214.338 97.1011 214.929 97.0095 215.58 97.0095C216.465 97.0095 217.229 97.1928 217.874 97.5594C218.525 97.926 219.028 98.4286 219.382 99.067C219.742 99.7054 219.922 100.439 219.922 101.267H217.154C217.154 100.875 217.097 100.53 216.983 100.233C216.875 99.9298 216.702 99.6928 216.461 99.5221C216.221 99.3515 215.912 99.2661 215.532 99.2661C215.178 99.2661 214.884 99.3388 214.65 99.4842C214.423 99.6233 214.252 99.8161 214.138 100.063C214.031 100.303 213.977 100.575 213.977 100.878C213.977 101.106 214.031 101.311 214.138 101.494C214.252 101.671 214.407 101.832 214.603 101.978C214.799 102.117 215.03 102.253 215.295 102.386C215.567 102.518 215.864 102.648 216.186 102.774C216.812 103.021 217.365 103.293 217.846 103.59C218.326 103.881 218.728 104.209 219.05 104.576C219.372 104.936 219.616 105.344 219.78 105.799C219.944 106.254 220.027 106.772 220.027 107.354C220.027 107.929 219.925 108.454 219.723 108.928C219.527 109.396 219.24 109.8 218.86 110.142C218.481 110.477 218.023 110.736 217.485 110.919C216.954 111.102 216.36 111.194 215.703 111.194C215.064 111.194 214.461 111.106 213.892 110.929C213.323 110.745 212.82 110.47 212.384 110.104C211.954 109.731 211.616 109.26 211.37 108.691C211.123 108.116 211 107.436 211 106.652H213.778C213.778 107.07 213.819 107.427 213.901 107.724C213.984 108.015 214.11 108.248 214.281 108.425C214.451 108.596 214.66 108.726 214.906 108.814C215.159 108.896 215.447 108.937 215.769 108.937C216.136 108.937 216.427 108.868 216.642 108.729C216.863 108.59 217.021 108.403 217.116 108.169C217.21 107.936 217.258 107.67 217.258 107.373Z" fill="white"/>
<path d="M228.484 106.406H231.243C231.205 107.442 230.997 108.318 230.618 109.032C230.238 109.74 229.698 110.277 228.996 110.644C228.301 111.011 227.46 111.194 226.474 111.194C225.709 111.194 225.03 111.068 224.436 110.815C223.841 110.556 223.336 110.176 222.918 109.677C222.501 109.178 222.185 108.561 221.97 107.828C221.762 107.088 221.657 106.238 221.657 105.277V102.936C221.657 101.975 221.768 101.125 221.989 100.385C222.217 99.6454 222.539 99.0259 222.956 98.5265C223.38 98.0209 223.889 97.6416 224.483 97.3887C225.083 97.1296 225.76 97 226.512 97C227.517 97 228.358 97.1896 229.034 97.5689C229.71 97.9482 230.232 98.5013 230.599 99.2282C230.972 99.9488 231.196 100.831 231.272 101.874H228.503C228.484 101.216 228.408 100.701 228.276 100.328C228.149 99.9488 227.947 99.6833 227.669 99.5316C227.391 99.3736 227.005 99.2946 226.512 99.2946C226.145 99.2946 225.829 99.3609 225.564 99.4937C225.298 99.6201 225.08 99.8255 224.91 100.11C224.739 100.394 224.613 100.767 224.53 101.229C224.454 101.69 224.417 102.253 224.417 102.917V105.277C224.417 105.929 224.451 106.485 224.521 106.946C224.59 107.401 224.701 107.774 224.853 108.065C225.004 108.356 225.21 108.568 225.469 108.7C225.735 108.833 226.07 108.899 226.474 108.899C226.942 108.899 227.318 108.83 227.602 108.691C227.893 108.552 228.108 108.302 228.247 107.942C228.386 107.582 228.465 107.07 228.484 106.406Z" fill="white"/>
<path d="M242.678 103.03V105.334C242.678 106.308 242.558 107.161 242.318 107.894C242.084 108.621 241.749 109.231 241.313 109.724C240.883 110.211 240.362 110.578 239.748 110.824C239.142 111.071 238.468 111.194 237.729 111.194C236.989 111.194 236.313 111.071 235.7 110.824C235.093 110.578 234.568 110.211 234.126 109.724C233.69 109.231 233.351 108.621 233.111 107.894C232.871 107.161 232.751 106.308 232.751 105.334V103.03C232.751 102.032 232.868 101.159 233.102 100.413C233.336 99.6612 233.674 99.0354 234.116 98.536C234.559 98.0303 235.083 97.6511 235.69 97.3982C236.297 97.1391 236.97 97.0095 237.71 97.0095C238.449 97.0095 239.123 97.1391 239.729 97.3982C240.336 97.6511 240.861 98.0303 241.303 98.536C241.746 99.0354 242.084 99.6612 242.318 100.413C242.558 101.159 242.678 102.032 242.678 103.03ZM239.919 105.334V103.011C239.919 102.354 239.872 101.795 239.777 101.333C239.682 100.865 239.54 100.483 239.35 100.186C239.161 99.8887 238.93 99.6707 238.658 99.5316C238.386 99.3925 238.07 99.323 237.71 99.323C237.35 99.323 237.03 99.3925 236.752 99.5316C236.48 99.6707 236.25 99.8887 236.06 100.186C235.877 100.483 235.738 100.865 235.643 101.333C235.554 101.795 235.51 102.354 235.51 103.011V105.334C235.51 105.966 235.558 106.507 235.652 106.956C235.747 107.405 235.889 107.771 236.079 108.056C236.269 108.34 236.499 108.552 236.771 108.691C237.049 108.824 237.369 108.89 237.729 108.89C238.083 108.89 238.396 108.824 238.668 108.691C238.946 108.552 239.176 108.34 239.36 108.056C239.543 107.771 239.682 107.405 239.777 106.956C239.872 106.507 239.919 105.966 239.919 105.334Z" fill="white"/>
<path d="M249.401 106.14H246.575V103.836H249.401C249.793 103.836 250.112 103.748 250.358 103.571C250.611 103.394 250.795 103.15 250.908 102.841C251.022 102.525 251.079 102.171 251.079 101.779C251.079 101.381 251.019 101.011 250.899 100.669C250.785 100.322 250.605 100.04 250.358 99.8255C250.118 99.6106 249.799 99.5032 249.401 99.5032H247.467V111.004H244.698V97.1991H249.401C250.33 97.1991 251.13 97.3951 251.8 97.787C252.47 98.1789 252.982 98.7193 253.336 99.4083C253.696 100.091 253.876 100.875 253.876 101.76C253.876 102.651 253.696 103.425 253.336 104.083C252.982 104.734 252.47 105.24 251.8 105.6C251.13 105.96 250.33 106.14 249.401 106.14Z" fill="white"/>
<path d="M263.652 108.71V111.004H257.65V108.71H263.652ZM258.513 97.1991V111.004H255.735V97.1991H258.513ZM262.846 102.793V105.021H257.65V102.793H262.846ZM263.633 97.1991V99.5032H257.65V97.1991H263.633Z" fill="white"/>
<path d="M224.274 136.896H221.838L221.857 134.601H224.274C224.944 134.601 225.466 134.481 225.839 134.241C226.212 134.001 226.474 133.621 226.626 133.103C226.784 132.585 226.863 131.905 226.863 131.064V128.912C226.863 128.274 226.822 127.733 226.74 127.291C226.657 126.842 226.518 126.482 226.322 126.21C226.126 125.932 225.864 125.726 225.535 125.594C225.207 125.461 224.799 125.394 224.312 125.394H221.79V123.09H224.312C225.109 123.09 225.832 123.22 226.484 123.479C227.135 123.738 227.694 124.118 228.162 124.617C228.63 125.11 228.99 125.72 229.243 126.447C229.496 127.174 229.622 128.002 229.622 128.931V131.064C229.622 132 229.496 132.828 229.243 133.549C228.99 134.269 228.63 134.879 228.162 135.379C227.7 135.872 227.141 136.248 226.484 136.507C225.826 136.766 225.09 136.896 224.274 136.896ZM223.449 123.09V136.896H220.671V123.09H223.449Z" fill="white"/>
<path d="M239.568 134.601V136.896H233.566V134.601H239.568ZM234.429 123.09V136.896H231.651V123.09H234.429ZM238.762 128.685V130.913H233.566V128.685H238.762ZM239.549 123.09V125.394H233.566V123.09H239.549Z" fill="white"/>
<path d="M245.485 133.947L248.102 123.09H251.098L247.097 136.896H245.077L245.485 133.947ZM243.247 123.09L245.855 133.947L246.281 136.896H244.252L240.279 123.09H243.247Z" fill="white"/>
<path d="M250.453 135.54C250.453 135.123 250.592 134.775 250.87 134.497C251.149 134.212 251.525 134.07 251.999 134.07C252.473 134.07 252.849 134.212 253.127 134.497C253.405 134.775 253.544 135.123 253.544 135.54C253.544 135.957 253.405 136.305 253.127 136.583C252.849 136.861 252.473 137 251.999 137C251.525 137 251.149 136.861 250.87 136.583C250.592 136.305 250.453 135.957 250.453 135.54Z" fill="white"/>
</g>
<defs>
<clipPath id="clip0_5227_97318">
<rect width="363" height="481.045" fill="white"/>
</clipPath>
</defs>
</svg>
