<svg width="1289" height="674" viewBox="0 0 1289 674" fill="none" xmlns="http://www.w3.org/2000/svg">
<rect y="225" width="226" height="225" rx="112.5" fill="#0B0E29"/>
<rect x="226" y="24" width="626" height="626" rx="313" fill="#FF0049"/>
<rect x="852" y="195" width="285" height="284" rx="142" fill="#00D0F6"/>
<path d="M961.705 320.762H954.656L953.285 326H947.818L955.816 300.406H960.545L968.596 326H963.076L961.705 320.762ZM955.781 316.455H960.562L958.172 307.332L955.781 316.455Z" fill="#0B0E29"/>
<path d="M988.02 323.1C987.023 324.178 985.799 324.992 984.346 325.543C982.904 326.082 981.322 326.352 979.6 326.352C976.658 326.352 974.373 325.443 972.744 323.627C971.115 321.799 970.277 319.145 970.23 315.664V311.059C970.23 307.531 970.998 304.818 972.533 302.92C974.08 301.01 976.33 300.055 979.283 300.055C982.061 300.055 984.152 300.74 985.559 302.111C986.977 303.482 987.797 305.633 988.02 308.562H982.992C982.852 306.934 982.512 305.826 981.973 305.24C981.434 304.643 980.59 304.344 979.441 304.344C978.047 304.344 977.033 304.854 976.4 305.873C975.768 306.893 975.439 308.516 975.416 310.742V315.383C975.416 317.715 975.762 319.414 976.453 320.48C977.156 321.535 978.305 322.062 979.898 322.062C980.918 322.062 981.744 321.857 982.377 321.447L982.834 321.131V316.438H979.213V312.535H988.02V323.1Z" fill="#0B0E29"/>
<path d="M997.072 326H991.904V300.406H997.072V326Z" fill="#0B0E29"/>
<path d="M1006.58 321.711H1015.65V326H1001.41V300.406H1006.58V321.711Z" fill="#0B0E29"/>
<path d="M1031.86 314.926H1023.81V321.711H1033.34V326H1018.64V300.406H1033.3V304.713H1023.81V310.76H1031.86V314.926Z" fill="#0B0E29"/>
<path d="M892.922 346.406L897.756 364.916L902.572 346.406H909.322V372H904.137V365.074L904.611 354.404L899.496 372H895.98L890.865 354.404L891.34 365.074V372H886.172V346.406H892.922Z" fill="#0B0E29"/>
<path d="M926.021 366.762H918.973L917.602 372H912.135L920.133 346.406H924.861L932.912 372H927.393L926.021 366.762ZM920.098 362.455H924.879L922.488 353.332L920.098 362.455Z" fill="#0B0E29"/>
<path d="M940.717 372H935.549V346.406H940.717V372Z" fill="#0B0E29"/>
<path d="M962.953 372H957.785L950.227 355.213V372H945.059V346.406H950.227L957.803 363.211V346.406H962.953V372Z" fill="#0B0E29"/>
<path d="M983.15 350.713H976.822V372H971.637V350.713H965.414V346.406H983.15V350.713Z" fill="#0B0E29"/>
<path d="M999.34 360.926H991.289V367.711H1000.82V372H986.121V346.406H1000.78V350.713H991.289V356.76H999.34V360.926Z" fill="#0B0E29"/>
<path d="M1021.7 372H1016.53L1008.97 355.213V372H1003.8V346.406H1008.97L1016.55 363.211V346.406H1021.7V372Z" fill="#0B0E29"/>
<path d="M1038.38 366.762H1031.33L1029.96 372H1024.49L1032.49 346.406H1037.22L1045.27 372H1039.75L1038.38 366.762ZM1032.46 362.455H1037.24L1034.85 353.332L1032.46 362.455Z" fill="#0B0E29"/>
<path d="M1065.57 372H1060.41L1052.85 355.213V372H1047.68V346.406H1052.85L1060.42 363.211V346.406H1065.57V372Z" fill="#0B0E29"/>
<path d="M1087.07 363.475C1086.94 366.393 1086.12 368.602 1084.61 370.102C1083.1 371.602 1080.97 372.352 1078.21 372.352C1075.32 372.352 1073.1 371.402 1071.55 369.504C1070.02 367.594 1069.25 364.875 1069.25 361.348V357.041C1069.25 353.525 1070.04 350.818 1071.64 348.92C1073.23 347.01 1075.45 346.055 1078.28 346.055C1081.07 346.055 1083.19 346.834 1084.63 348.393C1086.08 349.951 1086.91 352.189 1087.11 355.107H1081.92C1081.88 353.303 1081.59 352.061 1081.08 351.381C1080.57 350.689 1079.64 350.344 1078.28 350.344C1076.9 350.344 1075.92 350.83 1075.35 351.803C1074.77 352.764 1074.47 354.352 1074.43 356.566V361.4C1074.43 363.943 1074.71 365.689 1075.28 366.639C1075.85 367.588 1076.83 368.062 1078.21 368.062C1079.57 368.062 1080.51 367.734 1081.03 367.078C1081.54 366.41 1081.83 365.209 1081.9 363.475H1087.07Z" fill="#0B0E29"/>
<path d="M1103.47 360.926H1095.42V367.711H1104.95V372H1090.25V346.406H1104.91V350.713H1095.42V356.76H1103.47V360.926Z" fill="#0B0E29"/>
<rect x="1137" y="261" width="152" height="152" rx="76" fill="#73909E"/>
<path d="M1192.26 321.816H1195.67C1195.62 323.098 1195.37 324.18 1194.9 325.062C1194.43 325.938 1193.76 326.602 1192.89 327.055C1192.04 327.508 1191 327.734 1189.78 327.734C1188.83 327.734 1187.99 327.578 1187.26 327.266C1186.52 326.945 1185.9 326.477 1185.38 325.859C1184.87 325.242 1184.48 324.48 1184.21 323.574C1183.95 322.66 1183.82 321.609 1183.82 320.422V317.527C1183.82 316.34 1183.96 315.289 1184.23 314.375C1184.52 313.461 1184.91 312.695 1185.43 312.078C1185.95 311.453 1186.58 310.984 1187.32 310.672C1188.06 310.352 1188.89 310.191 1189.82 310.191C1191.07 310.191 1192.11 310.426 1192.94 310.895C1193.78 311.363 1194.42 312.047 1194.88 312.945C1195.34 313.836 1195.61 314.926 1195.71 316.215H1192.29C1192.26 315.402 1192.17 314.766 1192 314.305C1191.85 313.836 1191.6 313.508 1191.25 313.32C1190.91 313.125 1190.43 313.027 1189.82 313.027C1189.37 313.027 1188.98 313.109 1188.65 313.273C1188.32 313.43 1188.05 313.684 1187.84 314.035C1187.63 314.387 1187.48 314.848 1187.38 315.418C1187.28 315.988 1187.23 316.684 1187.23 317.504V320.422C1187.23 321.227 1187.28 321.914 1187.36 322.484C1187.45 323.047 1187.59 323.508 1187.77 323.867C1187.96 324.227 1188.21 324.488 1188.54 324.652C1188.86 324.816 1189.28 324.898 1189.78 324.898C1190.36 324.898 1190.82 324.812 1191.17 324.641C1191.53 324.469 1191.8 324.16 1191.97 323.715C1192.14 323.27 1192.24 322.637 1192.26 321.816Z" fill="white"/>
<path d="M1209.8 317.645V320.492C1209.8 321.695 1209.66 322.75 1209.36 323.656C1209.07 324.555 1208.66 325.309 1208.12 325.918C1207.59 326.52 1206.94 326.973 1206.18 327.277C1205.43 327.582 1204.6 327.734 1203.69 327.734C1202.77 327.734 1201.94 327.582 1201.18 327.277C1200.43 326.973 1199.78 326.52 1199.23 325.918C1198.7 325.309 1198.28 324.555 1197.98 323.656C1197.68 322.75 1197.54 321.695 1197.54 320.492V317.645C1197.54 316.41 1197.68 315.332 1197.97 314.41C1198.26 313.48 1198.68 312.707 1199.22 312.09C1199.77 311.465 1200.42 310.996 1201.17 310.684C1201.92 310.363 1202.75 310.203 1203.66 310.203C1204.58 310.203 1205.41 310.363 1206.16 310.684C1206.91 310.996 1207.56 311.465 1208.11 312.09C1208.65 312.707 1209.07 313.48 1209.36 314.41C1209.66 315.332 1209.8 316.41 1209.8 317.645ZM1206.39 320.492V317.621C1206.39 316.809 1206.34 316.117 1206.22 315.547C1206.1 314.969 1205.93 314.496 1205.69 314.129C1205.46 313.762 1205.17 313.492 1204.84 313.32C1204.5 313.148 1204.11 313.062 1203.66 313.062C1203.22 313.062 1202.82 313.148 1202.48 313.32C1202.14 313.492 1201.86 313.762 1201.62 314.129C1201.4 314.496 1201.23 314.969 1201.11 315.547C1201 316.117 1200.95 316.809 1200.95 317.621V320.492C1200.95 321.273 1201 321.941 1201.12 322.496C1201.24 323.051 1201.41 323.504 1201.65 323.855C1201.88 324.207 1202.17 324.469 1202.5 324.641C1202.85 324.805 1203.24 324.887 1203.69 324.887C1204.12 324.887 1204.51 324.805 1204.85 324.641C1205.19 324.469 1205.48 324.207 1205.7 323.855C1205.93 323.504 1206.1 323.051 1206.22 322.496C1206.34 321.941 1206.39 321.273 1206.39 320.492Z" fill="white"/>
<path d="M1224.23 310.438V327.5H1220.91L1215.56 316.824V327.5H1212.3V310.438H1215.57L1220.97 321.23V310.438H1224.23Z" fill="white"/>
<path d="M1233.44 310.438V327.5H1230.03V310.438H1233.44ZM1237.68 310.438V313.285H1225.87V310.438H1237.68Z" fill="white"/>
<path d="M1236.76 325.824C1236.76 325.309 1236.93 324.879 1237.27 324.535C1237.62 324.184 1238.08 324.008 1238.67 324.008C1239.25 324.008 1239.72 324.184 1240.06 324.535C1240.41 324.879 1240.58 325.309 1240.58 325.824C1240.58 326.34 1240.41 326.77 1240.06 327.113C1239.72 327.457 1239.25 327.629 1238.67 327.629C1238.08 327.629 1237.62 327.457 1237.27 327.113C1236.93 326.77 1236.76 326.34 1236.76 325.824Z" fill="white"/>
<path d="M1174.03 355.012C1174.03 354.707 1174 354.43 1173.95 354.18C1173.89 353.93 1173.77 353.699 1173.59 353.488C1173.42 353.277 1173.17 353.066 1172.83 352.855C1172.5 352.645 1172.07 352.426 1171.54 352.199C1170.91 351.934 1170.3 351.652 1169.7 351.355C1169.11 351.051 1168.57 350.699 1168.1 350.301C1167.62 349.902 1167.24 349.434 1166.96 348.895C1166.69 348.348 1166.55 347.707 1166.55 346.973C1166.55 346.254 1166.68 345.602 1166.94 345.016C1167.2 344.43 1167.58 343.93 1168.06 343.516C1168.55 343.094 1169.11 342.77 1169.76 342.543C1170.42 342.316 1171.15 342.203 1171.95 342.203C1173.05 342.203 1173.99 342.43 1174.79 342.883C1175.59 343.336 1176.21 343.957 1176.65 344.746C1177.1 345.535 1177.32 346.441 1177.32 347.465H1173.9C1173.9 346.98 1173.83 346.555 1173.69 346.188C1173.55 345.812 1173.34 345.52 1173.04 345.309C1172.75 345.098 1172.36 344.992 1171.89 344.992C1171.46 344.992 1171.09 345.082 1170.8 345.262C1170.52 345.434 1170.31 345.672 1170.17 345.977C1170.04 346.273 1169.97 346.609 1169.97 346.984C1169.97 347.266 1170.04 347.52 1170.17 347.746C1170.31 347.965 1170.5 348.164 1170.75 348.344C1170.99 348.516 1171.27 348.684 1171.6 348.848C1171.94 349.012 1172.3 349.172 1172.7 349.328C1173.48 349.633 1174.16 349.969 1174.75 350.336C1175.35 350.695 1175.84 351.102 1176.24 351.555C1176.64 352 1176.94 352.504 1177.14 353.066C1177.35 353.629 1177.45 354.27 1177.45 354.988C1177.45 355.699 1177.32 356.348 1177.07 356.934C1176.83 357.512 1176.48 358.012 1176.01 358.434C1175.54 358.848 1174.97 359.168 1174.31 359.395C1173.65 359.621 1172.92 359.734 1172.11 359.734C1171.32 359.734 1170.57 359.625 1169.87 359.406C1169.16 359.18 1168.54 358.84 1168 358.387C1167.47 357.926 1167.05 357.344 1166.75 356.641C1166.45 355.93 1166.29 355.09 1166.29 354.121H1169.73C1169.73 354.637 1169.78 355.078 1169.88 355.445C1169.98 355.805 1170.14 356.094 1170.35 356.312C1170.56 356.523 1170.82 356.684 1171.12 356.793C1171.43 356.895 1171.79 356.945 1172.19 356.945C1172.64 356.945 1173 356.859 1173.27 356.688C1173.54 356.516 1173.73 356.285 1173.85 355.996C1173.97 355.707 1174.03 355.379 1174.03 355.012Z" fill="white"/>
<path d="M1187.43 342.438H1190.86V354.156C1190.86 355.469 1190.61 356.539 1190.13 357.367C1189.65 358.188 1188.99 358.789 1188.15 359.172C1187.3 359.547 1186.34 359.734 1185.25 359.734C1184.16 359.734 1183.19 359.547 1182.34 359.172C1181.48 358.789 1180.82 358.188 1180.34 357.367C1179.88 356.539 1179.64 355.469 1179.64 354.156V342.438H1183.06V354.156C1183.06 354.898 1183.14 355.469 1183.31 355.867C1183.48 356.266 1183.73 356.539 1184.05 356.688C1184.38 356.828 1184.78 356.898 1185.25 356.898C1185.74 356.898 1186.14 356.828 1186.45 356.688C1186.77 356.539 1187.01 356.266 1187.18 355.867C1187.35 355.469 1187.43 354.898 1187.43 354.156V342.438Z" fill="white"/>
<path d="M1199.29 353.488H1195.8V350.641H1199.29C1199.78 350.641 1200.17 350.531 1200.48 350.312C1200.79 350.094 1201.02 349.793 1201.16 349.41C1201.3 349.02 1201.37 348.582 1201.37 348.098C1201.37 347.605 1201.29 347.148 1201.14 346.727C1201 346.297 1200.78 345.949 1200.48 345.684C1200.18 345.418 1199.79 345.285 1199.29 345.285H1196.9V359.5H1193.48V342.438H1199.29C1200.44 342.438 1201.43 342.68 1202.26 343.164C1203.09 343.648 1203.72 344.316 1204.16 345.168C1204.6 346.012 1204.82 346.98 1204.82 348.074C1204.82 349.176 1204.6 350.133 1204.16 350.945C1203.72 351.75 1203.09 352.375 1202.26 352.82C1201.43 353.266 1200.44 353.488 1199.29 353.488Z" fill="white"/>
<path d="M1212.93 353.488H1209.44V350.641H1212.93C1213.42 350.641 1213.81 350.531 1214.12 350.312C1214.43 350.094 1214.66 349.793 1214.8 349.41C1214.94 349.02 1215.01 348.582 1215.01 348.098C1215.01 347.605 1214.93 347.148 1214.79 346.727C1214.64 346.297 1214.42 345.949 1214.12 345.684C1213.82 345.418 1213.43 345.285 1212.93 345.285H1210.54V359.5H1207.12V342.438H1212.93C1214.08 342.438 1215.07 342.68 1215.9 343.164C1216.73 343.648 1217.36 344.316 1217.8 345.168C1218.24 346.012 1218.46 346.98 1218.46 348.074C1218.46 349.176 1218.24 350.133 1217.8 350.945C1217.36 351.75 1216.73 352.375 1215.9 352.82C1215.07 353.266 1214.08 353.488 1212.93 353.488Z" fill="white"/>
<path d="M1232.75 349.645V352.492C1232.75 353.695 1232.6 354.75 1232.3 355.656C1232.02 356.555 1231.6 357.309 1231.06 357.918C1230.53 358.52 1229.89 358.973 1229.13 359.277C1228.38 359.582 1227.55 359.734 1226.63 359.734C1225.72 359.734 1224.88 359.582 1224.12 359.277C1223.38 358.973 1222.73 358.52 1222.18 357.918C1221.64 357.309 1221.22 356.555 1220.93 355.656C1220.63 354.75 1220.48 353.695 1220.48 352.492V349.645C1220.48 348.41 1220.62 347.332 1220.91 346.41C1221.2 345.48 1221.62 344.707 1222.17 344.09C1222.71 343.465 1223.36 342.996 1224.11 342.684C1224.86 342.363 1225.7 342.203 1226.61 342.203C1227.52 342.203 1228.36 342.363 1229.11 342.684C1229.86 342.996 1230.5 343.465 1231.05 344.09C1231.6 344.707 1232.02 345.48 1232.3 346.41C1232.6 347.332 1232.75 348.41 1232.75 349.645ZM1229.34 352.492V349.621C1229.34 348.809 1229.28 348.117 1229.16 347.547C1229.05 346.969 1228.87 346.496 1228.64 346.129C1228.4 345.762 1228.12 345.492 1227.78 345.32C1227.45 345.148 1227.05 345.062 1226.61 345.062C1226.16 345.062 1225.77 345.148 1225.43 345.32C1225.09 345.492 1224.8 345.762 1224.57 346.129C1224.34 346.496 1224.17 346.969 1224.05 347.547C1223.95 348.117 1223.89 348.809 1223.89 349.621V352.492C1223.89 353.273 1223.95 353.941 1224.07 354.496C1224.18 355.051 1224.36 355.504 1224.59 355.855C1224.83 356.207 1225.11 356.469 1225.45 356.641C1225.79 356.805 1226.19 356.887 1226.63 356.887C1227.07 356.887 1227.46 356.805 1227.79 356.641C1228.14 356.469 1228.42 356.207 1228.65 355.855C1228.88 355.504 1229.05 355.051 1229.16 354.496C1229.28 353.941 1229.34 353.273 1229.34 352.492Z" fill="white"/>
<path d="M1235.26 342.438H1240.73C1241.87 342.438 1242.84 342.633 1243.65 343.023C1244.45 343.414 1245.07 343.992 1245.5 344.758C1245.93 345.523 1246.14 346.469 1246.14 347.594C1246.14 348.516 1246.02 349.305 1245.77 349.961C1245.52 350.609 1245.16 351.152 1244.7 351.59C1244.24 352.02 1243.69 352.363 1243.05 352.621L1242.01 353.242H1237.57L1237.55 350.395H1240.64C1241.11 350.395 1241.49 350.293 1241.8 350.09C1242.11 349.879 1242.34 349.586 1242.49 349.211C1242.64 348.828 1242.72 348.383 1242.72 347.875C1242.72 347.336 1242.65 346.875 1242.51 346.492C1242.38 346.102 1242.16 345.805 1241.87 345.602C1241.58 345.391 1241.2 345.285 1240.73 345.285H1238.69V359.5H1235.26V342.438ZM1243 359.5L1239.88 351.895L1243.47 351.883L1246.67 359.336V359.5H1243Z" fill="white"/>
<path d="M1254.72 342.438V359.5H1251.31V342.438H1254.72ZM1258.96 342.438V345.285H1247.15V342.438H1258.96Z" fill="white"/>
<rect x="1053" y="104" width="133" height="132" rx="66" fill="#2300A6"/>
<path d="M1095.32 156.512C1095.32 156.207 1095.29 155.93 1095.24 155.68C1095.18 155.43 1095.07 155.199 1094.89 154.988C1094.71 154.777 1094.46 154.566 1094.12 154.355C1093.8 154.145 1093.37 153.926 1092.84 153.699C1092.2 153.434 1091.59 153.152 1091 152.855C1090.4 152.551 1089.87 152.199 1089.39 151.801C1088.91 151.402 1088.54 150.934 1088.25 150.395C1087.98 149.848 1087.84 149.207 1087.84 148.473C1087.84 147.754 1087.97 147.102 1088.23 146.516C1088.5 145.93 1088.87 145.43 1089.36 145.016C1089.84 144.594 1090.41 144.27 1091.05 144.043C1091.71 143.816 1092.44 143.703 1093.25 143.703C1094.34 143.703 1095.29 143.93 1096.08 144.383C1096.89 144.836 1097.51 145.457 1097.95 146.246C1098.39 147.035 1098.61 147.941 1098.61 148.965H1095.19C1095.19 148.48 1095.12 148.055 1094.98 147.688C1094.85 147.312 1094.63 147.02 1094.34 146.809C1094.04 146.598 1093.66 146.492 1093.19 146.492C1092.75 146.492 1092.39 146.582 1092.1 146.762C1091.82 146.934 1091.61 147.172 1091.46 147.477C1091.33 147.773 1091.27 148.109 1091.27 148.484C1091.27 148.766 1091.33 149.02 1091.46 149.246C1091.61 149.465 1091.8 149.664 1092.04 149.844C1092.28 150.016 1092.57 150.184 1092.89 150.348C1093.23 150.512 1093.6 150.672 1094 150.828C1094.77 151.133 1095.45 151.469 1096.05 151.836C1096.64 152.195 1097.14 152.602 1097.54 153.055C1097.93 153.5 1098.23 154.004 1098.44 154.566C1098.64 155.129 1098.74 155.77 1098.74 156.488C1098.74 157.199 1098.62 157.848 1098.37 158.434C1098.12 159.012 1097.77 159.512 1097.3 159.934C1096.83 160.348 1096.27 160.668 1095.6 160.895C1094.95 161.121 1094.21 161.234 1093.4 161.234C1092.61 161.234 1091.86 161.125 1091.16 160.906C1090.46 160.68 1089.84 160.34 1089.3 159.887C1088.77 159.426 1088.35 158.844 1088.04 158.141C1087.74 157.43 1087.59 156.59 1087.59 155.621H1091.02C1091.02 156.137 1091.07 156.578 1091.17 156.945C1091.27 157.305 1091.43 157.594 1091.64 157.812C1091.85 158.023 1092.11 158.184 1092.41 158.293C1092.73 158.395 1093.08 158.445 1093.48 158.445C1093.93 158.445 1094.29 158.359 1094.56 158.188C1094.83 158.016 1095.03 157.785 1095.14 157.496C1095.26 157.207 1095.32 156.879 1095.32 156.512Z" fill="white"/>
<path d="M1109.2 155.316H1112.61C1112.56 156.598 1112.3 157.68 1111.83 158.562C1111.36 159.438 1110.7 160.102 1109.83 160.555C1108.97 161.008 1107.93 161.234 1106.71 161.234C1105.77 161.234 1104.93 161.078 1104.19 160.766C1103.46 160.445 1102.83 159.977 1102.32 159.359C1101.8 158.742 1101.41 157.98 1101.14 157.074C1100.89 156.16 1100.76 155.109 1100.76 153.922V151.027C1100.76 149.84 1100.89 148.789 1101.17 147.875C1101.45 146.961 1101.85 146.195 1102.36 145.578C1102.89 144.953 1103.52 144.484 1104.25 144.172C1104.99 143.852 1105.83 143.691 1106.76 143.691C1108 143.691 1109.04 143.926 1109.88 144.395C1110.71 144.863 1111.36 145.547 1111.81 146.445C1112.27 147.336 1112.55 148.426 1112.64 149.715H1109.22C1109.2 148.902 1109.1 148.266 1108.94 147.805C1108.78 147.336 1108.53 147.008 1108.19 146.82C1107.84 146.625 1107.37 146.527 1106.76 146.527C1106.3 146.527 1105.91 146.609 1105.59 146.773C1105.26 146.93 1104.99 147.184 1104.78 147.535C1104.57 147.887 1104.41 148.348 1104.31 148.918C1104.21 149.488 1104.17 150.184 1104.17 151.004V153.922C1104.17 154.727 1104.21 155.414 1104.3 155.984C1104.38 156.547 1104.52 157.008 1104.71 157.367C1104.89 157.727 1105.15 157.988 1105.47 158.152C1105.8 158.316 1106.21 158.398 1106.71 158.398C1107.29 158.398 1107.75 158.312 1108.11 158.141C1108.46 157.969 1108.73 157.66 1108.9 157.215C1109.07 156.77 1109.17 156.137 1109.2 155.316Z" fill="white"/>
<path d="M1126.74 151.145V153.992C1126.74 155.195 1126.59 156.25 1126.29 157.156C1126 158.055 1125.59 158.809 1125.05 159.418C1124.52 160.02 1123.88 160.473 1123.12 160.777C1122.37 161.082 1121.54 161.234 1120.62 161.234C1119.71 161.234 1118.87 161.082 1118.11 160.777C1117.36 160.473 1116.71 160.02 1116.17 159.418C1115.63 158.809 1115.21 158.055 1114.91 157.156C1114.62 156.25 1114.47 155.195 1114.47 153.992V151.145C1114.47 149.91 1114.61 148.832 1114.9 147.91C1115.19 146.98 1115.61 146.207 1116.16 145.59C1116.7 144.965 1117.35 144.496 1118.1 144.184C1118.85 143.863 1119.68 143.703 1120.6 143.703C1121.51 143.703 1122.34 143.863 1123.09 144.184C1123.84 144.496 1124.49 144.965 1125.04 145.59C1125.59 146.207 1126 146.98 1126.29 147.91C1126.59 148.832 1126.74 149.91 1126.74 151.145ZM1123.33 153.992V151.121C1123.33 150.309 1123.27 149.617 1123.15 149.047C1123.04 148.469 1122.86 147.996 1122.62 147.629C1122.39 147.262 1122.11 146.992 1121.77 146.82C1121.43 146.648 1121.04 146.562 1120.6 146.562C1120.15 146.562 1119.76 146.648 1119.41 146.82C1119.08 146.992 1118.79 147.262 1118.56 147.629C1118.33 147.996 1118.16 148.469 1118.04 149.047C1117.93 149.617 1117.88 150.309 1117.88 151.121V153.992C1117.88 154.773 1117.94 155.441 1118.05 155.996C1118.17 156.551 1118.35 157.004 1118.58 157.355C1118.82 157.707 1119.1 157.969 1119.44 158.141C1119.78 158.305 1120.18 158.387 1120.62 158.387C1121.06 158.387 1121.45 158.305 1121.78 158.141C1122.12 157.969 1122.41 157.707 1122.64 157.355C1122.86 157.004 1123.04 156.551 1123.15 155.996C1123.27 155.441 1123.33 154.773 1123.33 153.992Z" fill="white"/>
<path d="M1135.05 154.988H1131.55V152.141H1135.05C1135.53 152.141 1135.93 152.031 1136.23 151.812C1136.54 151.594 1136.77 151.293 1136.91 150.91C1137.05 150.52 1137.12 150.082 1137.12 149.598C1137.12 149.105 1137.05 148.648 1136.9 148.227C1136.76 147.797 1136.54 147.449 1136.23 147.184C1135.93 146.918 1135.54 146.785 1135.05 146.785H1132.66V161H1129.23V143.938H1135.05C1136.2 143.938 1137.18 144.18 1138.01 144.664C1138.84 145.148 1139.47 145.816 1139.91 146.668C1140.36 147.512 1140.58 148.48 1140.58 149.574C1140.58 150.676 1140.36 151.633 1139.91 152.445C1139.47 153.25 1138.84 153.875 1138.01 154.32C1137.18 154.766 1136.2 154.988 1135.05 154.988Z" fill="white"/>
<path d="M1152.66 158.164V161H1145.24V158.164H1152.66ZM1146.31 143.938V161H1142.88V143.938H1146.31ZM1151.66 150.852V153.605H1145.24V150.852H1151.66ZM1152.64 143.938V146.785H1145.24V143.938H1152.64Z" fill="white"/>
<path d="M1103.99 193H1100.98L1101 190.164H1103.99C1104.82 190.164 1105.46 190.016 1105.93 189.719C1106.39 189.422 1106.71 188.953 1106.9 188.312C1107.09 187.672 1107.19 186.832 1107.19 185.793V183.133C1107.19 182.344 1107.14 181.676 1107.04 181.129C1106.94 180.574 1106.77 180.129 1106.52 179.793C1106.28 179.449 1105.96 179.195 1105.55 179.031C1105.14 178.867 1104.64 178.785 1104.04 178.785H1100.92V175.938H1104.04C1105.02 175.938 1105.92 176.098 1106.72 176.418C1107.53 176.738 1108.22 177.207 1108.8 177.824C1109.38 178.434 1109.82 179.188 1110.13 180.086C1110.45 180.984 1110.6 182.008 1110.6 183.156V185.793C1110.6 186.949 1110.45 187.973 1110.13 188.863C1109.82 189.754 1109.38 190.508 1108.8 191.125C1108.23 191.734 1107.54 192.199 1106.72 192.52C1105.91 192.84 1105 193 1103.99 193ZM1102.97 175.938V193H1099.54V175.938H1102.97Z" fill="white"/>
<path d="M1122.89 190.164V193H1115.48V190.164H1122.89ZM1116.54 175.938V193H1113.11V175.938H1116.54ZM1121.9 182.852V185.605H1115.48V182.852H1121.9ZM1122.87 175.938V178.785H1115.48V175.938H1122.87Z" fill="white"/>
<path d="M1130.21 189.355L1133.44 175.938H1137.14L1132.2 193H1129.7L1130.21 189.355ZM1127.44 175.938L1130.66 189.355L1131.19 193H1128.68L1123.77 175.938H1127.44Z" fill="white"/>
<path d="M1136.35 191.324C1136.35 190.809 1136.52 190.379 1136.86 190.035C1137.21 189.684 1137.67 189.508 1138.26 189.508C1138.84 189.508 1139.31 189.684 1139.65 190.035C1140 190.379 1140.17 190.809 1140.17 191.324C1140.17 191.84 1140 192.27 1139.65 192.613C1139.31 192.957 1138.84 193.129 1138.26 193.129C1137.67 193.129 1137.21 192.957 1136.86 192.613C1136.52 192.27 1136.35 191.84 1136.35 191.324Z" fill="white"/>
</svg>
