<svg width="552" height="591" viewBox="0 0 552 591" fill="none" xmlns="http://www.w3.org/2000/svg">
<rect x="-511" y="-18" width="626" height="626" rx="313" fill="#FF0049"/>
<rect x="115" y="153" width="285" height="284" rx="142" fill="#00D0F6"/>
<path d="M222.402 278.768H214.992L213.551 284.274H207.804L216.212 257.37H221.183L229.646 284.274H223.843L222.402 278.768ZM216.175 274.24H221.201L218.688 264.65L216.175 274.24Z" fill="#0B0E29"/>
<path d="M250.064 281.225C249.017 282.359 247.73 283.215 246.202 283.794C244.687 284.36 243.024 284.644 241.213 284.644C238.121 284.644 235.719 283.689 234.007 281.78C232.294 279.858 231.413 277.068 231.364 273.409V268.568C231.364 264.86 232.171 262.008 233.785 260.012C235.411 258.004 237.776 257 240.881 257C243.8 257 245.999 257.721 247.477 259.162C248.968 260.603 249.83 262.864 250.064 265.944H244.78C244.632 264.231 244.274 263.067 243.708 262.451C243.141 261.823 242.254 261.509 241.047 261.509C239.581 261.509 238.515 262.045 237.85 263.116C237.185 264.188 236.84 265.894 236.815 268.235V273.113C236.815 275.565 237.179 277.351 237.906 278.472C238.645 279.581 239.852 280.135 241.527 280.135C242.599 280.135 243.468 279.919 244.133 279.488L244.613 279.156V274.222H240.807V270.12H250.064V281.225Z" fill="#0B0E29"/>
<path d="M259.581 284.274H254.148V257.37H259.581V284.274Z" fill="#0B0E29"/>
<path d="M269.578 279.766H279.113V284.274H264.145V257.37H269.578V279.766Z" fill="#0B0E29"/>
<path d="M296.15 272.633H287.687V279.766H297.702V284.274H282.254V257.37H297.665V261.897H287.687V268.253H296.15V272.633Z" fill="#0B0E29"/>
<path d="M150.096 305.726L155.177 325.184L160.24 305.726H167.336V332.63H161.885V325.35L162.384 314.133L157.007 332.63H153.311L147.934 314.133L148.433 325.35V332.63H143V305.726H150.096Z" fill="#0B0E29"/>
<path d="M184.891 327.124H177.481L176.04 332.63H170.293L178.7 305.726H183.671L192.134 332.63H186.332L184.891 327.124ZM178.663 322.597H183.69L181.177 313.006L178.663 322.597Z" fill="#0B0E29"/>
<path d="M200.339 332.63H194.906V305.726H200.339V332.63Z" fill="#0B0E29"/>
<path d="M223.714 332.63H218.281L210.336 314.983V332.63H204.903V305.726H210.336L218.3 323.391V305.726H223.714V332.63Z" fill="#0B0E29"/>
<path d="M244.946 310.253H238.294V332.63H232.842V310.253H226.301V305.726H244.946V310.253Z" fill="#0B0E29"/>
<path d="M261.965 320.989H253.501V328.122H263.517V332.63H248.069V305.726H263.48V310.253H253.501V316.61H261.965V320.989Z" fill="#0B0E29"/>
<path d="M285.469 332.63H280.037L272.091 314.983V332.63H266.658V305.726H272.091L280.055 323.391V305.726H285.469V332.63Z" fill="#0B0E29"/>
<path d="M303.005 327.124H295.595L294.154 332.63H288.407L296.815 305.726H301.786L310.249 332.63H304.447L303.005 327.124ZM296.778 322.597H301.804L299.291 313.006L296.778 322.597Z" fill="#0B0E29"/>
<path d="M331.592 332.63H326.159L318.213 314.983V332.63H312.78V305.726H318.213L326.177 323.391V305.726H331.592V332.63Z" fill="#0B0E29"/>
<path d="M354.191 323.668C354.055 326.736 353.193 329.058 351.604 330.635C350.015 332.212 347.773 333 344.878 333C341.835 333 339.5 332.002 337.874 330.006C336.26 327.998 335.454 325.14 335.454 321.432V316.905C335.454 313.21 336.291 310.364 337.967 308.368C339.642 306.36 341.97 305.356 344.951 305.356C347.883 305.356 350.107 306.175 351.622 307.814C353.15 309.452 354.018 311.805 354.228 314.873H348.777C348.727 312.975 348.432 311.67 347.89 310.955C347.36 310.228 346.38 309.865 344.951 309.865C343.498 309.865 342.469 310.376 341.866 311.399C341.262 312.409 340.942 314.078 340.905 316.406V321.488C340.905 324.161 341.2 325.997 341.792 326.994C342.395 327.992 343.424 328.491 344.878 328.491C346.307 328.491 347.292 328.146 347.834 327.456C348.376 326.754 348.684 325.492 348.758 323.668H354.191Z" fill="#0B0E29"/>
<path d="M371.431 320.989H362.968V328.122H372.983V332.63H357.535V305.726H372.946V310.253H362.968V316.61H371.431V320.989Z" fill="#0B0E29"/>
<rect x="400" y="219" width="152" height="152" rx="76" fill="#73909E"/>
<path d="M453.353 280.14H457.208C457.155 281.588 456.864 282.811 456.334 283.809C455.804 284.798 455.049 285.549 454.069 286.061C453.097 286.573 451.923 286.829 450.545 286.829C449.477 286.829 448.527 286.653 447.697 286.3C446.867 285.937 446.161 285.408 445.578 284.71C444.995 284.012 444.553 283.151 444.253 282.127C443.962 281.094 443.816 279.906 443.816 278.564V275.292C443.816 273.95 443.971 272.762 444.28 271.729C444.598 270.696 445.048 269.83 445.631 269.133C446.223 268.426 446.933 267.896 447.763 267.543C448.602 267.181 449.547 267 450.598 267C452.002 267 453.177 267.265 454.122 267.795C455.066 268.325 455.795 269.097 456.307 270.113C456.828 271.12 457.142 272.351 457.248 273.808H453.38C453.353 272.89 453.247 272.17 453.062 271.649C452.885 271.12 452.603 270.749 452.214 270.537C451.826 270.316 451.287 270.206 450.598 270.206C450.086 270.206 449.644 270.298 449.274 270.484C448.903 270.66 448.598 270.947 448.36 271.345C448.121 271.742 447.944 272.263 447.83 272.908C447.724 273.552 447.671 274.338 447.671 275.266V278.564C447.671 279.473 447.719 280.25 447.816 280.895C447.914 281.531 448.068 282.052 448.28 282.458C448.492 282.864 448.779 283.16 449.141 283.346C449.512 283.531 449.98 283.624 450.545 283.624C451.199 283.624 451.724 283.527 452.121 283.332C452.528 283.138 452.828 282.789 453.022 282.286C453.216 281.783 453.327 281.067 453.353 280.14Z" fill="white"/>
<path d="M473.183 275.425V278.643C473.183 280.003 473.015 281.195 472.679 282.22C472.353 283.235 471.885 284.087 471.275 284.776C470.675 285.456 469.946 285.968 469.09 286.313C468.242 286.657 467.301 286.829 466.268 286.829C465.235 286.829 464.29 286.657 463.434 286.313C462.586 285.968 461.853 285.456 461.235 284.776C460.625 284.087 460.153 283.235 459.817 282.22C459.482 281.195 459.314 280.003 459.314 278.643V275.425C459.314 274.029 459.477 272.811 459.804 271.769C460.131 270.718 460.603 269.843 461.221 269.146C461.84 268.439 462.573 267.91 463.42 267.556C464.268 267.194 465.209 267.013 466.242 267.013C467.275 267.013 468.215 267.194 469.063 267.556C469.911 267.91 470.644 268.439 471.262 269.146C471.88 269.843 472.353 270.718 472.679 271.769C473.015 272.811 473.183 274.029 473.183 275.425ZM469.328 278.643V275.398C469.328 274.48 469.262 273.698 469.129 273.053C468.997 272.4 468.798 271.866 468.533 271.451C468.268 271.036 467.946 270.731 467.566 270.537C467.187 270.342 466.745 270.245 466.242 270.245C465.738 270.245 465.292 270.342 464.904 270.537C464.524 270.731 464.202 271.036 463.937 271.451C463.681 271.866 463.487 272.4 463.354 273.053C463.23 273.698 463.169 274.48 463.169 275.398V278.643C463.169 279.526 463.235 280.281 463.367 280.908C463.5 281.535 463.699 282.048 463.963 282.445C464.228 282.842 464.551 283.138 464.93 283.332C465.319 283.518 465.765 283.611 466.268 283.611C466.763 283.611 467.2 283.518 467.58 283.332C467.968 283.138 468.29 282.842 468.547 282.445C468.803 282.048 468.997 281.535 469.129 280.908C469.262 280.281 469.328 279.526 469.328 278.643Z" fill="white"/>
<path d="M489.489 267.278V286.564H485.74L479.687 274.497V286.564H476.004V267.278H479.7L485.806 279.478V267.278H489.489Z" fill="white"/>
<path d="M499.9 267.278V286.564H496.045V267.278H499.9ZM504.695 267.278V270.497H491.343V267.278H504.695Z" fill="white"/>
<path d="M503.649 284.67C503.649 284.087 503.843 283.602 504.232 283.213C504.62 282.816 505.145 282.617 505.808 282.617C506.47 282.617 506.996 282.816 507.384 283.213C507.773 283.602 507.967 284.087 507.967 284.67C507.967 285.253 507.773 285.739 507.384 286.127C506.996 286.516 506.47 286.71 505.808 286.71C505.145 286.71 504.62 286.516 504.232 286.127C503.843 285.739 503.649 285.253 503.649 284.67Z" fill="white"/>
<path d="M432.742 317.662C432.742 317.317 432.712 317.004 432.65 316.721C432.588 316.439 432.455 316.178 432.252 315.94C432.058 315.701 431.771 315.463 431.391 315.225C431.02 314.986 430.535 314.739 429.934 314.483C429.219 314.183 428.526 313.865 427.855 313.529C427.183 313.185 426.579 312.787 426.04 312.337C425.501 311.887 425.073 311.357 424.755 310.747C424.446 310.129 424.291 309.405 424.291 308.575C424.291 307.763 424.437 307.025 424.729 306.363C425.029 305.701 425.453 305.135 426 304.667C426.548 304.191 427.188 303.824 427.921 303.568C428.663 303.312 429.488 303.184 430.398 303.184C431.634 303.184 432.703 303.44 433.603 303.952C434.513 304.464 435.215 305.166 435.71 306.058C436.213 306.95 436.465 307.975 436.465 309.131H432.597C432.597 308.584 432.517 308.103 432.358 307.688C432.208 307.264 431.965 306.933 431.63 306.694C431.294 306.456 430.861 306.336 430.332 306.336C429.837 306.336 429.426 306.438 429.1 306.641C428.782 306.835 428.543 307.105 428.384 307.449C428.234 307.785 428.159 308.164 428.159 308.588C428.159 308.906 428.234 309.193 428.384 309.449C428.543 309.697 428.76 309.922 429.034 310.125C429.307 310.319 429.63 310.509 430 310.694C430.38 310.88 430.795 311.061 431.246 311.237C432.12 311.582 432.893 311.962 433.564 312.377C434.235 312.783 434.796 313.242 435.246 313.754C435.696 314.258 436.036 314.827 436.266 315.463C436.495 316.099 436.61 316.823 436.61 317.635C436.61 318.439 436.469 319.172 436.186 319.834C435.913 320.488 435.511 321.053 434.981 321.53C434.451 321.998 433.811 322.36 433.06 322.616C432.319 322.872 431.488 323 430.57 323C429.678 323 428.835 322.876 428.04 322.629C427.245 322.373 426.543 321.989 425.934 321.477C425.333 320.956 424.861 320.298 424.517 319.503C424.172 318.699 424 317.75 424 316.655H427.881C427.881 317.238 427.939 317.737 428.053 318.152C428.168 318.558 428.345 318.885 428.583 319.132C428.822 319.371 429.113 319.552 429.457 319.675C429.811 319.79 430.212 319.847 430.663 319.847C431.175 319.847 431.581 319.75 431.881 319.556C432.19 319.362 432.411 319.101 432.544 318.775C432.676 318.448 432.742 318.077 432.742 317.662Z" fill="white"/>
<path d="M447.896 303.449H451.764V316.695C451.764 318.178 451.49 319.388 450.943 320.324C450.404 321.252 449.658 321.931 448.704 322.364C447.75 322.788 446.66 323 445.432 323C444.196 323 443.096 322.788 442.134 322.364C441.171 321.931 440.421 321.252 439.882 320.324C439.352 319.388 439.087 318.178 439.087 316.695V303.449H442.955V316.695C442.955 317.534 443.048 318.178 443.233 318.629C443.428 319.079 443.706 319.388 444.068 319.556C444.439 319.715 444.893 319.794 445.432 319.794C445.98 319.794 446.43 319.715 446.783 319.556C447.145 319.388 447.419 319.079 447.605 318.629C447.799 318.178 447.896 317.534 447.896 316.695V303.449Z" fill="white"/>
<path d="M461.301 315.94H457.354V312.721H461.301C461.848 312.721 462.294 312.597 462.639 312.35C462.992 312.103 463.248 311.763 463.407 311.33C463.566 310.889 463.646 310.394 463.646 309.847C463.646 309.29 463.562 308.774 463.394 308.297C463.235 307.811 462.983 307.418 462.639 307.118C462.303 306.818 461.857 306.668 461.301 306.668H458.599V322.735H454.731V303.449H461.301C462.599 303.449 463.716 303.723 464.652 304.27C465.588 304.818 466.304 305.573 466.798 306.535C467.301 307.489 467.553 308.584 467.553 309.82C467.553 311.065 467.301 312.147 466.798 313.065C466.304 313.975 465.588 314.681 464.652 315.185C463.716 315.688 462.599 315.94 461.301 315.94Z" fill="white"/>
<path d="M476.719 315.94H472.772V312.721H476.719C477.267 312.721 477.713 312.597 478.057 312.35C478.41 312.103 478.667 311.763 478.826 311.33C478.984 310.889 479.064 310.394 479.064 309.847C479.064 309.29 478.98 308.774 478.812 308.297C478.653 307.811 478.402 307.418 478.057 307.118C477.722 306.818 477.276 306.668 476.719 306.668H474.017V322.735H470.149V303.449H476.719C478.018 303.449 479.135 303.723 480.071 304.27C481.007 304.818 481.722 305.573 482.217 306.535C482.72 307.489 482.972 308.584 482.972 309.82C482.972 311.065 482.72 312.147 482.217 313.065C481.722 313.975 481.007 314.681 480.071 315.185C479.135 315.688 478.018 315.94 476.719 315.94Z" fill="white"/>
<path d="M499.119 311.595V314.814C499.119 316.174 498.951 317.366 498.615 318.39C498.288 319.406 497.82 320.258 497.211 320.947C496.611 321.627 495.882 322.139 495.025 322.483C494.178 322.828 493.237 323 492.204 323C491.171 323 490.226 322.828 489.369 322.483C488.522 322.139 487.789 321.627 487.171 320.947C486.561 320.258 486.089 319.406 485.753 318.39C485.418 317.366 485.25 316.174 485.25 314.814V311.595C485.25 310.2 485.413 308.981 485.74 307.939C486.067 306.888 486.539 306.014 487.157 305.316C487.775 304.61 488.508 304.08 489.356 303.727C490.204 303.365 491.144 303.184 492.178 303.184C493.211 303.184 494.151 303.365 494.999 303.727C495.847 304.08 496.58 304.61 497.198 305.316C497.816 306.014 498.288 306.888 498.615 307.939C498.951 308.981 499.119 310.2 499.119 311.595ZM495.264 314.814V311.569C495.264 310.65 495.198 309.869 495.065 309.224C494.933 308.571 494.734 308.036 494.469 307.621C494.204 307.206 493.882 306.902 493.502 306.707C493.122 306.513 492.681 306.416 492.178 306.416C491.674 306.416 491.228 306.513 490.84 306.707C490.46 306.902 490.138 307.206 489.873 307.621C489.617 308.036 489.422 308.571 489.29 309.224C489.166 309.869 489.104 310.65 489.104 311.569V314.814C489.104 315.697 489.171 316.452 489.303 317.079C489.436 317.706 489.634 318.218 489.899 318.616C490.164 319.013 490.486 319.309 490.866 319.503C491.255 319.688 491.701 319.781 492.204 319.781C492.699 319.781 493.136 319.688 493.515 319.503C493.904 319.309 494.226 319.013 494.482 318.616C494.738 318.218 494.933 317.706 495.065 317.079C495.198 316.452 495.264 315.697 495.264 314.814Z" fill="white"/>
<path d="M501.953 303.449H508.139C509.428 303.449 510.528 303.67 511.437 304.111C512.347 304.553 513.045 305.206 513.53 306.072C514.016 306.937 514.259 308.005 514.259 309.277C514.259 310.319 514.117 311.211 513.835 311.953C513.552 312.686 513.151 313.299 512.63 313.794C512.109 314.28 511.486 314.668 510.762 314.96L509.583 315.662H504.563L504.549 312.443H508.033C508.563 312.443 509 312.328 509.344 312.098C509.698 311.86 509.958 311.529 510.126 311.105C510.303 310.672 510.391 310.169 510.391 309.595C510.391 308.986 510.311 308.465 510.153 308.032C510.002 307.59 509.76 307.255 509.424 307.025C509.097 306.787 508.669 306.668 508.139 306.668H505.834V322.735H501.953V303.449ZM510.709 322.735L507.172 314.138L511.239 314.125L514.855 322.55V322.735H510.709Z" fill="white"/>
<path d="M523.955 303.449V322.735H520.1V303.449H523.955ZM528.75 303.449V306.668H515.398V303.449H528.75Z" fill="white"/>
<rect x="316" y="62" width="133" height="132" rx="66" fill="#2300A6"/>
<path d="M354.761 114.522C354.761 114.177 354.73 113.863 354.668 113.58C354.606 113.296 354.473 113.035 354.27 112.796C354.075 112.558 353.788 112.319 353.407 112.08C353.035 111.841 352.549 111.593 351.947 111.336C351.23 111.035 350.535 110.717 349.863 110.381C349.19 110.035 348.584 109.637 348.044 109.186C347.504 108.735 347.075 108.204 346.757 107.593C346.447 106.973 346.292 106.248 346.292 105.416C346.292 104.602 346.438 103.863 346.73 103.199C347.031 102.535 347.456 101.969 348.004 101.5C348.553 101.022 349.195 100.655 349.929 100.398C350.673 100.142 351.5 100.013 352.412 100.013C353.65 100.013 354.721 100.27 355.624 100.783C356.535 101.296 357.239 102 357.735 102.894C358.239 103.788 358.491 104.814 358.491 105.973H354.615C354.615 105.425 354.535 104.942 354.376 104.527C354.226 104.102 353.982 103.77 353.646 103.531C353.31 103.292 352.876 103.173 352.345 103.173C351.85 103.173 351.438 103.274 351.111 103.478C350.792 103.673 350.553 103.942 350.394 104.288C350.243 104.624 350.168 105.004 350.168 105.429C350.168 105.748 350.243 106.035 350.394 106.292C350.553 106.54 350.77 106.765 351.044 106.969C351.319 107.164 351.642 107.354 352.013 107.54C352.394 107.726 352.81 107.907 353.261 108.084C354.137 108.429 354.912 108.81 355.584 109.226C356.257 109.633 356.819 110.093 357.27 110.606C357.721 111.111 358.062 111.681 358.292 112.319C358.522 112.956 358.637 113.681 358.637 114.496C358.637 115.301 358.496 116.035 358.212 116.699C357.938 117.354 357.535 117.92 357.004 118.398C356.473 118.867 355.832 119.23 355.08 119.487C354.336 119.743 353.504 119.872 352.584 119.872C351.69 119.872 350.845 119.748 350.049 119.5C349.252 119.243 348.549 118.858 347.938 118.345C347.336 117.823 346.863 117.164 346.518 116.367C346.173 115.562 346 114.611 346 113.513H349.889C349.889 114.097 349.947 114.597 350.062 115.013C350.177 115.42 350.354 115.748 350.593 115.996C350.832 116.235 351.124 116.416 351.469 116.54C351.823 116.655 352.226 116.712 352.677 116.712C353.19 116.712 353.597 116.615 353.898 116.42C354.208 116.226 354.429 115.965 354.562 115.637C354.695 115.31 354.761 114.938 354.761 114.522Z" fill="white"/>
<path d="M370.478 113.168H374.341C374.288 114.619 373.996 115.845 373.465 116.845C372.934 117.836 372.177 118.588 371.195 119.102C370.221 119.615 369.044 119.872 367.664 119.872C366.593 119.872 365.642 119.695 364.81 119.341C363.978 118.978 363.27 118.447 362.686 117.748C362.102 117.049 361.659 116.186 361.358 115.159C361.066 114.124 360.92 112.934 360.92 111.588V108.31C360.92 106.965 361.075 105.774 361.385 104.739C361.704 103.704 362.155 102.836 362.739 102.137C363.332 101.429 364.044 100.898 364.876 100.544C365.717 100.181 366.664 100 367.717 100C369.124 100 370.301 100.265 371.248 100.796C372.195 101.327 372.925 102.102 373.438 103.119C373.96 104.128 374.274 105.363 374.381 106.823H370.504C370.478 105.903 370.372 105.181 370.186 104.659C370.009 104.128 369.726 103.757 369.336 103.544C368.947 103.323 368.407 103.212 367.717 103.212C367.204 103.212 366.761 103.305 366.389 103.491C366.018 103.668 365.712 103.956 365.473 104.354C365.235 104.752 365.058 105.274 364.942 105.92C364.836 106.566 364.783 107.354 364.783 108.283V111.588C364.783 112.5 364.832 113.279 364.929 113.925C365.027 114.562 365.181 115.084 365.394 115.491C365.606 115.898 365.894 116.195 366.257 116.381C366.628 116.566 367.097 116.659 367.664 116.659C368.319 116.659 368.845 116.562 369.243 116.367C369.65 116.173 369.951 115.823 370.146 115.319C370.341 114.814 370.451 114.097 370.478 113.168Z" fill="white"/>
<path d="M390.35 108.442V111.668C390.35 113.031 390.181 114.226 389.845 115.252C389.518 116.27 389.049 117.124 388.438 117.814C387.836 118.496 387.106 119.009 386.248 119.354C385.398 119.699 384.456 119.872 383.42 119.872C382.385 119.872 381.438 119.699 380.58 119.354C379.73 119.009 378.996 118.496 378.376 117.814C377.765 117.124 377.292 116.27 376.956 115.252C376.619 114.226 376.451 113.031 376.451 111.668V108.442C376.451 107.044 376.615 105.823 376.942 104.779C377.27 103.726 377.743 102.85 378.363 102.15C378.982 101.442 379.717 100.912 380.566 100.558C381.416 100.195 382.358 100.013 383.394 100.013C384.429 100.013 385.372 100.195 386.221 100.558C387.071 100.912 387.805 101.442 388.425 102.15C389.044 102.85 389.518 103.726 389.845 104.779C390.181 105.823 390.35 107.044 390.35 108.442ZM386.487 111.668V108.416C386.487 107.496 386.42 106.712 386.288 106.066C386.155 105.412 385.956 104.876 385.69 104.46C385.425 104.044 385.102 103.739 384.721 103.544C384.341 103.35 383.898 103.252 383.394 103.252C382.889 103.252 382.442 103.35 382.053 103.544C381.673 103.739 381.35 104.044 381.084 104.46C380.827 104.876 380.633 105.412 380.5 106.066C380.376 106.712 380.314 107.496 380.314 108.416V111.668C380.314 112.553 380.381 113.31 380.513 113.938C380.646 114.566 380.845 115.08 381.111 115.478C381.376 115.876 381.699 116.173 382.08 116.367C382.469 116.553 382.916 116.646 383.42 116.646C383.916 116.646 384.354 116.553 384.735 116.367C385.124 116.173 385.447 115.876 385.704 115.478C385.96 115.08 386.155 114.566 386.288 113.938C386.42 113.31 386.487 112.553 386.487 111.668Z" fill="white"/>
<path d="M399.761 112.796H395.805V109.571H399.761C400.31 109.571 400.757 109.447 401.102 109.199C401.456 108.951 401.712 108.611 401.872 108.177C402.031 107.735 402.111 107.239 402.111 106.69C402.111 106.133 402.027 105.615 401.858 105.137C401.699 104.65 401.447 104.257 401.102 103.956C400.765 103.655 400.319 103.504 399.761 103.504H397.053V119.606H393.177V100.279H399.761C401.062 100.279 402.181 100.553 403.119 101.102C404.058 101.65 404.774 102.407 405.27 103.372C405.774 104.327 406.027 105.425 406.027 106.664C406.027 107.912 405.774 108.996 405.27 109.916C404.774 110.827 404.058 111.535 403.119 112.04C402.181 112.544 401.062 112.796 399.761 112.796Z" fill="white"/>
<path d="M419.712 116.394V119.606H411.31V116.394H419.712ZM412.518 100.279V119.606H408.628V100.279H412.518ZM418.584 108.111V111.23H411.31V108.111H418.584ZM419.686 100.279V103.504H411.31V100.279H419.686Z" fill="white"/>
<path d="M364.584 155.854H361.173L361.199 152.642H364.584C365.522 152.642 366.252 152.473 366.774 152.137C367.296 151.801 367.664 151.27 367.876 150.544C368.097 149.819 368.208 148.867 368.208 147.69V144.677C368.208 143.783 368.15 143.027 368.035 142.407C367.92 141.779 367.726 141.274 367.451 140.894C367.177 140.504 366.81 140.217 366.35 140.031C365.889 139.845 365.319 139.752 364.637 139.752H361.106V136.527H364.637C365.752 136.527 366.765 136.708 367.677 137.071C368.588 137.434 369.372 137.965 370.027 138.664C370.681 139.354 371.186 140.208 371.54 141.226C371.894 142.243 372.071 143.403 372.071 144.704V147.69C372.071 149 371.894 150.159 371.54 151.168C371.186 152.177 370.681 153.031 370.027 153.73C369.381 154.42 368.597 154.947 367.677 155.31C366.757 155.673 365.726 155.854 364.584 155.854ZM363.429 136.527V155.854H359.54V136.527H363.429Z" fill="white"/>
<path d="M385.996 152.642V155.854H377.593V152.642H385.996ZM378.801 136.527V155.854H374.912V136.527H378.801ZM384.867 144.358V147.478H377.593V144.358H384.867ZM385.969 136.527V139.752H377.593V136.527H385.969Z" fill="white"/>
<path d="M394.279 151.726L397.942 136.527H402.137L396.535 155.854H393.708L394.279 151.726ZM391.146 136.527L394.796 151.726L395.394 155.854H392.553L386.991 136.527H391.146Z" fill="white"/>
<path d="M401.235 153.956C401.235 153.372 401.429 152.885 401.819 152.496C402.208 152.097 402.735 151.898 403.398 151.898C404.062 151.898 404.588 152.097 404.978 152.496C405.367 152.885 405.562 153.372 405.562 153.956C405.562 154.54 405.367 155.027 404.978 155.416C404.588 155.805 404.062 156 403.398 156C402.735 156 402.208 155.805 401.819 155.416C401.429 155.027 401.235 154.54 401.235 153.956Z" fill="white"/>
</svg>
