<svg width="289" height="320" viewBox="0 0 289 320" fill="none" xmlns="http://www.w3.org/2000/svg">
<g clip-path="url(#clip0_5227_97307)">
<rect x="-50" y="-344.439" width="390" height="390" rx="195" fill="#FF0049"/>
<rect x="56" y="45.5605" width="177" height="176" rx="88" fill="#00D0F6"/>
<path d="M121.402 113.091L117.96 126.245H114.561L119.565 110.231H121.688L121.402 113.091ZM124.119 126.245L120.654 113.091L120.335 110.231H122.491L127.539 126.245H124.119ZM124.24 120.273V122.945H117.014V120.273H124.24Z" fill="#0B0E29"/>
<path d="M139.704 117.831V124.43C139.476 124.672 139.143 124.954 138.703 125.277C138.27 125.592 137.702 125.871 136.998 126.113C136.302 126.348 135.451 126.465 134.446 126.465C133.559 126.465 132.753 126.326 132.027 126.047C131.308 125.768 130.689 125.347 130.168 124.782C129.655 124.21 129.262 123.499 128.991 122.648C128.72 121.79 128.584 120.775 128.584 119.602V116.874C128.584 115.716 128.713 114.707 128.969 113.85C129.233 112.984 129.614 112.266 130.113 111.694C130.612 111.122 131.206 110.697 131.895 110.418C132.591 110.139 133.376 110 134.248 110C135.451 110 136.437 110.202 137.207 110.605C137.984 111.008 138.571 111.606 138.967 112.398C139.37 113.19 139.612 114.161 139.693 115.312H136.58C136.529 114.638 136.415 114.11 136.239 113.729C136.071 113.347 135.832 113.076 135.524 112.915C135.216 112.746 134.817 112.662 134.325 112.662C133.9 112.662 133.53 112.739 133.215 112.893C132.899 113.039 132.635 113.281 132.423 113.619C132.21 113.956 132.052 114.388 131.95 114.916C131.847 115.444 131.796 116.09 131.796 116.852V119.602C131.796 120.357 131.854 121.002 131.972 121.538C132.089 122.073 132.261 122.509 132.489 122.846C132.723 123.184 133.017 123.429 133.369 123.583C133.728 123.73 134.149 123.803 134.633 123.803C135.022 123.803 135.334 123.763 135.568 123.682C135.803 123.602 135.99 123.517 136.129 123.429C136.276 123.334 136.397 123.261 136.492 123.209V120.262H134.193V117.831H139.704Z" fill="#0B0E29"/>
<path d="M145.368 110.231V126.245H142.167V110.231H145.368Z" fill="#0B0E29"/>
<path d="M157.005 123.583V126.245H150.35V123.583H157.005ZM151.34 110.231V126.245H148.118V110.231H151.34Z" fill="#0B0E29"/>
<path d="M168.08 123.583V126.245H161.118V123.583H168.08ZM162.119 110.231V126.245H158.896V110.231H162.119ZM167.145 116.72V119.305H161.118V116.72H167.145ZM168.058 110.231V112.904H161.118V110.231H168.058Z" fill="#0B0E29"/>
<path d="M77.1439 141.766H79.9705L83.2371 152.721L86.4926 141.766H88.9893L84.4359 157.78H82.0272L77.1439 141.766ZM76 141.766H78.6947L79.1126 152.325V157.78H76V141.766ZM87.7575 141.766H90.4631V157.78H87.3615V152.325L87.7575 141.766Z" fill="#0B0E29"/>
<path d="M99.086 144.626L95.6435 157.78H92.2449L97.2493 141.766H99.372L99.086 144.626ZM101.803 157.78L98.3381 144.626L98.0192 141.766H100.175L105.223 157.78H101.803ZM101.924 151.808V154.48H94.6976V151.808H101.924Z" fill="#0B0E29"/>
<path d="M110.096 141.766V157.78H106.895V141.766H110.096Z" fill="#0B0E29"/>
<path d="M124.042 141.766V157.78H120.929L115.903 147.76V157.78H112.845V141.766H115.914L120.984 151.896V141.766H124.042Z" fill="#0B0E29"/>
<path d="M132.687 141.766V157.78H129.486V141.766H132.687ZM136.668 141.766V144.439H125.582V141.766H136.668Z" fill="#0B0E29"/>
<path d="M147.722 155.118V157.78H140.76V155.118H147.722ZM141.761 141.766V157.78H138.538V141.766H141.761ZM146.787 148.255V150.84H140.76V148.255H146.787ZM147.7 141.766V144.439H140.76V141.766H147.7Z" fill="#0B0E29"/>
<path d="M160.799 141.766V157.78H157.686L152.66 147.76V157.78H149.602V141.766H152.671L157.741 151.896V141.766H160.799Z" fill="#0B0E29"/>
<path d="M169.389 144.626L165.946 157.78H162.548L167.552 141.766H169.675L169.389 144.626ZM172.106 157.78L168.641 144.626L168.322 141.766H170.478L175.526 157.78H172.106ZM172.227 151.808V154.48H165.001V151.808H172.227Z" fill="#0B0E29"/>
<path d="M188.252 141.766V157.78H185.139L180.113 147.76V157.78H177.055V141.766H180.124L185.194 151.896V141.766H188.252Z" fill="#0B0E29"/>
<path d="M198.48 152.446H201.681C201.637 153.648 201.395 154.664 200.955 155.492C200.515 156.314 199.888 156.937 199.074 157.362C198.268 157.787 197.292 158 196.148 158C195.261 158 194.473 157.853 193.784 157.56C193.095 157.259 192.508 156.819 192.024 156.24C191.54 155.661 191.173 154.946 190.924 154.096C190.682 153.238 190.561 152.251 190.561 151.137V148.42C190.561 147.306 190.69 146.32 190.946 145.462C191.21 144.604 191.584 143.885 192.068 143.306C192.559 142.719 193.15 142.279 193.839 141.986C194.535 141.685 195.32 141.535 196.192 141.535C197.358 141.535 198.334 141.755 199.118 142.195C199.903 142.635 200.508 143.277 200.933 144.12C201.365 144.956 201.626 145.979 201.714 147.188H198.502C198.48 146.426 198.392 145.828 198.238 145.396C198.092 144.956 197.857 144.648 197.534 144.472C197.212 144.288 196.764 144.197 196.192 144.197C195.767 144.197 195.401 144.274 195.093 144.428C194.785 144.574 194.532 144.813 194.334 145.143C194.136 145.473 193.989 145.905 193.894 146.44C193.806 146.976 193.762 147.628 193.762 148.398V151.137C193.762 151.892 193.802 152.537 193.883 153.073C193.963 153.601 194.092 154.033 194.268 154.37C194.444 154.708 194.682 154.953 194.983 155.107C195.291 155.261 195.679 155.338 196.148 155.338C196.691 155.338 197.127 155.258 197.457 155.096C197.795 154.935 198.044 154.645 198.205 154.227C198.367 153.81 198.458 153.216 198.48 152.446Z" fill="#0B0E29"/>
<path d="M212.877 155.118V157.78H205.915V155.118H212.877ZM206.916 141.766V157.78H203.694V141.766H206.916ZM211.942 148.255V150.84H205.915V148.255H211.942ZM212.855 141.766V144.439H205.915V141.766H212.855Z" fill="#0B0E29"/>
<rect x="199" y="176.561" width="90" height="90" rx="45" fill="#2300A6"/>
<path d="M225.789 211.596C225.789 211.368 225.769 211.161 225.728 210.974C225.687 210.787 225.599 210.614 225.465 210.456C225.336 210.298 225.146 210.14 224.895 209.982C224.649 209.825 224.327 209.661 223.93 209.491C223.456 209.292 222.997 209.082 222.553 208.86C222.108 208.632 221.708 208.368 221.351 208.07C220.994 207.772 220.711 207.421 220.5 207.018C220.295 206.608 220.193 206.129 220.193 205.579C220.193 205.041 220.289 204.553 220.482 204.114C220.681 203.675 220.962 203.301 221.325 202.991C221.687 202.675 222.111 202.433 222.596 202.263C223.088 202.094 223.635 202.009 224.237 202.009C225.056 202.009 225.763 202.178 226.36 202.518C226.962 202.857 227.427 203.322 227.754 203.912C228.088 204.503 228.254 205.181 228.254 205.947H225.693C225.693 205.585 225.64 205.266 225.535 204.991C225.436 204.711 225.275 204.491 225.053 204.333C224.83 204.175 224.544 204.096 224.193 204.096C223.865 204.096 223.594 204.164 223.377 204.298C223.167 204.427 223.009 204.605 222.904 204.833C222.804 205.056 222.754 205.307 222.754 205.588C222.754 205.798 222.804 205.988 222.904 206.158C223.009 206.322 223.152 206.471 223.333 206.605C223.515 206.734 223.728 206.86 223.974 206.982C224.225 207.105 224.5 207.225 224.798 207.342C225.377 207.57 225.889 207.822 226.333 208.096C226.778 208.365 227.149 208.67 227.447 209.009C227.746 209.342 227.971 209.719 228.123 210.14C228.275 210.561 228.351 211.041 228.351 211.579C228.351 212.111 228.257 212.596 228.07 213.035C227.889 213.468 227.623 213.842 227.272 214.158C226.921 214.468 226.497 214.708 226 214.877C225.509 215.047 224.959 215.132 224.351 215.132C223.76 215.132 223.202 215.05 222.675 214.886C222.149 214.716 221.684 214.462 221.281 214.123C220.883 213.778 220.57 213.342 220.342 212.816C220.114 212.284 220 211.655 220 210.93H222.57C222.57 211.316 222.608 211.646 222.684 211.921C222.76 212.19 222.877 212.406 223.035 212.57C223.193 212.728 223.386 212.848 223.614 212.93C223.848 213.006 224.114 213.044 224.412 213.044C224.751 213.044 225.02 212.98 225.219 212.851C225.424 212.722 225.57 212.55 225.658 212.333C225.746 212.117 225.789 211.871 225.789 211.596Z" fill="white"/>
<path d="M236.175 210.702H238.728C238.693 211.661 238.5 212.471 238.149 213.132C237.798 213.787 237.298 214.284 236.649 214.623C236.006 214.962 235.228 215.132 234.316 215.132C233.608 215.132 232.98 215.015 232.43 214.781C231.88 214.541 231.412 214.19 231.026 213.728C230.64 213.266 230.348 212.696 230.149 212.018C229.956 211.333 229.86 210.547 229.86 209.658V207.491C229.86 206.602 229.962 205.816 230.167 205.132C230.377 204.447 230.675 203.874 231.061 203.412C231.453 202.944 231.924 202.594 232.474 202.36C233.029 202.12 233.655 202 234.351 202C235.281 202 236.058 202.175 236.684 202.526C237.31 202.877 237.792 203.389 238.132 204.061C238.477 204.728 238.684 205.544 238.754 206.509H236.193C236.175 205.901 236.105 205.424 235.982 205.079C235.865 204.728 235.678 204.482 235.421 204.342C235.164 204.196 234.807 204.123 234.351 204.123C234.012 204.123 233.719 204.184 233.474 204.307C233.228 204.424 233.026 204.614 232.868 204.877C232.711 205.14 232.594 205.485 232.518 205.912C232.447 206.339 232.412 206.86 232.412 207.474V209.658C232.412 210.26 232.444 210.775 232.509 211.202C232.573 211.623 232.675 211.968 232.816 212.237C232.956 212.506 233.146 212.702 233.386 212.825C233.632 212.947 233.942 213.009 234.316 213.009C234.749 213.009 235.096 212.944 235.36 212.816C235.629 212.687 235.827 212.456 235.956 212.123C236.085 211.789 236.158 211.316 236.175 210.702Z" fill="white"/>
<path d="M249.307 207.579V209.711C249.307 210.611 249.196 211.401 248.974 212.079C248.757 212.751 248.447 213.316 248.044 213.772C247.646 214.222 247.164 214.561 246.596 214.789C246.035 215.018 245.412 215.132 244.728 215.132C244.044 215.132 243.418 215.018 242.851 214.789C242.289 214.561 241.804 214.222 241.395 213.772C240.991 213.316 240.678 212.751 240.456 212.079C240.234 211.401 240.123 210.611 240.123 209.711V207.579C240.123 206.655 240.231 205.848 240.447 205.158C240.664 204.462 240.977 203.883 241.386 203.421C241.795 202.953 242.281 202.602 242.842 202.368C243.404 202.129 244.026 202.009 244.711 202.009C245.395 202.009 246.018 202.129 246.579 202.368C247.14 202.602 247.626 202.953 248.035 203.421C248.444 203.883 248.757 204.462 248.974 205.158C249.196 205.848 249.307 206.655 249.307 207.579ZM246.754 209.711V207.561C246.754 206.953 246.711 206.436 246.623 206.009C246.535 205.576 246.404 205.222 246.228 204.947C246.053 204.673 245.839 204.471 245.588 204.342C245.336 204.213 245.044 204.149 244.711 204.149C244.377 204.149 244.082 204.213 243.825 204.342C243.573 204.471 243.36 204.673 243.184 204.947C243.015 205.222 242.886 205.576 242.798 206.009C242.716 206.436 242.675 206.953 242.675 207.561V209.711C242.675 210.295 242.719 210.795 242.807 211.211C242.895 211.626 243.026 211.965 243.202 212.228C243.377 212.491 243.591 212.687 243.842 212.816C244.099 212.939 244.395 213 244.728 213C245.056 213 245.345 212.939 245.596 212.816C245.854 212.687 246.067 212.491 246.237 212.228C246.406 211.965 246.535 211.626 246.623 211.211C246.711 210.795 246.754 210.295 246.754 209.711Z" fill="white"/>
<path d="M255.526 210.456H252.912V208.325H255.526C255.889 208.325 256.184 208.243 256.412 208.079C256.646 207.915 256.816 207.69 256.921 207.404C257.026 207.111 257.079 206.784 257.079 206.421C257.079 206.053 257.023 205.711 256.912 205.395C256.807 205.073 256.64 204.813 256.412 204.614C256.19 204.415 255.895 204.316 255.526 204.316H253.737V214.956H251.175V202.184H255.526C256.386 202.184 257.126 202.365 257.746 202.728C258.365 203.091 258.839 203.591 259.167 204.228C259.5 204.86 259.667 205.585 259.667 206.404C259.667 207.228 259.5 207.944 259.167 208.553C258.839 209.155 258.365 209.623 257.746 209.956C257.126 210.289 256.386 210.456 255.526 210.456Z" fill="white"/>
<path d="M268.711 212.833V214.956H263.158V212.833H268.711ZM263.956 202.184V214.956H261.386V202.184H263.956ZM267.965 207.36V209.421H263.158V207.36H267.965ZM268.693 202.184V204.316H263.158V202.184H268.693Z" fill="white"/>
<path d="M232.281 241.904H230.026L230.044 239.781H232.281C232.901 239.781 233.383 239.67 233.728 239.447C234.073 239.225 234.316 238.874 234.456 238.395C234.602 237.915 234.675 237.287 234.675 236.509V234.518C234.675 233.927 234.637 233.427 234.561 233.018C234.485 232.602 234.357 232.269 234.175 232.018C233.994 231.76 233.751 231.57 233.447 231.447C233.143 231.325 232.766 231.263 232.316 231.263H229.982V229.132H232.316C233.053 229.132 233.722 229.251 234.325 229.491C234.927 229.731 235.444 230.082 235.877 230.544C236.31 231 236.643 231.564 236.877 232.237C237.111 232.909 237.228 233.675 237.228 234.535V236.509C237.228 237.374 237.111 238.14 236.877 238.807C236.643 239.474 236.31 240.038 235.877 240.5C235.45 240.956 234.933 241.304 234.325 241.544C233.716 241.784 233.035 241.904 232.281 241.904ZM231.518 229.132V241.904H228.947V229.132H231.518Z" fill="white"/>
<path d="M246.43 239.781V241.904H240.877V239.781H246.43ZM241.675 229.132V241.904H239.105V229.132H241.675ZM245.684 234.307V236.368H240.877V234.307H245.684ZM246.412 229.132V231.263H240.877V229.132H246.412Z" fill="white"/>
<path d="M251.904 239.175L254.325 229.132H257.096L253.395 241.904H251.526L251.904 239.175ZM249.833 229.132L252.246 239.175L252.64 241.904H250.763L247.088 229.132H249.833Z" fill="white"/>
<path d="M256.5 240.649C256.5 240.263 256.629 239.942 256.886 239.684C257.143 239.421 257.491 239.289 257.93 239.289C258.368 239.289 258.716 239.421 258.974 239.684C259.231 239.942 259.36 240.263 259.36 240.649C259.36 241.035 259.231 241.357 258.974 241.614C258.716 241.871 258.368 242 257.93 242C257.491 242 257.143 241.871 256.886 241.614C256.629 241.357 256.5 241.035 256.5 240.649Z" fill="white"/>
<rect x="96" y="221.561" width="97" height="97" rx="48.5" fill="#73909E"/>
<path d="M129.4 258.685H131.948C131.913 259.642 131.72 260.45 131.37 261.11C131.02 261.763 130.521 262.259 129.873 262.598C129.231 262.936 128.455 263.106 127.544 263.106C126.838 263.106 126.211 262.989 125.662 262.756C125.113 262.516 124.647 262.166 124.261 261.705C123.876 261.244 123.584 260.675 123.386 259.998C123.193 259.315 123.097 258.53 123.097 257.643V255.48C123.097 254.593 123.199 253.808 123.403 253.125C123.613 252.443 123.911 251.871 124.296 251.409C124.687 250.943 125.157 250.592 125.706 250.359C126.26 250.12 126.885 250 127.579 250C128.507 250 129.284 250.175 129.908 250.525C130.533 250.875 131.014 251.386 131.353 252.057C131.697 252.723 131.904 253.537 131.974 254.5H129.418C129.4 253.893 129.33 253.417 129.208 253.073C129.091 252.723 128.904 252.478 128.647 252.337C128.391 252.192 128.035 252.119 127.579 252.119C127.241 252.119 126.949 252.18 126.704 252.302C126.459 252.419 126.257 252.609 126.1 252.872C125.942 253.134 125.825 253.479 125.75 253.905C125.68 254.331 125.645 254.85 125.645 255.463V257.643C125.645 258.244 125.677 258.758 125.741 259.184C125.805 259.604 125.907 259.948 126.047 260.217C126.187 260.485 126.377 260.681 126.616 260.803C126.861 260.926 127.171 260.987 127.544 260.987C127.976 260.987 128.323 260.923 128.586 260.794C128.855 260.666 129.053 260.436 129.181 260.103C129.31 259.77 129.383 259.297 129.4 258.685Z" fill="white"/>
<path d="M142.506 255.568V257.695C142.506 258.594 142.395 259.382 142.173 260.059C141.957 260.73 141.648 261.293 141.245 261.749C140.848 262.198 140.367 262.537 139.801 262.764C139.241 262.992 138.619 263.106 137.936 263.106C137.253 263.106 136.629 262.992 136.063 262.764C135.502 262.537 135.018 262.198 134.609 261.749C134.207 261.293 133.894 260.73 133.673 260.059C133.451 259.382 133.34 258.594 133.34 257.695V255.568C133.34 254.646 133.448 253.84 133.664 253.152C133.88 252.457 134.192 251.879 134.601 251.418C135.009 250.951 135.494 250.601 136.054 250.368C136.614 250.128 137.236 250.009 137.919 250.009C138.601 250.009 139.223 250.128 139.783 250.368C140.344 250.601 140.828 250.951 141.237 251.418C141.645 251.879 141.957 252.457 142.173 253.152C142.395 253.84 142.506 254.646 142.506 255.568ZM139.958 257.695V255.55C139.958 254.943 139.915 254.427 139.827 254.001C139.74 253.569 139.608 253.216 139.433 252.942C139.258 252.667 139.045 252.466 138.794 252.337C138.543 252.209 138.251 252.145 137.919 252.145C137.586 252.145 137.291 252.209 137.034 252.337C136.783 252.466 136.57 252.667 136.395 252.942C136.226 253.216 136.098 253.569 136.01 254.001C135.928 254.427 135.888 254.943 135.888 255.55V257.695C135.888 258.279 135.931 258.778 136.019 259.192C136.106 259.607 136.238 259.945 136.413 260.208C136.588 260.471 136.801 260.666 137.052 260.794C137.309 260.917 137.603 260.978 137.936 260.978C138.263 260.978 138.552 260.917 138.803 260.794C139.06 260.666 139.273 260.471 139.442 260.208C139.611 259.945 139.74 259.607 139.827 259.192C139.915 258.778 139.958 258.279 139.958 257.695Z" fill="white"/>
<path d="M153.283 250.184V262.931H150.805L146.805 254.955V262.931H144.371V250.184H146.813L150.849 258.247V250.184H153.283Z" fill="white"/>
<path d="M160.164 250.184V262.931H157.617V250.184H160.164ZM163.333 250.184V252.311H154.509V250.184H163.333Z" fill="white"/>
<path d="M162.642 261.679C162.642 261.293 162.77 260.972 163.027 260.716C163.284 260.453 163.631 260.322 164.069 260.322C164.506 260.322 164.854 260.453 165.111 260.716C165.367 260.972 165.496 261.293 165.496 261.679C165.496 262.064 165.367 262.385 165.111 262.642C164.854 262.899 164.506 263.027 164.069 263.027C163.631 263.027 163.284 262.899 163.027 262.642C162.77 262.385 162.642 262.064 162.642 261.679Z" fill="white"/>
<path d="M115.778 286.472C115.778 286.244 115.758 286.037 115.717 285.85C115.676 285.664 115.588 285.491 115.454 285.334C115.326 285.176 115.136 285.019 114.885 284.861C114.64 284.703 114.319 284.54 113.922 284.371C113.449 284.172 112.991 283.962 112.548 283.74C112.104 283.513 111.704 283.25 111.348 282.953C110.992 282.655 110.709 282.305 110.499 281.902C110.295 281.493 110.193 281.015 110.193 280.466C110.193 279.929 110.289 279.442 110.482 279.004C110.68 278.566 110.96 278.193 111.322 277.884C111.684 277.568 112.107 277.326 112.591 277.157C113.082 276.988 113.627 276.903 114.228 276.903C115.046 276.903 115.752 277.072 116.347 277.411C116.948 277.749 117.412 278.213 117.739 278.803C118.072 279.392 118.238 280.069 118.238 280.834H115.682C115.682 280.472 115.629 280.154 115.524 279.88C115.425 279.599 115.264 279.381 115.043 279.223C114.821 279.065 114.535 278.987 114.185 278.987C113.858 278.987 113.586 279.054 113.371 279.188C113.16 279.316 113.003 279.494 112.898 279.722C112.799 279.944 112.749 280.195 112.749 280.475C112.749 280.685 112.799 280.875 112.898 281.044C113.003 281.207 113.146 281.356 113.327 281.49C113.508 281.619 113.721 281.744 113.966 281.867C114.217 281.989 114.491 282.109 114.789 282.226C115.367 282.453 115.877 282.704 116.321 282.979C116.764 283.247 117.135 283.551 117.433 283.889C117.73 284.222 117.955 284.598 118.107 285.019C118.259 285.439 118.334 285.917 118.334 286.454C118.334 286.985 118.241 287.47 118.054 287.908C117.873 288.34 117.608 288.713 117.258 289.028C116.907 289.338 116.484 289.577 115.988 289.746C115.498 289.915 114.949 290 114.342 290C113.753 290 113.195 289.918 112.67 289.755C112.145 289.586 111.681 289.332 111.278 288.993C110.881 288.649 110.569 288.214 110.341 287.689C110.114 287.158 110 286.53 110 285.807H112.565C112.565 286.192 112.603 286.521 112.679 286.796C112.755 287.064 112.872 287.28 113.029 287.444C113.187 287.601 113.379 287.721 113.607 287.803C113.84 287.878 114.106 287.916 114.404 287.916C114.742 287.916 115.011 287.852 115.209 287.724C115.413 287.595 115.559 287.423 115.647 287.207C115.734 286.991 115.778 286.746 115.778 286.472Z" fill="white"/>
<path d="M125.793 277.078H128.35V285.833C128.35 286.813 128.169 287.613 127.807 288.232C127.451 288.844 126.958 289.294 126.327 289.58C125.697 289.86 124.976 290 124.165 290C123.348 290 122.621 289.86 121.985 289.58C121.349 289.294 120.853 288.844 120.497 288.232C120.147 287.613 119.972 286.813 119.972 285.833V277.078H122.528V285.833C122.528 286.387 122.589 286.813 122.712 287.111C122.84 287.409 123.024 287.613 123.263 287.724C123.508 287.829 123.809 287.881 124.165 287.881C124.527 287.881 124.825 287.829 125.058 287.724C125.297 287.613 125.478 287.409 125.601 287.111C125.729 286.813 125.793 286.387 125.793 285.833V277.078Z" fill="white"/>
<path d="M134.653 285.334H132.044V283.206H134.653C135.015 283.206 135.31 283.125 135.537 282.961C135.771 282.798 135.94 282.573 136.045 282.287C136.15 281.995 136.203 281.668 136.203 281.307C136.203 280.939 136.147 280.598 136.036 280.282C135.931 279.961 135.765 279.702 135.537 279.503C135.316 279.305 135.021 279.206 134.653 279.206H132.867V289.825H130.311V277.078H134.653C135.511 277.078 136.249 277.259 136.868 277.621C137.487 277.983 137.959 278.482 138.286 279.118C138.619 279.748 138.785 280.472 138.785 281.289C138.785 282.112 138.619 282.827 138.286 283.434C137.959 284.035 137.487 284.502 136.868 284.835C136.249 285.167 135.511 285.334 134.653 285.334Z" fill="white"/>
<path d="M144.844 285.334H142.235V283.206H144.844C145.205 283.206 145.5 283.125 145.728 282.961C145.961 282.798 146.13 282.573 146.236 282.287C146.341 281.995 146.393 281.668 146.393 281.307C146.393 280.939 146.338 280.598 146.227 280.282C146.122 279.961 145.955 279.702 145.728 279.503C145.506 279.305 145.211 279.206 144.844 279.206H143.058V289.825H140.501V277.078H144.844C145.701 277.078 146.44 277.259 147.058 277.621C147.677 277.983 148.15 278.482 148.477 279.118C148.809 279.748 148.976 280.472 148.976 281.289C148.976 282.112 148.809 282.827 148.477 283.434C148.15 284.035 147.677 284.502 147.058 284.835C146.44 285.167 145.701 285.334 144.844 285.334Z" fill="white"/>
<path d="M159.648 282.462V284.59C159.648 285.488 159.537 286.276 159.315 286.953C159.099 287.625 158.79 288.188 158.387 288.643C157.99 289.092 157.509 289.431 156.942 289.659C156.382 289.886 155.761 290 155.078 290C154.395 290 153.77 289.886 153.204 289.659C152.644 289.431 152.159 289.092 151.751 288.643C151.348 288.188 151.036 287.625 150.814 286.953C150.592 286.276 150.482 285.488 150.482 284.59V282.462C150.482 281.54 150.589 280.735 150.805 280.046C151.021 279.351 151.334 278.774 151.742 278.313C152.151 277.846 152.635 277.495 153.195 277.262C153.756 277.023 154.377 276.903 155.06 276.903C155.743 276.903 156.365 277.023 156.925 277.262C157.485 277.495 157.97 277.846 158.378 278.313C158.787 278.774 159.099 279.351 159.315 280.046C159.537 280.735 159.648 281.54 159.648 282.462ZM157.1 284.59V282.445C157.1 281.838 157.056 281.321 156.969 280.895C156.881 280.463 156.75 280.11 156.575 279.836C156.4 279.562 156.187 279.36 155.936 279.232C155.685 279.103 155.393 279.039 155.06 279.039C154.728 279.039 154.433 279.103 154.176 279.232C153.925 279.36 153.712 279.562 153.537 279.836C153.368 280.11 153.239 280.463 153.152 280.895C153.07 281.321 153.029 281.838 153.029 282.445V284.59C153.029 285.173 153.073 285.672 153.16 286.087C153.248 286.501 153.379 286.84 153.554 287.102C153.729 287.365 153.943 287.56 154.193 287.689C154.45 287.811 154.745 287.873 155.078 287.873C155.405 287.873 155.693 287.811 155.944 287.689C156.201 287.56 156.414 287.365 156.584 287.102C156.753 286.84 156.881 286.501 156.969 286.087C157.056 285.672 157.1 285.173 157.1 284.59Z" fill="white"/>
<path d="M161.521 277.078H165.61C166.462 277.078 167.188 277.224 167.789 277.516C168.391 277.808 168.852 278.24 169.173 278.812C169.494 279.384 169.654 280.09 169.654 280.93C169.654 281.619 169.561 282.208 169.374 282.699C169.187 283.183 168.922 283.589 168.577 283.916C168.233 284.237 167.822 284.493 167.343 284.686L166.564 285.15H163.246L163.237 283.023H165.54C165.89 283.023 166.179 282.947 166.406 282.795C166.64 282.637 166.812 282.418 166.923 282.138C167.039 281.852 167.098 281.52 167.098 281.14C167.098 280.738 167.045 280.393 166.94 280.107C166.841 279.815 166.681 279.594 166.459 279.442C166.243 279.284 165.96 279.206 165.61 279.206H164.086V289.825H161.521V277.078ZM167.308 289.825L164.97 284.143L167.658 284.134L170.048 289.702V289.825H167.308Z" fill="white"/>
<path d="M176.063 277.078V289.825H173.515V277.078H176.063ZM179.232 277.078V279.206H170.407V277.078H179.232Z" fill="white"/>
</g>
<defs>
<clipPath id="clip0_5227_97307">
<rect width="289" height="319.314" fill="white"/>
</clipPath>
</defs>
</svg>
