<svg width="458" height="591" viewBox="0 0 458 591" fill="none" xmlns="http://www.w3.org/2000/svg">
<g clip-path="url(#clip0_4844_82499)">
<rect y="108.039" width="376.959" height="376.92" rx="188.46" fill="#0B0E29"/>
<path d="M68.9688 314V277.031H78.7441C83.0605 277.031 86.4967 278.402 89.0527 281.145C91.6257 283.887 92.9375 287.645 92.9883 292.418V298.41C92.9883 303.268 91.7018 307.085 89.1289 309.861C86.5729 312.62 83.0436 314 78.541 314H68.9688ZM76.4336 283.252V307.805H78.668C81.1562 307.805 82.9082 307.153 83.9238 305.85C84.9395 304.529 85.4727 302.261 85.5234 299.045V292.621C85.5234 289.168 85.041 286.764 84.0762 285.41C83.1113 284.039 81.4694 283.32 79.1504 283.252H76.4336Z" fill="white"/>
<path d="M106.166 314H98.7012V277.031H106.166V314Z" fill="white"/>
<path d="M128.053 304.301C128.053 302.794 127.663 301.66 126.885 300.898C126.123 300.12 124.727 299.316 122.695 298.486C118.988 297.081 116.322 295.439 114.697 293.561C113.072 291.665 112.26 289.43 112.26 286.857C112.26 283.743 113.36 281.246 115.561 279.367C117.778 277.471 120.588 276.523 123.99 276.523C126.258 276.523 128.281 277.006 130.059 277.971C131.836 278.919 133.199 280.264 134.146 282.008C135.111 283.751 135.594 285.732 135.594 287.949H128.154C128.154 286.223 127.782 284.911 127.037 284.014C126.309 283.1 125.251 282.643 123.863 282.643C122.56 282.643 121.544 283.032 120.816 283.811C120.089 284.572 119.725 285.605 119.725 286.908C119.725 287.924 120.131 288.846 120.943 289.676C121.756 290.488 123.195 291.335 125.26 292.215C128.865 293.518 131.48 295.118 133.105 297.014C134.747 298.91 135.568 301.322 135.568 304.25C135.568 307.466 134.544 309.98 132.496 311.791C130.448 313.602 127.663 314.508 124.143 314.508C121.756 314.508 119.581 314.017 117.617 313.035C115.654 312.053 114.113 310.648 112.996 308.82C111.896 306.992 111.346 304.834 111.346 302.346H118.836C118.836 304.479 119.251 306.027 120.08 306.992C120.91 307.957 122.264 308.439 124.143 308.439C126.749 308.439 128.053 307.06 128.053 304.301Z" fill="white"/>
<path d="M165.58 301.686C165.394 305.9 164.209 309.091 162.025 311.258C159.842 313.424 156.761 314.508 152.783 314.508C148.602 314.508 145.395 313.137 143.16 310.395C140.943 307.635 139.834 303.708 139.834 298.613V292.393C139.834 287.314 140.985 283.404 143.287 280.662C145.589 277.903 148.788 276.523 152.885 276.523C156.913 276.523 159.969 277.649 162.051 279.9C164.15 282.152 165.343 285.385 165.631 289.6H158.141C158.073 286.993 157.667 285.199 156.922 284.217C156.194 283.218 154.848 282.719 152.885 282.719C150.887 282.719 149.474 283.421 148.645 284.826C147.815 286.214 147.375 288.508 147.324 291.707V298.689C147.324 302.363 147.73 304.885 148.543 306.256C149.372 307.627 150.786 308.312 152.783 308.312C154.747 308.312 156.101 307.839 156.846 306.891C157.59 305.926 158.014 304.191 158.115 301.686H165.58Z" fill="white"/>
<path d="M196.201 298.842C196.201 303.801 195.025 307.652 192.672 310.395C190.336 313.137 187.086 314.508 182.922 314.508C178.775 314.508 175.516 313.154 173.146 310.445C170.777 307.72 169.575 303.911 169.541 299.02V292.697C169.541 287.619 170.717 283.658 173.07 280.814C175.423 277.954 178.69 276.523 182.871 276.523C186.984 276.523 190.226 277.928 192.596 280.738C194.965 283.531 196.167 287.458 196.201 292.52V298.842ZM188.711 292.646C188.711 289.312 188.237 286.832 187.289 285.207C186.341 283.582 184.868 282.77 182.871 282.77C180.891 282.77 179.426 283.557 178.479 285.131C177.531 286.688 177.04 289.066 177.006 292.266V298.842C177.006 302.075 177.488 304.462 178.453 306.002C179.418 307.525 180.908 308.287 182.922 308.287C184.868 308.287 186.316 307.542 187.264 306.053C188.212 304.546 188.694 302.219 188.711 299.07V292.646Z" fill="white"/>
<path d="M213.035 303.844L219.256 277.031H227.584L216.92 314H209.15L198.562 277.031H206.84L213.035 303.844Z" fill="white"/>
<path d="M250.156 298.004H238.527V307.805H252.289V314H231.062V277.031H252.238V283.252H238.527V291.986H250.156V298.004Z" fill="white"/>
<path d="M267.803 300.492H264.096V314H256.631V277.031H268.539C272.28 277.031 275.166 278.005 277.197 279.951C279.245 281.881 280.27 284.632 280.27 288.203C280.27 293.112 278.484 296.548 274.912 298.512L281.387 313.645V314H273.363L267.803 300.492ZM264.096 294.271H268.336C269.826 294.271 270.943 293.781 271.688 292.799C272.432 291.8 272.805 290.471 272.805 288.812C272.805 285.105 271.357 283.252 268.463 283.252H264.096V294.271Z" fill="white"/>
<path d="M295.326 293.637L300.887 277.031H309.012L299.109 300.594V314H291.543V300.594L281.615 277.031H289.74L295.326 293.637Z" fill="white"/>
<rect x="376.961" y="-228" width="1047.11" height="1047" rx="519" fill="#FF0049"/>
</g>
<defs>
<clipPath id="clip0_4844_82499">
<rect width="458" height="591" fill="white"/>
</clipPath>
</defs>
</svg>
