<svg width="374" height="260" viewBox="0 0 374 260" fill="none" xmlns="http://www.w3.org/2000/svg">
<g clip-path="url(#clip0_4822_126288)">
<rect x="-108" y="211.995" width="589.29" height="588.877" rx="294.439" fill="#FF0049"/>
<rect x="80.5742" width="212.145" height="211.995" rx="105.998" fill="#0B0E29"/>
<path d="M104.859 118V92.4062H111.627C114.615 92.4062 116.994 93.3555 118.764 95.2539C120.545 97.1523 121.453 99.7539 121.488 103.059V107.207C121.488 110.57 120.598 113.213 118.816 115.135C117.047 117.045 114.604 118 111.486 118H104.859ZM110.027 96.7129V113.711H111.574C113.297 113.711 114.51 113.26 115.213 112.357C115.916 111.443 116.285 109.873 116.32 107.646V103.199C116.32 100.809 115.986 99.1445 115.318 98.207C114.65 97.2578 113.514 96.7598 111.908 96.7129H110.027Z" fill="white"/>
<path d="M130.611 118H125.443V92.4062H130.611V118Z" fill="white"/>
<path d="M145.764 111.285C145.764 110.242 145.494 109.457 144.955 108.93C144.428 108.391 143.461 107.834 142.055 107.26C139.488 106.287 137.643 105.15 136.518 103.85C135.393 102.537 134.83 100.99 134.83 99.209C134.83 97.0527 135.592 95.3242 137.115 94.0234C138.65 92.7109 140.596 92.0547 142.951 92.0547C144.521 92.0547 145.922 92.3887 147.152 93.0566C148.383 93.7129 149.326 94.6445 149.982 95.8516C150.65 97.0586 150.984 98.4297 150.984 99.9648H145.834C145.834 98.7695 145.576 97.8613 145.061 97.2402C144.557 96.6074 143.824 96.291 142.863 96.291C141.961 96.291 141.258 96.5605 140.754 97.0996C140.25 97.627 139.998 98.3418 139.998 99.2441C139.998 99.9473 140.279 100.586 140.842 101.16C141.404 101.723 142.4 102.309 143.83 102.918C146.326 103.82 148.137 104.928 149.262 106.24C150.398 107.553 150.967 109.223 150.967 111.25C150.967 113.477 150.258 115.217 148.84 116.471C147.422 117.725 145.494 118.352 143.057 118.352C141.404 118.352 139.898 118.012 138.539 117.332C137.18 116.652 136.113 115.68 135.34 114.414C134.578 113.148 134.197 111.654 134.197 109.932H139.383C139.383 111.408 139.67 112.48 140.244 113.148C140.818 113.816 141.756 114.15 143.057 114.15C144.861 114.15 145.764 113.195 145.764 111.285Z" fill="white"/>
<path d="M171.744 109.475C171.615 112.393 170.795 114.602 169.283 116.102C167.771 117.602 165.639 118.352 162.885 118.352C159.99 118.352 157.77 117.402 156.223 115.504C154.688 113.594 153.92 110.875 153.92 107.348V103.041C153.92 99.5254 154.717 96.8184 156.311 94.9199C157.904 93.0098 160.119 92.0547 162.955 92.0547C165.744 92.0547 167.859 92.834 169.301 94.3926C170.754 95.9512 171.58 98.1895 171.779 101.107H166.594C166.547 99.3027 166.266 98.0605 165.75 97.3809C165.246 96.6895 164.314 96.3438 162.955 96.3438C161.572 96.3438 160.594 96.8301 160.02 97.8027C159.445 98.7637 159.141 100.352 159.105 102.566V107.4C159.105 109.943 159.387 111.689 159.949 112.639C160.523 113.588 161.502 114.062 162.885 114.062C164.244 114.062 165.182 113.734 165.697 113.078C166.213 112.41 166.506 111.209 166.576 109.475H171.744Z" fill="white"/>
<path d="M192.943 107.506C192.943 110.939 192.129 113.605 190.5 115.504C188.883 117.402 186.633 118.352 183.75 118.352C180.879 118.352 178.623 117.414 176.982 115.539C175.342 113.652 174.51 111.016 174.486 107.629V103.252C174.486 99.7363 175.301 96.9941 176.93 95.0254C178.559 93.0449 180.82 92.0547 183.715 92.0547C186.562 92.0547 188.807 93.0273 190.447 94.9727C192.088 96.9062 192.92 99.625 192.943 103.129V107.506ZM187.758 103.217C187.758 100.908 187.43 99.1914 186.773 98.0664C186.117 96.9414 185.098 96.3789 183.715 96.3789C182.344 96.3789 181.33 96.9238 180.674 98.0137C180.018 99.0918 179.678 100.738 179.654 102.953V107.506C179.654 109.744 179.988 111.396 180.656 112.463C181.324 113.518 182.355 114.045 183.75 114.045C185.098 114.045 186.1 113.529 186.756 112.498C187.412 111.455 187.746 109.844 187.758 107.664V103.217Z" fill="white"/>
<path d="M204.598 110.969L208.904 92.4062H214.67L207.287 118H201.908L194.578 92.4062H200.309L204.598 110.969Z" fill="white"/>
<path d="M230.297 106.926H222.246V113.711H231.773V118H217.078V92.4062H231.738V96.7129H222.246V102.76H230.297V106.926Z" fill="white"/>
<path d="M242.514 108.648H239.947V118H234.779V92.4062H243.023C245.613 92.4062 247.611 93.0801 249.018 94.4277C250.436 95.7637 251.145 97.668 251.145 100.141C251.145 103.539 249.908 105.918 247.436 107.277L251.918 117.754V118H246.363L242.514 108.648ZM239.947 104.342H242.883C243.914 104.342 244.688 104.002 245.203 103.322C245.719 102.631 245.977 101.711 245.977 100.562C245.977 97.9961 244.975 96.7129 242.971 96.7129H239.947V104.342Z" fill="white"/>
<path d="M261.568 103.902L265.418 92.4062H271.043L264.188 108.719V118H258.949V108.719L252.076 92.4062H257.701L261.568 103.902Z" fill="white"/>
</g>
<defs>
<clipPath id="clip0_4822_126288">
<rect width="374" height="260" fill="white"/>
</clipPath>
</defs>
</svg>
