<svg width="363" height="590" viewBox="0 0 363 590" fill="none" xmlns="http://www.w3.org/2000/svg">
<g clip-path="url(#clip0_4954_74091)">
<rect y="146.033" width="299.709" height="299.52" rx="149.76" fill="#0B0E29"/>
<path d="M65.7266 310H60.707L60.7461 305.273H65.7266C67.1068 305.273 68.181 305.026 68.9492 304.531C69.7174 304.036 70.2578 303.255 70.5703 302.188C70.8958 301.12 71.0586 299.72 71.0586 297.988V293.555C71.0586 292.24 70.974 291.126 70.8047 290.215C70.6354 289.29 70.349 288.548 69.9453 287.988C69.5417 287.415 69.0013 286.992 68.3242 286.719C67.6471 286.445 66.8073 286.309 65.8047 286.309H60.6094V281.562H65.8047C67.4453 281.562 68.9362 281.829 70.2773 282.363C71.6185 282.897 72.7708 283.678 73.7344 284.707C74.6979 285.723 75.4401 286.979 75.9609 288.477C76.4818 289.974 76.7422 291.68 76.7422 293.594V297.988C76.7422 299.915 76.4818 301.621 75.9609 303.105C75.4401 304.59 74.6979 305.846 73.7344 306.875C72.7839 307.891 71.6315 308.665 70.2773 309.199C68.9232 309.733 67.4062 310 65.7266 310ZM64.0273 281.562V310H58.3047V281.562H64.0273Z" fill="white"/>
<path d="M86.8594 281.562V310H81.1758V281.562H86.8594Z" fill="white"/>
<path d="M103.773 302.52C103.773 302.012 103.728 301.549 103.637 301.133C103.546 300.716 103.35 300.332 103.051 299.98C102.764 299.629 102.341 299.277 101.781 298.926C101.234 298.574 100.518 298.21 99.6328 297.832C98.5781 297.389 97.556 296.921 96.5664 296.426C95.5768 295.918 94.6849 295.332 93.8906 294.668C93.0964 294.004 92.4648 293.223 91.9961 292.324C91.5404 291.413 91.3125 290.345 91.3125 289.121C91.3125 287.923 91.5273 286.836 91.957 285.859C92.3997 284.883 93.0247 284.049 93.832 283.359C94.6393 282.656 95.5833 282.116 96.6641 281.738C97.7578 281.361 98.9753 281.172 100.316 281.172C102.139 281.172 103.715 281.549 105.043 282.305C106.384 283.06 107.419 284.095 108.148 285.41C108.891 286.725 109.262 288.236 109.262 289.941H103.559C103.559 289.134 103.441 288.424 103.207 287.812C102.986 287.188 102.628 286.699 102.133 286.348C101.638 285.996 101 285.82 100.219 285.82C99.4896 285.82 98.8841 285.97 98.4023 286.27C97.9336 286.556 97.582 286.953 97.3477 287.461C97.1263 287.956 97.0156 288.516 97.0156 289.141C97.0156 289.609 97.1263 290.033 97.3477 290.41C97.582 290.775 97.901 291.107 98.3047 291.406C98.7083 291.693 99.1836 291.973 99.7305 292.246C100.29 292.52 100.902 292.786 101.566 293.047C102.855 293.555 103.995 294.115 104.984 294.727C105.974 295.326 106.801 296.003 107.465 296.758C108.129 297.5 108.63 298.34 108.969 299.277C109.307 300.215 109.477 301.283 109.477 302.48C109.477 303.665 109.268 304.746 108.852 305.723C108.448 306.686 107.855 307.52 107.074 308.223C106.293 308.913 105.349 309.447 104.242 309.824C103.148 310.202 101.924 310.391 100.57 310.391C99.2552 310.391 98.0117 310.208 96.8398 309.844C95.668 309.466 94.6328 308.9 93.7344 308.145C92.849 307.376 92.1523 306.406 91.6445 305.234C91.1367 304.049 90.8828 302.65 90.8828 301.035H96.6055C96.6055 301.895 96.6901 302.63 96.8594 303.242C97.0286 303.841 97.2891 304.323 97.6406 304.688C97.9922 305.039 98.4219 305.306 98.9297 305.488C99.4505 305.658 100.043 305.742 100.707 305.742C101.462 305.742 102.061 305.599 102.504 305.312C102.96 305.026 103.285 304.642 103.48 304.16C103.676 303.678 103.773 303.132 103.773 302.52Z" fill="white"/>
<path d="M126.898 300.527H132.582C132.504 302.663 132.074 304.466 131.293 305.938C130.512 307.396 129.398 308.503 127.953 309.258C126.521 310.013 124.789 310.391 122.758 310.391C121.182 310.391 119.783 310.13 118.559 309.609C117.335 309.076 116.293 308.294 115.434 307.266C114.574 306.237 113.923 304.967 113.48 303.457C113.051 301.934 112.836 300.182 112.836 298.203V293.379C112.836 291.4 113.064 289.648 113.52 288.125C113.988 286.602 114.652 285.326 115.512 284.297C116.384 283.255 117.432 282.474 118.656 281.953C119.893 281.419 121.286 281.152 122.836 281.152C124.906 281.152 126.638 281.543 128.031 282.324C129.424 283.105 130.499 284.245 131.254 285.742C132.022 287.227 132.484 289.043 132.641 291.191H126.938C126.898 289.837 126.742 288.776 126.469 288.008C126.208 287.227 125.792 286.68 125.219 286.367C124.646 286.042 123.852 285.879 122.836 285.879C122.081 285.879 121.43 286.016 120.883 286.289C120.336 286.549 119.887 286.973 119.535 287.559C119.184 288.145 118.923 288.913 118.754 289.863C118.598 290.814 118.52 291.973 118.52 293.34V298.203C118.52 299.544 118.591 300.69 118.734 301.641C118.878 302.578 119.105 303.346 119.418 303.945C119.73 304.544 120.154 304.98 120.688 305.254C121.234 305.527 121.924 305.664 122.758 305.664C123.721 305.664 124.496 305.521 125.082 305.234C125.681 304.948 126.124 304.434 126.41 303.691C126.697 302.949 126.859 301.895 126.898 300.527Z" fill="white"/>
<path d="M156.137 293.574V298.32C156.137 300.326 155.889 302.083 155.395 303.594C154.913 305.091 154.223 306.348 153.324 307.363C152.439 308.366 151.365 309.121 150.102 309.629C148.852 310.137 147.465 310.391 145.941 310.391C144.418 310.391 143.025 310.137 141.762 309.629C140.512 309.121 139.431 308.366 138.52 307.363C137.621 306.348 136.924 305.091 136.43 303.594C135.935 302.083 135.688 300.326 135.688 298.32V293.574C135.688 291.517 135.928 289.72 136.41 288.184C136.892 286.634 137.589 285.345 138.5 284.316C139.411 283.275 140.492 282.493 141.742 281.973C142.992 281.439 144.379 281.172 145.902 281.172C147.426 281.172 148.812 281.439 150.062 281.973C151.312 282.493 152.393 283.275 153.305 284.316C154.216 285.345 154.913 286.634 155.395 288.184C155.889 289.72 156.137 291.517 156.137 293.574ZM150.453 298.32V293.535C150.453 292.181 150.355 291.029 150.16 290.078C149.965 289.115 149.672 288.327 149.281 287.715C148.891 287.103 148.415 286.654 147.855 286.367C147.296 286.081 146.645 285.938 145.902 285.938C145.16 285.938 144.503 286.081 143.93 286.367C143.37 286.654 142.895 287.103 142.504 287.715C142.126 288.327 141.84 289.115 141.645 290.078C141.462 291.029 141.371 292.181 141.371 293.535V298.32C141.371 299.622 141.469 300.736 141.664 301.66C141.859 302.585 142.152 303.34 142.543 303.926C142.934 304.512 143.409 304.948 143.969 305.234C144.542 305.508 145.199 305.645 145.941 305.645C146.671 305.645 147.315 305.508 147.875 305.234C148.448 304.948 148.923 304.512 149.301 303.926C149.678 303.34 149.965 302.585 150.16 301.66C150.355 300.736 150.453 299.622 150.453 298.32Z" fill="white"/>
<path d="M168.715 303.926L174.105 281.562H180.277L172.035 310H167.875L168.715 303.926ZM164.105 281.562L169.477 303.926L170.355 310H166.176L157.992 281.562H164.105Z" fill="white"/>
<path d="M199.301 305.273V310H186.938V305.273H199.301ZM188.715 281.562V310H182.992V281.562H188.715ZM197.641 293.086V297.676H186.938V293.086H197.641ZM199.262 281.562V286.309H186.938V281.562H199.262Z" fill="white"/>
<path d="M202.66 281.562H211.781C213.682 281.562 215.303 281.888 216.645 282.539C217.986 283.19 219.014 284.154 219.73 285.43C220.447 286.706 220.805 288.281 220.805 290.156C220.805 291.693 220.596 293.008 220.18 294.102C219.763 295.182 219.171 296.087 218.402 296.816C217.634 297.533 216.716 298.105 215.648 298.535L213.91 299.57H206.508L206.488 294.824H211.625C212.406 294.824 213.051 294.655 213.559 294.316C214.079 293.965 214.464 293.477 214.711 292.852C214.971 292.214 215.102 291.471 215.102 290.625C215.102 289.727 214.984 288.958 214.75 288.32C214.529 287.669 214.171 287.174 213.676 286.836C213.194 286.484 212.562 286.309 211.781 286.309H208.383V310H202.66V281.562ZM215.57 310L210.355 297.324L216.352 297.305L221.684 309.727V310H215.57Z" fill="white"/>
<path d="M228.07 281.562L232.406 294.375L236.703 281.562H242.934L235.277 299.668V310H229.516V299.668L221.859 281.562H228.07Z" fill="white"/>
<rect x="299.707" y="-121" width="832.525" height="832" rx="416" fill="#FF0049"/>
</g>
<defs>
<clipPath id="clip0_4954_74091">
<rect width="363" height="590" fill="white"/>
</clipPath>
</defs>
</svg>
