<svg width="1200" height="361" viewBox="0 0 1200 361" fill="none" xmlns="http://www.w3.org/2000/svg">
<path d="M371.551 18.832H374.671C376.037 18.832 377.055 19.3013 377.727 20.24C378.399 21.1787 378.735 22.5707 378.735 24.416C378.735 26.2613 378.399 27.6533 377.727 28.592C377.055 29.5307 376.037 30 374.671 30H371.551V18.832ZM374.607 28.832C375.503 28.832 376.175 28.5227 376.623 27.904C377.082 27.2853 377.311 26.4107 377.311 25.28V23.552C377.311 22.4213 377.082 21.5467 376.623 20.928C376.175 20.3093 375.503 20 374.607 20H372.895V28.832H374.607ZM384.569 30.192C383.972 30.192 383.433 30.0907 382.953 29.888C382.484 29.6853 382.078 29.3973 381.737 29.024C381.406 28.64 381.15 28.1867 380.969 27.664C380.788 27.1307 380.697 26.5387 380.697 25.888C380.697 25.2267 380.788 24.6293 380.969 24.096C381.161 23.5627 381.422 23.1093 381.753 22.736C382.084 22.352 382.478 22.0587 382.937 21.856C383.406 21.6533 383.924 21.552 384.489 21.552C385.044 21.552 385.545 21.6533 385.993 21.856C386.452 22.0587 386.841 22.3413 387.161 22.704C387.481 23.056 387.726 23.4773 387.897 23.968C388.068 24.4587 388.153 24.9973 388.153 25.584V26.192H382.041V26.576C382.041 26.9387 382.1 27.2747 382.217 27.584C382.334 27.8933 382.5 28.16 382.713 28.384C382.937 28.608 383.204 28.784 383.513 28.912C383.833 29.0293 384.185 29.088 384.569 29.088C385.124 29.088 385.604 28.96 386.009 28.704C386.414 28.448 386.724 28.096 386.937 27.648L387.881 28.288C387.636 28.8427 387.225 29.3013 386.649 29.664C386.084 30.016 385.39 30.192 384.569 30.192ZM384.489 22.608C384.137 22.608 383.812 22.672 383.513 22.8C383.214 22.928 382.953 23.104 382.729 23.328C382.516 23.552 382.345 23.8187 382.217 24.128C382.1 24.4267 382.041 24.7573 382.041 25.12V25.232H386.777V25.056C386.777 24.6933 386.718 24.3627 386.601 24.064C386.494 23.7653 386.34 23.5093 386.137 23.296C385.945 23.072 385.705 22.9013 385.417 22.784C385.14 22.6667 384.83 22.608 384.489 22.608ZM390.547 28.912H393.331V22.832H390.387V21.744H393.331V20.048C393.331 19.4933 393.475 19.04 393.763 18.688C394.061 18.336 394.525 18.16 395.155 18.16H397.923V19.248H394.611V21.744H397.923V22.832H394.611V28.912H397.555V30H390.547V28.912ZM404.125 19.92C403.751 19.92 403.49 19.8453 403.341 19.696C403.191 19.536 403.117 19.3387 403.117 19.104V18.848C403.117 18.6133 403.191 18.4213 403.341 18.272C403.49 18.112 403.751 18.032 404.125 18.032C404.498 18.032 404.759 18.112 404.909 18.272C405.058 18.4213 405.133 18.6133 405.133 18.848V19.104C405.133 19.3387 405.058 19.536 404.909 19.696C404.759 19.8453 404.498 19.92 404.125 19.92ZM400.509 28.912H403.485V22.832H400.509V21.744H404.765V28.912H407.549V30H400.509V28.912ZM409.974 30V21.744H411.254V23.088H411.318C411.404 22.8853 411.51 22.6933 411.638 22.512C411.766 22.32 411.921 22.1547 412.102 22.016C412.294 21.8773 412.518 21.7653 412.774 21.68C413.03 21.5947 413.329 21.552 413.67 21.552C414.534 21.552 415.228 21.8293 415.75 22.384C416.273 22.928 416.534 23.7013 416.534 24.704V30H415.254V24.928C415.254 24.1707 415.089 23.6107 414.758 23.248C414.428 22.8747 413.942 22.688 413.302 22.688C413.046 22.688 412.796 22.72 412.55 22.784C412.305 22.848 412.086 22.944 411.894 23.072C411.702 23.2 411.548 23.3653 411.43 23.568C411.313 23.7707 411.254 24.0053 411.254 24.272V30H409.974ZM423.312 19.92C422.939 19.92 422.677 19.8453 422.528 19.696C422.379 19.536 422.304 19.3387 422.304 19.104V18.848C422.304 18.6133 422.379 18.4213 422.528 18.272C422.677 18.112 422.939 18.032 423.312 18.032C423.685 18.032 423.947 18.112 424.096 18.272C424.245 18.4213 424.32 18.6133 424.32 18.848V19.104C424.32 19.3387 424.245 19.536 424.096 19.696C423.947 19.8453 423.685 19.92 423.312 19.92ZM419.696 28.912H422.672V22.832H419.696V21.744H423.952V28.912H426.736V30H419.696V28.912ZM432.794 30C432.164 30 431.7 29.824 431.402 29.472C431.114 29.12 430.97 28.6667 430.97 28.112V22.832H428.218V21.744H430.266C430.543 21.744 430.735 21.6907 430.842 21.584C430.959 21.4667 431.018 21.2693 431.018 20.992V18.832H432.25V21.744H436.01V22.832H432.25V28.912H436.01V30H432.794ZM442.5 19.92C442.126 19.92 441.865 19.8453 441.716 19.696C441.566 19.536 441.492 19.3387 441.492 19.104V18.848C441.492 18.6133 441.566 18.4213 441.716 18.272C441.865 18.112 442.126 18.032 442.5 18.032C442.873 18.032 443.134 18.112 443.284 18.272C443.433 18.4213 443.508 18.6133 443.508 18.848V19.104C443.508 19.3387 443.433 19.536 443.284 19.696C443.134 19.8453 442.873 19.92 442.5 19.92ZM438.884 28.912H441.86V22.832H438.884V21.744H443.14V28.912H445.924V30H438.884V28.912ZM451.581 30.192C451.005 30.192 450.483 30.0907 450.013 29.888C449.555 29.6853 449.16 29.3973 448.829 29.024C448.509 28.64 448.264 28.1867 448.093 27.664C447.923 27.1307 447.837 26.5333 447.837 25.872C447.837 25.2213 447.923 24.6293 448.093 24.096C448.264 23.5627 448.509 23.1093 448.829 22.736C449.16 22.352 449.555 22.0587 450.013 21.856C450.483 21.6533 451.005 21.552 451.581 21.552C452.157 21.552 452.675 21.6533 453.133 21.856C453.603 22.0587 453.997 22.352 454.317 22.736C454.648 23.1093 454.899 23.5627 455.069 24.096C455.24 24.6293 455.325 25.2213 455.325 25.872C455.325 26.5333 455.24 27.1307 455.069 27.664C454.899 28.1867 454.648 28.64 454.317 29.024C453.997 29.3973 453.603 29.6853 453.133 29.888C452.675 30.0907 452.157 30.192 451.581 30.192ZM451.581 29.088C452.296 29.088 452.872 28.8747 453.309 28.448C453.747 28.0213 453.965 27.36 453.965 26.464V25.28C453.965 24.384 453.747 23.7227 453.309 23.296C452.872 22.8693 452.296 22.656 451.581 22.656C450.867 22.656 450.291 22.8693 449.853 23.296C449.416 23.7227 449.197 24.384 449.197 25.28V26.464C449.197 27.36 449.416 28.0213 449.853 28.448C450.291 28.8747 450.867 29.088 451.581 29.088ZM457.943 30V21.744H459.223V23.088H459.287C459.372 22.8853 459.479 22.6933 459.607 22.512C459.735 22.32 459.89 22.1547 460.071 22.016C460.263 21.8773 460.487 21.7653 460.743 21.68C460.999 21.5947 461.298 21.552 461.639 21.552C462.503 21.552 463.196 21.8293 463.719 22.384C464.242 22.928 464.503 23.7013 464.503 24.704V30H463.223V24.928C463.223 24.1707 463.058 23.6107 462.727 23.248C462.396 22.8747 461.911 22.688 461.271 22.688C461.015 22.688 460.764 22.72 460.519 22.784C460.274 22.848 460.055 22.944 459.863 23.072C459.671 23.2 459.516 23.3653 459.399 23.568C459.282 23.7707 459.223 24.0053 459.223 24.272V30H457.943Z" fill="#0B0E29"/>
<rect x="343" y="40" width="150" height="20" fill="#EBEAE8"/>
<path d="M534.188 30V28.928H536.972V19.904H534.188V18.832H541.1V19.904H538.316V28.928H541.1V30H534.188ZM543.302 30V21.744H544.486V22.704H544.549C544.678 22.384 544.859 22.112 545.094 21.888C545.328 21.664 545.675 21.552 546.134 21.552C546.614 21.552 546.971 21.6747 547.206 21.92C547.44 22.1547 547.584 22.464 547.638 22.848H547.686C547.835 22.4747 548.048 22.1653 548.326 21.92C548.603 21.6747 548.987 21.552 549.478 21.552C550.15 21.552 550.598 21.7867 550.822 22.256C551.056 22.7253 551.174 23.3973 551.174 24.272V30H549.99V24.48C549.99 23.776 549.915 23.2907 549.766 23.024C549.627 22.7467 549.366 22.608 548.982 22.608C548.64 22.608 548.363 22.72 548.15 22.944C547.936 23.1573 547.83 23.488 547.83 23.936V30H546.646V24.48C546.646 23.776 546.571 23.2907 546.422 23.024C546.283 22.7467 546.027 22.608 545.654 22.608C545.312 22.608 545.03 22.72 544.806 22.944C544.592 23.1573 544.486 23.488 544.486 23.936V30H543.302ZM553.551 21.744H554.831V23.088H554.895C555.429 22.064 556.277 21.552 557.439 21.552C558.453 21.552 559.242 21.9307 559.807 22.688C560.383 23.4453 560.671 24.5067 560.671 25.872C560.671 27.2373 560.383 28.2987 559.807 29.056C559.242 29.8133 558.453 30.192 557.439 30.192C556.277 30.192 555.429 29.68 554.895 28.656H554.831V33.2H553.551V21.744ZM556.943 29.056C557.69 29.056 558.266 28.832 558.671 28.384C559.087 27.9253 559.295 27.3227 559.295 26.576V25.168C559.295 24.4213 559.087 23.824 558.671 23.376C558.266 22.9173 557.69 22.688 556.943 22.688C556.655 22.688 556.383 22.7253 556.127 22.8C555.871 22.8747 555.647 22.9867 555.455 23.136C555.263 23.2747 555.109 23.4507 554.991 23.664C554.885 23.8667 554.831 24.1067 554.831 24.384V27.36C554.831 27.6373 554.885 27.8827 554.991 28.096C555.109 28.2987 555.263 28.4747 555.455 28.624C555.647 28.7627 555.871 28.8693 556.127 28.944C556.383 29.0187 556.655 29.056 556.943 29.056ZM562.905 28.912H565.785V19.248H562.905V18.16H567.065V28.912H569.945V30H562.905V28.912ZM576.163 30.192C575.565 30.192 575.027 30.0907 574.547 29.888C574.077 29.6853 573.672 29.3973 573.331 29.024C573 28.64 572.744 28.1867 572.563 27.664C572.381 27.1307 572.291 26.5387 572.291 25.888C572.291 25.2267 572.381 24.6293 572.563 24.096C572.755 23.5627 573.016 23.1093 573.347 22.736C573.677 22.352 574.072 22.0587 574.531 21.856C575 21.6533 575.517 21.552 576.083 21.552C576.637 21.552 577.139 21.6533 577.587 21.856C578.045 22.0587 578.435 22.3413 578.755 22.704C579.075 23.056 579.32 23.4773 579.491 23.968C579.661 24.4587 579.747 24.9973 579.747 25.584V26.192H573.635V26.576C573.635 26.9387 573.693 27.2747 573.811 27.584C573.928 27.8933 574.093 28.16 574.307 28.384C574.531 28.608 574.797 28.784 575.107 28.912C575.427 29.0293 575.779 29.088 576.163 29.088C576.717 29.088 577.197 28.96 577.603 28.704C578.008 28.448 578.317 28.096 578.531 27.648L579.475 28.288C579.229 28.8427 578.819 29.3013 578.243 29.664C577.677 30.016 576.984 30.192 576.163 30.192ZM576.083 22.608C575.731 22.608 575.405 22.672 575.107 22.8C574.808 22.928 574.547 23.104 574.323 23.328C574.109 23.552 573.939 23.8187 573.811 24.128C573.693 24.4267 573.635 24.7573 573.635 25.12V25.232H578.371V25.056C578.371 24.6933 578.312 24.3627 578.195 24.064C578.088 23.7653 577.933 23.5093 577.731 23.296C577.539 23.072 577.299 22.9013 577.011 22.784C576.733 22.6667 576.424 22.608 576.083 22.608ZM581.677 30V21.744H582.861V22.704H582.924C583.053 22.384 583.234 22.112 583.469 21.888C583.703 21.664 584.05 21.552 584.509 21.552C584.989 21.552 585.346 21.6747 585.581 21.92C585.815 22.1547 585.959 22.464 586.013 22.848H586.061C586.21 22.4747 586.423 22.1653 586.701 21.92C586.978 21.6747 587.362 21.552 587.853 21.552C588.525 21.552 588.973 21.7867 589.197 22.256C589.431 22.7253 589.549 23.3973 589.549 24.272V30H588.365V24.48C588.365 23.776 588.29 23.2907 588.141 23.024C588.002 22.7467 587.741 22.608 587.357 22.608C587.015 22.608 586.738 22.72 586.525 22.944C586.311 23.1573 586.205 23.488 586.205 23.936V30H585.021V24.48C585.021 23.776 584.946 23.2907 584.797 23.024C584.658 22.7467 584.402 22.608 584.029 22.608C583.687 22.608 583.405 22.72 583.181 22.944C582.967 23.1573 582.861 23.488 582.861 23.936V30H581.677ZM595.35 30.192C594.753 30.192 594.214 30.0907 593.734 29.888C593.265 29.6853 592.86 29.3973 592.518 29.024C592.188 28.64 591.932 28.1867 591.75 27.664C591.569 27.1307 591.478 26.5387 591.478 25.888C591.478 25.2267 591.569 24.6293 591.75 24.096C591.942 23.5627 592.204 23.1093 592.534 22.736C592.865 22.352 593.26 22.0587 593.718 21.856C594.188 21.6533 594.705 21.552 595.27 21.552C595.825 21.552 596.326 21.6533 596.774 21.856C597.233 22.0587 597.622 22.3413 597.942 22.704C598.262 23.056 598.508 23.4773 598.678 23.968C598.849 24.4587 598.934 24.9973 598.934 25.584V26.192H592.822V26.576C592.822 26.9387 592.881 27.2747 592.998 27.584C593.116 27.8933 593.281 28.16 593.494 28.384C593.718 28.608 593.985 28.784 594.294 28.912C594.614 29.0293 594.966 29.088 595.35 29.088C595.905 29.088 596.385 28.96 596.79 28.704C597.196 28.448 597.505 28.096 597.718 27.648L598.662 28.288C598.417 28.8427 598.006 29.3013 597.43 29.664C596.865 30.016 596.172 30.192 595.35 30.192ZM595.27 22.608C594.918 22.608 594.593 22.672 594.294 22.8C593.996 22.928 593.734 23.104 593.51 23.328C593.297 23.552 593.126 23.8187 592.998 24.128C592.881 24.4267 592.822 24.7573 592.822 25.12V25.232H597.558V25.056C597.558 24.6933 597.5 24.3627 597.382 24.064C597.276 23.7653 597.121 23.5093 596.918 23.296C596.726 23.072 596.486 22.9013 596.198 22.784C595.921 22.6667 595.612 22.608 595.27 22.608ZM601.568 30V21.744H602.848V23.088H602.912C602.997 22.8853 603.104 22.6933 603.232 22.512C603.36 22.32 603.515 22.1547 603.696 22.016C603.888 21.8773 604.112 21.7653 604.368 21.68C604.624 21.5947 604.923 21.552 605.264 21.552C606.128 21.552 606.821 21.8293 607.344 22.384C607.867 22.928 608.128 23.7013 608.128 24.704V30H606.848V24.928C606.848 24.1707 606.683 23.6107 606.352 23.248C606.021 22.8747 605.536 22.688 604.896 22.688C604.64 22.688 604.389 22.72 604.144 22.784C603.899 22.848 603.68 22.944 603.488 23.072C603.296 23.2 603.141 23.3653 603.024 23.568C602.907 23.7707 602.848 24.0053 602.848 24.272V30H601.568ZM614.794 30C614.164 30 613.7 29.824 613.402 29.472C613.114 29.12 612.97 28.6667 612.97 28.112V22.832H610.218V21.744H612.266C612.543 21.744 612.735 21.6907 612.842 21.584C612.959 21.4667 613.018 21.2693 613.018 20.992V18.832H614.25V21.744H618.01V22.832H614.25V28.912H618.01V30H614.794ZM627.108 30C626.606 30 626.249 29.872 626.036 29.616C625.822 29.36 625.689 29.04 625.636 28.656H625.556C625.374 29.136 625.081 29.5147 624.676 29.792C624.281 30.0587 623.748 30.192 623.076 30.192C622.212 30.192 621.524 29.968 621.012 29.52C620.5 29.072 620.243 28.4587 620.243 27.68C620.243 26.912 620.521 26.32 621.076 25.904C621.641 25.488 622.548 25.28 623.796 25.28H625.556V24.464C625.556 23.856 625.385 23.4027 625.044 23.104C624.702 22.7947 624.217 22.64 623.588 22.64C623.033 22.64 622.58 22.752 622.228 22.976C621.876 23.1893 621.593 23.4827 621.38 23.856L620.516 23.216C620.622 23.0027 620.766 22.7947 620.948 22.592C621.129 22.3893 621.353 22.2133 621.62 22.064C621.886 21.904 622.19 21.7813 622.532 21.696C622.873 21.6 623.252 21.552 623.668 21.552C624.638 21.552 625.406 21.7973 625.972 22.288C626.548 22.7787 626.836 23.4613 626.836 24.336V28.88H627.988V30H627.108ZM623.299 29.12C623.63 29.12 623.929 29.0827 624.196 29.008C624.473 28.9227 624.713 28.816 624.916 28.688C625.118 28.5493 625.273 28.3893 625.38 28.208C625.497 28.016 625.556 27.8133 625.556 27.6V26.24H623.796C623.028 26.24 622.468 26.3467 622.116 26.56C621.764 26.7733 621.588 27.0827 621.588 27.488V27.824C621.588 28.2507 621.737 28.576 622.036 28.8C622.345 29.0133 622.766 29.12 623.299 29.12ZM633.981 30C633.352 30 632.888 29.824 632.589 29.472C632.301 29.12 632.157 28.6667 632.157 28.112V22.832H629.405V21.744H631.453C631.731 21.744 631.923 21.6907 632.029 21.584C632.147 21.4667 632.205 21.2693 632.205 20.992V18.832H633.437V21.744H637.197V22.832H633.437V28.912H637.197V30H633.981ZM643.687 19.92C643.314 19.92 643.052 19.8453 642.903 19.696C642.754 19.536 642.679 19.3387 642.679 19.104V18.848C642.679 18.6133 642.754 18.4213 642.903 18.272C643.052 18.112 643.314 18.032 643.687 18.032C644.06 18.032 644.322 18.112 644.471 18.272C644.62 18.4213 644.695 18.6133 644.695 18.848V19.104C644.695 19.3387 644.62 19.536 644.471 19.696C644.322 19.8453 644.06 19.92 643.687 19.92ZM640.071 28.912H643.047V22.832H640.071V21.744H644.327V28.912H647.111V30H640.071V28.912ZM652.769 30.192C652.193 30.192 651.67 30.0907 651.201 29.888C650.742 29.6853 650.347 29.3973 650.017 29.024C649.697 28.64 649.451 28.1867 649.281 27.664C649.11 27.1307 649.025 26.5333 649.025 25.872C649.025 25.2213 649.11 24.6293 649.281 24.096C649.451 23.5627 649.697 23.1093 650.017 22.736C650.347 22.352 650.742 22.0587 651.201 21.856C651.67 21.6533 652.193 21.552 652.769 21.552C653.345 21.552 653.862 21.6533 654.321 21.856C654.79 22.0587 655.185 22.352 655.505 22.736C655.835 23.1093 656.086 23.5627 656.257 24.096C656.427 24.6293 656.513 25.2213 656.513 25.872C656.513 26.5333 656.427 27.1307 656.257 27.664C656.086 28.1867 655.835 28.64 655.505 29.024C655.185 29.3973 654.79 29.6853 654.321 29.888C653.862 30.0907 653.345 30.192 652.769 30.192ZM652.769 29.088C653.483 29.088 654.059 28.8747 654.497 28.448C654.934 28.0213 655.153 27.36 655.153 26.464V25.28C655.153 24.384 654.934 23.7227 654.497 23.296C654.059 22.8693 653.483 22.656 652.769 22.656C652.054 22.656 651.478 22.8693 651.041 23.296C650.603 23.7227 650.385 24.384 650.385 25.28V26.464C650.385 27.36 650.603 28.0213 651.041 28.448C651.478 28.8747 652.054 29.088 652.769 29.088ZM659.131 30V21.744H660.411V23.088H660.475C660.56 22.8853 660.667 22.6933 660.795 22.512C660.923 22.32 661.077 22.1547 661.259 22.016C661.451 21.8773 661.675 21.7653 661.931 21.68C662.187 21.5947 662.485 21.552 662.827 21.552C663.691 21.552 664.384 21.8293 664.907 22.384C665.429 22.928 665.691 23.7013 665.691 24.704V30H664.411V24.928C664.411 24.1707 664.245 23.6107 663.915 23.248C663.584 22.8747 663.099 22.688 662.459 22.688C662.203 22.688 661.952 22.72 661.707 22.784C661.461 22.848 661.243 22.944 661.051 23.072C660.859 23.2 660.704 23.3653 660.587 23.568C660.469 23.7707 660.411 24.0053 660.411 24.272V30H659.131Z" fill="#0B0E29"/>
<rect x="525" y="40" width="150" height="20" fill="#00D0F6"/>
<path d="M741.727 30L740.783 26.816H736.863L735.919 30H734.527L737.951 18.832H739.727L743.151 30H741.727ZM738.895 20.256H738.751L737.183 25.648H740.463L738.895 20.256ZM748.713 30.192C748.116 30.192 747.582 30.0907 747.113 29.888C746.654 29.6747 746.265 29.3813 745.945 29.008C745.625 28.6347 745.38 28.1813 745.209 27.648C745.049 27.1147 744.969 26.5227 744.969 25.872C744.969 25.2213 745.054 24.6293 745.225 24.096C745.396 23.5627 745.641 23.1093 745.961 22.736C746.281 22.352 746.67 22.0587 747.129 21.856C747.588 21.6533 748.11 21.552 748.697 21.552C749.497 21.552 750.148 21.728 750.649 22.08C751.15 22.432 751.518 22.8907 751.753 23.456L750.729 24C750.58 23.5733 750.329 23.2427 749.977 23.008C749.636 22.7733 749.209 22.656 748.697 22.656C748.324 22.656 747.988 22.72 747.689 22.848C747.401 22.9653 747.156 23.136 746.953 23.36C746.75 23.584 746.596 23.8507 746.489 24.16C746.393 24.4693 746.345 24.8053 746.345 25.168V26.576C746.345 26.9387 746.393 27.2747 746.489 27.584C746.596 27.8933 746.75 28.16 746.953 28.384C747.156 28.608 747.406 28.784 747.705 28.912C748.004 29.0293 748.345 29.088 748.729 29.088C749.284 29.088 749.742 28.96 750.105 28.704C750.468 28.448 750.756 28.096 750.969 27.648L751.881 28.272C751.636 28.8267 751.252 29.2853 750.729 29.648C750.217 30.0107 749.545 30.192 748.713 30.192ZM758.307 30.192C757.709 30.192 757.176 30.0907 756.707 29.888C756.248 29.6747 755.859 29.3813 755.539 29.008C755.219 28.6347 754.973 28.1813 754.803 27.648C754.643 27.1147 754.563 26.5227 754.563 25.872C754.563 25.2213 754.648 24.6293 754.819 24.096C754.989 23.5627 755.235 23.1093 755.555 22.736C755.875 22.352 756.264 22.0587 756.723 21.856C757.181 21.6533 757.704 21.552 758.291 21.552C759.091 21.552 759.741 21.728 760.243 22.08C760.744 22.432 761.112 22.8907 761.347 23.456L760.323 24C760.173 23.5733 759.923 23.2427 759.571 23.008C759.229 22.7733 758.803 22.656 758.291 22.656C757.917 22.656 757.581 22.72 757.283 22.848C756.995 22.9653 756.749 23.136 756.547 23.36C756.344 23.584 756.189 23.8507 756.083 24.16C755.987 24.4693 755.939 24.8053 755.939 25.168V26.576C755.939 26.9387 755.987 27.2747 756.083 27.584C756.189 27.8933 756.344 28.16 756.547 28.384C756.749 28.608 757 28.784 757.299 28.912C757.597 29.0293 757.939 29.088 758.323 29.088C758.877 29.088 759.336 28.96 759.699 28.704C760.061 28.448 760.349 28.096 760.563 27.648L761.475 28.272C761.229 28.8267 760.845 29.2853 760.323 29.648C759.811 30.0107 759.139 30.192 758.307 30.192ZM767.757 30.192C767.159 30.192 766.621 30.0907 766.141 29.888C765.671 29.6853 765.266 29.3973 764.924 29.024C764.594 28.64 764.338 28.1867 764.157 27.664C763.975 27.1307 763.885 26.5387 763.885 25.888C763.885 25.2267 763.975 24.6293 764.157 24.096C764.349 23.5627 764.61 23.1093 764.941 22.736C765.271 22.352 765.666 22.0587 766.125 21.856C766.594 21.6533 767.111 21.552 767.677 21.552C768.231 21.552 768.733 21.6533 769.181 21.856C769.639 22.0587 770.029 22.3413 770.349 22.704C770.669 23.056 770.914 23.4773 771.085 23.968C771.255 24.4587 771.341 24.9973 771.341 25.584V26.192H765.229V26.576C765.229 26.9387 765.287 27.2747 765.405 27.584C765.522 27.8933 765.687 28.16 765.901 28.384C766.125 28.608 766.391 28.784 766.701 28.912C767.021 29.0293 767.373 29.088 767.757 29.088C768.311 29.088 768.791 28.96 769.197 28.704C769.602 28.448 769.911 28.096 770.125 27.648L771.069 28.288C770.823 28.8427 770.413 29.3013 769.837 29.664C769.271 30.016 768.578 30.192 767.757 30.192ZM767.677 22.608C767.325 22.608 766.999 22.672 766.701 22.8C766.402 22.928 766.141 23.104 765.917 23.328C765.703 23.552 765.533 23.8187 765.405 24.128C765.287 24.4267 765.229 24.7573 765.229 25.12V25.232H769.965V25.056C769.965 24.6933 769.906 24.3627 769.789 24.064C769.682 23.7653 769.527 23.5093 769.325 23.296C769.133 23.072 768.893 22.9013 768.605 22.784C768.327 22.6667 768.018 22.608 767.677 22.608ZM773.926 21.744H775.206V23.088H775.27C775.804 22.064 776.652 21.552 777.814 21.552C778.828 21.552 779.617 21.9307 780.182 22.688C780.758 23.4453 781.046 24.5067 781.046 25.872C781.046 27.2373 780.758 28.2987 780.182 29.056C779.617 29.8133 778.828 30.192 777.814 30.192C776.652 30.192 775.804 29.68 775.27 28.656H775.206V33.2H773.926V21.744ZM777.318 29.056C778.065 29.056 778.641 28.832 779.046 28.384C779.462 27.9253 779.67 27.3227 779.67 26.576V25.168C779.67 24.4213 779.462 23.824 779.046 23.376C778.641 22.9173 778.065 22.688 777.318 22.688C777.03 22.688 776.758 22.7253 776.502 22.8C776.246 22.8747 776.022 22.9867 775.83 23.136C775.638 23.2747 775.484 23.4507 775.366 23.664C775.26 23.8667 775.206 24.1067 775.206 24.384V27.36C775.206 27.6373 775.26 27.8827 775.366 28.096C775.484 28.2987 775.638 28.4747 775.83 28.624C776.022 28.7627 776.246 28.8693 776.502 28.944C776.758 29.0187 777.03 29.056 777.318 29.056ZM787.2 30C786.571 30 786.107 29.824 785.808 29.472C785.52 29.12 785.376 28.6667 785.376 28.112V22.832H782.624V21.744H784.672C784.949 21.744 785.141 21.6907 785.248 21.584C785.365 21.4667 785.424 21.2693 785.424 20.992V18.832H786.656V21.744H790.416V22.832H786.656V28.912H790.416V30H787.2ZM799.514 30C799.012 30 798.655 29.872 798.442 29.616C798.228 29.36 798.095 29.04 798.042 28.656H797.962C797.78 29.136 797.487 29.5147 797.082 29.792C796.687 30.0587 796.154 30.192 795.482 30.192C794.618 30.192 793.93 29.968 793.418 29.52C792.906 29.072 792.65 28.4587 792.65 27.68C792.65 26.912 792.927 26.32 793.482 25.904C794.047 25.488 794.954 25.28 796.202 25.28H797.962V24.464C797.962 23.856 797.791 23.4027 797.45 23.104C797.108 22.7947 796.623 22.64 795.994 22.64C795.439 22.64 794.986 22.752 794.634 22.976C794.282 23.1893 793.999 23.4827 793.786 23.856L792.922 23.216C793.028 23.0027 793.172 22.7947 793.354 22.592C793.535 22.3893 793.759 22.2133 794.026 22.064C794.292 21.904 794.596 21.7813 794.938 21.696C795.279 21.6 795.658 21.552 796.074 21.552C797.044 21.552 797.812 21.7973 798.378 22.288C798.954 22.7787 799.242 23.4613 799.242 24.336V28.88H800.394V30H799.514ZM795.706 29.12C796.036 29.12 796.335 29.0827 796.602 29.008C796.879 28.9227 797.119 28.816 797.322 28.688C797.524 28.5493 797.679 28.3893 797.786 28.208C797.903 28.016 797.962 27.8133 797.962 27.6V26.24H796.202C795.434 26.24 794.874 26.3467 794.522 26.56C794.17 26.7733 793.994 27.0827 793.994 27.488V27.824C793.994 28.2507 794.143 28.576 794.442 28.8C794.751 29.0133 795.172 29.12 795.706 29.12ZM802.756 30V21.744H804.036V23.088H804.1C804.185 22.8853 804.292 22.6933 804.42 22.512C804.548 22.32 804.702 22.1547 804.884 22.016C805.076 21.8773 805.3 21.7653 805.556 21.68C805.812 21.5947 806.11 21.552 806.452 21.552C807.316 21.552 808.009 21.8293 808.532 22.384C809.054 22.928 809.316 23.7013 809.316 24.704V30H808.036V24.928C808.036 24.1707 807.87 23.6107 807.54 23.248C807.209 22.8747 806.724 22.688 806.084 22.688C805.828 22.688 805.577 22.72 805.332 22.784C805.086 22.848 804.868 22.944 804.676 23.072C804.484 23.2 804.329 23.3653 804.212 23.568C804.094 23.7707 804.036 24.0053 804.036 24.272V30H802.756ZM815.869 30.192C815.272 30.192 814.739 30.0907 814.269 29.888C813.811 29.6747 813.421 29.3813 813.101 29.008C812.781 28.6347 812.536 28.1813 812.365 27.648C812.205 27.1147 812.125 26.5227 812.125 25.872C812.125 25.2213 812.211 24.6293 812.381 24.096C812.552 23.5627 812.797 23.1093 813.117 22.736C813.437 22.352 813.827 22.0587 814.285 21.856C814.744 21.6533 815.267 21.552 815.853 21.552C816.653 21.552 817.304 21.728 817.805 22.08C818.307 22.432 818.675 22.8907 818.909 23.456L817.885 24C817.736 23.5733 817.485 23.2427 817.133 23.008C816.792 22.7733 816.365 22.656 815.853 22.656C815.48 22.656 815.144 22.72 814.845 22.848C814.557 22.9653 814.312 23.136 814.109 23.36C813.907 23.584 813.752 23.8507 813.645 24.16C813.549 24.4693 813.501 24.8053 813.501 25.168V26.576C813.501 26.9387 813.549 27.2747 813.645 27.584C813.752 27.8933 813.907 28.16 814.109 28.384C814.312 28.608 814.563 28.784 814.861 28.912C815.16 29.0293 815.501 29.088 815.885 29.088C816.44 29.088 816.899 28.96 817.261 28.704C817.624 28.448 817.912 28.096 818.125 27.648L819.037 28.272C818.792 28.8267 818.408 29.2853 817.885 29.648C817.373 30.0107 816.701 30.192 815.869 30.192ZM825.319 30.192C824.722 30.192 824.183 30.0907 823.703 29.888C823.234 29.6853 822.828 29.3973 822.487 29.024C822.156 28.64 821.9 28.1867 821.719 27.664C821.538 27.1307 821.447 26.5387 821.447 25.888C821.447 25.2267 821.538 24.6293 821.719 24.096C821.911 23.5627 822.172 23.1093 822.503 22.736C822.834 22.352 823.228 22.0587 823.687 21.856C824.156 21.6533 824.674 21.552 825.239 21.552C825.794 21.552 826.295 21.6533 826.743 21.856C827.202 22.0587 827.591 22.3413 827.911 22.704C828.231 23.056 828.476 23.4773 828.647 23.968C828.818 24.4587 828.903 24.9973 828.903 25.584V26.192H822.791V26.576C822.791 26.9387 822.85 27.2747 822.967 27.584C823.084 27.8933 823.25 28.16 823.463 28.384C823.687 28.608 823.954 28.784 824.263 28.912C824.583 29.0293 824.935 29.088 825.319 29.088C825.874 29.088 826.354 28.96 826.759 28.704C827.164 28.448 827.474 28.096 827.687 27.648L828.631 28.288C828.386 28.8427 827.975 29.3013 827.399 29.664C826.834 30.016 826.14 30.192 825.319 30.192ZM825.239 22.608C824.887 22.608 824.562 22.672 824.263 22.8C823.964 22.928 823.703 23.104 823.479 23.328C823.266 23.552 823.095 23.8187 822.967 24.128C822.85 24.4267 822.791 24.7573 822.791 25.12V25.232H827.527V25.056C827.527 24.6933 827.468 24.3627 827.351 24.064C827.244 23.7653 827.09 23.5093 826.887 23.296C826.695 23.072 826.455 22.9013 826.167 22.784C825.89 22.6667 825.58 22.608 825.239 22.608Z" fill="#0B0E29"/>
<rect x="707" y="40" width="150" height="20" fill="#0B0E29" stroke="white" stroke-width="0.5" stroke-dasharray="1 1"/>
<rect x="145.746" y="100.168" width="111.749" height="40.6361" fill="#EBEAE8"/>
<rect x="34" y="100.168" width="111.749" height="40.6361" fill="#EBEAE8"/>
<line x1="145.996" y1="100.168" x2="145.996" y2="140.804" stroke="#0B0E29" stroke-width="0.5" stroke-dasharray="2 2"/>
<rect x="377.367" y="186.52" width="111.749" height="40.6361" fill="#EBEAE8"/>
<rect x="265.621" y="186.52" width="111.749" height="40.6361" fill="#EBEAE8"/>
<line x1="377.617" y1="186.52" x2="377.617" y2="227.156" stroke="#0B0E29" stroke-width="0.5" stroke-dasharray="2 2"/>
<rect x="609" y="186.52" width="111.749" height="40.6361" fill="#00D0F6"/>
<rect x="497.254" y="186.52" width="111.749" height="40.6361" fill="#00D0F6"/>
<line x1="609.25" y1="186.52" x2="609.25" y2="227.156" stroke="#0B0E29" stroke-width="0.5" stroke-dasharray="2 2"/>
<rect x="840.629" y="186.52" width="111.749" height="40.6361" fill="black" stroke="white" stroke-width="0.5" stroke-dasharray="1 1"/>
<rect x="728.883" y="186.52" width="111.749" height="40.6361" fill="black" stroke="white" stroke-width="0.5" stroke-dasharray="1 1"/>
<circle cx="697" cy="157" r="10" fill="#1324A0"/>
<circle cx="928.5" cy="243.5" r="10.5" fill="#1324A0"/>
<ellipse cx="1160.5" cy="331" rx="10.5" ry="10" fill="#1324A0"/>
<ellipse cx="697" cy="243.5" rx="10" ry="10.5" fill="#FF0049"/>
<ellipse cx="752" cy="243.5" rx="10" ry="10.5" fill="#00D0F6"/>
<rect x="377.367" y="100.168" width="111.749" height="40.6361" fill="#00D0F6"/>
<rect x="265.621" y="100.168" width="111.749" height="40.6361" fill="#00D0F6"/>
<line x1="377.617" y1="100.168" x2="377.617" y2="140.804" stroke="#0B0E29" stroke-width="0.5" stroke-dasharray="2 2"/>
<rect x="609" y="100.168" width="111.749" height="40.6361" fill="black" stroke="white" stroke-width="0.5" stroke-dasharray="1 1"/>
<rect x="497.254" y="100.168" width="111.749" height="40.6361" fill="black" stroke="white" stroke-width="0.5" stroke-dasharray="1 1"/>
<circle cx="466" cy="157" r="10" fill="#FF0049"/>
<circle cx="522" cy="157" r="10" fill="#00D0F6"/>
<rect x="609" y="272.871" width="111.749" height="40.6361" fill="#EBEAE8"/>
<rect x="497.254" y="272.871" width="111.749" height="40.6361" fill="#EBEAE8"/>
<line x1="609.25" y1="272.871" x2="609.25" y2="313.507" stroke="#0B0E29" stroke-width="0.5" stroke-dasharray="2 2"/>
<rect x="840.621" y="272.871" width="111.749" height="40.6361" fill="#00D0F6"/>
<rect x="728.875" y="272.871" width="111.749" height="40.6361" fill="#00D0F6"/>
<line x1="840.871" y1="272.871" x2="840.871" y2="313.507" stroke="#0B0E29" stroke-width="0.5" stroke-dasharray="2 2"/>
<rect x="1072.25" y="272.871" width="111.749" height="40.6361" fill="black" stroke="white" stroke-width="0.5" stroke-dasharray="1 1"/>
<rect x="960.504" y="272.871" width="111.749" height="40.6361" fill="black" stroke="white" stroke-width="0.5" stroke-dasharray="1 1"/>
<ellipse cx="928.5" cy="330" rx="10.5" ry="10" fill="#FF0049"/>
<ellipse cx="983.5" cy="330" rx="10.5" ry="10" fill="#00D0F6"/>
<circle cx="47" cy="159" r="9" fill="#0B0E29"/>
<circle cx="279" cy="246" r="9" fill="#0B0E29"/>
<ellipse cx="511.5" cy="332" rx="9.5" ry="9" fill="#0B0E29"/>
<circle cx="164" cy="159" r="9" fill="#0B0E29"/>
<circle cx="396" cy="246" r="9" fill="#0B0E29"/>
<circle cx="627" cy="332" r="9" fill="#0B0E29"/>
<path fill-rule="evenodd" clip-rule="evenodd" d="M135.178 165.935C133.762 167.351 131.991 168.195 130.151 168.467L137.71 160.908C137.438 162.748 136.594 164.519 135.178 165.935ZM137.317 156.661C137.65 157.628 137.813 158.641 137.806 159.653L128.896 168.563C127.884 168.57 126.871 168.407 125.904 168.074L137.317 156.661ZM136.985 155.834C136.64 155.084 136.185 154.372 135.622 153.722L122.965 166.379C123.615 166.942 124.327 167.397 125.077 167.742L136.985 155.834ZM133.046 151.665C133.765 152.047 134.443 152.535 135.058 153.127L122.37 165.815C121.778 165.2 121.29 164.522 120.908 163.803L133.046 151.665ZM132.258 151.294C131.353 150.921 130.4 150.702 129.439 150.637L119.88 160.196C119.945 161.157 120.164 162.111 120.537 163.015L132.258 151.294ZM122.488 153.245C124.1 151.633 126.174 150.763 128.284 150.634L119.877 159.041C120.005 156.931 120.876 154.858 122.488 153.245Z" fill="#0B0E29"/>
<path fill-rule="evenodd" clip-rule="evenodd" d="M366.811 252.285C365.392 253.704 363.617 254.548 361.773 254.818L369.344 247.247C369.074 249.09 368.23 250.866 366.811 252.285ZM368.948 243.004C369.281 243.97 369.445 244.982 369.439 245.993L360.52 254.913C359.508 254.919 358.496 254.755 357.53 254.421L368.948 243.004ZM368.615 242.178C368.269 241.428 367.814 240.716 367.25 240.066L354.593 252.724C355.243 253.288 355.954 253.743 356.704 254.089L368.615 242.178ZM364.673 238.011C365.393 238.393 366.071 238.88 366.686 239.472L353.998 252.16C353.407 251.545 352.92 250.866 352.537 250.147L364.673 238.011ZM363.885 237.641C362.979 237.268 362.025 237.05 361.063 236.986L351.513 246.537C351.576 247.499 351.795 248.453 352.167 249.358L363.885 237.641ZM354.121 239.595C355.731 237.985 357.8 237.115 359.907 236.984L351.51 245.381C351.641 243.274 352.511 241.205 354.121 239.595Z" fill="#0B0E29"/>
<path fill-rule="evenodd" clip-rule="evenodd" d="M598.436 338.636C597.021 340.05 595.252 340.894 593.414 341.166L600.967 333.614C600.694 335.451 599.851 337.221 598.436 338.636ZM600.576 329.365C600.909 330.332 601.071 331.345 601.064 332.358L592.158 341.263C591.146 341.271 590.133 341.108 589.165 340.775L600.576 329.365ZM600.244 328.538C599.899 327.787 599.445 327.075 598.882 326.424L586.225 339.081C586.875 339.644 587.588 340.099 588.338 340.444L600.244 328.538ZM596.307 324.367C597.026 324.749 597.704 325.237 598.318 325.83L585.63 338.517C585.037 337.903 584.55 337.225 584.167 336.506L596.307 324.367ZM595.519 323.995C594.615 323.622 593.662 323.403 592.701 323.338L583.138 332.9C583.203 333.862 583.423 334.815 583.796 335.719L595.519 323.995ZM585.746 325.946C587.359 324.332 589.435 323.461 591.546 323.334L583.134 331.746C583.262 329.634 584.132 327.559 585.746 325.946Z" fill="#0B0E29"/>
<path fill-rule="evenodd" clip-rule="evenodd" d="M247.584 165.935C246.169 167.35 244.4 168.194 242.561 168.466L250.115 160.912C249.843 162.751 248.999 164.52 247.584 165.935ZM249.724 156.664C250.057 157.631 250.22 158.645 250.212 159.657L241.306 168.563C240.294 168.571 239.281 168.408 238.313 168.075L249.724 156.664ZM249.392 155.837C249.047 155.087 248.593 154.374 248.03 153.724L235.373 166.381C236.023 166.944 236.736 167.398 237.486 167.743L249.392 155.837ZM245.455 151.666C246.174 152.049 246.852 152.537 247.466 153.129L234.778 165.817C234.186 165.203 233.698 164.525 233.315 163.806L245.455 151.666ZM244.667 151.295C243.763 150.922 242.81 150.703 241.848 150.638L232.287 160.199C232.352 161.161 232.571 162.114 232.944 163.018L244.667 151.295ZM234.894 153.245C236.508 151.632 238.582 150.761 240.694 150.634L232.283 159.045C232.41 156.933 233.281 154.859 234.894 153.245Z" fill="#0B0E29"/>
<path fill-rule="evenodd" clip-rule="evenodd" d="M479.217 252.286C477.798 253.705 476.022 254.549 474.178 254.819L481.751 247.247C481.481 249.091 480.636 250.867 479.217 252.286ZM481.354 243.004C481.687 243.97 481.851 244.982 481.845 245.993L472.925 254.914C471.914 254.92 470.902 254.756 469.936 254.422L481.354 243.004ZM481.021 242.178C480.675 241.428 480.22 240.717 479.656 240.067L466.998 252.725C467.648 253.289 468.36 253.744 469.109 254.09L481.021 242.178ZM477.079 238.012C477.798 238.394 478.477 238.881 479.092 239.473L466.404 252.16C465.812 251.545 465.325 250.867 464.943 250.147L477.079 238.012ZM476.29 237.641C475.385 237.269 474.431 237.051 473.468 236.987L463.919 246.537C463.982 247.499 464.201 248.453 464.573 249.359L476.29 237.641ZM466.527 239.596C468.137 237.986 470.206 237.116 472.312 236.985L463.916 245.381C464.047 243.274 464.918 241.205 466.527 239.596Z" fill="#0B0E29"/>
<path fill-rule="evenodd" clip-rule="evenodd" d="M710.838 338.635C709.422 340.051 707.651 340.895 705.812 341.167L713.37 333.609C713.098 335.448 712.254 337.22 710.838 338.635ZM712.977 329.362C713.31 330.329 713.473 331.342 713.466 332.354L704.556 341.263C703.545 341.271 702.532 341.108 701.565 340.774L712.977 329.362ZM712.645 328.535C712.3 327.785 711.846 327.073 711.282 326.422L698.625 339.079C699.275 339.643 699.988 340.097 700.738 340.443L712.645 328.535ZM708.706 324.365C709.426 324.748 710.104 325.235 710.718 325.828L698.03 338.515C697.438 337.901 696.951 337.223 696.568 336.504L708.706 324.365ZM707.919 323.994C707.014 323.621 706.061 323.402 705.099 323.338L695.54 332.897C695.605 333.858 695.824 334.811 696.197 335.716L707.919 323.994ZM698.148 325.945C699.761 324.333 701.834 323.463 703.944 323.334L695.537 331.742C695.665 329.631 696.536 327.558 698.148 325.945Z" fill="#0B0E29"/>
</svg>
