<svg width="447" height="189" fill="none" xmlns="http://www.w3.org/2000/svg"><path d="M238.884 177.096l21.902-12.638h20.631L238.884 189l-42.532-24.542h20.63l21.902 12.638zM41.228 63.046l107.26 61.89h-20.631L30.916 69V25.494h10.312v37.552zM41.228-22.634H30.916v-42.071h10.312v42.072zM436.54-22.633h10.312v-43.72c-1.329-.575-2.687-.875-4.051-1.177-2.099-.464-4.213-.931-6.261-2.41v47.307zM446.852 25.494H436.54v37.552l-107.26 61.89h20.631L446.852 69V25.494zM79.994-187.414h-20.63l48.056-27.729h20.63l-48.056 27.729zM159.536-233.311h-20.631L238.884-291l96.574 55.123-3.347 10.574-93.227-53.793-79.348 45.785zM436.54-155.618c0 .806.109 1.674.223 2.579.357 2.836.759 6.033-2.011 8.812 14.013 1.753 7.001 11.155 0 14.502 6.363 2.55 11.392 4.615 12.1 5.418V-171l-30.597-17.689v11.474l20.285 12.169v9.428z" fill="#FF0049"/><path d="M127.771 124.936l-107.26-61.89V25.494H10.2V69l96.942 55.936h20.63zM240.069 164.458l-21.902 12.638-21.902-12.638h-20.63L218.167 189l42.533-24.542h-20.631zM308.563 124.936l107.26-61.89V25.494h10.313L426.135 69l-96.941 55.936h-20.631zM10.2-22.634h10.312v-42.071H10.199v42.072zM86.703-215.143l-48.057 27.729h20.631l48.057-27.729H86.703zM138.819-233.311h-20.631L218.167-291l114.741 67.888-2.549 7.331-112.192-63.315-79.348 45.785zM415.823-22.633h10.313v-53.28c-2.091-.907-4.254-2.845-6.401-4.768-1.316-1.18-2.627-2.355-3.912-3.283v61.33z" fill="#00D0F6"/><path d="M137.97 124.936L30.71 63.046V25.494H20.399V69l96.942 55.936h20.63zM250.268 164.458l-21.902 12.638-21.902-12.638h-20.63L228.366 189l42.533-24.542h-20.631zM318.762 124.936l107.26-61.89V25.494h10.312V69l-96.941 55.936h-20.631zM33.898-22.634H17.21v-42.071h16.687v42.072zM96.902-215.143l-48.057 27.729h20.631l48.056-27.729h-20.63zM128.387-233.311h20.631l79.348-45.785 102.311 59.035 3.187-10.065L228.366-291l-99.979 57.689zM436.334-22.633h-10.312v-53.681c3.379 2.44 6.939 4.357 10.312 5.818v47.863zM435.332-128.699c-.013-.242.419-.713 1.002-1.237v1.497c-.19-.044-.377-.084-.56-.119-.336-.063-.438-.146-.442-.141zM426.022-155.618c4.876-.898 8.548.593 10.312 2.594V-171l-19.123-11.034c-4.462-2.575-3.309 9.994-.797 11.444l9.608 5.544v9.428z" fill="#fff"/><path d="M202.727 164.458l-68.495-39.522h20.631l68.494 39.522h-20.63zM267.161 164.458l68.494-39.522h20.631l-68.494 39.522h-20.631z" fill="#FF0049"/><path d="M187.746 164.459l-68.494-39.522h11.069l68.494 39.522h-11.069zM252.181 164.459l68.494-39.522h11.069l-68.494 39.522h-11.069z" fill="#00D0F6"/><path d="M195.396 164.458l-68.494-39.522h20.631l68.494 39.522h-20.631zM259.831 164.458l68.494-39.522h20.631l-68.494 39.522h-20.631z" fill="#fff"/><path d="M31.348 25.494H21.035v-48.127h10.313v48.127zM426.659-22.633v48.127h10.312v-48.127h-10.312z" fill="#FF0049"/><path d="M14.456 25.494H0v-48.127h14.456v48.127zM412.317-22.633v48.127h7.763v-48.127h-7.763z" fill="#00D0F6"/><path d="M24.017 25.494H13.705v-48.127h10.313v48.127zM429.641-22.633h-10.312v48.127h10.312v-48.127z" fill="#fff"/></svg>