<svg width="447" height="189" viewBox="0 0 447 189" fill="none" xmlns="http://www.w3.org/2000/svg">
<path d="M238.884 177.096L260.786 164.458L281.417 164.458L238.884 189L196.352 164.458L216.982 164.458L238.884 177.096Z" fill="#FF0049"/>
<path d="M41.2285 63.0463L148.488 124.936L127.857 124.936L30.916 69L30.916 25.494L41.2285 25.494L41.2285 63.0463Z" fill="#FF0049"/>
<path d="M41.2285 -22.6335L30.916 -22.6335L30.916 -64.7052L41.2285 -64.7052L41.2285 -22.6335Z" fill="#FF0049"/>
<path d="M436.54 -22.6334L446.852 -22.6334L446.852 -66.3521C445.523 -66.9279 444.165 -67.2281 442.801 -67.5297C440.702 -67.9936 438.588 -68.461 436.54 -69.94L436.54 -22.6334Z" fill="#FF0049"/>
<path d="M446.852 25.4941L436.54 25.4941L436.54 63.0463L329.28 124.936L349.911 124.936L446.852 69L446.852 25.4941Z" fill="#FF0049"/>
<path d="M79.9939 -187.414L59.3632 -187.414L107.42 -215.143L128.05 -215.143L79.9939 -187.414Z" fill="#FF0049"/>
<path d="M159.536 -233.311L138.905 -233.311L238.884 -291L335.458 -235.877L332.111 -225.303L238.884 -279.096L159.536 -233.311Z" fill="#FF0049"/>
<path d="M436.54 -155.618C436.54 -154.812 436.649 -153.944 436.763 -153.039C437.12 -150.203 437.522 -147.006 434.752 -144.227C448.765 -142.474 441.753 -133.072 434.752 -129.725C441.115 -127.175 446.144 -125.11 446.852 -124.307L446.852 -171L416.255 -188.689L416.255 -177.215L436.54 -165.046L436.54 -155.618Z" fill="#FF0049"/>
<path d="M127.772 124.936L20.5127 63.0463L20.5127 25.494L10.2002 25.494L10.2002 69L107.142 124.936L127.772 124.936Z" fill="#00D0F6"/>
<path d="M240.07 164.458L218.168 177.096L196.266 164.458L175.636 164.458L218.168 189L260.701 164.458L240.07 164.458Z" fill="#00D0F6"/>
<path d="M308.564 124.936L415.824 63.0463L415.824 25.4941L426.136 25.4941L426.136 69L329.195 124.936L308.564 124.936Z" fill="#00D0F6"/>
<path d="M10.2002 -22.6335L20.5127 -22.6335L20.5127 -64.7052L10.2002 -64.7052L10.2002 -22.6335Z" fill="#00D0F6"/>
<path d="M86.7038 -215.143L38.6474 -187.414L59.2781 -187.414L107.334 -215.143L86.7038 -215.143Z" fill="#00D0F6"/>
<path d="M138.82 -233.311L118.189 -233.311L218.168 -291L332.909 -223.112L330.36 -215.781L218.168 -279.096L138.82 -233.311Z" fill="#00D0F6"/>
<path d="M415.824 -22.6334L426.136 -22.6334L426.136 -75.9139C424.046 -76.8197 421.883 -78.7576 419.736 -80.6813C418.42 -81.8613 417.109 -83.036 415.824 -83.9639L415.824 -22.6334Z" fill="#00D0F6"/>
<path d="M137.97 124.936L30.7107 63.0463L30.7107 25.494L20.3982 25.494L20.3982 69L117.34 124.936L137.97 124.936Z" fill="white"/>
<path d="M250.268 164.458L228.366 177.096L206.464 164.458L185.834 164.458L228.366 189L270.899 164.458L250.268 164.458Z" fill="white"/>
<path d="M318.762 124.936L426.022 63.0463L426.022 25.4941L436.334 25.4941L436.334 69L339.393 124.936L318.762 124.936Z" fill="white"/>
<path d="M33.8979 -22.6335L17.211 -22.6335L17.211 -64.7052L33.8979 -64.7052L33.8979 -22.6335Z" fill="white"/>
<path d="M96.9018 -215.143L48.8454 -187.414L69.4761 -187.414L117.532 -215.143L96.9018 -215.143Z" fill="white"/>
<path d="M128.387 -233.311L149.018 -233.311L228.366 -279.096L330.677 -220.061L333.864 -230.126L228.366 -291L128.387 -233.311Z" fill="white"/>
<path d="M436.334 -22.6334L426.022 -22.6334L426.022 -76.3145C429.401 -73.874 432.961 -71.957 436.334 -70.4955L436.334 -22.6334Z" fill="white"/>
<path d="M435.332 -128.699C435.319 -128.941 435.751 -129.412 436.334 -129.936L436.334 -128.439C436.144 -128.483 435.957 -128.523 435.774 -128.558C435.439 -128.621 435.336 -128.704 435.332 -128.699Z" fill="white"/>
<path d="M426.022 -155.618C430.898 -156.516 434.57 -155.025 436.334 -153.024L436.334 -171L417.211 -182.034C412.749 -184.609 413.902 -172.04 416.414 -170.59L426.022 -165.046L426.022 -155.618Z" fill="white"/>
<path d="M202.726 164.458L134.231 124.936L154.862 124.936L223.356 164.458L202.726 164.458Z" fill="#FF0049"/>
<path d="M267.16 164.458L335.654 124.936L356.285 124.936L287.791 164.458L267.16 164.458Z" fill="#FF0049"/>
<path d="M187.747 164.459L119.253 124.937L130.322 124.937L198.816 164.459L187.747 164.459Z" fill="#00D0F6"/>
<path d="M252.182 164.459L320.676 124.937L331.745 124.937L263.251 164.459L252.182 164.459Z" fill="#00D0F6"/>
<path d="M195.396 164.458L126.901 124.936L147.532 124.936L216.026 164.458L195.396 164.458Z" fill="white"/>
<path d="M259.83 164.458L328.324 124.936L348.955 124.936L280.461 164.458L259.83 164.458Z" fill="white"/>
<path d="M31.3466 25.4941L21.0342 25.4941L21.0342 -22.6333L31.3466 -22.6333L31.3466 25.4941Z" fill="#FF0049"/>
<path d="M426.658 -22.6333L426.658 25.4942L436.97 25.4942L436.97 -22.6333L426.658 -22.6333Z" fill="#FF0049"/>
<path d="M14.4559 25.4941L0 25.4941L4.54858e-06 -22.6333L14.4559 -22.6333L14.4559 25.4941Z" fill="#00D0F6"/>
<path d="M412.317 -22.6333L412.317 25.4942L420.08 25.4942L420.08 -22.6333L412.317 -22.6333Z" fill="#00D0F6"/>
<path d="M24.0175 25.4941L13.7051 25.4941L13.7051 -22.6333L24.0176 -22.6333L24.0175 25.4941Z" fill="white"/>
<path d="M429.641 -22.6333L419.329 -22.6333L419.329 25.4942L429.641 25.4942L429.641 -22.6333Z" fill="white"/>
</svg>
