<svg width="32" height="32" viewBox="0 0 32 32" fill="none" xmlns="http://www.w3.org/2000/svg">
<rect width="32" height="32" rx="16" fill="#CCF7FF"/>
<path fill-rule="evenodd" clip-rule="evenodd" d="M12.25 13C12.5008 13 12.7349 13.1253 12.874 13.334L15.25 16.8979L16.126 15.584C16.2651 15.3753 16.4992 15.25 16.75 15.25H19C19.4142 15.25 19.75 15.5858 19.75 16C19.75 16.4142 19.4142 16.75 19 16.75H17.1514L15.874 18.666C15.7349 18.8747 15.5008 19 15.25 19C14.9992 19 14.7651 18.8747 14.626 18.666L12.25 15.1021L11.374 16.416C11.2349 16.6247 11.0008 16.75 10.75 16.75H7C6.58579 16.75 6.25 16.4142 6.25 16C6.25 15.5858 6.58579 15.25 7 15.25H10.3486L11.626 13.334C11.7651 13.1253 11.9992 13 12.25 13Z" fill="#00D0F6"/>
<path fill-rule="evenodd" clip-rule="evenodd" d="M13.4388 8.98404C12.5971 8.53583 11.6261 8.3931 10.691 8.58011C9.75594 8.76713 8.91454 9.27235 8.30997 10.0098C7.70539 10.7473 7.375 11.6714 7.375 12.625C7.375 12.7527 7.3754 12.8544 7.38217 12.9425C7.41394 13.3555 7.10489 13.716 6.6919 13.7478C6.27891 13.7796 5.91835 13.4705 5.88659 13.0575C5.87497 12.9066 5.87499 12.7508 5.875 12.6357L5.875 12.625C5.875 11.3246 6.32554 10.0644 7.14995 9.05882C7.97437 8.0532 9.12174 7.36426 10.3968 7.10924C11.672 6.85422 12.996 7.04886 14.1438 7.66005C14.8766 8.05025 15.5086 8.59484 16 9.25C16.4914 8.59484 17.1234 8.05025 17.8562 7.66005C19.004 7.04886 20.328 6.85422 21.6032 7.10924C22.8783 7.36426 24.0256 8.0532 24.8501 9.05882C25.6745 10.0644 26.125 11.3246 26.125 12.625C26.125 16.1577 23.554 19.2573 21.1892 21.3856C19.9842 22.4702 18.7825 23.347 17.8837 23.9522C17.4336 24.2553 17.0576 24.4915 16.7927 24.6527C16.6602 24.7333 16.5554 24.7952 16.4829 24.8375C16.4466 24.8587 16.4184 24.8749 16.3988 24.8861L16.3759 24.8991L16.3695 24.9027L16.3675 24.9038C16.3673 24.9039 16.3665 24.9044 16 24.25C15.6329 24.904 15.6327 24.9039 15.6326 24.9039L15.6313 24.9031L15.6285 24.9015L15.6187 24.896L15.5833 24.8757C15.5529 24.8582 15.5089 24.8327 15.4525 24.7994C15.3399 24.7329 15.1776 24.6353 14.975 24.5087C14.57 24.2555 14.0027 23.8857 13.3478 23.4155C12.0424 22.4783 10.3685 21.1279 8.93869 19.4939C8.66593 19.1822 8.69752 18.7083 9.00925 18.4356C9.32098 18.1628 9.7948 18.1944 10.0676 18.5061C11.3941 20.0221 12.9686 21.2967 14.2226 22.197C14.8473 22.6456 15.3875 22.9976 15.77 23.2367C15.8549 23.2897 15.932 23.3372 16.0004 23.3789C16.0046 23.3764 16.0087 23.3738 16.0129 23.3713C16.2607 23.2205 16.6172 22.9967 17.046 22.708C17.905 22.1296 19.0471 21.2955 20.1858 20.2707C22.5085 18.1802 24.625 15.4673 24.625 12.625C24.625 11.6714 24.2946 10.7473 23.69 10.0098C23.0855 9.27235 22.2441 8.76713 21.309 8.58011C20.3739 8.3931 19.4029 8.53583 18.5612 8.98404C17.7195 9.43224 17.0591 10.1582 16.6923 11.0385L16 10.75L15.3077 11.0385C14.9409 10.1582 14.2805 9.43224 13.4388 8.98404ZM16 24.25L15.6326 24.9039C15.8604 25.0317 16.1385 25.032 16.3665 24.9044L16 24.25Z" fill="#00D0F6"/>
</svg>
