<svg width="32" height="32" viewBox="0 0 32 32" fill="none" xmlns="http://www.w3.org/2000/svg">
<rect width="32" height="32" rx="16" fill="#CCF7FF"/>
<path d="M10 12C10.7403 12 11.3866 11.5978 11.7324 11H18C19.1046 11 20 11.8954 20 13C20 14.1046 19.1046 15 18 15H14C11.7909 15 10 16.7909 10 19C10 21.2091 11.7909 23 14 23H20.2676C20.6134 23.5978 21.2597 24 22 24C23.1046 24 24 23.1046 24 22C24 20.8954 23.1046 20 22 20C21.2597 20 20.6134 20.4022 20.2676 21H14C12.8954 21 12 20.1046 12 19C12 17.8954 12.8954 17 14 17H18C20.2091 17 22 15.2091 22 13C22 10.7909 20.2091 9 18 9H11.7324C11.3866 8.4022 10.7403 8 10 8C8.89543 8 8 8.89543 8 10C8 11.1046 8.89543 12 10 12Z" fill="#00D0F6"/>
</svg>
