<svg width="32" height="32" viewBox="0 0 32 32" fill="none" xmlns="http://www.w3.org/2000/svg">
<rect width="32" height="32" rx="16" fill="#CCF7FF"/>
<path fill-rule="evenodd" clip-rule="evenodd" d="M7.00001 7.75C7.41422 7.75 7.75001 8.08579 7.75001 8.5V22.75H25C25.4142 22.75 25.75 23.0858 25.75 23.5C25.75 23.9142 25.4142 24.25 25 24.25H7.00001C6.5858 24.25 6.25001 23.9142 6.25001 23.5V8.5C6.25001 8.08579 6.5858 7.75 7.00001 7.75Z" fill="#00D0F6"/>
<path fill-rule="evenodd" clip-rule="evenodd" d="M25.5644 12.5061C25.8372 12.8178 25.8056 13.2917 25.4939 13.5644L19.4939 18.8144C19.2272 19.0478 18.8335 19.0626 18.55 18.85L13.0364 14.7148L7.49389 19.5644C7.18216 19.8372 6.70834 19.8056 6.43558 19.4939C6.16282 19.1822 6.1944 18.7083 6.50613 18.4356L12.5061 13.1856C12.7728 12.9522 13.1665 12.9374 13.45 13.15L18.9637 17.2852L24.5061 12.4356C24.8179 12.1628 25.2917 12.1944 25.5644 12.5061Z" fill="#00D0F6"/>
</svg>
