<svg width="32" height="32" viewBox="0 0 32 32" fill="none" xmlns="http://www.w3.org/2000/svg">
<rect width="32" height="32" rx="16" fill="#CCF7FF"/>
<path fill-rule="evenodd" clip-rule="evenodd" d="M7.75004 7.75093C8.16426 7.75093 8.50004 8.08671 8.50004 8.50093V24.2509C8.50004 24.6651 8.16426 25.0009 7.75004 25.0009C7.33583 25.0009 7.00004 24.6651 7.00004 24.2509V8.50093C7.00004 8.08671 7.33583 7.75093 7.75004 7.75093Z" fill="#00D0F6"/>
<path fill-rule="evenodd" clip-rule="evenodd" d="M20.0616 9.02172C21.2374 9.14335 22.4545 8.91127 23.8 7.90211C24.0273 7.73167 24.3314 7.70425 24.5855 7.83129C24.8395 7.95834 25 8.21803 25 8.50211V19.7521C25 19.9882 24.8889 20.2105 24.7 20.3521C23.0456 21.593 21.4502 21.9234 19.9072 21.7638C18.4339 21.6113 17.0324 21.0106 15.7556 20.4633L15.7046 20.4415C14.3701 19.8695 13.1642 19.3593 11.9385 19.2325C10.7627 19.1109 9.54559 19.343 8.20004 20.3521C7.86867 20.6006 7.39857 20.5335 7.15004 20.2021C6.90152 19.8707 6.96867 19.4006 7.30004 19.1521C8.9545 17.9113 10.5499 17.5809 12.0928 17.7405C13.5662 17.8929 14.9677 18.4936 16.2445 19.0409L16.2955 19.0628C17.63 19.6347 18.8359 20.1449 20.0616 20.2717C21.1494 20.3842 22.2725 20.194 23.5 19.3658V9.8536C22.2706 10.475 21.0739 10.6344 19.9072 10.5138C18.4339 10.3613 17.0324 9.76063 15.7556 9.21334L15.7046 9.19147C14.3701 8.61953 13.1642 8.10931 11.9385 7.98251C10.7627 7.86087 9.54559 8.09296 8.20004 9.10211C7.86867 9.35064 7.39857 9.28348 7.15004 8.95211C6.90152 8.62074 6.96867 8.15064 7.30004 7.90211C8.9545 6.66127 10.5499 6.33085 12.0928 6.49047C13.5662 6.64289 14.9677 7.2436 16.2445 7.79089L16.2955 7.81275C17.63 8.3847 18.8359 8.89492 20.0616 9.02172Z" fill="#00D0F6"/>
</svg>
