<svg width="32" height="32" viewBox="0 0 32 32" fill="none" xmlns="http://www.w3.org/2000/svg">
<rect width="32" height="32" rx="16" fill="#CCF7FF"/>
<path fill-rule="evenodd" clip-rule="evenodd" d="M13 11.5C13 11.0858 13.3358 10.75 13.75 10.75H23.5C24.4946 10.75 25.4484 11.1451 26.1517 11.8483C26.8549 12.5516 27.25 13.5054 27.25 14.5V19.75C27.25 20.1642 26.9142 20.5 26.5 20.5C26.0858 20.5 25.75 20.1642 25.75 19.75V14.5C25.75 13.9033 25.5129 13.331 25.091 12.909C24.669 12.4871 24.0967 12.25 23.5 12.25H14.5V19.75C14.5 20.1642 14.1642 20.5 13.75 20.5C13.3358 20.5 13 20.1642 13 19.75V11.5Z" fill="#00D0F6"/>
<path fill-rule="evenodd" clip-rule="evenodd" d="M5.5 7.75C5.91421 7.75 6.25 8.08579 6.25 8.5V23.5C6.25 23.9142 5.91421 24.25 5.5 24.25C5.08579 24.25 4.75 23.9142 4.75 23.5V8.5C4.75 8.08579 5.08579 7.75 5.5 7.75Z" fill="#00D0F6"/>
<path fill-rule="evenodd" clip-rule="evenodd" d="M4.75 19.75C4.75 19.3358 5.08579 19 5.5 19H26.5C26.9142 19 27.25 19.3358 27.25 19.75V23.5C27.25 23.9142 26.9142 24.25 26.5 24.25C26.0858 24.25 25.75 23.9142 25.75 23.5V20.5H5.5C5.08579 20.5 4.75 20.1642 4.75 19.75Z" fill="#00D0F6"/>
<path fill-rule="evenodd" clip-rule="evenodd" d="M4.75 11.5C4.75 11.0858 5.08579 10.75 5.5 10.75H13.75C14.1642 10.75 14.5 11.0858 14.5 11.5C14.5 11.9142 14.1642 12.25 13.75 12.25H5.5C5.08579 12.25 4.75 11.9142 4.75 11.5Z" fill="#00D0F6"/>
</svg>
