<svg width="32" height="32" viewBox="0 0 32 32" fill="none" xmlns="http://www.w3.org/2000/svg">
<rect width="32" height="32" rx="16" fill="#CCF7FF"/>
<path fill-rule="evenodd" clip-rule="evenodd" d="M12.7873 5.99721C12.9933 5.93071 13.2179 5.95645 13.4035 6.06782L15.5959 7.38322C15.8646 7.37121 16.1337 7.37122 16.4025 7.38324L18.5857 6.07675C18.7698 5.96659 18.9922 5.94053 19.1967 6.00516C20.6295 6.4578 21.9467 7.21641 23.0572 8.22848C23.2164 8.37356 23.3056 8.58008 23.3019 8.79544L23.259 11.3438C23.4071 11.5711 23.5429 11.8062 23.666 12.048L25.8884 13.2836C26.0755 13.3876 26.2092 13.5667 26.2559 13.7756C26.5829 15.2401 26.5863 16.7582 26.266 18.2242C26.22 18.4349 26.0854 18.6156 25.8967 18.7202L23.6657 19.9558C23.5427 20.1973 23.407 20.4322 23.259 20.6593L23.3019 23.2077C23.3056 23.4231 23.2164 23.6296 23.0572 23.7747C21.949 24.7845 20.6374 25.5453 19.2106 26.0059C19.0046 26.0724 18.7799 26.0467 18.5943 25.9353L16.402 24.6199C16.1332 24.6319 15.8641 24.6319 15.5954 24.6199L13.4122 25.9264C13.2281 26.0365 13.0057 26.0626 12.8011 25.998C11.3684 25.5453 10.0512 24.7867 8.94062 23.7747C8.78141 23.6296 8.69227 23.423 8.69591 23.2076L8.73886 20.6651C8.59169 20.4354 8.45599 20.1985 8.33225 19.9554L6.10948 18.7196C5.92235 18.6155 5.78861 18.4365 5.74195 18.2275C5.41498 16.763 5.41153 15.2449 5.73184 13.779C5.77789 13.5682 5.91246 13.3875 6.10118 13.283L8.33216 12.0473C8.45515 11.8058 8.59089 11.5709 8.73881 11.3438L8.69591 8.79544C8.69228 8.58007 8.78143 8.37354 8.94064 8.22846C10.0488 7.2186 11.3605 6.45779 12.7873 5.99721ZM10.2015 9.11719L10.2426 11.5546C10.2452 11.7125 10.198 11.8672 10.1075 11.9967C9.90637 12.2847 9.73025 12.5894 9.58111 12.9075C9.51407 13.0505 9.40359 13.1686 9.26543 13.2452L7.13218 14.4266C6.94559 15.4684 6.94818 16.5353 7.13984 17.5762L9.2665 18.7586C9.40362 18.8348 9.51337 18.9521 9.58032 19.094C9.73274 19.417 9.91051 19.7274 10.112 20.0222C10.1996 20.1505 10.2452 20.3027 10.2426 20.458L10.2016 22.8859C11.0122 23.5707 11.9392 24.1045 12.9385 24.4618L15.0232 23.2142C15.1552 23.1352 15.3083 23.0987 15.4618 23.1097C15.8194 23.1353 16.1784 23.1353 16.536 23.1097C16.6898 23.0987 16.8432 23.1354 16.9754 23.2147L19.0668 24.4695C20.0628 24.1066 20.9869 23.5704 21.7963 22.8859L21.7553 20.4486C21.7526 20.2907 21.7999 20.1359 21.8903 20.0065C22.0915 19.7185 22.2676 19.4137 22.4167 19.0957C22.4838 18.9527 22.5943 18.8345 22.7324 18.758L24.8657 17.5765C25.0523 16.5347 25.0497 15.4678 24.858 14.427L22.7314 13.2446C22.5937 13.168 22.4836 13.0501 22.4167 12.9075C22.2676 12.5894 22.0915 12.2847 21.8903 11.9967C21.7999 11.8672 21.7526 11.7125 21.7553 11.5546L21.7963 9.11729C20.9857 8.43247 20.0586 7.89868 19.0594 7.54135L16.9747 8.78888C16.8426 8.86789 16.6895 8.90438 16.536 8.8934C16.1784 8.86782 15.8194 8.86782 15.4618 8.8934C15.308 8.9044 15.1546 8.86775 15.0224 8.78843L12.931 7.53359C11.935 7.89658 11.011 8.4327 10.2015 9.11719ZM16 12.251C13.9289 12.251 12.25 13.9299 12.25 16.001C12.25 18.072 13.9289 19.751 16 19.751C18.0711 19.751 19.75 18.072 19.75 16.001C19.75 13.9299 18.0711 12.251 16 12.251ZM10.75 16.001C10.75 13.1015 13.1005 10.751 16 10.751C18.8995 10.751 21.25 13.1015 21.25 16.001C21.25 18.9005 18.8995 21.251 16 21.251C13.1005 21.251 10.75 18.9005 10.75 16.001Z" fill="#00D0F6"/>
</svg>
