<svg width="32" height="32" viewBox="0 0 32 32" fill="none" xmlns="http://www.w3.org/2000/svg">
<rect width="32" height="32" rx="16" fill="#CCF7FF"/>
<path fill-rule="evenodd" clip-rule="evenodd" d="M10.75 8.5C10.75 8.08579 11.0858 7.75 11.5 7.75H17.125C18.219 7.75 19.2682 8.1846 20.0418 8.95818C20.8154 9.73177 21.25 10.781 21.25 11.875C21.25 12.969 20.8154 14.0182 20.0418 14.7918C20.0229 14.8107 20.0039 14.8293 19.9847 14.8478C20.5207 15.0717 21.0133 15.3994 21.432 15.818C22.2759 16.6619 22.75 17.8065 22.75 19C22.75 20.1935 22.2759 21.3381 21.432 22.182C20.5881 23.0259 19.4435 23.5 18.25 23.5H11.5C11.0858 23.5 10.75 23.1642 10.75 22.75V8.5ZM12.25 16V22H18.25C19.0456 22 19.8087 21.6839 20.3713 21.1213C20.9339 20.5587 21.25 19.7956 21.25 19C21.25 18.2044 20.9339 17.4413 20.3713 16.8787C19.8087 16.3161 19.0456 16 18.25 16H12.25ZM17.125 14.5H12.25V9.25H17.125C17.8212 9.25 18.4889 9.52656 18.9812 10.0188C19.4734 10.5111 19.75 11.1788 19.75 11.875C19.75 12.5712 19.4734 13.2389 18.9812 13.7312C18.4889 14.2234 17.8212 14.5 17.125 14.5Z" fill="#00D0F6"/>
<path fill-rule="evenodd" clip-rule="evenodd" d="M9.25 8.5C9.25 8.08579 9.58579 7.75 10 7.75H11.5C11.9142 7.75 12.25 8.08579 12.25 8.5C12.25 8.91421 11.9142 9.25 11.5 9.25H10C9.58579 9.25 9.25 8.91421 9.25 8.5Z" fill="#00D0F6"/>
<path fill-rule="evenodd" clip-rule="evenodd" d="M9.25 22.75C9.25 22.3358 9.58579 22 10 22H11.5C11.9142 22 12.25 22.3358 12.25 22.75C12.25 23.1642 11.9142 23.5 11.5 23.5H10C9.58579 23.5 9.25 23.1642 9.25 22.75Z" fill="#00D0F6"/>
<path fill-rule="evenodd" clip-rule="evenodd" d="M13.75 5.5C14.1642 5.5 14.5 5.83579 14.5 6.25V8.5C14.5 8.91421 14.1642 9.25 13.75 9.25C13.3358 9.25 13 8.91421 13 8.5V6.25C13 5.83579 13.3358 5.5 13.75 5.5Z" fill="#00D0F6"/>
<path fill-rule="evenodd" clip-rule="evenodd" d="M16.75 5.5C17.1642 5.5 17.5 5.83579 17.5 6.25V8.5C17.5 8.91421 17.1642 9.25 16.75 9.25C16.3358 9.25 16 8.91421 16 8.5V6.25C16 5.83579 16.3358 5.5 16.75 5.5Z" fill="#00D0F6"/>
<path fill-rule="evenodd" clip-rule="evenodd" d="M13.75 22C14.1642 22 14.5 22.3358 14.5 22.75V25C14.5 25.4142 14.1642 25.75 13.75 25.75C13.3358 25.75 13 25.4142 13 25V22.75C13 22.3358 13.3358 22 13.75 22Z" fill="#00D0F6"/>
<path fill-rule="evenodd" clip-rule="evenodd" d="M16.75 22C17.1642 22 17.5 22.3358 17.5 22.75V25C17.5 25.4142 17.1642 25.75 16.75 25.75C16.3358 25.75 16 25.4142 16 25V22.75C16 22.3358 16.3358 22 16.75 22Z" fill="#00D0F6"/>
</svg>
