<svg width="32" height="32" viewBox="0 0 32 32" fill="none" xmlns="http://www.w3.org/2000/svg">
<rect width="32" height="32" rx="16" fill="#CCF7FF"/>
<path fill-rule="evenodd" clip-rule="evenodd" d="M4.75 6.25C4.75 5.83579 5.08579 5.5 5.5 5.5H7.20406C7.55389 5.50335 7.89154 5.62891 8.15861 5.85489C8.42523 6.08049 8.60476 6.39206 8.66626 6.73584L8.66656 6.73753L11.1696 20.5H21.25C21.6642 20.5 22 20.8358 22 21.25C22 21.6642 21.6642 22 21.25 22H10.5438C10.1813 22 9.87071 21.7408 9.80586 21.3842L7.18969 7H5.5C5.08579 7 4.75 6.66421 4.75 6.25Z" fill="#00D0F6"/>
<path fill-rule="evenodd" clip-rule="evenodd" d="M11.5 22C10.8787 22 10.375 22.5037 10.375 23.125C10.375 23.7463 10.8787 24.25 11.5 24.25C12.1213 24.25 12.625 23.7463 12.625 23.125C12.625 22.5037 12.1213 22 11.5 22ZM8.875 23.125C8.875 21.6753 10.0503 20.5 11.5 20.5C12.9497 20.5 14.125 21.6753 14.125 23.125C14.125 24.5747 12.9497 25.75 11.5 25.75C10.0503 25.75 8.875 24.5747 8.875 23.125Z" fill="#00D0F6"/>
<path fill-rule="evenodd" clip-rule="evenodd" d="M21.25 22C20.6287 22 20.125 22.5037 20.125 23.125C20.125 23.7463 20.6287 24.25 21.25 24.25C21.8713 24.25 22.375 23.7463 22.375 23.125C22.375 22.5037 21.8713 22 21.25 22ZM18.625 23.125C18.625 21.6753 19.8003 20.5 21.25 20.5C22.6997 20.5 23.875 21.6753 23.875 23.125C23.875 24.5747 22.6997 25.75 21.25 25.75C19.8003 25.75 18.625 24.5747 18.625 23.125Z" fill="#00D0F6"/>
<path fill-rule="evenodd" clip-rule="evenodd" d="M7.75 10C7.75 9.58579 8.08579 9.25 8.5 9.25H24.25C24.4725 9.25 24.6834 9.34876 24.8259 9.51959C24.9684 9.69042 25.0277 9.9157 24.9878 10.1346L23.8445 16.4039L23.8443 16.4054C23.7512 16.9236 23.4787 17.3925 23.0744 17.7298C22.6701 18.0671 22.1599 18.2513 21.6334 18.25L21.6321 18.25L21.6344 18.25H21.6334H9.85938C9.44516 18.25 9.10938 17.9142 9.10938 17.5C9.10938 17.0858 9.44516 16.75 9.85938 16.75H21.6344L21.6367 16.75C21.8109 16.7505 21.9797 16.6896 22.1134 16.578C22.2472 16.4664 22.3373 16.3113 22.368 16.1398L22.3684 16.1373L23.3509 10.75H8.5C8.08579 10.75 7.75 10.4142 7.75 10Z" fill="#00D0F6"/>
</svg>
