<svg width="24" height="24" viewBox="0 0 24 24" fill="none" xmlns="http://www.w3.org/2000/svg">
<path fill-rule="evenodd" clip-rule="evenodd" d="M8.04 4.44C6.05177 4.44 4.44 6.05177 4.44 8.04V15.96C4.44 17.9482 6.05177 19.56 8.04 19.56H15.96C17.9482 19.56 19.56 17.9482 19.56 15.96V8.04C19.56 6.05177 17.9482 4.44 15.96 4.44H8.04ZM3 8.04C3 5.25648 5.25648 3 8.04 3H15.96C18.7435 3 21 5.25648 21 8.04V15.96C21 18.7435 18.7435 21 15.96 21H8.04C5.25648 21 3 18.7435 3 15.96V8.04ZM12.0008 9.11986C10.4102 9.11986 9.1208 10.4093 9.1208 11.9999C9.1208 13.5904 10.4102 14.8799 12.0008 14.8799C13.5914 14.8799 14.8808 13.5904 14.8808 11.9999C14.8808 10.4093 13.5914 9.11986 12.0008 9.11986ZM7.6808 11.9999C7.6808 9.61399 9.61493 7.67986 12.0008 7.67986C14.3867 7.67986 16.3208 9.61399 16.3208 11.9999C16.3208 14.3857 14.3867 16.3199 12.0008 16.3199C9.61493 16.3199 7.6808 14.3857 7.6808 11.9999ZM17.761 7.32002C17.761 7.91649 17.2775 8.40002 16.681 8.40002C16.0845 8.40002 15.601 7.91649 15.601 7.32002C15.601 6.72356 16.0845 6.24003 16.681 6.24003C17.2775 6.24003 17.761 6.72356 17.761 7.32002Z" fill="#00D0F6"/>
</svg>
