<svg width="34" height="40" viewBox="0 0 34 40" fill="none" xmlns="http://www.w3.org/2000/svg">
<g clip-path="url(#clip0_4719_143656)">
<path fill-rule="evenodd" clip-rule="evenodd" d="M16.6737 1.30713L33.224 10.8248V29.8602L16.6737 39.3778L0.123291 29.8602V10.8248L16.6737 1.30713ZM16.6737 2.93794L1.54121 11.6402V29.0447L16.6737 37.747L31.8061 29.0447V11.6402L16.6737 2.93794Z" fill="#0B0E29"/>
<path fill-rule="evenodd" clip-rule="evenodd" d="M16.6736 7.26172L28.0465 13.8019V26.8824L16.6736 33.4226L5.30078 26.8824V13.8019L16.6736 7.26172ZM16.6736 8.22229L6.13595 14.2822V26.4021L16.6736 32.462L27.2113 26.4021V14.2822L16.6736 8.22229Z" fill="#0B0E29"/>
<path fill-rule="evenodd" clip-rule="evenodd" d="M24.5434 6.76611L32.4125 20.3421L24.5434 33.918H8.80514L0.936035 20.3421L8.80514 6.76611H24.5434ZM24.0664 7.5889H9.28206L1.88987 20.3421L9.28206 33.0952H24.0664L31.4586 20.3421L24.0664 7.5889Z" fill="#0B0E29"/>
<path fill-rule="evenodd" clip-rule="evenodd" d="M22.1536 10.8882L27.6334 20.3421L22.1536 29.796H11.1939L5.71411 20.3421L11.1939 10.8882H22.1536ZM21.7056 11.6611H11.642L6.61017 20.3421L11.642 29.0231H21.7056L26.7374 20.3421L21.7056 11.6611Z" fill="#0B0E29"/>
<path fill-rule="evenodd" clip-rule="evenodd" d="M16.6737 11.2739L24.5579 15.8079V24.8758L16.6737 29.4098L8.78955 24.8758V15.8079L16.6737 11.2739ZM16.6737 12.8831L10.1886 16.6125V24.0713L16.6737 27.8007L23.1588 24.0713V16.6125L16.6737 12.8831Z" fill="#0B0E29"/>
<path fill-rule="evenodd" clip-rule="evenodd" d="M24.1162 15.6528L24.5281 16.3663L17.052 20.6822L17.0522 28.763H16.2283L16.228 20.6532L8.80225 16.3663L9.21417 15.6528L16.6652 19.9542L24.1162 15.6528Z" fill="#0B0E29"/>
</g>
<defs>
<clipPath id="clip0_4719_143656">
<rect width="33.21" height="38.745" fill="white" transform="translate(0 0.901367)"/>
</clipPath>
</defs>
</svg>
