<svg width="180" height="73" viewBox="0 0 180 73" fill="none" xmlns="http://www.w3.org/2000/svg">
<g clip-path="url(#clip0_4707_114527)">
<path fill-rule="evenodd" clip-rule="evenodd" d="M31.3693 0.251465L62.5062 18.253V54.2562L31.3693 72.2578L0.232422 54.2562V18.253L31.3693 0.251465ZM31.3693 3.33595L2.9 19.7953V52.714L31.3693 69.1733L59.8386 52.714V19.7953L31.3693 3.33595Z" fill="#0B0E29"/>
<path fill-rule="evenodd" clip-rule="evenodd" d="M31.3692 11.5146L52.7654 23.8847V48.6248L31.3692 60.9949L9.97302 48.6248V23.8847L31.3692 11.5146ZM31.3692 13.3315L11.5443 24.7931V47.7164L31.3692 59.1781L51.1941 47.7164V24.7931L31.3692 13.3315Z" fill="#0B0E29"/>
<path fill-rule="evenodd" clip-rule="evenodd" d="M46.1742 10.5771L60.9786 36.2545L46.1742 61.9318H16.5652L1.76074 36.2545L16.5652 10.5771H46.1742ZM45.2769 12.1334H17.4625L3.55523 36.2545L17.4625 60.3756H45.2769L59.1841 36.2545L45.2769 12.1334Z" fill="#0B0E29"/>
<path fill-rule="evenodd" clip-rule="evenodd" d="M41.6785 18.373L51.9879 36.254L41.6785 54.135H21.0597L10.7502 36.254L21.0597 18.373H41.6785ZM40.8356 19.835H21.9026L12.436 36.254L21.9026 52.6731H40.8356L50.3022 36.254L40.8356 19.835Z" fill="#0B0E29"/>
<path fill-rule="evenodd" clip-rule="evenodd" d="M31.3693 19.1035L46.2021 27.679V44.83L31.3693 53.4055L16.5365 44.83V27.679L31.3693 19.1035ZM31.3693 22.147L19.1687 29.2008V43.3082L31.3693 50.3619L43.5699 43.3082V29.2008L31.3693 22.147Z" fill="#0B0E29"/>
<path fill-rule="evenodd" clip-rule="evenodd" d="M45.3704 27.3843L46.1454 28.7337L32.0803 36.8967L32.0806 52.1807H30.5306L30.53 36.842L16.5597 28.7337L17.3347 27.3843L31.3526 35.5198L45.3704 27.3843Z" fill="#0B0E29"/>
<path fill-rule="evenodd" clip-rule="evenodd" d="M104.242 45.3402C104.513 45.3402 104.746 45.4377 104.943 45.6328C105.14 45.8278 105.238 46.0594 105.238 46.3276V47.6442C105.238 47.9124 105.14 48.144 104.943 48.339C104.746 48.534 104.513 48.6316 104.242 48.6316H89.2307C88.9602 48.6316 88.7266 48.534 88.5299 48.339C88.3332 48.144 88.2349 47.9124 88.2349 47.6442V24.0196C88.2349 23.7514 88.3332 23.5198 88.5299 23.3248C88.7266 23.1297 88.9602 23.0322 89.2307 23.0322H90.7429C91.0134 23.0322 91.247 23.1297 91.4437 23.3248C91.6404 23.5198 91.7387 23.7514 91.7387 24.0196V45.3402H104.242ZM114.532 35.2833L127.109 47.1687C127.257 47.315 127.355 47.443 127.405 47.5527C127.454 47.6625 127.478 47.7539 127.478 47.827C127.478 48.0464 127.398 48.2354 127.239 48.3939C127.079 48.5523 126.888 48.6316 126.667 48.6316H124.38C124.036 48.6316 123.753 48.5645 123.532 48.4304C123.311 48.2963 123.151 48.1805 123.052 48.083L112.614 38.209V47.6442C112.614 47.9124 112.516 48.144 112.319 48.339C112.123 48.534 111.889 48.6316 111.619 48.6316H110.106C109.836 48.6316 109.602 48.534 109.406 48.339C109.209 48.144 109.111 47.9124 109.111 47.6442V24.0196C109.111 23.7514 109.209 23.5198 109.406 23.3248C109.602 23.1297 109.836 23.0322 110.106 23.0322H111.619C111.889 23.0322 112.123 23.1297 112.319 23.3248C112.516 23.5198 112.614 23.7514 112.614 24.0196V32.5406L122.462 23.5808C122.561 23.4833 122.72 23.3675 122.942 23.2334C123.163 23.0993 123.446 23.0322 123.79 23.0322H125.929C126.151 23.0322 126.341 23.1115 126.501 23.2699C126.661 23.4284 126.741 23.6174 126.741 23.8368C126.741 23.9099 126.716 24.0013 126.667 24.1111C126.618 24.2208 126.519 24.3488 126.372 24.495L114.532 35.2833ZM142.674 38.5015L150.124 24.2025C150.272 23.9099 150.475 23.6417 150.733 23.3979C150.991 23.1541 151.329 23.0322 151.747 23.0322H153.149C153.419 23.0322 153.653 23.1297 153.85 23.3248C154.046 23.5198 154.145 23.7514 154.145 24.0196V47.6442C154.145 47.9124 154.046 48.144 153.85 48.339C153.653 48.534 153.419 48.6316 153.149 48.6316H151.637C151.366 48.6316 151.133 48.534 150.936 48.339C150.739 48.144 150.641 47.9124 150.641 47.6442V30.3098L144.887 41.3175C144.69 41.6832 144.481 41.9696 144.26 42.1769C144.039 42.3841 143.744 42.4877 143.375 42.4877H141.973C141.604 42.4877 141.309 42.3841 141.088 42.1769C140.867 41.9696 140.658 41.6832 140.461 41.3175L134.707 30.3098V47.6442C134.707 47.9124 134.609 48.144 134.412 48.339C134.216 48.534 133.982 48.6316 133.712 48.6316H132.199C131.929 48.6316 131.695 48.534 131.499 48.339C131.302 48.144 131.203 47.9124 131.203 47.6442V24.0196C131.203 23.7514 131.302 23.5198 131.499 23.3248C131.695 23.1297 131.929 23.0322 132.199 23.0322H133.601C134.019 23.0322 134.357 23.1541 134.615 23.3979C134.873 23.6417 135.076 23.9099 135.224 24.2025L142.674 38.5015ZM169.008 38.3553L162.074 47.7904C161.952 47.9367 161.792 48.1135 161.595 48.3207C161.398 48.528 161.054 48.6316 160.562 48.6316H158.976C158.755 48.6316 158.564 48.5523 158.405 48.3939C158.245 48.2354 158.165 48.0464 158.165 47.827C158.165 47.7783 158.171 47.7234 158.183 47.6625C158.196 47.6015 158.226 47.5223 158.276 47.4247L166.98 35.5759L158.644 24.2391C158.571 24.0928 158.534 23.9587 158.534 23.8368C158.534 23.6174 158.614 23.4284 158.773 23.2699C158.933 23.1115 159.124 23.0322 159.345 23.0322H161.079C161.57 23.0322 161.927 23.1541 162.148 23.3979C162.37 23.6417 162.529 23.8246 162.628 23.9465L169.193 32.8697L175.611 23.9831C175.709 23.8612 175.869 23.6722 176.09 23.4162C176.311 23.1602 176.668 23.0322 177.16 23.0322H178.746C178.967 23.0322 179.157 23.1115 179.317 23.2699C179.477 23.4284 179.557 23.6174 179.557 23.8368C179.557 23.9587 179.52 24.0928 179.446 24.2391L171.221 35.649L179.889 47.4247C179.938 47.5223 179.969 47.6015 179.981 47.6625C179.993 47.7234 180 47.7783 180 47.827C180 48.0464 179.92 48.2354 179.76 48.3939C179.6 48.5523 179.409 48.6316 179.188 48.6316H177.455C176.963 48.6316 176.619 48.528 176.422 48.3207C176.225 48.1135 176.065 47.9367 175.942 47.7904L169.008 38.3553Z" fill="#0B0E29"/>
</g>
<defs>
<clipPath id="clip0_4707_114527">
<rect width="180" height="72.3843" fill="white" transform="translate(0 0.0820312)"/>
</clipPath>
</defs>
</svg>
