<svg width="16" height="17" viewBox="0 0 16 17" fill="none" xmlns="http://www.w3.org/2000/svg">
<path fill-rule="evenodd" clip-rule="evenodd" d="M8.05591 1.27393L14.1421 4.77393V11.7739L8.05591 15.2739L1.96973 11.7739V4.77393L8.05591 1.27393ZM8.05591 1.87363L2.49115 5.07378V11.4741L8.05591 14.6742L13.6207 11.4741V5.07378L8.05591 1.87363Z" fill="#0B0E29"/>
<path fill-rule="evenodd" clip-rule="evenodd" d="M8.05593 3.46387L12.2381 5.86895V10.6791L8.05593 13.0842L3.87372 10.6791V5.86895L8.05593 3.46387ZM8.05593 3.8171L4.18084 6.04556V10.5025L8.05593 12.7309L11.931 10.5025V6.04556L8.05593 3.8171Z" fill="#0B0E29"/>
<path fill-rule="evenodd" clip-rule="evenodd" d="M10.9497 3.28174L13.8434 8.27411L10.9497 13.2665H5.16213L2.26837 8.27411L5.16213 3.28174H10.9497ZM10.7743 3.58431H5.33751L2.61913 8.27411L5.33751 12.9639H10.7743L13.4927 8.27411L10.7743 3.58431Z" fill="#0B0E29"/>
<path fill-rule="evenodd" clip-rule="evenodd" d="M10.071 4.79736L12.0862 8.27391L10.071 11.7505H6.04077L4.02563 8.27391L6.04077 4.79736H10.071ZM9.90628 5.0816H6.20553L4.35515 8.27391L6.20553 11.4662H9.90628L11.7567 8.27391L9.90628 5.0816Z" fill="#0B0E29"/>
<path fill-rule="evenodd" clip-rule="evenodd" d="M8.05585 4.93945L10.9552 6.60676V9.94138L8.05585 11.6087L5.15656 9.94138V6.60676L8.05585 4.93945ZM8.05585 5.5312L5.67105 6.90264V9.64551L8.05585 11.0169L10.4407 9.64551V6.90264L8.05585 5.5312Z" fill="#0B0E29"/>
<path fill-rule="evenodd" clip-rule="evenodd" d="M10.7927 6.54932L10.9442 6.81169L8.19493 8.39878L8.19499 11.3704H7.89203L7.8919 8.38815L5.16119 6.81169L5.31267 6.54932L8.0527 8.13109L10.7927 6.54932Z" fill="#0B0E29"/>
</svg>
