<svg width="174" height="46" viewBox="0 0 174 46" fill="none" xmlns="http://www.w3.org/2000/svg">
<path d="M67.6388 45.9805V0.980469L45.2617 45.9805H67.6388Z" fill="#FF0000"/>
<path d="M67.6349 45.9805V0.980469L90.2578 45.9805H67.6349Z" fill="#FF0000"/>
<path d="M-0.00186157 45.9805V0.980469L22.6211 45.9805H-0.00186157Z" fill="black"/>
<path d="M112.865 45.9805V0.980469L90.2422 45.9805H112.865Z" fill="#FFD600"/>
<path d="M45.244 45.9805V0.980469L22.6211 45.9805H45.244Z" fill="#00CF15"/>
<path d="M112.877 45.9805V0.980469L135.5 45.9805H112.877Z" fill="#FFD600"/>
<path d="M150.865 45.9805C163.292 45.9805 173.365 35.9069 173.365 23.4805C173.365 11.0541 163.292 0.980469 150.865 0.980469C150.824 0.980469 150.783 0.980578 150.742 0.980798V45.9801C150.783 45.9804 150.824 45.9805 150.865 45.9805Z" fill="#00B2FF"/>
<rect x="135.734" y="0.980469" width="15" height="45" fill="#00B2FF"/>
</svg>
