<svg width="415" height="61" viewBox="0 0 415 61" fill="none" xmlns="http://www.w3.org/2000/svg">
<g clip-path="url(#clip0_4719_143666)">
<path d="M0.0302734 0V61" stroke="white" stroke-width="4.2236"/>
<path d="M8.47754 0V61" stroke="white" stroke-width="4.2236"/>
<path d="M16.9248 0V61" stroke="white" stroke-width="4.2236"/>
<path d="M25.3718 0V61" stroke="white" stroke-width="4.2236"/>
<path d="M33.8191 0V61" stroke="white" stroke-width="4.2236"/>
<path d="M42.2664 0V61" stroke="white" stroke-width="4.2236"/>
<path d="M50.7134 0V61" stroke="white" stroke-width="4.2236"/>
<path d="M59.1606 0V61" stroke="white" stroke-width="4.2236"/>
<path d="M67.6079 0V61" stroke="white" stroke-width="4.2236"/>
<path d="M76.0552 0V61" stroke="white" stroke-width="4.2236"/>
<path d="M84.5024 0V61" stroke="white" stroke-width="4.2236"/>
<path d="M92.9495 0V61" stroke="white" stroke-width="4.2236"/>
<path d="M101.397 0V61" stroke="white" stroke-width="4.2236"/>
<path d="M109.844 0V61" stroke="white" stroke-width="4.2236"/>
<path d="M118.291 0V61" stroke="white" stroke-width="4.2236"/>
<path d="M126.738 0V61" stroke="white" stroke-width="4.2236"/>
<path d="M135.186 0V61" stroke="white" stroke-width="4.2236"/>
<path d="M143.633 0V61" stroke="white" stroke-width="4.2236"/>
<path d="M152.08 0V61" stroke="white" stroke-width="4.2236"/>
<path d="M160.527 0V61" stroke="white" stroke-width="4.2236"/>
<path d="M168.974 0V61" stroke="white" stroke-width="4.2236"/>
<path d="M177.422 0V61" stroke="white" stroke-width="4.2236"/>
<path d="M185.869 0V61" stroke="white" stroke-width="4.2236"/>
<path d="M194.316 0V61" stroke="white" stroke-width="4.2236"/>
<path d="M202.763 0V61" stroke="white" stroke-width="4.2236"/>
<path d="M211.21 0V61" stroke="white" stroke-width="4.2236"/>
<path d="M219.658 0V61" stroke="white" stroke-width="4.2236"/>
<path d="M228.105 0V61" stroke="white" stroke-width="4.2236"/>
<path d="M236.552 0V61" stroke="white" stroke-width="4.2236"/>
<path d="M244.999 0V61" stroke="white" stroke-width="4.2236"/>
<path d="M253.446 0V61" stroke="white" stroke-width="4.2236"/>
<path d="M261.894 0V61" stroke="white" stroke-width="4.2236"/>
<path d="M270.341 0V61" stroke="white" stroke-width="4.2236"/>
<path d="M278.788 0V61" stroke="white" stroke-width="4.2236"/>
<path d="M287.235 0V61" stroke="white" stroke-width="4.2236"/>
<path d="M295.683 0V61" stroke="white" stroke-width="4.2236"/>
<path d="M304.13 0V61" stroke="white" stroke-width="4.2236"/>
<path d="M312.577 0V61" stroke="white" stroke-width="4.2236"/>
<path d="M321.024 0V61" stroke="white" stroke-width="4.2236"/>
<path d="M329.471 0V61" stroke="white" stroke-width="4.2236"/>
<path d="M337.918 0V61" stroke="white" stroke-width="4.2236"/>
<path d="M346.366 0V61" stroke="white" stroke-width="4.2236"/>
<path d="M354.813 0V61" stroke="white" stroke-width="4.2236"/>
<path d="M363.26 0V61" stroke="white" stroke-width="4.2236"/>
<path d="M371.707 0V61" stroke="white" stroke-width="4.2236"/>
<path d="M380.154 0V61" stroke="white" stroke-width="4.2236"/>
<path d="M388.602 0V61" stroke="white" stroke-width="4.2236"/>
<path d="M397.049 0V61" stroke="white" stroke-width="4.2236"/>
<path d="M405.496 0V61" stroke="white" stroke-width="4.2236"/>
<path d="M413.943 0V61" stroke="white" stroke-width="4.2236"/>
</g>
<defs>
<clipPath id="clip0_4719_143666">
<rect width="414" height="61" fill="white" transform="translate(0.0302734)"/>
</clipPath>
</defs>
</svg>
