<svg width="24" height="24" viewBox="0 0 24 24" fill="none" xmlns="http://www.w3.org/2000/svg">
<path d="M20.0478 8.01938C20.0604 8.19577 20.0604 8.3722 20.0604 8.54859C20.0604 13.9288 15.9654 20.128 8.48104 20.128C6.17523 20.128 4.03325 19.4601 2.23145 18.301C2.55906 18.3388 2.87402 18.3514 3.21424 18.3514C5.11681 18.3514 6.86823 17.7088 8.26683 16.6126C6.47763 16.5748 4.97823 15.403 4.46162 13.7902C4.71364 13.828 4.96563 13.8532 5.23025 13.8532C5.59564 13.8532 5.96106 13.8027 6.30124 13.7146C4.43645 13.3366 3.03781 11.6986 3.03781 9.72038V9.67C3.57959 9.9724 4.20964 10.1614 4.87739 10.1866C3.78119 9.45575 3.06302 8.20837 3.06302 6.79717C3.06302 6.04118 3.26458 5.34818 3.6174 4.74338C5.62081 7.21297 8.63222 8.82574 12.009 9.00217C11.946 8.69977 11.9082 8.3848 11.9082 8.0698C11.9082 5.82698 13.7226 4 15.978 4C17.1498 4 18.2082 4.4914 18.9516 5.2852C19.8713 5.10881 20.7533 4.76859 21.5346 4.3024C21.2321 5.24742 20.5895 6.04122 19.7454 6.54518C20.5644 6.45703 21.3582 6.23018 22.089 5.91521C21.5346 6.72157 20.8416 7.43974 20.0478 8.01938Z" fill="#00D0F6"/>
</svg>
