<svg width="839" height="331" viewBox="0 0 839 331" fill="none" xmlns="http://www.w3.org/2000/svg">
<rect x="131.367" y="56.6172" width="62.2044" height="22.6035" fill="#EBEAE8"/>
<rect x="69.1641" y="56.6172" width="62.2044" height="22.6035" fill="#EBEAE8"/>
<line x1="131.617" y1="56.6172" x2="131.617" y2="79.2207" stroke="#0B0E29" stroke-width="0.5" stroke-dasharray="2 2"/>
<ellipse cx="438.219" cy="88.2343" rx="5.56643" ry="5.56243" fill="#1324A0"/>
<rect x="389.234" y="56.625" width="62.2044" height="22.6035" fill="#0B0E29" stroke="white" stroke-width="0.5" stroke-dasharray="1 1"/>
<rect x="327.031" y="56.625" width="62.2044" height="22.6035" fill="#0B0E29" stroke="white" stroke-width="0.5" stroke-dasharray="1 1"/>
<ellipse cx="309.633" cy="88.2343" rx="5.56643" ry="5.56243" fill="#FF0049"/>
<ellipse cx="340.805" cy="88.2343" rx="5.56643" ry="5.56243" fill="#00D0F6"/>
<ellipse cx="76.4004" cy="89.3421" rx="5.00979" ry="5.00619" fill="#0B0E29"/>
<ellipse cx="141.529" cy="89.3421" rx="5.00979" ry="5.00619" fill="#0B0E29"/>
<path fill-rule="evenodd" clip-rule="evenodd" d="M125.482 93.1996C124.699 93.9816 123.721 94.4499 122.705 94.6044L126.887 90.425C126.733 91.4405 126.264 92.4175 125.482 93.1996ZM126.68 88.0632C126.862 88.6004 126.95 89.1625 126.944 89.7238L122.003 94.6612C121.442 94.6672 120.879 94.5791 120.341 94.3969L126.68 88.0632ZM126.497 87.6015C126.306 87.1823 126.054 86.7841 125.741 86.4202L118.697 93.4587C119.061 93.7715 119.46 94.0233 119.879 94.2141L126.497 87.6015ZM124.312 85.271C124.711 85.4852 125.087 85.7577 125.428 86.0883L118.365 93.1462C118.034 92.8057 117.762 92.4298 117.547 92.0308L124.312 85.271ZM123.875 85.0632C123.371 84.8534 122.841 84.7295 122.305 84.6915L116.967 90.0252C117.005 90.5606 117.129 91.091 117.339 91.5941L123.875 85.0632ZM118.418 86.1409C119.32 85.2388 120.483 84.7542 121.664 84.6871L116.963 89.3852C117.03 88.2044 117.515 87.043 118.418 86.1409Z" fill="#0B0E29"/>
<path fill-rule="evenodd" clip-rule="evenodd" d="M188.052 93.1996C187.269 93.9816 186.292 94.4499 185.275 94.6044L189.458 90.425C189.303 91.4405 188.834 92.4175 188.052 93.1996ZM189.25 88.0632C189.432 88.6004 189.521 89.1625 189.515 89.7238L184.574 94.6612C184.012 94.6672 183.449 94.5791 182.912 94.3969L189.25 88.0632ZM189.067 87.6015C188.876 87.1823 188.624 86.7841 188.311 86.4202L181.268 93.4587C181.632 93.7715 182.03 94.0233 182.45 94.2141L189.067 87.6015ZM186.882 85.271C187.281 85.4852 187.658 85.7577 187.998 86.0883L180.935 93.1462C180.605 92.8057 180.332 92.4298 180.118 92.0308L186.882 85.271ZM186.445 85.0632C185.942 84.8534 185.411 84.7295 184.875 84.6915L179.538 90.0252C179.576 90.5606 179.7 91.091 179.91 91.5941L186.445 85.0632ZM180.988 86.1409C181.891 85.2388 183.053 84.7542 184.235 84.6871L179.533 89.3852C179.6 88.2044 180.085 87.043 180.988 86.1409Z" fill="#0B0E29"/>
<rect x="260.297" y="56.625" width="62.2044" height="22.6035" fill="#00D0F6"/>
<rect x="198.094" y="56.625" width="62.2044" height="22.6035" fill="#00D0F6"/>
<line x1="260.547" y1="56.625" x2="260.547" y2="79.2285" stroke="#0B0E29" stroke-width="0.5" stroke-dasharray="2 2"/>
<rect x="260.641" y="134.477" width="62.2044" height="22.6035" fill="#EBEAE8"/>
<rect x="198.438" y="134.477" width="62.2044" height="22.6035" fill="#EBEAE8"/>
<line x1="260.891" y1="134.477" x2="260.891" y2="157.08" stroke="#0B0E29" stroke-width="0.5" stroke-dasharray="2 2"/>
<ellipse cx="567.492" cy="166.094" rx="5.56643" ry="5.56243" fill="#1324A0"/>
<rect x="518.508" y="134.484" width="62.2044" height="22.6035" fill="#0B0E29" stroke="white" stroke-width="0.5" stroke-dasharray="1 1"/>
<rect x="456.305" y="134.484" width="62.2044" height="22.6035" fill="#0B0E29" stroke="white" stroke-width="0.5" stroke-dasharray="1 1"/>
<ellipse cx="438.906" cy="166.094" rx="5.56643" ry="5.56243" fill="#FF0049"/>
<ellipse cx="470.078" cy="166.094" rx="5.56643" ry="5.56243" fill="#00D0F6"/>
<ellipse cx="205.674" cy="167.201" rx="5.00979" ry="5.00619" fill="#0B0E29"/>
<ellipse cx="270.803" cy="167.201" rx="5.00979" ry="5.00619" fill="#0B0E29"/>
<path fill-rule="evenodd" clip-rule="evenodd" d="M254.755 171.059C253.972 171.841 252.995 172.309 251.978 172.464L256.161 168.284C256.006 169.3 255.538 170.277 254.755 171.059ZM255.953 165.923C256.135 166.46 256.224 167.022 256.218 167.583L251.277 172.521C250.715 172.527 250.152 172.438 249.615 172.256L255.953 165.923ZM255.77 165.461C255.579 165.042 255.327 164.643 255.014 164.28L247.971 171.318C248.335 171.631 248.733 171.883 249.153 172.073L255.77 165.461ZM253.585 163.13C253.985 163.345 254.361 163.617 254.702 163.948L247.639 171.006C247.308 170.665 247.035 170.289 246.821 169.89L253.585 163.13ZM253.148 162.923C252.645 162.713 252.114 162.589 251.578 162.551L246.241 167.885C246.279 168.42 246.403 168.95 246.613 169.453L253.148 162.923ZM247.691 164C248.594 163.098 249.756 162.614 250.938 162.546L246.236 167.245C246.303 166.064 246.788 164.902 247.691 164Z" fill="#0B0E29"/>
<path fill-rule="evenodd" clip-rule="evenodd" d="M317.325 171.059C316.543 171.841 315.565 172.309 314.549 172.464L318.731 168.284C318.577 169.3 318.108 170.277 317.325 171.059ZM318.523 165.923C318.706 166.46 318.794 167.022 318.788 167.583L313.847 172.521C313.285 172.527 312.723 172.438 312.185 172.256L318.523 165.923ZM318.341 165.461C318.15 165.042 317.898 164.643 317.585 164.28L310.541 171.318C310.905 171.631 311.304 171.883 311.723 172.073L318.341 165.461ZM316.156 163.13C316.555 163.345 316.931 163.617 317.272 163.948L310.209 171.006C309.878 170.665 309.605 170.289 309.391 169.89L316.156 163.13ZM315.719 162.923C315.215 162.713 314.684 162.589 314.149 162.551L308.811 167.885C308.849 168.42 308.973 168.95 309.183 169.453L315.719 162.923ZM310.261 164C311.164 163.098 312.327 162.614 313.508 162.546L308.807 167.245C308.874 166.064 309.359 164.902 310.261 164Z" fill="#0B0E29"/>
<rect x="389.57" y="134.484" width="62.2044" height="22.6035" fill="#00D0F6"/>
<rect x="327.367" y="134.484" width="62.2044" height="22.6035" fill="#00D0F6"/>
<line x1="389.82" y1="134.484" x2="389.82" y2="157.088" stroke="#0B0E29" stroke-width="0.5" stroke-dasharray="2 2"/>
<rect x="389.914" y="212.328" width="62.2044" height="22.6035" fill="#EBEAE8"/>
<rect x="327.711" y="212.328" width="62.2044" height="22.6035" fill="#EBEAE8"/>
<line x1="390.164" y1="212.328" x2="390.164" y2="234.932" stroke="#0B0E29" stroke-width="0.5" stroke-dasharray="2 2"/>
<ellipse cx="696.766" cy="243.945" rx="5.56643" ry="5.56243" fill="#1324A0"/>
<rect x="647.781" y="212.336" width="62.2044" height="22.6035" fill="#0B0E29" stroke="white" stroke-width="0.5" stroke-dasharray="1 1"/>
<rect x="585.578" y="212.336" width="62.2044" height="22.6035" fill="#0B0E29" stroke="white" stroke-width="0.5" stroke-dasharray="1 1"/>
<ellipse cx="568.18" cy="243.945" rx="5.56643" ry="5.56243" fill="#FF0049"/>
<ellipse cx="599.352" cy="243.945" rx="5.56643" ry="5.56243" fill="#00D0F6"/>
<ellipse cx="334.947" cy="245.053" rx="5.00979" ry="5.00619" fill="#0B0E29"/>
<ellipse cx="400.076" cy="245.053" rx="5.00979" ry="5.00619" fill="#0B0E29"/>
<path fill-rule="evenodd" clip-rule="evenodd" d="M384.028 248.911C383.246 249.693 382.268 250.161 381.252 250.315L385.434 246.136C385.28 247.151 384.811 248.128 384.028 248.911ZM385.227 243.774C385.409 244.311 385.497 244.873 385.491 245.435L380.55 250.372C379.988 250.378 379.426 250.29 378.888 250.108L385.227 243.774ZM385.044 243.312C384.853 242.893 384.601 242.495 384.288 242.131L377.244 249.17C377.608 249.482 378.007 249.734 378.426 249.925L385.044 243.312ZM382.859 240.982C383.258 241.196 383.634 241.469 383.975 241.799L376.912 248.857C376.581 248.517 376.308 248.141 376.094 247.742L382.859 240.982ZM382.422 240.774C381.918 240.564 381.388 240.44 380.852 240.402L375.514 245.736C375.552 246.272 375.676 246.802 375.886 247.305L382.422 240.774ZM376.965 241.852C377.867 240.95 379.03 240.465 380.211 240.398L375.51 245.096C375.577 243.915 376.062 242.754 376.965 241.852Z" fill="#0B0E29"/>
<path fill-rule="evenodd" clip-rule="evenodd" d="M446.599 248.911C445.816 249.693 444.838 250.161 443.822 250.315L448.005 246.136C447.85 247.151 447.381 248.128 446.599 248.911ZM447.797 243.774C447.979 244.311 448.067 244.873 448.061 245.435L443.12 250.372C442.559 250.378 441.996 250.29 441.459 250.108L447.797 243.774ZM447.614 243.312C447.423 242.893 447.171 242.495 446.858 242.131L439.814 249.17C440.179 249.482 440.577 249.734 440.997 249.925L447.614 243.312ZM445.429 240.982C445.828 241.196 446.205 241.469 446.545 241.799L439.482 248.857C439.151 248.517 438.879 248.141 438.664 247.742L445.429 240.982ZM444.992 240.774C444.489 240.564 443.958 240.44 443.422 240.402L438.085 245.736C438.122 246.272 438.246 246.802 438.456 247.305L444.992 240.774ZM439.535 241.852C440.438 240.95 441.6 240.465 442.782 240.398L438.08 245.096C438.147 243.915 438.632 242.754 439.535 241.852Z" fill="#0B0E29"/>
<rect x="518.844" y="212.336" width="62.2044" height="22.6035" fill="#00D0F6"/>
<rect x="456.641" y="212.336" width="62.2044" height="22.6035" fill="#00D0F6"/>
<line x1="519.094" y1="212.336" x2="519.094" y2="234.939" stroke="#0B0E29" stroke-width="0.5" stroke-dasharray="2 2"/>
<rect x="518.465" y="290.188" width="62.2044" height="22.6035" fill="#EBEAE8"/>
<rect x="456.262" y="290.188" width="62.2044" height="22.6035" fill="#EBEAE8"/>
<line x1="518.715" y1="290.188" x2="518.715" y2="312.791" stroke="#0B0E29" stroke-width="0.5" stroke-dasharray="2 2"/>
<ellipse cx="825.316" cy="321.805" rx="5.56643" ry="5.56243" fill="#1324A0"/>
<rect x="776.332" y="290.195" width="62.2044" height="22.6035" fill="#0B0E29" stroke="white" stroke-width="0.5" stroke-dasharray="1 1"/>
<rect x="714.129" y="290.195" width="62.2044" height="22.6035" fill="#0B0E29" stroke="white" stroke-width="0.5" stroke-dasharray="1 1"/>
<ellipse cx="696.73" cy="321.805" rx="5.56643" ry="5.56243" fill="#FF0049"/>
<ellipse cx="727.902" cy="321.805" rx="5.56643" ry="5.56243" fill="#00D0F6"/>
<ellipse cx="463.498" cy="322.912" rx="5.00979" ry="5.00619" fill="#0B0E29"/>
<ellipse cx="528.627" cy="322.912" rx="5.00979" ry="5.00619" fill="#0B0E29"/>
<path fill-rule="evenodd" clip-rule="evenodd" d="M512.579 326.77C511.797 327.552 510.819 328.02 509.803 328.175L513.985 323.995C513.83 325.011 513.362 325.988 512.579 326.77ZM513.777 321.633C513.96 322.171 514.048 322.733 514.042 323.294L509.101 328.232C508.539 328.238 507.977 328.149 507.439 327.967L513.777 321.633ZM513.594 321.172C513.403 320.753 513.152 320.354 512.839 319.991L505.795 327.029C506.159 327.342 506.558 327.594 506.977 327.784L513.594 321.172ZM511.41 318.841C511.809 319.056 512.185 319.328 512.526 319.659L505.463 326.717C505.132 326.376 504.859 326 504.645 325.601L511.41 318.841ZM510.973 318.634C510.469 318.424 509.938 318.3 509.403 318.262L504.065 323.596C504.103 324.131 504.227 324.661 504.437 325.164L510.973 318.634ZM505.515 319.711C506.418 318.809 507.58 318.324 508.762 318.257L504.061 322.956C504.128 321.775 504.613 320.613 505.515 319.711Z" fill="#0B0E29"/>
<path fill-rule="evenodd" clip-rule="evenodd" d="M575.149 326.77C574.367 327.552 573.389 328.02 572.373 328.175L576.555 323.995C576.401 325.011 575.932 325.988 575.149 326.77ZM576.348 321.633C576.53 322.171 576.618 322.733 576.612 323.294L571.671 328.232C571.109 328.238 570.547 328.149 570.009 327.967L576.348 321.633ZM576.165 321.172C575.974 320.753 575.722 320.354 575.409 319.991L568.365 327.029C568.729 327.342 569.128 327.594 569.547 327.784L576.165 321.172ZM573.98 318.841C574.379 319.056 574.755 319.328 575.096 319.659L568.033 326.717C567.702 326.376 567.43 326 567.215 325.601L573.98 318.841ZM573.543 318.634C573.039 318.424 572.509 318.3 571.973 318.262L566.635 323.596C566.673 324.131 566.797 324.661 567.007 325.164L573.543 318.634ZM568.086 319.711C568.988 318.809 570.151 318.324 571.332 318.257L566.631 322.956C566.698 321.775 567.183 320.613 568.086 319.711Z" fill="#0B0E29"/>
<rect x="647.395" y="290.195" width="62.2044" height="22.6035" fill="#00D0F6"/>
<rect x="585.191" y="290.195" width="62.2044" height="22.6035" fill="#00D0F6"/>
<line x1="647.645" y1="290.195" x2="647.645" y2="312.799" stroke="#0B0E29" stroke-width="0.5" stroke-dasharray="2 2"/>
<path d="M810.232 20V8.832H817.832V10.992H812.664V13.28H817.096V15.424H812.664V17.84H817.832V20H810.232ZM819.823 20V11.6H822.191V13.024H822.287C822.436 12.5867 822.697 12.208 823.071 11.888C823.444 11.568 823.961 11.408 824.623 11.408C825.487 11.408 826.137 11.696 826.575 12.272C827.023 12.848 827.247 13.6693 827.247 14.736V20H824.879V14.928C824.879 14.384 824.793 13.984 824.623 13.728C824.452 13.4613 824.148 13.328 823.711 13.328C823.519 13.328 823.332 13.3547 823.151 13.408C822.969 13.4507 822.804 13.5253 822.655 13.632C822.516 13.7387 822.404 13.872 822.319 14.032C822.233 14.1813 822.191 14.3573 822.191 14.56V20H819.823ZM834.506 18.592H834.426C834.362 18.816 834.261 19.0293 834.122 19.232C833.983 19.424 833.813 19.5947 833.61 19.744C833.418 19.8827 833.194 19.9893 832.938 20.064C832.693 20.1493 832.437 20.192 832.17 20.192C831.103 20.192 830.298 19.8187 829.754 19.072C829.21 18.3147 828.938 17.2213 828.938 15.792C828.938 14.3627 829.21 13.2747 829.754 12.528C830.298 11.7813 831.103 11.408 832.17 11.408C832.714 11.408 833.194 11.5573 833.61 11.856C834.037 12.1547 834.309 12.5387 834.426 13.008H834.506V8.16H836.874V20H834.506V18.592ZM832.954 18.272C833.402 18.272 833.77 18.1653 834.058 17.952C834.357 17.728 834.506 17.424 834.506 17.04V14.56C834.506 14.176 834.357 13.8773 834.058 13.664C833.77 13.44 833.402 13.328 832.954 13.328C832.506 13.328 832.133 13.488 831.834 13.808C831.546 14.1173 831.402 14.5387 831.402 15.072V16.528C831.402 17.0613 831.546 17.488 831.834 17.808C832.133 18.1173 832.506 18.272 832.954 18.272Z" fill="#0B0E29"/>
<line x1="838.5" y1="1.57981e-08" x2="838.5" y2="326" stroke="#EBEAE8"/>
<path d="M-10 114.727H838.274" stroke="#EBEAE8"/>
<path d="M-10 192.586H838.274" stroke="#EBEAE8"/>
<path d="M-10 270.438H838.274" stroke="#EBEAE8"/>
<path d="M75.848 20.192C74.8667 20.192 74.0347 20.0267 73.352 19.696C72.6693 19.3547 72.088 18.9173 71.608 18.384L73.208 16.768C73.9653 17.6213 74.8987 18.048 76.008 18.048C76.6053 18.048 77.048 17.9253 77.336 17.68C77.624 17.4347 77.768 17.1093 77.768 16.704C77.768 16.3947 77.6827 16.1387 77.512 15.936C77.3413 15.7227 76.9947 15.5787 76.472 15.504L75.368 15.36C74.184 15.2107 73.3147 14.8533 72.76 14.288C72.216 13.7227 71.944 12.9707 71.944 12.032C71.944 11.5307 72.04 11.072 72.232 10.656C72.424 10.24 72.696 9.88267 73.048 9.584C73.4107 9.28533 73.848 9.056 74.36 8.896C74.8827 8.72533 75.4747 8.64 76.136 8.64C76.9787 8.64 77.72 8.77333 78.36 9.04C79 9.30667 79.5493 9.696 80.008 10.208L78.392 11.84C78.1253 11.5307 77.8 11.28 77.416 11.088C77.0427 10.8853 76.568 10.784 75.992 10.784C75.448 10.784 75.0427 10.88 74.776 11.072C74.5093 11.264 74.376 11.5307 74.376 11.872C74.376 12.256 74.4773 12.5333 74.68 12.704C74.8933 12.8747 75.2347 12.9973 75.704 13.072L76.808 13.248C77.96 13.4293 78.8133 13.7867 79.368 14.32C79.9227 14.8427 80.2 15.5893 80.2 16.56C80.2 17.0933 80.104 17.584 79.912 18.032C79.72 18.48 79.4373 18.864 79.064 19.184C78.7013 19.504 78.248 19.7547 77.704 19.936C77.16 20.1067 76.5413 20.192 75.848 20.192ZM84.9543 20C84.1329 20 83.5089 19.792 83.0823 19.376C82.6663 18.96 82.4583 18.352 82.4583 17.552V13.44H81.2743V11.6H81.8663C82.1863 11.6 82.4049 11.5253 82.5223 11.376C82.6396 11.216 82.6983 10.992 82.6983 10.704V9.328H84.8263V11.6H86.4903V13.44H84.8263V18.16H86.3623V20H84.9543ZM94.3433 20C93.9166 20 93.5593 19.8667 93.2713 19.6C92.9939 19.3333 92.8179 18.976 92.7433 18.528H92.6473C92.5193 19.072 92.2366 19.488 91.7993 19.776C91.3619 20.0533 90.8233 20.192 90.1833 20.192C89.3406 20.192 88.6953 19.968 88.2473 19.52C87.7993 19.072 87.5753 18.48 87.5753 17.744C87.5753 16.8587 87.8953 16.2027 88.5353 15.776C89.1859 15.3387 90.0659 15.12 91.1753 15.12H92.5033V14.592C92.5033 14.1867 92.3966 13.8667 92.1833 13.632C91.9699 13.3867 91.6126 13.264 91.1113 13.264C90.6419 13.264 90.2686 13.3653 89.9913 13.568C89.7139 13.7707 89.4846 14 89.3033 14.256L87.8953 13.008C88.2366 12.5067 88.6633 12.1173 89.1753 11.84C89.6979 11.552 90.4019 11.408 91.2873 11.408C92.4819 11.408 93.3779 11.6693 93.9753 12.192C94.5726 12.7147 94.8713 13.4773 94.8713 14.48V18.16H95.6553V20H94.3433ZM91.0633 18.544C91.4579 18.544 91.7939 18.4587 92.0713 18.288C92.3593 18.1173 92.5033 17.84 92.5033 17.456V16.464H91.3513C90.4233 16.464 89.9593 16.7787 89.9593 17.408V17.648C89.9593 17.9573 90.0553 18.1867 90.2473 18.336C90.4393 18.4747 90.7113 18.544 91.0633 18.544ZM97.2446 20V11.6H99.6126V13.424H99.6926C99.7353 13.1893 99.81 12.9653 99.9166 12.752C100.023 12.528 100.162 12.3307 100.333 12.16C100.514 11.9893 100.727 11.856 100.973 11.76C101.218 11.6533 101.506 11.6 101.837 11.6H102.253V13.808H101.661C100.967 13.808 100.45 13.8987 100.109 14.08C99.778 14.2613 99.6126 14.5973 99.6126 15.088V20H97.2446ZM106.72 20C105.899 20 105.275 19.792 104.848 19.376C104.432 18.96 104.224 18.352 104.224 17.552V13.44H103.04V11.6H103.632C103.952 11.6 104.171 11.5253 104.288 11.376C104.405 11.216 104.464 10.992 104.464 10.704V9.328H106.592V11.6H108.256V13.44H106.592V18.16H108.128V20H106.72Z" fill="#0B0E29"/>
</svg>
