<svg width="1168" height="508" viewBox="0 0 1168 508" fill="none" xmlns="http://www.w3.org/2000/svg">
<g clip-path="url(#clip0_7045_379943)">
<rect x="171.148" y="104" width="85.6501" height="31.1396" fill="#EBEAE8"/>
<rect x="85.5" y="104" width="85.6501" height="31.1396" fill="#EBEAE8"/>
<line x1="171.398" y1="104" x2="171.398" y2="135.14" stroke="#0B0E29" stroke-width="0.5" stroke-dasharray="2 2"/>
<ellipse cx="593.657" cy="147.554" rx="7.6645" ry="7.66304" fill="#1324A0"/>
<rect x="526.211" y="104.008" width="85.6501" height="31.1396" fill="#0B0E29" stroke="white" stroke-width="0.5" stroke-dasharray="1 1"/>
<rect x="440.562" y="104.008" width="85.6501" height="31.1396" fill="#0B0E29" stroke="white" stroke-width="0.5" stroke-dasharray="1 1"/>
<ellipse cx="416.606" cy="147.554" rx="7.6645" ry="7.66304" fill="#FF0049"/>
<ellipse cx="459.528" cy="147.554" rx="7.6645" ry="7.66304" fill="#00D0F6"/>
<ellipse cx="95.4645" cy="149.084" rx="6.89805" ry="6.89674" fill="#0B0E29"/>
<ellipse cx="185.14" cy="149.084" rx="6.89805" ry="6.89674" fill="#0B0E29"/>
<path fill-rule="evenodd" clip-rule="evenodd" d="M163.046 154.399C161.967 155.478 160.618 156.124 159.217 156.336L164.983 150.571C164.771 151.972 164.126 153.32 163.046 154.399ZM164.692 147.311C164.945 148.053 165.068 148.83 165.06 149.606L158.252 156.413C157.476 156.421 156.699 156.298 155.957 156.045L164.692 147.311ZM164.439 146.676C164.176 146.101 163.829 145.554 163.398 145.054L153.699 154.751C154.199 155.182 154.746 155.529 155.322 155.792L164.439 146.676ZM161.431 143.474C161.981 143.769 162.498 144.143 162.967 144.597L153.242 154.32C152.788 153.852 152.414 153.334 152.119 152.785L161.431 143.474ZM160.829 143.188C160.136 142.9 159.406 142.73 158.669 142.678L151.323 150.023C151.375 150.76 151.545 151.49 151.833 152.183L160.829 143.188ZM153.32 144.675C154.562 143.433 156.161 142.766 157.786 142.672L151.317 149.141C151.41 147.515 152.078 145.917 153.32 144.675Z" fill="#0B0E29"/>
<path fill-rule="evenodd" clip-rule="evenodd" d="M249.199 154.399C248.121 155.477 246.774 156.122 245.374 156.335L251.135 150.575C250.922 151.975 250.277 153.322 249.199 154.399ZM250.845 147.314C251.098 148.057 251.221 148.834 251.213 149.609L244.408 156.413C243.632 156.421 242.855 156.299 242.112 156.046L250.845 147.314ZM250.593 146.679C250.33 146.103 249.983 145.556 249.553 145.056L239.854 154.753C240.354 155.184 240.901 155.53 241.477 155.793L250.593 146.679ZM247.586 143.476C248.135 143.77 248.653 144.145 249.122 144.599L239.397 154.322C238.942 153.854 238.567 153.336 238.273 152.787L247.586 143.476ZM246.984 143.19C246.292 142.901 245.562 142.731 244.825 142.678L237.475 150.026C237.528 150.763 237.698 151.493 237.987 152.186L246.984 143.19ZM239.472 144.675C240.715 143.432 242.316 142.765 243.943 142.672L237.469 149.145C237.562 147.518 238.229 145.918 239.472 144.675Z" fill="#0B0E29"/>
<rect x="348.676" y="104.008" width="85.6501" height="31.1396" fill="#00D0F6"/>
<rect x="263.027" y="104.008" width="85.6501" height="31.1396" fill="#00D0F6"/>
<line x1="348.926" y1="104.008" x2="348.926" y2="135.147" stroke="#0B0E29" stroke-width="0.5" stroke-dasharray="2 2"/>
<rect x="349.148" y="211.258" width="85.6501" height="31.1396" fill="#EBEAE8"/>
<rect x="263.5" y="211.258" width="85.6501" height="31.1396" fill="#EBEAE8"/>
<line x1="349.398" y1="211.258" x2="349.398" y2="242.397" stroke="#0B0E29" stroke-width="0.5" stroke-dasharray="2 2"/>
<ellipse cx="771.657" cy="254.811" rx="7.6645" ry="7.66304" fill="#1324A0"/>
<rect x="704.211" y="211.266" width="85.6501" height="31.1396" fill="#0B0E29" stroke="white" stroke-width="0.5" stroke-dasharray="1 1"/>
<rect x="618.562" y="211.266" width="85.6501" height="31.1396" fill="#0B0E29" stroke="white" stroke-width="0.5" stroke-dasharray="1 1"/>
<ellipse cx="594.606" cy="254.811" rx="7.6645" ry="7.66304" fill="#FF0049"/>
<ellipse cx="637.528" cy="254.811" rx="7.6645" ry="7.66304" fill="#00D0F6"/>
<ellipse cx="273.464" cy="256.342" rx="6.89805" ry="6.89674" fill="#0B0E29"/>
<ellipse cx="363.14" cy="256.342" rx="6.89805" ry="6.89674" fill="#0B0E29"/>
<path fill-rule="evenodd" clip-rule="evenodd" d="M341.046 261.657C339.967 262.736 338.618 263.382 337.217 263.594L342.983 257.829C342.771 259.23 342.126 260.578 341.046 261.657ZM342.692 254.569C342.945 255.311 343.068 256.088 343.06 256.863L336.252 263.671C335.476 263.679 334.699 263.556 333.957 263.303L342.692 254.569ZM342.439 253.934C342.176 253.358 341.829 252.812 341.398 252.312L331.699 262.009C332.199 262.44 332.746 262.787 333.322 263.05L342.439 253.934ZM339.431 250.732C339.981 251.026 340.498 251.401 340.967 251.855L331.242 261.578C330.788 261.109 330.414 260.592 330.119 260.043L339.431 250.732ZM338.829 250.446C338.136 250.158 337.406 249.988 336.669 249.936L329.323 257.281C329.375 258.018 329.545 258.748 329.833 259.441L338.829 250.446ZM331.32 251.933C332.562 250.691 334.161 250.024 335.786 249.93L329.317 256.398C329.41 254.773 330.078 253.175 331.32 251.933Z" fill="#0B0E29"/>
<path fill-rule="evenodd" clip-rule="evenodd" d="M427.2 261.657C426.122 262.735 424.775 263.38 423.375 263.593L429.136 257.833C428.923 259.233 428.278 260.579 427.2 261.657ZM428.846 254.572C429.099 255.314 429.222 256.091 429.214 256.867L422.409 263.671C421.633 263.679 420.856 263.557 420.113 263.304L428.846 254.572ZM428.594 253.937C428.331 253.361 427.984 252.814 427.554 252.314L417.855 262.011C418.355 262.441 418.902 262.788 419.478 263.051L428.594 253.937ZM425.587 250.733C426.136 251.028 426.654 251.403 427.123 251.857L417.398 261.58C416.943 261.112 416.568 260.594 416.274 260.045L425.587 250.733ZM424.985 250.447C424.293 250.159 423.563 249.988 422.826 249.936L415.476 257.284C415.529 258.021 415.699 258.751 415.988 259.443L424.985 250.447ZM417.473 251.933C418.716 250.69 420.317 250.022 421.944 249.93L415.47 256.402C415.563 254.776 416.23 253.176 417.473 251.933Z" fill="#0B0E29"/>
<rect x="526.676" y="211.266" width="85.6501" height="31.1396" fill="#00D0F6"/>
<rect x="441.027" y="211.266" width="85.6501" height="31.1396" fill="#00D0F6"/>
<line x1="526.926" y1="211.266" x2="526.926" y2="242.405" stroke="#0B0E29" stroke-width="0.5" stroke-dasharray="2 2"/>
<rect x="527.148" y="318.516" width="85.6501" height="31.1396" fill="#EBEAE8"/>
<rect x="441.5" y="318.516" width="85.6501" height="31.1396" fill="#EBEAE8"/>
<line x1="527.398" y1="318.516" x2="527.398" y2="349.655" stroke="#0B0E29" stroke-width="0.5" stroke-dasharray="2 2"/>
<ellipse cx="949.657" cy="362.069" rx="7.6645" ry="7.66304" fill="#1324A0"/>
<rect x="882.211" y="318.523" width="85.6501" height="31.1396" fill="#0B0E29" stroke="white" stroke-width="0.5" stroke-dasharray="1 1"/>
<rect x="796.562" y="318.523" width="85.6501" height="31.1396" fill="#0B0E29" stroke="white" stroke-width="0.5" stroke-dasharray="1 1"/>
<ellipse cx="772.606" cy="362.069" rx="7.6645" ry="7.66304" fill="#FF0049"/>
<ellipse cx="815.528" cy="362.069" rx="7.6645" ry="7.66304" fill="#00D0F6"/>
<ellipse cx="451.464" cy="363.6" rx="6.89805" ry="6.89674" fill="#0B0E29"/>
<ellipse cx="541.14" cy="363.6" rx="6.89805" ry="6.89674" fill="#0B0E29"/>
<path fill-rule="evenodd" clip-rule="evenodd" d="M519.047 368.915C517.968 369.994 516.619 370.639 515.218 370.851L520.984 365.086C520.772 366.488 520.127 367.836 519.047 368.915ZM520.693 361.827C520.946 362.569 521.069 363.346 521.061 364.121L514.253 370.929C513.477 370.936 512.7 370.814 511.958 370.56L520.693 361.827ZM520.44 361.192C520.177 360.616 519.83 360.069 519.399 359.57L509.7 369.267C510.2 369.698 510.747 370.044 511.323 370.308L520.44 361.192ZM517.432 357.99C517.982 358.284 518.499 358.659 518.968 359.113L509.243 368.836C508.789 368.367 508.415 367.85 508.12 367.3L517.432 357.99ZM516.83 357.704C516.137 357.416 515.407 357.246 514.67 357.194L507.324 364.538C507.376 365.275 507.546 366.006 507.834 366.698L516.83 357.704ZM509.321 359.191C510.563 357.949 512.162 357.281 513.787 357.188L507.318 363.656C507.411 362.031 508.079 360.432 509.321 359.191Z" fill="#0B0E29"/>
<path fill-rule="evenodd" clip-rule="evenodd" d="M605.2 368.915C604.122 369.993 602.775 370.638 601.375 370.851L607.136 365.091C606.923 366.491 606.278 367.837 605.2 368.915ZM606.846 361.83C607.099 362.572 607.222 363.349 607.214 364.125L600.409 370.929C599.633 370.937 598.856 370.814 598.113 370.561L606.846 361.83ZM606.594 361.194C606.331 360.619 605.984 360.072 605.554 359.572L595.855 369.269C596.355 369.699 596.902 370.046 597.478 370.309L606.594 361.194ZM603.587 357.991C604.136 358.286 604.654 358.66 605.123 359.115L595.398 368.838C594.943 368.369 594.568 367.852 594.274 367.303L603.587 357.991ZM602.985 357.705C602.293 357.417 601.563 357.246 600.826 357.194L593.476 364.542C593.529 365.279 593.699 366.009 593.988 366.701L602.985 357.705ZM595.473 359.191C596.716 357.948 598.317 357.28 599.944 357.188L593.47 363.66C593.563 362.034 594.23 360.433 595.473 359.191Z" fill="#0B0E29"/>
<rect x="704.676" y="318.523" width="85.6501" height="31.1396" fill="#00D0F6"/>
<rect x="619.027" y="318.523" width="85.6501" height="31.1396" fill="#00D0F6"/>
<line x1="704.926" y1="318.523" x2="704.926" y2="349.663" stroke="#0B0E29" stroke-width="0.5" stroke-dasharray="2 2"/>
<rect x="704.148" y="425.773" width="85.6501" height="31.1396" fill="#EBEAE8"/>
<rect x="618.5" y="425.773" width="85.6501" height="31.1396" fill="#EBEAE8"/>
<line x1="704.398" y1="425.773" x2="704.398" y2="456.913" stroke="#0B0E29" stroke-width="0.5" stroke-dasharray="2 2"/>
<ellipse cx="1126.66" cy="469.327" rx="7.6645" ry="7.66304" fill="#1324A0"/>
<rect x="1059.21" y="425.781" width="85.6501" height="31.1396" fill="#0B0E29" stroke="white" stroke-width="0.5" stroke-dasharray="1 1"/>
<rect x="973.562" y="425.781" width="85.6501" height="31.1396" fill="#0B0E29" stroke="white" stroke-width="0.5" stroke-dasharray="1 1"/>
<ellipse cx="949.606" cy="469.327" rx="7.6645" ry="7.66304" fill="#FF0049"/>
<ellipse cx="992.528" cy="469.327" rx="7.6645" ry="7.66304" fill="#00D0F6"/>
<ellipse cx="628.464" cy="470.858" rx="6.89805" ry="6.89674" fill="#0B0E29"/>
<ellipse cx="718.14" cy="470.858" rx="6.89805" ry="6.89674" fill="#0B0E29"/>
<path fill-rule="evenodd" clip-rule="evenodd" d="M696.047 476.173C694.968 477.252 693.619 477.897 692.218 478.109L697.984 472.344C697.772 473.745 697.127 475.094 696.047 476.173ZM697.693 469.085C697.946 469.827 698.069 470.603 698.061 471.379L691.253 478.186C690.477 478.194 689.7 478.071 688.958 477.818L697.693 469.085ZM697.44 468.45C697.177 467.874 696.83 467.327 696.399 466.828L686.7 476.525C687.2 476.955 687.747 477.302 688.323 477.565L697.44 468.45ZM694.432 465.248C694.982 465.542 695.499 465.916 695.968 466.371L686.243 476.094C685.789 475.625 685.415 475.107 685.12 474.558L694.432 465.248ZM693.83 464.962C693.137 464.673 692.407 464.503 691.67 464.452L684.324 471.796C684.376 472.533 684.546 473.264 684.834 473.956L693.83 464.962ZM686.321 466.448C687.563 465.207 689.162 464.539 690.787 464.446L684.318 470.914C684.411 469.289 685.079 467.69 686.321 466.448Z" fill="#0B0E29"/>
<path fill-rule="evenodd" clip-rule="evenodd" d="M782.2 476.173C781.122 477.251 779.775 477.896 778.375 478.109L784.136 472.349C783.923 473.748 783.278 475.095 782.2 476.173ZM783.846 469.088C784.099 469.83 784.222 470.607 784.214 471.383L777.409 478.186C776.633 478.195 775.856 478.072 775.113 477.819L783.846 469.088ZM783.594 468.452C783.331 467.876 782.984 467.329 782.554 466.83L772.855 476.527C773.355 476.957 773.902 477.304 774.478 477.567L783.594 468.452ZM780.587 465.249C781.136 465.544 781.654 465.918 782.123 466.373L772.398 476.096C771.943 475.627 771.568 475.11 771.274 474.561L780.587 465.249ZM779.985 464.963C779.293 464.674 778.563 464.504 777.826 464.452L770.476 471.8C770.529 472.537 770.699 473.267 770.988 473.959L779.985 464.963ZM772.473 466.448C773.716 465.206 775.317 464.538 776.944 464.446L770.47 470.918C770.563 469.291 771.23 467.691 772.473 466.448Z" fill="#0B0E29"/>
<rect x="881.676" y="425.781" width="85.6501" height="31.1396" fill="#00D0F6"/>
<rect x="796.027" y="425.781" width="85.6501" height="31.1396" fill="#00D0F6"/>
<line x1="881.926" y1="425.781" x2="881.926" y2="456.921" stroke="#0B0E29" stroke-width="0.5" stroke-dasharray="2 2"/>
<path d="M1123.29 66.0781H1119.71V69.0938H1123.95V71H1117.41V59.625H1123.93V61.5391H1119.71V64.2266H1123.29V66.0781ZM1133.23 71H1130.93L1127.57 63.5391V71H1125.27V59.625H1127.57L1130.94 67.0938V59.625H1133.23V71ZM1135.07 71V59.625H1138.08C1139.41 59.625 1140.46 60.0469 1141.25 60.8906C1142.04 61.7344 1142.45 62.8906 1142.46 64.3594V66.2031C1142.46 67.6979 1142.07 68.8724 1141.27 69.7266C1140.49 70.5755 1139.4 71 1138.02 71H1135.07ZM1137.37 61.5391V69.0938H1138.05C1138.82 69.0938 1139.36 68.8932 1139.67 68.4922C1139.98 68.0859 1140.15 67.388 1140.16 66.3984V64.4219C1140.16 63.3594 1140.02 62.6198 1139.72 62.2031C1139.42 61.7812 1138.92 61.5599 1138.2 61.5391H1137.37Z" fill="#0B0E29"/>
<line x1="1145" y1="26" x2="1145" y2="477" stroke="#EBEAE8"/>
<path d="M-23.5 185H1144.5" stroke="#EBEAE8"/>
<path d="M-23.5 293H1144.5" stroke="#EBEAE8"/>
<path d="M-23.5 400H1144.5" stroke="#EBEAE8"/>
<path d="M92.2188 58.0156C92.2188 57.5521 92.099 57.2031 91.8594 56.9688C91.625 56.7292 91.1953 56.4818 90.5703 56.2266C89.4297 55.7943 88.6094 55.2891 88.1094 54.7109C87.6094 54.1276 87.3594 53.4401 87.3594 52.6484C87.3594 51.6901 87.6979 50.9219 88.375 50.3438C89.0573 49.7604 89.9219 49.4688 90.9688 49.4688C91.6667 49.4688 92.2891 49.6172 92.8359 49.9141C93.3828 50.2057 93.8021 50.6198 94.0938 51.1562C94.3906 51.6927 94.5391 52.3021 94.5391 52.9844H92.25C92.25 52.4531 92.1354 52.0495 91.9062 51.7734C91.6823 51.4922 91.3568 51.3516 90.9297 51.3516C90.5286 51.3516 90.2161 51.4714 89.9922 51.7109C89.7682 51.9453 89.6562 52.263 89.6562 52.6641C89.6562 52.9766 89.7812 53.2604 90.0312 53.5156C90.2812 53.7656 90.724 54.026 91.3594 54.2969C92.4688 54.6979 93.2734 55.1901 93.7734 55.7734C94.2786 56.3568 94.5312 57.099 94.5312 58C94.5312 58.9896 94.2161 59.763 93.5859 60.3203C92.9557 60.8776 92.099 61.1562 91.0156 61.1562C90.2812 61.1562 89.612 61.0052 89.0078 60.7031C88.4036 60.401 87.9297 59.9688 87.5859 59.4062C87.2474 58.8438 87.0781 58.1797 87.0781 57.4141H89.3828C89.3828 58.0703 89.5104 58.5469 89.7656 58.8438C90.0208 59.1406 90.4375 59.2891 91.0156 59.2891C91.8177 59.2891 92.2188 58.8646 92.2188 58.0156ZM103.422 51.5391H100.609V61H98.3047V51.5391H95.5391V49.625H103.422V51.5391ZM109.234 58.6719H106.102L105.492 61H103.062L106.617 49.625H108.719L112.297 61H109.844L109.234 58.6719ZM106.602 56.7578H108.727L107.664 52.7031L106.602 56.7578ZM116.812 56.8438H115.672V61H113.375V49.625H117.039C118.19 49.625 119.078 49.9245 119.703 50.5234C120.333 51.1172 120.648 51.9635 120.648 53.0625C120.648 54.5729 120.099 55.6302 119 56.2344L120.992 60.8906V61H118.523L116.812 56.8438ZM115.672 54.9297H116.977C117.435 54.9297 117.779 54.7786 118.008 54.4766C118.237 54.1693 118.352 53.7604 118.352 53.25C118.352 52.1094 117.906 51.5391 117.016 51.5391H115.672V54.9297ZM129.203 51.5391H126.391V61H124.086V51.5391H121.32V49.625H129.203V51.5391Z" fill="#0B0E29"/>
<line x1="85" y1="26" x2="85" y2="477" stroke="#EBEAE8"/>
<rect width="93" height="451" transform="translate(-8.5 26)" fill="white"/>
<path d="M13.2188 122.016C13.2188 121.552 13.099 121.203 12.8594 120.969C12.625 120.729 12.1953 120.482 11.5703 120.227C10.4297 119.794 9.60938 119.289 9.10938 118.711C8.60938 118.128 8.35938 117.44 8.35938 116.648C8.35938 115.69 8.69792 114.922 9.375 114.344C10.0573 113.76 10.9219 113.469 11.9688 113.469C12.6667 113.469 13.2891 113.617 13.8359 113.914C14.3828 114.206 14.8021 114.62 15.0938 115.156C15.3906 115.693 15.5391 116.302 15.5391 116.984H13.25C13.25 116.453 13.1354 116.049 12.9062 115.773C12.6823 115.492 12.3568 115.352 11.9297 115.352C11.5286 115.352 11.2161 115.471 10.9922 115.711C10.7682 115.945 10.6562 116.263 10.6562 116.664C10.6562 116.977 10.7812 117.26 11.0312 117.516C11.2812 117.766 11.724 118.026 12.3594 118.297C13.4688 118.698 14.2734 119.19 14.7734 119.773C15.2786 120.357 15.5312 121.099 15.5312 122C15.5312 122.99 15.2161 123.763 14.5859 124.32C13.9557 124.878 13.099 125.156 12.0156 125.156C11.2812 125.156 10.612 125.005 10.0078 124.703C9.40365 124.401 8.92969 123.969 8.58594 123.406C8.2474 122.844 8.07812 122.18 8.07812 121.414H10.3828C10.3828 122.07 10.5104 122.547 10.7656 122.844C11.0208 123.141 11.4375 123.289 12.0156 123.289C12.8177 123.289 13.2188 122.865 13.2188 122.016ZM19.3516 121V125H17.0547V113.625H20.9297C22.0547 113.625 22.9505 113.974 23.6172 114.672C24.2891 115.37 24.625 116.276 24.625 117.391C24.625 118.505 24.2943 119.385 23.6328 120.031C22.9714 120.677 22.0547 121 20.8828 121H19.3516ZM19.3516 119.086H20.9297C21.3672 119.086 21.7057 118.943 21.9453 118.656C22.1849 118.37 22.3047 117.953 22.3047 117.406C22.3047 116.839 22.1823 116.388 21.9375 116.055C21.6927 115.716 21.3646 115.544 20.9531 115.539H19.3516V119.086ZM29.6094 120.844H28.4688V125H26.1719V113.625H29.8359C30.987 113.625 31.875 113.924 32.5 114.523C33.1302 115.117 33.4453 115.964 33.4453 117.062C33.4453 118.573 32.8958 119.63 31.7969 120.234L33.7891 124.891V125H31.3203L29.6094 120.844ZM28.4688 118.93H29.7734C30.2318 118.93 30.5755 118.779 30.8047 118.477C31.0339 118.169 31.1484 117.76 31.1484 117.25C31.1484 116.109 30.7031 115.539 29.8125 115.539H28.4688V118.93ZM37.4219 125H35.125V113.625H37.4219V125ZM47.3047 125H45.0078L41.6484 117.539V125H39.3516V113.625H41.6484L45.0156 121.094V113.625H47.3047V125ZM56.2812 115.539H53.4688V125H51.1641V115.539H48.3984V113.625H56.2812V115.539ZM65.5156 125H63.2969V116.312L61.1328 117.148V115.305L65.2812 113.609H65.5156V125Z" fill="#0B0E29"/>
<path d="M13.2188 229.016C13.2188 228.552 13.099 228.203 12.8594 227.969C12.625 227.729 12.1953 227.482 11.5703 227.227C10.4297 226.794 9.60938 226.289 9.10938 225.711C8.60938 225.128 8.35938 224.44 8.35938 223.648C8.35938 222.69 8.69792 221.922 9.375 221.344C10.0573 220.76 10.9219 220.469 11.9688 220.469C12.6667 220.469 13.2891 220.617 13.8359 220.914C14.3828 221.206 14.8021 221.62 15.0938 222.156C15.3906 222.693 15.5391 223.302 15.5391 223.984H13.25C13.25 223.453 13.1354 223.049 12.9062 222.773C12.6823 222.492 12.3568 222.352 11.9297 222.352C11.5286 222.352 11.2161 222.471 10.9922 222.711C10.7682 222.945 10.6562 223.263 10.6562 223.664C10.6562 223.977 10.7812 224.26 11.0312 224.516C11.2812 224.766 11.724 225.026 12.3594 225.297C13.4688 225.698 14.2734 226.19 14.7734 226.773C15.2786 227.357 15.5312 228.099 15.5312 229C15.5312 229.99 15.2161 230.763 14.5859 231.32C13.9557 231.878 13.099 232.156 12.0156 232.156C11.2812 232.156 10.612 232.005 10.0078 231.703C9.40365 231.401 8.92969 230.969 8.58594 230.406C8.2474 229.844 8.07812 229.18 8.07812 228.414H10.3828C10.3828 229.07 10.5104 229.547 10.7656 229.844C11.0208 230.141 11.4375 230.289 12.0156 230.289C12.8177 230.289 13.2188 229.865 13.2188 229.016ZM19.3516 228V232H17.0547V220.625H20.9297C22.0547 220.625 22.9505 220.974 23.6172 221.672C24.2891 222.37 24.625 223.276 24.625 224.391C24.625 225.505 24.2943 226.385 23.6328 227.031C22.9714 227.677 22.0547 228 20.8828 228H19.3516ZM19.3516 226.086H20.9297C21.3672 226.086 21.7057 225.943 21.9453 225.656C22.1849 225.37 22.3047 224.953 22.3047 224.406C22.3047 223.839 22.1823 223.388 21.9375 223.055C21.6927 222.716 21.3646 222.544 20.9531 222.539H19.3516V226.086ZM29.6094 227.844H28.4688V232H26.1719V220.625H29.8359C30.987 220.625 31.875 220.924 32.5 221.523C33.1302 222.117 33.4453 222.964 33.4453 224.062C33.4453 225.573 32.8958 226.63 31.7969 227.234L33.7891 231.891V232H31.3203L29.6094 227.844ZM28.4688 225.93H29.7734C30.2318 225.93 30.5755 225.779 30.8047 225.477C31.0339 225.169 31.1484 224.76 31.1484 224.25C31.1484 223.109 30.7031 222.539 29.8125 222.539H28.4688V225.93ZM37.4219 232H35.125V220.625H37.4219V232ZM47.3047 232H45.0078L41.6484 224.539V232H39.3516V220.625H41.6484L45.0156 228.094V220.625H47.3047V232ZM56.2812 222.539H53.4688V232H51.1641V222.539H48.3984V220.625H56.2812V222.539ZM67.3516 232H60.6484V230.438L63.7266 226.523C64.1172 225.982 64.4036 225.508 64.5859 225.102C64.7734 224.69 64.8672 224.297 64.8672 223.922C64.8672 223.417 64.7786 223.021 64.6016 222.734C64.4297 222.448 64.1797 222.305 63.8516 222.305C63.4922 222.305 63.2057 222.471 62.9922 222.805C62.7839 223.138 62.6797 223.607 62.6797 224.211H60.4609C60.4609 223.513 60.6042 222.875 60.8906 222.297C61.1823 221.719 61.5885 221.271 62.1094 220.953C62.6354 220.63 63.2292 220.469 63.8906 220.469C64.9062 220.469 65.6927 220.75 66.25 221.312C66.8125 221.87 67.0938 222.664 67.0938 223.695C67.0938 224.336 66.9375 224.987 66.625 225.648C66.3177 226.305 65.7578 227.115 64.9453 228.078L63.4844 230.164H67.3516V232Z" fill="#0B0E29"/>
<path d="M13.2188 336.016C13.2188 335.552 13.099 335.203 12.8594 334.969C12.625 334.729 12.1953 334.482 11.5703 334.227C10.4297 333.794 9.60938 333.289 9.10938 332.711C8.60938 332.128 8.35938 331.44 8.35938 330.648C8.35938 329.69 8.69792 328.922 9.375 328.344C10.0573 327.76 10.9219 327.469 11.9688 327.469C12.6667 327.469 13.2891 327.617 13.8359 327.914C14.3828 328.206 14.8021 328.62 15.0938 329.156C15.3906 329.693 15.5391 330.302 15.5391 330.984H13.25C13.25 330.453 13.1354 330.049 12.9062 329.773C12.6823 329.492 12.3568 329.352 11.9297 329.352C11.5286 329.352 11.2161 329.471 10.9922 329.711C10.7682 329.945 10.6562 330.263 10.6562 330.664C10.6562 330.977 10.7812 331.26 11.0312 331.516C11.2812 331.766 11.724 332.026 12.3594 332.297C13.4688 332.698 14.2734 333.19 14.7734 333.773C15.2786 334.357 15.5312 335.099 15.5312 336C15.5312 336.99 15.2161 337.763 14.5859 338.32C13.9557 338.878 13.099 339.156 12.0156 339.156C11.2812 339.156 10.612 339.005 10.0078 338.703C9.40365 338.401 8.92969 337.969 8.58594 337.406C8.2474 336.844 8.07812 336.18 8.07812 335.414H10.3828C10.3828 336.07 10.5104 336.547 10.7656 336.844C11.0208 337.141 11.4375 337.289 12.0156 337.289C12.8177 337.289 13.2188 336.865 13.2188 336.016ZM19.3516 335V339H17.0547V327.625H20.9297C22.0547 327.625 22.9505 327.974 23.6172 328.672C24.2891 329.37 24.625 330.276 24.625 331.391C24.625 332.505 24.2943 333.385 23.6328 334.031C22.9714 334.677 22.0547 335 20.8828 335H19.3516ZM19.3516 333.086H20.9297C21.3672 333.086 21.7057 332.943 21.9453 332.656C22.1849 332.37 22.3047 331.953 22.3047 331.406C22.3047 330.839 22.1823 330.388 21.9375 330.055C21.6927 329.716 21.3646 329.544 20.9531 329.539H19.3516V333.086ZM29.6094 334.844H28.4688V339H26.1719V327.625H29.8359C30.987 327.625 31.875 327.924 32.5 328.523C33.1302 329.117 33.4453 329.964 33.4453 331.062C33.4453 332.573 32.8958 333.63 31.7969 334.234L33.7891 338.891V339H31.3203L29.6094 334.844ZM28.4688 332.93H29.7734C30.2318 332.93 30.5755 332.779 30.8047 332.477C31.0339 332.169 31.1484 331.76 31.1484 331.25C31.1484 330.109 30.7031 329.539 29.8125 329.539H28.4688V332.93ZM37.4219 339H35.125V327.625H37.4219V339ZM47.3047 339H45.0078L41.6484 331.539V339H39.3516V327.625H41.6484L45.0156 335.094V327.625H47.3047V339ZM56.2812 329.539H53.4688V339H51.1641V329.539H48.3984V327.625H56.2812V329.539ZM62.6172 332.305H63.6875C64.0938 332.305 64.3906 332.164 64.5781 331.883C64.7708 331.596 64.8672 331.216 64.8672 330.742C64.8672 330.289 64.7682 329.938 64.5703 329.688C64.3776 329.432 64.1172 329.305 63.7891 329.305C63.4818 329.305 63.2292 329.424 63.0312 329.664C62.8385 329.904 62.7422 330.206 62.7422 330.57H60.5312C60.5312 329.977 60.6667 329.445 60.9375 328.977C61.2135 328.503 61.5964 328.133 62.0859 327.867C62.5807 327.602 63.1276 327.469 63.7266 327.469C64.7734 327.469 65.5938 327.758 66.1875 328.336C66.7812 328.914 67.0781 329.706 67.0781 330.711C67.0781 331.227 66.9427 331.706 66.6719 332.148C66.4062 332.586 66.0547 332.922 65.6172 333.156C66.1536 333.385 66.5521 333.729 66.8125 334.188C67.0781 334.646 67.2109 335.188 67.2109 335.812C67.2109 336.823 66.888 337.633 66.2422 338.242C65.6016 338.852 64.7578 339.156 63.7109 339.156C62.737 339.156 61.9453 338.857 61.3359 338.258C60.7318 337.654 60.4297 336.862 60.4297 335.883H62.6406C62.6406 336.289 62.7474 336.63 62.9609 336.906C63.1745 337.182 63.4453 337.32 63.7734 337.32C64.1536 337.32 64.4531 337.18 64.6719 336.898C64.8958 336.617 65.0078 336.242 65.0078 335.773C65.0078 334.654 64.5729 334.091 63.7031 334.086H62.6172V332.305Z" fill="#0B0E29"/>
<path d="M13.2188 443.016C13.2188 442.552 13.099 442.203 12.8594 441.969C12.625 441.729 12.1953 441.482 11.5703 441.227C10.4297 440.794 9.60938 440.289 9.10938 439.711C8.60938 439.128 8.35938 438.44 8.35938 437.648C8.35938 436.69 8.69792 435.922 9.375 435.344C10.0573 434.76 10.9219 434.469 11.9688 434.469C12.6667 434.469 13.2891 434.617 13.8359 434.914C14.3828 435.206 14.8021 435.62 15.0938 436.156C15.3906 436.693 15.5391 437.302 15.5391 437.984H13.25C13.25 437.453 13.1354 437.049 12.9062 436.773C12.6823 436.492 12.3568 436.352 11.9297 436.352C11.5286 436.352 11.2161 436.471 10.9922 436.711C10.7682 436.945 10.6562 437.263 10.6562 437.664C10.6562 437.977 10.7812 438.26 11.0312 438.516C11.2812 438.766 11.724 439.026 12.3594 439.297C13.4688 439.698 14.2734 440.19 14.7734 440.773C15.2786 441.357 15.5312 442.099 15.5312 443C15.5312 443.99 15.2161 444.763 14.5859 445.32C13.9557 445.878 13.099 446.156 12.0156 446.156C11.2812 446.156 10.612 446.005 10.0078 445.703C9.40365 445.401 8.92969 444.969 8.58594 444.406C8.2474 443.844 8.07812 443.18 8.07812 442.414H10.3828C10.3828 443.07 10.5104 443.547 10.7656 443.844C11.0208 444.141 11.4375 444.289 12.0156 444.289C12.8177 444.289 13.2188 443.865 13.2188 443.016ZM19.3516 442V446H17.0547V434.625H20.9297C22.0547 434.625 22.9505 434.974 23.6172 435.672C24.2891 436.37 24.625 437.276 24.625 438.391C24.625 439.505 24.2943 440.385 23.6328 441.031C22.9714 441.677 22.0547 442 20.8828 442H19.3516ZM19.3516 440.086H20.9297C21.3672 440.086 21.7057 439.943 21.9453 439.656C22.1849 439.37 22.3047 438.953 22.3047 438.406C22.3047 437.839 22.1823 437.388 21.9375 437.055C21.6927 436.716 21.3646 436.544 20.9531 436.539H19.3516V440.086ZM29.6094 441.844H28.4688V446H26.1719V434.625H29.8359C30.987 434.625 31.875 434.924 32.5 435.523C33.1302 436.117 33.4453 436.964 33.4453 438.062C33.4453 439.573 32.8958 440.63 31.7969 441.234L33.7891 445.891V446H31.3203L29.6094 441.844ZM28.4688 439.93H29.7734C30.2318 439.93 30.5755 439.779 30.8047 439.477C31.0339 439.169 31.1484 438.76 31.1484 438.25C31.1484 437.109 30.7031 436.539 29.8125 436.539H28.4688V439.93ZM37.4219 446H35.125V434.625H37.4219V446ZM47.3047 446H45.0078L41.6484 438.539V446H39.3516V434.625H41.6484L45.0156 442.094V434.625H47.3047V446ZM56.2812 436.539H53.4688V446H51.1641V436.539H48.3984V434.625H56.2812V436.539ZM66.4766 441.703H67.4453V443.539H66.4766V446H64.2656V443.539H60.5L60.3984 442.109L64.2578 434.625H66.4766V441.703ZM62.5469 441.703H64.2656V437.898L64.2188 437.984L62.5469 441.703Z" fill="#0B0E29"/>
</g>
<defs>
<clipPath id="clip0_7045_379943">
<rect width="1185" height="508" fill="white" transform="translate(-8.5)"/>
</clipPath>
</defs>
</svg>
