<svg width="1136" height="428" viewBox="0 0 1136 428" fill="none" xmlns="http://www.w3.org/2000/svg">
<g clip-path="url(#clip0_7880_110321)">
<rect width="1135" height="428" transform="translate(0.5)" fill="white"/>
<g clip-path="url(#clip1_7880_110321)">
<rect x="131.703" y="57" width="62.2044" height="22.6035" fill="#EBEAE8"/>
<rect x="69.5" y="57" width="62.2044" height="22.6035" fill="#EBEAE8"/>
<line x1="131.953" y1="57" x2="131.953" y2="79.6035" stroke="#0B0E29" stroke-width="0.5" stroke-dasharray="2 2"/>
<ellipse cx="438.555" cy="88.6171" rx="5.56643" ry="5.56243" fill="#1324A0"/>
<rect x="389.57" y="57.0078" width="62.2044" height="22.6035" fill="#0B0E29" stroke="white" stroke-width="0.5" stroke-dasharray="1 1"/>
<rect x="327.367" y="57.0078" width="62.2044" height="22.6035" fill="#0B0E29" stroke="white" stroke-width="0.5" stroke-dasharray="1 1"/>
<ellipse cx="309.969" cy="88.6171" rx="5.56643" ry="5.56243" fill="#FF0049"/>
<ellipse cx="341.141" cy="88.6171" rx="5.56643" ry="5.56243" fill="#00D0F6"/>
<ellipse cx="76.7364" cy="89.7249" rx="5.00979" ry="5.00619" fill="#0B0E29"/>
<ellipse cx="141.865" cy="89.7249" rx="5.00979" ry="5.00619" fill="#0B0E29"/>
<path fill-rule="evenodd" clip-rule="evenodd" d="M125.817 93.5824C125.035 94.3645 124.057 94.8327 123.041 94.9873L127.223 90.8078C127.069 91.8234 126.6 92.8004 125.817 93.5824ZM127.016 88.446C127.198 88.9832 127.286 89.5453 127.28 90.1066L122.339 95.044C121.777 95.05 121.215 94.9619 120.677 94.7797L127.016 88.446ZM126.833 87.9843C126.642 87.5651 126.39 87.1669 126.077 86.8031L119.033 93.8415C119.397 94.1543 119.796 94.4061 120.215 94.5969L126.833 87.9843ZM124.648 85.6538C125.047 85.868 125.423 86.1405 125.764 86.4711L118.701 93.529C118.37 93.1885 118.098 92.8126 117.883 92.4136L124.648 85.6538ZM124.211 85.446C123.707 85.2362 123.177 85.1123 122.641 85.0743L117.303 90.4081C117.341 90.9434 117.465 91.4739 117.675 91.9769L124.211 85.446ZM118.754 86.5237C119.656 85.6216 120.819 85.137 122 85.0699L117.299 89.768C117.366 88.5873 117.851 87.4258 118.754 86.5237Z" fill="#0B0E29"/>
<path fill-rule="evenodd" clip-rule="evenodd" d="M188.388 93.5824C187.605 94.3645 186.627 94.8327 185.611 94.9873L189.794 90.8078C189.639 91.8234 189.17 92.8004 188.388 93.5824ZM189.586 88.446C189.768 88.9832 189.856 89.5453 189.85 90.1066L184.909 95.044C184.348 95.05 183.785 94.9619 183.248 94.7797L189.586 88.446ZM189.403 87.9843C189.212 87.5651 188.96 87.1669 188.647 86.8031L181.604 93.8415C181.968 94.1543 182.366 94.4061 182.786 94.5969L189.403 87.9843ZM187.218 85.6538C187.617 85.868 187.994 86.1405 188.334 86.4711L181.271 93.529C180.94 93.1885 180.668 92.8126 180.453 92.4136L187.218 85.6538ZM186.781 85.446C186.278 85.2362 185.747 85.1123 185.211 85.0743L179.874 90.4081C179.912 90.9434 180.036 91.4739 180.246 91.9769L186.781 85.446ZM181.324 86.5237C182.227 85.6216 183.389 85.137 184.571 85.0699L179.869 89.768C179.936 88.5873 180.421 87.4258 181.324 86.5237Z" fill="#0B0E29"/>
<rect x="260.633" y="57.0078" width="62.2044" height="22.6035" fill="#00D0F6"/>
<rect x="198.43" y="57.0078" width="62.2044" height="22.6035" fill="#00D0F6"/>
<line x1="260.883" y1="57.0078" x2="260.883" y2="79.6113" stroke="#0B0E29" stroke-width="0.5" stroke-dasharray="2 2"/>
<rect x="260.703" y="134" width="62.2044" height="22.6035" fill="#EBEAE8"/>
<rect x="198.5" y="134" width="62.2044" height="22.6035" fill="#EBEAE8"/>
<line x1="260.953" y1="134" x2="260.953" y2="156.604" stroke="#0B0E29" stroke-width="0.5" stroke-dasharray="2 2"/>
<ellipse cx="567.555" cy="165.617" rx="5.56643" ry="5.56243" fill="#1324A0"/>
<rect x="518.57" y="134.008" width="62.2044" height="22.6035" fill="#0B0E29" stroke="white" stroke-width="0.5" stroke-dasharray="1 1"/>
<rect x="456.367" y="134.008" width="62.2044" height="22.6035" fill="#0B0E29" stroke="white" stroke-width="0.5" stroke-dasharray="1 1"/>
<ellipse cx="438.969" cy="165.617" rx="5.56643" ry="5.56243" fill="#FF0049"/>
<ellipse cx="470.141" cy="165.617" rx="5.56643" ry="5.56243" fill="#00D0F6"/>
<ellipse cx="205.736" cy="166.725" rx="5.00979" ry="5.00619" fill="#0B0E29"/>
<ellipse cx="270.865" cy="166.725" rx="5.00979" ry="5.00619" fill="#0B0E29"/>
<path fill-rule="evenodd" clip-rule="evenodd" d="M254.817 170.582C254.035 171.364 253.057 171.833 252.041 171.987L256.223 167.808C256.069 168.823 255.6 169.8 254.817 170.582ZM256.016 165.446C256.198 165.983 256.286 166.545 256.28 167.107L251.339 172.044C250.777 172.05 250.215 171.962 249.677 171.78L256.016 165.446ZM255.833 164.984C255.642 164.565 255.39 164.167 255.077 163.803L248.033 170.842C248.397 171.154 248.796 171.406 249.215 171.597L255.833 164.984ZM253.648 162.654C254.047 162.868 254.423 163.14 254.764 163.471L247.701 170.529C247.37 170.189 247.098 169.813 246.883 169.414L253.648 162.654ZM253.211 162.446C252.707 162.236 252.177 162.112 251.641 162.074L246.303 167.408C246.341 167.943 246.465 168.474 246.675 168.977L253.211 162.446ZM247.754 163.524C248.656 162.622 249.819 162.137 251 162.07L246.299 166.768C246.366 165.587 246.851 164.426 247.754 163.524Z" fill="#0B0E29"/>
<path fill-rule="evenodd" clip-rule="evenodd" d="M317.388 170.582C316.605 171.364 315.627 171.833 314.611 171.987L318.794 167.808C318.639 168.823 318.17 169.8 317.388 170.582ZM318.586 165.446C318.768 165.983 318.856 166.545 318.85 167.107L313.909 172.044C313.348 172.05 312.785 171.962 312.248 171.78L318.586 165.446ZM318.403 164.984C318.212 164.565 317.96 164.167 317.647 163.803L310.604 170.842C310.968 171.154 311.366 171.406 311.786 171.597L318.403 164.984ZM316.218 162.654C316.617 162.868 316.994 163.14 317.334 163.471L310.271 170.529C309.94 170.189 309.668 169.813 309.453 169.414L316.218 162.654ZM315.781 162.446C315.278 162.236 314.747 162.112 314.211 162.074L308.874 167.408C308.912 167.943 309.036 168.474 309.246 168.977L315.781 162.446ZM310.324 163.524C311.227 162.622 312.389 162.137 313.571 162.07L308.869 166.768C308.936 165.587 309.421 164.426 310.324 163.524Z" fill="#0B0E29"/>
<rect x="389.633" y="134.008" width="62.2044" height="22.6035" fill="#00D0F6"/>
<rect x="327.43" y="134.008" width="62.2044" height="22.6035" fill="#00D0F6"/>
<line x1="389.883" y1="134.008" x2="389.883" y2="156.611" stroke="#0B0E29" stroke-width="0.5" stroke-dasharray="2 2"/>
<rect x="389.703" y="212" width="62.2044" height="22.6035" fill="#EBEAE8"/>
<rect x="327.5" y="212" width="62.2044" height="22.6035" fill="#EBEAE8"/>
<line x1="389.953" y1="212" x2="389.953" y2="234.604" stroke="#0B0E29" stroke-width="0.5" stroke-dasharray="2 2"/>
<ellipse cx="567.969" cy="243.617" rx="5.56643" ry="5.56243" fill="#FF0049"/>
<ellipse cx="599.141" cy="243.617" rx="5.56643" ry="5.56243" fill="#00D0F6"/>
<ellipse cx="334.736" cy="244.725" rx="5.00979" ry="5.00619" fill="#0B0E29"/>
<ellipse cx="399.865" cy="244.725" rx="5.00979" ry="5.00619" fill="#0B0E29"/>
<path fill-rule="evenodd" clip-rule="evenodd" d="M383.817 248.582C383.035 249.364 382.057 249.833 381.041 249.987L385.223 245.808C385.069 246.823 384.6 247.8 383.817 248.582ZM385.016 243.446C385.198 243.983 385.286 244.545 385.28 245.107L380.339 250.044C379.777 250.05 379.215 249.962 378.677 249.78L385.016 243.446ZM384.833 242.984C384.642 242.565 384.39 242.167 384.077 241.803L377.033 248.842C377.397 249.154 377.796 249.406 378.215 249.597L384.833 242.984ZM382.648 240.654C383.047 240.868 383.423 241.14 383.764 241.471L376.701 248.529C376.37 248.189 376.098 247.813 375.883 247.414L382.648 240.654ZM382.211 240.446C381.707 240.236 381.177 240.112 380.641 240.074L375.303 245.408C375.341 245.943 375.465 246.474 375.675 246.977L382.211 240.446ZM376.754 241.524C377.656 240.622 378.819 240.137 380 240.07L375.299 244.768C375.366 243.587 375.851 242.426 376.754 241.524Z" fill="#0B0E29"/>
<path fill-rule="evenodd" clip-rule="evenodd" d="M446.388 248.582C445.605 249.364 444.627 249.833 443.611 249.987L447.794 245.808C447.639 246.823 447.17 247.8 446.388 248.582ZM447.586 243.446C447.768 243.983 447.856 244.545 447.85 245.107L442.909 250.044C442.348 250.05 441.785 249.962 441.248 249.78L447.586 243.446ZM447.403 242.984C447.212 242.565 446.96 242.167 446.647 241.803L439.604 248.842C439.968 249.154 440.366 249.406 440.786 249.597L447.403 242.984ZM445.218 240.654C445.617 240.868 445.994 241.14 446.334 241.471L439.271 248.529C438.94 248.189 438.668 247.813 438.453 247.414L445.218 240.654ZM444.781 240.446C444.278 240.236 443.747 240.112 443.211 240.074L437.874 245.408C437.912 245.943 438.036 246.474 438.246 246.977L444.781 240.446ZM439.324 241.524C440.227 240.622 441.389 240.137 442.571 240.07L437.869 244.768C437.936 243.587 438.421 242.426 439.324 241.524Z" fill="#0B0E29"/>
<rect x="518.633" y="212.008" width="62.2044" height="22.6035" fill="#00D0F6"/>
<rect x="456.43" y="212.008" width="62.2044" height="22.6035" fill="#00D0F6"/>
<line x1="518.883" y1="212.008" x2="518.883" y2="234.611" stroke="#0B0E29" stroke-width="0.5" stroke-dasharray="2 2"/>
<rect x="679.703" y="291" width="62.2044" height="22.6035" fill="#EBEAE8"/>
<rect x="617.5" y="291" width="62.2044" height="22.6035" fill="#EBEAE8"/>
<line x1="679.953" y1="291" x2="679.953" y2="313.604" stroke="#0B0E29" stroke-width="0.5" stroke-dasharray="2 2"/>
<ellipse cx="986.555" cy="322.617" rx="5.56643" ry="5.56243" fill="#1324A0"/>
<rect x="937.57" y="291.008" width="62.2044" height="22.6035" fill="#0B0E29" stroke="white" stroke-width="0.5" stroke-dasharray="1 1"/>
<rect x="875.367" y="291.008" width="62.2044" height="22.6035" fill="#0B0E29" stroke="white" stroke-width="0.5" stroke-dasharray="1 1"/>
<ellipse cx="857.969" cy="322.617" rx="5.56643" ry="5.56243" fill="#FF0049"/>
<ellipse cx="889.141" cy="322.617" rx="5.56643" ry="5.56243" fill="#00D0F6"/>
<ellipse cx="624.736" cy="323.725" rx="5.00979" ry="5.00619" fill="#0B0E29"/>
<ellipse cx="689.865" cy="323.725" rx="5.00979" ry="5.00619" fill="#0B0E29"/>
<path fill-rule="evenodd" clip-rule="evenodd" d="M673.817 327.582C673.035 328.364 672.057 328.833 671.041 328.987L675.223 324.808C675.069 325.823 674.6 326.8 673.817 327.582ZM675.016 322.446C675.198 322.983 675.286 323.545 675.28 324.107L670.339 329.044C669.777 329.05 669.215 328.962 668.677 328.78L675.016 322.446ZM674.833 321.984C674.642 321.565 674.39 321.167 674.077 320.803L667.033 327.842C667.397 328.154 667.796 328.406 668.215 328.597L674.833 321.984ZM672.648 319.654C673.047 319.868 673.423 320.14 673.764 320.471L666.701 327.529C666.37 327.189 666.098 326.813 665.883 326.414L672.648 319.654ZM672.211 319.446C671.707 319.236 671.177 319.112 670.641 319.074L665.303 324.408C665.341 324.943 665.465 325.474 665.675 325.977L672.211 319.446ZM666.754 320.524C667.656 319.622 668.819 319.137 670 319.07L665.299 323.768C665.366 322.587 665.851 321.426 666.754 320.524Z" fill="#0B0E29"/>
<path fill-rule="evenodd" clip-rule="evenodd" d="M736.388 327.582C735.605 328.364 734.627 328.833 733.611 328.987L737.794 324.808C737.639 325.823 737.17 326.8 736.388 327.582ZM737.586 322.446C737.768 322.983 737.856 323.545 737.85 324.107L732.909 329.044C732.348 329.05 731.785 328.962 731.248 328.78L737.586 322.446ZM737.403 321.984C737.212 321.565 736.96 321.167 736.647 320.803L729.604 327.842C729.968 328.154 730.366 328.406 730.786 328.597L737.403 321.984ZM735.218 319.654C735.617 319.868 735.994 320.14 736.334 320.471L729.271 327.529C728.94 327.189 728.668 326.813 728.453 326.414L735.218 319.654ZM734.781 319.446C734.278 319.236 733.747 319.112 733.211 319.074L727.874 324.408C727.912 324.943 728.036 325.474 728.246 325.977L734.781 319.446ZM729.324 320.524C730.227 319.622 731.389 319.137 732.571 319.07L727.869 323.768C727.936 322.587 728.421 321.426 729.324 320.524Z" fill="#0B0E29"/>
<rect x="808.633" y="291.008" width="62.2044" height="22.6035" fill="#00D0F6"/>
<rect x="746.43" y="291.008" width="62.2044" height="22.6035" fill="#00D0F6"/>
<line x1="808.883" y1="291.008" x2="808.883" y2="313.611" stroke="#0B0E29" stroke-width="0.5" stroke-dasharray="2 2"/>
<rect x="808.703" y="369" width="62.2044" height="22.6035" fill="#EBEAE8"/>
<rect x="746.5" y="369" width="62.2044" height="22.6035" fill="#EBEAE8"/>
<line x1="808.953" y1="369" x2="808.953" y2="391.604" stroke="#0B0E29" stroke-width="0.5" stroke-dasharray="2 2"/>
<ellipse cx="1115.55" cy="400.617" rx="5.56643" ry="5.56243" fill="#1324A0"/>
<rect x="1066.57" y="369.008" width="62.2044" height="22.6035" fill="#0B0E29" stroke="white" stroke-width="0.5" stroke-dasharray="1 1"/>
<rect x="1004.37" y="369.008" width="62.2044" height="22.6035" fill="#0B0E29" stroke="white" stroke-width="0.5" stroke-dasharray="1 1"/>
<ellipse cx="986.969" cy="400.617" rx="5.56643" ry="5.56243" fill="#FF0049"/>
<ellipse cx="1018.14" cy="400.617" rx="5.56643" ry="5.56243" fill="#00D0F6"/>
<ellipse cx="753.736" cy="401.725" rx="5.00979" ry="5.00619" fill="#0B0E29"/>
<ellipse cx="818.865" cy="401.725" rx="5.00979" ry="5.00619" fill="#0B0E29"/>
<path fill-rule="evenodd" clip-rule="evenodd" d="M802.817 405.582C802.035 406.364 801.057 406.833 800.041 406.987L804.223 402.808C804.069 403.823 803.6 404.8 802.817 405.582ZM804.016 400.446C804.198 400.983 804.286 401.545 804.28 402.107L799.339 407.044C798.777 407.05 798.215 406.962 797.677 406.78L804.016 400.446ZM803.833 399.984C803.642 399.565 803.39 399.167 803.077 398.803L796.033 405.842C796.397 406.154 796.796 406.406 797.215 406.597L803.833 399.984ZM801.648 397.654C802.047 397.868 802.423 398.14 802.764 398.471L795.701 405.529C795.37 405.189 795.098 404.813 794.883 404.414L801.648 397.654ZM801.211 397.446C800.707 397.236 800.177 397.112 799.641 397.074L794.303 402.408C794.341 402.943 794.465 403.474 794.675 403.977L801.211 397.446ZM795.754 398.524C796.656 397.622 797.819 397.137 799 397.07L794.299 401.768C794.366 400.587 794.851 399.426 795.754 398.524Z" fill="#0B0E29"/>
<path fill-rule="evenodd" clip-rule="evenodd" d="M865.388 405.582C864.605 406.364 863.627 406.833 862.611 406.987L866.794 402.808C866.639 403.823 866.17 404.8 865.388 405.582ZM866.586 400.446C866.768 400.983 866.856 401.545 866.85 402.107L861.909 407.044C861.348 407.05 860.785 406.962 860.248 406.78L866.586 400.446ZM866.403 399.984C866.212 399.565 865.96 399.167 865.647 398.803L858.604 405.842C858.968 406.154 859.366 406.406 859.786 406.597L866.403 399.984ZM864.218 397.654C864.617 397.868 864.994 398.14 865.334 398.471L858.271 405.529C857.94 405.189 857.668 404.813 857.453 404.414L864.218 397.654ZM863.781 397.446C863.278 397.236 862.747 397.112 862.211 397.074L856.874 402.408C856.912 402.943 857.036 403.474 857.246 403.977L863.781 397.446ZM858.324 398.524C859.227 397.622 860.389 397.137 861.571 397.07L856.869 401.768C856.936 400.587 857.421 399.426 858.324 398.524Z" fill="#0B0E29"/>
<rect x="937.633" y="369.008" width="62.2044" height="22.6035" fill="#00D0F6"/>
<rect x="875.43" y="369.008" width="62.2044" height="22.6035" fill="#00D0F6"/>
<line x1="937.883" y1="369.008" x2="937.883" y2="391.611" stroke="#0B0E29" stroke-width="0.5" stroke-dasharray="2 2"/>
<path d="M1042.3 20V18.064H1043.74V10.768H1042.3V8.832H1047.61V10.768H1046.17V18.064H1047.61V20H1042.3ZM1049.51 20V11.6H1051.88V13.024H1051.97C1052.12 12.5867 1052.38 12.208 1052.76 11.888C1053.13 11.568 1053.65 11.408 1054.31 11.408C1055.17 11.408 1055.82 11.696 1056.26 12.272C1056.71 12.848 1056.93 13.6693 1056.93 14.736V20H1054.57V14.928C1054.57 14.384 1054.48 13.984 1054.31 13.728C1054.14 13.4613 1053.84 13.328 1053.4 13.328C1053.21 13.328 1053.02 13.3547 1052.84 13.408C1052.66 13.4507 1052.49 13.5253 1052.34 13.632C1052.2 13.7387 1052.09 13.872 1052.01 14.032C1051.92 14.1813 1051.88 14.3573 1051.88 14.56V20H1049.51ZM1062.82 11.6H1065.19V13.008H1065.27C1065.39 12.5387 1065.65 12.1547 1066.07 11.856C1066.5 11.5573 1066.98 11.408 1067.53 11.408C1068.59 11.408 1069.4 11.7813 1069.94 12.528C1070.49 13.2747 1070.76 14.3627 1070.76 15.792C1070.76 17.2213 1070.49 18.3147 1069.94 19.072C1069.4 19.8187 1068.59 20.192 1067.53 20.192C1067.25 20.192 1066.99 20.1493 1066.74 20.064C1066.5 19.9893 1066.27 19.8827 1066.07 19.744C1065.88 19.5947 1065.71 19.424 1065.57 19.232C1065.44 19.0293 1065.33 18.816 1065.27 18.592H1065.19V23.2H1062.82V11.6ZM1066.74 18.272C1067.19 18.272 1067.56 18.1173 1067.85 17.808C1068.15 17.488 1068.29 17.0613 1068.29 16.528V15.072C1068.29 14.5387 1068.15 14.1173 1067.85 13.808C1067.56 13.488 1067.19 13.328 1066.74 13.328C1066.29 13.328 1065.92 13.44 1065.62 13.664C1065.33 13.8773 1065.19 14.176 1065.19 14.56V17.04C1065.19 17.424 1065.33 17.728 1065.62 17.952C1065.92 18.1653 1066.29 18.272 1066.74 18.272ZM1072.56 20V11.6H1074.93V13.424H1075.01C1075.05 13.1893 1075.12 12.9653 1075.23 12.752C1075.34 12.528 1075.47 12.3307 1075.65 12.16C1075.83 11.9893 1076.04 11.856 1076.29 11.76C1076.53 11.6533 1076.82 11.6 1077.15 11.6H1077.57V13.808H1076.97C1076.28 13.808 1075.76 13.8987 1075.42 14.08C1075.09 14.2613 1074.93 14.5973 1074.93 15.088V20H1072.56ZM1082.36 20.192C1081.74 20.192 1081.18 20.0907 1080.69 19.888C1080.21 19.6853 1079.8 19.392 1079.46 19.008C1079.13 18.624 1078.87 18.16 1078.69 17.616C1078.51 17.072 1078.42 16.464 1078.42 15.792C1078.42 15.12 1078.51 14.512 1078.69 13.968C1078.87 13.424 1079.13 12.9653 1079.46 12.592C1079.8 12.208 1080.21 11.9147 1080.69 11.712C1081.18 11.5093 1081.74 11.408 1082.36 11.408C1082.97 11.408 1083.52 11.5093 1084 11.712C1084.49 11.9147 1084.91 12.208 1085.24 12.592C1085.58 12.9653 1085.84 13.424 1086.02 13.968C1086.2 14.512 1086.29 15.12 1086.29 15.792C1086.29 16.464 1086.2 17.072 1086.02 17.616C1085.84 18.16 1085.58 18.624 1085.24 19.008C1084.91 19.392 1084.49 19.6853 1084 19.888C1083.52 20.0907 1082.97 20.192 1082.36 20.192ZM1082.36 18.32C1082.83 18.32 1083.19 18.176 1083.44 17.888C1083.7 17.6 1083.83 17.1893 1083.83 16.656V14.944C1083.83 14.4107 1083.7 14 1083.44 13.712C1083.19 13.424 1082.83 13.28 1082.36 13.28C1081.89 13.28 1081.52 13.424 1081.27 13.712C1081.01 14 1080.88 14.4107 1080.88 14.944V16.656C1080.88 17.1893 1081.01 17.6 1081.27 17.888C1081.52 18.176 1081.89 18.32 1082.36 18.32ZM1095.76 20.608C1095.76 21.056 1095.68 21.4507 1095.52 21.792C1095.37 22.1333 1095.12 22.4213 1094.76 22.656C1094.41 22.9013 1093.94 23.0827 1093.36 23.2C1092.78 23.328 1092.06 23.392 1091.21 23.392C1090.49 23.392 1089.87 23.344 1089.36 23.248C1088.85 23.1627 1088.44 23.0347 1088.12 22.864C1087.81 22.704 1087.58 22.5013 1087.44 22.256C1087.3 22.0213 1087.23 21.7493 1087.23 21.44C1087.23 20.9707 1087.37 20.6027 1087.64 20.336C1087.92 20.0693 1088.3 19.904 1088.8 19.84V19.664C1088.39 19.5893 1088.09 19.4187 1087.88 19.152C1087.68 18.8747 1087.58 18.5547 1087.58 18.192C1087.58 17.968 1087.62 17.776 1087.71 17.616C1087.8 17.4453 1087.92 17.3013 1088.06 17.184C1088.21 17.056 1088.38 16.9547 1088.57 16.88C1088.76 16.8053 1088.96 16.7467 1089.15 16.704V16.64C1088.64 16.4053 1088.26 16.0853 1088.01 15.68C1087.77 15.264 1087.64 14.784 1087.64 14.24C1087.64 13.3867 1087.94 12.704 1088.52 12.192C1089.12 11.6693 1090.03 11.408 1091.24 11.408C1091.8 11.408 1092.27 11.4613 1092.67 11.568V11.248C1092.67 10.8 1092.77 10.48 1092.99 10.288C1093.21 10.0853 1093.53 9.984 1093.93 9.984H1095.26V11.744H1093.4V11.84C1093.89 12.0747 1094.26 12.4 1094.49 12.816C1094.73 13.2213 1094.84 13.696 1094.84 14.24C1094.84 15.0827 1094.54 15.76 1093.95 16.272C1093.36 16.7733 1092.46 17.024 1091.24 17.024C1090.7 17.024 1090.2 16.9653 1089.76 16.848C1089.51 17.008 1089.39 17.232 1089.39 17.52C1089.39 17.7227 1089.46 17.8827 1089.61 18C1089.77 18.1067 1090.03 18.16 1090.4 18.16H1092.83C1093.85 18.16 1094.59 18.3733 1095.05 18.8C1095.52 19.2267 1095.76 19.8293 1095.76 20.608ZM1093.53 20.928C1093.53 20.6827 1093.44 20.496 1093.24 20.368C1093.05 20.24 1092.72 20.176 1092.24 20.176H1089.36C1089.25 20.2827 1089.17 20.4 1089.12 20.528C1089.07 20.6667 1089.05 20.8 1089.05 20.928C1089.05 21.2373 1089.18 21.4613 1089.45 21.6C1089.72 21.7493 1090.17 21.824 1090.81 21.824H1091.77C1092.41 21.824 1092.86 21.7493 1093.13 21.6C1093.4 21.4613 1093.53 21.2373 1093.53 20.928ZM1091.24 15.472C1091.71 15.472 1092.06 15.376 1092.28 15.184C1092.52 14.9813 1092.64 14.6933 1092.64 14.32V14.128C1092.64 13.7547 1092.52 13.472 1092.28 13.28C1092.06 13.0773 1091.71 12.976 1091.24 12.976C1090.77 12.976 1090.42 13.0773 1090.19 13.28C1089.96 13.472 1089.85 13.7547 1089.85 14.128V14.32C1089.85 14.6933 1089.96 14.9813 1090.19 15.184C1090.42 15.376 1090.77 15.472 1091.24 15.472ZM1096.81 20V11.6H1099.18V13.424H1099.26C1099.3 13.1893 1099.37 12.9653 1099.48 12.752C1099.59 12.528 1099.72 12.3307 1099.9 12.16C1100.08 11.9893 1100.29 11.856 1100.54 11.76C1100.78 11.6533 1101.07 11.6 1101.4 11.6H1101.82V13.808H1101.22C1100.53 13.808 1100.01 13.8987 1099.67 14.08C1099.34 14.2613 1099.18 14.5973 1099.18 15.088V20H1096.81ZM1106.7 20.192C1106.06 20.192 1105.49 20.0907 1104.99 19.888C1104.49 19.6747 1104.06 19.3813 1103.71 19.008C1103.37 18.624 1103.11 18.16 1102.93 17.616C1102.76 17.072 1102.67 16.464 1102.67 15.792C1102.67 15.1307 1102.76 14.5333 1102.93 14C1103.1 13.456 1103.35 12.992 1103.68 12.608C1104.02 12.224 1104.44 11.9307 1104.93 11.728C1105.42 11.5147 1105.98 11.408 1106.61 11.408C1107.3 11.408 1107.89 11.5253 1108.38 11.76C1108.88 11.9947 1109.29 12.3093 1109.6 12.704C1109.92 13.0987 1110.15 13.5573 1110.29 14.08C1110.44 14.592 1110.51 15.1307 1110.51 15.696V16.4H1105.12V16.528C1105.12 17.0827 1105.27 17.5253 1105.57 17.856C1105.86 18.176 1106.33 18.336 1106.97 18.336C1107.46 18.336 1107.86 18.24 1108.17 18.048C1108.48 17.8453 1108.77 17.6053 1109.04 17.328L1110.22 18.8C1109.85 19.2373 1109.36 19.5787 1108.75 19.824C1108.15 20.0693 1107.47 20.192 1106.7 20.192ZM1106.65 13.152C1106.17 13.152 1105.8 13.312 1105.52 13.632C1105.25 13.9413 1105.12 14.3573 1105.12 14.88V15.008H1108.06V14.864C1108.06 14.352 1107.94 13.9413 1107.71 13.632C1107.49 13.312 1107.13 13.152 1106.65 13.152ZM1115.03 20.192C1114.22 20.192 1113.54 20.064 1112.98 19.808C1112.43 19.5413 1111.93 19.168 1111.49 18.688L1112.89 17.28C1113.18 17.6107 1113.52 17.872 1113.88 18.064C1114.24 18.256 1114.65 18.352 1115.11 18.352C1115.58 18.352 1115.9 18.2827 1116.09 18.144C1116.27 17.9947 1116.36 17.7973 1116.36 17.552C1116.36 17.1573 1116.08 16.9227 1115.51 16.848L1114.6 16.736C1112.71 16.5013 1111.77 15.6373 1111.77 14.144C1111.77 13.7387 1111.84 13.3707 1111.99 13.04C1112.15 12.6987 1112.37 12.4107 1112.65 12.176C1112.93 11.9307 1113.28 11.744 1113.67 11.616C1114.08 11.4773 1114.53 11.408 1115.03 11.408C1115.47 11.408 1115.85 11.44 1116.18 11.504C1116.52 11.5573 1116.82 11.6427 1117.08 11.76C1117.34 11.8667 1117.58 12.0053 1117.8 12.176C1118.02 12.336 1118.24 12.5173 1118.45 12.72L1117.09 14.112C1116.83 13.8453 1116.52 13.6373 1116.18 13.488C1115.85 13.328 1115.51 13.248 1115.16 13.248C1114.75 13.248 1114.46 13.312 1114.29 13.44C1114.12 13.568 1114.04 13.7387 1114.04 13.952C1114.04 14.176 1114.1 14.352 1114.21 14.48C1114.34 14.5973 1114.58 14.6827 1114.92 14.736L1115.86 14.864C1117.71 15.1093 1118.63 15.952 1118.63 17.392C1118.63 17.7973 1118.54 18.1707 1118.37 18.512C1118.2 18.8533 1117.96 19.152 1117.64 19.408C1117.33 19.6533 1116.95 19.8453 1116.5 19.984C1116.06 20.1227 1115.57 20.192 1115.03 20.192ZM1122.98 20.192C1122.17 20.192 1121.49 20.064 1120.94 19.808C1120.38 19.5413 1119.88 19.168 1119.45 18.688L1120.84 17.28C1121.14 17.6107 1121.47 17.872 1121.83 18.064C1122.19 18.256 1122.6 18.352 1123.06 18.352C1123.53 18.352 1123.86 18.2827 1124.04 18.144C1124.22 17.9947 1124.31 17.7973 1124.31 17.552C1124.31 17.1573 1124.03 16.9227 1123.46 16.848L1122.55 16.736C1120.66 16.5013 1119.72 15.6373 1119.72 14.144C1119.72 13.7387 1119.79 13.3707 1119.94 13.04C1120.1 12.6987 1120.32 12.4107 1120.6 12.176C1120.89 11.9307 1121.23 11.744 1121.62 11.616C1122.03 11.4773 1122.48 11.408 1122.98 11.408C1123.42 11.408 1123.8 11.44 1124.14 11.504C1124.48 11.5573 1124.78 11.6427 1125.03 11.76C1125.3 11.8667 1125.54 12.0053 1125.75 12.176C1125.98 12.336 1126.19 12.5173 1126.41 12.72L1125.05 14.112C1124.78 13.8453 1124.48 13.6373 1124.14 13.488C1123.8 13.328 1123.46 13.248 1123.11 13.248C1122.71 13.248 1122.42 13.312 1122.25 13.44C1122.08 13.568 1121.99 13.7387 1121.99 13.952C1121.99 14.176 1122.05 14.352 1122.17 14.48C1122.3 14.5973 1122.53 14.6827 1122.87 14.736L1123.82 14.864C1125.66 15.1093 1126.58 15.952 1126.58 17.392C1126.58 17.7973 1126.5 18.1707 1126.33 18.512C1126.16 18.8533 1125.91 19.152 1125.59 19.408C1125.28 19.6533 1124.9 19.8453 1124.46 19.984C1124.02 20.1227 1123.53 20.192 1122.98 20.192Z" fill="#0B0E29"/>
<line x1="1130" y1="1.57981e-08" x2="1130" y2="563" stroke="#EBEAE8"/>
<path d="M-9.5 115H1129.5" stroke="#EBEAE8"/>
<path d="M-9.5 193H1129.5" stroke="#EBEAE8"/>
<path d="M-9.5 270H1129.5" stroke="#EBEAE8"/>
<path d="M-9.5 349H1129.5" stroke="#EBEAE8"/>
<path d="M-9.5 427H1129.5" stroke="#EBEAE8"/>
<mask id="path-80-inside-1_7880_110321" fill="white">
<path d="M551.5 -2H617.5V563H551.5V-2Z"/>
</mask>
<path d="M551.5 -2H617.5V563H551.5V-2Z" fill="white"/>
<path d="M616.5 -2V563H618.5V-2H616.5ZM552.5 563V-2H550.5V563H552.5Z" fill="#EBEAE8" mask="url(#path-80-inside-1_7880_110321)"/>
<path d="M76.348 20.192C75.3667 20.192 74.5347 20.0267 73.852 19.696C73.1693 19.3547 72.588 18.9173 72.108 18.384L73.708 16.768C74.4653 17.6213 75.3987 18.048 76.508 18.048C77.1053 18.048 77.548 17.9253 77.836 17.68C78.124 17.4347 78.268 17.1093 78.268 16.704C78.268 16.3947 78.1827 16.1387 78.012 15.936C77.8413 15.7227 77.4947 15.5787 76.972 15.504L75.868 15.36C74.684 15.2107 73.8147 14.8533 73.26 14.288C72.716 13.7227 72.444 12.9707 72.444 12.032C72.444 11.5307 72.54 11.072 72.732 10.656C72.924 10.24 73.196 9.88267 73.548 9.584C73.9107 9.28533 74.348 9.056 74.86 8.896C75.3827 8.72533 75.9747 8.64 76.636 8.64C77.4787 8.64 78.22 8.77333 78.86 9.04C79.5 9.30667 80.0493 9.696 80.508 10.208L78.892 11.84C78.6253 11.5307 78.3 11.28 77.916 11.088C77.5427 10.8853 77.068 10.784 76.492 10.784C75.948 10.784 75.5427 10.88 75.276 11.072C75.0093 11.264 74.876 11.5307 74.876 11.872C74.876 12.256 74.9773 12.5333 75.18 12.704C75.3933 12.8747 75.7347 12.9973 76.204 13.072L77.308 13.248C78.46 13.4293 79.3133 13.7867 79.868 14.32C80.4227 14.8427 80.7 15.5893 80.7 16.56C80.7 17.0933 80.604 17.584 80.412 18.032C80.22 18.48 79.9373 18.864 79.564 19.184C79.2013 19.504 78.748 19.7547 78.204 19.936C77.66 20.1067 77.0413 20.192 76.348 20.192ZM85.4543 20C84.6329 20 84.0089 19.792 83.5823 19.376C83.1663 18.96 82.9583 18.352 82.9583 17.552V13.44H81.7743V11.6H82.3663C82.6863 11.6 82.9049 11.5253 83.0223 11.376C83.1396 11.216 83.1983 10.992 83.1983 10.704V9.328H85.3263V11.6H86.9903V13.44H85.3263V18.16H86.8623V20H85.4543ZM94.8433 20C94.4166 20 94.0593 19.8667 93.7713 19.6C93.4939 19.3333 93.3179 18.976 93.2433 18.528H93.1473C93.0193 19.072 92.7366 19.488 92.2993 19.776C91.8619 20.0533 91.3233 20.192 90.6833 20.192C89.8406 20.192 89.1953 19.968 88.7473 19.52C88.2993 19.072 88.0753 18.48 88.0753 17.744C88.0753 16.8587 88.3953 16.2027 89.0353 15.776C89.6859 15.3387 90.5659 15.12 91.6753 15.12H93.0033V14.592C93.0033 14.1867 92.8966 13.8667 92.6833 13.632C92.4699 13.3867 92.1126 13.264 91.6113 13.264C91.1419 13.264 90.7686 13.3653 90.4913 13.568C90.2139 13.7707 89.9846 14 89.8033 14.256L88.3953 13.008C88.7366 12.5067 89.1633 12.1173 89.6753 11.84C90.1979 11.552 90.9019 11.408 91.7873 11.408C92.9819 11.408 93.8779 11.6693 94.4753 12.192C95.0726 12.7147 95.3713 13.4773 95.3713 14.48V18.16H96.1553V20H94.8433ZM91.5633 18.544C91.9579 18.544 92.2939 18.4587 92.5713 18.288C92.8593 18.1173 93.0033 17.84 93.0033 17.456V16.464H91.8513C90.9233 16.464 90.4593 16.7787 90.4593 17.408V17.648C90.4593 17.9573 90.5553 18.1867 90.7473 18.336C90.9393 18.4747 91.2113 18.544 91.5633 18.544ZM97.7446 20V11.6H100.113V13.424H100.193C100.235 13.1893 100.31 12.9653 100.417 12.752C100.523 12.528 100.662 12.3307 100.833 12.16C101.014 11.9893 101.227 11.856 101.473 11.76C101.718 11.6533 102.006 11.6 102.337 11.6H102.753V13.808H102.161C101.467 13.808 100.95 13.8987 100.609 14.08C100.278 14.2613 100.113 14.5973 100.113 15.088V20H97.7446ZM107.22 20C106.399 20 105.775 19.792 105.348 19.376C104.932 18.96 104.724 18.352 104.724 17.552V13.44H103.54V11.6H104.132C104.452 11.6 104.671 11.5253 104.788 11.376C104.905 11.216 104.964 10.992 104.964 10.704V9.328H107.092V11.6H108.756V13.44H107.092V18.16H108.628V20H107.22Z" fill="#0B0E29"/>
</g>
<line x1="70" y1="2" x2="70" y2="427" stroke="#EBEAE8"/>
<rect width="69" height="428" transform="translate(0.5)" fill="white"/>
<path d="M6.21875 70.0156C6.21875 69.5521 6.09896 69.2031 5.85938 68.9688C5.625 68.7292 5.19531 68.4818 4.57031 68.2266C3.42969 67.7943 2.60938 67.2891 2.10938 66.7109C1.60938 66.1276 1.35938 65.4401 1.35938 64.6484C1.35938 63.6901 1.69792 62.9219 2.375 62.3438C3.05729 61.7604 3.92188 61.4688 4.96875 61.4688C5.66667 61.4688 6.28906 61.6172 6.83594 61.9141C7.38281 62.2057 7.80208 62.6198 8.09375 63.1562C8.39062 63.6927 8.53906 64.3021 8.53906 64.9844H6.25C6.25 64.4531 6.13542 64.0495 5.90625 63.7734C5.68229 63.4922 5.35677 63.3516 4.92969 63.3516C4.52865 63.3516 4.21615 63.4714 3.99219 63.7109C3.76823 63.9453 3.65625 64.263 3.65625 64.6641C3.65625 64.9766 3.78125 65.2604 4.03125 65.5156C4.28125 65.7656 4.72396 66.026 5.35938 66.2969C6.46875 66.6979 7.27344 67.1901 7.77344 67.7734C8.27865 68.3568 8.53125 69.099 8.53125 70C8.53125 70.9896 8.21615 71.763 7.58594 72.3203C6.95573 72.8776 6.09896 73.1562 5.01562 73.1562C4.28125 73.1562 3.61198 73.0052 3.00781 72.7031C2.40365 72.401 1.92969 71.9688 1.58594 71.4062C1.2474 70.8438 1.07812 70.1797 1.07812 69.4141H3.38281C3.38281 70.0703 3.51042 70.5469 3.76562 70.8438C4.02083 71.1406 4.4375 71.2891 5.01562 71.2891C5.81771 71.2891 6.21875 70.8646 6.21875 70.0156ZM12.3516 69V73H10.0547V61.625H13.9297C15.0547 61.625 15.9505 61.974 16.6172 62.6719C17.2891 63.3698 17.625 64.276 17.625 65.3906C17.625 66.5052 17.2943 67.3854 16.6328 68.0312C15.9714 68.6771 15.0547 69 13.8828 69H12.3516ZM12.3516 67.0859H13.9297C14.3672 67.0859 14.7057 66.9427 14.9453 66.6562C15.1849 66.3698 15.3047 65.9531 15.3047 65.4062C15.3047 64.8385 15.1823 64.388 14.9375 64.0547C14.6927 63.7161 14.3646 63.5443 13.9531 63.5391H12.3516V67.0859ZM22.6094 68.8438H21.4688V73H19.1719V61.625H22.8359C23.987 61.625 24.875 61.9245 25.5 62.5234C26.1302 63.1172 26.4453 63.9635 26.4453 65.0625C26.4453 66.5729 25.8958 67.6302 24.7969 68.2344L26.7891 72.8906V73H24.3203L22.6094 68.8438ZM21.4688 66.9297H22.7734C23.2318 66.9297 23.5755 66.7786 23.8047 66.4766C24.0339 66.1693 24.1484 65.7604 24.1484 65.25C24.1484 64.1094 23.7031 63.5391 22.8125 63.5391H21.4688V66.9297ZM30.4219 73H28.125V61.625H30.4219V73ZM40.3047 73H38.0078L34.6484 65.5391V73H32.3516V61.625H34.6484L38.0156 69.0938V61.625H40.3047V73ZM49.2812 63.5391H46.4688V73H44.1641V63.5391H41.3984V61.625H49.2812V63.5391ZM58.5156 73H56.2969V64.3125L54.1328 65.1484V63.3047L58.2812 61.6094H58.5156V73Z" fill="#0B0E29"/>
<path d="M6.21875 148.016C6.21875 147.552 6.09896 147.203 5.85938 146.969C5.625 146.729 5.19531 146.482 4.57031 146.227C3.42969 145.794 2.60938 145.289 2.10938 144.711C1.60938 144.128 1.35938 143.44 1.35938 142.648C1.35938 141.69 1.69792 140.922 2.375 140.344C3.05729 139.76 3.92188 139.469 4.96875 139.469C5.66667 139.469 6.28906 139.617 6.83594 139.914C7.38281 140.206 7.80208 140.62 8.09375 141.156C8.39062 141.693 8.53906 142.302 8.53906 142.984H6.25C6.25 142.453 6.13542 142.049 5.90625 141.773C5.68229 141.492 5.35677 141.352 4.92969 141.352C4.52865 141.352 4.21615 141.471 3.99219 141.711C3.76823 141.945 3.65625 142.263 3.65625 142.664C3.65625 142.977 3.78125 143.26 4.03125 143.516C4.28125 143.766 4.72396 144.026 5.35938 144.297C6.46875 144.698 7.27344 145.19 7.77344 145.773C8.27865 146.357 8.53125 147.099 8.53125 148C8.53125 148.99 8.21615 149.763 7.58594 150.32C6.95573 150.878 6.09896 151.156 5.01562 151.156C4.28125 151.156 3.61198 151.005 3.00781 150.703C2.40365 150.401 1.92969 149.969 1.58594 149.406C1.2474 148.844 1.07812 148.18 1.07812 147.414H3.38281C3.38281 148.07 3.51042 148.547 3.76562 148.844C4.02083 149.141 4.4375 149.289 5.01562 149.289C5.81771 149.289 6.21875 148.865 6.21875 148.016ZM12.3516 147V151H10.0547V139.625H13.9297C15.0547 139.625 15.9505 139.974 16.6172 140.672C17.2891 141.37 17.625 142.276 17.625 143.391C17.625 144.505 17.2943 145.385 16.6328 146.031C15.9714 146.677 15.0547 147 13.8828 147H12.3516ZM12.3516 145.086H13.9297C14.3672 145.086 14.7057 144.943 14.9453 144.656C15.1849 144.37 15.3047 143.953 15.3047 143.406C15.3047 142.839 15.1823 142.388 14.9375 142.055C14.6927 141.716 14.3646 141.544 13.9531 141.539H12.3516V145.086ZM22.6094 146.844H21.4688V151H19.1719V139.625H22.8359C23.987 139.625 24.875 139.924 25.5 140.523C26.1302 141.117 26.4453 141.964 26.4453 143.062C26.4453 144.573 25.8958 145.63 24.7969 146.234L26.7891 150.891V151H24.3203L22.6094 146.844ZM21.4688 144.93H22.7734C23.2318 144.93 23.5755 144.779 23.8047 144.477C24.0339 144.169 24.1484 143.76 24.1484 143.25C24.1484 142.109 23.7031 141.539 22.8125 141.539H21.4688V144.93ZM30.4219 151H28.125V139.625H30.4219V151ZM40.3047 151H38.0078L34.6484 143.539V151H32.3516V139.625H34.6484L38.0156 147.094V139.625H40.3047V151ZM49.2812 141.539H46.4688V151H44.1641V141.539H41.3984V139.625H49.2812V141.539ZM60.3516 151H53.6484V149.438L56.7266 145.523C57.1172 144.982 57.4036 144.508 57.5859 144.102C57.7734 143.69 57.8672 143.297 57.8672 142.922C57.8672 142.417 57.7786 142.021 57.6016 141.734C57.4297 141.448 57.1797 141.305 56.8516 141.305C56.4922 141.305 56.2057 141.471 55.9922 141.805C55.7839 142.138 55.6797 142.607 55.6797 143.211H53.4609C53.4609 142.513 53.6042 141.875 53.8906 141.297C54.1823 140.719 54.5885 140.271 55.1094 139.953C55.6354 139.63 56.2292 139.469 56.8906 139.469C57.9062 139.469 58.6927 139.75 59.25 140.312C59.8125 140.87 60.0938 141.664 60.0938 142.695C60.0938 143.336 59.9375 143.987 59.625 144.648C59.3177 145.305 58.7578 146.115 57.9453 147.078L56.4844 149.164H60.3516V151Z" fill="#0B0E29"/>
<path d="M6.21875 226.016C6.21875 225.552 6.09896 225.203 5.85938 224.969C5.625 224.729 5.19531 224.482 4.57031 224.227C3.42969 223.794 2.60938 223.289 2.10938 222.711C1.60938 222.128 1.35938 221.44 1.35938 220.648C1.35938 219.69 1.69792 218.922 2.375 218.344C3.05729 217.76 3.92188 217.469 4.96875 217.469C5.66667 217.469 6.28906 217.617 6.83594 217.914C7.38281 218.206 7.80208 218.62 8.09375 219.156C8.39062 219.693 8.53906 220.302 8.53906 220.984H6.25C6.25 220.453 6.13542 220.049 5.90625 219.773C5.68229 219.492 5.35677 219.352 4.92969 219.352C4.52865 219.352 4.21615 219.471 3.99219 219.711C3.76823 219.945 3.65625 220.263 3.65625 220.664C3.65625 220.977 3.78125 221.26 4.03125 221.516C4.28125 221.766 4.72396 222.026 5.35938 222.297C6.46875 222.698 7.27344 223.19 7.77344 223.773C8.27865 224.357 8.53125 225.099 8.53125 226C8.53125 226.99 8.21615 227.763 7.58594 228.32C6.95573 228.878 6.09896 229.156 5.01562 229.156C4.28125 229.156 3.61198 229.005 3.00781 228.703C2.40365 228.401 1.92969 227.969 1.58594 227.406C1.2474 226.844 1.07812 226.18 1.07812 225.414H3.38281C3.38281 226.07 3.51042 226.547 3.76562 226.844C4.02083 227.141 4.4375 227.289 5.01562 227.289C5.81771 227.289 6.21875 226.865 6.21875 226.016ZM12.3516 225V229H10.0547V217.625H13.9297C15.0547 217.625 15.9505 217.974 16.6172 218.672C17.2891 219.37 17.625 220.276 17.625 221.391C17.625 222.505 17.2943 223.385 16.6328 224.031C15.9714 224.677 15.0547 225 13.8828 225H12.3516ZM12.3516 223.086H13.9297C14.3672 223.086 14.7057 222.943 14.9453 222.656C15.1849 222.37 15.3047 221.953 15.3047 221.406C15.3047 220.839 15.1823 220.388 14.9375 220.055C14.6927 219.716 14.3646 219.544 13.9531 219.539H12.3516V223.086ZM22.6094 224.844H21.4688V229H19.1719V217.625H22.8359C23.987 217.625 24.875 217.924 25.5 218.523C26.1302 219.117 26.4453 219.964 26.4453 221.062C26.4453 222.573 25.8958 223.63 24.7969 224.234L26.7891 228.891V229H24.3203L22.6094 224.844ZM21.4688 222.93H22.7734C23.2318 222.93 23.5755 222.779 23.8047 222.477C24.0339 222.169 24.1484 221.76 24.1484 221.25C24.1484 220.109 23.7031 219.539 22.8125 219.539H21.4688V222.93ZM30.4219 229H28.125V217.625H30.4219V229ZM40.3047 229H38.0078L34.6484 221.539V229H32.3516V217.625H34.6484L38.0156 225.094V217.625H40.3047V229ZM49.2812 219.539H46.4688V229H44.1641V219.539H41.3984V217.625H49.2812V219.539ZM55.6172 222.305H56.6875C57.0938 222.305 57.3906 222.164 57.5781 221.883C57.7708 221.596 57.8672 221.216 57.8672 220.742C57.8672 220.289 57.7682 219.938 57.5703 219.688C57.3776 219.432 57.1172 219.305 56.7891 219.305C56.4818 219.305 56.2292 219.424 56.0312 219.664C55.8385 219.904 55.7422 220.206 55.7422 220.57H53.5312C53.5312 219.977 53.6667 219.445 53.9375 218.977C54.2135 218.503 54.5964 218.133 55.0859 217.867C55.5807 217.602 56.1276 217.469 56.7266 217.469C57.7734 217.469 58.5938 217.758 59.1875 218.336C59.7812 218.914 60.0781 219.706 60.0781 220.711C60.0781 221.227 59.9427 221.706 59.6719 222.148C59.4062 222.586 59.0547 222.922 58.6172 223.156C59.1536 223.385 59.5521 223.729 59.8125 224.188C60.0781 224.646 60.2109 225.188 60.2109 225.812C60.2109 226.823 59.888 227.633 59.2422 228.242C58.6016 228.852 57.7578 229.156 56.7109 229.156C55.737 229.156 54.9453 228.857 54.3359 228.258C53.7318 227.654 53.4297 226.862 53.4297 225.883H55.6406C55.6406 226.289 55.7474 226.63 55.9609 226.906C56.1745 227.182 56.4453 227.32 56.7734 227.32C57.1536 227.32 57.4531 227.18 57.6719 226.898C57.8958 226.617 58.0078 226.242 58.0078 225.773C58.0078 224.654 57.5729 224.091 56.7031 224.086H55.6172V222.305Z" fill="#0B0E29"/>
<path d="M28.9844 276.312C28.9844 275.781 29.1602 275.344 29.5117 275C29.8711 274.656 30.3359 274.484 30.9062 274.484C31.4609 274.484 31.9219 274.656 32.2891 275C32.6562 275.336 32.8398 275.773 32.8398 276.312C32.8398 276.859 32.6523 277.301 32.2773 277.637C31.9102 277.965 31.4531 278.129 30.9062 278.129C30.3516 278.129 29.8906 277.961 29.5234 277.625C29.1641 277.289 28.9844 276.852 28.9844 276.312ZM28.9844 308.312C28.9844 307.781 29.1602 307.344 29.5117 307C29.8711 306.656 30.3359 306.484 30.9062 306.484C31.4609 306.484 31.9219 306.656 32.2891 307C32.6562 307.336 32.8398 307.773 32.8398 308.312C32.8398 308.859 32.6523 309.301 32.2773 309.637C31.9102 309.965 31.4531 310.129 30.9062 310.129C30.3516 310.129 29.8906 309.961 29.5234 309.625C29.1641 309.289 28.9844 308.852 28.9844 308.312ZM28.9844 340.312C28.9844 339.781 29.1602 339.344 29.5117 339C29.8711 338.656 30.3359 338.484 30.9062 338.484C31.4609 338.484 31.9219 338.656 32.2891 339C32.6562 339.336 32.8398 339.773 32.8398 340.312C32.8398 340.859 32.6523 341.301 32.2773 341.637C31.9102 341.965 31.4531 342.129 30.9062 342.129C30.3516 342.129 29.8906 341.961 29.5234 341.625C29.1641 341.289 28.9844 340.852 28.9844 340.312Z" fill="#0B0E29"/>
<path d="M9.125 381.211C9.06771 382.508 8.70312 383.49 8.03125 384.156C7.35938 384.823 6.41146 385.156 5.1875 385.156C3.90104 385.156 2.91406 384.734 2.22656 383.891C1.54427 383.042 1.20312 381.833 1.20312 380.266V378.352C1.20312 376.789 1.55729 375.586 2.26562 374.742C2.97396 373.893 3.95833 373.469 5.21875 373.469C6.45833 373.469 7.39844 373.815 8.03906 374.508C8.6849 375.201 9.05208 376.195 9.14062 377.492H6.83594C6.8151 376.69 6.6901 376.138 6.46094 375.836C6.23698 375.529 5.82292 375.375 5.21875 375.375C4.60417 375.375 4.16927 375.591 3.91406 376.023C3.65885 376.451 3.52344 377.156 3.50781 378.141V380.289C3.50781 381.419 3.63281 382.195 3.88281 382.617C4.13802 383.039 4.57292 383.25 5.1875 383.25C5.79167 383.25 6.20833 383.104 6.4375 382.812C6.66667 382.516 6.79688 381.982 6.82812 381.211H9.125ZM17.9375 373.625V381.5C17.9271 382.682 17.6016 383.589 16.9609 384.219C16.3203 384.844 15.401 385.156 14.2031 385.156C12.9844 385.156 12.0521 384.839 11.4062 384.203C10.7656 383.568 10.4453 382.648 10.4453 381.445V373.625H12.7578V381.453C12.7578 382.099 12.862 382.56 13.0703 382.836C13.2786 383.112 13.6562 383.25 14.2031 383.25C14.75 383.25 15.125 383.115 15.3281 382.844C15.5312 382.568 15.6354 382.117 15.6406 381.492V373.625H17.9375ZM23.125 380.844H21.9844V385H19.6875V373.625H23.3516C24.5026 373.625 25.3906 373.924 26.0156 374.523C26.6458 375.117 26.9609 375.964 26.9609 377.062C26.9609 378.573 26.4115 379.63 25.3125 380.234L27.3047 384.891V385H24.8359L23.125 380.844ZM21.9844 378.93H23.2891C23.7474 378.93 24.0911 378.779 24.3203 378.477C24.5495 378.169 24.6641 377.76 24.6641 377.25C24.6641 376.109 24.2188 375.539 23.3281 375.539H21.9844V378.93ZM31.9844 380.844H30.8438V385H28.5469V373.625H32.2109C33.362 373.625 34.25 373.924 34.875 374.523C35.5052 375.117 35.8203 375.964 35.8203 377.062C35.8203 378.573 35.2708 379.63 34.1719 380.234L36.1641 384.891V385H33.6953L31.9844 380.844ZM30.8438 378.93H32.1484C32.6068 378.93 32.9505 378.779 33.1797 378.477C33.4089 378.169 33.5234 377.76 33.5234 377.25C33.5234 376.109 33.0781 375.539 32.1875 375.539H30.8438V378.93ZM43.2734 380.078H39.6953V383.094H43.9297V385H37.3984V373.625H43.9141V375.539H39.6953V378.227H43.2734V380.078ZM53.2109 385H50.9141L47.5547 377.539V385H45.2578V373.625H47.5547L50.9219 381.094V373.625H53.2109V385ZM62.1875 375.539H59.375V385H57.0703V375.539H54.3047V373.625H62.1875V375.539ZM6.21875 406.016C6.21875 405.552 6.09896 405.203 5.85938 404.969C5.625 404.729 5.19531 404.482 4.57031 404.227C3.42969 403.794 2.60938 403.289 2.10938 402.711C1.60938 402.128 1.35938 401.44 1.35938 400.648C1.35938 399.69 1.69792 398.922 2.375 398.344C3.05729 397.76 3.92188 397.469 4.96875 397.469C5.66667 397.469 6.28906 397.617 6.83594 397.914C7.38281 398.206 7.80208 398.62 8.09375 399.156C8.39062 399.693 8.53906 400.302 8.53906 400.984H6.25C6.25 400.453 6.13542 400.049 5.90625 399.773C5.68229 399.492 5.35677 399.352 4.92969 399.352C4.52865 399.352 4.21615 399.471 3.99219 399.711C3.76823 399.945 3.65625 400.263 3.65625 400.664C3.65625 400.977 3.78125 401.26 4.03125 401.516C4.28125 401.766 4.72396 402.026 5.35938 402.297C6.46875 402.698 7.27344 403.19 7.77344 403.773C8.27865 404.357 8.53125 405.099 8.53125 406C8.53125 406.99 8.21615 407.763 7.58594 408.32C6.95573 408.878 6.09896 409.156 5.01562 409.156C4.28125 409.156 3.61198 409.005 3.00781 408.703C2.40365 408.401 1.92969 407.969 1.58594 407.406C1.2474 406.844 1.07812 406.18 1.07812 405.414H3.38281C3.38281 406.07 3.51042 406.547 3.76562 406.844C4.02083 407.141 4.4375 407.289 5.01562 407.289C5.81771 407.289 6.21875 406.865 6.21875 406.016ZM12.3516 405V409H10.0547V397.625H13.9297C15.0547 397.625 15.9505 397.974 16.6172 398.672C17.2891 399.37 17.625 400.276 17.625 401.391C17.625 402.505 17.2943 403.385 16.6328 404.031C15.9714 404.677 15.0547 405 13.8828 405H12.3516ZM12.3516 403.086H13.9297C14.3672 403.086 14.7057 402.943 14.9453 402.656C15.1849 402.37 15.3047 401.953 15.3047 401.406C15.3047 400.839 15.1823 400.388 14.9375 400.055C14.6927 399.716 14.3646 399.544 13.9531 399.539H12.3516V403.086ZM22.6094 404.844H21.4688V409H19.1719V397.625H22.8359C23.987 397.625 24.875 397.924 25.5 398.523C26.1302 399.117 26.4453 399.964 26.4453 401.062C26.4453 402.573 25.8958 403.63 24.7969 404.234L26.7891 408.891V409H24.3203L22.6094 404.844ZM21.4688 402.93H22.7734C23.2318 402.93 23.5755 402.779 23.8047 402.477C24.0339 402.169 24.1484 401.76 24.1484 401.25C24.1484 400.109 23.7031 399.539 22.8125 399.539H21.4688V402.93ZM30.4219 409H28.125V397.625H30.4219V409ZM40.3047 409H38.0078L34.6484 401.539V409H32.3516V397.625H34.6484L38.0156 405.094V397.625H40.3047V409ZM49.2812 399.539H46.4688V409H44.1641V399.539H41.3984V397.625H49.2812V399.539Z" fill="#0B0E29"/>
</g>
<defs>
<clipPath id="clip0_7880_110321">
<rect width="1135" height="428" fill="white" transform="translate(0.5)"/>
</clipPath>
<clipPath id="clip1_7880_110321">
<rect width="1135" height="428" fill="white" transform="translate(0.5)"/>
</clipPath>
</defs>
</svg>
