<svg width="136" height="136" viewBox="0 0 136 136" fill="none" xmlns="http://www.w3.org/2000/svg">
<rect width="136" height="136" rx="68" fill="#00D0F6"/>
<circle cx="68" cy="68" r="68" fill="#00D0F6"/>
<path d="M53.7031 60.6719H50.5703L49.9609 63H47.5312L51.0859 51.625H53.1875L56.7656 63H54.3125L53.7031 60.6719ZM51.0703 58.7578H53.1953L52.1328 54.7031L51.0703 58.7578ZM65.3984 61.7109C64.9557 62.1901 64.4115 62.5521 63.7656 62.7969C63.125 63.0365 62.4219 63.1562 61.6562 63.1562C60.349 63.1562 59.3333 62.7526 58.6094 61.9453C57.8854 61.1328 57.513 59.9531 57.4922 58.4062V56.3594C57.4922 54.7917 57.8333 53.5859 58.5156 52.7422C59.2031 51.8932 60.2031 51.4688 61.5156 51.4688C62.75 51.4688 63.6797 51.7734 64.3047 52.3828C64.9349 52.9922 65.2995 53.9479 65.3984 55.25H63.1641C63.1016 54.526 62.9505 54.0339 62.7109 53.7734C62.4714 53.5078 62.0964 53.375 61.5859 53.375C60.9661 53.375 60.5156 53.6016 60.2344 54.0547C59.9531 54.5078 59.8073 55.2292 59.7969 56.2188V58.2812C59.7969 59.3177 59.9505 60.0729 60.2578 60.5469C60.5703 61.0156 61.0807 61.25 61.7891 61.25C62.2422 61.25 62.6094 61.1589 62.8906 60.9766L63.0938 60.8359V58.75H61.4844V57.0156H65.3984V61.7109ZM69.4219 63H67.125V51.625H69.4219V63ZM73.6484 61.0938H77.6797V63H71.3516V51.625H73.6484V61.0938ZM84.8828 58.0781H81.3047V61.0938H85.5391V63H79.0078V51.625H85.5234V53.5391H81.3047V56.2266H84.8828V58.0781ZM23.1328 71.625L25.2812 79.8516L27.4219 71.625H30.4219V83H28.1172V79.9219L28.3281 75.1797L26.0547 83H24.4922L22.2188 75.1797L22.4297 79.9219V83H20.1328V71.625H23.1328ZM37.8438 80.6719H34.7109L34.1016 83H31.6719L35.2266 71.625H37.3281L40.9062 83H38.4531L37.8438 80.6719ZM35.2109 78.7578H37.3359L36.2734 74.7031L35.2109 78.7578ZM44.375 83H42.0781V71.625H44.375V83ZM54.2578 83H51.9609L48.6016 75.5391V83H46.3047V71.625H48.6016L51.9688 79.0938V71.625H54.2578V83ZM63.2344 73.5391H60.4219V83H58.1172V73.5391H55.3516V71.625H63.2344V73.5391ZM70.4297 78.0781H66.8516V81.0938H71.0859V83H64.5547V71.625H71.0703V73.5391H66.8516V76.2266H70.4297V78.0781ZM80.3672 83H78.0703L74.7109 75.5391V83H72.4141V71.625H74.7109L78.0781 79.0938V71.625H80.3672V83ZM87.7812 80.6719H84.6484L84.0391 83H81.6094L85.1641 71.625H87.2656L90.8438 83H88.3906L87.7812 80.6719ZM85.1484 78.7578H87.2734L86.2109 74.7031L85.1484 78.7578ZM99.8672 83H97.5703L94.2109 75.5391V83H91.9141V71.625H94.2109L97.5781 79.0938V71.625H99.8672V83ZM109.422 79.2109C109.365 80.5078 109 81.4896 108.328 82.1562C107.656 82.8229 106.708 83.1562 105.484 83.1562C104.198 83.1562 103.211 82.7344 102.523 81.8906C101.841 81.0417 101.5 79.8333 101.5 78.2656V76.3516C101.5 74.7891 101.854 73.5859 102.562 72.7422C103.271 71.8932 104.255 71.4688 105.516 71.4688C106.755 71.4688 107.695 71.8151 108.336 72.5078C108.982 73.2005 109.349 74.1953 109.438 75.4922H107.133C107.112 74.6901 106.987 74.138 106.758 73.8359C106.534 73.5286 106.12 73.375 105.516 73.375C104.901 73.375 104.466 73.5911 104.211 74.0234C103.956 74.4505 103.82 75.1562 103.805 76.1406V78.2891C103.805 79.4193 103.93 80.1953 104.18 80.6172C104.435 81.0391 104.87 81.25 105.484 81.25C106.089 81.25 106.505 81.1042 106.734 80.8125C106.964 80.5156 107.094 79.9818 107.125 79.2109H109.422ZM116.711 78.0781H113.133V81.0938H117.367V83H110.836V71.625H117.352V73.5391H113.133V76.2266H116.711V78.0781Z" fill="#0B0E29"/>
</svg>
