<svg width="73" height="73" viewBox="0 0 73 73" fill="none" xmlns="http://www.w3.org/2000/svg">
<rect width="73" height="73" rx="36.5" fill="#73909E"/>
<circle cx="36.5" cy="36.5" r="36.5" fill="#73909E"/>
<path d="M28.5918 29.1582C28.5488 30.1309 28.2754 30.8672 27.7715 31.3672C27.2676 31.8672 26.5566 32.1172 25.6387 32.1172C24.6738 32.1172 23.9336 31.8008 23.418 31.168C22.9062 30.5312 22.6504 29.625 22.6504 28.4492V27.0137C22.6504 25.8418 22.916 24.9395 23.4473 24.3066C23.9785 23.6699 24.7168 23.3516 25.6621 23.3516C26.5918 23.3516 27.2969 23.6113 27.7773 24.1309C28.2617 24.6504 28.5371 25.3965 28.6035 26.3691H26.875C26.8594 25.7676 26.7656 25.3535 26.5938 25.127C26.4258 24.8965 26.1152 24.7812 25.6621 24.7812C25.2012 24.7812 24.875 24.9434 24.6836 25.2676C24.4922 25.5879 24.3906 26.1172 24.3789 26.8555V28.4668C24.3789 29.3145 24.4727 29.8965 24.6602 30.2129C24.8516 30.5293 25.1777 30.6875 25.6387 30.6875C26.0918 30.6875 26.4043 30.5781 26.5762 30.3594C26.748 30.1367 26.8457 29.7363 26.8691 29.1582H28.5918ZM35.6582 28.502C35.6582 29.6465 35.3867 30.5352 34.8438 31.168C34.3047 31.8008 33.5547 32.1172 32.5938 32.1172C31.6367 32.1172 30.8848 31.8047 30.3379 31.1797C29.791 30.5508 29.5137 29.6719 29.5059 28.543V27.084C29.5059 25.9121 29.7773 24.998 30.3203 24.3418C30.8633 23.6816 31.6172 23.3516 32.582 23.3516C33.5312 23.3516 34.2793 23.6758 34.8262 24.3242C35.373 24.9688 35.6504 25.875 35.6582 27.043V28.502ZM33.9297 27.0723C33.9297 26.3027 33.8203 25.7305 33.6016 25.3555C33.3828 24.9805 33.043 24.793 32.582 24.793C32.125 24.793 31.7871 24.9746 31.5684 25.3379C31.3496 25.6973 31.2363 26.2461 31.2285 26.9844V28.502C31.2285 29.248 31.3398 29.7988 31.5625 30.1543C31.7852 30.5059 32.1289 30.6816 32.5938 30.6816C33.043 30.6816 33.377 30.5098 33.5957 30.166C33.8145 29.8184 33.9258 29.2812 33.9297 28.5547V27.0723ZM42.8594 32H41.1367L38.6172 26.4043V32H36.8945V23.4688H38.6172L41.1426 29.0703V23.4688H42.8594V32ZM49.5918 24.9043H47.4824V32H45.7539V24.9043H43.6797V23.4688H49.5918V24.9043ZM49.123 31.1562C49.123 30.8906 49.2109 30.6719 49.3867 30.5C49.5664 30.3281 49.7988 30.2422 50.084 30.2422C50.3613 30.2422 50.5918 30.3281 50.7754 30.5C50.959 30.668 51.0508 30.8867 51.0508 31.1562C51.0508 31.4297 50.957 31.6504 50.7695 31.8184C50.5859 31.9824 50.3574 32.0645 50.084 32.0645C49.8066 32.0645 49.5762 31.9805 49.3926 31.8125C49.2129 31.6445 49.123 31.4258 49.123 31.1562ZM17.7344 45.7617C17.7344 45.4141 17.6445 45.1523 17.4648 44.9766C17.2891 44.7969 16.9668 44.6113 16.498 44.4199C15.6426 44.0957 15.0273 43.7168 14.6523 43.2832C14.2773 42.8457 14.0898 42.3301 14.0898 41.7363C14.0898 41.0176 14.3438 40.4414 14.8516 40.0078C15.3633 39.5703 16.0117 39.3516 16.7969 39.3516C17.3203 39.3516 17.7871 39.4629 18.1973 39.6855C18.6074 39.9043 18.9219 40.2148 19.1406 40.6172C19.3633 41.0195 19.4746 41.4766 19.4746 41.9883H17.7578C17.7578 41.5898 17.6719 41.2871 17.5 41.0801C17.332 40.8691 17.0879 40.7637 16.7676 40.7637C16.4668 40.7637 16.2324 40.8535 16.0645 41.0332C15.8965 41.209 15.8125 41.4473 15.8125 41.748C15.8125 41.9824 15.9062 42.1953 16.0938 42.3867C16.2812 42.5742 16.6133 42.7695 17.0898 42.9727C17.9219 43.2734 18.5254 43.6426 18.9004 44.0801C19.2793 44.5176 19.4688 45.0742 19.4688 45.75C19.4688 46.4922 19.2324 47.0723 18.7598 47.4902C18.2871 47.9082 17.6445 48.1172 16.832 48.1172C16.2812 48.1172 15.7793 48.0039 15.3262 47.7773C14.873 47.5508 14.5176 47.2266 14.2598 46.8047C14.0059 46.3828 13.8789 45.8848 13.8789 45.3105H15.6074C15.6074 45.8027 15.7031 46.1602 15.8945 46.3828C16.0859 46.6055 16.3984 46.7168 16.832 46.7168C17.4336 46.7168 17.7344 46.3984 17.7344 45.7617ZM26.1602 39.4688V45.375C26.1523 46.2617 25.9082 46.9414 25.4277 47.4141C24.9473 47.8828 24.2578 48.1172 23.3594 48.1172C22.4453 48.1172 21.7461 47.8789 21.2617 47.4023C20.7812 46.9258 20.541 46.2363 20.541 45.334V39.4688H22.2754V45.3398C22.2754 45.8242 22.3535 46.1699 22.5098 46.377C22.666 46.584 22.9492 46.6875 23.3594 46.6875C23.7695 46.6875 24.0508 46.5859 24.2031 46.3828C24.3555 46.1758 24.4336 45.8379 24.4375 45.3691V39.4688H26.1602ZM29.1895 45V48H27.4668V39.4688H30.373C31.2168 39.4688 31.8887 39.7305 32.3887 40.2539C32.8926 40.7773 33.1445 41.457 33.1445 42.293C33.1445 43.1289 32.8965 43.7891 32.4004 44.2734C31.9043 44.7578 31.2168 45 30.3379 45H29.1895ZM29.1895 43.5645H30.373C30.7012 43.5645 30.9551 43.457 31.1348 43.2422C31.3145 43.0273 31.4043 42.7148 31.4043 42.3047C31.4043 41.8789 31.3125 41.541 31.1289 41.291C30.9453 41.0371 30.6992 40.9082 30.3906 40.9043H29.1895V43.5645ZM36.0215 45V48H34.2988V39.4688H37.2051C38.0488 39.4688 38.7207 39.7305 39.2207 40.2539C39.7246 40.7773 39.9766 41.457 39.9766 42.293C39.9766 43.1289 39.7285 43.7891 39.2324 44.2734C38.7363 44.7578 38.0488 45 37.1699 45H36.0215ZM36.0215 43.5645H37.2051C37.5332 43.5645 37.7871 43.457 37.9668 43.2422C38.1465 43.0273 38.2363 42.7148 38.2363 42.3047C38.2363 41.8789 38.1445 41.541 37.9609 41.291C37.7773 41.0371 37.5312 40.9082 37.2227 40.9043H36.0215V43.5645ZM47.1367 44.502C47.1367 45.6465 46.8652 46.5352 46.3223 47.168C45.7832 47.8008 45.0332 48.1172 44.0723 48.1172C43.1152 48.1172 42.3633 47.8047 41.8164 47.1797C41.2695 46.5508 40.9922 45.6719 40.9844 44.543V43.084C40.9844 41.9121 41.2559 40.998 41.7988 40.3418C42.3418 39.6816 43.0957 39.3516 44.0605 39.3516C45.0098 39.3516 45.7578 39.6758 46.3047 40.3242C46.8516 40.9688 47.1289 41.875 47.1367 43.043V44.502ZM45.4082 43.0723C45.4082 42.3027 45.2988 41.7305 45.0801 41.3555C44.8613 40.9805 44.5215 40.793 44.0605 40.793C43.6035 40.793 43.2656 40.9746 43.0469 41.3379C42.8281 41.6973 42.7148 42.2461 42.707 42.9844V44.502C42.707 45.248 42.8184 45.7988 43.041 46.1543C43.2637 46.5059 43.6074 46.6816 44.0723 46.6816C44.5215 46.6816 44.8555 46.5098 45.0742 46.166C45.293 45.8184 45.4043 45.2812 45.4082 44.5547V43.0723ZM50.957 44.8828H50.1016V48H48.3789V39.4688H51.127C51.9902 39.4688 52.6562 39.6934 53.125 40.1426C53.5977 40.5879 53.834 41.2227 53.834 42.0469C53.834 43.1797 53.4219 43.9727 52.5977 44.4258L54.0918 47.918V48H52.2402L50.957 44.8828ZM50.1016 43.4473H51.0801C51.4238 43.4473 51.6816 43.334 51.8535 43.1074C52.0254 42.877 52.1113 42.5703 52.1113 42.1875C52.1113 41.332 51.7773 40.9043 51.1094 40.9043H50.1016V43.4473ZM60.25 40.9043H58.1406V48H56.4121V40.9043H54.3379V39.4688H60.25V40.9043Z" fill="white"/>
</svg>
