<svg width="118" height="118" viewBox="0 0 118 118" fill="none" xmlns="http://www.w3.org/2000/svg">
<rect width="118" height="118" rx="59" fill="#0B0E29"/>
<circle cx="59" cy="59" r="54" fill="#0B0E29"/>
<path d="M22.9609 64V52.625H25.9688C27.2969 52.625 28.3542 53.0469 29.1406 53.8906C29.9323 54.7344 30.3359 55.8906 30.3516 57.3594V59.2031C30.3516 60.6979 29.9557 61.8724 29.1641 62.7266C28.3776 63.5755 27.2917 64 25.9062 64H22.9609ZM25.2578 54.5391V62.0938H25.9453C26.7109 62.0938 27.25 61.8932 27.5625 61.4922C27.875 61.0859 28.0391 60.388 28.0547 59.3984V57.4219C28.0547 56.3594 27.9062 55.6198 27.6094 55.2031C27.3125 54.7812 26.8073 54.5599 26.0938 54.5391H25.2578ZM34.4062 64H32.1094V52.625H34.4062V64ZM41.1406 61.0156C41.1406 60.5521 41.0208 60.2031 40.7812 59.9688C40.5469 59.7292 40.1172 59.4818 39.4922 59.2266C38.3516 58.7943 37.5312 58.2891 37.0312 57.7109C36.5312 57.1276 36.2812 56.4401 36.2812 55.6484C36.2812 54.6901 36.6198 53.9219 37.2969 53.3438C37.9792 52.7604 38.8438 52.4688 39.8906 52.4688C40.5885 52.4688 41.2109 52.6172 41.7578 52.9141C42.3047 53.2057 42.724 53.6198 43.0156 54.1562C43.3125 54.6927 43.4609 55.3021 43.4609 55.9844H41.1719C41.1719 55.4531 41.0573 55.0495 40.8281 54.7734C40.6042 54.4922 40.2786 54.3516 39.8516 54.3516C39.4505 54.3516 39.138 54.4714 38.9141 54.7109C38.6901 54.9453 38.5781 55.263 38.5781 55.6641C38.5781 55.9766 38.7031 56.2604 38.9531 56.5156C39.2031 56.7656 39.6458 57.026 40.2812 57.2969C41.3906 57.6979 42.1953 58.1901 42.6953 58.7734C43.2005 59.3568 43.4531 60.099 43.4531 61C43.4531 61.9896 43.138 62.763 42.5078 63.3203C41.8776 63.8776 41.0208 64.1562 39.9375 64.1562C39.2031 64.1562 38.5339 64.0052 37.9297 63.7031C37.3255 63.401 36.8516 62.9688 36.5078 62.4062C36.1693 61.8438 36 61.1797 36 60.4141H38.3047C38.3047 61.0703 38.4323 61.5469 38.6875 61.8438C38.9427 62.1406 39.3594 62.2891 39.9375 62.2891C40.7396 62.2891 41.1406 61.8646 41.1406 61.0156ZM52.6875 60.2109C52.6302 61.5078 52.2656 62.4896 51.5938 63.1562C50.9219 63.8229 49.974 64.1562 48.75 64.1562C47.4635 64.1562 46.4766 63.7344 45.7891 62.8906C45.1068 62.0417 44.7656 60.8333 44.7656 59.2656V57.3516C44.7656 55.7891 45.1198 54.5859 45.8281 53.7422C46.5365 52.8932 47.5208 52.4688 48.7812 52.4688C50.0208 52.4688 50.9609 52.8151 51.6016 53.5078C52.2474 54.2005 52.6146 55.1953 52.7031 56.4922H50.3984C50.3776 55.6901 50.2526 55.138 50.0234 54.8359C49.7995 54.5286 49.3854 54.375 48.7812 54.375C48.1667 54.375 47.7318 54.5911 47.4766 55.0234C47.2214 55.4505 47.0859 56.1562 47.0703 57.1406V59.2891C47.0703 60.4193 47.1953 61.1953 47.4453 61.6172C47.7005 62.0391 48.1354 62.25 48.75 62.25C49.3542 62.25 49.7708 62.1042 50 61.8125C50.2292 61.5156 50.3594 60.9818 50.3906 60.2109H52.6875ZM62.1094 59.3359C62.1094 60.862 61.7474 62.0469 61.0234 62.8906C60.3047 63.7344 59.3047 64.1562 58.0234 64.1562C56.7474 64.1562 55.7448 63.7396 55.0156 62.9062C54.2865 62.0677 53.9167 60.8958 53.9062 59.3906V57.4453C53.9062 55.8828 54.2682 54.6641 54.9922 53.7891C55.7161 52.9089 56.7214 52.4688 58.0078 52.4688C59.2734 52.4688 60.2708 52.901 61 53.7656C61.7292 54.625 62.099 55.8333 62.1094 57.3906V59.3359ZM59.8047 57.4297C59.8047 56.4036 59.6589 55.6406 59.3672 55.1406C59.0755 54.6406 58.6224 54.3906 58.0078 54.3906C57.3984 54.3906 56.9479 54.6328 56.6562 55.1172C56.3646 55.5964 56.2135 56.3281 56.2031 57.3125V59.3359C56.2031 60.3307 56.3516 61.0651 56.6484 61.5391C56.9453 62.0078 57.4036 62.2422 58.0234 62.2422C58.6224 62.2422 59.0677 62.013 59.3594 61.5547C59.651 61.0911 59.7995 60.375 59.8047 59.4062V57.4297ZM67.2891 60.875L69.2031 52.625H71.7656L68.4844 64H66.0938L62.8359 52.625H65.3828L67.2891 60.875ZM78.7109 59.0781H75.1328V62.0938H79.3672V64H72.8359V52.625H79.3516V54.5391H75.1328V57.2266H78.7109V59.0781ZM84.1406 59.8438H83V64H80.7031V52.625H84.3672C85.5182 52.625 86.4062 52.9245 87.0312 53.5234C87.6615 54.1172 87.9766 54.9635 87.9766 56.0625C87.9766 57.5729 87.4271 58.6302 86.3281 59.2344L88.3203 63.8906V64H85.8516L84.1406 59.8438ZM83 57.9297H84.3047C84.763 57.9297 85.1068 57.7786 85.3359 57.4766C85.5651 57.1693 85.6797 56.7604 85.6797 56.25C85.6797 55.1094 85.2344 54.5391 84.3438 54.5391H83V57.9297ZM92.6094 57.7344L94.3203 52.625H96.8203L93.7734 59.875V64H91.4453V59.875L88.3906 52.625H90.8906L92.6094 57.7344Z" fill="white"/>
</svg>
