<?xml version="1.0" standalone="no"?>
<!DOCTYPE svg PUBLIC "-//W3C//DTD SVG 20010904//EN"
 "http://www.w3.org/TR/2001/REC-SVG-20010904/DTD/svg10.dtd">
<svg version="1.0" xmlns="http://www.w3.org/2000/svg"
 width="640.000000pt" height="640.000000pt" viewBox="0 0 640.000000 640.000000"
 preserveAspectRatio="xMidYMid meet">
<metadata>
Created by potrace 1.14, written by Peter Selinger 2001-2017
</metadata>
<g transform="translate(0.000000,640.000000) scale(0.100000,-0.100000)"
fill="#000000" stroke="none">
<path d="M3112 6170 c-18 -11 -54 -32 -80 -46 -26 -14 -63 -35 -82 -46 -82
-48 -596 -344 -720 -414 -47 -27 -91 -54 -98 -61 -8 -7 -17 -11 -22 -8 -5 3
-10 2 -12 -3 -4 -9 -147 -92 -159 -92 -5 0 -9 -4 -9 -10 0 -5 -4 -10 -9 -10
-5 0 -96 -50 -203 -111 -106 -62 -206 -119 -223 -129 -16 -9 -196 -113 -400
-230 -203 -117 -386 -222 -405 -232 -19 -11 -70 -41 -112 -65 l-78 -45 0
-1523 0 -1524 163 -93 c89 -51 170 -97 179 -103 9 -5 29 -17 45 -26 15 -8 166
-95 335 -192 168 -97 323 -186 345 -198 36 -20 241 -138 458 -264 55 -32 118
-68 140 -81 22 -12 138 -78 258 -148 120 -69 223 -126 228 -126 5 0 9 -4 9
-10 0 -5 4 -10 9 -10 5 0 114 -61 244 -135 l235 -135 70 40 c91 51 123 70 197
112 33 19 92 53 130 75 92 53 99 57 473 273 177 102 329 190 339 195 27 15
345 198 368 212 11 6 36 20 55 31 19 10 181 103 360 206 179 103 399 230 490
283 l165 94 -1 1520 c-1 1298 -3 1522 -15 1534 -8 7 -31 23 -51 34 -21 12 -53
29 -70 39 -18 11 -60 34 -93 53 -33 18 -61 37 -63 41 -2 4 -8 8 -13 8 -10 0
-254 138 -356 201 -34 22 -66 39 -69 39 -4 0 -41 21 -83 46 -42 25 -85 50 -96
57 -11 6 -74 42 -140 80 -66 38 -138 79 -160 92 -48 27 -488 280 -530 305 -40
23 -361 207 -405 232 -19 11 -124 72 -233 135 -218 126 -267 153 -270 153 -1
0 -17 -9 -35 -20z m71 -256 c9 -4 17 -10 17 -15 0 -5 4 -9 10 -9 5 0 55 -27
111 -60 55 -33 103 -60 105 -60 3 0 28 -15 57 -33 29 -19 55 -34 60 -35 4 -1
17 -8 30 -16 22 -14 442 -256 527 -304 69 -39 106 -62 100 -63 -27 -4 -2107
-3 -2104 2 2 3 61 39 131 79 70 40 211 121 313 180 102 59 205 118 230 132 57
32 340 195 360 207 8 6 20 8 25 5 6 -2 18 -7 28 -10z m-150 -734 c3 -3 -81
-54 -186 -114 -106 -60 -203 -117 -217 -126 -15 -10 -48 -29 -75 -44 -28 -14
-57 -31 -65 -36 -23 -15 -311 -180 -315 -180 -1 0 -44 -25 -94 -55 -51 -30
-93 -55 -95 -55 -2 0 -77 -43 -167 -95 -89 -52 -163 -95 -164 -95 -1 0 -53
-29 -115 -65 -62 -36 -110 -60 -107 -52 3 7 87 155 188 328 100 173 191 330
202 349 10 19 23 40 27 45 4 6 22 37 40 70 18 33 43 76 55 95 l22 35 531 0
c292 0 533 -2 535 -5z m1308 -15 c22 -35 141 -238 164 -280 12 -22 30 -54 41
-72 10 -18 45 -78 78 -135 32 -57 66 -111 74 -120 8 -10 11 -18 7 -18 -4 0 -1
-8 7 -17 8 -10 45 -72 83 -138 37 -66 70 -124 73 -129 5 -8 -76 32 -88 44 -9
9 -84 51 -112 63 -16 6 -28 15 -28 19 0 4 -4 8 -9 8 -5 0 -87 45 -181 100 -95
55 -174 100 -175 100 -2 0 -39 21 -82 46 -80 48 -115 68 -180 105 -21 12 -63
36 -93 54 -30 18 -75 44 -100 57 -25 14 -127 73 -228 131 -101 59 -185 107
-187 107 -5 0 -155 91 -155 93 0 1 243 2 539 2 530 0 539 0 552 -20z m-2575
-57 c-13 -24 -111 -194 -218 -378 -107 -184 -210 -362 -229 -395 -19 -33 -38
-68 -44 -77 -52 -89 -176 -303 -198 -343 -16 -27 -42 -71 -58 -98 -16 -26 -29
-50 -29 -53 0 -2 -8 -17 -19 -32 -10 -15 -67 -111 -126 -214 -60 -104 -111
-188 -114 -188 -10 0 -6 1199 5 1209 5 5 173 104 374 219 201 115 435 250 520
300 85 50 156 91 158 91 2 1 -8 -18 -22 -41z m3052 -139 c163 -94 315 -181
337 -194 22 -12 67 -38 100 -57 33 -19 117 -68 188 -108 l127 -73 0 -606 c0
-417 -3 -602 -10 -595 -10 10 -129 212 -198 334 -14 25 -71 124 -127 220 -184
317 -392 674 -417 720 -32 56 -263 453 -290 498 -11 17 -17 32 -13 32 3 0 140
-77 303 -171z m-1295 -100 c195 -112 353 -206 352 -208 -6 -5 -1445 -4 -1451
2 -3 3 7 12 23 20 62 32 129 69 138 77 6 4 30 19 55 32 25 14 128 73 229 132
102 58 188 106 192 106 4 0 14 6 21 13 23 23 52 37 70 33 9 -2 177 -95 371
-207z m-506 -345 c-10 -9 -291 -172 -477 -277 -61 -34 -364 -209 -395 -228
-16 -10 -41 -23 -54 -29 -13 -6 -36 -19 -51 -30 -15 -11 -30 -17 -33 -14 -2 3
19 44 47 92 29 48 70 118 92 155 21 38 44 76 49 86 6 9 41 71 79 136 l69 120
343 0 c252 0 340 -3 331 -11z m924 7 c8 0 35 -36 59 -78 25 -43 49 -86 55 -95
13 -22 65 -111 100 -173 15 -27 39 -67 52 -87 12 -21 23 -40 23 -43 0 -2 14
-27 30 -53 17 -27 30 -52 30 -56 0 -8 -64 26 -68 37 -2 4 -7 7 -12 7 -4 0
-106 57 -226 126 -261 150 -426 245 -539 309 -27 15 -67 39 -87 52 -21 12 -41
23 -46 23 -5 0 -16 8 -25 18 -15 16 1 17 311 16 180 -1 334 -2 343 -3z m-1746
-9 c-6 -4 -19 -25 -30 -47 -11 -22 -23 -42 -26 -45 -3 -3 -19 -30 -36 -60 -17
-30 -70 -122 -118 -205 -48 -82 -99 -170 -113 -195 -28 -50 -61 -106 -79 -135
-7 -11 -22 -38 -34 -60 -12 -22 -27 -47 -34 -55 -8 -8 -15 -19 -16 -25 -1 -5
-7 -19 -14 -30 -7 -11 -56 -96 -110 -190 -54 -93 -104 -178 -111 -188 -9 -15
-12 67 -12 405 l0 424 156 89 c85 50 181 104 211 121 31 17 96 54 144 83 49
28 93 51 98 51 5 0 9 5 9 10 0 6 6 10 13 11 6 0 28 11 47 24 31 21 82 37 55
17z m1978 -27 c32 -19 61 -35 64 -35 4 0 14 -6 22 -14 9 -7 45 -29 81 -49 36
-19 161 -91 279 -159 l215 -123 -1 -418 c0 -229 -3 -420 -6 -424 -4 -3 -7 -1
-7 6 0 6 -20 44 -44 84 -24 39 -55 92 -68 117 -14 25 -72 124 -128 220 -56 96
-112 193 -124 215 -13 22 -32 56 -44 75 -11 19 -41 71 -67 115 -25 44 -56 98
-69 120 -13 22 -49 85 -81 140 -32 55 -66 115 -77 133 -11 17 -16 32 -11 32 4
0 34 -16 66 -35z m-788 -293 c110 -64 213 -123 230 -131 16 -9 32 -18 35 -21
3 -3 14 -10 25 -16 43 -23 114 -64 198 -113 49 -28 93 -51 98 -51 5 0 9 -4 9
-10 0 -5 4 -10 9 -10 17 0 131 -70 131 -80 0 -6 -4 -10 -10 -10 -5 0 -58 -29
-117 -63 -96 -56 -520 -302 -613 -355 -19 -10 -79 -45 -134 -77 -107 -62 -97
-61 -176 -14 -39 24 -438 255 -540 313 -36 20 -72 41 -80 46 -94 55 -133 77
-180 103 -30 16 -66 38 -79 48 -22 18 -22 19 -5 26 11 4 51 26 90 50 39 24 76
43 82 43 6 0 12 3 14 8 2 4 84 54 183 110 99 56 191 109 205 117 14 8 106 62
205 119 150 86 183 102 200 93 11 -5 110 -62 220 -125z m1626 -189 c18 -32 38
-67 44 -78 6 -11 35 -60 63 -108 29 -48 52 -92 52 -97 0 -6 5 -10 10 -10 6 0
10 -4 10 -10 0 -5 27 -55 60 -111 33 -55 60 -103 60 -105 0 -3 16 -30 35 -60
19 -30 35 -56 35 -58 0 -2 27 -50 61 -107 34 -56 63 -108 66 -115 2 -7 -43
-94 -101 -194 -58 -100 -106 -186 -106 -191 0 -5 -4 -9 -10 -9 -5 0 -10 -5
-10 -10 0 -6 -17 -38 -38 -73 -20 -34 -48 -83 -62 -109 -14 -27 -28 -48 -32
-48 -5 0 -8 -5 -8 -10 0 -15 -162 -291 -168 -286 -7 8 -8 1846 0 1846 3 0 21
-26 39 -57z m-3683 -874 c-1 -720 -4 -917 -13 -907 -10 10 -253 428 -299 513
-6 11 -16 27 -22 35 -6 8 -26 42 -44 75 -17 33 -35 65 -40 70 -4 6 -19 30 -32
55 -59 106 -70 126 -79 135 -15 15 -10 48 11 75 11 14 20 28 20 31 0 4 43 80
96 170 53 90 107 184 121 209 94 168 267 460 274 460 4 0 7 -414 7 -921z m558
7 c0 -454 -3 -591 -12 -578 -6 9 -84 142 -172 295 -108 186 -159 283 -155 294
4 10 41 76 84 149 42 72 88 151 102 175 46 81 150 259 151 259 1 0 2 -267 2
-594z m2644 385 c0 -5 3 -11 8 -13 4 -1 18 -23 31 -48 14 -25 27 -47 30 -50 3
-3 14 -21 25 -40 25 -48 62 -113 101 -179 27 -46 31 -59 22 -78 -6 -13 -14
-23 -19 -23 -4 0 -8 -5 -8 -11 0 -6 -35 -70 -77 -142 -42 -73 -83 -143 -90
-157 -8 -14 -25 -43 -39 -65 -13 -22 -27 -46 -31 -54 -3 -8 -21 -39 -40 -69
l-33 -56 0 600 0 599 60 -102 c33 -56 60 -107 60 -112z m-2249 22 c8 -7 18
-13 21 -13 3 0 57 -30 119 -66 63 -37 132 -77 154 -89 22 -13 144 -83 270
-157 l231 -133 -1 -545 c0 -479 -2 -545 -15 -542 -8 2 -152 82 -320 179 -168
97 -325 187 -349 201 -25 14 -68 38 -95 55 -28 16 -76 43 -106 60 -30 16 -61
34 -67 40 -10 7 -13 131 -13 559 l0 549 78 -42 c42 -23 84 -48 93 -56z m1904
-453 l0 -551 -268 -154 c-148 -85 -272 -155 -277 -155 -5 0 -10 -4 -12 -8 -3
-7 -185 -112 -195 -112 -2 0 -9 -5 -16 -11 -20 -17 -202 -118 -206 -114 -2 2
-4 248 -3 546 0 445 2 543 13 554 8 6 151 91 319 188 168 96 321 184 340 196
19 11 42 24 50 28 8 4 47 26 86 50 39 24 77 43 83 43 6 0 11 4 11 8 0 7 55 39
70 41 3 1 5 -247 5 -549z m-2636 -225 c45 -77 86 -147 91 -155 22 -38 232
-398 247 -425 10 -16 31 -52 47 -80 16 -27 37 -65 48 -83 10 -18 59 -103 109
-188 49 -86 93 -163 96 -171 5 -12 -15 -5 -63 22 -38 21 -77 45 -86 53 -10 8
-18 12 -18 8 0 -4 -12 1 -27 12 -27 18 -177 106 -273 160 -71 39 -93 52 -125
72 -16 11 -41 24 -54 30 -13 6 -36 19 -51 30 l-27 20 -1 420 c0 232 2 420 3
418 1 -2 39 -66 84 -143z m3285 -275 c0 -231 -3 -422 -5 -424 -4 -4 -323 -190
-417 -243 -23 -13 -93 -53 -154 -89 -61 -35 -113 -64 -116 -64 -3 0 -14 -7
-24 -17 -24 -22 -23 -6 4 37 11 19 29 50 39 67 19 33 115 198 384 663 81 140
159 275 173 300 14 25 33 57 43 72 11 14 19 29 19 32 0 7 49 86 53 86 1 0 2
-189 1 -420z m-4059 295 c8 -16 20 -39 27 -50 33 -51 61 -100 57 -101 -2 -1 3
-10 11 -20 8 -11 21 -30 29 -44 8 -14 52 -90 99 -170 46 -80 123 -212 170
-295 47 -82 88 -152 91 -155 3 -3 15 -23 27 -45 20 -38 392 -681 438 -755 11
-19 21 -37 21 -40 0 -3 10 -20 23 -37 26 -37 20 -41 -23 -15 -16 10 -55 32
-85 49 -30 16 -111 63 -180 103 -69 40 -143 83 -165 96 -131 72 -210 119 -213
126 -2 4 -8 8 -14 8 -6 0 -36 15 -67 34 -31 18 -77 45 -103 60 -120 66 -143
79 -148 86 -3 4 -14 10 -25 14 -20 6 -20 14 -19 588 1 321 3 597 3 613 l2 30
14 -25 c9 -14 22 -38 30 -55z m4778 -1150 c-31 -19 -67 -40 -181 -105 -62 -36
-120 -69 -130 -75 -9 -5 -91 -53 -182 -105 -91 -52 -173 -99 -182 -105 -9 -5
-29 -17 -45 -26 -15 -8 -92 -52 -170 -97 -78 -45 -145 -82 -147 -82 -3 0 3 15
13 32 70 125 294 509 338 581 29 49 53 90 53 92 0 2 23 43 51 92 61 105 82
141 108 187 11 19 31 53 45 75 15 22 26 42 26 45 0 2 17 33 38 67 35 57 211
360 251 432 9 16 21 36 26 45 6 9 30 52 55 95 l45 79 3 -608 c2 -560 1 -609
-15 -619z m-3510 589 c9 -4 17 -10 17 -15 0 -5 4 -9 10 -9 5 0 39 -18 75 -40
36 -22 68 -40 70 -40 3 0 22 -11 43 -23 20 -13 57 -35 82 -49 25 -14 148 -84
273 -156 126 -73 233 -132 238 -132 5 0 9 -4 9 -10 0 -5 4 -10 9 -10 12 0 151
-81 151 -89 0 -3 -152 -6 -337 -6 l-338 1 -158 269 c-194 332 -192 329 -175
321 7 -3 21 -9 31 -12z m2234 -20 c-35 -57 -53 -87 -75 -126 -59 -103 -245
-424 -248 -427 -6 -6 -684 -7 -684 -1 0 3 17 14 38 25 20 11 42 24 47 28 6 4
76 45 157 91 81 46 155 89 163 96 8 7 15 9 15 4 0 -5 4 -4 8 1 8 11 27 23 112
69 30 16 57 33 58 38 2 4 8 8 13 8 6 0 48 23 95 50 47 28 89 50 94 50 6 0 10
4 10 8 0 5 16 14 35 22 19 8 35 17 35 22 0 4 4 8 10 8 5 0 35 16 67 35 32 19
61 34 65 35 4 0 -3 -16 -15 -36z m-2717 -349 c36 -21 81 -47 100 -58 19 -11
53 -30 75 -42 22 -13 202 -116 400 -230 198 -114 381 -220 406 -234 279 -158
497 -286 493 -291 -3 -3 -244 -5 -535 -5 l-529 0 -20 27 c-11 15 -20 29 -20
31 0 3 -30 56 -67 118 -151 260 -173 298 -173 308 0 6 -4 11 -10 11 -5 0 -10
5 -10 10 0 6 -11 27 -23 48 -41 65 -217 371 -217 378 0 3 15 -3 33 -14 17 -11
61 -36 97 -57z m3279 18 c-40 -71 -70 -122 -86 -148 -7 -11 -21 -36 -31 -55
-31 -58 -372 -642 -385 -659 -11 -15 -66 -17 -544 -16 -293 0 -533 3 -533 6 0
5 381 227 562 327 20 12 54 32 75 45 21 13 63 37 93 54 30 17 147 83 260 148
464 268 615 354 618 355 2 0 -11 -26 -29 -57z m-959 -353 c0 -3 -95 -59 -211
-125 -115 -66 -224 -128 -242 -138 -154 -89 -275 -157 -280 -157 -3 0 -119 66
-258 146 -140 80 -274 157 -299 171 -25 14 -70 40 -101 59 -31 19 -63 34 -70
35 -9 0 -8 3 3 7 20 8 1458 10 1458 2z m320 -660 c0 -3 -57 -36 -126 -75 -69
-38 -131 -74 -137 -80 -7 -5 -26 -17 -42 -26 -17 -9 -189 -108 -384 -219 -195
-112 -359 -203 -365 -203 -6 0 -82 41 -169 92 -87 50 -177 103 -200 115 -89
50 -413 237 -427 246 -8 6 -27 16 -42 23 -16 6 -28 15 -28 19 0 4 -4 8 -10 8
-8 0 -180 98 -180 103 0 1 475 2 1055 2 580 0 1055 -2 1055 -5z"/>
</g>
</svg>
