<svg width="301" height="618" viewBox="0 0 301 618" fill="none" xmlns="http://www.w3.org/2000/svg">
<rect x="0.5" y="108.4" width="300" height="300" rx="150" fill="#FF0049"/>
<path d="M128.305 246.908H123.605L122.691 250.4H119.047L124.379 233.337H127.531L132.898 250.4H129.219L128.305 246.908ZM124.355 244.037H127.543L125.949 237.955L124.355 244.037ZM145.848 248.466C145.184 249.185 144.367 249.728 143.398 250.095C142.438 250.455 141.383 250.634 140.234 250.634C138.273 250.634 136.75 250.029 135.664 248.818C134.578 247.599 134.02 245.83 133.988 243.509V240.439C133.988 238.087 134.5 236.279 135.523 235.013C136.555 233.74 138.055 233.103 140.023 233.103C141.875 233.103 143.27 233.56 144.207 234.474C145.152 235.388 145.699 236.822 145.848 238.775H142.496C142.402 237.689 142.176 236.951 141.816 236.56C141.457 236.162 140.895 235.962 140.129 235.962C139.199 235.962 138.523 236.302 138.102 236.982C137.68 237.662 137.461 238.744 137.445 240.228V243.322C137.445 244.876 137.676 246.009 138.137 246.72C138.605 247.423 139.371 247.775 140.434 247.775C141.113 247.775 141.664 247.638 142.086 247.365L142.391 247.154V244.025H139.977V241.423H145.848V248.466ZM151.883 250.4H148.438V233.337H151.883V250.4ZM158.223 247.541H164.27V250.4H154.777V233.337H158.223V247.541ZM175.074 243.017H169.707V247.541H176.059V250.4H166.262V233.337H176.035V236.208H169.707V240.24H175.074V243.017ZM78.2305 282.4V265.337H82.7422C84.7344 265.337 86.3203 265.97 87.5 267.236C88.6875 268.501 89.293 270.236 89.3164 272.439V275.205C89.3164 277.447 88.7227 279.208 87.5352 280.49C86.3555 281.763 84.7266 282.4 82.6484 282.4H78.2305ZM81.6758 268.208V279.541H82.707C83.8555 279.541 84.6641 279.24 85.1328 278.638C85.6016 278.029 85.8477 276.982 85.8711 275.498V272.533C85.8711 270.939 85.6484 269.83 85.2031 269.205C84.7578 268.572 84 268.24 82.9297 268.208H81.6758ZM100.613 275.017H95.2461V279.541H101.598V282.4H91.8008V265.337H101.574V268.208H95.2461V272.24H100.613V275.017ZM109.145 277.712L112.016 265.337H115.859L110.938 282.4H107.352L102.465 265.337H106.285L109.145 277.712ZM126.277 275.017H120.91V279.541H127.262V282.4H117.465V265.337H127.238V268.208H120.91V272.24H126.277V275.017ZM132.699 279.541H138.746V282.4H129.254V265.337H132.699V279.541ZM152 275.404C152 277.693 151.457 279.47 150.371 280.736C149.293 282.001 147.793 282.634 145.871 282.634C143.957 282.634 142.453 282.009 141.359 280.759C140.266 279.501 139.711 277.744 139.695 275.486V272.568C139.695 270.224 140.238 268.396 141.324 267.083C142.41 265.763 143.918 265.103 145.848 265.103C147.746 265.103 149.242 265.751 150.336 267.048C151.43 268.337 151.984 270.15 152 272.486V275.404ZM148.543 272.544C148.543 271.005 148.324 269.861 147.887 269.111C147.449 268.361 146.77 267.986 145.848 267.986C144.934 267.986 144.258 268.349 143.82 269.076C143.383 269.794 143.156 270.892 143.141 272.369V275.404C143.141 276.896 143.363 277.998 143.809 278.708C144.254 279.412 144.941 279.763 145.871 279.763C146.77 279.763 147.438 279.419 147.875 278.732C148.312 278.037 148.535 276.962 148.543 275.509V272.544ZM157.918 276.4V282.4H154.473V265.337H160.285C161.973 265.337 163.316 265.861 164.316 266.908C165.324 267.955 165.828 269.314 165.828 270.986C165.828 272.658 165.332 273.978 164.34 274.947C163.348 275.916 161.973 276.4 160.215 276.4H157.918ZM157.918 273.529H160.285C160.941 273.529 161.449 273.314 161.809 272.884C162.168 272.455 162.348 271.83 162.348 271.009C162.348 270.158 162.164 269.482 161.797 268.982C161.43 268.474 160.938 268.216 160.32 268.208H157.918V273.529ZM172.637 265.337L175.859 277.677L179.07 265.337H183.57V282.4H180.113V277.783L180.43 270.669L177.02 282.4H174.676L171.266 270.669L171.582 277.783V282.4H168.137V265.337H172.637ZM195.16 275.017H189.793V279.541H196.145V282.4H186.348V265.337H196.121V268.208H189.793V272.24H195.16V275.017ZM210.066 282.4H206.621L201.582 271.208V282.4H198.137V265.337H201.582L206.633 276.541V265.337H210.066V282.4ZM223.531 268.208H219.312V282.4H215.855V268.208H211.707V265.337H223.531V268.208Z" fill="#182030"/>
<rect x="82.5" y="408.4" width="136" height="136" rx="68" fill="#00D0F6"/>
<path d="M136.139 469.172H132.993L132.381 471.51H129.941L133.511 460.086H135.621L139.215 471.51H136.751L136.139 469.172ZM133.495 467.249H135.629L134.562 463.177L133.495 467.249ZM147.885 470.215C147.44 470.696 146.894 471.06 146.245 471.306C145.602 471.546 144.896 471.667 144.127 471.667C142.814 471.667 141.794 471.261 141.067 470.451C140.34 469.635 139.966 468.45 139.945 466.896V464.84C139.945 463.266 140.287 462.055 140.972 461.208C141.663 460.355 142.667 459.929 143.985 459.929C145.225 459.929 146.159 460.235 146.787 460.847C147.419 461.459 147.786 462.419 147.885 463.726H145.641C145.578 462.999 145.427 462.505 145.186 462.243C144.945 461.977 144.569 461.843 144.056 461.843C143.434 461.843 142.981 462.071 142.699 462.526C142.416 462.981 142.27 463.705 142.259 464.699V466.771C142.259 467.812 142.414 468.57 142.722 469.046C143.036 469.517 143.549 469.752 144.26 469.752C144.715 469.752 145.084 469.661 145.366 469.478L145.57 469.336V467.241H143.954V465.5H147.885V470.215ZM151.926 471.51H149.619V460.086H151.926V471.51ZM156.171 469.595H160.219V471.51H153.864V460.086H156.171V469.595ZM167.454 466.567H163.86V469.595H168.113V471.51H161.553V460.086H168.097V462.008H163.86V464.707H167.454V466.567ZM105.437 481.086L107.594 489.348L109.744 481.086H112.757V492.51H110.443V489.418L110.654 484.656L108.371 492.51H106.802L104.519 484.656L104.731 489.418V492.51H102.424V481.086H105.437ZM120.211 490.172H117.065L116.453 492.51H114.013L117.583 481.086H119.693L123.287 492.51H120.823L120.211 490.172ZM117.567 488.249H119.701L118.634 484.177L117.567 488.249ZM126.771 492.51H124.464V481.086H126.771V492.51ZM136.696 492.51H134.389L131.016 485.017V492.51H128.709V481.086H131.016L134.397 488.587V481.086H136.696V492.51ZM145.712 483.008H142.887V492.51H140.572V483.008H137.795V481.086H145.712V483.008ZM152.938 487.567H149.344V490.595H153.597V492.51H147.038V481.086H153.581V483.008H149.344V485.707H152.938V487.567ZM162.918 492.51H160.612L157.238 485.017V492.51H154.931V481.086H157.238L160.62 488.587V481.086H162.918V492.51ZM170.365 490.172H167.218L166.606 492.51H164.166L167.736 481.086H169.847L173.44 492.51H170.977L170.365 490.172ZM167.72 488.249H169.855L168.787 484.177L167.72 488.249ZM182.503 492.51H180.196L176.822 485.017V492.51H174.515V481.086H176.822L180.204 488.587V481.086H182.503V492.51ZM192.099 488.704C192.041 490.007 191.675 490.993 191 491.662C190.326 492.332 189.373 492.667 188.144 492.667C186.852 492.667 185.861 492.243 185.171 491.396C184.485 490.543 184.143 489.329 184.143 487.755V485.833C184.143 484.263 184.498 483.055 185.21 482.208C185.921 481.355 186.91 480.929 188.176 480.929C189.421 480.929 190.365 481.277 191.008 481.972C191.657 482.668 192.026 483.667 192.114 484.97H189.8C189.779 484.164 189.653 483.609 189.423 483.306C189.198 482.997 188.782 482.843 188.176 482.843C187.558 482.843 187.122 483.06 186.865 483.494C186.609 483.923 186.473 484.632 186.457 485.621V487.778C186.457 488.914 186.583 489.693 186.834 490.117C187.09 490.54 187.527 490.752 188.144 490.752C188.751 490.752 189.169 490.606 189.4 490.313C189.63 490.015 189.761 489.478 189.792 488.704H192.099ZM199.419 487.567H195.826V490.595H200.078V492.51H193.519V481.086H200.063V483.008H195.826V485.707H199.419V487.567Z" fill="#182030"/>
<rect x="192" y="512.4" width="64" height="64" rx="32" fill="#2300A6"/>
<path d="M209.677 536.795C209.677 536.618 209.661 536.457 209.629 536.312C209.598 536.167 209.53 536.033 209.425 535.911C209.326 535.789 209.178 535.666 208.983 535.544C208.793 535.421 208.543 535.294 208.235 535.163C207.868 535.009 207.512 534.845 207.167 534.673C206.823 534.496 206.512 534.292 206.236 534.061C205.959 533.83 205.739 533.558 205.576 533.245C205.417 532.928 205.338 532.556 205.338 532.13C205.338 531.712 205.413 531.334 205.562 530.994C205.716 530.654 205.934 530.364 206.215 530.123C206.496 529.878 206.825 529.69 207.201 529.559C207.582 529.427 208.006 529.362 208.473 529.362C209.108 529.362 209.657 529.493 210.119 529.756C210.586 530.019 210.946 530.379 211.2 530.837C211.459 531.295 211.588 531.821 211.588 532.415H209.602C209.602 532.134 209.561 531.887 209.48 531.674C209.403 531.456 209.278 531.286 209.106 531.164C208.933 531.041 208.711 530.98 208.439 530.98C208.185 530.98 207.974 531.032 207.807 531.137C207.643 531.236 207.521 531.375 207.439 531.551C207.362 531.724 207.324 531.919 207.324 532.136C207.324 532.3 207.362 532.447 207.439 532.578C207.521 532.705 207.632 532.821 207.773 532.925C207.913 533.025 208.079 533.123 208.269 533.218C208.464 533.313 208.677 533.406 208.908 533.497C209.357 533.673 209.754 533.868 210.099 534.081C210.443 534.29 210.731 534.526 210.962 534.789C211.194 535.047 211.368 535.34 211.486 535.666C211.604 535.993 211.663 536.364 211.663 536.781C211.663 537.194 211.59 537.57 211.445 537.91C211.305 538.246 211.098 538.536 210.826 538.781C210.554 539.021 210.226 539.207 209.84 539.339C209.459 539.47 209.033 539.536 208.562 539.536C208.104 539.536 207.671 539.472 207.263 539.345C206.855 539.214 206.494 539.017 206.181 538.754C205.873 538.486 205.63 538.149 205.454 537.74C205.277 537.328 205.188 536.84 205.188 536.278H207.181C207.181 536.577 207.21 536.834 207.269 537.047C207.328 537.255 207.419 537.423 207.541 537.55C207.664 537.672 207.813 537.765 207.99 537.829C208.172 537.888 208.378 537.917 208.609 537.917C208.872 537.917 209.081 537.867 209.235 537.768C209.394 537.668 209.507 537.534 209.575 537.366C209.643 537.199 209.677 537.008 209.677 536.795ZM217.729 536.101H219.709C219.681 536.845 219.532 537.473 219.26 537.985C218.988 538.493 218.6 538.878 218.097 539.141C217.598 539.404 216.995 539.536 216.288 539.536C215.739 539.536 215.252 539.445 214.825 539.264C214.399 539.078 214.036 538.806 213.737 538.448C213.438 538.09 213.211 537.647 213.057 537.122C212.907 536.591 212.833 535.981 212.833 535.292V533.612C212.833 532.923 212.912 532.313 213.071 531.783C213.234 531.252 213.465 530.808 213.764 530.45C214.068 530.087 214.433 529.815 214.859 529.634C215.29 529.448 215.775 529.355 216.315 529.355C217.036 529.355 217.639 529.491 218.124 529.763C218.609 530.035 218.983 530.432 219.246 530.953C219.514 531.47 219.675 532.102 219.729 532.85H217.743C217.729 532.379 217.675 532.009 217.58 531.742C217.489 531.47 217.344 531.279 217.145 531.171C216.945 531.057 216.668 531.001 216.315 531.001C216.052 531.001 215.825 531.048 215.635 531.143C215.444 531.234 215.288 531.381 215.165 531.585C215.043 531.79 214.952 532.057 214.893 532.388C214.839 532.719 214.812 533.123 214.812 533.599V535.292C214.812 535.759 214.837 536.158 214.887 536.489C214.936 536.815 215.016 537.083 215.125 537.292C215.233 537.5 215.381 537.652 215.567 537.747C215.757 537.842 215.997 537.89 216.288 537.89C216.623 537.89 216.893 537.84 217.097 537.74C217.305 537.641 217.46 537.462 217.559 537.203C217.659 536.945 217.716 536.577 217.729 536.101ZM227.911 533.68V535.333C227.911 536.031 227.824 536.643 227.652 537.169C227.484 537.691 227.244 538.128 226.931 538.482C226.623 538.831 226.249 539.094 225.809 539.271C225.374 539.448 224.891 539.536 224.36 539.536C223.83 539.536 223.345 539.448 222.905 539.271C222.47 539.094 222.093 538.831 221.776 538.482C221.463 538.128 221.221 537.691 221.048 537.169C220.876 536.643 220.79 536.031 220.79 535.333V533.68C220.79 532.964 220.874 532.338 221.042 531.803C221.209 531.264 221.452 530.815 221.769 530.457C222.087 530.094 222.463 529.822 222.898 529.64C223.333 529.454 223.816 529.362 224.347 529.362C224.877 529.362 225.36 529.454 225.795 529.64C226.231 529.822 226.607 530.094 226.924 530.457C227.242 530.815 227.484 531.264 227.652 531.803C227.824 532.338 227.911 532.964 227.911 533.68ZM225.932 535.333V533.667C225.932 533.195 225.897 532.794 225.829 532.463C225.761 532.127 225.659 531.853 225.523 531.64C225.387 531.427 225.222 531.27 225.027 531.171C224.832 531.071 224.605 531.021 224.347 531.021C224.088 531.021 223.859 531.071 223.66 531.171C223.465 531.27 223.299 531.427 223.163 531.64C223.032 531.853 222.932 532.127 222.864 532.463C222.801 532.794 222.769 533.195 222.769 533.667V535.333C222.769 535.786 222.803 536.174 222.871 536.496C222.939 536.818 223.041 537.081 223.177 537.285C223.313 537.489 223.479 537.641 223.674 537.74C223.873 537.836 224.102 537.883 224.36 537.883C224.614 537.883 224.839 537.836 225.034 537.74C225.233 537.641 225.399 537.489 225.53 537.285C225.662 537.081 225.761 536.818 225.829 536.496C225.897 536.174 225.932 535.786 225.932 535.333ZM232.733 535.911H230.706V534.258H232.733C233.014 534.258 233.243 534.195 233.419 534.068C233.601 533.941 233.732 533.766 233.814 533.544C233.896 533.317 233.936 533.064 233.936 532.782C233.936 532.497 233.893 532.232 233.807 531.987C233.726 531.737 233.596 531.536 233.419 531.381C233.247 531.227 233.018 531.15 232.733 531.15H231.345V539.4H229.359V529.498H232.733C233.399 529.498 233.973 529.638 234.453 529.919C234.934 530.2 235.301 530.588 235.555 531.082C235.813 531.572 235.943 532.134 235.943 532.769C235.943 533.408 235.813 533.964 235.555 534.435C235.301 534.902 234.934 535.265 234.453 535.523C233.973 535.782 233.399 535.911 232.733 535.911ZM242.955 537.754V539.4H238.649V537.754H242.955ZM239.268 529.498V539.4H237.276V529.498H239.268ZM242.376 533.51V535.108H238.649V533.51H242.376ZM242.941 529.498V531.15H238.649V529.498H242.941ZM214.71 557.4H212.962L212.975 555.754H214.71C215.19 555.754 215.564 555.668 215.832 555.496C216.099 555.323 216.288 555.051 216.396 554.679C216.51 554.308 216.566 553.82 216.566 553.217V551.673C216.566 551.215 216.537 550.828 216.478 550.51C216.419 550.189 216.319 549.93 216.179 549.735C216.038 549.536 215.85 549.388 215.614 549.293C215.379 549.198 215.086 549.15 214.737 549.15H212.928V547.498H214.737C215.308 547.498 215.827 547.591 216.294 547.776C216.761 547.962 217.163 548.234 217.498 548.593C217.834 548.946 218.092 549.384 218.274 549.905C218.455 550.427 218.546 551.021 218.546 551.687V553.217C218.546 553.888 218.455 554.482 218.274 554.999C218.092 555.516 217.834 555.954 217.498 556.312C217.167 556.665 216.766 556.935 216.294 557.121C215.823 557.307 215.295 557.4 214.71 557.4ZM214.118 547.498V557.4H212.125V547.498H214.118ZM225.68 555.754V557.4H221.375V555.754H225.68ZM221.994 547.498V557.4H220.001V547.498H221.994ZM225.102 551.51V553.108H221.375V551.51H225.102ZM225.666 547.498V549.15H221.375V547.498H225.666ZM229.924 555.285L231.801 547.498H233.95L231.08 557.4H229.631L229.924 555.285ZM228.319 547.498L230.189 555.285L230.495 557.4H229.04L226.19 547.498H228.319ZM233.487 556.427C233.487 556.128 233.587 555.879 233.787 555.679C233.986 555.475 234.256 555.373 234.596 555.373C234.936 555.373 235.206 555.475 235.405 555.679C235.605 555.879 235.705 556.128 235.705 556.427C235.705 556.727 235.605 556.976 235.405 557.175C235.206 557.375 234.936 557.475 234.596 557.475C234.256 557.475 233.986 557.375 233.787 557.175C233.587 556.976 233.487 556.727 233.487 556.427Z" fill="white"/>
<rect x="114.5" y="544.4" width="73" height="73" rx="36.5" fill="#73909E"/>
<path d="M140.602 572.98H142.354C142.33 573.638 142.198 574.194 141.957 574.648C141.716 575.097 141.373 575.438 140.927 575.671C140.486 575.904 139.952 576.02 139.326 576.02C138.84 576.02 138.409 575.94 138.031 575.779C137.654 575.615 137.333 575.374 137.068 575.057C136.803 574.74 136.602 574.349 136.466 573.883C136.333 573.413 136.267 572.873 136.267 572.263V570.776C136.267 570.166 136.337 569.626 136.478 569.157C136.622 568.687 136.827 568.294 137.092 567.977C137.361 567.655 137.684 567.415 138.061 567.254C138.443 567.09 138.872 567.007 139.35 567.007C139.988 567.007 140.522 567.128 140.951 567.368C141.381 567.609 141.712 567.961 141.945 568.422C142.182 568.88 142.324 569.44 142.372 570.102H140.614C140.602 569.684 140.554 569.357 140.47 569.121C140.389 568.88 140.261 568.711 140.084 568.615C139.908 568.514 139.663 568.464 139.35 568.464C139.117 568.464 138.916 568.506 138.748 568.591C138.579 568.671 138.441 568.801 138.332 568.982C138.224 569.163 138.144 569.399 138.091 569.693C138.043 569.986 138.019 570.343 138.019 570.764V572.263C138.019 572.677 138.041 573.03 138.085 573.323C138.13 573.612 138.2 573.849 138.296 574.033C138.393 574.218 138.523 574.353 138.688 574.437C138.856 574.521 139.069 574.563 139.326 574.563C139.623 574.563 139.862 574.519 140.042 574.431C140.227 574.343 140.363 574.184 140.452 573.955C140.54 573.726 140.59 573.401 140.602 572.98ZM149.615 570.836V572.299C149.615 572.918 149.539 573.459 149.386 573.925C149.238 574.387 149.025 574.774 148.748 575.087C148.475 575.396 148.144 575.629 147.755 575.786C147.369 575.942 146.942 576.02 146.472 576.02C146.003 576.02 145.573 575.942 145.184 575.786C144.799 575.629 144.465 575.396 144.185 575.087C143.908 574.774 143.693 574.387 143.54 573.925C143.388 573.459 143.311 572.918 143.311 572.299V570.836C143.311 570.202 143.386 569.648 143.534 569.175C143.683 568.697 143.898 568.3 144.178 567.983C144.459 567.662 144.793 567.421 145.178 567.26C145.563 567.096 145.991 567.013 146.46 567.013C146.93 567.013 147.357 567.096 147.743 567.26C148.128 567.421 148.461 567.662 148.742 567.983C149.023 568.3 149.238 568.697 149.386 569.175C149.539 569.648 149.615 570.202 149.615 570.836ZM147.863 572.299V570.824C147.863 570.407 147.833 570.052 147.773 569.759C147.713 569.462 147.622 569.219 147.502 569.03C147.382 568.842 147.235 568.703 147.062 568.615C146.89 568.526 146.689 568.482 146.46 568.482C146.232 568.482 146.029 568.526 145.852 568.615C145.68 568.703 145.533 568.842 145.413 569.03C145.296 569.219 145.208 569.462 145.148 569.759C145.092 570.052 145.064 570.407 145.064 570.824V572.299C145.064 572.701 145.094 573.044 145.154 573.329C145.214 573.614 145.304 573.847 145.425 574.027C145.545 574.208 145.692 574.343 145.864 574.431C146.041 574.515 146.244 574.557 146.472 574.557C146.697 574.557 146.896 574.515 147.068 574.431C147.245 574.343 147.392 574.208 147.508 574.027C147.624 573.847 147.713 573.614 147.773 573.329C147.833 573.044 147.863 572.701 147.863 572.299ZM157.027 567.134V575.9H155.323L152.571 570.415V575.9H150.898V567.134H152.577L155.353 572.679V567.134H157.027ZM161.759 567.134V575.9H160.007V567.134H161.759ZM163.939 567.134V568.597H157.87V567.134H163.939ZM163.463 575.039C163.463 574.774 163.551 574.553 163.728 574.377C163.904 574.196 164.143 574.106 164.444 574.106C164.745 574.106 164.984 574.196 165.161 574.377C165.337 574.553 165.426 574.774 165.426 575.039C165.426 575.304 165.337 575.525 165.161 575.701C164.984 575.878 164.745 575.966 164.444 575.966C164.143 575.966 163.904 575.878 163.728 575.701C163.551 575.525 163.463 575.304 163.463 575.039ZM131.234 589.594C131.234 589.437 131.22 589.295 131.192 589.166C131.164 589.038 131.103 588.92 131.011 588.811C130.923 588.703 130.792 588.595 130.62 588.486C130.451 588.378 130.23 588.265 129.957 588.149C129.632 588.013 129.317 587.868 129.012 587.715C128.707 587.559 128.432 587.378 128.187 587.174C127.943 586.969 127.748 586.728 127.603 586.451C127.463 586.17 127.393 585.841 127.393 585.464C127.393 585.094 127.459 584.759 127.591 584.458C127.728 584.157 127.92 583.9 128.169 583.688C128.418 583.471 128.709 583.304 129.042 583.188C129.379 583.071 129.755 583.013 130.168 583.013C130.73 583.013 131.216 583.13 131.625 583.362C132.039 583.595 132.358 583.914 132.583 584.32C132.811 584.725 132.926 585.191 132.926 585.717H131.168C131.168 585.468 131.132 585.249 131.059 585.06C130.991 584.868 130.881 584.717 130.728 584.609C130.576 584.5 130.379 584.446 130.138 584.446C129.913 584.446 129.727 584.492 129.578 584.585C129.434 584.673 129.325 584.795 129.253 584.952C129.185 585.104 129.151 585.277 129.151 585.47C129.151 585.614 129.185 585.745 129.253 585.861C129.325 585.973 129.424 586.076 129.548 586.168C129.672 586.256 129.819 586.343 129.988 586.427C130.16 586.511 130.349 586.594 130.554 586.674C130.951 586.83 131.302 587.003 131.607 587.192C131.912 587.376 132.167 587.585 132.372 587.818C132.576 588.047 132.731 588.306 132.835 588.595C132.94 588.884 132.992 589.213 132.992 589.582C132.992 589.947 132.928 590.28 132.799 590.581C132.675 590.878 132.492 591.135 132.251 591.352C132.011 591.565 131.72 591.729 131.378 591.846C131.041 591.962 130.664 592.02 130.246 592.02C129.841 592.02 129.458 591.964 129.096 591.852C128.735 591.735 128.416 591.561 128.139 591.328C127.866 591.091 127.652 590.792 127.495 590.431C127.338 590.066 127.26 589.634 127.26 589.136H129.024C129.024 589.401 129.05 589.628 129.103 589.817C129.155 590.001 129.235 590.15 129.343 590.262C129.452 590.371 129.584 590.453 129.741 590.509C129.901 590.561 130.084 590.587 130.289 590.587C130.521 590.587 130.706 590.543 130.843 590.455C130.983 590.367 131.083 590.248 131.144 590.1C131.204 589.951 131.234 589.783 131.234 589.594ZM138.122 583.134H139.88V589.154C139.88 589.829 139.755 590.379 139.506 590.804C139.262 591.226 138.922 591.535 138.489 591.731C138.055 591.924 137.56 592.02 137.002 592.02C136.44 592.02 135.94 591.924 135.503 591.731C135.065 591.535 134.724 591.226 134.479 590.804C134.238 590.379 134.118 589.829 134.118 589.154V583.134H135.876V589.154C135.876 589.536 135.918 589.829 136.002 590.033C136.091 590.238 136.217 590.379 136.382 590.455C136.55 590.527 136.757 590.563 137.002 590.563C137.251 590.563 137.455 590.527 137.616 590.455C137.78 590.379 137.905 590.238 137.989 590.033C138.077 589.829 138.122 589.536 138.122 589.154V583.134ZM144.215 588.811H142.42V587.348H144.215C144.463 587.348 144.666 587.292 144.823 587.18C144.983 587.067 145.1 586.913 145.172 586.716C145.244 586.515 145.28 586.291 145.28 586.042C145.28 585.789 145.242 585.554 145.166 585.337C145.094 585.117 144.979 584.938 144.823 584.801C144.67 584.665 144.467 584.597 144.215 584.597H142.986V591.9H141.228V583.134H144.215C144.805 583.134 145.312 583.258 145.738 583.507C146.163 583.756 146.488 584.099 146.713 584.537C146.942 584.97 147.056 585.468 147.056 586.03C147.056 586.596 146.942 587.087 146.713 587.505C146.488 587.918 146.163 588.239 145.738 588.468C145.312 588.697 144.805 588.811 144.215 588.811ZM151.223 588.811H149.429V587.348H151.223C151.472 587.348 151.674 587.292 151.831 587.18C151.991 587.067 152.108 586.913 152.18 586.716C152.252 586.515 152.288 586.291 152.288 586.042C152.288 585.789 152.25 585.554 152.174 585.337C152.102 585.117 151.987 584.938 151.831 584.801C151.678 584.665 151.476 584.597 151.223 584.597H149.995V591.9H148.236V583.134H151.223C151.813 583.134 152.321 583.258 152.746 583.507C153.171 583.756 153.497 584.099 153.721 584.537C153.95 584.97 154.065 585.468 154.065 586.03C154.065 586.596 153.95 587.087 153.721 587.505C153.497 587.918 153.171 588.239 152.746 588.468C152.321 588.697 151.813 588.811 151.223 588.811ZM161.404 586.836V588.299C161.404 588.918 161.328 589.459 161.175 589.925C161.027 590.387 160.814 590.774 160.537 591.087C160.264 591.396 159.933 591.629 159.543 591.786C159.158 591.942 158.731 592.02 158.261 592.02C157.791 592.02 157.362 591.942 156.973 591.786C156.587 591.629 156.254 591.396 155.973 591.087C155.696 590.774 155.481 590.387 155.329 589.925C155.176 589.459 155.1 588.918 155.1 588.299V586.836C155.1 586.202 155.174 585.648 155.323 585.175C155.471 584.697 155.686 584.3 155.967 583.983C156.248 583.662 156.581 583.421 156.967 583.26C157.352 583.096 157.779 583.013 158.249 583.013C158.719 583.013 159.146 583.096 159.531 583.26C159.917 583.421 160.25 583.662 160.531 583.983C160.812 584.3 161.027 584.697 161.175 585.175C161.328 585.648 161.404 586.202 161.404 586.836ZM159.652 588.299V586.824C159.652 586.407 159.622 586.052 159.562 585.759C159.501 585.462 159.411 585.219 159.291 585.03C159.17 584.842 159.024 584.703 158.851 584.615C158.678 584.526 158.478 584.482 158.249 584.482C158.02 584.482 157.818 584.526 157.641 584.615C157.468 584.703 157.322 584.842 157.201 585.03C157.085 585.219 156.997 585.462 156.936 585.759C156.88 586.052 156.852 586.407 156.852 586.824V588.299C156.852 588.701 156.882 589.044 156.942 589.329C157.003 589.614 157.093 589.847 157.213 590.027C157.334 590.208 157.48 590.343 157.653 590.431C157.83 590.515 158.032 590.557 158.261 590.557C158.486 590.557 158.684 590.515 158.857 590.431C159.034 590.343 159.18 590.208 159.297 590.027C159.413 589.847 159.501 589.614 159.562 589.329C159.622 589.044 159.652 588.701 159.652 588.299ZM162.692 583.134H165.504C166.09 583.134 166.59 583.234 167.003 583.435C167.417 583.635 167.734 583.932 167.954 584.326C168.175 584.719 168.286 585.205 168.286 585.783C168.286 586.256 168.221 586.662 168.093 586.999C167.964 587.332 167.782 587.611 167.545 587.836C167.308 588.057 167.025 588.233 166.696 588.366L166.16 588.685H163.878L163.872 587.222H165.456C165.697 587.222 165.895 587.17 166.052 587.065C166.212 586.957 166.331 586.806 166.407 586.614C166.487 586.417 166.528 586.188 166.528 585.927C166.528 585.65 166.491 585.414 166.419 585.217C166.351 585.016 166.241 584.864 166.088 584.759C165.94 584.651 165.745 584.597 165.504 584.597H164.456V591.9H162.692V583.134ZM166.672 591.9L165.064 587.992L166.913 587.986L168.557 591.816V591.9H166.672ZM172.693 583.134V591.9H170.941V583.134H172.693ZM174.872 583.134V584.597H168.803V583.134H174.872Z" fill="white"/>
<rect x="96.5" y="0.399902" width="108" height="108" rx="54" fill="#182030"/>
<path d="M115.742 60.3999H113.632L113.649 58.4137H115.742C116.322 58.4137 116.773 58.3098 117.096 58.1019C117.419 57.8939 117.646 57.5657 117.777 57.117C117.914 56.6683 117.982 56.0801 117.982 55.3524V53.4894C117.982 52.9367 117.947 52.4689 117.875 52.0859C117.804 51.6974 117.684 51.3856 117.514 51.1503C117.345 50.9095 117.118 50.7317 116.833 50.6168C116.549 50.5019 116.196 50.4445 115.774 50.4445H113.591V48.4501H115.774C116.464 48.4501 117.09 48.5623 117.654 48.7866C118.217 49.0109 118.702 49.3392 119.107 49.7715C119.511 50.1983 119.823 50.7263 120.042 51.3555C120.261 51.9847 120.37 52.7015 120.37 53.5058V55.3524C120.37 56.1622 120.261 56.879 120.042 57.5027C119.823 58.1265 119.511 58.6545 119.107 59.0867C118.707 59.5135 118.223 59.8391 117.654 60.0634C117.085 60.2877 116.447 60.3999 115.742 60.3999ZM115.027 48.4501V60.3999H112.623V48.4501H115.027ZM124.622 48.4501V60.3999H122.233V48.4501H124.622ZM131.729 57.2565C131.729 57.0431 131.71 56.8489 131.672 56.6738C131.634 56.4987 131.551 56.3373 131.426 56.1896C131.305 56.0418 131.127 55.8941 130.892 55.7464C130.662 55.5986 130.361 55.4454 129.989 55.2868C129.546 55.1007 129.117 54.9038 128.701 54.6958C128.285 54.4825 127.91 54.2362 127.576 53.9572C127.243 53.6781 126.977 53.3498 126.78 52.9723C126.589 52.5893 126.493 52.1406 126.493 51.6263C126.493 51.1229 126.583 50.6661 126.764 50.2557C126.95 49.8453 127.213 49.4952 127.552 49.2052C127.891 48.9097 128.288 48.6826 128.742 48.524C129.201 48.3653 129.713 48.286 130.277 48.286C131.043 48.286 131.705 48.4446 132.263 48.762C132.826 49.0793 133.261 49.5143 133.568 50.0669C133.88 50.6196 134.036 51.2543 134.036 51.971H131.639C131.639 51.6318 131.59 51.3336 131.491 51.0764C131.398 50.8138 131.248 50.6086 131.04 50.4609C130.832 50.3132 130.564 50.2393 130.236 50.2393C129.929 50.2393 129.675 50.3022 129.472 50.4281C129.275 50.5484 129.128 50.7153 129.029 50.9287C128.936 51.1366 128.89 51.3719 128.89 51.6345C128.89 51.8315 128.936 52.0093 129.029 52.168C129.128 52.3212 129.262 52.4607 129.431 52.5866C129.601 52.7069 129.801 52.8246 130.03 52.9395C130.266 53.0544 130.523 53.1666 130.802 53.276C131.344 53.4894 131.822 53.7246 132.238 53.9818C132.654 54.2335 133.001 54.518 133.28 54.8354C133.56 55.1472 133.77 55.5002 133.912 55.8941C134.055 56.2881 134.126 56.7367 134.126 57.2401C134.126 57.738 134.038 58.1921 133.863 58.6025C133.694 59.0074 133.445 59.3576 133.116 59.653C132.788 59.943 132.391 60.1674 131.926 60.326C131.467 60.4847 130.952 60.564 130.383 60.564C129.831 60.564 129.308 60.4874 128.816 60.3342C128.323 60.1756 127.888 59.9376 127.511 59.6202C127.139 59.2974 126.846 58.8898 126.633 58.3973C126.419 57.8994 126.312 57.3112 126.312 56.6328H128.717C128.717 56.9939 128.753 57.303 128.824 57.5602C128.895 57.8119 129.004 58.0143 129.152 58.1675C129.3 58.3153 129.481 58.4274 129.694 58.504C129.913 58.5752 130.162 58.6107 130.441 58.6107C130.758 58.6107 131.01 58.5505 131.196 58.4302C131.387 58.3098 131.524 58.1484 131.606 57.9459C131.688 57.7435 131.729 57.5137 131.729 57.2565ZM141.447 56.4194H143.835C143.802 57.3167 143.622 58.0745 143.293 58.6928C142.965 59.3056 142.497 59.7707 141.89 60.088C141.288 60.4054 140.56 60.564 139.707 60.564C139.045 60.564 138.457 60.4546 137.942 60.2358C137.428 60.0114 136.99 59.6831 136.629 59.2509C136.268 58.8186 135.994 58.2852 135.808 57.6505C135.628 57.0103 135.537 56.2744 135.537 55.4427V53.4155C135.537 52.5838 135.633 51.8479 135.825 51.2077C136.022 50.5676 136.301 50.0314 136.662 49.5991C137.028 49.1614 137.469 48.8331 137.983 48.6142C138.503 48.3899 139.088 48.2777 139.74 48.2777C140.61 48.2777 141.337 48.4419 141.923 48.7702C142.508 49.0985 142.96 49.5772 143.277 50.2065C143.6 50.8302 143.794 51.5935 143.86 52.4963H141.463C141.447 51.9273 141.381 51.4813 141.266 51.1585C141.157 50.8302 140.982 50.6004 140.741 50.4691C140.5 50.3323 140.166 50.2639 139.74 50.2639C139.422 50.2639 139.149 50.3214 138.919 50.4363C138.689 50.5457 138.5 50.7235 138.353 50.9697C138.205 51.216 138.095 51.5388 138.024 51.9382C137.959 52.3376 137.926 52.8246 137.926 53.3991V55.4427C137.926 56.0063 137.956 56.4878 138.016 56.8872C138.076 57.2811 138.172 57.604 138.303 57.8556C138.435 58.1073 138.612 58.2906 138.837 58.4055C139.067 58.5204 139.357 58.5779 139.707 58.5779C140.112 58.5779 140.437 58.5177 140.683 58.3973C140.935 58.277 141.121 58.0608 141.242 57.749C141.362 57.4371 141.43 56.9939 141.447 56.4194ZM153.733 53.4976V55.4919C153.733 56.3346 153.629 57.0732 153.421 57.7079C153.219 58.3371 152.929 58.8651 152.551 59.2919C152.179 59.7132 151.728 60.0306 151.197 60.244C150.672 60.4574 150.089 60.564 149.449 60.564C148.809 60.564 148.223 60.4574 147.692 60.244C147.167 60.0306 146.713 59.7132 146.33 59.2919C145.953 58.8651 145.66 58.3371 145.452 57.7079C145.244 57.0732 145.14 56.3346 145.14 55.4919V53.4976C145.14 52.6331 145.241 51.878 145.444 51.2324C145.646 50.5813 145.939 50.0396 146.322 49.6073C146.705 49.1696 147.159 48.8413 147.684 48.6225C148.21 48.3981 148.792 48.286 149.432 48.286C150.073 48.286 150.655 48.3981 151.181 48.6225C151.706 48.8413 152.16 49.1696 152.543 49.6073C152.926 50.0396 153.219 50.5813 153.421 51.2324C153.629 51.878 153.733 52.6331 153.733 53.4976ZM151.345 55.4919V53.4812C151.345 52.9121 151.304 52.4279 151.222 52.0285C151.14 51.6236 151.016 51.2926 150.852 51.0354C150.688 50.7782 150.488 50.5895 150.253 50.4691C150.018 50.3487 149.744 50.2885 149.432 50.2885C149.121 50.2885 148.844 50.3487 148.603 50.4691C148.368 50.5895 148.168 50.7782 148.004 51.0354C147.846 51.2926 147.725 51.6236 147.643 52.0285C147.567 52.4279 147.528 52.9121 147.528 53.4812V55.4919C147.528 56.0391 147.569 56.5069 147.651 56.8954C147.734 57.2839 147.857 57.6012 148.021 57.8474C148.185 58.0937 148.385 58.277 148.62 58.3973C148.861 58.5122 149.137 58.5697 149.449 58.5697C149.755 58.5697 150.026 58.5122 150.261 58.3973C150.502 58.277 150.702 58.0937 150.86 57.8474C151.019 57.6012 151.14 57.2839 151.222 56.8954C151.304 56.5069 151.345 56.0391 151.345 55.4919ZM159.019 57.8474L161.284 48.4501H163.877L160.414 60.3999H158.666L159.019 57.8474ZM157.082 48.4501L159.339 57.8474L159.708 60.3999H157.952L154.513 48.4501H157.082ZM171.871 58.4137V60.3999H166.676V58.4137H171.871ZM167.423 48.4501V60.3999H165.018V48.4501H167.423ZM171.173 53.2924V55.2211H166.676V53.2924H171.173ZM171.855 48.4501V50.4445H166.676V48.4501H171.855ZM173.283 48.4501H177.116C177.914 48.4501 178.596 48.5869 179.159 48.8605C179.723 49.134 180.155 49.5389 180.456 50.0751C180.757 50.6114 180.907 51.2734 180.907 52.0613C180.907 52.7069 180.82 53.2596 180.645 53.7192C180.47 54.1733 180.221 54.5536 179.898 54.86C179.575 55.1609 179.189 55.4017 178.741 55.5822L178.01 56.0172H174.9L174.891 54.0228H177.05C177.378 54.0228 177.649 53.9517 177.862 53.8095C178.081 53.6617 178.243 53.4565 178.347 53.1939C178.456 52.9258 178.511 52.6139 178.511 52.2583C178.511 51.8807 178.462 51.5579 178.363 51.2898C178.27 51.0162 178.12 50.8083 177.912 50.6661C177.709 50.5183 177.444 50.4445 177.116 50.4445H175.687V60.3999H173.283V48.4501ZM178.708 60.3999L176.516 55.0734L179.036 55.0652L181.277 60.285V60.3999H178.708ZM183.96 48.4501L185.782 53.8341L187.588 48.4501H190.206L186.989 56.0583V60.3999H184.568V56.0583L181.351 48.4501H183.96Z" fill="white"/>
</svg>
