<svg width="617" height="301" viewBox="0 0 617 301" fill="none" xmlns="http://www.w3.org/2000/svg">
<rect y="96.7139" width="108" height="108" rx="54" fill="#182030"/>
<path d="M19.2415 156.714H17.1322L17.1487 154.728H19.2415C19.8215 154.728 20.2729 154.624 20.5957 154.416C20.9185 154.208 21.1456 153.88 21.2769 153.431C21.4137 152.982 21.4821 152.394 21.4821 151.666V149.803C21.4821 149.251 21.4465 148.783 21.3754 148.4C21.3043 148.011 21.1839 147.7 21.0143 147.464C20.8447 147.224 20.6176 147.046 20.3331 146.931C20.0486 146.816 19.6957 146.758 19.2743 146.758H17.0912V144.764H19.2743C19.9638 144.764 20.5902 144.876 21.1538 145.101C21.7174 145.325 22.2016 145.653 22.6065 146.085C23.0114 146.512 23.3233 147.04 23.5421 147.669C23.761 148.299 23.8704 149.015 23.8704 149.82V151.666C23.8704 152.476 23.761 153.193 23.5421 153.817C23.3233 154.44 23.0114 154.968 22.6065 155.401C22.2071 155.827 21.7229 156.153 21.1538 156.377C20.5848 156.602 19.9473 156.714 19.2415 156.714ZM18.5275 144.764V156.714H16.1228V144.764H18.5275ZM28.1218 144.764V156.714H25.7335V144.764H28.1218ZM35.2293 153.57C35.2293 153.357 35.2102 153.163 35.1719 152.988C35.1336 152.813 35.0515 152.651 34.9256 152.504C34.8053 152.356 34.6274 152.208 34.3922 152.06C34.1624 151.913 33.8614 151.759 33.4894 151.601C33.0462 151.415 32.6167 151.218 32.2008 151.01C31.785 150.796 31.4102 150.55 31.0764 150.271C30.7427 149.992 30.4773 149.664 30.2803 149.286C30.0888 148.903 29.9931 148.455 29.9931 147.94C29.9931 147.437 30.0833 146.98 30.2639 146.57C30.4499 146.159 30.7126 145.809 31.0518 145.519C31.391 145.224 31.7877 144.997 32.2419 144.838C32.7015 144.679 33.213 144.6 33.7766 144.6C34.5426 144.6 35.2047 144.759 35.7628 145.076C36.3263 145.393 36.7613 145.828 37.0677 146.381C37.3796 146.934 37.5355 147.568 37.5355 148.285H35.139C35.139 147.946 35.0898 147.648 34.9913 147.39C34.8983 147.128 34.7478 146.923 34.5399 146.775C34.332 146.627 34.0639 146.553 33.7356 146.553C33.4292 146.553 33.1747 146.616 32.9723 146.742C32.7753 146.862 32.6276 147.029 32.5291 147.243C32.4361 147.451 32.3896 147.686 32.3896 147.948C32.3896 148.145 32.4361 148.323 32.5291 148.482C32.6276 148.635 32.7616 148.775 32.9313 148.901C33.1009 149.021 33.3006 149.139 33.5304 149.253C33.7657 149.368 34.0228 149.481 34.3019 149.59C34.8436 149.803 35.3223 150.039 35.7382 150.296C36.154 150.547 36.5014 150.832 36.7805 151.149C37.0595 151.461 37.2702 151.814 37.4124 152.208C37.5547 152.602 37.6258 153.051 37.6258 153.554C37.6258 154.052 37.5383 154.506 37.3632 154.916C37.1936 155.321 36.9446 155.672 36.6163 155.967C36.288 156.257 35.8914 156.481 35.4263 156.64C34.9667 156.799 34.4523 156.878 33.8833 156.878C33.3307 156.878 32.8082 156.801 32.3157 156.648C31.8233 156.49 31.3883 156.252 31.0108 155.934C30.6387 155.611 30.346 155.204 30.1326 154.711C29.9192 154.213 29.8125 153.625 29.8125 152.947H32.2172C32.2172 153.308 32.2528 153.617 32.3239 153.874C32.3951 154.126 32.5045 154.328 32.6522 154.481C32.7999 154.629 32.9805 154.741 33.1939 154.818C33.4128 154.889 33.6617 154.925 33.9408 154.925C34.2581 154.925 34.5098 154.864 34.6958 154.744C34.8873 154.624 35.0241 154.462 35.1062 154.26C35.1883 154.057 35.2293 153.828 35.2293 153.57ZM44.9467 152.733H47.335C47.3022 153.631 47.1217 154.388 46.7934 155.007C46.4651 155.62 45.9973 156.085 45.3899 156.402C44.788 156.719 44.0603 156.878 43.2068 156.878C42.5447 156.878 41.9565 156.769 41.4422 156.55C40.9279 156.325 40.4902 155.997 40.129 155.565C39.7679 155.133 39.4944 154.599 39.3083 153.964C39.1278 153.324 39.0375 152.588 39.0375 151.757V149.729C39.0375 148.898 39.1332 148.162 39.3247 147.522C39.5217 146.882 39.8008 146.345 40.1619 145.913C40.5285 145.475 40.9689 145.147 41.4833 144.928C42.003 144.704 42.5885 144.592 43.2396 144.592C44.1096 144.592 44.8373 144.756 45.4227 145.084C46.0082 145.412 46.4596 145.891 46.7769 146.52C47.0998 147.144 47.294 147.907 47.3597 148.81H44.9631C44.9467 148.241 44.8811 147.795 44.7662 147.472C44.6567 147.144 44.4816 146.914 44.2409 146.783C44.0002 146.646 43.6664 146.578 43.2396 146.578C42.9223 146.578 42.6487 146.635 42.4189 146.75C42.1891 146.86 42.0003 147.037 41.8526 147.284C41.7048 147.53 41.5954 147.853 41.5243 148.252C41.4586 148.652 41.4258 149.139 41.4258 149.713V151.757C41.4258 152.32 41.4559 152.802 41.5161 153.201C41.5763 153.595 41.672 153.918 41.8033 154.17C41.9347 154.421 42.1125 154.605 42.3368 154.719C42.5666 154.834 42.8566 154.892 43.2068 154.892C43.6117 154.892 43.9372 154.832 44.1834 154.711C44.4351 154.591 44.6212 154.375 44.7415 154.063C44.8619 153.751 44.9303 153.308 44.9467 152.733ZM57.233 149.812V151.806C57.233 152.649 57.1291 153.387 56.9211 154.022C56.7187 154.651 56.4287 155.179 56.0512 155.606C55.6791 156.027 55.2277 156.345 54.697 156.558C54.1717 156.771 53.589 156.878 52.9488 156.878C52.3087 156.878 51.7232 156.771 51.1925 156.558C50.6672 156.345 50.2131 156.027 49.8301 155.606C49.4525 155.179 49.1598 154.651 48.9519 154.022C48.744 153.387 48.64 152.649 48.64 151.806V149.812C48.64 148.947 48.7412 148.192 48.9437 147.546C49.1461 146.895 49.4388 146.354 49.8218 145.921C50.2049 145.484 50.659 145.155 51.1843 144.936C51.7095 144.712 52.2922 144.6 52.9324 144.6C53.5726 144.6 54.1553 144.712 54.6806 144.936C55.2058 145.155 55.66 145.484 56.043 145.921C56.426 146.354 56.7187 146.895 56.9211 147.546C57.1291 148.192 57.233 148.947 57.233 149.812ZM54.8447 151.806V149.795C54.8447 149.226 54.8037 148.742 54.7216 148.342C54.6395 147.938 54.5164 147.607 54.3523 147.349C54.1881 147.092 53.9884 146.903 53.7531 146.783C53.5179 146.663 53.2443 146.602 52.9324 146.602C52.6205 146.602 52.3442 146.663 52.1035 146.783C51.8682 146.903 51.6685 147.092 51.5043 147.349C51.3457 147.607 51.2253 147.938 51.1432 148.342C51.0666 148.742 51.0283 149.226 51.0283 149.795V151.806C51.0283 152.353 51.0694 152.821 51.1514 153.209C51.2335 153.598 51.3566 153.915 51.5208 154.161C51.6849 154.408 51.8846 154.591 52.1199 154.711C52.3606 154.826 52.6369 154.884 52.9488 154.884C53.2552 154.884 53.5261 154.826 53.7613 154.711C54.0021 154.591 54.2018 154.408 54.3605 154.161C54.5191 153.915 54.6395 153.598 54.7216 153.209C54.8037 152.821 54.8447 152.353 54.8447 151.806ZM62.5185 154.161L64.7837 144.764H67.3772L63.9137 156.714H62.1656L62.5185 154.161ZM60.5816 144.764L62.8386 154.161L63.2079 156.714H61.4516L58.0127 144.764H60.5816ZM75.3711 154.728V156.714H70.1759V154.728H75.3711ZM70.9228 144.764V156.714H68.518V144.764H70.9228ZM74.6735 149.606V151.535H70.1759V149.606H74.6735ZM75.3547 144.764V146.758H70.1759V144.764H75.3547ZM76.7828 144.764H80.6156C81.4144 144.764 82.0956 144.901 82.6592 145.174C83.2227 145.448 83.655 145.853 83.9559 146.389C84.2569 146.925 84.4073 147.587 84.4073 148.375C84.4073 149.021 84.3198 149.574 84.1447 150.033C83.9696 150.487 83.7207 150.868 83.3978 151.174C83.075 151.475 82.6893 151.716 82.2406 151.896L81.5102 152.331H78.3996L78.3914 150.337H80.5499C80.8782 150.337 81.149 150.266 81.3624 150.123C81.5813 149.976 81.7427 149.771 81.8467 149.508C81.9561 149.24 82.0108 148.928 82.0108 148.572C82.0108 148.195 81.9616 147.872 81.8631 147.604C81.7701 147.33 81.6196 147.122 81.4117 146.98C81.2092 146.832 80.9439 146.758 80.6156 146.758H79.1875V156.714H76.7828V144.764ZM82.2078 156.714L80.0164 151.387L82.5361 151.379L84.7767 156.599V156.714H82.2078ZM87.4604 144.764L89.2825 150.148L91.0881 144.764H93.7062L90.4889 152.372V156.714H88.0678V152.372L84.8505 144.764H87.4604Z" fill="white"/>
<rect x="108" y="0.713867" width="300" height="300" rx="150" fill="#FF0049"/>
<path d="M236.35 129.866L232.987 142.714H229.668L234.556 127.073H236.629L236.35 129.866ZM239.003 142.714L235.619 129.866L235.308 127.073H237.413L242.344 142.714H239.003ZM239.121 136.881V139.491H232.063V136.881H239.121ZM254.225 134.496V140.941C254.003 141.178 253.677 141.453 253.247 141.769C252.825 142.076 252.27 142.349 251.582 142.585C250.902 142.814 250.071 142.929 249.09 142.929C248.223 142.929 247.436 142.793 246.727 142.521C246.025 142.248 245.42 141.837 244.911 141.285C244.41 140.727 244.027 140.032 243.762 139.201C243.497 138.363 243.364 137.371 243.364 136.226V133.562C243.364 132.43 243.49 131.445 243.74 130.607C243.998 129.762 244.37 129.061 244.857 128.502C245.344 127.943 245.924 127.528 246.598 127.256C247.278 126.984 248.044 126.848 248.896 126.848C250.071 126.848 251.034 127.045 251.786 127.438C252.545 127.832 253.118 128.416 253.505 129.189C253.899 129.963 254.135 130.912 254.214 132.036H251.174C251.124 131.377 251.013 130.862 250.841 130.489C250.676 130.117 250.443 129.852 250.143 129.694C249.842 129.53 249.451 129.447 248.972 129.447C248.556 129.447 248.195 129.522 247.887 129.673C247.579 129.816 247.321 130.052 247.113 130.382C246.906 130.711 246.752 131.134 246.651 131.649C246.551 132.165 246.501 132.795 246.501 133.54V136.226C246.501 136.963 246.558 137.593 246.673 138.116C246.787 138.639 246.956 139.065 247.178 139.395C247.407 139.724 247.693 139.964 248.037 140.114C248.388 140.257 248.8 140.329 249.272 140.329C249.652 140.329 249.956 140.29 250.186 140.211C250.415 140.132 250.597 140.05 250.733 139.964C250.877 139.871 250.995 139.799 251.088 139.749V136.87H248.843V134.496H254.225ZM259.757 127.073V142.714H256.631V127.073H259.757ZM271.122 140.114V142.714H264.623V140.114H271.122ZM265.59 127.073V142.714H262.442V127.073H265.59ZM281.939 140.114V142.714H275.14V140.114H281.939ZM276.117 127.073V142.714H272.97V127.073H276.117ZM281.026 133.411V135.936H275.14V133.411H281.026ZM281.918 127.073V129.684H275.14V127.073H281.918ZM196.356 174.714H193.596L193.617 172.114H196.356C197.116 172.114 197.706 171.978 198.129 171.706C198.551 171.434 198.849 171.004 199.021 170.417C199.2 169.83 199.289 169.06 199.289 168.107V165.669C199.289 164.946 199.243 164.333 199.149 163.832C199.056 163.324 198.899 162.915 198.677 162.607C198.455 162.292 198.158 162.06 197.785 161.909C197.413 161.759 196.951 161.684 196.399 161.684H193.542V159.073H196.399C197.302 159.073 198.122 159.22 198.859 159.514C199.597 159.807 200.231 160.237 200.761 160.803C201.291 161.361 201.699 162.052 201.985 162.876C202.272 163.7 202.415 164.638 202.415 165.69V168.107C202.415 169.167 202.272 170.105 201.985 170.922C201.699 171.738 201.291 172.429 200.761 172.995C200.238 173.554 199.604 173.98 198.859 174.273C198.115 174.567 197.28 174.714 196.356 174.714ZM195.422 159.073V174.714H192.274V159.073H195.422ZM213.684 172.114V174.714H206.884V172.114H213.684ZM207.861 159.073V174.714H204.714V159.073H207.861ZM212.771 165.411V167.936H206.884V165.411H212.771ZM213.662 159.073V161.684H206.884V159.073H213.662ZM220.387 171.373L223.352 159.073H226.746L222.213 174.714H219.925L220.387 171.373ZM217.852 159.073L220.806 171.373L221.289 174.714H218.99L214.489 159.073H217.852ZM237.209 172.114V174.714H230.409V172.114H237.209ZM231.387 159.073V174.714H228.239V159.073H231.387ZM236.296 165.411V167.936H230.409V165.411H236.296ZM237.188 159.073V161.684H230.409V159.073H237.188ZM247.726 172.114V174.714H241.227V172.114H247.726ZM242.193 159.073V174.714H239.046V159.073H242.193ZM259.875 165.68V168.29C259.875 169.393 259.739 170.36 259.467 171.19C259.202 172.014 258.822 172.705 258.328 173.264C257.841 173.815 257.25 174.23 256.556 174.51C255.868 174.789 255.105 174.929 254.268 174.929C253.43 174.929 252.663 174.789 251.969 174.51C251.281 174.23 250.687 173.815 250.186 173.264C249.691 172.705 249.308 172.014 249.036 171.19C248.764 170.36 248.628 169.393 248.628 168.29V165.68C248.628 164.548 248.76 163.56 249.025 162.715C249.29 161.863 249.674 161.154 250.175 160.588C250.676 160.015 251.271 159.585 251.958 159.299C252.646 159.005 253.408 158.858 254.246 158.858C255.084 158.858 255.847 159.005 256.534 159.299C257.222 159.585 257.816 160.015 258.317 160.588C258.819 161.154 259.202 161.863 259.467 162.715C259.739 163.56 259.875 164.548 259.875 165.68ZM256.749 168.29V165.658C256.749 164.913 256.695 164.28 256.588 163.757C256.48 163.227 256.319 162.794 256.104 162.457C255.89 162.12 255.628 161.873 255.32 161.716C255.012 161.558 254.654 161.479 254.246 161.479C253.838 161.479 253.476 161.558 253.161 161.716C252.853 161.873 252.592 162.12 252.377 162.457C252.169 162.794 252.012 163.227 251.904 163.757C251.804 164.28 251.754 164.913 251.754 165.658V168.29C251.754 169.006 251.808 169.618 251.915 170.127C252.022 170.635 252.184 171.051 252.398 171.373C252.613 171.695 252.875 171.935 253.183 172.093C253.498 172.243 253.859 172.318 254.268 172.318C254.669 172.318 255.023 172.243 255.331 172.093C255.646 171.935 255.908 171.695 256.115 171.373C256.323 171.051 256.48 170.635 256.588 170.127C256.695 169.618 256.749 169.006 256.749 168.29ZM267.491 169.203H264.29V166.593H267.491C267.935 166.593 268.297 166.493 268.576 166.292C268.863 166.091 269.07 165.816 269.199 165.465C269.328 165.107 269.393 164.706 269.393 164.262C269.393 163.811 269.325 163.392 269.188 163.005C269.06 162.611 268.855 162.292 268.576 162.049C268.304 161.805 267.942 161.684 267.491 161.684H265.3V174.714H262.163V159.073H267.491C268.544 159.073 269.45 159.295 270.209 159.739C270.968 160.183 271.548 160.796 271.949 161.576C272.357 162.35 272.562 163.238 272.562 164.24C272.562 165.25 272.357 166.127 271.949 166.872C271.548 167.61 270.968 168.183 270.209 168.591C269.45 168.999 268.544 169.203 267.491 169.203ZM275.784 159.073H278.545L281.735 169.772L284.915 159.073H287.354L282.906 174.714H280.554L275.784 159.073ZM274.667 159.073H277.299L277.707 169.386V174.714H274.667V159.073ZM286.15 159.073H288.793V174.714H285.764V169.386L286.15 159.073ZM300.33 172.114V174.714H293.53V172.114H300.33ZM294.508 159.073V174.714H291.36V159.073H294.508ZM299.417 165.411V167.936H293.53V165.411H299.417ZM300.309 159.073V161.684H293.53V159.073H300.309ZM313.103 159.073V174.714H310.062L305.153 164.928V174.714H302.167V159.073H305.164L310.116 168.967V159.073H313.103ZM321.546 159.073V174.714H318.42V159.073H321.546ZM325.435 159.073V161.684H314.606V159.073H325.435Z" fill="#182030"/>
<rect x="408" y="82.7139" width="136" height="136" rx="68" fill="#00D0F6"/>
<path d="M460.321 136.44L457.865 145.824H455.441L459.011 134.4H460.525L460.321 136.44ZM462.259 145.824L459.787 136.44L459.56 134.4H461.098L464.699 145.824H462.259ZM462.345 141.563V143.47H457.19V141.563H462.345ZM473.377 139.822V144.529C473.215 144.702 472.977 144.903 472.663 145.134C472.355 145.358 471.949 145.557 471.447 145.73C470.95 145.897 470.343 145.981 469.627 145.981C468.994 145.981 468.418 145.882 467.9 145.683C467.388 145.484 466.946 145.183 466.574 144.78C466.208 144.372 465.928 143.865 465.735 143.258C465.541 142.646 465.445 141.922 465.445 141.085V139.139C465.445 138.312 465.536 137.593 465.719 136.981C465.908 136.364 466.18 135.851 466.535 135.443C466.891 135.035 467.315 134.732 467.806 134.533C468.303 134.334 468.863 134.235 469.485 134.235C470.343 134.235 471.047 134.379 471.596 134.667C472.151 134.954 472.569 135.381 472.851 135.946C473.139 136.51 473.312 137.204 473.369 138.025H471.149C471.112 137.544 471.031 137.167 470.906 136.895C470.785 136.623 470.615 136.429 470.396 136.314C470.176 136.194 469.891 136.134 469.54 136.134C469.237 136.134 468.973 136.189 468.748 136.299C468.523 136.403 468.335 136.576 468.183 136.816C468.031 137.057 467.919 137.366 467.846 137.742C467.772 138.119 467.736 138.579 467.736 139.123V141.085C467.736 141.624 467.778 142.084 467.861 142.466C467.945 142.848 468.068 143.159 468.23 143.399C468.397 143.64 468.607 143.815 468.858 143.925C469.114 144.03 469.415 144.082 469.76 144.082C470.037 144.082 470.26 144.053 470.427 143.996C470.594 143.938 470.728 143.878 470.827 143.815C470.932 143.747 471.018 143.695 471.086 143.658V141.556H469.446V139.822H473.377ZM477.418 134.4V145.824H475.135V134.4H477.418ZM485.719 143.925V145.824H480.972V143.925H485.719ZM481.679 134.4V145.824H479.38V134.4H481.679ZM493.621 143.925V145.824H488.654V143.925H493.621ZM489.368 134.4V145.824H487.069V134.4H489.368ZM492.954 139.029V140.873H488.654V139.029H492.954ZM493.605 134.4V136.306H488.654V134.4H493.605ZM428.748 155.4H430.764L433.094 163.215L435.417 155.4H437.198L433.95 166.824H432.231L428.748 155.4ZM427.932 155.4H429.854L430.152 162.932V166.824H427.932V155.4ZM436.319 155.4H438.249V166.824H436.037V162.932L436.319 155.4ZM444.401 157.44L441.945 166.824H439.521L443.091 155.4H444.605L444.401 157.44ZM446.339 166.824L443.867 157.44L443.64 155.4H445.178L448.779 166.824H446.339ZM446.425 162.563V164.47H441.27V162.563H446.425ZM452.255 155.4V166.824H449.972V155.4H452.255ZM462.204 155.4V166.824H459.984L456.398 159.676V166.824H454.217V155.4H456.406L460.023 162.626V155.4H462.204ZM468.371 155.4V166.824H466.088V155.4H468.371ZM471.212 155.4V157.306H463.303V155.4H471.212ZM479.097 164.925V166.824H474.13V164.925H479.097ZM474.844 155.4V166.824H472.545V155.4H474.844ZM478.43 160.029V161.873H474.13V160.029H478.43ZM479.081 155.4V157.306H474.13V155.4H479.081ZM488.426 155.4V166.824H486.206L482.62 159.676V166.824H480.439V155.4H482.628L486.245 162.626V155.4H488.426ZM494.554 157.44L492.098 166.824H489.674L493.244 155.4H494.758L494.554 157.44ZM496.492 166.824L494.021 157.44L493.793 155.4H495.331L498.932 166.824H496.492ZM496.579 162.563V164.47H491.424V162.563H496.579ZM508.011 155.4V166.824H505.79L502.204 159.676V166.824H500.023V155.4H502.212L505.829 162.626V155.4H508.011ZM515.308 163.019H517.591C517.56 163.876 517.387 164.601 517.073 165.192C516.759 165.778 516.312 166.222 515.731 166.526C515.156 166.829 514.46 166.981 513.644 166.981C513.011 166.981 512.449 166.876 511.957 166.667C511.466 166.453 511.047 166.139 510.702 165.725C510.357 165.312 510.095 164.802 509.917 164.195C509.745 163.583 509.658 162.88 509.658 162.085V160.147C509.658 159.352 509.75 158.648 509.933 158.036C510.121 157.424 510.388 156.912 510.733 156.498C511.084 156.08 511.505 155.766 511.997 155.557C512.493 155.342 513.053 155.235 513.676 155.235C514.507 155.235 515.203 155.392 515.763 155.706C516.322 156.02 516.754 156.477 517.057 157.079C517.366 157.675 517.552 158.405 517.614 159.268H515.323C515.308 158.724 515.245 158.298 515.135 157.989C515.03 157.675 514.863 157.456 514.633 157.33C514.403 157.199 514.084 157.134 513.676 157.134C513.372 157.134 513.111 157.189 512.891 157.299C512.671 157.403 512.491 157.573 512.35 157.809C512.208 158.044 512.104 158.353 512.036 158.734C511.973 159.116 511.942 159.582 511.942 160.131V162.085C511.942 162.624 511.97 163.084 512.028 163.466C512.085 163.842 512.177 164.151 512.303 164.392C512.428 164.632 512.598 164.807 512.813 164.917C513.032 165.027 513.309 165.082 513.644 165.082C514.031 165.082 514.343 165.025 514.578 164.909C514.819 164.794 514.996 164.588 515.111 164.29C515.227 163.991 515.292 163.568 515.308 163.019ZM525.578 164.925V166.824H520.612V164.925H525.578ZM521.326 155.4V166.824H519.027V155.4H521.326ZM524.911 160.029V161.873H520.612V160.029H524.911ZM525.563 155.4V157.306H520.612V155.4H525.563Z" fill="#182030"/>
<rect x="544" y="114.214" width="73" height="73" rx="36.5" fill="#73909E"/>
<path d="M570.102 142.794H571.854C571.83 143.452 571.698 144.008 571.457 144.462C571.216 144.911 570.873 145.252 570.427 145.485C569.986 145.718 569.452 145.834 568.826 145.834C568.34 145.834 567.909 145.754 567.531 145.593C567.154 145.429 566.833 145.188 566.568 144.871C566.303 144.554 566.102 144.163 565.966 143.697C565.833 143.227 565.767 142.687 565.767 142.077V140.59C565.767 139.98 565.837 139.44 565.978 138.971C566.122 138.501 566.327 138.108 566.592 137.791C566.861 137.469 567.184 137.229 567.561 137.068C567.943 136.903 568.372 136.821 568.85 136.821C569.488 136.821 570.022 136.942 570.451 137.182C570.881 137.423 571.212 137.774 571.445 138.236C571.682 138.694 571.824 139.254 571.872 139.916H570.114C570.102 139.498 570.054 139.171 569.97 138.934C569.889 138.694 569.761 138.525 569.584 138.429C569.408 138.328 569.163 138.278 568.85 138.278C568.617 138.278 568.416 138.32 568.248 138.405C568.079 138.485 567.941 138.615 567.832 138.796C567.724 138.977 567.644 139.213 567.591 139.506C567.543 139.799 567.519 140.157 567.519 140.578V142.077C567.519 142.491 567.541 142.844 567.585 143.137C567.63 143.426 567.7 143.663 567.796 143.847C567.893 144.032 568.023 144.167 568.188 144.251C568.356 144.335 568.569 144.377 568.826 144.377C569.123 144.377 569.362 144.333 569.542 144.245C569.727 144.156 569.863 143.998 569.952 143.769C570.04 143.54 570.09 143.215 570.102 142.794ZM579.115 140.65V142.113C579.115 142.732 579.039 143.273 578.886 143.739C578.738 144.201 578.525 144.588 578.248 144.901C577.975 145.21 577.644 145.443 577.255 145.599C576.869 145.756 576.442 145.834 575.972 145.834C575.503 145.834 575.073 145.756 574.684 145.599C574.299 145.443 573.965 145.21 573.685 144.901C573.408 144.588 573.193 144.201 573.04 143.739C572.888 143.273 572.811 142.732 572.811 142.113V140.65C572.811 140.016 572.886 139.462 573.034 138.989C573.183 138.511 573.398 138.114 573.678 137.797C573.959 137.475 574.293 137.235 574.678 137.074C575.063 136.91 575.491 136.827 575.96 136.827C576.43 136.827 576.857 136.91 577.243 137.074C577.628 137.235 577.961 137.475 578.242 137.797C578.523 138.114 578.738 138.511 578.886 138.989C579.039 139.462 579.115 140.016 579.115 140.65ZM577.363 142.113V140.638C577.363 140.221 577.333 139.866 577.273 139.573C577.213 139.276 577.122 139.033 577.002 138.844C576.882 138.656 576.735 138.517 576.562 138.429C576.39 138.34 576.189 138.296 575.96 138.296C575.732 138.296 575.529 138.34 575.352 138.429C575.18 138.517 575.033 138.656 574.913 138.844C574.796 139.033 574.708 139.276 574.648 139.573C574.592 139.866 574.564 140.221 574.564 140.638V142.113C574.564 142.515 574.594 142.858 574.654 143.143C574.714 143.428 574.804 143.661 574.925 143.841C575.045 144.022 575.192 144.156 575.364 144.245C575.541 144.329 575.744 144.371 575.972 144.371C576.197 144.371 576.396 144.329 576.568 144.245C576.745 144.156 576.892 144.022 577.008 143.841C577.124 143.661 577.213 143.428 577.273 143.143C577.333 142.858 577.363 142.515 577.363 142.113ZM586.527 136.948V145.714H584.823L582.071 140.229V145.714H580.398V136.948H582.077L584.853 142.493V136.948H586.527ZM591.259 136.948V145.714H589.507V136.948H591.259ZM593.439 136.948V138.411H587.37V136.948H593.439ZM592.963 144.853C592.963 144.588 593.051 144.367 593.228 144.191C593.404 144.01 593.643 143.92 593.944 143.92C594.245 143.92 594.484 144.01 594.661 144.191C594.837 144.367 594.926 144.588 594.926 144.853C594.926 145.118 594.837 145.339 594.661 145.515C594.484 145.692 594.245 145.78 593.944 145.78C593.643 145.78 593.404 145.692 593.228 145.515C593.051 145.339 592.963 145.118 592.963 144.853ZM560.734 159.408C560.734 159.251 560.72 159.109 560.692 158.98C560.664 158.852 560.603 158.734 560.511 158.625C560.423 158.517 560.292 158.408 560.12 158.3C559.951 158.192 559.73 158.079 559.457 157.963C559.132 157.826 558.817 157.682 558.512 157.529C558.207 157.373 557.932 157.192 557.687 156.988C557.443 156.783 557.248 156.542 557.103 156.265C556.963 155.984 556.893 155.655 556.893 155.278C556.893 154.908 556.959 154.573 557.091 154.272C557.228 153.971 557.42 153.714 557.669 153.502C557.918 153.285 558.209 153.118 558.542 153.002C558.879 152.885 559.255 152.827 559.668 152.827C560.23 152.827 560.716 152.944 561.125 153.176C561.539 153.409 561.858 153.728 562.083 154.134C562.311 154.539 562.426 155.005 562.426 155.531H560.668C560.668 155.282 560.632 155.063 560.559 154.874C560.491 154.682 560.381 154.531 560.228 154.423C560.076 154.314 559.879 154.26 559.638 154.26C559.413 154.26 559.227 154.306 559.078 154.399C558.934 154.487 558.825 154.609 558.753 154.766C558.685 154.918 558.651 155.091 558.651 155.284C558.651 155.428 558.685 155.559 558.753 155.675C558.825 155.787 558.924 155.89 559.048 155.982C559.172 156.07 559.319 156.157 559.488 156.241C559.66 156.325 559.849 156.408 560.054 156.488C560.451 156.644 560.802 156.817 561.107 157.006C561.412 157.19 561.667 157.399 561.872 157.632C562.076 157.861 562.231 158.119 562.335 158.408C562.44 158.697 562.492 159.027 562.492 159.396C562.492 159.761 562.428 160.094 562.299 160.395C562.175 160.692 561.992 160.949 561.751 161.166C561.511 161.379 561.22 161.543 560.878 161.66C560.541 161.776 560.164 161.834 559.746 161.834C559.341 161.834 558.958 161.778 558.596 161.666C558.235 161.549 557.916 161.375 557.639 161.142C557.366 160.905 557.152 160.606 556.995 160.245C556.838 159.88 556.76 159.448 556.76 158.95H558.524C558.524 159.215 558.55 159.442 558.603 159.631C558.655 159.815 558.735 159.964 558.843 160.076C558.952 160.185 559.084 160.267 559.241 160.323C559.401 160.375 559.584 160.401 559.789 160.401C560.021 160.401 560.206 160.357 560.343 160.269C560.483 160.181 560.583 160.062 560.644 159.914C560.704 159.765 560.734 159.597 560.734 159.408ZM567.622 152.948H569.38V158.968C569.38 159.643 569.255 160.193 569.006 160.618C568.762 161.04 568.422 161.349 567.989 161.545C567.555 161.738 567.06 161.834 566.502 161.834C565.94 161.834 565.44 161.738 565.003 161.545C564.565 161.349 564.224 161.04 563.979 160.618C563.738 160.193 563.618 159.643 563.618 158.968V152.948H565.376V158.968C565.376 159.35 565.418 159.643 565.502 159.847C565.591 160.052 565.717 160.193 565.882 160.269C566.05 160.341 566.257 160.377 566.502 160.377C566.751 160.377 566.955 160.341 567.116 160.269C567.28 160.193 567.405 160.052 567.489 159.847C567.577 159.643 567.622 159.35 567.622 158.968V152.948ZM573.715 158.625H571.92V157.162H573.715C573.963 157.162 574.166 157.106 574.323 156.994C574.483 156.881 574.6 156.727 574.672 156.53C574.744 156.329 574.78 156.105 574.78 155.856C574.78 155.603 574.742 155.368 574.666 155.151C574.594 154.93 574.479 154.752 574.323 154.615C574.17 154.479 573.967 154.411 573.715 154.411H572.486V161.714H570.728V152.948H573.715C574.305 152.948 574.812 153.072 575.238 153.321C575.663 153.57 575.988 153.913 576.213 154.35C576.442 154.784 576.556 155.282 576.556 155.844C576.556 156.41 576.442 156.901 576.213 157.319C575.988 157.732 575.663 158.053 575.238 158.282C574.812 158.511 574.305 158.625 573.715 158.625ZM580.723 158.625H578.929V157.162H580.723C580.972 157.162 581.174 157.106 581.331 156.994C581.491 156.881 581.608 156.727 581.68 156.53C581.752 156.329 581.788 156.105 581.788 155.856C581.788 155.603 581.75 155.368 581.674 155.151C581.602 154.93 581.487 154.752 581.331 154.615C581.178 154.479 580.976 154.411 580.723 154.411H579.495V161.714H577.736V152.948H580.723C581.313 152.948 581.821 153.072 582.246 153.321C582.671 153.57 582.997 153.913 583.221 154.35C583.45 154.784 583.565 155.282 583.565 155.844C583.565 156.41 583.45 156.901 583.221 157.319C582.997 157.732 582.671 158.053 582.246 158.282C581.821 158.511 581.313 158.625 580.723 158.625ZM590.904 156.65V158.113C590.904 158.732 590.828 159.273 590.675 159.739C590.527 160.201 590.314 160.588 590.037 160.901C589.764 161.21 589.433 161.443 589.043 161.599C588.658 161.756 588.231 161.834 587.761 161.834C587.291 161.834 586.862 161.756 586.473 161.599C586.087 161.443 585.754 161.21 585.473 160.901C585.196 160.588 584.981 160.201 584.829 159.739C584.676 159.273 584.6 158.732 584.6 158.113V156.65C584.6 156.016 584.674 155.462 584.823 154.989C584.971 154.511 585.186 154.114 585.467 153.797C585.748 153.475 586.081 153.235 586.467 153.074C586.852 152.91 587.279 152.827 587.749 152.827C588.219 152.827 588.646 152.91 589.031 153.074C589.417 153.235 589.75 153.475 590.031 153.797C590.312 154.114 590.527 154.511 590.675 154.989C590.828 155.462 590.904 156.016 590.904 156.65ZM589.152 158.113V156.638C589.152 156.221 589.122 155.866 589.062 155.573C589.001 155.276 588.911 155.033 588.791 154.844C588.67 154.656 588.524 154.517 588.351 154.429C588.178 154.34 587.978 154.296 587.749 154.296C587.52 154.296 587.318 154.34 587.141 154.429C586.968 154.517 586.822 154.656 586.701 154.844C586.585 155.033 586.497 155.276 586.436 155.573C586.38 155.866 586.352 156.221 586.352 156.638V158.113C586.352 158.515 586.382 158.858 586.442 159.143C586.503 159.428 586.593 159.661 586.713 159.841C586.834 160.022 586.98 160.156 587.153 160.245C587.33 160.329 587.532 160.371 587.761 160.371C587.986 160.371 588.184 160.329 588.357 160.245C588.534 160.156 588.68 160.022 588.797 159.841C588.913 159.661 589.001 159.428 589.062 159.143C589.122 158.858 589.152 158.515 589.152 158.113ZM592.192 152.948H595.004C595.59 152.948 596.09 153.048 596.503 153.249C596.917 153.449 597.234 153.746 597.454 154.14C597.675 154.533 597.786 155.019 597.786 155.597C597.786 156.07 597.721 156.476 597.593 156.813C597.464 157.146 597.282 157.425 597.045 157.65C596.808 157.871 596.525 158.047 596.196 158.18L595.66 158.499H593.378L593.372 157.036H594.956C595.197 157.036 595.395 156.984 595.552 156.879C595.712 156.771 595.831 156.62 595.907 156.428C595.987 156.231 596.028 156.002 596.028 155.741C596.028 155.464 595.991 155.228 595.919 155.031C595.851 154.83 595.741 154.678 595.588 154.573C595.44 154.465 595.245 154.411 595.004 154.411H593.956V161.714H592.192V152.948ZM596.172 161.714L594.564 157.806L596.413 157.8L598.057 161.63V161.714H596.172ZM602.193 152.948V161.714H600.441V152.948H602.193ZM604.372 152.948V154.411H598.303V152.948H604.372Z" fill="white"/>
<rect x="504" y="38.7139" width="64" height="64" rx="32" fill="#2300A6"/>
<path d="M521.677 63.1091C521.677 62.9322 521.661 62.7713 521.629 62.6262C521.598 62.4811 521.53 62.3473 521.425 62.2249C521.326 62.1025 521.178 61.9801 520.983 61.8577C520.793 61.7352 520.543 61.6083 520.235 61.4768C519.868 61.3226 519.512 61.1594 519.167 60.9871C518.823 60.8103 518.512 60.6063 518.236 60.375C517.959 60.1438 517.739 59.8718 517.576 59.5589C517.417 59.2415 517.338 58.8697 517.338 58.4435C517.338 58.0264 517.413 57.6478 517.562 57.3078C517.716 56.9677 517.934 56.6775 518.215 56.4372C518.496 56.1924 518.825 56.0042 519.201 55.8727C519.582 55.7412 520.006 55.6755 520.473 55.6755C521.108 55.6755 521.657 55.807 522.119 56.07C522.586 56.3329 522.946 56.6934 523.2 57.1513C523.459 57.6093 523.588 58.1352 523.588 58.7292H521.602C521.602 58.4481 521.561 58.201 521.48 57.9879C521.403 57.7702 521.278 57.6002 521.106 57.4778C520.933 57.3554 520.711 57.2942 520.439 57.2942C520.185 57.2942 519.974 57.3463 519.807 57.4506C519.643 57.5503 519.521 57.6886 519.439 57.8654C519.362 58.0377 519.324 58.2327 519.324 58.4503C519.324 58.6136 519.362 58.7609 519.439 58.8924C519.521 59.0194 519.632 59.135 519.773 59.2393C519.913 59.339 520.079 59.4365 520.269 59.5317C520.464 59.6269 520.677 59.7199 520.908 59.8105C521.357 59.9874 521.754 60.1823 522.099 60.3954C522.443 60.604 522.731 60.8398 522.962 61.1027C523.194 61.3612 523.368 61.6536 523.486 61.9801C523.604 62.3065 523.663 62.6783 523.663 63.0955C523.663 63.5081 523.59 63.8844 523.445 64.2244C523.305 64.56 523.098 64.8501 522.826 65.095C522.554 65.3353 522.226 65.5212 521.84 65.6527C521.459 65.7841 521.033 65.8499 520.562 65.8499C520.104 65.8499 519.671 65.7864 519.263 65.6595C518.855 65.528 518.494 65.3307 518.181 65.0678C517.873 64.8003 517.63 64.4625 517.454 64.0544C517.277 63.6418 517.188 63.1544 517.188 62.5922H519.181C519.181 62.8914 519.21 63.1476 519.269 63.3607C519.328 63.5693 519.419 63.737 519.541 63.864C519.664 63.9864 519.813 64.0793 519.99 64.1428C520.172 64.2018 520.378 64.2312 520.609 64.2312C520.872 64.2312 521.081 64.1814 521.235 64.0816C521.394 63.9819 521.507 63.8481 521.575 63.6804C521.643 63.5126 521.677 63.3222 521.677 63.1091ZM529.729 62.4154H531.709C531.681 63.1589 531.532 63.7869 531.26 64.2992C530.988 64.8071 530.6 65.1925 530.097 65.4554C529.598 65.7184 528.995 65.8499 528.288 65.8499C527.739 65.8499 527.252 65.7592 526.825 65.5778C526.399 65.392 526.036 65.1199 525.737 64.7617C525.438 64.4035 525.211 63.9615 525.057 63.4355C524.907 62.905 524.833 62.2952 524.833 61.606V59.9262C524.833 59.237 524.912 58.6272 525.071 58.0967C525.234 57.5662 525.465 57.1219 525.764 56.7637C526.068 56.4009 526.433 56.1289 526.859 55.9475C527.29 55.7616 527.775 55.6687 528.315 55.6687C529.036 55.6687 529.639 55.8047 530.124 56.0768C530.609 56.3488 530.983 56.7455 531.246 57.267C531.514 57.7838 531.675 58.4163 531.729 59.1644H529.743C529.729 58.6929 529.675 58.3234 529.58 58.0559C529.489 57.7838 529.344 57.5934 529.145 57.4846C528.945 57.3712 528.668 57.3146 528.315 57.3146C528.052 57.3146 527.825 57.3622 527.635 57.4574C527.444 57.5481 527.288 57.6954 527.165 57.8994C527.043 58.1035 526.952 58.371 526.893 58.702C526.839 59.033 526.812 59.4365 526.812 59.9126V61.606C526.812 62.073 526.837 62.472 526.887 62.803C526.936 63.1295 527.016 63.397 527.125 63.6055C527.233 63.8141 527.381 63.966 527.567 64.0612C527.757 64.1564 527.997 64.204 528.288 64.204C528.623 64.204 528.893 64.1542 529.097 64.0544C529.305 63.9547 529.46 63.7756 529.559 63.5171C529.659 63.2587 529.716 62.8914 529.729 62.4154ZM539.911 59.9942V61.6468C539.911 62.3451 539.824 62.9572 539.652 63.4831C539.484 64.0045 539.244 64.4421 538.931 64.7957C538.623 65.1448 538.249 65.4078 537.809 65.5846C537.374 65.7615 536.891 65.8499 536.36 65.8499C535.83 65.8499 535.345 65.7615 534.905 65.5846C534.47 65.4078 534.093 65.1448 533.776 64.7957C533.463 64.4421 533.221 64.0045 533.048 63.4831C532.876 62.9572 532.79 62.3451 532.79 61.6468V59.9942C532.79 59.2778 532.874 58.6521 533.042 58.1171C533.209 57.5775 533.452 57.1287 533.769 56.7705C534.087 56.4078 534.463 56.1357 534.898 55.9543C535.333 55.7685 535.816 55.6755 536.347 55.6755C536.877 55.6755 537.36 55.7685 537.795 55.9543C538.231 56.1357 538.607 56.4078 538.924 56.7705C539.242 57.1287 539.484 57.5775 539.652 58.1171C539.824 58.6521 539.911 59.2778 539.911 59.9942ZM537.932 61.6468V59.9806C537.932 59.509 537.897 59.1078 537.829 58.7768C537.761 58.4413 537.659 58.167 537.523 57.9539C537.387 57.7408 537.222 57.5843 537.027 57.4846C536.832 57.3848 536.605 57.335 536.347 57.335C536.088 57.335 535.859 57.3848 535.66 57.4846C535.465 57.5843 535.299 57.7408 535.163 57.9539C535.032 58.167 534.932 58.4413 534.864 58.7768C534.801 59.1078 534.769 59.509 534.769 59.9806V61.6468C534.769 62.1002 534.803 62.4879 534.871 62.8098C534.939 63.1317 535.041 63.3947 535.177 63.5987C535.313 63.8028 535.479 63.9547 535.674 64.0544C535.873 64.1496 536.102 64.1972 536.36 64.1972C536.614 64.1972 536.839 64.1496 537.034 64.0544C537.233 63.9547 537.399 63.8028 537.53 63.5987C537.662 63.3947 537.761 63.1317 537.829 62.8098C537.897 62.4879 537.932 62.1002 537.932 61.6468ZM544.733 62.2249H542.706V60.5723H544.733C545.014 60.5723 545.243 60.5088 545.419 60.3818C545.601 60.2549 545.732 60.0803 545.814 59.8582C545.896 59.6315 545.936 59.3775 545.936 59.0964C545.936 58.8108 545.893 58.5456 545.807 58.3007C545.726 58.0513 545.596 57.8496 545.419 57.6954C545.247 57.5413 545.018 57.4642 544.733 57.4642H543.345V65.7139H541.359V55.8115H544.733C545.399 55.8115 545.973 55.9521 546.453 56.2332C546.934 56.5143 547.301 56.902 547.555 57.3962C547.813 57.8858 547.943 58.4481 547.943 59.0828C547.943 59.7221 547.813 60.2776 547.555 60.7491C547.301 61.2161 546.934 61.5788 546.453 61.8373C545.973 62.0957 545.399 62.2249 544.733 62.2249ZM554.955 64.068V65.7139H550.649V64.068H554.955ZM551.268 55.8115V65.7139H549.276V55.8115H551.268ZM554.376 59.8241V61.4224H550.649V59.8241H554.376ZM554.941 55.8115V57.4642H550.649V55.8115H554.941ZM526.71 83.7139H524.962L524.975 82.068H526.71C527.19 82.068 527.564 81.9819 527.832 81.8096C528.099 81.6373 528.288 81.3652 528.396 80.9934C528.51 80.6217 528.566 80.1342 528.566 79.5312V77.9874C528.566 77.5294 528.537 77.1418 528.478 76.8244C528.419 76.5025 528.319 76.244 528.179 76.0491C528.038 75.8496 527.85 75.7022 527.614 75.607C527.379 75.5118 527.086 75.4642 526.737 75.4642H524.928V73.8115H526.737C527.308 73.8115 527.827 73.9045 528.294 74.0904C528.761 74.2763 529.163 74.5483 529.498 74.9065C529.834 75.2601 530.092 75.6977 530.274 76.2191C530.455 76.7405 530.546 77.3345 530.546 78.001V79.5312C530.546 80.2023 530.455 80.7962 530.274 81.3131C530.092 81.83 529.834 82.2675 529.498 82.6257C529.167 82.9794 528.766 83.2491 528.294 83.435C527.823 83.6209 527.295 83.7139 526.71 83.7139ZM526.118 73.8115V83.7139H524.125V73.8115H526.118ZM537.68 82.068V83.7139H533.375V82.068H537.68ZM533.994 73.8115V83.7139H532.001V73.8115H533.994ZM537.102 77.8241V79.4224H533.375V77.8241H537.102ZM537.666 73.8115V75.4642H533.375V73.8115H537.666ZM541.924 81.5987L543.801 73.8115H545.95L543.08 83.7139H541.631L541.924 81.5987ZM540.319 73.8115L542.189 81.5987L542.495 83.7139H541.04L538.19 73.8115H540.319ZM545.487 82.7413C545.487 82.4421 545.587 82.1927 545.787 81.9932C545.986 81.7892 546.256 81.6872 546.596 81.6872C546.936 81.6872 547.206 81.7892 547.405 81.9932C547.605 82.1927 547.705 82.4421 547.705 82.7413C547.705 83.0406 547.605 83.2899 547.405 83.4894C547.206 83.6889 546.936 83.7887 546.596 83.7887C546.256 83.7887 545.986 83.6889 545.787 83.4894C545.587 83.2899 545.487 83.0406 545.487 82.7413Z" fill="white"/>
</svg>
