<svg width="301" height="617" viewBox="0 0 301 617" fill="none" xmlns="http://www.w3.org/2000/svg">
<rect x="0.5" y="108" width="300" height="300" rx="150" fill="#FF0049"/>
<path d="M128.85 237.152L125.487 250H122.168L127.056 234.359H129.129L128.85 237.152ZM131.503 250L128.119 237.152L127.808 234.359H129.913L134.844 250H131.503ZM131.621 244.167V246.777H124.563V244.167H131.621ZM146.725 241.782V248.228C146.503 248.464 146.177 248.74 145.747 249.055C145.325 249.363 144.77 249.635 144.082 249.871C143.402 250.1 142.571 250.215 141.59 250.215C140.723 250.215 139.936 250.079 139.227 249.807C138.525 249.535 137.92 249.123 137.411 248.571C136.91 248.013 136.527 247.318 136.262 246.487C135.997 245.649 135.864 244.658 135.864 243.512V240.848C135.864 239.716 135.99 238.731 136.24 237.894C136.498 237.049 136.87 236.347 137.357 235.788C137.844 235.229 138.424 234.814 139.098 234.542C139.778 234.27 140.544 234.134 141.396 234.134C142.571 234.134 143.534 234.331 144.286 234.725C145.045 235.118 145.618 235.702 146.005 236.476C146.399 237.249 146.635 238.198 146.714 239.322H143.674C143.624 238.663 143.513 238.148 143.341 237.775C143.176 237.403 142.943 237.138 142.643 236.98C142.342 236.816 141.951 236.733 141.472 236.733C141.056 236.733 140.695 236.809 140.387 236.959C140.079 237.102 139.821 237.339 139.613 237.668C139.406 237.997 139.252 238.42 139.151 238.936C139.051 239.451 139.001 240.081 139.001 240.826V243.512C139.001 244.249 139.058 244.88 139.173 245.402C139.287 245.925 139.456 246.351 139.678 246.681C139.907 247.01 140.193 247.25 140.537 247.4C140.888 247.544 141.3 247.615 141.772 247.615C142.152 247.615 142.456 247.576 142.686 247.497C142.915 247.418 143.097 247.336 143.233 247.25C143.377 247.157 143.495 247.085 143.588 247.035V244.156H141.343V241.782H146.725ZM152.257 234.359V250H149.131V234.359H152.257ZM163.622 247.4V250H157.123V247.4H163.622ZM158.09 234.359V250H154.942V234.359H158.09ZM174.439 247.4V250H167.64V247.4H174.439ZM168.617 234.359V250H165.47V234.359H168.617ZM173.526 240.697V243.222H167.64V240.697H173.526ZM174.418 234.359V236.97H167.64V234.359H174.418ZM88.8564 282H86.0957L86.1172 279.4H88.8564C89.6156 279.4 90.2064 279.264 90.6289 278.992C91.0514 278.72 91.3486 278.29 91.5205 277.703C91.6995 277.116 91.7891 276.346 91.7891 275.394V272.955C91.7891 272.232 91.7425 271.619 91.6494 271.118C91.5563 270.61 91.3988 270.201 91.1768 269.894C90.9548 269.578 90.6576 269.346 90.2852 269.195C89.9128 269.045 89.4508 268.97 88.8994 268.97H86.042V266.359H88.8994C89.8018 266.359 90.6217 266.506 91.3594 266.8C92.097 267.093 92.7308 267.523 93.2607 268.089C93.7907 268.647 94.1989 269.339 94.4854 270.162C94.7718 270.986 94.915 271.924 94.915 272.977V275.394C94.915 276.453 94.7718 277.392 94.4854 278.208C94.1989 279.024 93.7907 279.715 93.2607 280.281C92.738 280.84 92.1042 281.266 91.3594 281.56C90.6146 281.853 89.7803 282 88.8564 282ZM87.9219 266.359V282H84.7744V266.359H87.9219ZM106.184 279.4V282H99.3838V279.4H106.184ZM100.361 266.359V282H97.2139V266.359H100.361ZM105.271 272.697V275.222H99.3838V272.697H105.271ZM106.162 266.359V268.97H99.3838V266.359H106.162ZM112.887 278.659L115.852 266.359H119.246L114.713 282H112.425L112.887 278.659ZM110.352 266.359L113.306 278.659L113.789 282H111.49L106.989 266.359H110.352ZM129.709 279.4V282H122.909V279.4H129.709ZM123.887 266.359V282H120.739V266.359H123.887ZM128.796 272.697V275.222H122.909V272.697H128.796ZM129.688 266.359V268.97H122.909V266.359H129.688ZM140.226 279.4V282H133.727V279.4H140.226ZM134.693 266.359V282H131.546V266.359H134.693ZM152.375 272.966V275.576C152.375 276.679 152.239 277.646 151.967 278.477C151.702 279.3 151.322 279.991 150.828 280.55C150.341 281.101 149.75 281.517 149.056 281.796C148.368 282.075 147.605 282.215 146.768 282.215C145.93 282.215 145.163 282.075 144.469 281.796C143.781 281.517 143.187 281.101 142.686 280.55C142.191 279.991 141.808 279.3 141.536 278.477C141.264 277.646 141.128 276.679 141.128 275.576V272.966C141.128 271.834 141.26 270.846 141.525 270.001C141.79 269.149 142.174 268.44 142.675 267.874C143.176 267.301 143.771 266.871 144.458 266.585C145.146 266.291 145.908 266.145 146.746 266.145C147.584 266.145 148.347 266.291 149.034 266.585C149.722 266.871 150.316 267.301 150.817 267.874C151.319 268.44 151.702 269.149 151.967 270.001C152.239 270.846 152.375 271.834 152.375 272.966ZM149.249 275.576V272.944C149.249 272.2 149.195 271.566 149.088 271.043C148.98 270.513 148.819 270.08 148.604 269.743C148.39 269.407 148.128 269.16 147.82 269.002C147.512 268.844 147.154 268.766 146.746 268.766C146.338 268.766 145.976 268.844 145.661 269.002C145.353 269.16 145.092 269.407 144.877 269.743C144.669 270.08 144.512 270.513 144.404 271.043C144.304 271.566 144.254 272.2 144.254 272.944V275.576C144.254 276.292 144.308 276.905 144.415 277.413C144.522 277.922 144.684 278.337 144.898 278.659C145.113 278.981 145.375 279.221 145.683 279.379C145.998 279.529 146.359 279.604 146.768 279.604C147.169 279.604 147.523 279.529 147.831 279.379C148.146 279.221 148.408 278.981 148.615 278.659C148.823 278.337 148.98 277.922 149.088 277.413C149.195 276.905 149.249 276.292 149.249 275.576ZM159.991 276.489H156.79V273.879H159.991C160.435 273.879 160.797 273.779 161.076 273.578C161.363 273.378 161.57 273.102 161.699 272.751C161.828 272.393 161.893 271.992 161.893 271.548C161.893 271.097 161.825 270.678 161.688 270.291C161.56 269.897 161.355 269.578 161.076 269.335C160.804 269.091 160.442 268.97 159.991 268.97H157.8V282H154.663V266.359H159.991C161.044 266.359 161.95 266.581 162.709 267.025C163.468 267.469 164.048 268.082 164.449 268.862C164.857 269.636 165.062 270.524 165.062 271.526C165.062 272.536 164.857 273.413 164.449 274.158C164.048 274.896 163.468 275.469 162.709 275.877C161.95 276.285 161.044 276.489 159.991 276.489ZM168.284 266.359H171.045L174.235 277.059L177.415 266.359H179.854L175.406 282H173.054L168.284 266.359ZM167.167 266.359H169.799L170.207 276.672V282H167.167V266.359ZM178.65 266.359H181.293V282H178.264V276.672L178.65 266.359ZM192.83 279.4V282H186.03V279.4H192.83ZM187.008 266.359V282H183.86V266.359H187.008ZM191.917 272.697V275.222H186.03V272.697H191.917ZM192.809 266.359V268.97H186.03V266.359H192.809ZM205.603 266.359V282H202.562L197.653 272.214V282H194.667V266.359H197.664L202.616 276.253V266.359H205.603ZM214.046 266.359V282H210.92V266.359H214.046ZM217.935 266.359V268.97H207.106V266.359H217.935Z" fill="#182030"/>
<rect x="82.5" y="408" width="136" height="136" rx="68" fill="#00D0F6"/>
<path d="M134.821 461.726L132.365 471.11H129.941L133.511 459.686H135.025L134.821 461.726ZM136.759 471.11L134.287 461.726L134.06 459.686H135.598L139.199 471.11H136.759ZM136.845 466.85V468.756H131.69V466.85H136.845ZM147.877 465.108V469.815C147.715 469.988 147.477 470.189 147.163 470.42C146.855 470.645 146.449 470.843 145.947 471.016C145.45 471.183 144.843 471.267 144.127 471.267C143.494 471.267 142.918 471.168 142.4 470.969C141.888 470.77 141.446 470.469 141.074 470.067C140.708 469.659 140.428 469.151 140.235 468.544C140.041 467.932 139.945 467.208 139.945 466.371V464.425C139.945 463.599 140.036 462.879 140.219 462.267C140.408 461.65 140.68 461.137 141.035 460.729C141.391 460.321 141.815 460.018 142.306 459.819C142.803 459.621 143.363 459.521 143.985 459.521C144.843 459.521 145.547 459.665 146.096 459.953C146.651 460.24 147.069 460.667 147.351 461.232C147.639 461.797 147.812 462.49 147.869 463.311H145.649C145.612 462.83 145.531 462.453 145.406 462.181C145.285 461.909 145.115 461.716 144.896 461.6C144.676 461.48 144.391 461.42 144.04 461.42C143.737 461.42 143.473 461.475 143.248 461.585C143.023 461.689 142.835 461.862 142.683 462.103C142.531 462.343 142.419 462.652 142.346 463.028C142.272 463.405 142.236 463.865 142.236 464.409V466.371C142.236 466.91 142.278 467.37 142.361 467.752C142.445 468.134 142.568 468.445 142.73 468.686C142.897 468.926 143.107 469.101 143.358 469.211C143.614 469.316 143.915 469.368 144.26 469.368C144.537 469.368 144.76 469.339 144.927 469.282C145.094 469.224 145.228 469.164 145.327 469.101C145.432 469.033 145.518 468.981 145.586 468.945V466.842H143.946V465.108H147.877ZM151.918 459.686V471.11H149.635V459.686H151.918ZM160.219 469.211V471.11H155.472V469.211H160.219ZM156.179 459.686V471.11H153.88V459.686H156.179ZM168.121 469.211V471.11H163.154V469.211H168.121ZM163.868 459.686V471.11H161.569V459.686H163.868ZM167.454 464.315V466.159H163.154V464.315H167.454ZM168.105 459.686V461.593H163.154V459.686H168.105ZM103.248 480.686H105.264L107.594 488.501L109.917 480.686H111.698L108.45 492.11H106.731L103.248 480.686ZM102.432 480.686H104.354L104.652 488.218V492.11H102.432V480.686ZM110.819 480.686H112.749V492.11H110.537V488.218L110.819 480.686ZM118.901 482.726L116.445 492.11H114.021L117.591 480.686H119.105L118.901 482.726ZM120.839 492.11L118.367 482.726L118.14 480.686H119.678L123.279 492.11H120.839ZM120.925 487.85V489.756H115.77V487.85H120.925ZM126.755 480.686V492.11H124.472V480.686H126.755ZM136.704 480.686V492.11H134.484L130.898 484.962V492.11H128.717V480.686H130.906L134.523 487.912V480.686H136.704ZM142.871 480.686V492.11H140.588V480.686H142.871ZM145.712 480.686V482.593H137.803V480.686H145.712ZM153.597 490.211V492.11H148.63V490.211H153.597ZM149.344 480.686V492.11H147.045V480.686H149.344ZM152.93 485.315V487.159H148.63V485.315H152.93ZM153.581 480.686V482.593H148.63V480.686H153.581ZM162.926 480.686V492.11H160.706L157.12 484.962V492.11H154.939V480.686H157.128L160.745 487.912V480.686H162.926ZM169.054 482.726L166.598 492.11H164.174L167.744 480.686H169.258L169.054 482.726ZM170.992 492.11L168.521 482.726L168.293 480.686H169.831L173.432 492.11H170.992ZM171.079 487.85V489.756H165.924V487.85H171.079ZM182.511 480.686V492.11H180.29L176.704 484.962V492.11H174.523V480.686H176.712L180.329 487.912V480.686H182.511ZM189.808 488.305H192.091C192.06 489.163 191.887 489.887 191.573 490.478C191.259 491.064 190.812 491.509 190.231 491.812C189.656 492.115 188.96 492.267 188.144 492.267C187.511 492.267 186.949 492.162 186.457 491.953C185.966 491.739 185.547 491.425 185.202 491.012C184.857 490.598 184.595 490.088 184.417 489.482C184.245 488.87 184.158 488.166 184.158 487.371V485.433C184.158 484.638 184.25 483.934 184.433 483.322C184.621 482.71 184.888 482.198 185.233 481.784C185.584 481.366 186.005 481.052 186.497 480.843C186.993 480.628 187.553 480.521 188.176 480.521C189.007 480.521 189.703 480.678 190.263 480.992C190.822 481.306 191.254 481.763 191.557 482.365C191.866 482.961 192.052 483.691 192.114 484.554H189.823C189.808 484.01 189.745 483.584 189.635 483.275C189.53 482.961 189.363 482.742 189.133 482.616C188.903 482.485 188.584 482.42 188.176 482.42C187.872 482.42 187.611 482.475 187.391 482.585C187.171 482.689 186.991 482.859 186.85 483.095C186.708 483.33 186.604 483.639 186.536 484.021C186.473 484.402 186.442 484.868 186.442 485.417V487.371C186.442 487.91 186.47 488.37 186.528 488.752C186.585 489.129 186.677 489.437 186.803 489.678C186.928 489.918 187.098 490.094 187.313 490.203C187.532 490.313 187.809 490.368 188.144 490.368C188.531 490.368 188.843 490.311 189.078 490.196C189.319 490.081 189.496 489.874 189.611 489.576C189.727 489.278 189.792 488.854 189.808 488.305ZM200.078 490.211V492.11H195.112V490.211H200.078ZM195.826 480.686V492.11H193.527V480.686H195.826ZM199.411 485.315V487.159H195.112V485.315H199.411ZM200.063 480.686V482.593H195.112V480.686H200.063Z" fill="#182030"/>
<rect x="192" y="512" width="64" height="64" rx="32" fill="#2300A6"/>
<path d="M209.677 536.395C209.677 536.218 209.661 536.057 209.629 535.912C209.598 535.767 209.53 535.633 209.425 535.511C209.326 535.389 209.178 535.266 208.983 535.144C208.793 535.021 208.543 534.894 208.235 534.763C207.868 534.609 207.512 534.446 207.167 534.273C206.823 534.096 206.512 533.892 206.236 533.661C205.959 533.43 205.739 533.158 205.576 532.845C205.417 532.528 205.338 532.156 205.338 531.73C205.338 531.313 205.413 530.934 205.562 530.594C205.716 530.254 205.934 529.964 206.215 529.723C206.496 529.479 206.825 529.29 207.201 529.159C207.582 529.027 208.006 528.962 208.473 528.962C209.108 528.962 209.657 529.093 210.119 529.356C210.586 529.619 210.946 529.98 211.2 530.437C211.459 530.895 211.588 531.421 211.588 532.015H209.602C209.602 531.734 209.561 531.487 209.48 531.274C209.403 531.056 209.278 530.886 209.106 530.764C208.933 530.641 208.711 530.58 208.439 530.58C208.185 530.58 207.974 530.632 207.807 530.737C207.643 530.836 207.521 530.975 207.439 531.152C207.362 531.324 207.324 531.519 207.324 531.736C207.324 531.9 207.362 532.047 207.439 532.179C207.521 532.305 207.632 532.421 207.773 532.525C207.913 532.625 208.079 532.723 208.269 532.818C208.464 532.913 208.677 533.006 208.908 533.097C209.357 533.274 209.754 533.468 210.099 533.682C210.443 533.89 210.731 534.126 210.962 534.389C211.194 534.647 211.368 534.94 211.486 535.266C211.604 535.593 211.663 535.964 211.663 536.382C211.663 536.794 211.59 537.171 211.445 537.511C211.305 537.846 211.098 538.136 210.826 538.381C210.554 538.621 210.226 538.807 209.84 538.939C209.459 539.07 209.033 539.136 208.562 539.136C208.104 539.136 207.671 539.073 207.263 538.946C206.855 538.814 206.494 538.617 206.181 538.354C205.873 538.086 205.63 537.749 205.454 537.341C205.277 536.928 205.188 536.441 205.188 535.878H207.181C207.181 536.178 207.21 536.434 207.269 536.647C207.328 536.855 207.419 537.023 207.541 537.15C207.664 537.273 207.813 537.365 207.99 537.429C208.172 537.488 208.378 537.517 208.609 537.517C208.872 537.517 209.081 537.467 209.235 537.368C209.394 537.268 209.507 537.134 209.575 536.966C209.643 536.799 209.677 536.608 209.677 536.395ZM217.729 535.701H219.709C219.681 536.445 219.532 537.073 219.26 537.585C218.988 538.093 218.6 538.479 218.097 538.742C217.598 539.005 216.995 539.136 216.288 539.136C215.739 539.136 215.252 539.045 214.825 538.864C214.399 538.678 214.036 538.406 213.737 538.048C213.438 537.69 213.211 537.248 213.057 536.722C212.907 536.191 212.833 535.581 212.833 534.892V533.212C212.833 532.523 212.912 531.913 213.071 531.383C213.234 530.852 213.465 530.408 213.764 530.05C214.068 529.687 214.433 529.415 214.859 529.234C215.29 529.048 215.775 528.955 216.315 528.955C217.036 528.955 217.639 529.091 218.124 529.363C218.609 529.635 218.983 530.032 219.246 530.553C219.514 531.07 219.675 531.702 219.729 532.451H217.743C217.729 531.979 217.675 531.61 217.58 531.342C217.489 531.07 217.344 530.88 217.145 530.771C216.945 530.657 216.668 530.601 216.315 530.601C216.052 530.601 215.825 530.648 215.635 530.744C215.444 530.834 215.288 530.982 215.165 531.186C215.043 531.39 214.952 531.657 214.893 531.988C214.839 532.319 214.812 532.723 214.812 533.199V534.892C214.812 535.359 214.837 535.758 214.887 536.089C214.936 536.416 215.016 536.683 215.125 536.892C215.233 537.1 215.381 537.252 215.567 537.347C215.757 537.443 215.997 537.49 216.288 537.49C216.623 537.49 216.893 537.44 217.097 537.341C217.305 537.241 217.46 537.062 217.559 536.803C217.659 536.545 217.716 536.178 217.729 535.701ZM227.911 533.28V534.933C227.911 535.631 227.824 536.243 227.652 536.769C227.484 537.291 227.244 537.728 226.931 538.082C226.623 538.431 226.249 538.694 225.809 538.871C225.374 539.048 224.891 539.136 224.36 539.136C223.83 539.136 223.345 539.048 222.905 538.871C222.47 538.694 222.093 538.431 221.776 538.082C221.463 537.728 221.221 537.291 221.048 536.769C220.876 536.243 220.79 535.631 220.79 534.933V533.28C220.79 532.564 220.874 531.938 221.042 531.403C221.209 530.864 221.452 530.415 221.769 530.057C222.087 529.694 222.463 529.422 222.898 529.24C223.333 529.055 223.816 528.962 224.347 528.962C224.877 528.962 225.36 529.055 225.795 529.24C226.231 529.422 226.607 529.694 226.924 530.057C227.242 530.415 227.484 530.864 227.652 531.403C227.824 531.938 227.911 532.564 227.911 533.28ZM225.932 534.933V533.267C225.932 532.795 225.897 532.394 225.829 532.063C225.761 531.727 225.659 531.453 225.523 531.24C225.387 531.027 225.222 530.87 225.027 530.771C224.832 530.671 224.605 530.621 224.347 530.621C224.088 530.621 223.859 530.671 223.66 530.771C223.465 530.87 223.299 531.027 223.163 531.24C223.032 531.453 222.932 531.727 222.864 532.063C222.801 532.394 222.769 532.795 222.769 533.267V534.933C222.769 535.386 222.803 535.774 222.871 536.096C222.939 536.418 223.041 536.681 223.177 536.885C223.313 537.089 223.479 537.241 223.674 537.341C223.873 537.436 224.102 537.483 224.36 537.483C224.614 537.483 224.839 537.436 225.034 537.341C225.233 537.241 225.399 537.089 225.53 536.885C225.662 536.681 225.761 536.418 225.829 536.096C225.897 535.774 225.932 535.386 225.932 534.933ZM232.733 535.511H230.706V533.858H232.733C233.014 533.858 233.243 533.795 233.419 533.668C233.601 533.541 233.732 533.366 233.814 533.144C233.896 532.918 233.936 532.664 233.936 532.383C233.936 532.097 233.893 531.832 233.807 531.587C233.726 531.337 233.596 531.136 233.419 530.982C233.247 530.827 233.018 530.75 232.733 530.75H231.345V539H229.359V529.098H232.733C233.399 529.098 233.973 529.238 234.453 529.519C234.934 529.8 235.301 530.188 235.555 530.682C235.813 531.172 235.943 531.734 235.943 532.369C235.943 533.008 235.813 533.564 235.555 534.035C235.301 534.502 234.934 534.865 234.453 535.123C233.973 535.382 233.399 535.511 232.733 535.511ZM242.955 537.354V539H238.649V537.354H242.955ZM239.268 529.098V539H237.276V529.098H239.268ZM242.376 533.11V534.709H238.649V533.11H242.376ZM242.941 529.098V530.75H238.649V529.098H242.941ZM214.71 557H212.962L212.975 555.354H214.71C215.19 555.354 215.564 555.268 215.832 555.096C216.099 554.923 216.288 554.651 216.396 554.28C216.51 553.908 216.566 553.42 216.566 552.817V551.274C216.566 550.816 216.537 550.428 216.478 550.111C216.419 549.789 216.319 549.53 216.179 549.335C216.038 549.136 215.85 548.988 215.614 548.893C215.379 548.798 215.086 548.75 214.737 548.75H212.928V547.098H214.737C215.308 547.098 215.827 547.191 216.294 547.377C216.761 547.562 217.163 547.834 217.498 548.193C217.834 548.546 218.092 548.984 218.274 549.505C218.455 550.027 218.546 550.621 218.546 551.287V552.817C218.546 553.488 218.455 554.082 218.274 554.599C218.092 555.116 217.834 555.554 217.498 555.912C217.167 556.265 216.766 556.535 216.294 556.721C215.823 556.907 215.295 557 214.71 557ZM214.118 547.098V557H212.125V547.098H214.118ZM225.68 555.354V557H221.375V555.354H225.68ZM221.994 547.098V557H220.001V547.098H221.994ZM225.102 551.11V552.709H221.375V551.11H225.102ZM225.666 547.098V548.75H221.375V547.098H225.666ZM229.924 554.885L231.801 547.098H233.95L231.08 557H229.631L229.924 554.885ZM228.319 547.098L230.189 554.885L230.495 557H229.04L226.19 547.098H228.319ZM233.487 556.027C233.487 555.728 233.587 555.479 233.787 555.279C233.986 555.075 234.256 554.973 234.596 554.973C234.936 554.973 235.206 555.075 235.405 555.279C235.605 555.479 235.705 555.728 235.705 556.027C235.705 556.327 235.605 556.576 235.405 556.776C235.206 556.975 234.936 557.075 234.596 557.075C234.256 557.075 233.986 556.975 233.787 556.776C233.587 556.576 233.487 556.327 233.487 556.027Z" fill="white"/>
<rect x="114.5" y="544" width="73" height="73" rx="36.5" fill="#73909E"/>
<path d="M140.602 572.58H142.354C142.33 573.238 142.198 573.794 141.957 574.248C141.716 574.697 141.373 575.038 140.927 575.271C140.486 575.504 139.952 575.62 139.326 575.62C138.84 575.62 138.409 575.54 138.031 575.38C137.654 575.215 137.333 574.974 137.068 574.657C136.803 574.34 136.602 573.949 136.466 573.483C136.333 573.013 136.267 572.474 136.267 571.863V570.376C136.267 569.766 136.337 569.226 136.478 568.757C136.622 568.287 136.827 567.894 137.092 567.577C137.361 567.256 137.684 567.015 138.061 566.854C138.443 566.69 138.872 566.607 139.35 566.607C139.988 566.607 140.522 566.728 140.951 566.969C141.381 567.209 141.712 567.561 141.945 568.022C142.182 568.48 142.324 569.04 142.372 569.702H140.614C140.602 569.285 140.554 568.957 140.47 568.721C140.389 568.48 140.261 568.311 140.084 568.215C139.908 568.115 139.663 568.064 139.35 568.064C139.117 568.064 138.916 568.107 138.748 568.191C138.579 568.271 138.441 568.402 138.332 568.582C138.224 568.763 138.144 569 138.091 569.293C138.043 569.586 138.019 569.943 138.019 570.364V571.863C138.019 572.277 138.041 572.63 138.085 572.923C138.13 573.212 138.2 573.449 138.296 573.634C138.393 573.818 138.523 573.953 138.688 574.037C138.856 574.121 139.069 574.163 139.326 574.163C139.623 574.163 139.862 574.119 140.042 574.031C140.227 573.943 140.363 573.784 140.452 573.555C140.54 573.327 140.59 573.001 140.602 572.58ZM149.615 570.437V571.9C149.615 572.518 149.539 573.06 149.386 573.525C149.238 573.987 149.025 574.374 148.748 574.687C148.475 574.996 148.144 575.229 147.755 575.386C147.369 575.542 146.942 575.62 146.472 575.62C146.003 575.62 145.573 575.542 145.184 575.386C144.799 575.229 144.465 574.996 144.185 574.687C143.908 574.374 143.693 573.987 143.54 573.525C143.388 573.06 143.311 572.518 143.311 571.9V570.437C143.311 569.802 143.386 569.248 143.534 568.775C143.683 568.297 143.898 567.9 144.178 567.583C144.459 567.262 144.793 567.021 145.178 566.86C145.563 566.696 145.991 566.613 146.46 566.613C146.93 566.613 147.357 566.696 147.743 566.86C148.128 567.021 148.461 567.262 148.742 567.583C149.023 567.9 149.238 568.297 149.386 568.775C149.539 569.248 149.615 569.802 149.615 570.437ZM147.863 571.9V570.425C147.863 570.007 147.833 569.652 147.773 569.359C147.713 569.062 147.622 568.819 147.502 568.63C147.382 568.442 147.235 568.303 147.062 568.215C146.89 568.127 146.689 568.082 146.46 568.082C146.232 568.082 146.029 568.127 145.852 568.215C145.68 568.303 145.533 568.442 145.413 568.63C145.296 568.819 145.208 569.062 145.148 569.359C145.092 569.652 145.064 570.007 145.064 570.425V571.9C145.064 572.301 145.094 572.644 145.154 572.929C145.214 573.214 145.304 573.447 145.425 573.628C145.545 573.808 145.692 573.943 145.864 574.031C146.041 574.115 146.244 574.157 146.472 574.157C146.697 574.157 146.896 574.115 147.068 574.031C147.245 573.943 147.392 573.808 147.508 573.628C147.624 573.447 147.713 573.214 147.773 572.929C147.833 572.644 147.863 572.301 147.863 571.9ZM157.027 566.734V575.5H155.323L152.571 570.015V575.5H150.898V566.734H152.577L155.353 572.279V566.734H157.027ZM161.759 566.734V575.5H160.007V566.734H161.759ZM163.939 566.734V568.197H157.87V566.734H163.939ZM163.463 574.639C163.463 574.374 163.551 574.153 163.728 573.977C163.904 573.796 164.143 573.706 164.444 573.706C164.745 573.706 164.984 573.796 165.161 573.977C165.337 574.153 165.426 574.374 165.426 574.639C165.426 574.904 165.337 575.125 165.161 575.301C164.984 575.478 164.745 575.566 164.444 575.566C164.143 575.566 163.904 575.478 163.728 575.301C163.551 575.125 163.463 574.904 163.463 574.639ZM131.234 589.194C131.234 589.038 131.22 588.895 131.192 588.767C131.164 588.638 131.103 588.52 131.011 588.411C130.923 588.303 130.792 588.195 130.62 588.086C130.451 587.978 130.23 587.865 129.957 587.749C129.632 587.613 129.317 587.468 129.012 587.316C128.707 587.159 128.432 586.978 128.187 586.774C127.943 586.569 127.748 586.328 127.603 586.051C127.463 585.77 127.393 585.441 127.393 585.064C127.393 584.695 127.459 584.359 127.591 584.058C127.728 583.757 127.92 583.5 128.169 583.288C128.418 583.071 128.709 582.904 129.042 582.788C129.379 582.672 129.755 582.613 130.168 582.613C130.73 582.613 131.216 582.73 131.625 582.963C132.039 583.195 132.358 583.514 132.583 583.92C132.811 584.325 132.926 584.791 132.926 585.317H131.168C131.168 585.068 131.132 584.849 131.059 584.66C130.991 584.468 130.881 584.317 130.728 584.209C130.576 584.1 130.379 584.046 130.138 584.046C129.913 584.046 129.727 584.092 129.578 584.185C129.434 584.273 129.325 584.396 129.253 584.552C129.185 584.705 129.151 584.877 129.151 585.07C129.151 585.214 129.185 585.345 129.253 585.461C129.325 585.574 129.424 585.676 129.548 585.768C129.672 585.857 129.819 585.943 129.988 586.027C130.16 586.111 130.349 586.194 130.554 586.274C130.951 586.431 131.302 586.603 131.607 586.792C131.912 586.976 132.167 587.185 132.372 587.418C132.576 587.647 132.731 587.906 132.835 588.195C132.94 588.484 132.992 588.813 132.992 589.182C132.992 589.547 132.928 589.88 132.799 590.181C132.675 590.478 132.492 590.735 132.251 590.952C132.011 591.165 131.72 591.329 131.378 591.446C131.041 591.562 130.664 591.62 130.246 591.62C129.841 591.62 129.458 591.564 129.096 591.452C128.735 591.335 128.416 591.161 128.139 590.928C127.866 590.691 127.652 590.392 127.495 590.031C127.338 589.666 127.26 589.234 127.26 588.736H129.024C129.024 589.001 129.05 589.228 129.103 589.417C129.155 589.601 129.235 589.75 129.343 589.862C129.452 589.971 129.584 590.053 129.741 590.109C129.901 590.161 130.084 590.187 130.289 590.187C130.521 590.187 130.706 590.143 130.843 590.055C130.983 589.967 131.083 589.848 131.144 589.7C131.204 589.551 131.234 589.383 131.234 589.194ZM138.122 582.734H139.88V588.755C139.88 589.429 139.755 589.979 139.506 590.404C139.262 590.826 138.922 591.135 138.489 591.331C138.055 591.524 137.56 591.62 137.002 591.62C136.44 591.62 135.94 591.524 135.503 591.331C135.065 591.135 134.724 590.826 134.479 590.404C134.238 589.979 134.118 589.429 134.118 588.755V582.734H135.876V588.755C135.876 589.136 135.918 589.429 136.002 589.634C136.091 589.838 136.217 589.979 136.382 590.055C136.55 590.127 136.757 590.163 137.002 590.163C137.251 590.163 137.455 590.127 137.616 590.055C137.78 589.979 137.905 589.838 137.989 589.634C138.077 589.429 138.122 589.136 138.122 588.755V582.734ZM144.215 588.411H142.42V586.948H144.215C144.463 586.948 144.666 586.892 144.823 586.78C144.983 586.667 145.1 586.513 145.172 586.316C145.244 586.115 145.28 585.891 145.28 585.642C145.28 585.389 145.242 585.154 145.166 584.937C145.094 584.717 144.979 584.538 144.823 584.402C144.67 584.265 144.467 584.197 144.215 584.197H142.986V591.5H141.228V582.734H144.215C144.805 582.734 145.312 582.858 145.738 583.107C146.163 583.356 146.488 583.699 146.713 584.137C146.942 584.57 147.056 585.068 147.056 585.63C147.056 586.196 146.942 586.687 146.713 587.105C146.488 587.518 146.163 587.839 145.738 588.068C145.312 588.297 144.805 588.411 144.215 588.411ZM151.223 588.411H149.429V586.948H151.223C151.472 586.948 151.674 586.892 151.831 586.78C151.991 586.667 152.108 586.513 152.18 586.316C152.252 586.115 152.288 585.891 152.288 585.642C152.288 585.389 152.25 585.154 152.174 584.937C152.102 584.717 151.987 584.538 151.831 584.402C151.678 584.265 151.476 584.197 151.223 584.197H149.995V591.5H148.236V582.734H151.223C151.813 582.734 152.321 582.858 152.746 583.107C153.171 583.356 153.497 583.699 153.721 584.137C153.95 584.57 154.065 585.068 154.065 585.63C154.065 586.196 153.95 586.687 153.721 587.105C153.497 587.518 153.171 587.839 152.746 588.068C152.321 588.297 151.813 588.411 151.223 588.411ZM161.404 586.437V587.9C161.404 588.518 161.328 589.06 161.175 589.525C161.027 589.987 160.814 590.374 160.537 590.687C160.264 590.996 159.933 591.229 159.543 591.386C159.158 591.542 158.731 591.62 158.261 591.62C157.791 591.62 157.362 591.542 156.973 591.386C156.587 591.229 156.254 590.996 155.973 590.687C155.696 590.374 155.481 589.987 155.329 589.525C155.176 589.06 155.1 588.518 155.1 587.9V586.437C155.1 585.802 155.174 585.248 155.323 584.775C155.471 584.297 155.686 583.9 155.967 583.583C156.248 583.262 156.581 583.021 156.967 582.86C157.352 582.696 157.779 582.613 158.249 582.613C158.719 582.613 159.146 582.696 159.531 582.86C159.917 583.021 160.25 583.262 160.531 583.583C160.812 583.9 161.027 584.297 161.175 584.775C161.328 585.248 161.404 585.802 161.404 586.437ZM159.652 587.9V586.425C159.652 586.007 159.622 585.652 159.562 585.359C159.501 585.062 159.411 584.819 159.291 584.63C159.17 584.442 159.024 584.303 158.851 584.215C158.678 584.127 158.478 584.082 158.249 584.082C158.02 584.082 157.818 584.127 157.641 584.215C157.468 584.303 157.322 584.442 157.201 584.63C157.085 584.819 156.997 585.062 156.936 585.359C156.88 585.652 156.852 586.007 156.852 586.425V587.9C156.852 588.301 156.882 588.644 156.942 588.929C157.003 589.214 157.093 589.447 157.213 589.628C157.334 589.808 157.48 589.943 157.653 590.031C157.83 590.115 158.032 590.157 158.261 590.157C158.486 590.157 158.684 590.115 158.857 590.031C159.034 589.943 159.18 589.808 159.297 589.628C159.413 589.447 159.501 589.214 159.562 588.929C159.622 588.644 159.652 588.301 159.652 587.9ZM162.692 582.734H165.504C166.09 582.734 166.59 582.834 167.003 583.035C167.417 583.236 167.734 583.533 167.954 583.926C168.175 584.319 168.286 584.805 168.286 585.383C168.286 585.857 168.221 586.262 168.093 586.599C167.964 586.932 167.782 587.211 167.545 587.436C167.308 587.657 167.025 587.833 166.696 587.966L166.16 588.285H163.878L163.872 586.822H165.456C165.697 586.822 165.895 586.77 166.052 586.665C166.212 586.557 166.331 586.406 166.407 586.214C166.487 586.017 166.528 585.788 166.528 585.527C166.528 585.25 166.491 585.014 166.419 584.817C166.351 584.616 166.241 584.464 166.088 584.359C165.94 584.251 165.745 584.197 165.504 584.197H164.456V591.5H162.692V582.734ZM166.672 591.5L165.064 587.593L166.913 587.587L168.557 591.416V591.5H166.672ZM172.693 582.734V591.5H170.941V582.734H172.693ZM174.872 582.734V584.197H168.803V582.734H174.872Z" fill="white"/>
<rect x="96.5" width="108" height="108" rx="54" fill="#182030"/>
<path d="M115.742 60H113.632L113.649 58.0138H115.742C116.322 58.0138 116.773 57.9099 117.096 57.702C117.419 57.494 117.646 57.1658 117.777 56.7171C117.914 56.2684 117.982 55.6802 117.982 54.9525V53.0895C117.982 52.5368 117.947 52.069 117.875 51.686C117.804 51.2975 117.684 50.9857 117.514 50.7504C117.345 50.5096 117.118 50.3318 116.833 50.2169C116.549 50.102 116.196 50.0446 115.774 50.0446H113.591V48.0502H115.774C116.464 48.0502 117.09 48.1624 117.654 48.3867C118.217 48.611 118.702 48.9393 119.107 49.3716C119.511 49.7983 119.823 50.3264 120.042 50.9556C120.261 51.5848 120.37 52.3016 120.37 53.1059V54.9525C120.37 55.7623 120.261 56.4791 120.042 57.1028C119.823 57.7266 119.511 58.2546 119.107 58.6868C118.707 59.1136 118.223 59.4392 117.654 59.6635C117.085 59.8878 116.447 60 115.742 60ZM115.027 48.0502V60H112.623V48.0502H115.027ZM124.622 48.0502V60H122.233V48.0502H124.622ZM131.729 56.8566C131.729 56.6432 131.71 56.449 131.672 56.2739C131.634 56.0988 131.551 55.9374 131.426 55.7897C131.305 55.6419 131.127 55.4942 130.892 55.3465C130.662 55.1987 130.361 55.0455 129.989 54.8869C129.546 54.7008 129.117 54.5039 128.701 54.2959C128.285 54.0826 127.91 53.8363 127.576 53.5573C127.243 53.2782 126.977 52.9499 126.78 52.5724C126.589 52.1894 126.493 51.7407 126.493 51.2264C126.493 50.723 126.583 50.2662 126.764 49.8558C126.95 49.4454 127.213 49.0953 127.552 48.8053C127.891 48.5098 128.288 48.2827 128.742 48.1241C129.201 47.9654 129.713 47.8861 130.277 47.8861C131.043 47.8861 131.705 48.0447 132.263 48.3621C132.826 48.6794 133.261 49.1144 133.568 49.667C133.88 50.2197 134.036 50.8544 134.036 51.5711H131.639C131.639 51.2319 131.59 50.9337 131.491 50.6765C131.398 50.4139 131.248 50.2087 131.04 50.061C130.832 49.9133 130.564 49.8394 130.236 49.8394C129.929 49.8394 129.675 49.9023 129.472 50.0282C129.275 50.1485 129.128 50.3154 129.029 50.5288C128.936 50.7367 128.89 50.972 128.89 51.2346C128.89 51.4316 128.936 51.6094 129.029 51.7681C129.128 51.9213 129.262 52.0608 129.431 52.1867C129.601 52.307 129.801 52.4247 130.03 52.5396C130.266 52.6545 130.523 52.7666 130.802 52.8761C131.344 53.0895 131.822 53.3247 132.238 53.5819C132.654 53.8336 133.001 54.1181 133.28 54.4355C133.56 54.7473 133.77 55.1003 133.912 55.4942C134.055 55.8882 134.126 56.3368 134.126 56.8402C134.126 57.3381 134.038 57.7922 133.863 58.2026C133.694 58.6075 133.445 58.9577 133.116 59.2531C132.788 59.5431 132.391 59.7675 131.926 59.9261C131.467 60.0848 130.952 60.1641 130.383 60.1641C129.831 60.1641 129.308 60.0875 128.816 59.9343C128.323 59.7757 127.888 59.5377 127.511 59.2203C127.139 58.8975 126.846 58.4899 126.633 57.9974C126.419 57.4995 126.312 56.9113 126.312 56.2329H128.717C128.717 56.594 128.753 56.9031 128.824 57.1603C128.895 57.412 129.004 57.6144 129.152 57.7676C129.3 57.9154 129.481 58.0275 129.694 58.1041C129.913 58.1752 130.162 58.2108 130.441 58.2108C130.758 58.2108 131.01 58.1506 131.196 58.0303C131.387 57.9099 131.524 57.7485 131.606 57.546C131.688 57.3436 131.729 57.1138 131.729 56.8566ZM141.447 56.0195H143.835C143.802 56.9168 143.622 57.6746 143.293 58.2929C142.965 58.9057 142.497 59.3708 141.89 59.6881C141.288 60.0055 140.56 60.1641 139.707 60.1641C139.045 60.1641 138.457 60.0547 137.942 59.8359C137.428 59.6115 136.99 59.2832 136.629 58.851C136.268 58.4187 135.994 57.8853 135.808 57.2506C135.628 56.6104 135.537 55.8745 135.537 55.0428V53.0156C135.537 52.1839 135.633 51.448 135.825 50.8078C136.022 50.1677 136.301 49.6315 136.662 49.1992C137.028 48.7615 137.469 48.4332 137.983 48.2143C138.503 47.99 139.088 47.8778 139.74 47.8778C140.61 47.8778 141.337 48.042 141.923 48.3703C142.508 48.6986 142.96 49.1773 143.277 49.8066C143.6 50.4303 143.794 51.1936 143.86 52.0964H141.463C141.447 51.5274 141.381 51.0814 141.266 50.7586C141.157 50.4303 140.982 50.2005 140.741 50.0692C140.5 49.9324 140.166 49.864 139.74 49.864C139.422 49.864 139.149 49.9215 138.919 50.0364C138.689 50.1458 138.5 50.3236 138.353 50.5698C138.205 50.8161 138.095 51.1389 138.024 51.5383C137.959 51.9377 137.926 52.4247 137.926 52.9992V55.0428C137.926 55.6064 137.956 56.0879 138.016 56.4873C138.076 56.8812 138.172 57.2041 138.303 57.4557C138.435 57.7074 138.612 57.8907 138.837 58.0056C139.067 58.1205 139.357 58.178 139.707 58.178C140.112 58.178 140.437 58.1178 140.683 57.9974C140.935 57.877 141.121 57.6609 141.242 57.349C141.362 57.0372 141.43 56.594 141.447 56.0195ZM153.733 53.0977V55.092C153.733 55.9347 153.629 56.6733 153.421 57.308C153.219 57.9372 152.929 58.4652 152.551 58.892C152.179 59.3133 151.728 59.6307 151.197 59.8441C150.672 60.0575 150.089 60.1641 149.449 60.1641C148.809 60.1641 148.223 60.0575 147.692 59.8441C147.167 59.6307 146.713 59.3133 146.33 58.892C145.953 58.4652 145.66 57.9372 145.452 57.308C145.244 56.6733 145.14 55.9347 145.14 55.092V53.0977C145.14 52.2332 145.241 51.4781 145.444 50.8325C145.646 50.1814 145.939 49.6397 146.322 49.2074C146.705 48.7697 147.159 48.4414 147.684 48.2226C148.21 47.9982 148.792 47.8861 149.432 47.8861C150.073 47.8861 150.655 47.9982 151.181 48.2226C151.706 48.4414 152.16 48.7697 152.543 49.2074C152.926 49.6397 153.219 50.1814 153.421 50.8325C153.629 51.4781 153.733 52.2332 153.733 53.0977ZM151.345 55.092V53.0813C151.345 52.5122 151.304 52.028 151.222 51.6286C151.14 51.2237 151.016 50.8927 150.852 50.6355C150.688 50.3783 150.488 50.1896 150.253 50.0692C150.018 49.9488 149.744 49.8886 149.432 49.8886C149.121 49.8886 148.844 49.9488 148.603 50.0692C148.368 50.1896 148.168 50.3783 148.004 50.6355C147.846 50.8927 147.725 51.2237 147.643 51.6286C147.567 52.028 147.528 52.5122 147.528 53.0813V55.092C147.528 55.6392 147.569 56.107 147.651 56.4955C147.734 56.884 147.857 57.2013 148.021 57.4475C148.185 57.6938 148.385 57.877 148.62 57.9974C148.861 58.1123 149.137 58.1698 149.449 58.1698C149.755 58.1698 150.026 58.1123 150.261 57.9974C150.502 57.877 150.702 57.6938 150.86 57.4475C151.019 57.2013 151.14 56.884 151.222 56.4955C151.304 56.107 151.345 55.6392 151.345 55.092ZM159.019 57.4475L161.284 48.0502H163.877L160.414 60H158.666L159.019 57.4475ZM157.082 48.0502L159.339 57.4475L159.708 60H157.952L154.513 48.0502H157.082ZM171.871 58.0138V60H166.676V58.0138H171.871ZM167.423 48.0502V60H165.018V48.0502H167.423ZM171.173 52.8925V54.8212H166.676V52.8925H171.173ZM171.855 48.0502V50.0446H166.676V48.0502H171.855ZM173.283 48.0502H177.116C177.914 48.0502 178.596 48.187 179.159 48.4606C179.723 48.7341 180.155 49.139 180.456 49.6752C180.757 50.2114 180.907 50.8735 180.907 51.6614C180.907 52.307 180.82 52.8597 180.645 53.3193C180.47 53.7734 180.221 54.1537 179.898 54.4601C179.575 54.761 179.189 55.0018 178.741 55.1823L178.01 55.6173H174.9L174.891 53.6229H177.05C177.378 53.6229 177.649 53.5518 177.862 53.4096C178.081 53.2618 178.243 53.0566 178.347 52.794C178.456 52.5259 178.511 52.214 178.511 51.8584C178.511 51.4808 178.462 51.158 178.363 50.8899C178.27 50.6163 178.12 50.4084 177.912 50.2662C177.709 50.1184 177.444 50.0446 177.116 50.0446H175.687V60H173.283V48.0502ZM178.708 60L176.516 54.6735L179.036 54.6653L181.277 59.8851V60H178.708ZM183.96 48.0502L185.782 53.4342L187.588 48.0502H190.206L186.989 55.6583V60H184.568V55.6583L181.351 48.0502H183.96Z" fill="white"/>
</svg>
