<svg width="129" height="473" viewBox="0 0 129 473" fill="none" xmlns="http://www.w3.org/2000/svg">
<mask id="mask0_8090_41703" style="mask-type:alpha" maskUnits="userSpaceOnUse" x="0" y="0" width="154" height="494">
<g clip-path="url(#clip0_8090_41703)">
<path d="M9 0H0V3.09H9V0Z" fill="black"/>
<path d="M27 0H18V3.09H27V0Z" fill="black"/>
<path d="M36.0117 3.10156H27.0117V6.19156H36.0117V3.10156Z" fill="black"/>
<path d="M18 3.10156H9V6.19156H18V3.10156Z" fill="black"/>
<path d="M45.0117 0H36.0117V3.09H45.0117V0Z" fill="black"/>
<path d="M63.0195 0H54.0195V3.09H63.0195V0Z" fill="black"/>
<path d="M72.0195 3.10156H63.0195V6.19156H72.0195V3.10156Z" fill="black"/>
<path d="M54.0117 3.10156H45.0117V6.19156H54.0117V3.10156Z" fill="black"/>
<path d="M81.0195 0H72.0195V3.09H81.0195V0Z" fill="black"/>
<path d="M9 6.1875H0V9.2775H9V6.1875Z" fill="black"/>
<path d="M27 6.1875H18V9.2775H27V6.1875Z" fill="black"/>
<path d="M36.0117 9.28125H27.0117V12.3713H36.0117V9.28125Z" fill="black"/>
<path d="M18 9.28125H9V12.3713H18V9.28125Z" fill="black"/>
<path d="M45.0117 6.1875H36.0117V9.2775H45.0117V6.1875Z" fill="black"/>
<path d="M63.0195 6.1875H54.0195V9.2775H63.0195V6.1875Z" fill="black"/>
<path d="M72.0195 9.28125H63.0195V12.3713H72.0195V9.28125Z" fill="black"/>
<path d="M54.0117 9.28125H45.0117V12.3713H54.0117V9.28125Z" fill="black"/>
<path d="M81.0195 6.1875H72.0195V9.2775H81.0195V6.1875Z" fill="black"/>
<path d="M9 12.3594H0V15.4494H9V12.3594Z" fill="black"/>
<path d="M27 12.3594H18V15.4494H27V12.3594Z" fill="black"/>
<path d="M36.0117 15.4531H27.0117V18.5431H36.0117V15.4531Z" fill="black"/>
<path d="M18 15.4531H9V18.5431H18V15.4531Z" fill="black"/>
<path d="M45.0117 12.3594H36.0117V15.4494H45.0117V12.3594Z" fill="black"/>
<path d="M63.0195 12.3594H54.0195V15.4494H63.0195V12.3594Z" fill="black"/>
<path d="M72.0195 15.4531H63.0195V18.5431H72.0195V15.4531Z" fill="black"/>
<path d="M54.0117 15.4531H45.0117V18.5431H54.0117V15.4531Z" fill="black"/>
<path d="M81.0195 12.3594H72.0195V15.4494H81.0195V12.3594Z" fill="black"/>
<path d="M9 18.5312H0V21.6213H9V18.5312Z" fill="black"/>
<path d="M27 18.5312H18V21.6213H27V18.5312Z" fill="black"/>
<path d="M36.0117 21.6172H27.0117V24.7072H36.0117V21.6172Z" fill="black"/>
<path d="M18 21.6172H9V24.7072H18V21.6172Z" fill="black"/>
<path d="M45.0117 18.5312H36.0117V21.6213H45.0117V18.5312Z" fill="black"/>
<path d="M63.0195 18.5312H54.0195V21.6213H63.0195V18.5312Z" fill="black"/>
<path d="M72.0195 21.6172H63.0195V24.7072H72.0195V21.6172Z" fill="black"/>
<path d="M54.0117 21.6172H45.0117V24.7072H54.0117V21.6172Z" fill="black"/>
<path d="M81.0195 18.5312H72.0195V21.6213H81.0195V18.5312Z" fill="black"/>
<path d="M9 24.7031H0V27.7931H9V24.7031Z" fill="black"/>
<path d="M27 24.7031H18V27.7931H27V24.7031Z" fill="black"/>
<path d="M36.0117 27.7891H27.0117V30.8791H36.0117V27.7891Z" fill="black"/>
<path d="M18 27.7891H9V30.8791H18V27.7891Z" fill="black"/>
<path d="M45.0117 24.7031H36.0117V27.7931H45.0117V24.7031Z" fill="black"/>
<path d="M63.0195 24.7031H54.0195V27.7931H63.0195V24.7031Z" fill="black"/>
<path d="M72.0195 27.7891H63.0195V30.8791H72.0195V27.7891Z" fill="black"/>
<path d="M54.0117 27.7891H45.0117V30.8791H54.0117V27.7891Z" fill="black"/>
<path d="M81.0195 24.7031H72.0195V27.7931H81.0195V24.7031Z" fill="black"/>
<path d="M9 30.8672H0V33.9572H9V30.8672Z" fill="black"/>
<path d="M27 30.8672H18V33.9572H27V30.8672Z" fill="black"/>
<path d="M36.0117 33.9609H27.0117V37.0509H36.0117V33.9609Z" fill="black"/>
<path d="M18 33.9609H9V37.0509H18V33.9609Z" fill="black"/>
<path d="M45.0117 30.8672H36.0117V33.9572H45.0117V30.8672Z" fill="black"/>
<path d="M63.0195 30.8672H54.0195V33.9572H63.0195V30.8672Z" fill="black"/>
<path d="M72.0195 33.9609H63.0195V37.0509H72.0195V33.9609Z" fill="black"/>
<path d="M54.0117 33.9609H45.0117V37.0509H54.0117V33.9609Z" fill="black"/>
<path d="M81.0195 30.8672H72.0195V33.9572H81.0195V30.8672Z" fill="black"/>
<path d="M9 37.0391H0V40.1291H9V37.0391Z" fill="black"/>
<path d="M27 37.0391H18V40.1291H27V37.0391Z" fill="black"/>
<path d="M36.0117 40.1328H27.0117V43.2228H36.0117V40.1328Z" fill="black"/>
<path d="M18 40.1328H9V43.2228H18V40.1328Z" fill="black"/>
<path d="M45.0117 37.0391H36.0117V40.1291H45.0117V37.0391Z" fill="black"/>
<path d="M63.0195 37.0391H54.0195V40.1291H63.0195V37.0391Z" fill="black"/>
<path d="M72.0195 40.1328H63.0195V43.2228H72.0195V40.1328Z" fill="black"/>
<path d="M54.0117 40.1328H45.0117V43.2228H54.0117V40.1328Z" fill="black"/>
<path d="M81.0195 37.0391H72.0195V40.1291H81.0195V37.0391Z" fill="black"/>
<path d="M9 43.2109H0V46.3009H9V43.2109Z" fill="black"/>
<path d="M27 43.2109H18V46.3009H27V43.2109Z" fill="black"/>
<path d="M36.0117 46.2969H27.0117V49.3869H36.0117V46.2969Z" fill="black"/>
<path d="M18 46.2969H9V49.3869H18V46.2969Z" fill="black"/>
<path d="M45.0117 43.2109H36.0117V46.3009H45.0117V43.2109Z" fill="black"/>
<path d="M63.0195 43.2109H54.0195V46.3009H63.0195V43.2109Z" fill="black"/>
<path d="M72.0195 46.2969H63.0195V49.3869H72.0195V46.2969Z" fill="black"/>
<path d="M54.0117 46.2969H45.0117V49.3869H54.0117V46.2969Z" fill="black"/>
<path d="M81.0195 43.2109H72.0195V46.3009H81.0195V43.2109Z" fill="black"/>
<path d="M9 49.3828H0V52.4728H9V49.3828Z" fill="black"/>
<path d="M27 49.3828H18V52.4728H27V49.3828Z" fill="black"/>
<path d="M36.0117 52.4688H27.0117V55.5588H36.0117V52.4688Z" fill="black"/>
<path d="M18 52.4688H9V55.5588H18V52.4688Z" fill="black"/>
<path d="M45.0117 49.3828H36.0117V52.4728H45.0117V49.3828Z" fill="black"/>
<path d="M63.0195 49.3828H54.0195V52.4728H63.0195V49.3828Z" fill="black"/>
<path d="M72.0195 52.4688H63.0195V55.5588H72.0195V52.4688Z" fill="black"/>
<path d="M54.0117 52.4688H45.0117V55.5588H54.0117V52.4688Z" fill="black"/>
<path d="M81.0195 49.3828H72.0195V52.4728H81.0195V49.3828Z" fill="black"/>
<path d="M9 55.5469H0V58.6369H9V55.5469Z" fill="black"/>
<path d="M27 55.5469H18V58.6369H27V55.5469Z" fill="black"/>
<path d="M36.0117 58.6406H27.0117V61.7306H36.0117V58.6406Z" fill="black"/>
<path d="M18 58.6406H9V61.7306H18V58.6406Z" fill="black"/>
<path d="M45.0117 55.5469H36.0117V58.6369H45.0117V55.5469Z" fill="black"/>
<path d="M63.0195 55.5469H54.0195V58.6369H63.0195V55.5469Z" fill="black"/>
<path d="M72.0195 58.6406H63.0195V61.7306H72.0195V58.6406Z" fill="black"/>
<path d="M54.0117 58.6406H45.0117V61.7306H54.0117V58.6406Z" fill="black"/>
<path d="M81.0195 55.5469H72.0195V58.6369H81.0195V55.5469Z" fill="black"/>
<path d="M9 61.7188H0V64.8087H9V61.7188Z" fill="black"/>
<path d="M27 61.7188H18V64.8087H27V61.7188Z" fill="black"/>
<path d="M36.0117 64.8125H27.0117V67.9025H36.0117V64.8125Z" fill="black"/>
<path d="M18 64.8125H9V67.9025H18V64.8125Z" fill="black"/>
<path d="M45.0117 61.7188H36.0117V64.8087H45.0117V61.7188Z" fill="black"/>
<path d="M63.0195 61.7188H54.0195V64.8087H63.0195V61.7188Z" fill="black"/>
<path d="M72.0195 64.8125H63.0195V67.9025H72.0195V64.8125Z" fill="black"/>
<path d="M54.0117 64.8125H45.0117V67.9025H54.0117V64.8125Z" fill="black"/>
<path d="M81.0195 61.7188H72.0195V64.8087H81.0195V61.7188Z" fill="black"/>
<path d="M9 67.8906H0V70.9806H9V67.8906Z" fill="black"/>
<path d="M27 67.8906H18V70.9806H27V67.8906Z" fill="black"/>
<path d="M36.0117 70.9766H27.0117V74.0666H36.0117V70.9766Z" fill="black"/>
<path d="M18 70.9766H9V74.0666H18V70.9766Z" fill="black"/>
<path d="M45.0117 67.8906H36.0117V70.9806H45.0117V67.8906Z" fill="black"/>
<path d="M63.0195 67.8906H54.0195V70.9806H63.0195V67.8906Z" fill="black"/>
<path d="M72.0195 70.9766H63.0195V74.0666H72.0195V70.9766Z" fill="black"/>
<path d="M54.0117 70.9766H45.0117V74.0666H54.0117V70.9766Z" fill="black"/>
<path d="M81.0195 67.8906H72.0195V70.9806H81.0195V67.8906Z" fill="black"/>
<path d="M9 74.0625H0V77.1525H9V74.0625Z" fill="black"/>
<path d="M27 74.0625H18V77.1525H27V74.0625Z" fill="black"/>
<path d="M36.0117 77.1484H27.0117V80.2384H36.0117V77.1484Z" fill="black"/>
<path d="M18 77.1484H9V80.2384H18V77.1484Z" fill="black"/>
<path d="M45.0117 74.0625H36.0117V77.1525H45.0117V74.0625Z" fill="black"/>
<path d="M63.0195 74.0625H54.0195V77.1525H63.0195V74.0625Z" fill="black"/>
<path d="M72.0195 77.1484H63.0195V80.2384H72.0195V77.1484Z" fill="black"/>
<path d="M54.0117 77.1484H45.0117V80.2384H54.0117V77.1484Z" fill="black"/>
<path d="M81.0195 74.0625H72.0195V77.1525H81.0195V74.0625Z" fill="black"/>
<path d="M9 80.2266H0V83.3166H9V80.2266Z" fill="black"/>
<path d="M27 80.2266H18V83.3166H27V80.2266Z" fill="black"/>
<path d="M36.0117 83.3203H27.0117V86.4103H36.0117V83.3203Z" fill="black"/>
<path d="M18 83.3203H9V86.4103H18V83.3203Z" fill="black"/>
<path d="M45.0117 80.2266H36.0117V83.3166H45.0117V80.2266Z" fill="black"/>
<path d="M63.0195 80.2266H54.0195V83.3166H63.0195V80.2266Z" fill="black"/>
<path d="M72.0195 83.3203H63.0195V86.4103H72.0195V83.3203Z" fill="black"/>
<path d="M54.0117 83.3203H45.0117V86.4103H54.0117V83.3203Z" fill="black"/>
<path d="M81.0195 80.2266H72.0195V83.3166H81.0195V80.2266Z" fill="black"/>
<path d="M9 86.3984H0V89.4884H9V86.3984Z" fill="black"/>
<path d="M27 86.3984H18V89.4884H27V86.3984Z" fill="black"/>
<path d="M36.0117 89.4922H27.0117V92.5822H36.0117V89.4922Z" fill="black"/>
<path d="M18 89.4922H9V92.5822H18V89.4922Z" fill="black"/>
<path d="M45.0117 86.3984H36.0117V89.4884H45.0117V86.3984Z" fill="black"/>
<path d="M63.0195 86.3984H54.0195V89.4884H63.0195V86.3984Z" fill="black"/>
<path d="M72.0195 89.4922H63.0195V92.5822H72.0195V89.4922Z" fill="black"/>
<path d="M54.0117 89.4922H45.0117V92.5822H54.0117V89.4922Z" fill="black"/>
<path d="M81.0195 86.3984H72.0195V89.4884H81.0195V86.3984Z" fill="black"/>
<path d="M9 92.5703H0V95.6603H9V92.5703Z" fill="black"/>
<path d="M27 92.5703H18V95.6603H27V92.5703Z" fill="black"/>
<path d="M36.0117 95.6562H27.0117V98.7462H36.0117V95.6562Z" fill="black"/>
<path d="M18 95.6562H9V98.7462H18V95.6562Z" fill="black"/>
<path d="M45.0117 92.5703H36.0117V95.6603H45.0117V92.5703Z" fill="black"/>
<path d="M63.0195 92.5703H54.0195V95.6603H63.0195V92.5703Z" fill="black"/>
<path d="M72.0195 95.6562H63.0195V98.7462H72.0195V95.6562Z" fill="black"/>
<path d="M54.0117 95.6562H45.0117V98.7462H54.0117V95.6562Z" fill="black"/>
<path d="M81.0195 92.5703H72.0195V95.6603H81.0195V92.5703Z" fill="black"/>
<path d="M9 98.7422H0V101.832H9V98.7422Z" fill="black"/>
<path d="M27 98.7422H18V101.832H27V98.7422Z" fill="black"/>
<path d="M36.0117 101.828H27.0117V104.918H36.0117V101.828Z" fill="black"/>
<path d="M18 101.828H9V104.918H18V101.828Z" fill="black"/>
<path d="M45.0117 98.7422H36.0117V101.832H45.0117V98.7422Z" fill="black"/>
<path d="M63.0195 98.7422H54.0195V101.832H63.0195V98.7422Z" fill="black"/>
<path d="M72.0195 101.828H63.0195V104.918H72.0195V101.828Z" fill="black"/>
<path d="M54.0117 101.828H45.0117V104.918H54.0117V101.828Z" fill="black"/>
<path d="M81.0195 98.7422H72.0195V101.832H81.0195V98.7422Z" fill="black"/>
<path d="M9 104.906H0V107.996H9V104.906Z" fill="black"/>
<path d="M27 104.906H18V107.996H27V104.906Z" fill="black"/>
<path d="M36.0117 108H27.0117V111.09H36.0117V108Z" fill="black"/>
<path d="M18 108H9V111.09H18V108Z" fill="black"/>
<path d="M45.0117 104.906H36.0117V107.996H45.0117V104.906Z" fill="black"/>
<path d="M63.0195 104.906H54.0195V107.996H63.0195V104.906Z" fill="black"/>
<path d="M72.0195 108H63.0195V111.09H72.0195V108Z" fill="black"/>
<path d="M54.0117 108H45.0117V111.09H54.0117V108Z" fill="black"/>
<path d="M81.0195 104.906H72.0195V107.996H81.0195V104.906Z" fill="black"/>
<path d="M9 111.078H0V114.168H9V111.078Z" fill="black"/>
<path d="M27 111.078H18V114.168H27V111.078Z" fill="black"/>
<path d="M36.0117 114.172H27.0117V117.262H36.0117V114.172Z" fill="black"/>
<path d="M18 114.172H9V117.262H18V114.172Z" fill="black"/>
<path d="M45.0117 111.078H36.0117V114.168H45.0117V111.078Z" fill="black"/>
<path d="M63.0195 111.078H54.0195V114.168H63.0195V111.078Z" fill="black"/>
<path d="M72.0195 114.172H63.0195V117.262H72.0195V114.172Z" fill="black"/>
<path d="M54.0117 114.172H45.0117V117.262H54.0117V114.172Z" fill="black"/>
<path d="M81.0195 111.078H72.0195V114.168H81.0195V111.078Z" fill="black"/>
<path d="M9 117.25H0V120.34H9V117.25Z" fill="black"/>
<path d="M27 117.25H18V120.34H27V117.25Z" fill="black"/>
<path d="M36.0117 120.344H27.0117V123.434H36.0117V120.344Z" fill="black"/>
<path d="M18 120.344H9V123.434H18V120.344Z" fill="black"/>
<path d="M45.0117 117.25H36.0117V120.34H45.0117V117.25Z" fill="black"/>
<path d="M63.0195 117.25H54.0195V120.34H63.0195V117.25Z" fill="black"/>
<path d="M72.0195 120.344H63.0195V123.434H72.0195V120.344Z" fill="black"/>
<path d="M54.0117 120.344H45.0117V123.434H54.0117V120.344Z" fill="black"/>
<path d="M81.0195 117.25H72.0195V120.34H81.0195V117.25Z" fill="black"/>
<path d="M9 123.422H0V126.512H9V123.422Z" fill="black"/>
<path d="M27 123.422H18V126.512H27V123.422Z" fill="black"/>
<path d="M36.0117 126.508H27.0117V129.598H36.0117V126.508Z" fill="black"/>
<path d="M18 126.508H9V129.598H18V126.508Z" fill="black"/>
<path d="M45.0117 123.422H36.0117V126.512H45.0117V123.422Z" fill="black"/>
<path d="M63.0195 123.422H54.0195V126.512H63.0195V123.422Z" fill="black"/>
<path d="M72.0195 126.508H63.0195V129.598H72.0195V126.508Z" fill="black"/>
<path d="M54.0117 126.508H45.0117V129.598H54.0117V126.508Z" fill="black"/>
<path d="M81.0195 123.422H72.0195V126.512H81.0195V123.422Z" fill="black"/>
<path d="M9 129.594H0V132.684H9V129.594Z" fill="black"/>
<path d="M27 129.594H18V132.684H27V129.594Z" fill="black"/>
<path d="M36.0117 132.68H27.0117V135.77H36.0117V132.68Z" fill="black"/>
<path d="M18 132.68H9V135.77H18V132.68Z" fill="black"/>
<path d="M45.0117 129.594H36.0117V132.684H45.0117V129.594Z" fill="black"/>
<path d="M63.0195 129.594H54.0195V132.684H63.0195V129.594Z" fill="black"/>
<path d="M72.0195 132.68H63.0195V135.77H72.0195V132.68Z" fill="black"/>
<path d="M54.0117 132.68H45.0117V135.77H54.0117V132.68Z" fill="black"/>
<path d="M81.0195 129.594H72.0195V132.684H81.0195V129.594Z" fill="black"/>
<path d="M9 135.758H0V138.848H9V135.758Z" fill="black"/>
<path d="M27 135.758H18V138.848H27V135.758Z" fill="black"/>
<path d="M36.0117 138.852H27.0117V141.942H36.0117V138.852Z" fill="black"/>
<path d="M18 138.852H9V141.942H18V138.852Z" fill="black"/>
<path d="M45.0117 135.758H36.0117V138.848H45.0117V135.758Z" fill="black"/>
<path d="M63.0195 135.758H54.0195V138.848H63.0195V135.758Z" fill="black"/>
<path d="M72.0195 138.852H63.0195V141.942H72.0195V138.852Z" fill="black"/>
<path d="M54.0117 138.852H45.0117V141.942H54.0117V138.852Z" fill="black"/>
<path d="M81.0195 135.758H72.0195V138.848H81.0195V135.758Z" fill="black"/>
<path d="M9 141.93H0V145.02H9V141.93Z" fill="black"/>
<path d="M27 141.93H18V145.02H27V141.93Z" fill="black"/>
<path d="M36.0117 145.023H27.0117V148.113H36.0117V145.023Z" fill="black"/>
<path d="M18 145.023H9V148.113H18V145.023Z" fill="black"/>
<path d="M45.0117 141.93H36.0117V145.02H45.0117V141.93Z" fill="black"/>
<path d="M63.0195 141.93H54.0195V145.02H63.0195V141.93Z" fill="black"/>
<path d="M72.0195 145.023H63.0195V148.113H72.0195V145.023Z" fill="black"/>
<path d="M54.0117 145.023H45.0117V148.113H54.0117V145.023Z" fill="black"/>
<path d="M81.0195 141.93H72.0195V145.02H81.0195V141.93Z" fill="black"/>
<path d="M9 148.102H0V151.192H9V148.102Z" fill="black"/>
<path d="M27 148.102H18V151.192H27V148.102Z" fill="black"/>
<path d="M36.0117 151.188H27.0117V154.277H36.0117V151.188Z" fill="black"/>
<path d="M18 151.188H9V154.277H18V151.188Z" fill="black"/>
<path d="M45.0117 148.102H36.0117V151.192H45.0117V148.102Z" fill="black"/>
<path d="M63.0195 148.102H54.0195V151.192H63.0195V148.102Z" fill="black"/>
<path d="M72.0195 151.188H63.0195V154.277H72.0195V151.188Z" fill="black"/>
<path d="M54.0117 151.188H45.0117V154.277H54.0117V151.188Z" fill="black"/>
<path d="M81.0195 148.102H72.0195V151.192H81.0195V148.102Z" fill="black"/>
<path d="M9 154.273H0V157.363H9V154.273Z" fill="black"/>
<path d="M27 154.273H18V157.363H27V154.273Z" fill="black"/>
<path d="M36.0117 157.359H27.0117V160.449H36.0117V157.359Z" fill="black"/>
<path d="M18 157.359H9V160.449H18V157.359Z" fill="black"/>
<path d="M45.0117 154.273H36.0117V157.363H45.0117V154.273Z" fill="black"/>
<path d="M63.0195 154.273H54.0195V157.363H63.0195V154.273Z" fill="black"/>
<path d="M72.0195 157.359H63.0195V160.449H72.0195V157.359Z" fill="black"/>
<path d="M54.0117 157.359H45.0117V160.449H54.0117V157.359Z" fill="black"/>
<path d="M81.0195 154.273H72.0195V157.363H81.0195V154.273Z" fill="black"/>
<path d="M9 160.438H0V163.527H9V160.438Z" fill="black"/>
<path d="M27 160.438H18V163.527H27V160.438Z" fill="black"/>
<path d="M36.0117 163.531H27.0117V166.621H36.0117V163.531Z" fill="black"/>
<path d="M18 163.531H9V166.621H18V163.531Z" fill="black"/>
<path d="M45.0117 160.438H36.0117V163.527H45.0117V160.438Z" fill="black"/>
<path d="M63.0195 160.438H54.0195V163.527H63.0195V160.438Z" fill="black"/>
<path d="M72.0195 163.531H63.0195V166.621H72.0195V163.531Z" fill="black"/>
<path d="M54.0117 163.531H45.0117V166.621H54.0117V163.531Z" fill="black"/>
<path d="M81.0195 160.438H72.0195V163.527H81.0195V160.438Z" fill="black"/>
<path d="M9 166.609H0V169.699H9V166.609Z" fill="black"/>
<path d="M27 166.609H18V169.699H27V166.609Z" fill="black"/>
<path d="M36.0117 169.703H27.0117V172.793H36.0117V169.703Z" fill="black"/>
<path d="M18 169.703H9V172.793H18V169.703Z" fill="black"/>
<path d="M45.0117 166.609H36.0117V169.699H45.0117V166.609Z" fill="black"/>
<path d="M63.0195 166.609H54.0195V169.699H63.0195V166.609Z" fill="black"/>
<path d="M72.0195 169.703H63.0195V172.793H72.0195V169.703Z" fill="black"/>
<path d="M54.0117 169.703H45.0117V172.793H54.0117V169.703Z" fill="black"/>
<path d="M81.0195 166.609H72.0195V169.699H81.0195V166.609Z" fill="black"/>
<path d="M9 172.781H0V175.871H9V172.781Z" fill="black"/>
<path d="M27 172.781H18V175.871H27V172.781Z" fill="black"/>
<path d="M36.0117 175.867H27.0117V178.957H36.0117V175.867Z" fill="black"/>
<path d="M18 175.867H9V178.957H18V175.867Z" fill="black"/>
<path d="M45.0117 172.781H36.0117V175.871H45.0117V172.781Z" fill="black"/>
<path d="M63.0195 172.781H54.0195V175.871H63.0195V172.781Z" fill="black"/>
<path d="M72.0195 175.867H63.0195V178.957H72.0195V175.867Z" fill="black"/>
<path d="M54.0117 175.867H45.0117V178.957H54.0117V175.867Z" fill="black"/>
<path d="M81.0195 172.781H72.0195V175.871H81.0195V172.781Z" fill="black"/>
<path d="M9 178.938H0V182.027H9V178.938Z" fill="black"/>
<path d="M27 178.938H18V182.027H27V178.938Z" fill="black"/>
<path d="M36.0117 182.039H27.0117V185.129H36.0117V182.039Z" fill="black"/>
<path d="M18 182.039H9V185.129H18V182.039Z" fill="black"/>
<path d="M45.0117 178.938H36.0117V182.027H45.0117V178.938Z" fill="black"/>
<path d="M63.0195 178.938H54.0195V182.027H63.0195V178.938Z" fill="black"/>
<path d="M72.0195 182.039H63.0195V185.129H72.0195V182.039Z" fill="black"/>
<path d="M54.0117 182.039H45.0117V185.129H54.0117V182.039Z" fill="black"/>
<path d="M81.0195 178.938H72.0195V182.027H81.0195V178.938Z" fill="black"/>
<path d="M9 185.109H0V188.199H9V185.109Z" fill="black"/>
<path d="M27 185.109H18V188.199H27V185.109Z" fill="black"/>
<path d="M36.0117 188.211H27.0117V191.301H36.0117V188.211Z" fill="black"/>
<path d="M18 188.211H9V191.301H18V188.211Z" fill="black"/>
<path d="M45.0117 185.109H36.0117V188.199H45.0117V185.109Z" fill="black"/>
<path d="M63.0195 185.109H54.0195V188.199H63.0195V185.109Z" fill="black"/>
<path d="M72.0195 188.211H63.0195V191.301H72.0195V188.211Z" fill="black"/>
<path d="M54.0117 188.211H45.0117V191.301H54.0117V188.211Z" fill="black"/>
<path d="M81.0195 185.109H72.0195V188.199H81.0195V185.109Z" fill="black"/>
<path d="M9 191.281H0V194.371H9V191.281Z" fill="black"/>
<path d="M27 191.281H18V194.371H27V191.281Z" fill="black"/>
<path d="M36.0117 194.383H27.0117V197.473H36.0117V194.383Z" fill="black"/>
<path d="M18 194.383H9V197.473H18V194.383Z" fill="black"/>
<path d="M45.0117 191.281H36.0117V194.371H45.0117V191.281Z" fill="black"/>
<path d="M63.0195 191.281H54.0195V194.371H63.0195V191.281Z" fill="black"/>
<path d="M72.0195 194.383H63.0195V197.473H72.0195V194.383Z" fill="black"/>
<path d="M54.0117 194.383H45.0117V197.473H54.0117V194.383Z" fill="black"/>
<path d="M81.0195 191.281H72.0195V194.371H81.0195V191.281Z" fill="black"/>
<path d="M9 197.453H0V200.543H9V197.453Z" fill="black"/>
<path d="M27 197.453H18V200.543H27V197.453Z" fill="black"/>
<path d="M36.0117 200.547H27.0117V203.637H36.0117V200.547Z" fill="black"/>
<path d="M18 200.547H9V203.637H18V200.547Z" fill="black"/>
<path d="M45.0117 197.453H36.0117V200.543H45.0117V197.453Z" fill="black"/>
<path d="M63.0195 197.453H54.0195V200.543H63.0195V197.453Z" fill="black"/>
<path d="M72.0195 200.547H63.0195V203.637H72.0195V200.547Z" fill="black"/>
<path d="M54.0117 200.547H45.0117V203.637H54.0117V200.547Z" fill="black"/>
<path d="M81.0195 197.453H72.0195V200.543H81.0195V197.453Z" fill="black"/>
<path d="M9 203.617H0V206.707H9V203.617Z" fill="black"/>
<path d="M27 203.617H18V206.707H27V203.617Z" fill="black"/>
<path d="M36.0117 206.719H27.0117V209.809H36.0117V206.719Z" fill="black"/>
<path d="M18 206.719H9V209.809H18V206.719Z" fill="black"/>
<path d="M45.0117 203.617H36.0117V206.707H45.0117V203.617Z" fill="black"/>
<path d="M63.0195 203.617H54.0195V206.707H63.0195V203.617Z" fill="black"/>
<path d="M72.0195 206.719H63.0195V209.809H72.0195V206.719Z" fill="black"/>
<path d="M54.0117 206.719H45.0117V209.809H54.0117V206.719Z" fill="black"/>
<path d="M81.0195 203.617H72.0195V206.707H81.0195V203.617Z" fill="black"/>
<path d="M9 209.789H0V212.879H9V209.789Z" fill="black"/>
<path d="M27 209.789H18V212.879H27V209.789Z" fill="black"/>
<path d="M36.0117 212.891H27.0117V215.981H36.0117V212.891Z" fill="black"/>
<path d="M18 212.891H9V215.981H18V212.891Z" fill="black"/>
<path d="M45.0117 209.789H36.0117V212.879H45.0117V209.789Z" fill="black"/>
<path d="M63.0195 209.789H54.0195V212.879H63.0195V209.789Z" fill="black"/>
<path d="M72.0195 212.891H63.0195V215.981H72.0195V212.891Z" fill="black"/>
<path d="M54.0117 212.891H45.0117V215.981H54.0117V212.891Z" fill="black"/>
<path d="M81.0195 209.789H72.0195V212.879H81.0195V209.789Z" fill="black"/>
<path d="M9 215.961H0V219.051H9V215.961Z" fill="black"/>
<path d="M27 215.961H18V219.051H27V215.961Z" fill="black"/>
<path d="M36.0117 219.062H27.0117V222.152H36.0117V219.062Z" fill="black"/>
<path d="M18 219.062H9V222.152H18V219.062Z" fill="black"/>
<path d="M45.0117 215.961H36.0117V219.051H45.0117V215.961Z" fill="black"/>
<path d="M63.0195 215.961H54.0195V219.051H63.0195V215.961Z" fill="black"/>
<path d="M72.0195 219.062H63.0195V222.152H72.0195V219.062Z" fill="black"/>
<path d="M54.0117 219.062H45.0117V222.152H54.0117V219.062Z" fill="black"/>
<path d="M81.0195 215.961H72.0195V219.051H81.0195V215.961Z" fill="black"/>
<path d="M9 222.133H0V225.223H9V222.133Z" fill="black"/>
<path d="M27 222.133H18V225.223H27V222.133Z" fill="black"/>
<path d="M36.0117 225.227H27.0117V228.317H36.0117V225.227Z" fill="black"/>
<path d="M18 225.227H9V228.317H18V225.227Z" fill="black"/>
<path d="M45.0117 222.133H36.0117V225.223H45.0117V222.133Z" fill="black"/>
<path d="M63.0195 222.133H54.0195V225.223H63.0195V222.133Z" fill="black"/>
<path d="M72.0195 225.227H63.0195V228.317H72.0195V225.227Z" fill="black"/>
<path d="M54.0117 225.227H45.0117V228.317H54.0117V225.227Z" fill="black"/>
<path d="M81.0195 222.133H72.0195V225.223H81.0195V222.133Z" fill="black"/>
<path d="M9 228.297H0V231.387H9V228.297Z" fill="black"/>
<path d="M27 228.297H18V231.387H27V228.297Z" fill="black"/>
<path d="M36.0117 231.398H27.0117V234.488H36.0117V231.398Z" fill="black"/>
<path d="M18 231.398H9V234.488H18V231.398Z" fill="black"/>
<path d="M45.0117 228.297H36.0117V231.387H45.0117V228.297Z" fill="black"/>
<path d="M63.0195 228.297H54.0195V231.387H63.0195V228.297Z" fill="black"/>
<path d="M72.0195 231.398H63.0195V234.488H72.0195V231.398Z" fill="black"/>
<path d="M54.0117 231.398H45.0117V234.488H54.0117V231.398Z" fill="black"/>
<path d="M81.0195 228.297H72.0195V231.387H81.0195V228.297Z" fill="black"/>
<path d="M9 234.469H0V237.559H9V234.469Z" fill="black"/>
<path d="M27 234.469H18V237.559H27V234.469Z" fill="black"/>
<path d="M36.0117 237.57H27.0117V240.66H36.0117V237.57Z" fill="black"/>
<path d="M18 237.57H9V240.66H18V237.57Z" fill="black"/>
<path d="M45.0117 234.469H36.0117V237.559H45.0117V234.469Z" fill="black"/>
<path d="M63.0195 234.469H54.0195V237.559H63.0195V234.469Z" fill="black"/>
<path d="M72.0195 237.57H63.0195V240.66H72.0195V237.57Z" fill="black"/>
<path d="M54.0117 237.57H45.0117V240.66H54.0117V237.57Z" fill="black"/>
<path d="M81.0195 234.469H72.0195V237.559H81.0195V234.469Z" fill="black"/>
<path d="M9 240.641H0V243.731H9V240.641Z" fill="black"/>
<path d="M27 240.641H18V243.731H27V240.641Z" fill="black"/>
<path d="M36.0117 243.742H27.0117V246.832H36.0117V243.742Z" fill="black"/>
<path d="M18 243.742H9V246.832H18V243.742Z" fill="black"/>
<path d="M45.0117 240.641H36.0117V243.731H45.0117V240.641Z" fill="black"/>
<path d="M63.0195 240.641H54.0195V243.731H63.0195V240.641Z" fill="black"/>
<path d="M72.0195 243.742H63.0195V246.832H72.0195V243.742Z" fill="black"/>
<path d="M54.0117 243.742H45.0117V246.832H54.0117V243.742Z" fill="black"/>
<path d="M81.0195 240.641H72.0195V243.731H81.0195V240.641Z" fill="black"/>
<path d="M9 246.812H0V249.902H9V246.812Z" fill="black"/>
<path d="M27 246.812H18V249.902H27V246.812Z" fill="black"/>
<path d="M36.0117 249.906H27.0117V252.996H36.0117V249.906Z" fill="black"/>
<path d="M18 249.906H9V252.996H18V249.906Z" fill="black"/>
<path d="M45.0117 246.812H36.0117V249.902H45.0117V246.812Z" fill="black"/>
<path d="M63.0195 246.812H54.0195V249.902H63.0195V246.812Z" fill="black"/>
<path d="M72.0195 249.906H63.0195V252.996H72.0195V249.906Z" fill="black"/>
<path d="M54.0117 249.906H45.0117V252.996H54.0117V249.906Z" fill="black"/>
<path d="M81.0195 246.812H72.0195V249.902H81.0195V246.812Z" fill="black"/>
<path d="M9 252.977H0V256.067H9V252.977Z" fill="black"/>
<path d="M27 252.977H18V256.067H27V252.977Z" fill="black"/>
<path d="M36.0117 256.078H27.0117V259.168H36.0117V256.078Z" fill="black"/>
<path d="M18 256.078H9V259.168H18V256.078Z" fill="black"/>
<path d="M45.0117 252.977H36.0117V256.067H45.0117V252.977Z" fill="black"/>
<path d="M63.0195 252.977H54.0195V256.067H63.0195V252.977Z" fill="black"/>
<path d="M72.0195 256.078H63.0195V259.168H72.0195V256.078Z" fill="black"/>
<path d="M54.0117 256.078H45.0117V259.168H54.0117V256.078Z" fill="black"/>
<path d="M81.0195 252.977H72.0195V256.067H81.0195V252.977Z" fill="black"/>
<path d="M9 259.148H0V262.238H9V259.148Z" fill="black"/>
<path d="M27 259.148H18V262.238H27V259.148Z" fill="black"/>
<path d="M36.0117 262.25H27.0117V265.34H36.0117V262.25Z" fill="black"/>
<path d="M18 262.25H9V265.34H18V262.25Z" fill="black"/>
<path d="M45.0117 259.148H36.0117V262.238H45.0117V259.148Z" fill="black"/>
<path d="M63.0195 259.148H54.0195V262.238H63.0195V259.148Z" fill="black"/>
<path d="M72.0195 262.25H63.0195V265.34H72.0195V262.25Z" fill="black"/>
<path d="M54.0117 262.25H45.0117V265.34H54.0117V262.25Z" fill="black"/>
<path d="M81.0195 259.148H72.0195V262.238H81.0195V259.148Z" fill="black"/>
<path d="M9 265.32H0V268.41H9V265.32Z" fill="black"/>
<path d="M27 265.32H18V268.41H27V265.32Z" fill="black"/>
<path d="M36.0117 268.422H27.0117V271.512H36.0117V268.422Z" fill="black"/>
<path d="M18 268.422H9V271.512H18V268.422Z" fill="black"/>
<path d="M45.0117 265.32H36.0117V268.41H45.0117V265.32Z" fill="black"/>
<path d="M63.0195 265.32H54.0195V268.41H63.0195V265.32Z" fill="black"/>
<path d="M72.0195 268.422H63.0195V271.512H72.0195V268.422Z" fill="black"/>
<path d="M54.0117 268.422H45.0117V271.512H54.0117V268.422Z" fill="black"/>
<path d="M81.0195 265.32H72.0195V268.41H81.0195V265.32Z" fill="black"/>
<path d="M9 271.492H0V274.582H9V271.492Z" fill="black"/>
<path d="M27 271.492H18V274.582H27V271.492Z" fill="black"/>
<path d="M36.0117 274.594H27.0117V277.684H36.0117V274.594Z" fill="black"/>
<path d="M18 274.594H9V277.684H18V274.594Z" fill="black"/>
<path d="M45.0117 271.492H36.0117V274.582H45.0117V271.492Z" fill="black"/>
<path d="M63.0195 271.492H54.0195V274.582H63.0195V271.492Z" fill="black"/>
<path d="M72.0195 274.594H63.0195V277.684H72.0195V274.594Z" fill="black"/>
<path d="M54.0117 274.594H45.0117V277.684H54.0117V274.594Z" fill="black"/>
<path d="M81.0195 271.492H72.0195V274.582H81.0195V271.492Z" fill="black"/>
<path d="M9 277.656H0V280.746H9V277.656Z" fill="black"/>
<path d="M27 277.656H18V280.746H27V277.656Z" fill="black"/>
<path d="M36.0117 280.758H27.0117V283.848H36.0117V280.758Z" fill="black"/>
<path d="M18 280.758H9V283.848H18V280.758Z" fill="black"/>
<path d="M45.0117 277.656H36.0117V280.746H45.0117V277.656Z" fill="black"/>
<path d="M63.0195 277.656H54.0195V280.746H63.0195V277.656Z" fill="black"/>
<path d="M72.0195 280.758H63.0195V283.848H72.0195V280.758Z" fill="black"/>
<path d="M54.0117 280.758H45.0117V283.848H54.0117V280.758Z" fill="black"/>
<path d="M81.0195 277.656H72.0195V280.746H81.0195V277.656Z" fill="black"/>
<path d="M9 283.828H0V286.918H9V283.828Z" fill="black"/>
<path d="M27 283.828H18V286.918H27V283.828Z" fill="black"/>
<path d="M36.0117 286.93H27.0117V290.02H36.0117V286.93Z" fill="black"/>
<path d="M18 286.93H9V290.02H18V286.93Z" fill="black"/>
<path d="M45.0117 283.828H36.0117V286.918H45.0117V283.828Z" fill="black"/>
<path d="M63.0195 283.828H54.0195V286.918H63.0195V283.828Z" fill="black"/>
<path d="M72.0195 286.93H63.0195V290.02H72.0195V286.93Z" fill="black"/>
<path d="M54.0117 286.93H45.0117V290.02H54.0117V286.93Z" fill="black"/>
<path d="M81.0195 283.828H72.0195V286.918H81.0195V283.828Z" fill="black"/>
<path d="M9 290H0V293.09H9V290Z" fill="black"/>
<path d="M27 290H18V293.09H27V290Z" fill="black"/>
<path d="M36.0117 293.102H27.0117V296.192H36.0117V293.102Z" fill="black"/>
<path d="M18 293.102H9V296.192H18V293.102Z" fill="black"/>
<path d="M45.0117 290H36.0117V293.09H45.0117V290Z" fill="black"/>
<path d="M63.0195 290H54.0195V293.09H63.0195V290Z" fill="black"/>
<path d="M72.0195 293.102H63.0195V296.192H72.0195V293.102Z" fill="black"/>
<path d="M54.0117 293.102H45.0117V296.192H54.0117V293.102Z" fill="black"/>
<path d="M81.0195 290H72.0195V293.09H81.0195V290Z" fill="black"/>
<path d="M9 296.172H0V299.262H9V296.172Z" fill="black"/>
<path d="M27 296.172H18V299.262H27V296.172Z" fill="black"/>
<path d="M36.0117 299.273H27.0117V302.363H36.0117V299.273Z" fill="black"/>
<path d="M18 299.273H9V302.363H18V299.273Z" fill="black"/>
<path d="M45.0117 296.172H36.0117V299.262H45.0117V296.172Z" fill="black"/>
<path d="M63.0195 296.172H54.0195V299.262H63.0195V296.172Z" fill="black"/>
<path d="M72.0195 299.273H63.0195V302.363H72.0195V299.273Z" fill="black"/>
<path d="M54.0117 299.273H45.0117V302.363H54.0117V299.273Z" fill="black"/>
<path d="M81.0195 296.172H72.0195V299.262H81.0195V296.172Z" fill="black"/>
<path d="M9 302.344H0V305.434H9V302.344Z" fill="black"/>
<path d="M27 302.344H18V305.434H27V302.344Z" fill="black"/>
<path d="M36.0117 305.438H27.0117V308.527H36.0117V305.438Z" fill="black"/>
<path d="M18 305.438H9V308.527H18V305.438Z" fill="black"/>
<path d="M45.0117 302.344H36.0117V305.434H45.0117V302.344Z" fill="black"/>
<path d="M63.0195 302.344H54.0195V305.434H63.0195V302.344Z" fill="black"/>
<path d="M72.0195 305.438H63.0195V308.527H72.0195V305.438Z" fill="black"/>
<path d="M54.0117 305.438H45.0117V308.527H54.0117V305.438Z" fill="black"/>
<path d="M81.0195 302.344H72.0195V305.434H81.0195V302.344Z" fill="black"/>
<path d="M9 308.508H0V311.598H9V308.508Z" fill="black"/>
<path d="M27 308.508H18V311.598H27V308.508Z" fill="black"/>
<path d="M36.0117 311.609H27.0117V314.699H36.0117V311.609Z" fill="black"/>
<path d="M18 311.609H9V314.699H18V311.609Z" fill="black"/>
<path d="M45.0117 308.508H36.0117V311.598H45.0117V308.508Z" fill="black"/>
<path d="M63.0195 308.508H54.0195V311.598H63.0195V308.508Z" fill="black"/>
<path d="M72.0195 311.609H63.0195V314.699H72.0195V311.609Z" fill="black"/>
<path d="M54.0117 311.609H45.0117V314.699H54.0117V311.609Z" fill="black"/>
<path d="M81.0195 308.508H72.0195V311.598H81.0195V308.508Z" fill="black"/>
<path d="M9 314.68H0V317.77H9V314.68Z" fill="black"/>
<path d="M27 314.68H18V317.77H27V314.68Z" fill="black"/>
<path d="M36.0117 317.781H27.0117V320.871H36.0117V317.781Z" fill="black"/>
<path d="M18 317.781H9V320.871H18V317.781Z" fill="black"/>
<path d="M45.0117 314.68H36.0117V317.77H45.0117V314.68Z" fill="black"/>
<path d="M63.0195 314.68H54.0195V317.77H63.0195V314.68Z" fill="black"/>
<path d="M72.0195 317.781H63.0195V320.871H72.0195V317.781Z" fill="black"/>
<path d="M54.0117 317.781H45.0117V320.871H54.0117V317.781Z" fill="black"/>
<path d="M81.0195 314.68H72.0195V317.77H81.0195V314.68Z" fill="black"/>
<path d="M9 320.852H0V323.942H9V320.852Z" fill="black"/>
<path d="M27 320.852H18V323.942H27V320.852Z" fill="black"/>
<path d="M36.0117 323.953H27.0117V327.043H36.0117V323.953Z" fill="black"/>
<path d="M18 323.953H9V327.043H18V323.953Z" fill="black"/>
<path d="M45.0117 320.852H36.0117V323.942H45.0117V320.852Z" fill="black"/>
<path d="M63.0195 320.852H54.0195V323.942H63.0195V320.852Z" fill="black"/>
<path d="M72.0195 323.953H63.0195V327.043H72.0195V323.953Z" fill="black"/>
<path d="M54.0117 323.953H45.0117V327.043H54.0117V323.953Z" fill="black"/>
<path d="M81.0195 320.852H72.0195V323.942H81.0195V320.852Z" fill="black"/>
<path d="M9 327.023H0V330.113H9V327.023Z" fill="black"/>
<path d="M27 327.023H18V330.113H27V327.023Z" fill="black"/>
<path d="M36.0117 330.117H27.0117V333.207H36.0117V330.117Z" fill="black"/>
<path d="M18 330.117H9V333.207H18V330.117Z" fill="black"/>
<path d="M45.0117 327.023H36.0117V330.113H45.0117V327.023Z" fill="black"/>
<path d="M63.0195 327.023H54.0195V330.113H63.0195V327.023Z" fill="black"/>
<path d="M72.0195 330.117H63.0195V333.207H72.0195V330.117Z" fill="black"/>
<path d="M54.0117 330.117H45.0117V333.207H54.0117V330.117Z" fill="black"/>
<path d="M81.0195 327.023H72.0195V330.113H81.0195V327.023Z" fill="black"/>
<path d="M9 333.188H0V336.277H9V333.188Z" fill="black"/>
<path d="M27 333.188H18V336.277H27V333.188Z" fill="black"/>
<path d="M36.0117 336.289H27.0117V339.379H36.0117V336.289Z" fill="black"/>
<path d="M18 336.289H9V339.379H18V336.289Z" fill="black"/>
<path d="M45.0117 333.188H36.0117V336.277H45.0117V333.188Z" fill="black"/>
<path d="M63.0195 333.188H54.0195V336.277H63.0195V333.188Z" fill="black"/>
<path d="M72.0195 336.289H63.0195V339.379H72.0195V336.289Z" fill="black"/>
<path d="M54.0117 336.289H45.0117V339.379H54.0117V336.289Z" fill="black"/>
<path d="M81.0195 333.188H72.0195V336.277H81.0195V333.188Z" fill="black"/>
<path d="M9 339.359H0V342.449H9V339.359Z" fill="black"/>
<path d="M27 339.359H18V342.449H27V339.359Z" fill="black"/>
<path d="M36.0117 342.461H27.0117V345.551H36.0117V342.461Z" fill="black"/>
<path d="M18 342.461H9V345.551H18V342.461Z" fill="black"/>
<path d="M45.0117 339.359H36.0117V342.449H45.0117V339.359Z" fill="black"/>
<path d="M63.0195 339.359H54.0195V342.449H63.0195V339.359Z" fill="black"/>
<path d="M72.0195 342.461H63.0195V345.551H72.0195V342.461Z" fill="black"/>
<path d="M54.0117 342.461H45.0117V345.551H54.0117V342.461Z" fill="black"/>
<path d="M81.0195 339.359H72.0195V342.449H81.0195V339.359Z" fill="black"/>
<path d="M9 345.531H0V348.621H9V345.531Z" fill="black"/>
<path d="M27 345.531H18V348.621H27V345.531Z" fill="black"/>
<path d="M36.0117 348.633H27.0117V351.723H36.0117V348.633Z" fill="black"/>
<path d="M18 348.633H9V351.723H18V348.633Z" fill="black"/>
<path d="M45.0117 345.531H36.0117V348.621H45.0117V345.531Z" fill="black"/>
<path d="M63.0195 345.531H54.0195V348.621H63.0195V345.531Z" fill="black"/>
<path d="M72.0195 348.633H63.0195V351.723H72.0195V348.633Z" fill="black"/>
<path d="M54.0117 348.633H45.0117V351.723H54.0117V348.633Z" fill="black"/>
<path d="M81.0195 345.531H72.0195V348.621H81.0195V345.531Z" fill="black"/>
<path d="M9 351.703H0V354.793H9V351.703Z" fill="black"/>
<path d="M27 351.703H18V354.793H27V351.703Z" fill="black"/>
<path d="M36.0117 354.797H27.0117V357.887H36.0117V354.797Z" fill="black"/>
<path d="M18 354.797H9V357.887H18V354.797Z" fill="black"/>
<path d="M45.0117 351.703H36.0117V354.793H45.0117V351.703Z" fill="black"/>
<path d="M63.0195 351.703H54.0195V354.793H63.0195V351.703Z" fill="black"/>
<path d="M72.0195 354.797H63.0195V357.887H72.0195V354.797Z" fill="black"/>
<path d="M54.0117 354.797H45.0117V357.887H54.0117V354.797Z" fill="black"/>
<path d="M81.0195 351.703H72.0195V354.793H81.0195V351.703Z" fill="black"/>
<path d="M9 357.867H0V360.957H9V357.867Z" fill="black"/>
<path d="M27 357.867H18V360.957H27V357.867Z" fill="black"/>
<path d="M36.0117 360.969H27.0117V364.059H36.0117V360.969Z" fill="black"/>
<path d="M18 360.969H9V364.059H18V360.969Z" fill="black"/>
<path d="M45.0117 357.867H36.0117V360.957H45.0117V357.867Z" fill="black"/>
<path d="M63.0195 357.867H54.0195V360.957H63.0195V357.867Z" fill="black"/>
<path d="M72.0195 360.969H63.0195V364.059H72.0195V360.969Z" fill="black"/>
<path d="M54.0117 360.969H45.0117V364.059H54.0117V360.969Z" fill="black"/>
<path d="M81.0195 357.867H72.0195V360.957H81.0195V357.867Z" fill="black"/>
<path d="M9 364.039H0V367.129H9V364.039Z" fill="black"/>
<path d="M27 364.039H18V367.129H27V364.039Z" fill="black"/>
<path d="M36.0117 367.141H27.0117V370.231H36.0117V367.141Z" fill="black"/>
<path d="M18 367.141H9V370.231H18V367.141Z" fill="black"/>
<path d="M45.0117 364.039H36.0117V367.129H45.0117V364.039Z" fill="black"/>
<path d="M63.0195 364.039H54.0195V367.129H63.0195V364.039Z" fill="black"/>
<path d="M72.0195 367.141H63.0195V370.231H72.0195V367.141Z" fill="black"/>
<path d="M54.0117 367.141H45.0117V370.231H54.0117V367.141Z" fill="black"/>
<path d="M81.0195 364.039H72.0195V367.129H81.0195V364.039Z" fill="black"/>
<path d="M9 370.211H0V373.301H9V370.211Z" fill="black"/>
<path d="M27 370.211H18V373.301H27V370.211Z" fill="black"/>
<path d="M36.0117 373.312H27.0117V376.402H36.0117V373.312Z" fill="black"/>
<path d="M18 373.312H9V376.402H18V373.312Z" fill="black"/>
<path d="M45.0117 370.211H36.0117V373.301H45.0117V370.211Z" fill="black"/>
<path d="M63.0195 370.211H54.0195V373.301H63.0195V370.211Z" fill="black"/>
<path d="M72.0195 373.312H63.0195V376.402H72.0195V373.312Z" fill="black"/>
<path d="M54.0117 373.312H45.0117V376.402H54.0117V373.312Z" fill="black"/>
<path d="M81.0195 370.211H72.0195V373.301H81.0195V370.211Z" fill="black"/>
<path d="M9 376.383H0V379.473H9V376.383Z" fill="black"/>
<path d="M27 376.383H18V379.473H27V376.383Z" fill="black"/>
<path d="M36.0117 379.477H27.0117V382.567H36.0117V379.477Z" fill="black"/>
<path d="M18 379.477H9V382.567H18V379.477Z" fill="black"/>
<path d="M45.0117 376.383H36.0117V379.473H45.0117V376.383Z" fill="black"/>
<path d="M63.0195 376.383H54.0195V379.473H63.0195V376.383Z" fill="black"/>
<path d="M72.0195 379.477H63.0195V382.567H72.0195V379.477Z" fill="black"/>
<path d="M54.0117 379.477H45.0117V382.567H54.0117V379.477Z" fill="black"/>
<path d="M81.0195 376.383H72.0195V379.473H81.0195V376.383Z" fill="black"/>
<path d="M9 382.547H0V385.637H9V382.547Z" fill="black"/>
<path d="M27 382.547H18V385.637H27V382.547Z" fill="black"/>
<path d="M36.0117 385.648H27.0117V388.738H36.0117V385.648Z" fill="black"/>
<path d="M18 385.648H9V388.738H18V385.648Z" fill="black"/>
<path d="M45.0117 382.547H36.0117V385.637H45.0117V382.547Z" fill="black"/>
<path d="M63.0195 382.547H54.0195V385.637H63.0195V382.547Z" fill="black"/>
<path d="M72.0195 385.648H63.0195V388.738H72.0195V385.648Z" fill="black"/>
<path d="M54.0117 385.648H45.0117V388.738H54.0117V385.648Z" fill="black"/>
<path d="M81.0195 382.547H72.0195V385.637H81.0195V382.547Z" fill="black"/>
<path d="M9 388.719H0V391.809H9V388.719Z" fill="black"/>
<path d="M27 388.719H18V391.809H27V388.719Z" fill="black"/>
<path d="M36.0117 391.82H27.0117V394.91H36.0117V391.82Z" fill="black"/>
<path d="M18 391.82H9V394.91H18V391.82Z" fill="black"/>
<path d="M45.0117 388.719H36.0117V391.809H45.0117V388.719Z" fill="black"/>
<path d="M63.0195 388.719H54.0195V391.809H63.0195V388.719Z" fill="black"/>
<path d="M72.0195 391.82H63.0195V394.91H72.0195V391.82Z" fill="black"/>
<path d="M54.0117 391.82H45.0117V394.91H54.0117V391.82Z" fill="black"/>
<path d="M81.0195 388.719H72.0195V391.809H81.0195V388.719Z" fill="black"/>
<path d="M9 394.891H0V397.981H9V394.891Z" fill="black"/>
<path d="M27 394.891H18V397.981H27V394.891Z" fill="black"/>
<path d="M36.0117 397.992H27.0117V401.082H36.0117V397.992Z" fill="black"/>
<path d="M18 397.992H9V401.082H18V397.992Z" fill="black"/>
<path d="M45.0117 394.891H36.0117V397.981H45.0117V394.891Z" fill="black"/>
<path d="M63.0195 394.891H54.0195V397.981H63.0195V394.891Z" fill="black"/>
<path d="M72.0195 397.992H63.0195V401.082H72.0195V397.992Z" fill="black"/>
<path d="M54.0117 397.992H45.0117V401.082H54.0117V397.992Z" fill="black"/>
<path d="M81.0195 394.891H72.0195V397.981H81.0195V394.891Z" fill="black"/>
<path d="M9 401.062H0V404.152H9V401.062Z" fill="black"/>
<path d="M27 401.062H18V404.152H27V401.062Z" fill="black"/>
<path d="M36.0117 404.156H27.0117V407.246H36.0117V404.156Z" fill="black"/>
<path d="M18 404.156H9V407.246H18V404.156Z" fill="black"/>
<path d="M45.0117 401.062H36.0117V404.152H45.0117V401.062Z" fill="black"/>
<path d="M63.0195 401.062H54.0195V404.152H63.0195V401.062Z" fill="black"/>
<path d="M72.0195 404.156H63.0195V407.246H72.0195V404.156Z" fill="black"/>
<path d="M54.0117 404.156H45.0117V407.246H54.0117V404.156Z" fill="black"/>
<path d="M81.0195 401.062H72.0195V404.152H81.0195V401.062Z" fill="black"/>
<path d="M9 407.227H0V410.317H9V407.227Z" fill="black"/>
<path d="M27 407.227H18V410.317H27V407.227Z" fill="black"/>
<path d="M36.0117 410.328H27.0117V413.418H36.0117V410.328Z" fill="black"/>
<path d="M18 410.328H9V413.418H18V410.328Z" fill="black"/>
<path d="M45.0117 407.227H36.0117V410.317H45.0117V407.227Z" fill="black"/>
<path d="M63.0195 407.227H54.0195V410.317H63.0195V407.227Z" fill="black"/>
<path d="M72.0195 410.328H63.0195V413.418H72.0195V410.328Z" fill="black"/>
<path d="M54.0117 410.328H45.0117V413.418H54.0117V410.328Z" fill="black"/>
<path d="M81.0195 407.227H72.0195V410.317H81.0195V407.227Z" fill="black"/>
<path d="M9 413.398H0V416.488H9V413.398Z" fill="black"/>
<path d="M27 413.398H18V416.488H27V413.398Z" fill="black"/>
<path d="M36.0117 416.5H27.0117V419.59H36.0117V416.5Z" fill="black"/>
<path d="M18 416.5H9V419.59H18V416.5Z" fill="black"/>
<path d="M45.0117 413.398H36.0117V416.488H45.0117V413.398Z" fill="black"/>
<path d="M63.0195 413.398H54.0195V416.488H63.0195V413.398Z" fill="black"/>
<path d="M72.0195 416.5H63.0195V419.59H72.0195V416.5Z" fill="black"/>
<path d="M54.0117 416.5H45.0117V419.59H54.0117V416.5Z" fill="black"/>
<path d="M81.0195 413.398H72.0195V416.488H81.0195V413.398Z" fill="black"/>
<path d="M9 419.57H0V422.66H9V419.57Z" fill="black"/>
<path d="M27 419.57H18V422.66H27V419.57Z" fill="black"/>
<path d="M36.0117 422.672H27.0117V425.762H36.0117V422.672Z" fill="black"/>
<path d="M18 422.672H9V425.762H18V422.672Z" fill="black"/>
<path d="M45.0117 419.57H36.0117V422.66H45.0117V419.57Z" fill="black"/>
<path d="M63.0195 419.57H54.0195V422.66H63.0195V419.57Z" fill="black"/>
<path d="M72.0195 422.672H63.0195V425.762H72.0195V422.672Z" fill="black"/>
<path d="M54.0117 422.672H45.0117V425.762H54.0117V422.672Z" fill="black"/>
<path d="M81.0195 419.57H72.0195V422.66H81.0195V419.57Z" fill="black"/>
<path d="M9 425.742H0V428.832H9V425.742Z" fill="black"/>
<path d="M27 425.742H18V428.832H27V425.742Z" fill="black"/>
<path d="M36.0117 428.844H27.0117V431.934H36.0117V428.844Z" fill="black"/>
<path d="M18 428.844H9V431.934H18V428.844Z" fill="black"/>
<path d="M45.0117 425.742H36.0117V428.832H45.0117V425.742Z" fill="black"/>
<path d="M63.0195 425.742H54.0195V428.832H63.0195V425.742Z" fill="black"/>
<path d="M72.0195 428.844H63.0195V431.934H72.0195V428.844Z" fill="black"/>
<path d="M54.0117 428.844H45.0117V431.934H54.0117V428.844Z" fill="black"/>
<path d="M81.0195 425.742H72.0195V428.832H81.0195V425.742Z" fill="black"/>
<path d="M9 431.906H0V434.996H9V431.906Z" fill="black"/>
<path d="M27 431.906H18V434.996H27V431.906Z" fill="black"/>
<path d="M36.0117 435.008H27.0117V438.098H36.0117V435.008Z" fill="black"/>
<path d="M18 435.008H9V438.098H18V435.008Z" fill="black"/>
<path d="M45.0117 431.906H36.0117V434.996H45.0117V431.906Z" fill="black"/>
<path d="M63.0195 431.906H54.0195V434.996H63.0195V431.906Z" fill="black"/>
<path d="M72.0195 435.008H63.0195V438.098H72.0195V435.008Z" fill="black"/>
<path d="M54.0117 435.008H45.0117V438.098H54.0117V435.008Z" fill="black"/>
<path d="M81.0195 431.906H72.0195V434.996H81.0195V431.906Z" fill="black"/>
<path d="M9 438.078H0V441.168H9V438.078Z" fill="black"/>
<path d="M27 438.078H18V441.168H27V438.078Z" fill="black"/>
<path d="M36.0117 441.18H27.0117V444.27H36.0117V441.18Z" fill="black"/>
<path d="M18 441.18H9V444.27H18V441.18Z" fill="black"/>
<path d="M45.0117 438.078H36.0117V441.168H45.0117V438.078Z" fill="black"/>
<path d="M63.0195 438.078H54.0195V441.168H63.0195V438.078Z" fill="black"/>
<path d="M72.0195 441.18H63.0195V444.27H72.0195V441.18Z" fill="black"/>
<path d="M54.0117 441.18H45.0117V444.27H54.0117V441.18Z" fill="black"/>
<path d="M81.0195 438.078H72.0195V441.168H81.0195V438.078Z" fill="black"/>
<path d="M9 444.25H0V447.34H9V444.25Z" fill="black"/>
<path d="M27 444.25H18V447.34H27V444.25Z" fill="black"/>
<path d="M36.0117 447.352H27.0117V450.442H36.0117V447.352Z" fill="black"/>
<path d="M18 447.352H9V450.442H18V447.352Z" fill="black"/>
<path d="M45.0117 444.25H36.0117V447.34H45.0117V444.25Z" fill="black"/>
<path d="M63.0195 444.25H54.0195V447.34H63.0195V444.25Z" fill="black"/>
<path d="M72.0195 447.352H63.0195V450.442H72.0195V447.352Z" fill="black"/>
<path d="M54.0117 447.352H45.0117V450.442H54.0117V447.352Z" fill="black"/>
<path d="M81.0195 444.25H72.0195V447.34H81.0195V444.25Z" fill="black"/>
<path d="M9 450.422H0V453.512H9V450.422Z" fill="black"/>
<path d="M27 450.422H18V453.512H27V450.422Z" fill="black"/>
<path d="M36.0117 453.523H27.0117V456.613H36.0117V453.523Z" fill="black"/>
<path d="M18 453.523H9V456.613H18V453.523Z" fill="black"/>
<path d="M45.0117 450.422H36.0117V453.512H45.0117V450.422Z" fill="black"/>
<path d="M63.0195 450.422H54.0195V453.512H63.0195V450.422Z" fill="black"/>
<path d="M72.0195 453.523H63.0195V456.613H72.0195V453.523Z" fill="black"/>
<path d="M54.0117 453.523H45.0117V456.613H54.0117V453.523Z" fill="black"/>
<path d="M81.0195 450.422H72.0195V453.512H81.0195V450.422Z" fill="black"/>
<path d="M9 456.594H0V459.684H9V456.594Z" fill="black"/>
<path d="M27 456.594H18V459.684H27V456.594Z" fill="black"/>
<path d="M36.0117 459.688H27.0117V462.777H36.0117V459.688Z" fill="black"/>
<path d="M18 459.688H9V462.777H18V459.688Z" fill="black"/>
<path d="M45.0117 456.594H36.0117V459.684H45.0117V456.594Z" fill="black"/>
<path d="M63.0195 456.594H54.0195V459.684H63.0195V456.594Z" fill="black"/>
<path d="M72.0195 459.688H63.0195V462.777H72.0195V459.688Z" fill="black"/>
<path d="M54.0117 459.688H45.0117V462.777H54.0117V459.688Z" fill="black"/>
<path d="M81.0195 456.594H72.0195V459.684H81.0195V456.594Z" fill="black"/>
<path d="M9 462.758H0V465.848H9V462.758Z" fill="black"/>
<path d="M27 462.758H18V465.848H27V462.758Z" fill="black"/>
<path d="M36.0117 465.859H27.0117V468.949H36.0117V465.859Z" fill="black"/>
<path d="M18 465.859H9V468.949H18V465.859Z" fill="black"/>
<path d="M45.0117 462.758H36.0117V465.848H45.0117V462.758Z" fill="black"/>
<path d="M63.0195 462.758H54.0195V465.848H63.0195V462.758Z" fill="black"/>
<path d="M72.0195 465.859H63.0195V468.949H72.0195V465.859Z" fill="black"/>
<path d="M54.0117 465.859H45.0117V468.949H54.0117V465.859Z" fill="black"/>
<path d="M81.0195 462.758H72.0195V465.848H81.0195V462.758Z" fill="black"/>
<path d="M9 468.93H0V472.02H9V468.93Z" fill="black"/>
<path d="M27 468.93H18V472.02H27V468.93Z" fill="black"/>
<path d="M36.0117 472.031H27.0117V475.121H36.0117V472.031Z" fill="black"/>
<path d="M18 472.031H9V475.121H18V472.031Z" fill="black"/>
<path d="M45.0117 468.93H36.0117V472.02H45.0117V468.93Z" fill="black"/>
<path d="M63.0195 468.93H54.0195V472.02H63.0195V468.93Z" fill="black"/>
<path d="M72.0195 472.031H63.0195V475.121H72.0195V472.031Z" fill="black"/>
<path d="M54.0117 472.031H45.0117V475.121H54.0117V472.031Z" fill="black"/>
<path d="M81.0195 468.93H72.0195V472.02H81.0195V468.93Z" fill="black"/>
<path d="M99.0117 0H90.0117V3.09H99.0117V0Z" fill="black"/>
<path d="M108.02 3.10156H99.0195V6.19156H108.02V3.10156Z" fill="black"/>
<path d="M90.0117 3.10156H81.0117V6.19156H90.0117V3.10156Z" fill="black"/>
<path d="M117.02 0H108.02V3.09H117.02V0Z" fill="black"/>
<path d="M135.031 0H126.031V3.09H135.031V0Z" fill="black"/>
<path d="M126.02 3.10156H117.02V6.19156H126.02V3.10156Z" fill="black"/>
<path d="M99.0117 6.1875H90.0117V9.2775H99.0117V6.1875Z" fill="black"/>
<path d="M108.02 9.28125H99.0195V12.3713H108.02V9.28125Z" fill="black"/>
<path d="M90.0117 9.28125H81.0117V12.3713H90.0117V9.28125Z" fill="black"/>
<path d="M117.02 6.1875H108.02V9.2775H117.02V6.1875Z" fill="black"/>
<path d="M135.031 6.1875H126.031V9.2775H135.031V6.1875Z" fill="black"/>
<path d="M126.02 9.28125H117.02V12.3713H126.02V9.28125Z" fill="black"/>
<path d="M99.0117 12.3594H90.0117V15.4494H99.0117V12.3594Z" fill="black"/>
<path d="M108.02 15.4531H99.0195V18.5431H108.02V15.4531Z" fill="black"/>
<path d="M90.0117 15.4531H81.0117V18.5431H90.0117V15.4531Z" fill="black"/>
<path d="M117.02 12.3594H108.02V15.4494H117.02V12.3594Z" fill="black"/>
<path d="M135.031 12.3594H126.031V15.4494H135.031V12.3594Z" fill="black"/>
<path d="M126.02 15.4531H117.02V18.5431H126.02V15.4531Z" fill="black"/>
<path d="M99.0117 18.5312H90.0117V21.6213H99.0117V18.5312Z" fill="black"/>
<path d="M108.02 21.6172H99.0195V24.7072H108.02V21.6172Z" fill="black"/>
<path d="M90.0117 21.6172H81.0117V24.7072H90.0117V21.6172Z" fill="black"/>
<path d="M117.02 18.5312H108.02V21.6213H117.02V18.5312Z" fill="black"/>
<path d="M135.031 18.5312H126.031V21.6213H135.031V18.5312Z" fill="black"/>
<path d="M126.02 21.6172H117.02V24.7072H126.02V21.6172Z" fill="black"/>
<path d="M99.0117 24.7031H90.0117V27.7931H99.0117V24.7031Z" fill="black"/>
<path d="M108.02 27.7891H99.0195V30.8791H108.02V27.7891Z" fill="black"/>
<path d="M90.0117 27.7891H81.0117V30.8791H90.0117V27.7891Z" fill="black"/>
<path d="M117.02 24.7031H108.02V27.7931H117.02V24.7031Z" fill="black"/>
<path d="M135.031 24.7031H126.031V27.7931H135.031V24.7031Z" fill="black"/>
<path d="M126.02 27.7891H117.02V30.8791H126.02V27.7891Z" fill="black"/>
<path d="M99.0117 30.8672H90.0117V33.9572H99.0117V30.8672Z" fill="black"/>
<path d="M108.02 33.9609H99.0195V37.0509H108.02V33.9609Z" fill="black"/>
<path d="M90.0117 33.9609H81.0117V37.0509H90.0117V33.9609Z" fill="black"/>
<path d="M117.02 30.8672H108.02V33.9572H117.02V30.8672Z" fill="black"/>
<path d="M135.031 30.8672H126.031V33.9572H135.031V30.8672Z" fill="black"/>
<path d="M126.02 33.9609H117.02V37.0509H126.02V33.9609Z" fill="black"/>
<path d="M99.0117 37.0391H90.0117V40.1291H99.0117V37.0391Z" fill="black"/>
<path d="M108.02 40.1328H99.0195V43.2228H108.02V40.1328Z" fill="black"/>
<path d="M90.0117 40.1328H81.0117V43.2228H90.0117V40.1328Z" fill="black"/>
<path d="M117.02 37.0391H108.02V40.1291H117.02V37.0391Z" fill="black"/>
<path d="M135.031 37.0391H126.031V40.1291H135.031V37.0391Z" fill="black"/>
<path d="M126.02 40.1328H117.02V43.2228H126.02V40.1328Z" fill="black"/>
<path d="M99.0117 43.2109H90.0117V46.3009H99.0117V43.2109Z" fill="black"/>
<path d="M108.02 46.2969H99.0195V49.3869H108.02V46.2969Z" fill="black"/>
<path d="M90.0117 46.2969H81.0117V49.3869H90.0117V46.2969Z" fill="black"/>
<path d="M117.02 43.2109H108.02V46.3009H117.02V43.2109Z" fill="black"/>
<path d="M135.031 43.2109H126.031V46.3009H135.031V43.2109Z" fill="black"/>
<path d="M126.02 46.2969H117.02V49.3869H126.02V46.2969Z" fill="black"/>
<path d="M99.0117 49.3828H90.0117V52.4728H99.0117V49.3828Z" fill="black"/>
<path d="M108.02 52.4688H99.0195V55.5588H108.02V52.4688Z" fill="black"/>
<path d="M90.0117 52.4688H81.0117V55.5588H90.0117V52.4688Z" fill="black"/>
<path d="M117.02 49.3828H108.02V52.4728H117.02V49.3828Z" fill="black"/>
<path d="M135.031 49.3828H126.031V52.4728H135.031V49.3828Z" fill="black"/>
<path d="M126.02 52.4688H117.02V55.5588H126.02V52.4688Z" fill="black"/>
<path d="M99.0117 55.5469H90.0117V58.6369H99.0117V55.5469Z" fill="black"/>
<path d="M108.02 58.6406H99.0195V61.7306H108.02V58.6406Z" fill="black"/>
<path d="M90.0117 58.6406H81.0117V61.7306H90.0117V58.6406Z" fill="black"/>
<path d="M117.02 55.5469H108.02V58.6369H117.02V55.5469Z" fill="black"/>
<path d="M135.031 55.5469H126.031V58.6369H135.031V55.5469Z" fill="black"/>
<path d="M126.02 58.6406H117.02V61.7306H126.02V58.6406Z" fill="black"/>
<path d="M99.0117 61.7188H90.0117V64.8087H99.0117V61.7188Z" fill="black"/>
<path d="M108.02 64.8125H99.0195V67.9025H108.02V64.8125Z" fill="black"/>
<path d="M90.0117 64.8125H81.0117V67.9025H90.0117V64.8125Z" fill="black"/>
<path d="M117.02 61.7188H108.02V64.8087H117.02V61.7188Z" fill="black"/>
<path d="M135.031 61.7188H126.031V64.8087H135.031V61.7188Z" fill="black"/>
<path d="M126.02 64.8125H117.02V67.9025H126.02V64.8125Z" fill="black"/>
<path d="M99.0117 67.8906H90.0117V70.9806H99.0117V67.8906Z" fill="black"/>
<path d="M108.02 70.9766H99.0195V74.0666H108.02V70.9766Z" fill="black"/>
<path d="M90.0117 70.9766H81.0117V74.0666H90.0117V70.9766Z" fill="black"/>
<path d="M117.02 67.8906H108.02V70.9806H117.02V67.8906Z" fill="black"/>
<path d="M135.031 67.8906H126.031V70.9806H135.031V67.8906Z" fill="black"/>
<path d="M126.02 70.9766H117.02V74.0666H126.02V70.9766Z" fill="black"/>
<path d="M99.0117 74.0625H90.0117V77.1525H99.0117V74.0625Z" fill="black"/>
<path d="M108.02 77.1484H99.0195V80.2384H108.02V77.1484Z" fill="black"/>
<path d="M90.0117 77.1484H81.0117V80.2384H90.0117V77.1484Z" fill="black"/>
<path d="M117.02 74.0625H108.02V77.1525H117.02V74.0625Z" fill="black"/>
<path d="M135.031 74.0625H126.031V77.1525H135.031V74.0625Z" fill="black"/>
<path d="M126.02 77.1484H117.02V80.2384H126.02V77.1484Z" fill="black"/>
<path d="M99.0117 80.2266H90.0117V83.3166H99.0117V80.2266Z" fill="black"/>
<path d="M108.02 83.3203H99.0195V86.4103H108.02V83.3203Z" fill="black"/>
<path d="M90.0117 83.3203H81.0117V86.4103H90.0117V83.3203Z" fill="black"/>
<path d="M117.02 80.2266H108.02V83.3166H117.02V80.2266Z" fill="black"/>
<path d="M135.031 80.2266H126.031V83.3166H135.031V80.2266Z" fill="black"/>
<path d="M126.02 83.3203H117.02V86.4103H126.02V83.3203Z" fill="black"/>
<path d="M99.0117 86.3984H90.0117V89.4884H99.0117V86.3984Z" fill="black"/>
<path d="M108.02 89.4922H99.0195V92.5822H108.02V89.4922Z" fill="black"/>
<path d="M90.0117 89.4922H81.0117V92.5822H90.0117V89.4922Z" fill="black"/>
<path d="M117.02 86.3984H108.02V89.4884H117.02V86.3984Z" fill="black"/>
<path d="M135.031 86.3984H126.031V89.4884H135.031V86.3984Z" fill="black"/>
<path d="M126.02 89.4922H117.02V92.5822H126.02V89.4922Z" fill="black"/>
<path d="M99.0117 92.5703H90.0117V95.6603H99.0117V92.5703Z" fill="black"/>
<path d="M108.02 95.6562H99.0195V98.7462H108.02V95.6562Z" fill="black"/>
<path d="M90.0117 95.6562H81.0117V98.7462H90.0117V95.6562Z" fill="black"/>
<path d="M117.02 92.5703H108.02V95.6603H117.02V92.5703Z" fill="black"/>
<path d="M135.031 92.5703H126.031V95.6603H135.031V92.5703Z" fill="black"/>
<path d="M126.02 95.6562H117.02V98.7462H126.02V95.6562Z" fill="black"/>
<path d="M99.0117 98.7422H90.0117V101.832H99.0117V98.7422Z" fill="black"/>
<path d="M108.02 101.828H99.0195V104.918H108.02V101.828Z" fill="black"/>
<path d="M90.0117 101.828H81.0117V104.918H90.0117V101.828Z" fill="black"/>
<path d="M117.02 98.7422H108.02V101.832H117.02V98.7422Z" fill="black"/>
<path d="M135.031 98.7422H126.031V101.832H135.031V98.7422Z" fill="black"/>
<path d="M126.02 101.828H117.02V104.918H126.02V101.828Z" fill="black"/>
<path d="M99.0117 104.906H90.0117V107.996H99.0117V104.906Z" fill="black"/>
<path d="M108.02 108H99.0195V111.09H108.02V108Z" fill="black"/>
<path d="M90.0117 108H81.0117V111.09H90.0117V108Z" fill="black"/>
<path d="M117.02 104.906H108.02V107.996H117.02V104.906Z" fill="black"/>
<path d="M135.031 104.906H126.031V107.996H135.031V104.906Z" fill="black"/>
<path d="M126.02 108H117.02V111.09H126.02V108Z" fill="black"/>
<path d="M99.0117 111.078H90.0117V114.168H99.0117V111.078Z" fill="black"/>
<path d="M108.02 114.172H99.0195V117.262H108.02V114.172Z" fill="black"/>
<path d="M90.0117 114.172H81.0117V117.262H90.0117V114.172Z" fill="black"/>
<path d="M117.02 111.078H108.02V114.168H117.02V111.078Z" fill="black"/>
<path d="M135.031 111.078H126.031V114.168H135.031V111.078Z" fill="black"/>
<path d="M126.02 114.172H117.02V117.262H126.02V114.172Z" fill="black"/>
<path d="M99.0117 117.25H90.0117V120.34H99.0117V117.25Z" fill="black"/>
<path d="M108.02 120.344H99.0195V123.434H108.02V120.344Z" fill="black"/>
<path d="M90.0117 120.344H81.0117V123.434H90.0117V120.344Z" fill="black"/>
<path d="M117.02 117.25H108.02V120.34H117.02V117.25Z" fill="black"/>
<path d="M135.031 117.25H126.031V120.34H135.031V117.25Z" fill="black"/>
<path d="M126.02 120.344H117.02V123.434H126.02V120.344Z" fill="black"/>
<path d="M99.0117 123.422H90.0117V126.512H99.0117V123.422Z" fill="black"/>
<path d="M108.02 126.508H99.0195V129.598H108.02V126.508Z" fill="black"/>
<path d="M90.0117 126.508H81.0117V129.598H90.0117V126.508Z" fill="black"/>
<path d="M117.02 123.422H108.02V126.512H117.02V123.422Z" fill="black"/>
<path d="M135.031 123.422H126.031V126.512H135.031V123.422Z" fill="black"/>
<path d="M126.02 126.508H117.02V129.598H126.02V126.508Z" fill="black"/>
<path d="M99.0117 129.594H90.0117V132.684H99.0117V129.594Z" fill="black"/>
<path d="M108.02 132.68H99.0195V135.77H108.02V132.68Z" fill="black"/>
<path d="M90.0117 132.68H81.0117V135.77H90.0117V132.68Z" fill="black"/>
<path d="M117.02 129.594H108.02V132.684H117.02V129.594Z" fill="black"/>
<path d="M135.031 129.594H126.031V132.684H135.031V129.594Z" fill="black"/>
<path d="M126.02 132.68H117.02V135.77H126.02V132.68Z" fill="black"/>
<path d="M99.0117 135.758H90.0117V138.848H99.0117V135.758Z" fill="black"/>
<path d="M108.02 138.852H99.0195V141.942H108.02V138.852Z" fill="black"/>
<path d="M90.0117 138.852H81.0117V141.942H90.0117V138.852Z" fill="black"/>
<path d="M117.02 135.758H108.02V138.848H117.02V135.758Z" fill="black"/>
<path d="M135.031 135.758H126.031V138.848H135.031V135.758Z" fill="black"/>
<path d="M126.02 138.852H117.02V141.942H126.02V138.852Z" fill="black"/>
<path d="M99.0117 141.93H90.0117V145.02H99.0117V141.93Z" fill="black"/>
<path d="M108.02 145.023H99.0195V148.113H108.02V145.023Z" fill="black"/>
<path d="M90.0117 145.023H81.0117V148.113H90.0117V145.023Z" fill="black"/>
<path d="M117.02 141.93H108.02V145.02H117.02V141.93Z" fill="black"/>
<path d="M135.031 141.93H126.031V145.02H135.031V141.93Z" fill="black"/>
<path d="M126.02 145.023H117.02V148.113H126.02V145.023Z" fill="black"/>
<path d="M99.0117 148.102H90.0117V151.192H99.0117V148.102Z" fill="black"/>
<path d="M108.02 151.188H99.0195V154.277H108.02V151.188Z" fill="black"/>
<path d="M90.0117 151.188H81.0117V154.277H90.0117V151.188Z" fill="black"/>
<path d="M117.02 148.102H108.02V151.192H117.02V148.102Z" fill="black"/>
<path d="M135.031 148.102H126.031V151.192H135.031V148.102Z" fill="black"/>
<path d="M126.02 151.188H117.02V154.277H126.02V151.188Z" fill="black"/>
<path d="M99.0117 154.273H90.0117V157.363H99.0117V154.273Z" fill="black"/>
<path d="M108.02 157.359H99.0195V160.449H108.02V157.359Z" fill="black"/>
<path d="M90.0117 157.359H81.0117V160.449H90.0117V157.359Z" fill="black"/>
<path d="M117.02 154.273H108.02V157.363H117.02V154.273Z" fill="black"/>
<path d="M135.031 154.273H126.031V157.363H135.031V154.273Z" fill="black"/>
<path d="M126.02 157.359H117.02V160.449H126.02V157.359Z" fill="black"/>
<path d="M99.0117 160.438H90.0117V163.527H99.0117V160.438Z" fill="black"/>
<path d="M108.02 163.531H99.0195V166.621H108.02V163.531Z" fill="black"/>
<path d="M90.0117 163.531H81.0117V166.621H90.0117V163.531Z" fill="black"/>
<path d="M117.02 160.438H108.02V163.527H117.02V160.438Z" fill="black"/>
<path d="M135.031 160.438H126.031V163.527H135.031V160.438Z" fill="black"/>
<path d="M126.02 163.531H117.02V166.621H126.02V163.531Z" fill="black"/>
<path d="M99.0117 166.609H90.0117V169.699H99.0117V166.609Z" fill="black"/>
<path d="M108.02 169.703H99.0195V172.793H108.02V169.703Z" fill="black"/>
<path d="M90.0117 169.703H81.0117V172.793H90.0117V169.703Z" fill="black"/>
<path d="M117.02 166.609H108.02V169.699H117.02V166.609Z" fill="black"/>
<path d="M135.031 166.609H126.031V169.699H135.031V166.609Z" fill="black"/>
<path d="M126.02 169.703H117.02V172.793H126.02V169.703Z" fill="black"/>
<path d="M99.0117 172.781H90.0117V175.871H99.0117V172.781Z" fill="black"/>
<path d="M108.02 175.867H99.0195V178.957H108.02V175.867Z" fill="black"/>
<path d="M90.0117 175.867H81.0117V178.957H90.0117V175.867Z" fill="black"/>
<path d="M117.02 172.781H108.02V175.871H117.02V172.781Z" fill="black"/>
<path d="M135.031 172.781H126.031V175.871H135.031V172.781Z" fill="black"/>
<path d="M126.02 175.867H117.02V178.957H126.02V175.867Z" fill="black"/>
<path d="M99.0117 178.938H90.0117V182.027H99.0117V178.938Z" fill="black"/>
<path d="M108.02 182.039H99.0195V185.129H108.02V182.039Z" fill="black"/>
<path d="M90.0117 182.039H81.0117V185.129H90.0117V182.039Z" fill="black"/>
<path d="M117.02 178.938H108.02V182.027H117.02V178.938Z" fill="black"/>
<path d="M135.031 178.938H126.031V182.027H135.031V178.938Z" fill="black"/>
<path d="M126.02 182.039H117.02V185.129H126.02V182.039Z" fill="black"/>
<path d="M99.0117 185.109H90.0117V188.199H99.0117V185.109Z" fill="black"/>
<path d="M108.02 188.211H99.0195V191.301H108.02V188.211Z" fill="black"/>
<path d="M90.0117 188.211H81.0117V191.301H90.0117V188.211Z" fill="black"/>
<path d="M117.02 185.109H108.02V188.199H117.02V185.109Z" fill="black"/>
<path d="M135.031 185.109H126.031V188.199H135.031V185.109Z" fill="black"/>
<path d="M126.02 188.211H117.02V191.301H126.02V188.211Z" fill="black"/>
<path d="M99.0117 191.281H90.0117V194.371H99.0117V191.281Z" fill="black"/>
<path d="M108.02 194.383H99.0195V197.473H108.02V194.383Z" fill="black"/>
<path d="M90.0117 194.383H81.0117V197.473H90.0117V194.383Z" fill="black"/>
<path d="M117.02 191.281H108.02V194.371H117.02V191.281Z" fill="black"/>
<path d="M135.031 191.281H126.031V194.371H135.031V191.281Z" fill="black"/>
<path d="M126.02 194.383H117.02V197.473H126.02V194.383Z" fill="black"/>
<path d="M99.0117 197.453H90.0117V200.543H99.0117V197.453Z" fill="black"/>
<path d="M108.02 200.547H99.0195V203.637H108.02V200.547Z" fill="black"/>
<path d="M90.0117 200.547H81.0117V203.637H90.0117V200.547Z" fill="black"/>
<path d="M117.02 197.453H108.02V200.543H117.02V197.453Z" fill="black"/>
<path d="M135.031 197.453H126.031V200.543H135.031V197.453Z" fill="black"/>
<path d="M126.02 200.547H117.02V203.637H126.02V200.547Z" fill="black"/>
<path d="M99.0117 203.617H90.0117V206.707H99.0117V203.617Z" fill="black"/>
<path d="M108.02 206.719H99.0195V209.809H108.02V206.719Z" fill="black"/>
<path d="M90.0117 206.719H81.0117V209.809H90.0117V206.719Z" fill="black"/>
<path d="M117.02 203.617H108.02V206.707H117.02V203.617Z" fill="black"/>
<path d="M135.031 203.617H126.031V206.707H135.031V203.617Z" fill="black"/>
<path d="M126.02 206.719H117.02V209.809H126.02V206.719Z" fill="black"/>
<path d="M99.0117 209.789H90.0117V212.879H99.0117V209.789Z" fill="black"/>
<path d="M108.02 212.891H99.0195V215.981H108.02V212.891Z" fill="black"/>
<path d="M90.0117 212.891H81.0117V215.981H90.0117V212.891Z" fill="black"/>
<path d="M117.02 209.789H108.02V212.879H117.02V209.789Z" fill="black"/>
<path d="M135.031 209.789H126.031V212.879H135.031V209.789Z" fill="black"/>
<path d="M126.02 212.891H117.02V215.981H126.02V212.891Z" fill="black"/>
<path d="M99.0117 215.961H90.0117V219.051H99.0117V215.961Z" fill="black"/>
<path d="M108.02 219.062H99.0195V222.152H108.02V219.062Z" fill="black"/>
<path d="M90.0117 219.062H81.0117V222.152H90.0117V219.062Z" fill="black"/>
<path d="M117.02 215.961H108.02V219.051H117.02V215.961Z" fill="black"/>
<path d="M135.031 215.961H126.031V219.051H135.031V215.961Z" fill="black"/>
<path d="M126.02 219.062H117.02V222.152H126.02V219.062Z" fill="black"/>
<path d="M99.0117 222.133H90.0117V225.223H99.0117V222.133Z" fill="black"/>
<path d="M108.02 225.227H99.0195V228.317H108.02V225.227Z" fill="black"/>
<path d="M90.0117 225.227H81.0117V228.317H90.0117V225.227Z" fill="black"/>
<path d="M117.02 222.133H108.02V225.223H117.02V222.133Z" fill="black"/>
<path d="M135.031 222.133H126.031V225.223H135.031V222.133Z" fill="black"/>
<path d="M126.02 225.227H117.02V228.317H126.02V225.227Z" fill="black"/>
<path d="M99.0117 228.297H90.0117V231.387H99.0117V228.297Z" fill="black"/>
<path d="M108.02 231.398H99.0195V234.488H108.02V231.398Z" fill="black"/>
<path d="M90.0117 231.398H81.0117V234.488H90.0117V231.398Z" fill="black"/>
<path d="M117.02 228.297H108.02V231.387H117.02V228.297Z" fill="black"/>
<path d="M135.031 228.297H126.031V231.387H135.031V228.297Z" fill="black"/>
<path d="M126.02 231.398H117.02V234.488H126.02V231.398Z" fill="black"/>
<path d="M99.0117 234.469H90.0117V237.559H99.0117V234.469Z" fill="black"/>
<path d="M108.02 237.57H99.0195V240.66H108.02V237.57Z" fill="black"/>
<path d="M90.0117 237.57H81.0117V240.66H90.0117V237.57Z" fill="black"/>
<path d="M117.02 234.469H108.02V237.559H117.02V234.469Z" fill="black"/>
<path d="M135.031 234.469H126.031V237.559H135.031V234.469Z" fill="black"/>
<path d="M126.02 237.57H117.02V240.66H126.02V237.57Z" fill="black"/>
<path d="M99.0117 240.641H90.0117V243.731H99.0117V240.641Z" fill="black"/>
<path d="M108.02 243.742H99.0195V246.832H108.02V243.742Z" fill="black"/>
<path d="M90.0117 243.742H81.0117V246.832H90.0117V243.742Z" fill="black"/>
<path d="M117.02 240.641H108.02V243.731H117.02V240.641Z" fill="black"/>
<path d="M135.031 240.641H126.031V243.731H135.031V240.641Z" fill="black"/>
<path d="M126.02 243.742H117.02V246.832H126.02V243.742Z" fill="black"/>
<path d="M99.0117 246.812H90.0117V249.902H99.0117V246.812Z" fill="black"/>
<path d="M108.02 249.906H99.0195V252.996H108.02V249.906Z" fill="black"/>
<path d="M90.0117 249.906H81.0117V252.996H90.0117V249.906Z" fill="black"/>
<path d="M117.02 246.812H108.02V249.902H117.02V246.812Z" fill="black"/>
<path d="M135.031 246.812H126.031V249.902H135.031V246.812Z" fill="black"/>
<path d="M126.02 249.906H117.02V252.996H126.02V249.906Z" fill="black"/>
<path d="M99.0117 252.977H90.0117V256.067H99.0117V252.977Z" fill="black"/>
<path d="M108.02 256.078H99.0195V259.168H108.02V256.078Z" fill="black"/>
<path d="M90.0117 256.078H81.0117V259.168H90.0117V256.078Z" fill="black"/>
<path d="M117.02 252.977H108.02V256.067H117.02V252.977Z" fill="black"/>
<path d="M135.031 252.977H126.031V256.067H135.031V252.977Z" fill="black"/>
<path d="M126.02 256.078H117.02V259.168H126.02V256.078Z" fill="black"/>
<path d="M99.0117 259.148H90.0117V262.238H99.0117V259.148Z" fill="black"/>
<path d="M108.02 262.25H99.0195V265.34H108.02V262.25Z" fill="black"/>
<path d="M90.0117 262.25H81.0117V265.34H90.0117V262.25Z" fill="black"/>
<path d="M117.02 259.148H108.02V262.238H117.02V259.148Z" fill="black"/>
<path d="M135.031 259.148H126.031V262.238H135.031V259.148Z" fill="black"/>
<path d="M126.02 262.25H117.02V265.34H126.02V262.25Z" fill="black"/>
<path d="M99.0117 265.32H90.0117V268.41H99.0117V265.32Z" fill="black"/>
<path d="M108.02 268.422H99.0195V271.512H108.02V268.422Z" fill="black"/>
<path d="M90.0117 268.422H81.0117V271.512H90.0117V268.422Z" fill="black"/>
<path d="M117.02 265.32H108.02V268.41H117.02V265.32Z" fill="black"/>
<path d="M135.031 265.32H126.031V268.41H135.031V265.32Z" fill="black"/>
<path d="M126.02 268.422H117.02V271.512H126.02V268.422Z" fill="black"/>
<path d="M99.0117 271.492H90.0117V274.582H99.0117V271.492Z" fill="black"/>
<path d="M108.02 274.594H99.0195V277.684H108.02V274.594Z" fill="black"/>
<path d="M90.0117 274.594H81.0117V277.684H90.0117V274.594Z" fill="black"/>
<path d="M117.02 271.492H108.02V274.582H117.02V271.492Z" fill="black"/>
<path d="M135.031 271.492H126.031V274.582H135.031V271.492Z" fill="black"/>
<path d="M126.02 274.594H117.02V277.684H126.02V274.594Z" fill="black"/>
<path d="M99.0117 277.656H90.0117V280.746H99.0117V277.656Z" fill="black"/>
<path d="M108.02 280.758H99.0195V283.848H108.02V280.758Z" fill="black"/>
<path d="M90.0117 280.758H81.0117V283.848H90.0117V280.758Z" fill="black"/>
<path d="M117.02 277.656H108.02V280.746H117.02V277.656Z" fill="black"/>
<path d="M135.031 277.656H126.031V280.746H135.031V277.656Z" fill="black"/>
<path d="M126.02 280.758H117.02V283.848H126.02V280.758Z" fill="black"/>
<path d="M99.0117 283.828H90.0117V286.918H99.0117V283.828Z" fill="black"/>
<path d="M108.02 286.93H99.0195V290.02H108.02V286.93Z" fill="black"/>
<path d="M90.0117 286.93H81.0117V290.02H90.0117V286.93Z" fill="black"/>
<path d="M117.02 283.828H108.02V286.918H117.02V283.828Z" fill="black"/>
<path d="M135.031 283.828H126.031V286.918H135.031V283.828Z" fill="black"/>
<path d="M126.02 286.93H117.02V290.02H126.02V286.93Z" fill="black"/>
<path d="M99.0117 290H90.0117V293.09H99.0117V290Z" fill="black"/>
<path d="M108.02 293.102H99.0195V296.192H108.02V293.102Z" fill="black"/>
<path d="M90.0117 293.102H81.0117V296.192H90.0117V293.102Z" fill="black"/>
<path d="M117.02 290H108.02V293.09H117.02V290Z" fill="black"/>
<path d="M135.031 290H126.031V293.09H135.031V290Z" fill="black"/>
<path d="M126.02 293.102H117.02V296.192H126.02V293.102Z" fill="black"/>
<path d="M99.0117 296.172H90.0117V299.262H99.0117V296.172Z" fill="black"/>
<path d="M108.02 299.273H99.0195V302.363H108.02V299.273Z" fill="black"/>
<path d="M90.0117 299.273H81.0117V302.363H90.0117V299.273Z" fill="black"/>
<path d="M117.02 296.172H108.02V299.262H117.02V296.172Z" fill="black"/>
<path d="M135.031 296.172H126.031V299.262H135.031V296.172Z" fill="black"/>
<path d="M126.02 299.273H117.02V302.363H126.02V299.273Z" fill="black"/>
<path d="M99.0117 302.344H90.0117V305.434H99.0117V302.344Z" fill="black"/>
<path d="M108.02 305.438H99.0195V308.527H108.02V305.438Z" fill="black"/>
<path d="M90.0117 305.438H81.0117V308.527H90.0117V305.438Z" fill="black"/>
<path d="M117.02 302.344H108.02V305.434H117.02V302.344Z" fill="black"/>
<path d="M135.031 302.344H126.031V305.434H135.031V302.344Z" fill="black"/>
<path d="M126.02 305.438H117.02V308.527H126.02V305.438Z" fill="black"/>
<path d="M99.0117 308.508H90.0117V311.598H99.0117V308.508Z" fill="black"/>
<path d="M108.02 311.609H99.0195V314.699H108.02V311.609Z" fill="black"/>
<path d="M90.0117 311.609H81.0117V314.699H90.0117V311.609Z" fill="black"/>
<path d="M117.02 308.508H108.02V311.598H117.02V308.508Z" fill="black"/>
<path d="M135.031 308.508H126.031V311.598H135.031V308.508Z" fill="black"/>
<path d="M126.02 311.609H117.02V314.699H126.02V311.609Z" fill="black"/>
<path d="M99.0117 314.68H90.0117V317.77H99.0117V314.68Z" fill="black"/>
<path d="M108.02 317.781H99.0195V320.871H108.02V317.781Z" fill="black"/>
<path d="M90.0117 317.781H81.0117V320.871H90.0117V317.781Z" fill="black"/>
<path d="M117.02 314.68H108.02V317.77H117.02V314.68Z" fill="black"/>
<path d="M135.031 314.68H126.031V317.77H135.031V314.68Z" fill="black"/>
<path d="M126.02 317.781H117.02V320.871H126.02V317.781Z" fill="black"/>
<path d="M99.0117 320.852H90.0117V323.942H99.0117V320.852Z" fill="black"/>
<path d="M108.02 323.953H99.0195V327.043H108.02V323.953Z" fill="black"/>
<path d="M90.0117 323.953H81.0117V327.043H90.0117V323.953Z" fill="black"/>
<path d="M117.02 320.852H108.02V323.942H117.02V320.852Z" fill="black"/>
<path d="M135.031 320.852H126.031V323.942H135.031V320.852Z" fill="black"/>
<path d="M126.02 323.953H117.02V327.043H126.02V323.953Z" fill="black"/>
<path d="M99.0117 327.023H90.0117V330.113H99.0117V327.023Z" fill="black"/>
<path d="M108.02 330.117H99.0195V333.207H108.02V330.117Z" fill="black"/>
<path d="M90.0117 330.117H81.0117V333.207H90.0117V330.117Z" fill="black"/>
<path d="M117.02 327.023H108.02V330.113H117.02V327.023Z" fill="black"/>
<path d="M135.031 327.023H126.031V330.113H135.031V327.023Z" fill="black"/>
<path d="M126.02 330.117H117.02V333.207H126.02V330.117Z" fill="black"/>
<path d="M99.0117 333.188H90.0117V336.277H99.0117V333.188Z" fill="black"/>
<path d="M108.02 336.289H99.0195V339.379H108.02V336.289Z" fill="black"/>
<path d="M90.0117 336.289H81.0117V339.379H90.0117V336.289Z" fill="black"/>
<path d="M117.02 333.188H108.02V336.277H117.02V333.188Z" fill="black"/>
<path d="M135.031 333.188H126.031V336.277H135.031V333.188Z" fill="black"/>
<path d="M126.02 336.289H117.02V339.379H126.02V336.289Z" fill="black"/>
<path d="M99.0117 339.359H90.0117V342.449H99.0117V339.359Z" fill="black"/>
<path d="M108.02 342.461H99.0195V345.551H108.02V342.461Z" fill="black"/>
<path d="M90.0117 342.461H81.0117V345.551H90.0117V342.461Z" fill="black"/>
<path d="M117.02 339.359H108.02V342.449H117.02V339.359Z" fill="black"/>
<path d="M135.031 339.359H126.031V342.449H135.031V339.359Z" fill="black"/>
<path d="M126.02 342.461H117.02V345.551H126.02V342.461Z" fill="black"/>
<path d="M99.0117 345.531H90.0117V348.621H99.0117V345.531Z" fill="black"/>
<path d="M108.02 348.633H99.0195V351.723H108.02V348.633Z" fill="black"/>
<path d="M90.0117 348.633H81.0117V351.723H90.0117V348.633Z" fill="black"/>
<path d="M117.02 345.531H108.02V348.621H117.02V345.531Z" fill="black"/>
<path d="M135.031 345.531H126.031V348.621H135.031V345.531Z" fill="black"/>
<path d="M126.02 348.633H117.02V351.723H126.02V348.633Z" fill="black"/>
<path d="M99.0117 351.703H90.0117V354.793H99.0117V351.703Z" fill="black"/>
<path d="M108.02 354.797H99.0195V357.887H108.02V354.797Z" fill="black"/>
<path d="M90.0117 354.797H81.0117V357.887H90.0117V354.797Z" fill="black"/>
<path d="M117.02 351.703H108.02V354.793H117.02V351.703Z" fill="black"/>
<path d="M135.031 351.703H126.031V354.793H135.031V351.703Z" fill="black"/>
<path d="M126.02 354.797H117.02V357.887H126.02V354.797Z" fill="black"/>
<path d="M99.0117 357.867H90.0117V360.957H99.0117V357.867Z" fill="black"/>
<path d="M108.02 360.969H99.0195V364.059H108.02V360.969Z" fill="black"/>
<path d="M90.0117 360.969H81.0117V364.059H90.0117V360.969Z" fill="black"/>
<path d="M117.02 357.867H108.02V360.957H117.02V357.867Z" fill="black"/>
<path d="M135.031 357.867H126.031V360.957H135.031V357.867Z" fill="black"/>
<path d="M126.02 360.969H117.02V364.059H126.02V360.969Z" fill="black"/>
<path d="M99.0117 364.039H90.0117V367.129H99.0117V364.039Z" fill="black"/>
<path d="M108.02 367.141H99.0195V370.231H108.02V367.141Z" fill="black"/>
<path d="M90.0117 367.141H81.0117V370.231H90.0117V367.141Z" fill="black"/>
<path d="M117.02 364.039H108.02V367.129H117.02V364.039Z" fill="black"/>
<path d="M135.031 364.039H126.031V367.129H135.031V364.039Z" fill="black"/>
<path d="M126.02 367.141H117.02V370.231H126.02V367.141Z" fill="black"/>
<path d="M99.0117 370.211H90.0117V373.301H99.0117V370.211Z" fill="black"/>
<path d="M108.02 373.312H99.0195V376.402H108.02V373.312Z" fill="black"/>
<path d="M90.0117 373.312H81.0117V376.402H90.0117V373.312Z" fill="black"/>
<path d="M117.02 370.211H108.02V373.301H117.02V370.211Z" fill="black"/>
<path d="M135.031 370.211H126.031V373.301H135.031V370.211Z" fill="black"/>
<path d="M126.02 373.312H117.02V376.402H126.02V373.312Z" fill="black"/>
<path d="M99.0117 376.383H90.0117V379.473H99.0117V376.383Z" fill="black"/>
<path d="M108.02 379.477H99.0195V382.567H108.02V379.477Z" fill="black"/>
<path d="M90.0117 379.477H81.0117V382.567H90.0117V379.477Z" fill="black"/>
<path d="M117.02 376.383H108.02V379.473H117.02V376.383Z" fill="black"/>
<path d="M135.031 376.383H126.031V379.473H135.031V376.383Z" fill="black"/>
<path d="M126.02 379.477H117.02V382.567H126.02V379.477Z" fill="black"/>
<path d="M99.0117 382.547H90.0117V385.637H99.0117V382.547Z" fill="black"/>
<path d="M108.02 385.648H99.0195V388.738H108.02V385.648Z" fill="black"/>
<path d="M90.0117 385.648H81.0117V388.738H90.0117V385.648Z" fill="black"/>
<path d="M117.02 382.547H108.02V385.637H117.02V382.547Z" fill="black"/>
<path d="M135.031 382.547H126.031V385.637H135.031V382.547Z" fill="black"/>
<path d="M126.02 385.648H117.02V388.738H126.02V385.648Z" fill="black"/>
<path d="M99.0117 388.719H90.0117V391.809H99.0117V388.719Z" fill="black"/>
<path d="M108.02 391.82H99.0195V394.91H108.02V391.82Z" fill="black"/>
<path d="M90.0117 391.82H81.0117V394.91H90.0117V391.82Z" fill="black"/>
<path d="M117.02 388.719H108.02V391.809H117.02V388.719Z" fill="black"/>
<path d="M135.031 388.719H126.031V391.809H135.031V388.719Z" fill="black"/>
<path d="M126.02 391.82H117.02V394.91H126.02V391.82Z" fill="black"/>
<path d="M99.0117 394.891H90.0117V397.981H99.0117V394.891Z" fill="black"/>
<path d="M108.02 397.992H99.0195V401.082H108.02V397.992Z" fill="black"/>
<path d="M90.0117 397.992H81.0117V401.082H90.0117V397.992Z" fill="black"/>
<path d="M117.02 394.891H108.02V397.981H117.02V394.891Z" fill="black"/>
<path d="M135.031 394.891H126.031V397.981H135.031V394.891Z" fill="black"/>
<path d="M126.02 397.992H117.02V401.082H126.02V397.992Z" fill="black"/>
<path d="M99.0117 401.062H90.0117V404.152H99.0117V401.062Z" fill="black"/>
<path d="M108.02 404.156H99.0195V407.246H108.02V404.156Z" fill="black"/>
<path d="M90.0117 404.156H81.0117V407.246H90.0117V404.156Z" fill="black"/>
<path d="M117.02 401.062H108.02V404.152H117.02V401.062Z" fill="black"/>
<path d="M135.031 401.062H126.031V404.152H135.031V401.062Z" fill="black"/>
<path d="M126.02 404.156H117.02V407.246H126.02V404.156Z" fill="black"/>
<path d="M99.0117 407.227H90.0117V410.317H99.0117V407.227Z" fill="black"/>
<path d="M108.02 410.328H99.0195V413.418H108.02V410.328Z" fill="black"/>
<path d="M90.0117 410.328H81.0117V413.418H90.0117V410.328Z" fill="black"/>
<path d="M117.02 407.227H108.02V410.317H117.02V407.227Z" fill="black"/>
<path d="M135.031 407.227H126.031V410.317H135.031V407.227Z" fill="black"/>
<path d="M126.02 410.328H117.02V413.418H126.02V410.328Z" fill="black"/>
<path d="M99.0117 413.398H90.0117V416.488H99.0117V413.398Z" fill="black"/>
<path d="M108.02 416.5H99.0195V419.59H108.02V416.5Z" fill="black"/>
<path d="M90.0117 416.5H81.0117V419.59H90.0117V416.5Z" fill="black"/>
<path d="M117.02 413.398H108.02V416.488H117.02V413.398Z" fill="black"/>
<path d="M135.031 413.398H126.031V416.488H135.031V413.398Z" fill="black"/>
<path d="M126.02 416.5H117.02V419.59H126.02V416.5Z" fill="black"/>
<path d="M99.0117 419.57H90.0117V422.66H99.0117V419.57Z" fill="black"/>
<path d="M108.02 422.672H99.0195V425.762H108.02V422.672Z" fill="black"/>
<path d="M90.0117 422.672H81.0117V425.762H90.0117V422.672Z" fill="black"/>
<path d="M117.02 419.57H108.02V422.66H117.02V419.57Z" fill="black"/>
<path d="M135.031 419.57H126.031V422.66H135.031V419.57Z" fill="black"/>
<path d="M126.02 422.672H117.02V425.762H126.02V422.672Z" fill="black"/>
<path d="M99.0117 425.742H90.0117V428.832H99.0117V425.742Z" fill="black"/>
<path d="M108.02 428.844H99.0195V431.934H108.02V428.844Z" fill="black"/>
<path d="M90.0117 428.844H81.0117V431.934H90.0117V428.844Z" fill="black"/>
<path d="M117.02 425.742H108.02V428.832H117.02V425.742Z" fill="black"/>
<path d="M135.031 425.742H126.031V428.832H135.031V425.742Z" fill="black"/>
<path d="M126.02 428.844H117.02V431.934H126.02V428.844Z" fill="black"/>
<path d="M99.0117 431.906H90.0117V434.996H99.0117V431.906Z" fill="black"/>
<path d="M108.02 435.008H99.0195V438.098H108.02V435.008Z" fill="black"/>
<path d="M90.0117 435.008H81.0117V438.098H90.0117V435.008Z" fill="black"/>
<path d="M117.02 431.906H108.02V434.996H117.02V431.906Z" fill="black"/>
<path d="M135.031 431.906H126.031V434.996H135.031V431.906Z" fill="black"/>
<path d="M126.02 435.008H117.02V438.098H126.02V435.008Z" fill="black"/>
<path d="M99.0117 438.078H90.0117V441.168H99.0117V438.078Z" fill="black"/>
<path d="M108.02 441.18H99.0195V444.27H108.02V441.18Z" fill="black"/>
<path d="M90.0117 441.18H81.0117V444.27H90.0117V441.18Z" fill="black"/>
<path d="M117.02 438.078H108.02V441.168H117.02V438.078Z" fill="black"/>
<path d="M135.031 438.078H126.031V441.168H135.031V438.078Z" fill="black"/>
<path d="M126.02 441.18H117.02V444.27H126.02V441.18Z" fill="black"/>
<path d="M99.0117 444.25H90.0117V447.34H99.0117V444.25Z" fill="black"/>
<path d="M108.02 447.352H99.0195V450.442H108.02V447.352Z" fill="black"/>
<path d="M90.0117 447.352H81.0117V450.442H90.0117V447.352Z" fill="black"/>
<path d="M117.02 444.25H108.02V447.34H117.02V444.25Z" fill="black"/>
<path d="M135.031 444.25H126.031V447.34H135.031V444.25Z" fill="black"/>
<path d="M126.02 447.352H117.02V450.442H126.02V447.352Z" fill="black"/>
<path d="M99.0117 450.422H90.0117V453.512H99.0117V450.422Z" fill="black"/>
<path d="M108.02 453.523H99.0195V456.613H108.02V453.523Z" fill="black"/>
<path d="M90.0117 453.523H81.0117V456.613H90.0117V453.523Z" fill="black"/>
<path d="M117.02 450.422H108.02V453.512H117.02V450.422Z" fill="black"/>
<path d="M135.031 450.422H126.031V453.512H135.031V450.422Z" fill="black"/>
<path d="M126.02 453.523H117.02V456.613H126.02V453.523Z" fill="black"/>
<path d="M99.0117 456.594H90.0117V459.684H99.0117V456.594Z" fill="black"/>
<path d="M108.02 459.688H99.0195V462.777H108.02V459.688Z" fill="black"/>
<path d="M90.0117 459.688H81.0117V462.777H90.0117V459.688Z" fill="black"/>
<path d="M117.02 456.594H108.02V459.684H117.02V456.594Z" fill="black"/>
<path d="M135.031 456.594H126.031V459.684H135.031V456.594Z" fill="black"/>
<path d="M126.02 459.688H117.02V462.777H126.02V459.688Z" fill="black"/>
<path d="M99.0117 462.758H90.0117V465.848H99.0117V462.758Z" fill="black"/>
<path d="M108.02 465.859H99.0195V468.949H108.02V465.859Z" fill="black"/>
<path d="M90.0117 465.859H81.0117V468.949H90.0117V465.859Z" fill="black"/>
<path d="M117.02 462.758H108.02V465.848H117.02V462.758Z" fill="black"/>
<path d="M135.031 462.758H126.031V465.848H135.031V462.758Z" fill="black"/>
<path d="M126.02 465.859H117.02V468.949H126.02V465.859Z" fill="black"/>
<path d="M99.0117 468.93H90.0117V472.02H99.0117V468.93Z" fill="black"/>
<path d="M108.02 472.031H99.0195V475.121H108.02V472.031Z" fill="black"/>
<path d="M90.0117 472.031H81.0117V475.121H90.0117V472.031Z" fill="black"/>
<path d="M117.02 468.93H108.02V472.02H117.02V468.93Z" fill="black"/>
<path d="M135.031 468.93H126.031V472.02H135.031V468.93Z" fill="black"/>
<path d="M126.02 472.031H117.02V475.121H126.02V472.031Z" fill="black"/>
</g>
</mask>
<g mask="url(#mask0_8090_41703)">
<path d="M129 473V-7L4 473H129Z" fill="#0B0E29"/>
</g>
<defs>
<clipPath id="clip0_8090_41703">
<rect width="153.03" height="493.63" fill="white"/>
</clipPath>
</defs>
</svg>
