<svg width="120" height="457" viewBox="0 0 120 457" fill="none" xmlns="http://www.w3.org/2000/svg">
<path d="M3.99397e-05 0.142995L0 457L120 0.143005L3.99397e-05 0.142995Z" fill="white"/>
<mask id="mask0_3351_18346" style="mask-type:alpha" maskUnits="userSpaceOnUse" x="0" y="0" width="120" height="457">
<path d="M3.99397e-05 0.142995L0 457L120 0.143005L3.99397e-05 0.142995Z" fill="#FF0049"/>
</mask>
<g mask="url(#mask0_3351_18346)">
<path d="M9 0H0V3.09H9V0Z" fill="black"/>
<path d="M27 0H18V3.09H27V0Z" fill="black"/>
<path d="M36.01 3.09961H27.01V6.18961H36.01V3.09961Z" fill="black"/>
<path d="M18 3.09961H9V6.18961H18V3.09961Z" fill="black"/>
<path d="M45.01 0H36.01V3.09H45.01V0Z" fill="black"/>
<path d="M63.02 0H54.02V3.09H63.02V0Z" fill="black"/>
<path d="M72.02 3.09961H63.02V6.18961H72.02V3.09961Z" fill="black"/>
<path d="M54.01 3.09961H45.01V6.18961H54.01V3.09961Z" fill="black"/>
<path d="M81.02 0H72.02V3.09H81.02V0Z" fill="black"/>
<path d="M9 6.19043H0V9.28043H9V6.19043Z" fill="black"/>
<path d="M27 6.19043H18V9.28043H27V6.19043Z" fill="black"/>
<path d="M36.01 9.28027H27.01V12.3703H36.01V9.28027Z" fill="black"/>
<path d="M18 9.28027H9V12.3703H18V9.28027Z" fill="black"/>
<path d="M45.01 6.19043H36.01V9.28043H45.01V6.19043Z" fill="black"/>
<path d="M63.02 6.19043H54.02V9.28043H63.02V6.19043Z" fill="black"/>
<path d="M72.02 9.28027H63.02V12.3703H72.02V9.28027Z" fill="black"/>
<path d="M54.01 9.28027H45.01V12.3703H54.01V9.28027Z" fill="black"/>
<path d="M81.02 6.19043H72.02V9.28043H81.02V6.19043Z" fill="black"/>
<path d="M9 12.3604H0V15.4504H9V12.3604Z" fill="black"/>
<path d="M27 12.3604H18V15.4504H27V12.3604Z" fill="black"/>
<path d="M36.01 15.4502H27.01V18.5402H36.01V15.4502Z" fill="black"/>
<path d="M18 15.4502H9V18.5402H18V15.4502Z" fill="black"/>
<path d="M45.01 12.3604H36.01V15.4504H45.01V12.3604Z" fill="black"/>
<path d="M63.02 12.3604H54.02V15.4504H63.02V12.3604Z" fill="black"/>
<path d="M72.02 15.4502H63.02V18.5402H72.02V15.4502Z" fill="black"/>
<path d="M54.01 15.4502H45.01V18.5402H54.01V15.4502Z" fill="black"/>
<path d="M81.02 12.3604H72.02V15.4504H81.02V12.3604Z" fill="black"/>
<path d="M9 18.5303H0V21.6203H9V18.5303Z" fill="black"/>
<path d="M27 18.5303H18V21.6203H27V18.5303Z" fill="black"/>
<path d="M36.01 21.6201H27.01V24.7101H36.01V21.6201Z" fill="black"/>
<path d="M18 21.6201H9V24.7101H18V21.6201Z" fill="black"/>
<path d="M45.01 18.5303H36.01V21.6203H45.01V18.5303Z" fill="black"/>
<path d="M63.02 18.5303H54.02V21.6203H63.02V18.5303Z" fill="black"/>
<path d="M72.02 21.6201H63.02V24.7101H72.02V21.6201Z" fill="black"/>
<path d="M54.01 21.6201H45.01V24.7101H54.01V21.6201Z" fill="black"/>
<path d="M81.02 18.5303H72.02V21.6203H81.02V18.5303Z" fill="black"/>
<path d="M9 24.7002H0V27.7902H9V24.7002Z" fill="black"/>
<path d="M27 24.7002H18V27.7902H27V24.7002Z" fill="black"/>
<path d="M36.01 27.79H27.01V30.88H36.01V27.79Z" fill="black"/>
<path d="M18 27.79H9V30.88H18V27.79Z" fill="black"/>
<path d="M45.01 24.7002H36.01V27.7902H45.01V24.7002Z" fill="black"/>
<path d="M63.02 24.7002H54.02V27.7902H63.02V24.7002Z" fill="black"/>
<path d="M72.02 27.79H63.02V30.88H72.02V27.79Z" fill="black"/>
<path d="M54.01 27.79H45.01V30.88H54.01V27.79Z" fill="black"/>
<path d="M81.02 24.7002H72.02V27.7902H81.02V24.7002Z" fill="black"/>
<path d="M9 30.8701H0V33.9601H9V30.8701Z" fill="black"/>
<path d="M27 30.8701H18V33.9601H27V30.8701Z" fill="black"/>
<path d="M36.01 33.96H27.01V37.05H36.01V33.96Z" fill="black"/>
<path d="M18 33.96H9V37.05H18V33.96Z" fill="black"/>
<path d="M45.01 30.8701H36.01V33.9601H45.01V30.8701Z" fill="black"/>
<path d="M63.02 30.8701H54.02V33.9601H63.02V30.8701Z" fill="black"/>
<path d="M72.02 33.96H63.02V37.05H72.02V33.96Z" fill="black"/>
<path d="M54.01 33.96H45.01V37.05H54.01V33.96Z" fill="black"/>
<path d="M81.02 30.8701H72.02V33.9601H81.02V30.8701Z" fill="black"/>
<path d="M9 37.04H0V40.13H9V37.04Z" fill="black"/>
<path d="M27 37.04H18V40.13H27V37.04Z" fill="black"/>
<path d="M36.01 40.1299H27.01V43.2199H36.01V40.1299Z" fill="black"/>
<path d="M18 40.1299H9V43.2199H18V40.1299Z" fill="black"/>
<path d="M45.01 37.04H36.01V40.13H45.01V37.04Z" fill="black"/>
<path d="M63.02 37.04H54.02V40.13H63.02V37.04Z" fill="black"/>
<path d="M72.02 40.1299H63.02V43.2199H72.02V40.1299Z" fill="black"/>
<path d="M54.01 40.1299H45.01V43.2199H54.01V40.1299Z" fill="black"/>
<path d="M81.02 37.04H72.02V40.13H81.02V37.04Z" fill="black"/>
<path d="M9 43.21H0V46.3H9V43.21Z" fill="black"/>
<path d="M27 43.21H18V46.3H27V43.21Z" fill="black"/>
<path d="M36.01 46.2998H27.01V49.3898H36.01V46.2998Z" fill="black"/>
<path d="M18 46.2998H9V49.3898H18V46.2998Z" fill="black"/>
<path d="M45.01 43.21H36.01V46.3H45.01V43.21Z" fill="black"/>
<path d="M63.02 43.21H54.02V46.3H63.02V43.21Z" fill="black"/>
<path d="M72.02 46.2998H63.02V49.3898H72.02V46.2998Z" fill="black"/>
<path d="M54.01 46.2998H45.01V49.3898H54.01V46.2998Z" fill="black"/>
<path d="M81.02 43.21H72.02V46.3H81.02V43.21Z" fill="black"/>
<path d="M9 49.3799H0V52.4699H9V49.3799Z" fill="black"/>
<path d="M27 49.3799H18V52.4699H27V49.3799Z" fill="black"/>
<path d="M36.01 52.4697H27.01V55.5597H36.01V52.4697Z" fill="black"/>
<path d="M18 52.4697H9V55.5597H18V52.4697Z" fill="black"/>
<path d="M45.01 49.3799H36.01V52.4699H45.01V49.3799Z" fill="black"/>
<path d="M63.02 49.3799H54.02V52.4699H63.02V49.3799Z" fill="black"/>
<path d="M72.02 52.4697H63.02V55.5597H72.02V52.4697Z" fill="black"/>
<path d="M54.01 52.4697H45.01V55.5597H54.01V52.4697Z" fill="black"/>
<path d="M81.02 49.3799H72.02V52.4699H81.02V49.3799Z" fill="black"/>
<path d="M9 55.5498H0V58.6398H9V55.5498Z" fill="black"/>
<path d="M27 55.5498H18V58.6398H27V55.5498Z" fill="black"/>
<path d="M36.01 58.6396H27.01V61.7296H36.01V58.6396Z" fill="black"/>
<path d="M18 58.6396H9V61.7296H18V58.6396Z" fill="black"/>
<path d="M45.01 55.5498H36.01V58.6398H45.01V55.5498Z" fill="black"/>
<path d="M63.02 55.5498H54.02V58.6398H63.02V55.5498Z" fill="black"/>
<path d="M72.02 58.6396H63.02V61.7296H72.02V58.6396Z" fill="black"/>
<path d="M54.01 58.6396H45.01V61.7296H54.01V58.6396Z" fill="black"/>
<path d="M81.02 55.5498H72.02V58.6398H81.02V55.5498Z" fill="black"/>
<path d="M9 61.7197H0V64.8097H9V61.7197Z" fill="black"/>
<path d="M27 61.7197H18V64.8097H27V61.7197Z" fill="black"/>
<path d="M36.01 64.8096H27.01V67.8996H36.01V64.8096Z" fill="black"/>
<path d="M18 64.8096H9V67.8996H18V64.8096Z" fill="black"/>
<path d="M45.01 61.7197H36.01V64.8097H45.01V61.7197Z" fill="black"/>
<path d="M63.02 61.7197H54.02V64.8097H63.02V61.7197Z" fill="black"/>
<path d="M72.02 64.8096H63.02V67.8996H72.02V64.8096Z" fill="black"/>
<path d="M54.01 64.8096H45.01V67.8996H54.01V64.8096Z" fill="black"/>
<path d="M81.02 61.7197H72.02V64.8097H81.02V61.7197Z" fill="black"/>
<path d="M9 67.8896H0V70.9797H9V67.8896Z" fill="black"/>
<path d="M27 67.8896H18V70.9797H27V67.8896Z" fill="black"/>
<path d="M36.01 70.9805H27.01V74.0705H36.01V70.9805Z" fill="black"/>
<path d="M18 70.9805H9V74.0705H18V70.9805Z" fill="black"/>
<path d="M45.01 67.8896H36.01V70.9797H45.01V67.8896Z" fill="black"/>
<path d="M63.02 67.8896H54.02V70.9797H63.02V67.8896Z" fill="black"/>
<path d="M72.02 70.9805H63.02V74.0705H72.02V70.9805Z" fill="black"/>
<path d="M54.01 70.9805H45.01V74.0705H54.01V70.9805Z" fill="black"/>
<path d="M81.02 67.8896H72.02V70.9797H81.02V67.8896Z" fill="black"/>
<path d="M9 74.0596H0V77.1496H9V74.0596Z" fill="black"/>
<path d="M27 74.0596H18V77.1496H27V74.0596Z" fill="black"/>
<path d="M36.01 77.1504H27.01V80.2404H36.01V77.1504Z" fill="black"/>
<path d="M18 77.1504H9V80.2404H18V77.1504Z" fill="black"/>
<path d="M45.01 74.0596H36.01V77.1496H45.01V74.0596Z" fill="black"/>
<path d="M63.02 74.0596H54.02V77.1496H63.02V74.0596Z" fill="black"/>
<path d="M72.02 77.1504H63.02V80.2404H72.02V77.1504Z" fill="black"/>
<path d="M54.01 77.1504H45.01V80.2404H54.01V77.1504Z" fill="black"/>
<path d="M81.02 74.0596H72.02V77.1496H81.02V74.0596Z" fill="black"/>
<path d="M9 80.2305H0V83.3205H9V80.2305Z" fill="black"/>
<path d="M27 80.2305H18V83.3205H27V80.2305Z" fill="black"/>
<path d="M36.01 83.3203H27.01V86.4103H36.01V83.3203Z" fill="black"/>
<path d="M18 83.3203H9V86.4103H18V83.3203Z" fill="black"/>
<path d="M45.01 80.2305H36.01V83.3205H45.01V80.2305Z" fill="black"/>
<path d="M63.02 80.2305H54.02V83.3205H63.02V80.2305Z" fill="black"/>
<path d="M72.02 83.3203H63.02V86.4103H72.02V83.3203Z" fill="black"/>
<path d="M54.01 83.3203H45.01V86.4103H54.01V83.3203Z" fill="black"/>
<path d="M81.02 80.2305H72.02V83.3205H81.02V80.2305Z" fill="black"/>
<path d="M9 86.4004H0V89.4904H9V86.4004Z" fill="black"/>
<path d="M27 86.4004H18V89.4904H27V86.4004Z" fill="black"/>
<path d="M36.01 89.4902H27.01V92.5802H36.01V89.4902Z" fill="black"/>
<path d="M18 89.4902H9V92.5802H18V89.4902Z" fill="black"/>
<path d="M45.01 86.4004H36.01V89.4904H45.01V86.4004Z" fill="black"/>
<path d="M63.02 86.4004H54.02V89.4904H63.02V86.4004Z" fill="black"/>
<path d="M72.02 89.4902H63.02V92.5802H72.02V89.4902Z" fill="black"/>
<path d="M54.01 89.4902H45.01V92.5802H54.01V89.4902Z" fill="black"/>
<path d="M81.02 86.4004H72.02V89.4904H81.02V86.4004Z" fill="black"/>
<path d="M9 92.5703H0V95.6603H9V92.5703Z" fill="black"/>
<path d="M27 92.5703H18V95.6603H27V92.5703Z" fill="black"/>
<path d="M36.01 95.6602H27.01V98.7502H36.01V95.6602Z" fill="black"/>
<path d="M18 95.6602H9V98.7502H18V95.6602Z" fill="black"/>
<path d="M45.01 92.5703H36.01V95.6603H45.01V92.5703Z" fill="black"/>
<path d="M63.02 92.5703H54.02V95.6603H63.02V92.5703Z" fill="black"/>
<path d="M72.02 95.6602H63.02V98.7502H72.02V95.6602Z" fill="black"/>
<path d="M54.01 95.6602H45.01V98.7502H54.01V95.6602Z" fill="black"/>
<path d="M81.02 92.5703H72.02V95.6603H81.02V92.5703Z" fill="black"/>
<path d="M9 98.7402H0V101.83H9V98.7402Z" fill="black"/>
<path d="M27 98.7402H18V101.83H27V98.7402Z" fill="black"/>
<path d="M36.01 101.83H27.01V104.92H36.01V101.83Z" fill="black"/>
<path d="M18 101.83H9V104.92H18V101.83Z" fill="black"/>
<path d="M45.01 98.7402H36.01V101.83H45.01V98.7402Z" fill="black"/>
<path d="M63.02 98.7402H54.02V101.83H63.02V98.7402Z" fill="black"/>
<path d="M72.02 101.83H63.02V104.92H72.02V101.83Z" fill="black"/>
<path d="M54.01 101.83H45.01V104.92H54.01V101.83Z" fill="black"/>
<path d="M81.02 98.7402H72.02V101.83H81.02V98.7402Z" fill="black"/>
<path d="M9 104.91H0V108H9V104.91Z" fill="black"/>
<path d="M27 104.91H18V108H27V104.91Z" fill="black"/>
<path d="M36.01 108H27.01V111.09H36.01V108Z" fill="black"/>
<path d="M18 108H9V111.09H18V108Z" fill="black"/>
<path d="M45.01 104.91H36.01V108H45.01V104.91Z" fill="black"/>
<path d="M63.02 104.91H54.02V108H63.02V104.91Z" fill="black"/>
<path d="M72.02 108H63.02V111.09H72.02V108Z" fill="black"/>
<path d="M54.01 108H45.01V111.09H54.01V108Z" fill="black"/>
<path d="M81.02 104.91H72.02V108H81.02V104.91Z" fill="black"/>
<path d="M9 111.08H0V114.17H9V111.08Z" fill="black"/>
<path d="M27 111.08H18V114.17H27V111.08Z" fill="black"/>
<path d="M36.01 114.17H27.01V117.26H36.01V114.17Z" fill="black"/>
<path d="M18 114.17H9V117.26H18V114.17Z" fill="black"/>
<path d="M45.01 111.08H36.01V114.17H45.01V111.08Z" fill="black"/>
<path d="M63.02 111.08H54.02V114.17H63.02V111.08Z" fill="black"/>
<path d="M72.02 114.17H63.02V117.26H72.02V114.17Z" fill="black"/>
<path d="M54.01 114.17H45.01V117.26H54.01V114.17Z" fill="black"/>
<path d="M81.02 111.08H72.02V114.17H81.02V111.08Z" fill="black"/>
<path d="M9 117.25H0V120.34H9V117.25Z" fill="black"/>
<path d="M27 117.25H18V120.34H27V117.25Z" fill="black"/>
<path d="M36.01 120.34H27.01V123.43H36.01V120.34Z" fill="black"/>
<path d="M18 120.34H9V123.43H18V120.34Z" fill="black"/>
<path d="M45.01 117.25H36.01V120.34H45.01V117.25Z" fill="black"/>
<path d="M63.02 117.25H54.02V120.34H63.02V117.25Z" fill="black"/>
<path d="M72.02 120.34H63.02V123.43H72.02V120.34Z" fill="black"/>
<path d="M54.01 120.34H45.01V123.43H54.01V120.34Z" fill="black"/>
<path d="M81.02 117.25H72.02V120.34H81.02V117.25Z" fill="black"/>
<path d="M9 123.42H0V126.51H9V123.42Z" fill="black"/>
<path d="M27 123.42H18V126.51H27V123.42Z" fill="black"/>
<path d="M36.01 126.51H27.01V129.6H36.01V126.51Z" fill="black"/>
<path d="M18 126.51H9V129.6H18V126.51Z" fill="black"/>
<path d="M45.01 123.42H36.01V126.51H45.01V123.42Z" fill="black"/>
<path d="M63.02 123.42H54.02V126.51H63.02V123.42Z" fill="black"/>
<path d="M72.02 126.51H63.02V129.6H72.02V126.51Z" fill="black"/>
<path d="M54.01 126.51H45.01V129.6H54.01V126.51Z" fill="black"/>
<path d="M81.02 123.42H72.02V126.51H81.02V123.42Z" fill="black"/>
<path d="M9 129.59H0V132.68H9V129.59Z" fill="black"/>
<path d="M27 129.59H18V132.68H27V129.59Z" fill="black"/>
<path d="M36.01 132.68H27.01V135.77H36.01V132.68Z" fill="black"/>
<path d="M18 132.68H9V135.77H18V132.68Z" fill="black"/>
<path d="M45.01 129.59H36.01V132.68H45.01V129.59Z" fill="black"/>
<path d="M63.02 129.59H54.02V132.68H63.02V129.59Z" fill="black"/>
<path d="M72.02 132.68H63.02V135.77H72.02V132.68Z" fill="black"/>
<path d="M54.01 132.68H45.01V135.77H54.01V132.68Z" fill="black"/>
<path d="M81.02 129.59H72.02V132.68H81.02V129.59Z" fill="black"/>
<path d="M9 135.76H0V138.85H9V135.76Z" fill="black"/>
<path d="M27 135.76H18V138.85H27V135.76Z" fill="black"/>
<path d="M36.01 138.85H27.01V141.94H36.01V138.85Z" fill="black"/>
<path d="M18 138.85H9V141.94H18V138.85Z" fill="black"/>
<path d="M45.01 135.76H36.01V138.85H45.01V135.76Z" fill="black"/>
<path d="M63.02 135.76H54.02V138.85H63.02V135.76Z" fill="black"/>
<path d="M72.02 138.85H63.02V141.94H72.02V138.85Z" fill="black"/>
<path d="M54.01 138.85H45.01V141.94H54.01V138.85Z" fill="black"/>
<path d="M81.02 135.76H72.02V138.85H81.02V135.76Z" fill="black"/>
<path d="M9 141.93H0V145.02H9V141.93Z" fill="black"/>
<path d="M27 141.93H18V145.02H27V141.93Z" fill="black"/>
<path d="M36.01 145.02H27.01V148.11H36.01V145.02Z" fill="black"/>
<path d="M18 145.02H9V148.11H18V145.02Z" fill="black"/>
<path d="M45.01 141.93H36.01V145.02H45.01V141.93Z" fill="black"/>
<path d="M63.02 141.93H54.02V145.02H63.02V141.93Z" fill="black"/>
<path d="M72.02 145.02H63.02V148.11H72.02V145.02Z" fill="black"/>
<path d="M54.01 145.02H45.01V148.11H54.01V145.02Z" fill="black"/>
<path d="M81.02 141.93H72.02V145.02H81.02V141.93Z" fill="black"/>
<path d="M9 148.1H0V151.19H9V148.1Z" fill="black"/>
<path d="M27 148.1H18V151.19H27V148.1Z" fill="black"/>
<path d="M36.01 151.19H27.01V154.28H36.01V151.19Z" fill="black"/>
<path d="M18 151.19H9V154.28H18V151.19Z" fill="black"/>
<path d="M45.01 148.1H36.01V151.19H45.01V148.1Z" fill="black"/>
<path d="M63.02 148.1H54.02V151.19H63.02V148.1Z" fill="black"/>
<path d="M72.02 151.19H63.02V154.28H72.02V151.19Z" fill="black"/>
<path d="M54.01 151.19H45.01V154.28H54.01V151.19Z" fill="black"/>
<path d="M81.02 148.1H72.02V151.19H81.02V148.1Z" fill="black"/>
<path d="M9 154.27H0V157.36H9V154.27Z" fill="black"/>
<path d="M27 154.27H18V157.36H27V154.27Z" fill="black"/>
<path d="M36.01 157.36H27.01V160.45H36.01V157.36Z" fill="black"/>
<path d="M18 157.36H9V160.45H18V157.36Z" fill="black"/>
<path d="M45.01 154.27H36.01V157.36H45.01V154.27Z" fill="black"/>
<path d="M63.02 154.27H54.02V157.36H63.02V154.27Z" fill="black"/>
<path d="M72.02 157.36H63.02V160.45H72.02V157.36Z" fill="black"/>
<path d="M54.01 157.36H45.01V160.45H54.01V157.36Z" fill="black"/>
<path d="M81.02 154.27H72.02V157.36H81.02V154.27Z" fill="black"/>
<path d="M9 160.44H0V163.53H9V160.44Z" fill="black"/>
<path d="M27 160.44H18V163.53H27V160.44Z" fill="black"/>
<path d="M36.01 163.53H27.01V166.62H36.01V163.53Z" fill="black"/>
<path d="M18 163.53H9V166.62H18V163.53Z" fill="black"/>
<path d="M45.01 160.44H36.01V163.53H45.01V160.44Z" fill="black"/>
<path d="M63.02 160.44H54.02V163.53H63.02V160.44Z" fill="black"/>
<path d="M72.02 163.53H63.02V166.62H72.02V163.53Z" fill="black"/>
<path d="M54.01 163.53H45.01V166.62H54.01V163.53Z" fill="black"/>
<path d="M81.02 160.44H72.02V163.53H81.02V160.44Z" fill="black"/>
<path d="M9 166.61H0V169.7H9V166.61Z" fill="black"/>
<path d="M27 166.61H18V169.7H27V166.61Z" fill="black"/>
<path d="M36.01 169.7H27.01V172.79H36.01V169.7Z" fill="black"/>
<path d="M18 169.7H9V172.79H18V169.7Z" fill="black"/>
<path d="M45.01 166.61H36.01V169.7H45.01V166.61Z" fill="black"/>
<path d="M63.02 166.61H54.02V169.7H63.02V166.61Z" fill="black"/>
<path d="M72.02 169.7H63.02V172.79H72.02V169.7Z" fill="black"/>
<path d="M54.01 169.7H45.01V172.79H54.01V169.7Z" fill="black"/>
<path d="M81.02 166.61H72.02V169.7H81.02V166.61Z" fill="black"/>
<path d="M9 172.78H0V175.87H9V172.78Z" fill="black"/>
<path d="M27 172.78H18V175.87H27V172.78Z" fill="black"/>
<path d="M36.01 175.87H27.01V178.96H36.01V175.87Z" fill="black"/>
<path d="M18 175.87H9V178.96H18V175.87Z" fill="black"/>
<path d="M45.01 172.78H36.01V175.87H45.01V172.78Z" fill="black"/>
<path d="M63.02 172.78H54.02V175.87H63.02V172.78Z" fill="black"/>
<path d="M72.02 175.87H63.02V178.96H72.02V175.87Z" fill="black"/>
<path d="M54.01 175.87H45.01V178.96H54.01V175.87Z" fill="black"/>
<path d="M81.02 172.78H72.02V175.87H81.02V172.78Z" fill="black"/>
<path d="M9 178.94H0V182.03H9V178.94Z" fill="black"/>
<path d="M27 178.94H18V182.03H27V178.94Z" fill="black"/>
<path d="M36.01 182.04H27.01V185.13H36.01V182.04Z" fill="black"/>
<path d="M18 182.04H9V185.13H18V182.04Z" fill="black"/>
<path d="M45.01 178.94H36.01V182.03H45.01V178.94Z" fill="black"/>
<path d="M63.02 178.94H54.02V182.03H63.02V178.94Z" fill="black"/>
<path d="M72.02 182.04H63.02V185.13H72.02V182.04Z" fill="black"/>
<path d="M54.01 182.04H45.01V185.13H54.01V182.04Z" fill="black"/>
<path d="M81.02 178.94H72.02V182.03H81.02V178.94Z" fill="black"/>
<path d="M9 185.11H0V188.2H9V185.11Z" fill="black"/>
<path d="M27 185.11H18V188.2H27V185.11Z" fill="black"/>
<path d="M36.01 188.21H27.01V191.3H36.01V188.21Z" fill="black"/>
<path d="M18 188.21H9V191.3H18V188.21Z" fill="black"/>
<path d="M45.01 185.11H36.01V188.2H45.01V185.11Z" fill="black"/>
<path d="M63.02 185.11H54.02V188.2H63.02V185.11Z" fill="black"/>
<path d="M72.02 188.21H63.02V191.3H72.02V188.21Z" fill="black"/>
<path d="M54.01 188.21H45.01V191.3H54.01V188.21Z" fill="black"/>
<path d="M81.02 185.11H72.02V188.2H81.02V185.11Z" fill="black"/>
<path d="M9 191.28H0V194.37H9V191.28Z" fill="black"/>
<path d="M27 191.28H18V194.37H27V191.28Z" fill="black"/>
<path d="M36.01 194.38H27.01V197.47H36.01V194.38Z" fill="black"/>
<path d="M18 194.38H9V197.47H18V194.38Z" fill="black"/>
<path d="M45.01 191.28H36.01V194.37H45.01V191.28Z" fill="black"/>
<path d="M63.02 191.28H54.02V194.37H63.02V191.28Z" fill="black"/>
<path d="M72.02 194.38H63.02V197.47H72.02V194.38Z" fill="black"/>
<path d="M54.01 194.38H45.01V197.47H54.01V194.38Z" fill="black"/>
<path d="M81.02 191.28H72.02V194.37H81.02V191.28Z" fill="black"/>
<path d="M9 197.45H0V200.54H9V197.45Z" fill="black"/>
<path d="M27 197.45H18V200.54H27V197.45Z" fill="black"/>
<path d="M36.01 200.55H27.01V203.64H36.01V200.55Z" fill="black"/>
<path d="M18 200.55H9V203.64H18V200.55Z" fill="black"/>
<path d="M45.01 197.45H36.01V200.54H45.01V197.45Z" fill="black"/>
<path d="M63.02 197.45H54.02V200.54H63.02V197.45Z" fill="black"/>
<path d="M72.02 200.55H63.02V203.64H72.02V200.55Z" fill="black"/>
<path d="M54.01 200.55H45.01V203.64H54.01V200.55Z" fill="black"/>
<path d="M81.02 197.45H72.02V200.54H81.02V197.45Z" fill="black"/>
<path d="M9 203.62H0V206.71H9V203.62Z" fill="black"/>
<path d="M27 203.62H18V206.71H27V203.62Z" fill="black"/>
<path d="M36.01 206.72H27.01V209.81H36.01V206.72Z" fill="black"/>
<path d="M18 206.72H9V209.81H18V206.72Z" fill="black"/>
<path d="M45.01 203.62H36.01V206.71H45.01V203.62Z" fill="black"/>
<path d="M63.02 203.62H54.02V206.71H63.02V203.62Z" fill="black"/>
<path d="M72.02 206.72H63.02V209.81H72.02V206.72Z" fill="black"/>
<path d="M54.01 206.72H45.01V209.81H54.01V206.72Z" fill="black"/>
<path d="M81.02 203.62H72.02V206.71H81.02V203.62Z" fill="black"/>
<path d="M9 209.79H0V212.88H9V209.79Z" fill="black"/>
<path d="M27 209.79H18V212.88H27V209.79Z" fill="black"/>
<path d="M36.01 212.89H27.01V215.98H36.01V212.89Z" fill="black"/>
<path d="M18 212.89H9V215.98H18V212.89Z" fill="black"/>
<path d="M45.01 209.79H36.01V212.88H45.01V209.79Z" fill="black"/>
<path d="M63.02 209.79H54.02V212.88H63.02V209.79Z" fill="black"/>
<path d="M72.02 212.89H63.02V215.98H72.02V212.89Z" fill="black"/>
<path d="M54.01 212.89H45.01V215.98H54.01V212.89Z" fill="black"/>
<path d="M81.02 209.79H72.02V212.88H81.02V209.79Z" fill="black"/>
<path d="M9 215.96H0V219.05H9V215.96Z" fill="black"/>
<path d="M27 215.96H18V219.05H27V215.96Z" fill="black"/>
<path d="M36.01 219.06H27.01V222.15H36.01V219.06Z" fill="black"/>
<path d="M18 219.06H9V222.15H18V219.06Z" fill="black"/>
<path d="M45.01 215.96H36.01V219.05H45.01V215.96Z" fill="black"/>
<path d="M63.02 215.96H54.02V219.05H63.02V215.96Z" fill="black"/>
<path d="M72.02 219.06H63.02V222.15H72.02V219.06Z" fill="black"/>
<path d="M54.01 219.06H45.01V222.15H54.01V219.06Z" fill="black"/>
<path d="M81.02 215.96H72.02V219.05H81.02V215.96Z" fill="black"/>
<path d="M9 222.13H0V225.22H9V222.13Z" fill="black"/>
<path d="M27 222.13H18V225.22H27V222.13Z" fill="black"/>
<path d="M36.01 225.23H27.01V228.32H36.01V225.23Z" fill="black"/>
<path d="M18 225.23H9V228.32H18V225.23Z" fill="black"/>
<path d="M45.01 222.13H36.01V225.22H45.01V222.13Z" fill="black"/>
<path d="M63.02 222.13H54.02V225.22H63.02V222.13Z" fill="black"/>
<path d="M72.02 225.23H63.02V228.32H72.02V225.23Z" fill="black"/>
<path d="M54.01 225.23H45.01V228.32H54.01V225.23Z" fill="black"/>
<path d="M81.02 222.13H72.02V225.22H81.02V222.13Z" fill="black"/>
<path d="M9 228.3H0V231.39H9V228.3Z" fill="black"/>
<path d="M27 228.3H18V231.39H27V228.3Z" fill="black"/>
<path d="M36.01 231.4H27.01V234.49H36.01V231.4Z" fill="black"/>
<path d="M18 231.4H9V234.49H18V231.4Z" fill="black"/>
<path d="M45.01 228.3H36.01V231.39H45.01V228.3Z" fill="black"/>
<path d="M63.02 228.3H54.02V231.39H63.02V228.3Z" fill="black"/>
<path d="M72.02 231.4H63.02V234.49H72.02V231.4Z" fill="black"/>
<path d="M54.01 231.4H45.01V234.49H54.01V231.4Z" fill="black"/>
<path d="M81.02 228.3H72.02V231.39H81.02V228.3Z" fill="black"/>
<path d="M9 234.47H0V237.56H9V234.47Z" fill="black"/>
<path d="M27 234.47H18V237.56H27V234.47Z" fill="black"/>
<path d="M36.01 237.57H27.01V240.66H36.01V237.57Z" fill="black"/>
<path d="M18 237.57H9V240.66H18V237.57Z" fill="black"/>
<path d="M45.01 234.47H36.01V237.56H45.01V234.47Z" fill="black"/>
<path d="M63.02 234.47H54.02V237.56H63.02V234.47Z" fill="black"/>
<path d="M72.02 237.57H63.02V240.66H72.02V237.57Z" fill="black"/>
<path d="M54.01 237.57H45.01V240.66H54.01V237.57Z" fill="black"/>
<path d="M81.02 234.47H72.02V237.56H81.02V234.47Z" fill="black"/>
<path d="M9 240.64H0V243.73H9V240.64Z" fill="black"/>
<path d="M27 240.64H18V243.73H27V240.64Z" fill="black"/>
<path d="M36.01 243.74H27.01V246.83H36.01V243.74Z" fill="black"/>
<path d="M18 243.74H9V246.83H18V243.74Z" fill="black"/>
<path d="M45.01 240.64H36.01V243.73H45.01V240.64Z" fill="black"/>
<path d="M63.02 240.64H54.02V243.73H63.02V240.64Z" fill="black"/>
<path d="M72.02 243.74H63.02V246.83H72.02V243.74Z" fill="black"/>
<path d="M54.01 243.74H45.01V246.83H54.01V243.74Z" fill="black"/>
<path d="M81.02 240.64H72.02V243.73H81.02V240.64Z" fill="black"/>
<path d="M9 246.81H0V249.9H9V246.81Z" fill="black"/>
<path d="M27 246.81H18V249.9H27V246.81Z" fill="black"/>
<path d="M36.01 249.91H27.01V253H36.01V249.91Z" fill="black"/>
<path d="M18 249.91H9V253H18V249.91Z" fill="black"/>
<path d="M45.01 246.81H36.01V249.9H45.01V246.81Z" fill="black"/>
<path d="M63.02 246.81H54.02V249.9H63.02V246.81Z" fill="black"/>
<path d="M72.02 249.91H63.02V253H72.02V249.91Z" fill="black"/>
<path d="M54.01 249.91H45.01V253H54.01V249.91Z" fill="black"/>
<path d="M81.02 246.81H72.02V249.9H81.02V246.81Z" fill="black"/>
<path d="M9 252.98H0V256.07H9V252.98Z" fill="black"/>
<path d="M27 252.98H18V256.07H27V252.98Z" fill="black"/>
<path d="M36.01 256.08H27.01V259.17H36.01V256.08Z" fill="black"/>
<path d="M18 256.08H9V259.17H18V256.08Z" fill="black"/>
<path d="M45.01 252.98H36.01V256.07H45.01V252.98Z" fill="black"/>
<path d="M63.02 252.98H54.02V256.07H63.02V252.98Z" fill="black"/>
<path d="M72.02 256.08H63.02V259.17H72.02V256.08Z" fill="black"/>
<path d="M54.01 256.08H45.01V259.17H54.01V256.08Z" fill="black"/>
<path d="M81.02 252.98H72.02V256.07H81.02V252.98Z" fill="black"/>
<path d="M9 259.15H0V262.24H9V259.15Z" fill="black"/>
<path d="M27 259.15H18V262.24H27V259.15Z" fill="black"/>
<path d="M36.01 262.25H27.01V265.34H36.01V262.25Z" fill="black"/>
<path d="M18 262.25H9V265.34H18V262.25Z" fill="black"/>
<path d="M45.01 259.15H36.01V262.24H45.01V259.15Z" fill="black"/>
<path d="M63.02 259.15H54.02V262.24H63.02V259.15Z" fill="black"/>
<path d="M72.02 262.25H63.02V265.34H72.02V262.25Z" fill="black"/>
<path d="M54.01 262.25H45.01V265.34H54.01V262.25Z" fill="black"/>
<path d="M81.02 259.15H72.02V262.24H81.02V259.15Z" fill="black"/>
<path d="M9 265.32H0V268.41H9V265.32Z" fill="black"/>
<path d="M27 265.32H18V268.41H27V265.32Z" fill="black"/>
<path d="M36.01 268.42H27.01V271.51H36.01V268.42Z" fill="black"/>
<path d="M18 268.42H9V271.51H18V268.42Z" fill="black"/>
<path d="M45.01 265.32H36.01V268.41H45.01V265.32Z" fill="black"/>
<path d="M63.02 265.32H54.02V268.41H63.02V265.32Z" fill="black"/>
<path d="M72.02 268.42H63.02V271.51H72.02V268.42Z" fill="black"/>
<path d="M54.01 268.42H45.01V271.51H54.01V268.42Z" fill="black"/>
<path d="M81.02 265.32H72.02V268.41H81.02V265.32Z" fill="black"/>
<path d="M9 271.49H0V274.58H9V271.49Z" fill="black"/>
<path d="M27 271.49H18V274.58H27V271.49Z" fill="black"/>
<path d="M36.01 274.59H27.01V277.68H36.01V274.59Z" fill="black"/>
<path d="M18 274.59H9V277.68H18V274.59Z" fill="black"/>
<path d="M45.01 271.49H36.01V274.58H45.01V271.49Z" fill="black"/>
<path d="M63.02 271.49H54.02V274.58H63.02V271.49Z" fill="black"/>
<path d="M72.02 274.59H63.02V277.68H72.02V274.59Z" fill="black"/>
<path d="M54.01 274.59H45.01V277.68H54.01V274.59Z" fill="black"/>
<path d="M81.02 271.49H72.02V274.58H81.02V271.49Z" fill="black"/>
<path d="M9 277.66H0V280.75H9V277.66Z" fill="black"/>
<path d="M27 277.66H18V280.75H27V277.66Z" fill="black"/>
<path d="M36.01 280.76H27.01V283.85H36.01V280.76Z" fill="black"/>
<path d="M18 280.76H9V283.85H18V280.76Z" fill="black"/>
<path d="M45.01 277.66H36.01V280.75H45.01V277.66Z" fill="black"/>
<path d="M63.02 277.66H54.02V280.75H63.02V277.66Z" fill="black"/>
<path d="M72.02 280.76H63.02V283.85H72.02V280.76Z" fill="black"/>
<path d="M54.01 280.76H45.01V283.85H54.01V280.76Z" fill="black"/>
<path d="M81.02 277.66H72.02V280.75H81.02V277.66Z" fill="black"/>
<path d="M9 283.83H0V286.92H9V283.83Z" fill="black"/>
<path d="M27 283.83H18V286.92H27V283.83Z" fill="black"/>
<path d="M36.01 286.93H27.01V290.02H36.01V286.93Z" fill="black"/>
<path d="M18 286.93H9V290.02H18V286.93Z" fill="black"/>
<path d="M45.01 283.83H36.01V286.92H45.01V283.83Z" fill="black"/>
<path d="M63.02 283.83H54.02V286.92H63.02V283.83Z" fill="black"/>
<path d="M72.02 286.93H63.02V290.02H72.02V286.93Z" fill="black"/>
<path d="M54.01 286.93H45.01V290.02H54.01V286.93Z" fill="black"/>
<path d="M81.02 283.83H72.02V286.92H81.02V283.83Z" fill="black"/>
<path d="M9 290H0V293.09H9V290Z" fill="black"/>
<path d="M27 290H18V293.09H27V290Z" fill="black"/>
<path d="M36.01 293.1H27.01V296.19H36.01V293.1Z" fill="black"/>
<path d="M18 293.1H9V296.19H18V293.1Z" fill="black"/>
<path d="M45.01 290H36.01V293.09H45.01V290Z" fill="black"/>
<path d="M63.02 290H54.02V293.09H63.02V290Z" fill="black"/>
<path d="M72.02 293.1H63.02V296.19H72.02V293.1Z" fill="black"/>
<path d="M54.01 293.1H45.01V296.19H54.01V293.1Z" fill="black"/>
<path d="M81.02 290H72.02V293.09H81.02V290Z" fill="black"/>
<path d="M9 296.17H0V299.26H9V296.17Z" fill="black"/>
<path d="M27 296.17H18V299.26H27V296.17Z" fill="black"/>
<path d="M36.01 299.27H27.01V302.36H36.01V299.27Z" fill="black"/>
<path d="M18 299.27H9V302.36H18V299.27Z" fill="black"/>
<path d="M45.01 296.17H36.01V299.26H45.01V296.17Z" fill="black"/>
<path d="M63.02 296.17H54.02V299.26H63.02V296.17Z" fill="black"/>
<path d="M72.02 299.27H63.02V302.36H72.02V299.27Z" fill="black"/>
<path d="M54.01 299.27H45.01V302.36H54.01V299.27Z" fill="black"/>
<path d="M81.02 296.17H72.02V299.26H81.02V296.17Z" fill="black"/>
<path d="M9 302.34H0V305.43H9V302.34Z" fill="black"/>
<path d="M27 302.34H18V305.43H27V302.34Z" fill="black"/>
<path d="M36.01 305.44H27.01V308.53H36.01V305.44Z" fill="black"/>
<path d="M18 305.44H9V308.53H18V305.44Z" fill="black"/>
<path d="M45.01 302.34H36.01V305.43H45.01V302.34Z" fill="black"/>
<path d="M63.02 302.34H54.02V305.43H63.02V302.34Z" fill="black"/>
<path d="M72.02 305.44H63.02V308.53H72.02V305.44Z" fill="black"/>
<path d="M54.01 305.44H45.01V308.53H54.01V305.44Z" fill="black"/>
<path d="M81.02 302.34H72.02V305.43H81.02V302.34Z" fill="black"/>
<path d="M9 308.51H0V311.6H9V308.51Z" fill="black"/>
<path d="M27 308.51H18V311.6H27V308.51Z" fill="black"/>
<path d="M36.01 311.61H27.01V314.7H36.01V311.61Z" fill="black"/>
<path d="M18 311.61H9V314.7H18V311.61Z" fill="black"/>
<path d="M45.01 308.51H36.01V311.6H45.01V308.51Z" fill="black"/>
<path d="M63.02 308.51H54.02V311.6H63.02V308.51Z" fill="black"/>
<path d="M72.02 311.61H63.02V314.7H72.02V311.61Z" fill="black"/>
<path d="M54.01 311.61H45.01V314.7H54.01V311.61Z" fill="black"/>
<path d="M81.02 308.51H72.02V311.6H81.02V308.51Z" fill="black"/>
<path d="M9 314.68H0V317.77H9V314.68Z" fill="black"/>
<path d="M27 314.68H18V317.77H27V314.68Z" fill="black"/>
<path d="M36.01 317.78H27.01V320.87H36.01V317.78Z" fill="black"/>
<path d="M18 317.78H9V320.87H18V317.78Z" fill="black"/>
<path d="M45.01 314.68H36.01V317.77H45.01V314.68Z" fill="black"/>
<path d="M63.02 314.68H54.02V317.77H63.02V314.68Z" fill="black"/>
<path d="M72.02 317.78H63.02V320.87H72.02V317.78Z" fill="black"/>
<path d="M54.01 317.78H45.01V320.87H54.01V317.78Z" fill="black"/>
<path d="M81.02 314.68H72.02V317.77H81.02V314.68Z" fill="black"/>
<path d="M9 320.85H0V323.94H9V320.85Z" fill="black"/>
<path d="M27 320.85H18V323.94H27V320.85Z" fill="black"/>
<path d="M36.01 323.95H27.01V327.04H36.01V323.95Z" fill="black"/>
<path d="M18 323.95H9V327.04H18V323.95Z" fill="black"/>
<path d="M45.01 320.85H36.01V323.94H45.01V320.85Z" fill="black"/>
<path d="M63.02 320.85H54.02V323.94H63.02V320.85Z" fill="black"/>
<path d="M72.02 323.95H63.02V327.04H72.02V323.95Z" fill="black"/>
<path d="M54.01 323.95H45.01V327.04H54.01V323.95Z" fill="black"/>
<path d="M81.02 320.85H72.02V323.94H81.02V320.85Z" fill="black"/>
<path d="M9 327.02H0V330.11H9V327.02Z" fill="black"/>
<path d="M27 327.02H18V330.11H27V327.02Z" fill="black"/>
<path d="M36.01 330.12H27.01V333.21H36.01V330.12Z" fill="black"/>
<path d="M18 330.12H9V333.21H18V330.12Z" fill="black"/>
<path d="M45.01 327.02H36.01V330.11H45.01V327.02Z" fill="black"/>
<path d="M63.02 327.02H54.02V330.11H63.02V327.02Z" fill="black"/>
<path d="M72.02 330.12H63.02V333.21H72.02V330.12Z" fill="black"/>
<path d="M54.01 330.12H45.01V333.21H54.01V330.12Z" fill="black"/>
<path d="M81.02 327.02H72.02V330.11H81.02V327.02Z" fill="black"/>
<path d="M9 333.19H0V336.28H9V333.19Z" fill="black"/>
<path d="M27 333.19H18V336.28H27V333.19Z" fill="black"/>
<path d="M36.01 336.29H27.01V339.38H36.01V336.29Z" fill="black"/>
<path d="M18 336.29H9V339.38H18V336.29Z" fill="black"/>
<path d="M45.01 333.19H36.01V336.28H45.01V333.19Z" fill="black"/>
<path d="M63.02 333.19H54.02V336.28H63.02V333.19Z" fill="black"/>
<path d="M72.02 336.29H63.02V339.38H72.02V336.29Z" fill="black"/>
<path d="M54.01 336.29H45.01V339.38H54.01V336.29Z" fill="black"/>
<path d="M81.02 333.19H72.02V336.28H81.02V333.19Z" fill="black"/>
<path d="M9 339.36H0V342.45H9V339.36Z" fill="black"/>
<path d="M27 339.36H18V342.45H27V339.36Z" fill="black"/>
<path d="M36.01 342.46H27.01V345.55H36.01V342.46Z" fill="black"/>
<path d="M18 342.46H9V345.55H18V342.46Z" fill="black"/>
<path d="M45.01 339.36H36.01V342.45H45.01V339.36Z" fill="black"/>
<path d="M63.02 339.36H54.02V342.45H63.02V339.36Z" fill="black"/>
<path d="M72.02 342.46H63.02V345.55H72.02V342.46Z" fill="black"/>
<path d="M54.01 342.46H45.01V345.55H54.01V342.46Z" fill="black"/>
<path d="M81.02 339.36H72.02V342.45H81.02V339.36Z" fill="black"/>
<path d="M9 345.53H0V348.62H9V345.53Z" fill="black"/>
<path d="M27 345.53H18V348.62H27V345.53Z" fill="black"/>
<path d="M36.01 348.63H27.01V351.72H36.01V348.63Z" fill="black"/>
<path d="M18 348.63H9V351.72H18V348.63Z" fill="black"/>
<path d="M45.01 345.53H36.01V348.62H45.01V345.53Z" fill="black"/>
<path d="M63.02 345.53H54.02V348.62H63.02V345.53Z" fill="black"/>
<path d="M72.02 348.63H63.02V351.72H72.02V348.63Z" fill="black"/>
<path d="M54.01 348.63H45.01V351.72H54.01V348.63Z" fill="black"/>
<path d="M81.02 345.53H72.02V348.62H81.02V345.53Z" fill="black"/>
<path d="M9 351.7H0V354.79H9V351.7Z" fill="black"/>
<path d="M27 351.7H18V354.79H27V351.7Z" fill="black"/>
<path d="M36.01 354.8H27.01V357.89H36.01V354.8Z" fill="black"/>
<path d="M18 354.8H9V357.89H18V354.8Z" fill="black"/>
<path d="M45.01 351.7H36.01V354.79H45.01V351.7Z" fill="black"/>
<path d="M63.02 351.7H54.02V354.79H63.02V351.7Z" fill="black"/>
<path d="M72.02 354.8H63.02V357.89H72.02V354.8Z" fill="black"/>
<path d="M54.01 354.8H45.01V357.89H54.01V354.8Z" fill="black"/>
<path d="M81.02 351.7H72.02V354.79H81.02V351.7Z" fill="black"/>
<path d="M9 357.87H0V360.96H9V357.87Z" fill="black"/>
<path d="M27 357.87H18V360.96H27V357.87Z" fill="black"/>
<path d="M36.01 360.97H27.01V364.06H36.01V360.97Z" fill="black"/>
<path d="M18 360.97H9V364.06H18V360.97Z" fill="black"/>
<path d="M45.01 357.87H36.01V360.96H45.01V357.87Z" fill="black"/>
<path d="M63.02 357.87H54.02V360.96H63.02V357.87Z" fill="black"/>
<path d="M72.02 360.97H63.02V364.06H72.02V360.97Z" fill="black"/>
<path d="M54.01 360.97H45.01V364.06H54.01V360.97Z" fill="black"/>
<path d="M81.02 357.87H72.02V360.96H81.02V357.87Z" fill="black"/>
<path d="M9 364.04H0V367.13H9V364.04Z" fill="black"/>
<path d="M27 364.04H18V367.13H27V364.04Z" fill="black"/>
<path d="M36.01 367.14H27.01V370.23H36.01V367.14Z" fill="black"/>
<path d="M18 367.14H9V370.23H18V367.14Z" fill="black"/>
<path d="M45.01 364.04H36.01V367.13H45.01V364.04Z" fill="black"/>
<path d="M63.02 364.04H54.02V367.13H63.02V364.04Z" fill="black"/>
<path d="M72.02 367.14H63.02V370.23H72.02V367.14Z" fill="black"/>
<path d="M54.01 367.14H45.01V370.23H54.01V367.14Z" fill="black"/>
<path d="M81.02 364.04H72.02V367.13H81.02V364.04Z" fill="black"/>
<path d="M9 370.21H0V373.3H9V370.21Z" fill="black"/>
<path d="M27 370.21H18V373.3H27V370.21Z" fill="black"/>
<path d="M36.01 373.31H27.01V376.4H36.01V373.31Z" fill="black"/>
<path d="M18 373.31H9V376.4H18V373.31Z" fill="black"/>
<path d="M45.01 370.21H36.01V373.3H45.01V370.21Z" fill="black"/>
<path d="M63.02 370.21H54.02V373.3H63.02V370.21Z" fill="black"/>
<path d="M72.02 373.31H63.02V376.4H72.02V373.31Z" fill="black"/>
<path d="M54.01 373.31H45.01V376.4H54.01V373.31Z" fill="black"/>
<path d="M81.02 370.21H72.02V373.3H81.02V370.21Z" fill="black"/>
<path d="M9 376.38H0V379.47H9V376.38Z" fill="black"/>
<path d="M27 376.38H18V379.47H27V376.38Z" fill="black"/>
<path d="M36.01 379.48H27.01V382.57H36.01V379.48Z" fill="black"/>
<path d="M18 379.48H9V382.57H18V379.48Z" fill="black"/>
<path d="M45.01 376.38H36.01V379.47H45.01V376.38Z" fill="black"/>
<path d="M63.02 376.38H54.02V379.47H63.02V376.38Z" fill="black"/>
<path d="M72.02 379.48H63.02V382.57H72.02V379.48Z" fill="black"/>
<path d="M54.01 379.48H45.01V382.57H54.01V379.48Z" fill="black"/>
<path d="M81.02 376.38H72.02V379.47H81.02V376.38Z" fill="black"/>
<path d="M9 382.55H0V385.64H9V382.55Z" fill="black"/>
<path d="M27 382.55H18V385.64H27V382.55Z" fill="black"/>
<path d="M36.01 385.65H27.01V388.74H36.01V385.65Z" fill="black"/>
<path d="M18 385.65H9V388.74H18V385.65Z" fill="black"/>
<path d="M45.01 382.55H36.01V385.64H45.01V382.55Z" fill="black"/>
<path d="M63.02 382.55H54.02V385.64H63.02V382.55Z" fill="black"/>
<path d="M72.02 385.65H63.02V388.74H72.02V385.65Z" fill="black"/>
<path d="M54.01 385.65H45.01V388.74H54.01V385.65Z" fill="black"/>
<path d="M81.02 382.55H72.02V385.64H81.02V382.55Z" fill="black"/>
<path d="M9 388.72H0V391.81H9V388.72Z" fill="black"/>
<path d="M27 388.72H18V391.81H27V388.72Z" fill="black"/>
<path d="M36.01 391.82H27.01V394.91H36.01V391.82Z" fill="black"/>
<path d="M18 391.82H9V394.91H18V391.82Z" fill="black"/>
<path d="M45.01 388.72H36.01V391.81H45.01V388.72Z" fill="black"/>
<path d="M63.02 388.72H54.02V391.81H63.02V388.72Z" fill="black"/>
<path d="M72.02 391.82H63.02V394.91H72.02V391.82Z" fill="black"/>
<path d="M54.01 391.82H45.01V394.91H54.01V391.82Z" fill="black"/>
<path d="M81.02 388.72H72.02V391.81H81.02V388.72Z" fill="black"/>
<path d="M9 394.89H0V397.98H9V394.89Z" fill="black"/>
<path d="M27 394.89H18V397.98H27V394.89Z" fill="black"/>
<path d="M36.01 397.99H27.01V401.08H36.01V397.99Z" fill="black"/>
<path d="M18 397.99H9V401.08H18V397.99Z" fill="black"/>
<path d="M45.01 394.89H36.01V397.98H45.01V394.89Z" fill="black"/>
<path d="M63.02 394.89H54.02V397.98H63.02V394.89Z" fill="black"/>
<path d="M72.02 397.99H63.02V401.08H72.02V397.99Z" fill="black"/>
<path d="M54.01 397.99H45.01V401.08H54.01V397.99Z" fill="black"/>
<path d="M81.02 394.89H72.02V397.98H81.02V394.89Z" fill="black"/>
<path d="M9 401.06H0V404.15H9V401.06Z" fill="black"/>
<path d="M27 401.06H18V404.15H27V401.06Z" fill="black"/>
<path d="M36.01 404.16H27.01V407.25H36.01V404.16Z" fill="black"/>
<path d="M18 404.16H9V407.25H18V404.16Z" fill="black"/>
<path d="M45.01 401.06H36.01V404.15H45.01V401.06Z" fill="black"/>
<path d="M63.02 401.06H54.02V404.15H63.02V401.06Z" fill="black"/>
<path d="M72.02 404.16H63.02V407.25H72.02V404.16Z" fill="black"/>
<path d="M54.01 404.16H45.01V407.25H54.01V404.16Z" fill="black"/>
<path d="M81.02 401.06H72.02V404.15H81.02V401.06Z" fill="black"/>
<path d="M9 407.23H0V410.32H9V407.23Z" fill="black"/>
<path d="M27 407.23H18V410.32H27V407.23Z" fill="black"/>
<path d="M36.01 410.33H27.01V413.42H36.01V410.33Z" fill="black"/>
<path d="M18 410.33H9V413.42H18V410.33Z" fill="black"/>
<path d="M45.01 407.23H36.01V410.32H45.01V407.23Z" fill="black"/>
<path d="M63.02 407.23H54.02V410.32H63.02V407.23Z" fill="black"/>
<path d="M72.02 410.33H63.02V413.42H72.02V410.33Z" fill="black"/>
<path d="M54.01 410.33H45.01V413.42H54.01V410.33Z" fill="black"/>
<path d="M81.02 407.23H72.02V410.32H81.02V407.23Z" fill="black"/>
<path d="M9 413.4H0V416.49H9V413.4Z" fill="black"/>
<path d="M27 413.4H18V416.49H27V413.4Z" fill="black"/>
<path d="M36.01 416.5H27.01V419.59H36.01V416.5Z" fill="black"/>
<path d="M18 416.5H9V419.59H18V416.5Z" fill="black"/>
<path d="M45.01 413.4H36.01V416.49H45.01V413.4Z" fill="black"/>
<path d="M63.02 413.4H54.02V416.49H63.02V413.4Z" fill="black"/>
<path d="M72.02 416.5H63.02V419.59H72.02V416.5Z" fill="black"/>
<path d="M54.01 416.5H45.01V419.59H54.01V416.5Z" fill="black"/>
<path d="M81.02 413.4H72.02V416.49H81.02V413.4Z" fill="black"/>
<path d="M9 419.57H0V422.66H9V419.57Z" fill="black"/>
<path d="M27 419.57H18V422.66H27V419.57Z" fill="black"/>
<path d="M36.01 422.67H27.01V425.76H36.01V422.67Z" fill="black"/>
<path d="M18 422.67H9V425.76H18V422.67Z" fill="black"/>
<path d="M45.01 419.57H36.01V422.66H45.01V419.57Z" fill="black"/>
<path d="M63.02 419.57H54.02V422.66H63.02V419.57Z" fill="black"/>
<path d="M72.02 422.67H63.02V425.76H72.02V422.67Z" fill="black"/>
<path d="M54.01 422.67H45.01V425.76H54.01V422.67Z" fill="black"/>
<path d="M81.02 419.57H72.02V422.66H81.02V419.57Z" fill="black"/>
<path d="M9 425.74H0V428.83H9V425.74Z" fill="black"/>
<path d="M27 425.74H18V428.83H27V425.74Z" fill="black"/>
<path d="M36.01 428.84H27.01V431.93H36.01V428.84Z" fill="black"/>
<path d="M18 428.84H9V431.93H18V428.84Z" fill="black"/>
<path d="M45.01 425.74H36.01V428.83H45.01V425.74Z" fill="black"/>
<path d="M63.02 425.74H54.02V428.83H63.02V425.74Z" fill="black"/>
<path d="M72.02 428.84H63.02V431.93H72.02V428.84Z" fill="black"/>
<path d="M54.01 428.84H45.01V431.93H54.01V428.84Z" fill="black"/>
<path d="M81.02 425.74H72.02V428.83H81.02V425.74Z" fill="black"/>
<path d="M9 431.91H0V435H9V431.91Z" fill="black"/>
<path d="M27 431.91H18V435H27V431.91Z" fill="black"/>
<path d="M36.01 435.01H27.01V438.1H36.01V435.01Z" fill="black"/>
<path d="M18 435.01H9V438.1H18V435.01Z" fill="black"/>
<path d="M45.01 431.91H36.01V435H45.01V431.91Z" fill="black"/>
<path d="M63.02 431.91H54.02V435H63.02V431.91Z" fill="black"/>
<path d="M72.02 435.01H63.02V438.1H72.02V435.01Z" fill="black"/>
<path d="M54.01 435.01H45.01V438.1H54.01V435.01Z" fill="black"/>
<path d="M81.02 431.91H72.02V435H81.02V431.91Z" fill="black"/>
<path d="M9 438.08H0V441.17H9V438.08Z" fill="black"/>
<path d="M27 438.08H18V441.17H27V438.08Z" fill="black"/>
<path d="M36.01 441.18H27.01V444.27H36.01V441.18Z" fill="black"/>
<path d="M18 441.18H9V444.27H18V441.18Z" fill="black"/>
<path d="M45.01 438.08H36.01V441.17H45.01V438.08Z" fill="black"/>
<path d="M63.02 438.08H54.02V441.17H63.02V438.08Z" fill="black"/>
<path d="M72.02 441.18H63.02V444.27H72.02V441.18Z" fill="black"/>
<path d="M54.01 441.18H45.01V444.27H54.01V441.18Z" fill="black"/>
<path d="M81.02 438.08H72.02V441.17H81.02V438.08Z" fill="black"/>
<path d="M9 444.25H0V447.34H9V444.25Z" fill="black"/>
<path d="M27 444.25H18V447.34H27V444.25Z" fill="black"/>
<path d="M36.01 447.35H27.01V450.44H36.01V447.35Z" fill="black"/>
<path d="M18 447.35H9V450.44H18V447.35Z" fill="black"/>
<path d="M45.01 444.25H36.01V447.34H45.01V444.25Z" fill="black"/>
<path d="M63.02 444.25H54.02V447.34H63.02V444.25Z" fill="black"/>
<path d="M72.02 447.35H63.02V450.44H72.02V447.35Z" fill="black"/>
<path d="M54.01 447.35H45.01V450.44H54.01V447.35Z" fill="black"/>
<path d="M81.02 444.25H72.02V447.34H81.02V444.25Z" fill="black"/>
<path d="M9 450.42H0V453.51H9V450.42Z" fill="black"/>
<path d="M27 450.42H18V453.51H27V450.42Z" fill="black"/>
<path d="M36.01 453.52H27.01V456.61H36.01V453.52Z" fill="black"/>
<path d="M18 453.52H9V456.61H18V453.52Z" fill="black"/>
<path d="M45.01 450.42H36.01V453.51H45.01V450.42Z" fill="black"/>
<path d="M63.02 450.42H54.02V453.51H63.02V450.42Z" fill="black"/>
<path d="M72.02 453.52H63.02V456.61H72.02V453.52Z" fill="black"/>
<path d="M54.01 453.52H45.01V456.61H54.01V453.52Z" fill="black"/>
<path d="M81.02 450.42H72.02V453.51H81.02V450.42Z" fill="black"/>
<path d="M9 456.59H0V459.68H9V456.59Z" fill="black"/>
<path d="M27 456.59H18V459.68H27V456.59Z" fill="black"/>
<path d="M45.01 456.59H36.01V459.68H45.01V456.59Z" fill="black"/>
<path d="M63.02 456.59H54.02V459.68H63.02V456.59Z" fill="black"/>
<path d="M81.02 456.59H72.02V459.68H81.02V456.59Z" fill="black"/>
<path d="M99.01 0H90.01V3.09H99.01V0Z" fill="black"/>
<path d="M108.02 3.09961H99.02V6.18961H108.02V3.09961Z" fill="black"/>
<path d="M90.01 3.09961H81.01V6.18961H90.01V3.09961Z" fill="black"/>
<path d="M117.02 0H108.02V3.09H117.02V0Z" fill="black"/>
<path d="M126.02 3.09961H117.02V6.18961H126.02V3.09961Z" fill="black"/>
<path d="M99.01 6.19043H90.01V9.28043H99.01V6.19043Z" fill="black"/>
<path d="M108.02 9.28027H99.02V12.3703H108.02V9.28027Z" fill="black"/>
<path d="M90.01 9.28027H81.01V12.3703H90.01V9.28027Z" fill="black"/>
<path d="M117.02 6.19043H108.02V9.28043H117.02V6.19043Z" fill="black"/>
<path d="M126.02 9.28027H117.02V12.3703H126.02V9.28027Z" fill="black"/>
<path d="M99.01 12.3604H90.01V15.4504H99.01V12.3604Z" fill="black"/>
<path d="M108.02 15.4502H99.02V18.5402H108.02V15.4502Z" fill="black"/>
<path d="M90.01 15.4502H81.01V18.5402H90.01V15.4502Z" fill="black"/>
<path d="M117.02 12.3604H108.02V15.4504H117.02V12.3604Z" fill="black"/>
<path d="M126.02 15.4502H117.02V18.5402H126.02V15.4502Z" fill="black"/>
<path d="M99.01 18.5303H90.01V21.6203H99.01V18.5303Z" fill="black"/>
<path d="M108.02 21.6201H99.02V24.7101H108.02V21.6201Z" fill="black"/>
<path d="M90.01 21.6201H81.01V24.7101H90.01V21.6201Z" fill="black"/>
<path d="M117.02 18.5303H108.02V21.6203H117.02V18.5303Z" fill="black"/>
<path d="M126.02 21.6201H117.02V24.7101H126.02V21.6201Z" fill="black"/>
<path d="M99.01 24.7002H90.01V27.7902H99.01V24.7002Z" fill="black"/>
<path d="M108.02 27.79H99.02V30.88H108.02V27.79Z" fill="black"/>
<path d="M90.01 27.79H81.01V30.88H90.01V27.79Z" fill="black"/>
<path d="M117.02 24.7002H108.02V27.7902H117.02V24.7002Z" fill="black"/>
<path d="M126.02 27.79H117.02V30.88H126.02V27.79Z" fill="black"/>
<path d="M99.01 30.8701H90.01V33.9601H99.01V30.8701Z" fill="black"/>
<path d="M108.02 33.96H99.02V37.05H108.02V33.96Z" fill="black"/>
<path d="M90.01 33.96H81.01V37.05H90.01V33.96Z" fill="black"/>
<path d="M117.02 30.8701H108.02V33.9601H117.02V30.8701Z" fill="black"/>
<path d="M126.02 33.96H117.02V37.05H126.02V33.96Z" fill="black"/>
<path d="M99.01 37.04H90.01V40.13H99.01V37.04Z" fill="black"/>
<path d="M108.02 40.1299H99.02V43.2199H108.02V40.1299Z" fill="black"/>
<path d="M90.01 40.1299H81.01V43.2199H90.01V40.1299Z" fill="black"/>
<path d="M117.02 37.04H108.02V40.13H117.02V37.04Z" fill="black"/>
<path d="M126.02 40.1299H117.02V43.2199H126.02V40.1299Z" fill="black"/>
<path d="M99.01 43.21H90.01V46.3H99.01V43.21Z" fill="black"/>
<path d="M108.02 46.2998H99.02V49.3898H108.02V46.2998Z" fill="black"/>
<path d="M90.01 46.2998H81.01V49.3898H90.01V46.2998Z" fill="black"/>
<path d="M117.02 43.21H108.02V46.3H117.02V43.21Z" fill="black"/>
<path d="M126.02 46.2998H117.02V49.3898H126.02V46.2998Z" fill="black"/>
<path d="M99.01 49.3799H90.01V52.4699H99.01V49.3799Z" fill="black"/>
<path d="M108.02 52.4697H99.02V55.5597H108.02V52.4697Z" fill="black"/>
<path d="M90.01 52.4697H81.01V55.5597H90.01V52.4697Z" fill="black"/>
<path d="M117.02 49.3799H108.02V52.4699H117.02V49.3799Z" fill="black"/>
<path d="M126.02 52.4697H117.02V55.5597H126.02V52.4697Z" fill="black"/>
<path d="M99.01 55.5498H90.01V58.6398H99.01V55.5498Z" fill="black"/>
<path d="M108.02 58.6396H99.02V61.7296H108.02V58.6396Z" fill="black"/>
<path d="M90.01 58.6396H81.01V61.7296H90.01V58.6396Z" fill="black"/>
<path d="M117.02 55.5498H108.02V58.6398H117.02V55.5498Z" fill="black"/>
<path d="M126.02 58.6396H117.02V61.7296H126.02V58.6396Z" fill="black"/>
<path d="M99.01 61.7197H90.01V64.8097H99.01V61.7197Z" fill="black"/>
<path d="M108.02 64.8096H99.02V67.8996H108.02V64.8096Z" fill="black"/>
<path d="M90.01 64.8096H81.01V67.8996H90.01V64.8096Z" fill="black"/>
<path d="M117.02 61.7197H108.02V64.8097H117.02V61.7197Z" fill="black"/>
<path d="M126.02 64.8096H117.02V67.8996H126.02V64.8096Z" fill="black"/>
<path d="M99.01 67.8896H90.01V70.9797H99.01V67.8896Z" fill="black"/>
<path d="M108.02 70.9805H99.02V74.0705H108.02V70.9805Z" fill="black"/>
<path d="M90.01 70.9805H81.01V74.0705H90.01V70.9805Z" fill="black"/>
<path d="M117.02 67.8896H108.02V70.9797H117.02V67.8896Z" fill="black"/>
<path d="M126.02 70.9805H117.02V74.0705H126.02V70.9805Z" fill="black"/>
<path d="M99.01 74.0596H90.01V77.1496H99.01V74.0596Z" fill="black"/>
<path d="M108.02 77.1504H99.02V80.2404H108.02V77.1504Z" fill="black"/>
<path d="M90.01 77.1504H81.01V80.2404H90.01V77.1504Z" fill="black"/>
<path d="M117.02 74.0596H108.02V77.1496H117.02V74.0596Z" fill="black"/>
<path d="M126.02 77.1504H117.02V80.2404H126.02V77.1504Z" fill="black"/>
<path d="M99.01 80.2305H90.01V83.3205H99.01V80.2305Z" fill="black"/>
<path d="M108.02 83.3203H99.02V86.4103H108.02V83.3203Z" fill="black"/>
<path d="M90.01 83.3203H81.01V86.4103H90.01V83.3203Z" fill="black"/>
<path d="M117.02 80.2305H108.02V83.3205H117.02V80.2305Z" fill="black"/>
<path d="M126.02 83.3203H117.02V86.4103H126.02V83.3203Z" fill="black"/>
<path d="M99.01 86.4004H90.01V89.4904H99.01V86.4004Z" fill="black"/>
<path d="M108.02 89.4902H99.02V92.5802H108.02V89.4902Z" fill="black"/>
<path d="M90.01 89.4902H81.01V92.5802H90.01V89.4902Z" fill="black"/>
<path d="M117.02 86.4004H108.02V89.4904H117.02V86.4004Z" fill="black"/>
<path d="M126.02 89.4902H117.02V92.5802H126.02V89.4902Z" fill="black"/>
<path d="M99.01 92.5703H90.01V95.6603H99.01V92.5703Z" fill="black"/>
<path d="M108.02 95.6602H99.02V98.7502H108.02V95.6602Z" fill="black"/>
<path d="M90.01 95.6602H81.01V98.7502H90.01V95.6602Z" fill="black"/>
<path d="M117.02 92.5703H108.02V95.6603H117.02V92.5703Z" fill="black"/>
<path d="M126.02 95.6602H117.02V98.7502H126.02V95.6602Z" fill="black"/>
<path d="M99.01 98.7402H90.01V101.83H99.01V98.7402Z" fill="black"/>
<path d="M108.02 101.83H99.02V104.92H108.02V101.83Z" fill="black"/>
<path d="M90.01 101.83H81.01V104.92H90.01V101.83Z" fill="black"/>
<path d="M117.02 98.7402H108.02V101.83H117.02V98.7402Z" fill="black"/>
<path d="M126.02 101.83H117.02V104.92H126.02V101.83Z" fill="black"/>
<path d="M99.01 104.91H90.01V108H99.01V104.91Z" fill="black"/>
<path d="M108.02 108H99.02V111.09H108.02V108Z" fill="black"/>
<path d="M90.01 108H81.01V111.09H90.01V108Z" fill="black"/>
<path d="M117.02 104.91H108.02V108H117.02V104.91Z" fill="black"/>
<path d="M126.02 108H117.02V111.09H126.02V108Z" fill="black"/>
<path d="M99.01 111.08H90.01V114.17H99.01V111.08Z" fill="black"/>
<path d="M108.02 114.17H99.02V117.26H108.02V114.17Z" fill="black"/>
<path d="M90.01 114.17H81.01V117.26H90.01V114.17Z" fill="black"/>
<path d="M117.02 111.08H108.02V114.17H117.02V111.08Z" fill="black"/>
<path d="M126.02 114.17H117.02V117.26H126.02V114.17Z" fill="black"/>
<path d="M99.01 117.25H90.01V120.34H99.01V117.25Z" fill="black"/>
<path d="M108.02 120.34H99.02V123.43H108.02V120.34Z" fill="black"/>
<path d="M90.01 120.34H81.01V123.43H90.01V120.34Z" fill="black"/>
<path d="M117.02 117.25H108.02V120.34H117.02V117.25Z" fill="black"/>
<path d="M126.02 120.34H117.02V123.43H126.02V120.34Z" fill="black"/>
<path d="M99.01 123.42H90.01V126.51H99.01V123.42Z" fill="black"/>
<path d="M108.02 126.51H99.02V129.6H108.02V126.51Z" fill="black"/>
<path d="M90.01 126.51H81.01V129.6H90.01V126.51Z" fill="black"/>
<path d="M117.02 123.42H108.02V126.51H117.02V123.42Z" fill="black"/>
<path d="M126.02 126.51H117.02V129.6H126.02V126.51Z" fill="black"/>
<path d="M99.01 129.59H90.01V132.68H99.01V129.59Z" fill="black"/>
<path d="M108.02 132.68H99.02V135.77H108.02V132.68Z" fill="black"/>
<path d="M90.01 132.68H81.01V135.77H90.01V132.68Z" fill="black"/>
<path d="M117.02 129.59H108.02V132.68H117.02V129.59Z" fill="black"/>
<path d="M126.02 132.68H117.02V135.77H126.02V132.68Z" fill="black"/>
<path d="M99.01 135.76H90.01V138.85H99.01V135.76Z" fill="black"/>
<path d="M108.02 138.85H99.02V141.94H108.02V138.85Z" fill="black"/>
<path d="M90.01 138.85H81.01V141.94H90.01V138.85Z" fill="black"/>
<path d="M117.02 135.76H108.02V138.85H117.02V135.76Z" fill="black"/>
<path d="M126.02 138.85H117.02V141.94H126.02V138.85Z" fill="black"/>
<path d="M99.01 141.93H90.01V145.02H99.01V141.93Z" fill="black"/>
<path d="M108.02 145.02H99.02V148.11H108.02V145.02Z" fill="black"/>
<path d="M90.01 145.02H81.01V148.11H90.01V145.02Z" fill="black"/>
<path d="M117.02 141.93H108.02V145.02H117.02V141.93Z" fill="black"/>
<path d="M126.02 145.02H117.02V148.11H126.02V145.02Z" fill="black"/>
<path d="M99.01 148.1H90.01V151.19H99.01V148.1Z" fill="black"/>
<path d="M108.02 151.19H99.02V154.28H108.02V151.19Z" fill="black"/>
<path d="M90.01 151.19H81.01V154.28H90.01V151.19Z" fill="black"/>
<path d="M117.02 148.1H108.02V151.19H117.02V148.1Z" fill="black"/>
<path d="M126.02 151.19H117.02V154.28H126.02V151.19Z" fill="black"/>
<path d="M99.01 154.27H90.01V157.36H99.01V154.27Z" fill="black"/>
<path d="M108.02 157.36H99.02V160.45H108.02V157.36Z" fill="black"/>
<path d="M90.01 157.36H81.01V160.45H90.01V157.36Z" fill="black"/>
<path d="M117.02 154.27H108.02V157.36H117.02V154.27Z" fill="black"/>
<path d="M126.02 157.36H117.02V160.45H126.02V157.36Z" fill="black"/>
<path d="M99.01 160.44H90.01V163.53H99.01V160.44Z" fill="black"/>
<path d="M108.02 163.53H99.02V166.62H108.02V163.53Z" fill="black"/>
<path d="M90.01 163.53H81.01V166.62H90.01V163.53Z" fill="black"/>
<path d="M117.02 160.44H108.02V163.53H117.02V160.44Z" fill="black"/>
<path d="M126.02 163.53H117.02V166.62H126.02V163.53Z" fill="black"/>
<path d="M99.01 166.61H90.01V169.7H99.01V166.61Z" fill="black"/>
<path d="M108.02 169.7H99.02V172.79H108.02V169.7Z" fill="black"/>
<path d="M90.01 169.7H81.01V172.79H90.01V169.7Z" fill="black"/>
<path d="M117.02 166.61H108.02V169.7H117.02V166.61Z" fill="black"/>
<path d="M126.02 169.7H117.02V172.79H126.02V169.7Z" fill="black"/>
<path d="M99.01 172.78H90.01V175.87H99.01V172.78Z" fill="black"/>
<path d="M108.02 175.87H99.02V178.96H108.02V175.87Z" fill="black"/>
<path d="M90.01 175.87H81.01V178.96H90.01V175.87Z" fill="black"/>
<path d="M117.02 172.78H108.02V175.87H117.02V172.78Z" fill="black"/>
<path d="M126.02 175.87H117.02V178.96H126.02V175.87Z" fill="black"/>
<path d="M99.01 178.94H90.01V182.03H99.01V178.94Z" fill="black"/>
<path d="M108.02 182.04H99.02V185.13H108.02V182.04Z" fill="black"/>
<path d="M90.01 182.04H81.01V185.13H90.01V182.04Z" fill="black"/>
<path d="M117.02 178.94H108.02V182.03H117.02V178.94Z" fill="black"/>
<path d="M126.02 182.04H117.02V185.13H126.02V182.04Z" fill="black"/>
<path d="M99.01 185.11H90.01V188.2H99.01V185.11Z" fill="black"/>
<path d="M108.02 188.21H99.02V191.3H108.02V188.21Z" fill="black"/>
<path d="M90.01 188.21H81.01V191.3H90.01V188.21Z" fill="black"/>
<path d="M117.02 185.11H108.02V188.2H117.02V185.11Z" fill="black"/>
<path d="M126.02 188.21H117.02V191.3H126.02V188.21Z" fill="black"/>
<path d="M99.01 191.28H90.01V194.37H99.01V191.28Z" fill="black"/>
<path d="M108.02 194.38H99.02V197.47H108.02V194.38Z" fill="black"/>
<path d="M90.01 194.38H81.01V197.47H90.01V194.38Z" fill="black"/>
<path d="M117.02 191.28H108.02V194.37H117.02V191.28Z" fill="black"/>
<path d="M126.02 194.38H117.02V197.47H126.02V194.38Z" fill="black"/>
<path d="M99.01 197.45H90.01V200.54H99.01V197.45Z" fill="black"/>
<path d="M108.02 200.55H99.02V203.64H108.02V200.55Z" fill="black"/>
<path d="M90.01 200.55H81.01V203.64H90.01V200.55Z" fill="black"/>
<path d="M117.02 197.45H108.02V200.54H117.02V197.45Z" fill="black"/>
<path d="M126.02 200.55H117.02V203.64H126.02V200.55Z" fill="black"/>
<path d="M99.01 203.62H90.01V206.71H99.01V203.62Z" fill="black"/>
<path d="M108.02 206.72H99.02V209.81H108.02V206.72Z" fill="black"/>
<path d="M90.01 206.72H81.01V209.81H90.01V206.72Z" fill="black"/>
<path d="M117.02 203.62H108.02V206.71H117.02V203.62Z" fill="black"/>
<path d="M126.02 206.72H117.02V209.81H126.02V206.72Z" fill="black"/>
<path d="M99.01 209.79H90.01V212.88H99.01V209.79Z" fill="black"/>
<path d="M108.02 212.89H99.02V215.98H108.02V212.89Z" fill="black"/>
<path d="M90.01 212.89H81.01V215.98H90.01V212.89Z" fill="black"/>
<path d="M117.02 209.79H108.02V212.88H117.02V209.79Z" fill="black"/>
<path d="M126.02 212.89H117.02V215.98H126.02V212.89Z" fill="black"/>
<path d="M99.01 215.96H90.01V219.05H99.01V215.96Z" fill="black"/>
<path d="M108.02 219.06H99.02V222.15H108.02V219.06Z" fill="black"/>
<path d="M90.01 219.06H81.01V222.15H90.01V219.06Z" fill="black"/>
<path d="M117.02 215.96H108.02V219.05H117.02V215.96Z" fill="black"/>
<path d="M126.02 219.06H117.02V222.15H126.02V219.06Z" fill="black"/>
<path d="M99.01 222.13H90.01V225.22H99.01V222.13Z" fill="black"/>
<path d="M108.02 225.23H99.02V228.32H108.02V225.23Z" fill="black"/>
<path d="M90.01 225.23H81.01V228.32H90.01V225.23Z" fill="black"/>
<path d="M117.02 222.13H108.02V225.22H117.02V222.13Z" fill="black"/>
<path d="M126.02 225.23H117.02V228.32H126.02V225.23Z" fill="black"/>
<path d="M99.01 228.3H90.01V231.39H99.01V228.3Z" fill="black"/>
<path d="M108.02 231.4H99.02V234.49H108.02V231.4Z" fill="black"/>
<path d="M90.01 231.4H81.01V234.49H90.01V231.4Z" fill="black"/>
<path d="M117.02 228.3H108.02V231.39H117.02V228.3Z" fill="black"/>
<path d="M126.02 231.4H117.02V234.49H126.02V231.4Z" fill="black"/>
<path d="M99.01 234.47H90.01V237.56H99.01V234.47Z" fill="black"/>
<path d="M108.02 237.57H99.02V240.66H108.02V237.57Z" fill="black"/>
<path d="M90.01 237.57H81.01V240.66H90.01V237.57Z" fill="black"/>
<path d="M117.02 234.47H108.02V237.56H117.02V234.47Z" fill="black"/>
<path d="M126.02 237.57H117.02V240.66H126.02V237.57Z" fill="black"/>
<path d="M99.01 240.64H90.01V243.73H99.01V240.64Z" fill="black"/>
<path d="M108.02 243.74H99.02V246.83H108.02V243.74Z" fill="black"/>
<path d="M90.01 243.74H81.01V246.83H90.01V243.74Z" fill="black"/>
<path d="M117.02 240.64H108.02V243.73H117.02V240.64Z" fill="black"/>
<path d="M126.02 243.74H117.02V246.83H126.02V243.74Z" fill="black"/>
<path d="M99.01 246.81H90.01V249.9H99.01V246.81Z" fill="black"/>
<path d="M108.02 249.91H99.02V253H108.02V249.91Z" fill="black"/>
<path d="M90.01 249.91H81.01V253H90.01V249.91Z" fill="black"/>
<path d="M117.02 246.81H108.02V249.9H117.02V246.81Z" fill="black"/>
<path d="M126.02 249.91H117.02V253H126.02V249.91Z" fill="black"/>
<path d="M99.01 252.98H90.01V256.07H99.01V252.98Z" fill="black"/>
<path d="M108.02 256.08H99.02V259.17H108.02V256.08Z" fill="black"/>
<path d="M90.01 256.08H81.01V259.17H90.01V256.08Z" fill="black"/>
<path d="M117.02 252.98H108.02V256.07H117.02V252.98Z" fill="black"/>
<path d="M126.02 256.08H117.02V259.17H126.02V256.08Z" fill="black"/>
<path d="M99.01 259.15H90.01V262.24H99.01V259.15Z" fill="black"/>
<path d="M108.02 262.25H99.02V265.34H108.02V262.25Z" fill="black"/>
<path d="M90.01 262.25H81.01V265.34H90.01V262.25Z" fill="black"/>
<path d="M117.02 259.15H108.02V262.24H117.02V259.15Z" fill="black"/>
<path d="M126.02 262.25H117.02V265.34H126.02V262.25Z" fill="black"/>
<path d="M99.01 265.32H90.01V268.41H99.01V265.32Z" fill="black"/>
<path d="M108.02 268.42H99.02V271.51H108.02V268.42Z" fill="black"/>
<path d="M90.01 268.42H81.01V271.51H90.01V268.42Z" fill="black"/>
<path d="M117.02 265.32H108.02V268.41H117.02V265.32Z" fill="black"/>
<path d="M126.02 268.42H117.02V271.51H126.02V268.42Z" fill="black"/>
<path d="M99.01 271.49H90.01V274.58H99.01V271.49Z" fill="black"/>
<path d="M108.02 274.59H99.02V277.68H108.02V274.59Z" fill="black"/>
<path d="M90.01 274.59H81.01V277.68H90.01V274.59Z" fill="black"/>
<path d="M117.02 271.49H108.02V274.58H117.02V271.49Z" fill="black"/>
<path d="M126.02 274.59H117.02V277.68H126.02V274.59Z" fill="black"/>
<path d="M99.01 277.66H90.01V280.75H99.01V277.66Z" fill="black"/>
<path d="M108.02 280.76H99.02V283.85H108.02V280.76Z" fill="black"/>
<path d="M90.01 280.76H81.01V283.85H90.01V280.76Z" fill="black"/>
<path d="M117.02 277.66H108.02V280.75H117.02V277.66Z" fill="black"/>
<path d="M126.02 280.76H117.02V283.85H126.02V280.76Z" fill="black"/>
<path d="M99.01 283.83H90.01V286.92H99.01V283.83Z" fill="black"/>
<path d="M108.02 286.93H99.02V290.02H108.02V286.93Z" fill="black"/>
<path d="M90.01 286.93H81.01V290.02H90.01V286.93Z" fill="black"/>
<path d="M117.02 283.83H108.02V286.92H117.02V283.83Z" fill="black"/>
<path d="M126.02 286.93H117.02V290.02H126.02V286.93Z" fill="black"/>
<path d="M99.01 290H90.01V293.09H99.01V290Z" fill="black"/>
<path d="M108.02 293.1H99.02V296.19H108.02V293.1Z" fill="black"/>
<path d="M90.01 293.1H81.01V296.19H90.01V293.1Z" fill="black"/>
<path d="M117.02 290H108.02V293.09H117.02V290Z" fill="black"/>
<path d="M126.02 293.1H117.02V296.19H126.02V293.1Z" fill="black"/>
<path d="M99.01 296.17H90.01V299.26H99.01V296.17Z" fill="black"/>
<path d="M108.02 299.27H99.02V302.36H108.02V299.27Z" fill="black"/>
<path d="M90.01 299.27H81.01V302.36H90.01V299.27Z" fill="black"/>
<path d="M117.02 296.17H108.02V299.26H117.02V296.17Z" fill="black"/>
<path d="M126.02 299.27H117.02V302.36H126.02V299.27Z" fill="black"/>
<path d="M99.01 302.34H90.01V305.43H99.01V302.34Z" fill="black"/>
<path d="M108.02 305.44H99.02V308.53H108.02V305.44Z" fill="black"/>
<path d="M90.01 305.44H81.01V308.53H90.01V305.44Z" fill="black"/>
<path d="M117.02 302.34H108.02V305.43H117.02V302.34Z" fill="black"/>
<path d="M126.02 305.44H117.02V308.53H126.02V305.44Z" fill="black"/>
<path d="M99.01 308.51H90.01V311.6H99.01V308.51Z" fill="black"/>
<path d="M108.02 311.61H99.02V314.7H108.02V311.61Z" fill="black"/>
<path d="M90.01 311.61H81.01V314.7H90.01V311.61Z" fill="black"/>
<path d="M117.02 308.51H108.02V311.6H117.02V308.51Z" fill="black"/>
<path d="M126.02 311.61H117.02V314.7H126.02V311.61Z" fill="black"/>
<path d="M99.01 314.68H90.01V317.77H99.01V314.68Z" fill="black"/>
<path d="M108.02 317.78H99.02V320.87H108.02V317.78Z" fill="black"/>
<path d="M90.01 317.78H81.01V320.87H90.01V317.78Z" fill="black"/>
<path d="M117.02 314.68H108.02V317.77H117.02V314.68Z" fill="black"/>
<path d="M126.02 317.78H117.02V320.87H126.02V317.78Z" fill="black"/>
<path d="M99.01 320.85H90.01V323.94H99.01V320.85Z" fill="black"/>
<path d="M108.02 323.95H99.02V327.04H108.02V323.95Z" fill="black"/>
<path d="M90.01 323.95H81.01V327.04H90.01V323.95Z" fill="black"/>
<path d="M117.02 320.85H108.02V323.94H117.02V320.85Z" fill="black"/>
<path d="M126.02 323.95H117.02V327.04H126.02V323.95Z" fill="black"/>
<path d="M99.01 327.02H90.01V330.11H99.01V327.02Z" fill="black"/>
<path d="M108.02 330.12H99.02V333.21H108.02V330.12Z" fill="black"/>
<path d="M90.01 330.12H81.01V333.21H90.01V330.12Z" fill="black"/>
<path d="M117.02 327.02H108.02V330.11H117.02V327.02Z" fill="black"/>
<path d="M126.02 330.12H117.02V333.21H126.02V330.12Z" fill="black"/>
<path d="M99.01 333.19H90.01V336.28H99.01V333.19Z" fill="black"/>
<path d="M108.02 336.29H99.02V339.38H108.02V336.29Z" fill="black"/>
<path d="M90.01 336.29H81.01V339.38H90.01V336.29Z" fill="black"/>
<path d="M117.02 333.19H108.02V336.28H117.02V333.19Z" fill="black"/>
<path d="M126.02 336.29H117.02V339.38H126.02V336.29Z" fill="black"/>
<path d="M99.01 339.36H90.01V342.45H99.01V339.36Z" fill="black"/>
<path d="M108.02 342.46H99.02V345.55H108.02V342.46Z" fill="black"/>
<path d="M90.01 342.46H81.01V345.55H90.01V342.46Z" fill="black"/>
<path d="M117.02 339.36H108.02V342.45H117.02V339.36Z" fill="black"/>
<path d="M126.02 342.46H117.02V345.55H126.02V342.46Z" fill="black"/>
<path d="M99.01 345.53H90.01V348.62H99.01V345.53Z" fill="black"/>
<path d="M108.02 348.63H99.02V351.72H108.02V348.63Z" fill="black"/>
<path d="M90.01 348.63H81.01V351.72H90.01V348.63Z" fill="black"/>
<path d="M117.02 345.53H108.02V348.62H117.02V345.53Z" fill="black"/>
<path d="M126.02 348.63H117.02V351.72H126.02V348.63Z" fill="black"/>
<path d="M99.01 351.7H90.01V354.79H99.01V351.7Z" fill="black"/>
<path d="M108.02 354.8H99.02V357.89H108.02V354.8Z" fill="black"/>
<path d="M90.01 354.8H81.01V357.89H90.01V354.8Z" fill="black"/>
<path d="M117.02 351.7H108.02V354.79H117.02V351.7Z" fill="black"/>
<path d="M126.02 354.8H117.02V357.89H126.02V354.8Z" fill="black"/>
<path d="M99.01 357.87H90.01V360.96H99.01V357.87Z" fill="black"/>
<path d="M108.02 360.97H99.02V364.06H108.02V360.97Z" fill="black"/>
<path d="M90.01 360.97H81.01V364.06H90.01V360.97Z" fill="black"/>
<path d="M117.02 357.87H108.02V360.96H117.02V357.87Z" fill="black"/>
<path d="M126.02 360.97H117.02V364.06H126.02V360.97Z" fill="black"/>
<path d="M99.01 364.04H90.01V367.13H99.01V364.04Z" fill="black"/>
<path d="M108.02 367.14H99.02V370.23H108.02V367.14Z" fill="black"/>
<path d="M90.01 367.14H81.01V370.23H90.01V367.14Z" fill="black"/>
<path d="M117.02 364.04H108.02V367.13H117.02V364.04Z" fill="black"/>
<path d="M126.02 367.14H117.02V370.23H126.02V367.14Z" fill="black"/>
<path d="M99.01 370.21H90.01V373.3H99.01V370.21Z" fill="black"/>
<path d="M108.02 373.31H99.02V376.4H108.02V373.31Z" fill="black"/>
<path d="M90.01 373.31H81.01V376.4H90.01V373.31Z" fill="black"/>
<path d="M117.02 370.21H108.02V373.3H117.02V370.21Z" fill="black"/>
<path d="M126.02 373.31H117.02V376.4H126.02V373.31Z" fill="black"/>
<path d="M99.01 376.38H90.01V379.47H99.01V376.38Z" fill="black"/>
<path d="M108.02 379.48H99.02V382.57H108.02V379.48Z" fill="black"/>
<path d="M90.01 379.48H81.01V382.57H90.01V379.48Z" fill="black"/>
<path d="M117.02 376.38H108.02V379.47H117.02V376.38Z" fill="black"/>
<path d="M126.02 379.48H117.02V382.57H126.02V379.48Z" fill="black"/>
<path d="M99.01 382.55H90.01V385.64H99.01V382.55Z" fill="black"/>
<path d="M108.02 385.65H99.02V388.74H108.02V385.65Z" fill="black"/>
<path d="M90.01 385.65H81.01V388.74H90.01V385.65Z" fill="black"/>
<path d="M117.02 382.55H108.02V385.64H117.02V382.55Z" fill="black"/>
<path d="M126.02 385.65H117.02V388.74H126.02V385.65Z" fill="black"/>
<path d="M99.01 388.72H90.01V391.81H99.01V388.72Z" fill="black"/>
<path d="M108.02 391.82H99.02V394.91H108.02V391.82Z" fill="black"/>
<path d="M90.01 391.82H81.01V394.91H90.01V391.82Z" fill="black"/>
<path d="M117.02 388.72H108.02V391.81H117.02V388.72Z" fill="black"/>
<path d="M126.02 391.82H117.02V394.91H126.02V391.82Z" fill="black"/>
<path d="M99.01 394.89H90.01V397.98H99.01V394.89Z" fill="black"/>
<path d="M108.02 397.99H99.02V401.08H108.02V397.99Z" fill="black"/>
<path d="M90.01 397.99H81.01V401.08H90.01V397.99Z" fill="black"/>
<path d="M117.02 394.89H108.02V397.98H117.02V394.89Z" fill="black"/>
<path d="M126.02 397.99H117.02V401.08H126.02V397.99Z" fill="black"/>
<path d="M99.01 401.06H90.01V404.15H99.01V401.06Z" fill="black"/>
<path d="M108.02 404.16H99.02V407.25H108.02V404.16Z" fill="black"/>
<path d="M90.01 404.16H81.01V407.25H90.01V404.16Z" fill="black"/>
<path d="M117.02 401.06H108.02V404.15H117.02V401.06Z" fill="black"/>
<path d="M126.02 404.16H117.02V407.25H126.02V404.16Z" fill="black"/>
<path d="M99.01 407.23H90.01V410.32H99.01V407.23Z" fill="black"/>
<path d="M108.02 410.33H99.02V413.42H108.02V410.33Z" fill="black"/>
<path d="M90.01 410.33H81.01V413.42H90.01V410.33Z" fill="black"/>
<path d="M117.02 407.23H108.02V410.32H117.02V407.23Z" fill="black"/>
<path d="M126.02 410.33H117.02V413.42H126.02V410.33Z" fill="black"/>
<path d="M99.01 413.4H90.01V416.49H99.01V413.4Z" fill="black"/>
<path d="M108.02 416.5H99.02V419.59H108.02V416.5Z" fill="black"/>
<path d="M90.01 416.5H81.01V419.59H90.01V416.5Z" fill="black"/>
<path d="M117.02 413.4H108.02V416.49H117.02V413.4Z" fill="black"/>
<path d="M126.02 416.5H117.02V419.59H126.02V416.5Z" fill="black"/>
<path d="M99.01 419.57H90.01V422.66H99.01V419.57Z" fill="black"/>
<path d="M108.02 422.67H99.02V425.76H108.02V422.67Z" fill="black"/>
<path d="M90.01 422.67H81.01V425.76H90.01V422.67Z" fill="black"/>
<path d="M117.02 419.57H108.02V422.66H117.02V419.57Z" fill="black"/>
<path d="M126.02 422.67H117.02V425.76H126.02V422.67Z" fill="black"/>
<path d="M99.01 425.74H90.01V428.83H99.01V425.74Z" fill="black"/>
<path d="M108.02 428.84H99.02V431.93H108.02V428.84Z" fill="black"/>
<path d="M90.01 428.84H81.01V431.93H90.01V428.84Z" fill="black"/>
<path d="M117.02 425.74H108.02V428.83H117.02V425.74Z" fill="black"/>
<path d="M126.02 428.84H117.02V431.93H126.02V428.84Z" fill="black"/>
<path d="M99.01 431.91H90.01V435H99.01V431.91Z" fill="black"/>
<path d="M108.02 435.01H99.02V438.1H108.02V435.01Z" fill="black"/>
<path d="M90.01 435.01H81.01V438.1H90.01V435.01Z" fill="black"/>
<path d="M117.02 431.91H108.02V435H117.02V431.91Z" fill="black"/>
<path d="M126.02 435.01H117.02V438.1H126.02V435.01Z" fill="black"/>
<path d="M99.01 438.08H90.01V441.17H99.01V438.08Z" fill="black"/>
<path d="M108.02 441.18H99.02V444.27H108.02V441.18Z" fill="black"/>
<path d="M90.01 441.18H81.01V444.27H90.01V441.18Z" fill="black"/>
<path d="M117.02 438.08H108.02V441.17H117.02V438.08Z" fill="black"/>
<path d="M126.02 441.18H117.02V444.27H126.02V441.18Z" fill="black"/>
<path d="M99.01 444.25H90.01V447.34H99.01V444.25Z" fill="black"/>
<path d="M108.02 447.35H99.02V450.44H108.02V447.35Z" fill="black"/>
<path d="M90.01 447.35H81.01V450.44H90.01V447.35Z" fill="black"/>
<path d="M117.02 444.25H108.02V447.34H117.02V444.25Z" fill="black"/>
<path d="M126.02 447.35H117.02V450.44H126.02V447.35Z" fill="black"/>
<path d="M99.01 450.42H90.01V453.51H99.01V450.42Z" fill="black"/>
<path d="M108.02 453.52H99.02V456.61H108.02V453.52Z" fill="black"/>
<path d="M90.01 453.52H81.01V456.61H90.01V453.52Z" fill="black"/>
<path d="M117.02 450.42H108.02V453.51H117.02V450.42Z" fill="black"/>
<path d="M126.02 453.52H117.02V456.61H126.02V453.52Z" fill="black"/>
<path d="M99.01 456.59H90.01V459.68H99.01V456.59Z" fill="black"/>
<path d="M117.02 456.59H108.02V459.68H117.02V456.59Z" fill="black"/>
</g>
</svg>
